<svg width="129" height="36" viewBox="0 0 129 36" fill="none" xmlns="http://www.w3.org/2000/svg">
<g clip-path="url(#clip0_181_192)">
<path d="M75.1203 17.2822V19.3404H73.797V20.6902H75.1203V25.2764C75.1203 26.8425 75.8468 27.4689 77.6748 27.4689C77.9961 27.4689 78.302 27.4317 78.5697 27.3869V26.052C78.3403 26.0744 78.195 26.0893 77.9426 26.0893C77.1242 26.0893 76.7646 25.7164 76.7646 24.8663V20.6902H78.5697V19.3404H76.7646V17.2822H75.1203Z" fill="#FFFFF1"/>
<path d="M83.2265 27.5807C85.6587 27.5807 87.1503 25.9923 87.1503 23.3599C87.1503 20.7423 85.6511 19.1465 83.2265 19.1465C80.7942 19.1465 79.2952 20.7423 79.2952 23.3599C79.2952 25.9923 80.7866 27.5807 83.2265 27.5807ZM83.2265 26.1563C81.7962 26.1563 80.9931 25.1348 80.9931 23.3599C80.9931 21.5999 81.7962 20.5708 83.2265 20.5708C84.6491 20.5708 85.4599 21.5999 85.4599 23.3599C85.4599 25.1273 84.6491 26.1563 83.2265 26.1563Z" fill="#FFFFF1"/>
<path d="M88.4264 27.4242H90.0708V22.6291C90.0708 21.4882 90.9504 20.72 92.1972 20.72C92.4875 20.72 92.9777 20.7722 93.115 20.817V19.236C92.939 19.1912 92.6257 19.1688 92.3806 19.1688C91.2946 19.1688 90.3691 19.7505 90.132 20.5485H90.0096V19.3031H88.4264V27.4242Z" fill="#FFFFF1"/>
<path d="M97.1978 20.5111C98.414 20.5111 99.2092 21.3389 99.2479 22.6141H95.0407C95.1328 21.3464 95.9815 20.5111 97.1978 20.5111ZM99.2406 25.2317C98.9346 25.8655 98.2537 26.2161 97.2595 26.2161C95.9437 26.2161 95.095 25.3137 95.0407 23.8894V23.7999H100.923V23.2406C100.923 20.6902 99.5234 19.1465 97.206 19.1465C94.8573 19.1465 93.3665 20.7946 93.3665 23.3897C93.3665 25.9849 94.8269 27.5807 97.2134 27.5807C99.118 27.5807 100.449 26.6859 100.824 25.2317H99.2406Z" fill="#FFFFF1"/>
<path d="M64.3363 24.4252C64.4631 26.4194 66.1675 27.6947 68.7043 27.6947C71.4155 27.6947 73.1121 26.3576 73.1121 24.2243C73.1121 22.547 72.1449 21.6195 69.7983 21.0862L68.5378 20.7847C67.0475 20.4446 66.445 19.9886 66.445 19.1924C66.445 18.1876 67.3804 17.5306 68.7837 17.5306C70.1154 17.5306 71.0351 18.1721 71.2015 19.2002H72.9297C72.8266 17.3219 71.1302 16.0002 68.8074 16.0002C66.3103 16.0002 64.6454 17.3219 64.6454 19.3084C64.6454 20.947 65.5888 21.9209 67.658 22.3924L69.1324 22.7402C70.6466 23.0881 71.3125 23.5982 71.3125 24.4484C71.3125 25.4378 70.2661 26.1566 68.8391 26.1566C67.3091 26.1566 66.2468 25.4841 66.0962 24.4252H64.3363Z" fill="#FFFFF1"/>
<path d="M47.3014 19.1688C46.1694 19.1688 45.1904 19.7207 44.6856 20.6454H44.5633V19.3031H42.98V30.1237H44.6245V26.1937H44.7545C45.1904 27.0513 46.1312 27.5584 47.3168 27.5584C49.4201 27.5584 50.7586 25.9401 50.7586 23.3599C50.7586 20.7797 49.4201 19.1688 47.3014 19.1688ZM46.8349 26.1192C45.4582 26.1192 44.5939 25.0602 44.5939 23.3674C44.5939 21.6671 45.4582 20.6081 46.8425 20.6081C48.2345 20.6081 49.0682 21.6447 49.0682 23.3599C49.0682 25.0826 48.2345 26.1192 46.8349 26.1192Z" fill="#FFFFF1"/>
<path d="M56.5128 19.1688C55.3808 19.1688 54.4018 19.7207 53.8971 20.6454H53.7747V19.3031H52.1914V30.1237H53.8359V26.1937H53.9659C54.4018 27.0513 55.3426 27.5584 56.5281 27.5584C58.6315 27.5584 59.97 25.9401 59.97 23.3599C59.97 20.7797 58.6315 19.1688 56.5128 19.1688ZM56.0463 26.1192C54.6696 26.1192 53.8053 25.0602 53.8053 23.3674C53.8053 21.6671 54.6696 20.6081 56.0539 20.6081C57.4459 20.6081 58.2797 21.6447 58.2797 23.3599C58.2797 25.0826 57.4459 26.1192 56.0463 26.1192Z" fill="#FFFFF1"/>
<path d="M40.0296 27.4242H41.9164L37.7862 16.2708H35.8757L31.7454 27.4242H33.5687L34.6231 24.4638H38.9832L40.0296 27.4242ZM36.7397 18.2959H36.8745L38.5313 23.0107H35.0749L36.7397 18.2959Z" fill="#FFFFF1"/>
<path d="M32.85 7.85828V13.2388H34.8425C36.4869 13.2388 37.4391 12.2507 37.4391 10.5317C37.4391 8.83892 36.4792 7.85828 34.8425 7.85828H32.85ZM33.7066 8.61892H34.7468C35.8903 8.61892 36.5672 9.32734 36.5672 10.5429C36.5672 11.7771 35.9017 12.4781 34.7468 12.4781H33.7066V8.61892Z" fill="#FFFFF1"/>
<path d="M40.3556 13.317C41.5717 13.317 42.3174 12.5228 42.3174 11.2065C42.3174 9.89782 41.5679 9.09985 40.3556 9.09985C39.1395 9.09985 38.3899 9.89782 38.3899 11.2065C38.3899 12.5228 39.1356 13.317 40.3556 13.317ZM40.3556 12.6048C39.6405 12.6048 39.2389 12.094 39.2389 11.2065C39.2389 10.3266 39.6405 9.81203 40.3556 9.81203C41.0669 9.81203 41.4723 10.3266 41.4723 11.2065C41.4723 12.0903 41.0669 12.6048 40.3556 12.6048Z" fill="#FFFFF1"/>
<path d="M48.668 9.17822H47.8457L47.1039 12.2767H47.0388L46.1822 9.17822H45.3944L44.5377 12.2767H44.4765L43.7308 9.17822H42.8971L44.0444 13.2388H44.8896L45.7462 10.2484H45.8112L46.6717 13.2388H47.5245L48.668 9.17822Z" fill="#FFFFF1"/>
<path d="M49.6149 13.2387H50.4371V10.8636C50.4371 10.2296 50.8233 9.83443 51.4314 9.83443C52.0395 9.83443 52.3301 10.1588 52.3301 10.8113V13.2387H53.1523V10.61C53.1523 9.64424 52.6399 9.09985 51.7106 9.09985C51.0834 9.09985 50.6704 9.37205 50.4676 9.82318H50.4065V9.17816H49.6149V13.2387Z" fill="#FFFFF1"/>
<path d="M54.4473 13.2388H55.2695V7.59351H54.4473V13.2388Z" fill="#FFFFF1"/>
<path d="M58.3618 13.317C59.5779 13.317 60.3236 12.5228 60.3236 11.2065C60.3236 9.89782 59.5741 9.09985 58.3618 9.09985C57.1457 9.09985 56.3961 9.89782 56.3961 11.2065C56.3961 12.5228 57.1418 13.317 58.3618 13.317ZM58.3618 12.6048C57.6467 12.6048 57.2451 12.094 57.2451 11.2065C57.2451 10.3266 57.6467 9.81203 58.3618 9.81203C59.0731 9.81203 59.4785 10.3266 59.4785 11.2065C59.4785 12.0903 59.0731 12.6048 58.3618 12.6048Z" fill="#FFFFF1"/>
<path d="M62.7735 12.631C62.3261 12.631 62.001 12.4184 62.001 12.0529C62.001 11.695 62.261 11.5049 62.8347 11.4676L63.8519 11.4042V11.7435C63.8519 12.2468 63.393 12.631 62.7735 12.631ZM62.5632 13.3058C63.11 13.3058 63.5651 13.0746 63.8137 12.6682H63.8787V13.2387H64.6704V10.4646C64.6704 9.60692 64.0814 9.09985 63.0373 9.09985C62.0928 9.09985 61.4197 9.54731 61.3355 10.2446H62.131C62.2228 9.95744 62.5402 9.79342 62.9991 9.79342C63.5612 9.79342 63.8519 10.0358 63.8519 10.4646V10.815L62.7238 10.8784C61.7333 10.9381 61.1749 11.3595 61.1749 12.0903C61.1749 12.8323 61.76 13.3058 62.5632 13.3058Z" fill="#FFFFF1"/>
<path d="M67.4605 13.3059C68.0341 13.3059 68.5198 13.0411 68.7684 12.5974H68.8335V13.2388H69.6213V7.59351H68.799V9.82323H68.7378C68.5122 9.37578 68.0303 9.11108 67.4605 9.11108C66.4088 9.11108 65.7319 9.92394 65.7319 11.2066C65.7319 12.493 66.4012 13.3059 67.4605 13.3059ZM67.6938 9.83069C68.3821 9.83069 68.8143 10.3639 68.8143 11.2103C68.8143 12.0605 68.386 12.5862 67.6938 12.5862C66.9978 12.5862 66.5809 12.0679 66.5809 11.2066C66.5809 10.3528 67.0016 9.83069 67.6938 9.83069Z" fill="#FFFFF1"/>
<path d="M74.953 13.317C76.1692 13.317 76.9149 12.5228 76.9149 11.2065C76.9149 9.89782 76.1653 9.09985 74.953 9.09985C73.7369 9.09985 72.9873 9.89782 72.9873 11.2065C72.9873 12.5228 73.7331 13.317 74.953 13.317ZM74.953 12.6048C74.2379 12.6048 73.8363 12.094 73.8363 11.2065C73.8363 10.3266 74.2379 9.81203 74.953 9.81203C75.6643 9.81203 76.0697 10.3266 76.0697 11.2065C76.0697 12.0903 75.6643 12.6048 74.953 12.6048Z" fill="#FFFFF1"/>
<path d="M78.0033 13.2387H78.8255V10.8636C78.8255 10.2296 79.2117 9.83443 79.8198 9.83443C80.4278 9.83443 80.7186 10.1588 80.7186 10.8113V13.2387H81.5407V10.61C81.5407 9.64424 81.0283 9.09985 80.099 9.09985C79.4718 9.09985 79.0588 9.37205 78.8561 9.82318H78.7949V9.17816H78.0033V13.2387Z" fill="#FFFFF1"/>
<path d="M85.3276 8.16772V9.19684H84.666V9.87169H85.3276V12.1648C85.3276 12.9479 85.6909 13.2611 86.6049 13.2611C86.7656 13.2611 86.9185 13.2425 87.0523 13.2201V12.5527C86.9376 12.5638 86.865 12.5713 86.7388 12.5713C86.3296 12.5713 86.1498 12.3849 86.1498 11.9598V9.87169H87.0523V9.19684H86.1498V8.16772H85.3276Z" fill="#FFFFF1"/>
<path d="M88.156 13.2388H88.9783V10.8673C88.9783 10.2521 89.353 9.83815 90.0261 9.83815C90.6074 9.83815 90.9172 10.1663 90.9172 10.8151V13.2388H91.7394V10.6175C91.7394 9.65175 91.1926 9.10363 90.3053 9.10363C89.6781 9.10363 89.2383 9.37578 89.0356 9.83069H88.9706V7.59351H88.156V13.2388Z" fill="#FFFFF1"/>
<path d="M94.7053 9.78218C95.3135 9.78218 95.7115 10.1961 95.7309 10.8337H93.6272C93.6733 10.1998 94.0972 9.78218 94.7053 9.78218ZM95.7263 12.1424C95.5733 12.4594 95.2333 12.6346 94.7357 12.6346C94.0788 12.6346 93.654 12.1835 93.6272 11.4713V11.4266H96.5675V11.1469C96.5675 9.87165 95.8682 9.09985 94.709 9.09985C93.5351 9.09985 92.7897 9.9239 92.7897 11.2215C92.7897 12.5191 93.5204 13.317 94.7127 13.317C95.6654 13.317 96.3307 12.8695 96.5178 12.1424H95.7263Z" fill="#FFFFF1"/>
<path d="M22.8229 18.2703C22.8429 16.7601 23.6747 15.3311 24.9943 14.5401C24.1618 13.3809 22.7674 12.6459 21.3167 12.6017C19.7695 12.4433 18.2694 13.5044 17.4809 13.5044C16.6771 13.5044 15.4632 12.6174 14.1559 12.6436C12.4519 12.6973 10.8635 13.6419 10.0345 15.0943C8.25241 18.1025 9.58169 22.5235 11.2887 24.9552C12.1428 26.1459 13.141 27.4759 14.447 27.4287C15.7251 27.377 16.2024 26.6341 17.7452 26.6341C19.2736 26.6341 19.7215 27.4287 21.054 27.3987C22.4255 27.377 23.2895 26.2027 24.1136 25.0008C24.7273 24.1523 25.1995 23.2147 25.5127 22.2225C23.9011 21.5579 22.8247 19.9764 22.8229 18.2703Z" fill="#FFFFF1"/>
<path d="M20.3058 11.0025C21.0537 10.1273 21.4221 9.00236 21.3328 7.86658C20.1904 7.98357 19.1352 8.51592 18.3773 9.3576C17.6362 10.1799 17.2505 11.285 17.3235 12.3774C18.4662 12.3889 19.5897 11.871 20.3058 11.0025Z" fill="#FFFFF1"/>
<path d="M122.55 0.49292H6.44998C3.14219 0.49292 0.460693 3.17441 0.460693 6.48221V29.5179C0.460693 32.8257 3.14219 35.5072 6.44998 35.5072H122.55C125.858 35.5072 128.539 32.8257 128.539 29.5179V6.48221C128.539 3.17441 125.858 0.49292 122.55 0.49292Z" stroke="#FFFFF1" stroke-width="0.921429"/>
</g>
<defs>
<clipPath id="clip0_181_192">
<rect width="129" height="35.9357" fill="white" transform="translate(0 0.0322266)"/>
</clipPath>
</defs>
</svg>
