<svg width="375" height="405" viewBox="0 0 375 405" fill="none" xmlns="http://www.w3.org/2000/svg">
<path d="M54.5705 101C53.7385 101 53.2905 100.552 53.2905 99.72V66.888C53.2905 61.384 53.0985 59.848 52.5225 57.16C52.3945 56.584 52.7145 56.2 53.2905 56.2H63.2745C72.2985 56.2 75.6905 62.536 75.6905 72.392C75.6905 81.864 72.5545 88.2 63.6585 88.2H63.1465C62.6345 88.2 62.3785 88.456 62.3785 88.968V99.72C62.3785 100.552 61.9305 101 61.0985 101H54.5705ZM63.5305 80.52C65.3225 80.52 66.4745 78.28 66.4745 72.392C66.4745 66.568 65.3225 64.328 63.5305 64.328H63.1465C62.6985 64.328 62.3785 64.648 62.3785 65.16V79.688C62.3785 80.136 62.6345 80.52 63.1465 80.52H63.5305ZM78.5585 101C77.9185 101 77.5345 100.616 77.5345 99.976V66.248C77.5345 60.744 77.3425 59.848 76.7665 57.16C76.6385 56.584 77.0225 56.2 77.5345 56.2H85.1505C85.7905 56.2 86.1745 56.52 86.1745 57.224V68.104C86.1745 68.424 86.2385 68.616 86.4305 68.616C86.5585 68.616 86.7505 68.488 87.0065 68.104C87.9025 66.824 89.6945 65.16 92.7665 65.16C98.9745 65.16 100.063 70.216 100.063 73.352V99.72C100.063 100.552 99.6145 101 98.7825 101H91.9985C91.3585 101 90.9745 100.616 90.9745 99.976V75.272C90.9745 73.288 90.2065 72.2 88.8625 72.2C87.4545 72.2 86.6225 73.288 86.6225 75.272V99.976C86.6225 100.616 86.2385 101 85.5985 101H78.5585ZM109.628 101.64C104.06 101.64 102.908 96.648 102.908 92.808V75.848C102.908 70.344 102.716 69.448 102.14 66.76C102.012 66.184 102.396 65.8 102.908 65.8H110.972C111.612 65.8 111.996 66.184 111.996 66.824V92.168C111.996 93.704 112.7 94.6 113.852 94.6C115.004 94.6 115.644 93.704 115.644 92.168V75.848C115.644 70.344 115.452 69.448 114.876 66.76C114.748 66.184 115.132 65.8 115.644 65.8H123.708C124.348 65.8 124.732 66.184 124.732 66.824V75.336C124.732 76.168 124.988 76.616 125.564 76.616C126.46 76.616 126.844 75.4 126.844 73.032C126.844 71.176 126.588 68.616 126.204 66.376C126.14 65.992 126.396 65.8 126.716 65.8H128.06C128.38 65.8 128.508 65.992 128.572 66.312C128.892 67.592 129.084 71.24 129.084 72.904C129.084 76.872 128.06 78.088 126.012 78.792C125.052 79.112 124.732 79.368 124.732 80.52V99.72C124.732 100.552 124.284 101 123.452 101H117.116C116.476 101 116.092 100.68 116.092 99.976V98.76C116.092 98.376 116.028 98.184 115.836 98.184C115.644 98.184 115.516 98.312 115.26 98.696C114.364 99.976 112.828 101.64 109.628 101.64ZM140.796 101.64C132.476 101.64 128.956 94.664 128.956 83.4C128.956 72.136 132.476 65.16 140.796 65.16C146.876 65.16 150.332 68.872 151.804 75.144C152.06 76.168 152.252 76.488 152.7 76.488C153.404 76.488 153.66 75.464 153.66 73.224C153.66 71.176 153.404 68.616 152.956 66.376C152.892 65.992 153.148 65.8 153.468 65.8H154.876C155.196 65.8 155.324 65.992 155.388 66.312C155.644 67.592 155.9 70.472 155.9 72.904C155.9 76.616 155.068 78.088 153.34 78.664C152.636 78.92 152.444 79.432 152.508 80.2C152.572 81.032 152.636 82.056 152.636 83.4C152.636 94.664 149.116 101.64 140.796 101.64ZM140.796 94.28C142.332 94.28 143.164 92.296 143.164 83.4C143.164 74.504 142.332 72.52 140.796 72.52C139.26 72.52 138.428 74.504 138.428 83.4C138.428 92.296 139.26 94.28 140.796 94.28ZM158.81 101C158.17 101 157.786 100.616 157.786 99.976V75.848C157.786 70.344 157.594 69.448 157.018 66.76C156.89 66.184 157.274 65.8 157.786 65.8H165.402C166.042 65.8 166.426 66.12 166.426 66.824V68.232C166.426 68.424 166.49 68.616 166.682 68.616C166.874 68.616 167.002 68.488 167.258 68.104C168.154 66.824 169.946 65.16 173.018 65.16C179.226 65.16 180.314 70.216 180.314 73.352V99.72C180.314 100.552 179.866 101 179.034 101H172.25C171.61 101 171.226 100.616 171.226 99.976V75.272C171.226 73.288 170.458 72.2 169.114 72.2C167.706 72.2 166.874 73.288 166.874 75.272V99.976C166.874 100.616 166.49 101 165.85 101H158.81ZM192.566 108.36C190.07 108.36 187.894 107.976 186.614 107.528C185.206 107.016 184.822 106.44 184.822 105.096V100.936C184.822 100.168 185.142 99.912 185.974 100.232C187.254 100.68 189.238 101.384 191.67 101.384C194.934 101.384 196.982 100.168 196.982 96.392V96.2C196.982 95.624 196.918 95.496 196.726 95.496C196.534 95.496 196.342 95.752 196.086 96.136C195.382 97.16 194.102 99.08 190.966 99.08C185.014 99.08 182.582 92.104 182.582 82.12C182.582 72.136 185.014 65.16 190.966 65.16C194.102 65.16 195.382 67.08 196.086 68.104C196.342 68.488 196.534 68.744 196.726 68.744C196.918 68.744 196.982 68.552 196.982 68.296V66.824C196.982 66.12 197.366 65.8 198.006 65.8H204.598C205.238 65.8 205.622 66.184 205.622 66.824V96.136C205.622 102.984 202.102 108.36 192.566 108.36ZM194.422 91.72C195.958 91.72 196.79 89.736 196.79 82.12C196.79 74.504 195.958 72.52 194.422 72.52C192.886 72.52 192.054 74.504 192.054 82.12C192.054 89.736 192.886 91.72 194.422 91.72ZM217.56 108.04C216.92 108.04 216.536 107.656 216.536 107.016V75.848C216.536 70.344 216.344 69.448 215.768 66.76C215.64 66.184 216.024 65.8 216.536 65.8H224.152C224.792 65.8 225.176 66.12 225.176 66.824V68.296C225.176 68.552 225.24 68.744 225.432 68.744C225.688 68.744 225.816 68.488 226.072 68.104C226.776 67.08 228.056 65.16 231.192 65.16C237.144 65.16 239.576 72.136 239.576 83.4C239.576 94.664 237.144 101.64 231.192 101.64C228.056 101.64 226.776 99.784 226.072 98.632C225.816 98.184 225.688 97.992 225.496 97.992C225.24 97.992 225.176 98.184 225.176 98.568V106.76C225.176 107.592 224.728 108.04 223.896 108.04H217.56ZM227.736 94.28C229.272 94.28 230.104 92.296 230.104 83.4C230.104 74.504 229.272 72.52 227.736 72.52C226.2 72.52 225.368 74.504 225.368 83.4C225.368 92.296 226.2 94.28 227.736 94.28ZM242.934 101C242.294 101 241.91 100.616 241.91 99.976V66.248C241.91 60.744 241.718 59.848 241.142 57.16C241.014 56.584 241.398 56.2 241.91 56.2H249.526C250.166 56.2 250.55 56.52 250.55 57.224V68.104C250.55 68.424 250.614 68.616 250.806 68.616C250.934 68.616 251.126 68.488 251.382 68.104C252.278 66.824 254.07 65.16 257.142 65.16C263.35 65.16 264.438 70.216 264.438 73.352V99.72C264.438 100.552 263.99 101 263.158 101H256.374C255.734 101 255.35 100.616 255.35 99.976V75.272C255.35 73.288 254.582 72.2 253.238 72.2C251.83 72.2 250.998 73.288 250.998 75.272V99.976C250.998 100.616 250.614 101 249.974 101H242.934ZM273.171 101.64C268.947 101.64 266.387 97.8 266.387 91.912C266.387 84.232 269.075 81.48 275.219 78.536L277.203 77.576C278.611 76.872 279.123 76.232 279.123 75.272C279.123 74.184 278.163 73.416 276.627 73.416C274.259 73.416 271.763 75.144 269.587 77.128C269.331 77.384 269.011 77.576 268.755 77.576C268.307 77.576 268.051 77.256 268.051 76.68V70.024C268.051 69.32 268.179 69 268.691 68.488C270.931 66.312 274.707 65.16 277.779 65.16C285.907 65.16 287.827 70.28 287.827 74.376V99.72C287.827 100.552 287.379 101 286.547 101H280.595C279.955 101 279.507 100.616 279.507 99.976V97.992C279.507 97.672 279.443 97.544 279.251 97.544C279.059 97.544 278.931 97.672 278.803 97.928C277.907 99.592 276.371 101.64 273.171 101.64ZM277.075 94.408C278.547 94.408 278.995 92.872 278.995 90.632V84.104C278.995 83.464 278.931 83.208 278.611 83.208C278.419 83.208 278.291 83.272 277.971 83.464L277.779 83.592C275.731 84.936 274.899 87.112 274.899 90.12C274.899 93.256 275.859 94.408 277.075 94.408ZM273.363 63.88C272.787 63.88 272.595 63.688 272.595 63.176V62.28C272.595 61.96 272.787 61.768 273.107 61.768C275.859 61.704 279.379 61.192 282.771 59.976C283.283 59.784 283.539 60.04 283.539 60.36V61.448C283.539 62.024 283.347 62.28 282.707 62.536C279.379 63.752 275.155 63.88 273.363 63.88ZM291.748 108.04C291.108 108.04 290.724 107.656 290.724 107.016V75.848C290.724 70.344 290.532 69.448 289.956 66.76C289.828 66.184 290.212 65.8 290.724 65.8H298.34C298.98 65.8 299.364 66.12 299.364 66.824V68.296C299.364 68.552 299.428 68.744 299.62 68.744C299.876 68.744 300.004 68.488 300.26 68.104C300.964 67.08 302.244 65.16 305.38 65.16C311.332 65.16 313.764 72.136 313.764 83.4C313.764 94.664 311.332 101.64 305.38 101.64C302.244 101.64 300.964 99.784 300.26 98.632C300.004 98.184 299.876 97.992 299.684 97.992C299.428 97.992 299.364 98.184 299.364 98.568V106.76C299.364 107.592 298.916 108.04 298.084 108.04H291.748ZM301.924 94.28C303.46 94.28 304.292 92.296 304.292 83.4C304.292 74.504 303.46 72.52 301.924 72.52C300.388 72.52 299.556 74.504 299.556 83.4C299.556 92.296 300.388 94.28 301.924 94.28ZM121.946 168.64C116.954 168.64 114.202 166.4 114.202 161.216V140.032C114.202 139.648 113.946 139.392 113.562 139.392H112.218C111.77 139.392 111.45 139.072 111.45 138.624V133.568C111.45 133.12 111.77 132.8 112.218 132.8H113.562C113.946 132.8 114.202 132.544 114.202 132.16V125.568C114.202 124.928 114.586 124.544 115.226 124.544H121.882C122.522 124.544 122.906 124.928 122.906 125.568V132.16C122.906 132.544 123.162 132.8 123.546 132.8H126.234C126.682 132.8 127.002 133.12 127.002 133.568V138.624C127.002 139.072 126.682 139.392 126.234 139.392H123.546C123.162 139.392 122.906 139.648 122.906 140.032V159.296C122.906 160.64 123.482 161.088 124.442 161.088C125.21 161.088 125.53 160.96 126.106 160.768C126.682 160.576 127.002 160.64 127.002 161.216V166.336C127.002 167.04 126.81 167.488 125.978 167.872C125.018 168.32 123.802 168.64 121.946 168.64ZM130.06 168C129.42 168 129.036 167.616 129.036 166.976V142.848C129.036 137.344 128.844 136.448 128.268 133.76C128.14 133.184 128.524 132.8 129.036 132.8H137.1C137.74 132.8 138.124 133.12 138.124 133.824V166.976C138.124 167.616 137.74 168 137.1 168H130.06ZM133.516 131.2C131.084 131.2 128.652 129.984 128.652 127.36C128.652 124.544 131.084 123.52 133.516 123.52C135.948 123.52 138.444 124.544 138.444 127.36C138.444 129.984 135.948 131.2 133.516 131.2ZM153.448 168.64C145.448 168.64 140.456 163.776 140.456 149.952C140.456 136.192 145.512 132.16 151.464 132.16C157.864 132.16 161.768 136.64 161.768 148.224C161.768 154.688 161.256 155.264 158.696 155.264H151.208C150.504 155.264 150.248 155.52 150.248 156.416C150.248 158.4 151.912 160.448 155.176 160.448C156.135 160.448 157.224 160.256 158.503 159.616C159.144 159.296 159.784 159.488 159.784 160.256V165.248C159.784 166.464 159.4 167.168 158.312 167.744C157.096 168.384 155.24 168.64 153.448 168.64ZM152.104 149.12C153.192 149.12 153.384 148.736 153.384 146.688C153.384 141.248 152.616 139.712 151.656 139.712C150.888 139.712 149.928 140.672 149.928 146.496C149.928 148.736 150.12 149.12 151.208 149.12H152.104ZM145.896 131.008C145.32 131.008 145.192 130.688 145.192 130.304V129.216C145.192 128.896 145.32 128.64 145.768 128.576C147.688 128.256 148.904 127.68 150.248 126.592C150.568 126.336 150.824 126.144 151.144 126.144C151.464 126.144 151.72 126.336 152.04 126.592C153.384 127.68 154.6 128.256 156.52 128.576C156.968 128.64 157.096 128.896 157.096 129.216V130.304C157.096 130.688 156.968 131.008 156.392 131.008C154.472 131.008 152.232 129.984 151.144 128.832C150.056 129.984 147.816 131.008 145.896 131.008ZM146.664 125.184C146.088 125.184 145.896 124.992 145.896 124.48V123.584C145.896 123.264 146.088 123.072 146.408 123.072C149.16 123.008 152.68 122.496 156.072 121.28C156.583 121.088 156.84 121.344 156.84 121.664V122.752C156.84 123.328 156.648 123.584 156.008 123.84C152.68 125.056 148.456 125.184 146.664 125.184ZM165.123 175.04C164.483 175.04 164.099 174.656 164.099 174.016V142.848C164.099 137.344 163.907 136.448 163.331 133.76C163.203 133.184 163.587 132.8 164.099 132.8H171.715C172.355 132.8 172.739 133.12 172.739 133.824V135.296C172.739 135.552 172.803 135.744 172.995 135.744C173.251 135.744 173.379 135.488 173.635 135.104C174.339 134.08 175.619 132.16 178.755 132.16C184.707 132.16 187.139 139.136 187.139 150.4C187.139 161.664 184.707 168.64 178.755 168.64C175.619 168.64 174.339 166.784 173.635 165.632C173.379 165.184 173.251 164.992 173.059 164.992C172.803 164.992 172.739 165.184 172.739 165.568V173.76C172.739 174.592 172.291 175.04 171.459 175.04H165.123ZM175.299 161.28C176.835 161.28 177.667 159.296 177.667 150.4C177.667 141.504 176.835 139.52 175.299 139.52C173.763 139.52 172.931 141.504 172.931 150.4C172.931 159.296 173.763 161.28 175.299 161.28ZM208.549 168.64C201.829 168.64 196.581 163.328 196.581 150.4C196.581 137.472 201.829 132.16 208.549 132.16C209.957 132.16 211.429 132.416 212.325 132.928C213.093 133.376 213.477 133.888 213.477 134.912V141.376C213.477 142.272 212.901 142.272 212.453 141.824C211.685 141.056 211.109 140.672 210.341 140.672C208.229 140.672 206.053 142.784 206.053 150.4C206.053 158.016 208.229 160.128 210.341 160.128C211.109 160.128 211.749 159.744 212.517 158.976C212.901 158.592 213.477 158.528 213.477 159.424V165.888C213.477 166.912 213.093 167.424 212.325 167.872C211.429 168.384 209.957 168.64 208.549 168.64ZM221.546 168.64C217.322 168.64 214.762 164.8 214.762 158.912C214.762 151.232 217.45 148.48 223.594 145.536L225.578 144.576C226.986 143.872 227.498 143.232 227.498 142.272C227.498 141.184 226.538 140.416 225.002 140.416C222.634 140.416 220.138 142.144 217.962 144.128C217.706 144.384 217.386 144.576 217.13 144.576C216.682 144.576 216.426 144.256 216.426 143.68V137.024C216.426 136.32 216.554 136 217.066 135.488C219.306 133.312 223.082 132.16 226.154 132.16C234.282 132.16 236.202 137.28 236.202 141.376V166.72C236.202 167.552 235.754 168 234.922 168H228.97C228.33 168 227.882 167.616 227.882 166.976V164.992C227.882 164.672 227.818 164.544 227.626 164.544C227.434 164.544 227.306 164.672 227.178 164.928C226.282 166.592 224.746 168.64 221.546 168.64ZM225.45 161.408C226.922 161.408 227.37 159.872 227.37 157.632V151.104C227.37 150.464 227.306 150.208 226.986 150.208C226.794 150.208 226.666 150.272 226.346 150.464L226.154 150.592C224.106 151.936 223.274 154.112 223.274 157.12C223.274 160.256 224.234 161.408 225.45 161.408ZM221.226 173.632C220.906 173.632 220.714 173.44 220.714 173.12V171.648C220.714 171.328 220.906 171.136 221.226 171.136H229.802C230.122 171.136 230.314 171.328 230.314 171.648V173.12C230.314 173.44 230.122 173.632 229.802 173.632H221.226ZM220.714 131.008C220.138 131.008 220.01 130.688 220.01 130.368V129.088C220.01 128.768 220.202 128.576 220.458 128.512C222.506 128.192 223.914 127.424 225.258 126.144C225.578 125.824 225.898 125.632 226.218 125.632C226.538 125.632 226.858 125.824 227.178 126.144C228.522 127.424 229.93 128.192 231.978 128.512C232.234 128.576 232.426 128.768 232.426 129.088V130.368C232.426 130.688 232.298 131.008 231.722 131.008C229.354 131.008 227.114 129.792 226.218 128.448C225.322 129.792 223.082 131.008 220.714 131.008ZM240.123 168C239.483 168 239.099 167.616 239.099 166.976V142.848C239.099 137.344 238.907 136.448 238.331 133.76C238.203 133.184 238.587 132.8 239.099 132.8H246.715C247.355 132.8 247.739 133.12 247.739 133.824V135.232C247.739 135.424 247.803 135.616 247.995 135.616C248.187 135.616 248.315 135.488 248.571 135.104C249.467 133.824 251.259 132.16 254.331 132.16C260.539 132.16 261.627 137.216 261.627 140.352V166.72C261.627 167.552 261.179 168 260.347 168H253.562C252.923 168 252.539 167.616 252.539 166.976V142.272C252.539 140.288 251.771 139.2 250.427 139.2C249.019 139.2 248.187 140.288 248.187 142.272V166.976C248.187 167.616 247.803 168 247.163 168H240.123Z" fill="#0213B0"/>
<rect y="382" width="16.2214" height="23" fill="#3459FF"/>
<rect x="16.2214" y="382" width="8.77865" height="23" fill="#38C0FF"/>
<rect x="25" y="382" width="16.2214" height="23" fill="#3459FF"/>
<rect x="41.2214" y="382" width="8.77865" height="23" fill="#38C0FF"/>
<rect x="50" y="382" width="16.2214" height="23" fill="#3459FF"/>
<rect x="66.2214" y="382" width="8.77865" height="23" fill="#38C0FF"/>
<rect x="75" y="382" width="16.2214" height="23" fill="#3459FF"/>
<rect x="91.2216" y="382" width="8.77865" height="23" fill="#38C0FF"/>
<rect x="100" y="382" width="16.2214" height="23" fill="#3459FF"/>
<rect x="116.221" y="382" width="8.77865" height="23" fill="#38C0FF"/>
<rect x="125" y="382" width="16.2214" height="23" fill="#3459FF"/>
<rect x="141.221" y="382" width="8.77865" height="23" fill="#38C0FF"/>
<rect x="150" y="382" width="16.2214" height="23" fill="#3459FF"/>
<rect x="166.221" y="382" width="8.77865" height="23" fill="#38C0FF"/>
<rect x="175" y="382" width="16.2214" height="23" fill="#3459FF"/>
<rect x="191.221" y="382" width="8.77865" height="23" fill="#38C0FF"/>
<rect x="200" y="382" width="16.2214" height="23" fill="#3459FF"/>
<rect x="216.221" y="382" width="8.77865" height="23" fill="#38C0FF"/>
<rect x="225" y="382" width="16.2214" height="23" fill="#3459FF"/>
<rect x="241.221" y="382" width="8.77865" height="23" fill="#38C0FF"/>
<rect x="250" y="382" width="16.2214" height="23" fill="#3459FF"/>
<rect x="266.221" y="382" width="8.77865" height="23" fill="#38C0FF"/>
<rect x="275" y="382" width="16.2214" height="23" fill="#3459FF"/>
<rect x="291.221" y="382" width="8.77865" height="23" fill="#38C0FF"/>
<rect x="300" y="382" width="16.2214" height="23" fill="#3459FF"/>
<rect x="316.221" y="382" width="8.77865" height="23" fill="#38C0FF"/>
<rect x="325" y="382" width="16.2214" height="23" fill="#3459FF"/>
<rect x="341.221" y="382" width="8.77865" height="23" fill="#38C0FF"/>
<rect x="350" y="382" width="16.2214" height="23" fill="#3459FF"/>
<rect x="366.221" y="382" width="8.77865" height="23" fill="#38C0FF"/>
</svg>
