<svg width="1440" height="735" viewBox="0 0 1440 735" fill="none" xmlns="http://www.w3.org/2000/svg">
<path d="M103.76 169C102.72 169 102.16 168.44 102.16 167.4V126.36C102.16 119.48 101.92 117.56 101.2 114.2C101.04 113.48 101.44 113 102.16 113H114.64C125.92 113 130.16 120.92 130.16 133.24C130.16 145.08 126.24 153 115.12 153H114.48C113.84 153 113.52 153.32 113.52 153.96V167.4C113.52 168.44 112.96 169 111.92 169H103.76ZM114.96 143.4C117.2 143.4 118.64 140.6 118.64 133.24C118.64 125.96 117.2 123.16 114.96 123.16H114.48C113.92 123.16 113.52 123.56 113.52 124.2V142.36C113.52 142.92 113.84 143.4 114.48 143.4H114.96ZM134.385 169C133.345 169 132.785 168.44 132.785 167.4V126.36C132.785 119.48 132.545 117.56 131.825 114.2C131.665 113.48 132.065 113 132.785 113H144.385C145.105 113 145.505 113.48 145.345 114.2C144.625 117.56 144.385 119.48 144.385 126.36V133.16C144.385 133.48 144.545 133.64 144.865 133.64H149.505C149.825 133.64 149.985 133.48 149.985 133.16V126.36C149.985 119.48 149.745 117.56 149.025 114.2C148.865 113.48 149.265 113 149.985 113H161.585C162.305 113 162.705 113.48 162.545 114.2C161.825 117.56 161.585 119.48 161.585 126.36V167.4C161.585 168.44 161.025 169 159.985 169H151.585C150.545 169 149.985 168.44 149.985 167.4V146.52C149.985 146.2 149.825 146.04 149.505 146.04H144.865C144.545 146.04 144.385 146.2 144.385 146.52V167.4C144.385 168.44 143.825 169 142.785 169H134.385ZM179.91 169.8C170.95 169.8 165.83 164.36 165.83 154.52V126.36C165.83 119.48 165.59 117.56 164.87 114.2C164.71 113.48 165.11 113 165.83 113H177.43C178.15 113 178.55 113.48 178.39 114.2C177.67 117.56 177.43 119.48 177.43 126.36V154.68C177.43 156.76 178.39 157.88 179.91 157.88C181.35 157.88 182.31 156.76 182.31 154.68V126.36C182.31 119.48 182.07 117.56 181.35 114.2C181.19 113.48 181.59 113 182.31 113H192.31C193.35 113 193.91 113.56 193.91 114.6V124.04C193.91 125.64 194.39 126.28 195.19 126.28C196.55 126.28 197.03 124.68 197.03 121.96C197.03 119.64 196.55 116.52 195.99 113.96C195.83 113.24 196.15 113 196.63 113H198.71C199.11 113 199.27 113.24 199.35 113.64C199.91 116.52 200.15 119.16 200.15 121.64C200.15 126.68 198.87 128.76 195.35 129.32C194.39 129.48 193.91 129.88 193.91 131.4V154.52C193.91 164.36 188.79 169.8 179.91 169.8ZM215.781 169.8C206.261 169.8 200.261 162.68 200.261 141C200.261 119.32 206.261 112.2 215.781 112.2C222.341 112.2 227.301 115.64 229.701 124.76C229.941 125.64 230.261 126.04 230.821 126.04C231.621 126.04 232.181 125.08 232.181 122.28C232.181 119.64 231.541 116.36 230.981 113.72C230.901 113.24 231.221 113 231.621 113H233.701C234.101 113 234.261 113.24 234.341 113.64C234.821 116.28 235.221 119.16 235.221 122.2C235.221 126.04 234.581 127.72 231.861 129C230.901 129.48 230.661 129.72 230.821 131C231.141 133.56 231.381 137 231.381 141C231.381 162.68 225.301 169.8 215.781 169.8ZM215.781 158.6C217.621 158.6 219.141 156.52 219.141 141C219.141 125.4 217.621 123.4 215.781 123.4C213.941 123.4 212.501 125.4 212.501 141C212.501 156.52 213.941 158.6 215.781 158.6ZM239.776 169C238.736 169 238.176 168.44 238.176 167.4V125.56C238.176 118.68 237.936 117.56 237.216 114.2C237.056 113.48 237.456 113 238.176 113H247.456C248.416 113 249.056 113.48 249.216 114.36L254.336 138.6C254.416 139.16 254.736 139.48 255.216 139.48C255.776 139.48 255.936 139.08 255.936 138.44C255.856 136.28 256.016 129.32 255.856 124.76C255.616 118.68 255.376 117.56 254.656 114.2C254.496 113.48 254.896 113 255.616 113H266.096C266.816 113 267.216 113.48 267.056 114.2C266.336 117.56 266.096 118.68 266.096 125.56V167.4C266.096 168.44 265.536 169 264.496 169H256.816C255.856 169 255.216 168.52 255.056 167.64L249.856 143.32C249.776 142.76 249.456 142.52 249.056 142.52C248.576 142.52 248.256 142.84 248.256 143.48C248.496 148.84 248.736 159.96 248.736 167.4C248.736 168.44 248.176 169 247.136 169H239.776ZM285.241 169.8C274.041 169.8 269.321 160.28 269.321 141C269.321 120.84 275.401 112.2 285.881 112.2C288.921 112.2 292.121 112.68 293.881 114.52C294.841 115.48 295.241 116.68 295.241 118.36V125.64C295.241 126.68 295.001 127.56 294.041 127.56C293.481 127.56 293.001 127.32 291.961 126.12C291.081 125.08 289.961 123.88 288.041 123.88C283.561 123.88 281.401 129.16 281.401 141.16C281.401 144.44 281.561 158.92 285.001 158.92C285.721 158.92 286.041 158.2 286.041 157.08V150.04C286.041 143.16 285.801 142.04 285.081 138.68C284.921 137.96 285.321 137.48 286.041 137.48H294.681C295.721 137.48 296.361 138.04 296.361 139.08V156.68C296.361 166.44 291.161 169.8 285.241 169.8ZM311.104 169C310.064 169 309.504 168.44 309.504 167.4V126.36C309.504 119.48 309.264 117.56 308.544 114.2C308.384 113.48 308.784 113 309.504 113H321.984C333.264 113 337.504 120.92 337.504 133.24C337.504 145.08 333.584 153 322.464 153H321.824C321.184 153 320.864 153.32 320.864 153.96V167.4C320.864 168.44 320.304 169 319.264 169H311.104ZM322.304 143.4C324.544 143.4 325.984 140.6 325.984 133.24C325.984 125.96 324.544 123.16 322.304 123.16H321.824C321.264 123.16 320.864 123.56 320.864 124.2V142.36C320.864 142.92 321.184 143.4 321.824 143.4H322.304ZM341.729 169C340.689 169 340.129 168.44 340.129 167.4V126.36C340.129 119.48 339.889 117.56 339.169 114.2C339.009 113.48 339.409 113 340.129 113H351.729C352.449 113 352.849 113.48 352.689 114.2C351.969 117.56 351.729 119.48 351.729 126.36V133.16C351.729 133.48 351.889 133.64 352.209 133.64H356.849C357.169 133.64 357.329 133.48 357.329 133.16V126.36C357.329 119.48 357.089 117.56 356.369 114.2C356.209 113.48 356.609 113 357.329 113H368.929C369.649 113 370.049 113.48 369.889 114.2C369.169 117.56 368.929 119.48 368.929 126.36V167.4C368.929 168.44 368.369 169 367.329 169H358.929C357.889 169 357.329 168.44 357.329 167.4V146.52C357.329 146.2 357.169 146.04 356.849 146.04H352.209C351.889 146.04 351.729 146.2 351.729 146.52V167.4C351.729 168.44 351.169 169 350.129 169H341.729ZM372.854 169C371.974 169 371.494 168.6 371.574 167.8L376.614 120.76C376.934 117.72 376.774 116.2 376.454 114.52C376.294 113.48 376.774 113 377.494 113H395.974C396.694 113 397.174 113.48 396.934 114.52C396.614 116.04 396.374 117.48 396.694 120.76L401.734 167.8C401.814 168.6 401.334 169 400.454 169H391.654C390.934 169 390.454 168.6 390.374 167.96L389.654 160.92C389.574 160.12 389.174 159.72 388.374 159.72H384.294C383.494 159.72 383.014 160.12 382.934 160.92L382.214 167.96C382.134 168.68 381.574 169 380.934 169H372.854ZM387.494 149C388.374 149 388.534 148.6 388.454 147.96C387.894 141.48 387.494 136.92 387.174 128.04C387.174 127.32 386.854 126.92 386.294 126.92C385.734 126.92 385.414 127.32 385.414 128.04C385.094 136.92 384.694 141.48 384.134 147.96C384.054 148.6 384.214 149 385.094 149H387.494ZM379.654 110.6C378.934 110.6 378.694 110.36 378.694 109.72V108.36C378.694 107.96 378.934 107.72 379.334 107.72C383.574 107.72 388.854 107 393.894 105.08C394.374 104.92 394.694 105.24 394.694 105.64V107.24C394.694 107.96 394.454 108.28 393.654 108.6C388.854 110.36 382.614 110.68 379.654 110.6ZM405.948 169C404.908 169 404.348 168.44 404.348 167.4V126.36C404.348 119.48 404.108 117.56 403.388 114.2C403.228 113.48 403.628 113 404.348 113H416.828C428.108 113 432.348 120.92 432.348 133.24C432.348 145.08 428.428 153 417.308 153H416.668C416.028 153 415.708 153.32 415.708 153.96V167.4C415.708 168.44 415.148 169 414.108 169H405.948ZM417.148 143.4C419.388 143.4 420.828 140.6 420.828 133.24C420.828 125.96 419.388 123.16 417.148 123.16H416.668C416.108 123.16 415.708 123.56 415.708 124.2V142.36C415.708 142.92 416.028 143.4 416.668 143.4H417.148ZM110.16 253C109.12 253 108.56 252.44 108.56 251.4V208.6C108.56 207.88 108.24 207.24 107.04 207.24C105.76 207.24 104.96 207.88 102.8 209.64C102.24 210.12 101.68 210.44 101.28 210.44C100.88 210.44 100.64 210.12 100.64 209.48V198.6C100.64 197.56 101.2 197 102.24 197H126.48C127.52 197 128.08 197.56 128.08 198.6V209.48C128.08 210.12 127.84 210.44 127.44 210.44C127.04 210.44 126.48 210.12 125.92 209.64C123.76 207.88 122.96 207.24 121.68 207.24C120.48 207.24 120.16 207.88 120.16 208.6V251.4C120.16 252.44 119.6 253 118.56 253H110.16ZM132.51 253C131.47 253 130.91 252.44 130.91 251.4V209.56C130.91 202.68 130.67 201.56 129.95 198.2C129.79 197.48 130.19 197 130.91 197H142.51C143.23 197 143.63 197.48 143.47 198.2C142.75 201.56 142.51 202.68 142.51 209.56V251.4C142.51 252.44 141.95 253 140.91 253H132.51ZM148.448 253C147.408 253 146.848 252.44 146.848 251.4V210.36C146.848 203.48 146.608 201.56 145.888 198.2C145.728 197.48 146.128 197 146.848 197H168.128C168.608 197 168.928 197.32 168.928 197.8V208.92C168.928 209.8 168.207 209.96 167.328 209.48C164.288 207.88 162.608 207.32 160.768 207.32C158.928 207.32 158.448 208.04 158.448 209.32V218.28C158.448 218.76 158.768 219.08 159.248 219.08H166.848C167.328 219.08 167.648 219.4 167.648 219.88V229.4C167.648 229.88 167.328 230.2 166.848 230.2H159.248C158.768 230.2 158.448 230.52 158.448 231V241C158.448 241.48 158.768 241.8 159.248 241.8H168.368C168.848 241.8 169.168 242.12 169.168 242.6V252.2C169.168 252.68 168.848 253 168.368 253H148.448ZM151.408 194.76C150.688 194.76 150.528 194.36 150.528 193.88V192.52C150.528 192.12 150.688 191.8 151.248 191.72C153.648 191.32 155.168 190.6 156.848 189.24C157.248 188.92 157.568 188.68 157.968 188.68C158.368 188.68 158.688 188.92 159.088 189.24C160.768 190.6 162.288 191.32 164.688 191.72C165.247 191.8 165.408 192.12 165.408 192.52V193.88C165.408 194.36 165.247 194.76 164.528 194.76C162.128 194.76 159.328 193.48 157.968 192.04C156.608 193.48 153.808 194.76 151.408 194.76ZM152.368 187.48C151.648 187.48 151.408 187.24 151.408 186.6V185.48C151.408 185.08 151.648 184.84 152.048 184.84C155.488 184.76 159.888 184.12 164.128 182.6C164.768 182.36 165.088 182.68 165.088 183.08V184.44C165.088 185.16 164.848 185.48 164.048 185.8C159.888 187.32 154.608 187.48 152.368 187.48ZM173.994 253C172.954 253 172.394 252.44 172.394 251.4V210.36C172.394 203.48 172.154 201.56 171.434 198.2C171.274 197.48 171.674 197 172.394 197H184.874C196.154 197 200.394 204.92 200.394 217.24C200.394 229.08 196.474 237 185.354 237H184.714C184.074 237 183.754 237.32 183.754 237.96V251.4C183.754 252.44 183.194 253 182.154 253H173.994ZM185.194 227.4C187.434 227.4 188.874 224.6 188.874 217.24C188.874 209.96 187.434 207.16 185.194 207.16H184.714C184.154 207.16 183.754 207.56 183.754 208.2V226.36C183.754 226.92 184.074 227.4 184.714 227.4H185.194ZM227.825 253.8C217.665 253.8 211.665 245.08 211.665 225C211.665 204.92 217.665 196.2 227.825 196.2C230.385 196.2 233.025 196.84 234.865 198.28C236.465 199.56 236.785 201.16 236.785 203.08V209.72C236.785 210.92 236.305 211.48 235.585 211.48C234.705 211.48 234.145 210.76 233.425 209.88C232.625 208.92 231.585 207.88 229.825 207.88C225.825 207.88 223.825 212.92 223.825 225C223.825 237.08 225.825 242.12 229.825 242.12C231.585 242.12 232.625 241.08 233.425 240.12C234.145 239.24 234.625 238.52 235.505 238.52C236.225 238.52 236.785 239.08 236.785 240.28V246.92C236.785 248.84 236.465 250.44 234.865 251.72C233.025 253.16 230.385 253.8 227.825 253.8ZM239.494 253C238.614 253 238.134 252.6 238.214 251.8L243.254 204.76C243.574 201.72 243.414 200.2 243.094 198.52C242.934 197.48 243.414 197 244.134 197H262.614C263.334 197 263.814 197.48 263.574 198.52C263.254 200.04 263.014 201.48 263.334 204.76L268.374 251.8C268.454 252.6 267.974 253 267.094 253H258.294C257.574 253 257.094 252.6 257.014 251.96L256.294 244.92C256.214 244.12 255.814 243.72 255.014 243.72H250.934C250.134 243.72 249.654 244.12 249.574 244.92L248.854 251.96C248.774 252.68 248.214 253 247.574 253H239.494ZM254.134 233C255.014 233 255.174 232.6 255.094 231.96C254.534 225.48 254.134 220.92 253.814 212.04C253.814 211.32 253.494 210.92 252.934 210.92C252.374 210.92 252.054 211.32 252.054 212.04C251.734 220.92 251.334 225.48 250.774 231.96C250.694 232.6 250.854 233 251.734 233H254.134ZM247.974 260.04C247.574 260.04 247.334 259.8 247.334 259.4V257.56C247.334 257.16 247.574 256.92 247.974 256.92H258.694C259.094 256.92 259.334 257.16 259.334 257.56V259.4C259.334 259.8 259.094 260.04 258.694 260.04H247.974ZM246.454 194.76C245.734 194.76 245.574 194.36 245.574 193.96V192.36C245.574 191.96 245.814 191.72 246.134 191.64C248.694 191.24 250.454 190.28 252.134 188.68C252.534 188.28 252.934 188.04 253.334 188.04C253.734 188.04 254.134 188.28 254.534 188.68C256.214 190.28 257.974 191.24 260.534 191.64C260.854 191.72 261.094 191.96 261.094 192.36V193.96C261.094 194.36 260.934 194.76 260.214 194.76C257.254 194.76 254.454 193.24 253.334 191.56C252.214 193.24 249.414 194.76 246.454 194.76ZM272.588 253C271.548 253 270.988 252.44 270.988 251.4V209.56C270.988 202.68 270.748 201.56 270.028 198.2C269.868 197.48 270.268 197 270.988 197H280.268C281.228 197 281.868 197.48 282.028 198.36L287.148 222.6C287.228 223.16 287.548 223.48 288.028 223.48C288.588 223.48 288.748 223.08 288.748 222.44C288.668 220.28 288.828 213.32 288.668 208.76C288.428 202.68 288.188 201.56 287.468 198.2C287.308 197.48 287.708 197 288.428 197H298.908C299.628 197 300.028 197.48 299.868 198.2C299.148 201.56 298.908 202.68 298.908 209.56V251.4C298.908 252.44 298.348 253 297.308 253H289.628C288.668 253 288.028 252.52 287.868 251.64L282.668 227.32C282.588 226.76 282.268 226.52 281.868 226.52C281.388 226.52 281.068 226.84 281.068 227.48C281.308 232.84 281.548 243.96 281.548 251.4C281.548 252.44 280.988 253 279.948 253H272.588Z" fill="#0213B0"/>
</svg>
