<svg width="1440" height="735" viewBox="0 0 1440 735" fill="none" xmlns="http://www.w3.org/2000/svg">
<path d="M101.76 169C100.88 169 100.4 168.6 100.48 167.8L105.52 120.76C105.84 117.72 105.68 116.2 105.36 114.52C105.2 113.48 105.68 113 106.4 113H124.88C125.6 113 126.08 113.48 125.84 114.52C125.52 116.04 125.28 117.48 125.6 120.76L130.64 167.8C130.72 168.6 130.24 169 129.36 169H120.56C119.84 169 119.36 168.6 119.28 167.96L118.56 160.92C118.48 160.12 118.08 159.72 117.28 159.72H113.2C112.4 159.72 111.92 160.12 111.84 160.92L111.12 167.96C111.04 168.68 110.48 169 109.84 169H101.76ZM116.4 149C117.28 149 117.44 148.6 117.36 147.96C116.8 141.48 116.4 136.92 116.08 128.04C116.08 127.32 115.76 126.92 115.2 126.92C114.64 126.92 114.32 127.32 114.32 128.04C114 136.92 113.6 141.48 113.04 147.96C112.96 148.6 113.12 149 114 149H116.4ZM134.854 169C133.814 169 133.254 168.44 133.254 167.4V126.36C133.254 119.48 133.014 117.56 132.294 114.2C132.134 113.48 132.534 113 133.254 113H145.734C157.014 113 161.254 120.92 161.254 133.24C161.254 145.08 157.334 153 146.214 153H145.574C144.934 153 144.614 153.32 144.614 153.96V167.4C144.614 168.44 144.054 169 143.014 169H134.854ZM146.054 143.4C148.294 143.4 149.734 140.6 149.734 133.24C149.734 125.96 148.294 123.16 146.054 123.16H145.574C145.014 123.16 144.614 123.56 144.614 124.2V142.36C144.614 142.92 144.934 143.4 145.574 143.4H146.054ZM165.479 169C164.439 169 163.879 168.44 163.879 167.4V126.36C163.879 119.48 163.639 117.56 162.919 114.2C162.759 113.48 163.159 113 163.879 113H176.359C187.639 113 191.879 120.92 191.879 133.24C191.879 145.08 187.959 153 176.839 153H176.199C175.559 153 175.239 153.32 175.239 153.96V167.4C175.239 168.44 174.679 169 173.639 169H165.479ZM176.679 143.4C178.919 143.4 180.359 140.6 180.359 133.24C180.359 125.96 178.919 123.16 176.679 123.16H176.199C175.639 123.16 175.239 123.56 175.239 124.2V142.36C175.239 142.92 175.559 143.4 176.199 143.4H176.679ZM196.104 169C195.064 169 194.504 168.44 194.504 167.4V126.36C194.504 119.48 194.264 117.56 193.544 114.2C193.384 113.48 193.784 113 194.504 113H207.464C217.784 113 222.504 120.76 222.504 132.68C222.504 137.56 221.464 142.04 219.544 145.08C218.264 147.08 218.104 148.84 218.504 150.52L222.744 167.08C222.904 167.72 222.904 169 221.384 169H212.824C211.864 169 211.304 168.52 211.064 167.48L207.624 151.88C207.464 151.24 207.304 150.68 206.664 150.68C206.104 150.68 205.864 151.16 205.864 151.96V167.4C205.864 168.44 205.304 169 204.264 169H196.104ZM207.304 142.84C209.384 142.84 210.984 140.04 210.984 132.84C210.984 125.72 209.384 122.92 207.304 122.92H206.984C206.264 122.92 205.864 123.32 205.864 124.04V141.72C205.864 142.44 206.264 142.84 206.984 142.84H207.304ZM240.078 169.8C230.558 169.8 224.558 162.68 224.558 141C224.558 119.32 230.558 112.2 240.078 112.2C249.598 112.2 255.678 119.32 255.678 141C255.678 162.68 249.598 169.8 240.078 169.8ZM240.078 158.6C241.918 158.6 243.438 156.52 243.438 141C243.438 125.4 241.918 123.4 240.078 123.4C238.238 123.4 236.798 125.4 236.798 141C236.798 156.52 238.238 158.6 240.078 158.6ZM257.776 169C256.896 169 256.416 168.6 256.496 167.8L261.536 120.76C261.856 117.72 261.696 116.2 261.376 114.52C261.216 113.48 261.696 113 262.416 113H280.896C281.616 113 282.096 113.48 281.856 114.52C281.536 116.04 281.296 117.48 281.616 120.76L286.656 167.8C286.736 168.6 286.256 169 285.376 169H276.576C275.856 169 275.376 168.6 275.296 167.96L274.576 160.92C274.496 160.12 274.096 159.72 273.296 159.72H269.216C268.416 159.72 267.936 160.12 267.856 160.92L267.136 167.96C267.056 168.68 266.496 169 265.856 169H257.776ZM272.416 149C273.296 149 273.456 148.6 273.376 147.96C272.816 141.48 272.416 136.92 272.096 128.04C272.096 127.32 271.776 126.92 271.216 126.92C270.656 126.92 270.336 127.32 270.336 128.04C270.016 136.92 269.616 141.48 269.056 147.96C268.976 148.6 269.136 149 270.016 149H272.416ZM303.606 169.8C293.446 169.8 287.446 161.08 287.446 141C287.446 120.92 293.446 112.2 303.606 112.2C306.166 112.2 308.806 112.84 310.646 114.28C312.246 115.56 312.566 117.16 312.566 119.08V125.72C312.566 126.92 312.086 127.48 311.366 127.48C310.486 127.48 309.926 126.76 309.206 125.88C308.406 124.92 307.366 123.88 305.606 123.88C301.606 123.88 299.606 128.92 299.606 141C299.606 153.08 301.606 158.12 305.606 158.12C307.366 158.12 308.406 157.08 309.206 156.12C309.926 155.24 310.406 154.52 311.286 154.52C312.006 154.52 312.566 155.08 312.566 156.28V162.92C312.566 164.84 312.246 166.44 310.646 167.72C308.806 169.16 306.166 169.8 303.606 169.8ZM317.276 169C316.236 169 315.676 168.44 315.676 167.4V126.36C315.676 119.48 315.436 117.56 314.716 114.2C314.556 113.48 314.956 113 315.676 113H327.276C327.996 113 328.396 113.48 328.236 114.2C327.516 117.56 327.276 119.48 327.276 126.36V133.16C327.276 133.48 327.436 133.64 327.756 133.64H332.396C332.716 133.64 332.876 133.48 332.876 133.16V126.36C332.876 119.48 332.636 117.56 331.916 114.2C331.756 113.48 332.156 113 332.876 113H344.476C345.196 113 345.596 113.48 345.436 114.2C344.716 117.56 344.476 119.48 344.476 126.36V167.4C344.476 168.44 343.916 169 342.876 169H334.476C333.436 169 332.876 168.44 332.876 167.4V146.52C332.876 146.2 332.716 146.04 332.396 146.04H327.756C327.436 146.04 327.276 146.2 327.276 146.52V167.4C327.276 168.44 326.716 169 325.676 169H317.276Z" fill="#0213B0"/>
</svg>
