<svg width="454" height="161" viewBox="0 0 454 161" fill="none" xmlns="http://www.w3.org/2000/svg">
<rect x="0.5" y="0.5" width="453" height="160" rx="7.5" fill="#4DD75A"/>
<rect x="0.5" y="0.5" width="453" height="160" rx="7.5" stroke="#0B4314"/>
<path d="M108.164 41C108.057 41 108.004 40.9467 108.004 40.84V32.312C108.004 32.1947 107.977 32.1147 107.924 32.072C107.871 32.0187 107.753 31.992 107.572 31.992C106.889 31.992 106.073 32.1413 105.124 32.44L105.044 32.456C104.959 32.456 104.916 32.4133 104.916 32.328V29.96C104.916 29.8533 104.969 29.8 105.076 29.8H113.46C113.567 29.8 113.62 29.8533 113.62 29.96V32.328C113.62 32.3813 113.599 32.4187 113.556 32.44C113.524 32.4613 113.476 32.4613 113.412 32.44C112.463 32.1413 111.647 31.992 110.964 31.992C110.783 31.992 110.665 32.0187 110.612 32.072C110.559 32.1147 110.532 32.1947 110.532 32.312V40.84C110.532 40.9467 110.479 41 110.372 41H108.164ZM114.219 41C114.177 41 114.139 40.984 114.107 40.952C114.075 40.92 114.059 40.8827 114.059 40.84V34.552C114.059 33.976 114.033 33.5493 113.979 33.272C113.937 32.9947 113.851 32.696 113.723 32.376L113.707 32.312C113.707 32.2373 113.755 32.2 113.851 32.2H116.235C116.289 32.2 116.331 32.216 116.363 32.248C116.395 32.28 116.411 32.3173 116.411 32.36V33.672C116.411 33.7253 116.427 33.752 116.459 33.752C116.502 33.752 116.529 33.7253 116.539 33.672C116.859 32.584 117.526 32.04 118.539 32.04C118.966 32.04 119.179 32.1147 119.179 32.264V34.568C119.179 34.664 119.126 34.696 119.019 34.664C118.827 34.6 118.609 34.568 118.363 34.568C117.745 34.568 117.281 34.7227 116.971 35.032C116.673 35.3413 116.523 35.8107 116.523 36.44V40.84C116.523 40.9467 116.47 41 116.363 41H114.219ZM121.93 41.16C121.098 41.16 120.431 40.9413 119.93 40.504C119.439 40.056 119.194 39.4213 119.194 38.6C119.194 37.864 119.412 37.288 119.85 36.872C120.298 36.456 121.012 36.1573 121.994 35.976L123.386 35.72C123.706 35.656 123.924 35.5707 124.042 35.464C124.17 35.3467 124.234 35.2027 124.234 35.032C124.234 34.744 124.106 34.5147 123.85 34.344C123.604 34.1627 123.242 34.072 122.762 34.072C122.143 34.072 121.61 34.2267 121.162 34.536C120.714 34.8347 120.298 35.224 119.914 35.704C119.871 35.768 119.823 35.8 119.77 35.8C119.716 35.8 119.69 35.752 119.69 35.656V33.912C119.69 33.3147 120.02 32.856 120.682 32.536C121.354 32.2053 122.17 32.04 123.13 32.04C124.356 32.04 125.242 32.3067 125.786 32.84C126.33 33.3627 126.602 34.04 126.602 34.872V40.84C126.602 40.8827 126.586 40.92 126.554 40.952C126.522 40.984 126.49 41 126.458 41H124.426C124.394 41 124.356 40.984 124.314 40.952C124.282 40.92 124.266 40.8827 124.266 40.84V40.04C124.266 39.9973 124.25 39.976 124.218 39.976C124.175 39.976 124.138 40.0027 124.106 40.056C123.86 40.4507 123.556 40.7333 123.194 40.904C122.842 41.0747 122.42 41.16 121.93 41.16ZM122.826 39.416C123.263 39.416 123.604 39.272 123.85 38.984C124.106 38.696 124.234 38.3067 124.234 37.816V37.192C124.234 37.064 124.17 37.0107 124.042 37.032L123.049 37.208C122.143 37.3787 121.69 37.7627 121.69 38.36C121.69 38.7013 121.791 38.9627 121.994 39.144C122.196 39.3253 122.474 39.416 122.826 39.416ZM127.797 41C127.755 41 127.717 40.984 127.685 40.952C127.653 40.92 127.637 40.8827 127.637 40.84V34.552C127.637 33.976 127.611 33.5493 127.557 33.272C127.515 32.9947 127.429 32.696 127.301 32.376L127.285 32.312C127.285 32.2373 127.333 32.2 127.429 32.2H129.829C129.872 32.2 129.909 32.216 129.941 32.248C129.973 32.28 129.989 32.3173 129.989 32.36V33.304C129.989 33.4 130.016 33.448 130.069 33.448C130.112 33.448 130.149 33.4107 130.181 33.336C130.629 32.472 131.429 32.04 132.581 32.04C133.531 32.04 134.245 32.3173 134.725 32.872C135.205 33.4267 135.445 34.1627 135.445 35.08V40.84C135.445 40.8827 135.429 40.92 135.397 40.952C135.365 40.984 135.328 41 135.285 41H133.141C133.099 41 133.061 40.984 133.029 40.952C132.997 40.92 132.981 40.8827 132.981 40.84V35.304C132.981 34.856 132.864 34.52 132.629 34.296C132.395 34.072 132.091 33.96 131.717 33.96C131.195 33.96 130.795 34.1467 130.517 34.52C130.24 34.8933 130.101 35.4267 130.101 36.12V40.84C130.101 40.8827 130.085 40.92 130.053 40.952C130.021 40.984 129.984 41 129.941 41H127.797ZM140.08 42.92C139.45 42.92 138.858 42.8507 138.304 42.712C137.76 42.584 137.338 42.408 137.04 42.184C136.816 42.024 136.704 41.8 136.704 41.512V40.056C136.704 39.9493 136.746 39.896 136.832 39.896C136.874 39.896 136.922 39.9227 136.976 39.976C137.36 40.328 137.786 40.6 138.256 40.792C138.725 40.9733 139.28 41.064 139.92 41.064C140.592 41.064 141.13 40.888 141.536 40.536C141.952 40.184 142.16 39.72 142.16 39.144V38.952C142.16 38.888 142.133 38.856 142.08 38.856C142.037 38.856 142 38.8773 141.968 38.92C141.754 39.2293 141.461 39.496 141.088 39.72C140.714 39.9333 140.25 40.04 139.696 40.04C139.013 40.04 138.4 39.88 137.856 39.56C137.322 39.24 136.901 38.7813 136.592 38.184C136.293 37.576 136.144 36.8613 136.144 36.04C136.144 35.2187 136.293 34.5093 136.592 33.912C136.901 33.304 137.322 32.84 137.856 32.52C138.4 32.2 139.013 32.04 139.696 32.04C140.698 32.04 141.461 32.408 141.984 33.144C142.016 33.1973 142.053 33.224 142.096 33.224C142.128 33.224 142.154 33.2133 142.176 33.192C142.197 33.16 142.208 33.1227 142.208 33.08V32.36C142.208 32.2533 142.261 32.2 142.368 32.2H144.496C144.549 32.2 144.592 32.216 144.624 32.248C144.656 32.28 144.672 32.3173 144.672 32.36V38.68C144.672 40.088 144.261 41.144 143.44 41.848C142.618 42.5627 141.498 42.92 140.08 42.92ZM140.4 37.928C140.944 37.928 141.37 37.7573 141.68 37.416C142 37.064 142.16 36.6053 142.16 36.04C142.16 35.4533 142 34.9787 141.68 34.616C141.37 34.2533 140.944 34.072 140.4 34.072C139.856 34.072 139.424 34.2533 139.104 34.616C138.794 34.9787 138.64 35.4533 138.64 36.04C138.64 36.6053 138.794 37.064 139.104 37.416C139.424 37.7573 139.856 37.928 140.4 37.928ZM152.121 41.16C151.15 41.16 150.43 40.8987 149.961 40.376C149.491 39.8427 149.257 39.1067 149.257 38.168V34.264C149.257 34.2 149.225 34.168 149.161 34.168H147.993C147.907 34.168 147.865 34.1253 147.865 34.04V32.328C147.865 32.2427 147.907 32.2 147.993 32.2H149.161C149.225 32.2 149.257 32.168 149.257 32.104V30.136C149.257 30.0293 149.31 29.976 149.417 29.976H151.513C151.609 29.976 151.657 30.0293 151.657 30.136L151.561 32.104C151.561 32.168 151.593 32.2 151.657 32.2H154.073C154.158 32.2 154.201 32.2427 154.201 32.328V34.04C154.201 34.1253 154.158 34.168 154.073 34.168H151.705C151.641 34.168 151.609 34.2 151.609 34.264V37.768C151.609 38.6107 151.987 39.032 152.745 39.032C152.958 39.032 153.15 38.9947 153.321 38.92C153.502 38.8347 153.721 38.6853 153.977 38.472C154.009 38.44 154.041 38.424 154.073 38.424C154.126 38.424 154.153 38.4613 154.153 38.536V40.2C154.153 40.5413 153.95 40.7867 153.545 40.936C153.139 41.0853 152.665 41.16 152.121 41.16ZM155.297 41C155.255 41 155.217 40.984 155.185 40.952C155.153 40.92 155.137 40.8827 155.137 40.84V34.552C155.137 33.976 155.111 33.5493 155.057 33.272C155.015 32.9947 154.929 32.696 154.801 32.376L154.785 32.312C154.785 32.2373 154.833 32.2 154.929 32.2H157.313C157.367 32.2 157.409 32.216 157.441 32.248C157.473 32.28 157.489 32.3173 157.489 32.36V33.672C157.489 33.7253 157.505 33.752 157.537 33.752C157.58 33.752 157.607 33.7253 157.617 33.672C157.937 32.584 158.604 32.04 159.617 32.04C160.044 32.04 160.257 32.1147 160.257 32.264V34.568C160.257 34.664 160.204 34.696 160.097 34.664C159.905 34.6 159.687 34.568 159.441 34.568C158.823 34.568 158.359 34.7227 158.049 35.032C157.751 35.3413 157.601 35.8107 157.601 36.44V40.84C157.601 40.9467 157.548 41 157.441 41H155.297ZM163.008 41.16C162.176 41.16 161.509 40.9413 161.008 40.504C160.517 40.056 160.272 39.4213 160.272 38.6C160.272 37.864 160.49 37.288 160.928 36.872C161.376 36.456 162.09 36.1573 163.072 35.976L164.464 35.72C164.784 35.656 165.002 35.5707 165.12 35.464C165.248 35.3467 165.312 35.2027 165.312 35.032C165.312 34.744 165.184 34.5147 164.928 34.344C164.682 34.1627 164.32 34.072 163.84 34.072C163.221 34.072 162.688 34.2267 162.24 34.536C161.792 34.8347 161.376 35.224 160.992 35.704C160.949 35.768 160.901 35.8 160.848 35.8C160.794 35.8 160.768 35.752 160.768 35.656V33.912C160.768 33.3147 161.098 32.856 161.76 32.536C162.432 32.2053 163.248 32.04 164.208 32.04C165.434 32.04 166.32 32.3067 166.864 32.84C167.408 33.3627 167.68 34.04 167.68 34.872V40.84C167.68 40.8827 167.664 40.92 167.632 40.952C167.6 40.984 167.568 41 167.536 41H165.504C165.472 41 165.434 40.984 165.392 40.952C165.36 40.92 165.344 40.8827 165.344 40.84V40.04C165.344 39.9973 165.328 39.976 165.296 39.976C165.253 39.976 165.216 40.0027 165.184 40.056C164.938 40.4507 164.634 40.7333 164.272 40.904C163.92 41.0747 163.498 41.16 163.008 41.16ZM163.904 39.416C164.341 39.416 164.682 39.272 164.928 38.984C165.184 38.696 165.312 38.3067 165.312 37.816V37.192C165.312 37.064 165.248 37.0107 165.12 37.032L164.128 37.208C163.221 37.3787 162.768 37.7627 162.768 38.36C162.768 38.7013 162.869 38.9627 163.072 39.144C163.274 39.3253 163.552 39.416 163.904 39.416ZM162.752 42.776C162.688 42.776 162.656 42.744 162.656 42.68V42.04C162.656 41.976 162.688 41.944 162.752 41.944H165.44C165.504 41.944 165.536 41.976 165.536 42.04V42.68C165.536 42.744 165.504 42.776 165.44 42.776H162.752ZM168.876 41C168.833 41 168.796 40.984 168.764 40.952C168.732 40.92 168.715 40.8827 168.715 40.84V34.552C168.715 33.976 168.689 33.5493 168.636 33.272C168.593 32.9947 168.508 32.696 168.38 32.376L168.364 32.312C168.364 32.2373 168.412 32.2 168.508 32.2H171.02C171.062 32.2 171.1 32.216 171.132 32.248C171.164 32.28 171.18 32.3173 171.18 32.36V40.84C171.18 40.8827 171.164 40.92 171.132 40.952C171.1 40.984 171.062 41 171.02 41H168.876ZM169.932 31.8C169.537 31.8 169.206 31.7147 168.94 31.544C168.673 31.3733 168.54 31.1227 168.54 30.792C168.54 30.4507 168.668 30.2 168.924 30.04C169.19 29.88 169.526 29.8 169.932 29.8C170.348 29.8 170.689 29.88 170.956 30.04C171.222 30.2 171.356 30.4507 171.356 30.792C171.356 31.1227 171.217 31.3733 170.94 31.544C170.673 31.7147 170.337 31.8 169.932 31.8ZM179.741 41.16C179.261 41.16 178.802 41.0427 178.365 40.808C177.927 40.5733 177.613 40.28 177.421 39.928C177.378 39.864 177.335 39.832 177.293 39.832C177.218 39.832 177.181 39.88 177.181 39.976V40.84C177.181 40.8827 177.165 40.92 177.133 40.952C177.101 40.984 177.058 41 177.005 41H174.845C174.791 41 174.749 40.984 174.717 40.952C174.685 40.92 174.669 40.8827 174.669 40.84V32.152C174.669 31.576 174.642 31.1493 174.589 30.872C174.546 30.5947 174.461 30.296 174.333 29.976L174.317 29.912C174.317 29.8373 174.365 29.8 174.461 29.8H176.957C177.01 29.8 177.053 29.816 177.085 29.848C177.117 29.88 177.133 29.9173 177.133 29.96V33.224C177.133 33.32 177.17 33.368 177.245 33.368C177.287 33.368 177.33 33.336 177.373 33.272C177.565 32.92 177.885 32.6267 178.333 32.392C178.791 32.1573 179.261 32.04 179.741 32.04C180.519 32.04 181.191 32.232 181.757 32.616C182.322 33 182.754 33.5387 183.053 34.232C183.362 34.9147 183.517 35.704 183.517 36.6C183.517 37.496 183.362 38.2907 183.053 38.984C182.754 39.6667 182.322 40.2 181.757 40.584C181.191 40.968 180.519 41.16 179.741 41.16ZM179.101 39.048C179.677 39.048 180.141 38.824 180.493 38.376C180.845 37.9173 181.021 37.3253 181.021 36.6C181.021 35.8747 180.845 35.288 180.493 34.84C180.141 34.3813 179.677 34.152 179.101 34.152C178.525 34.152 178.061 34.3813 177.709 34.84C177.357 35.288 177.181 35.8747 177.181 36.6C177.181 37.3253 177.357 37.9173 177.709 38.376C178.061 38.824 178.525 39.048 179.101 39.048ZM188.403 41.16C187.561 41.16 186.803 40.968 186.131 40.584C185.459 40.1893 184.931 39.6453 184.547 38.952C184.174 38.2587 183.987 37.4747 183.987 36.6C183.987 35.7253 184.174 34.9413 184.547 34.248C184.931 33.5547 185.459 33.016 186.131 32.632C186.803 32.2373 187.561 32.04 188.403 32.04C189.246 32.04 190.003 32.2373 190.675 32.632C191.347 33.016 191.87 33.5547 192.243 34.248C192.627 34.9413 192.819 35.7253 192.819 36.6C192.819 37.4747 192.627 38.2587 192.243 38.952C191.87 39.6453 191.347 40.1893 190.675 40.584C190.003 40.968 189.246 41.16 188.403 41.16ZM188.403 38.984C188.979 38.984 189.443 38.7653 189.795 38.328C190.147 37.8907 190.323 37.3147 190.323 36.6C190.323 35.8853 190.147 35.3093 189.795 34.872C189.443 34.4347 188.979 34.216 188.403 34.216C187.827 34.216 187.363 34.4347 187.011 34.872C186.659 35.3093 186.483 35.8853 186.483 36.6C186.483 37.3147 186.659 37.8907 187.011 38.328C187.363 38.7653 187.827 38.984 188.403 38.984ZM190.339 31.352C189.55 31.352 188.857 31.32 188.259 31.256C187.673 31.1813 187.086 31.0693 186.499 30.92C186.361 30.888 186.291 30.808 186.291 30.68V30.088C186.291 30.024 186.334 30.0027 186.419 30.024C187.102 30.2053 187.753 30.3333 188.371 30.408C188.99 30.472 189.646 30.504 190.339 30.504C190.414 30.504 190.451 30.536 190.451 30.6V31.256C190.451 31.32 190.414 31.352 190.339 31.352ZM198.815 41.16C197.727 41.16 196.916 41.0213 196.383 40.744C195.86 40.4667 195.599 40.0667 195.599 39.544V38.056C195.599 37.9493 195.636 37.896 195.711 37.896C195.753 37.896 195.801 37.9227 195.855 37.976C196.185 38.36 196.58 38.6853 197.039 38.952C197.497 39.2187 197.988 39.352 198.511 39.352C199.3 39.352 199.695 39.0533 199.695 38.456C199.695 38.232 199.62 38.0613 199.471 37.944C199.321 37.816 199.055 37.7093 198.671 37.624L197.775 37.416C197.039 37.2453 196.489 36.952 196.127 36.536C195.775 36.1093 195.599 35.5547 195.599 34.872C195.599 34.0187 195.919 33.336 196.559 32.824C197.209 32.3013 198.1 32.04 199.231 32.04C201.001 32.04 201.887 32.5893 201.887 33.688V35.016C201.887 35.1013 201.849 35.144 201.775 35.144C201.721 35.144 201.679 35.1173 201.647 35.064C201.369 34.6373 201.023 34.328 200.607 34.136C200.191 33.9333 199.753 33.832 199.295 33.832C198.9 33.832 198.596 33.912 198.383 34.072C198.169 34.2213 198.063 34.4293 198.063 34.696C198.063 34.9413 198.132 35.128 198.271 35.256C198.42 35.384 198.655 35.48 198.975 35.544L199.951 35.736C200.697 35.8853 201.257 36.168 201.631 36.584C202.015 36.9893 202.207 37.5227 202.207 38.184C202.207 39.0907 201.897 39.816 201.279 40.36C200.671 40.8933 199.849 41.16 198.815 41.16ZM205.654 41.16C204.737 41.16 204.043 40.8827 203.574 40.328C203.115 39.7733 202.886 39.0373 202.886 38.12V34.552C202.886 33.976 202.859 33.5493 202.806 33.272C202.763 32.9947 202.678 32.696 202.55 32.376L202.534 32.312C202.534 32.2373 202.582 32.2 202.678 32.2H205.19C205.297 32.2 205.35 32.2533 205.35 32.36V37.896C205.35 38.3653 205.462 38.7067 205.686 38.92C205.91 39.1333 206.203 39.24 206.566 39.24C207.057 39.24 207.43 39.0587 207.686 38.696C207.942 38.3333 208.07 37.8 208.07 37.096V34.552C208.07 33.976 208.043 33.5493 207.99 33.272C207.947 32.9947 207.862 32.696 207.734 32.376L207.718 32.312C207.718 32.2373 207.766 32.2 207.862 32.2H210.374C210.481 32.2 210.534 32.2533 210.534 32.36V34.632C210.534 34.888 210.635 35.016 210.838 35.016C211.03 35.016 211.163 34.92 211.238 34.728C211.323 34.5253 211.366 34.28 211.366 33.992C211.366 33.4907 211.291 32.952 211.142 32.376L211.126 32.328C211.126 32.2427 211.179 32.2 211.286 32.2H211.958C212.065 32.2 212.123 32.248 212.134 32.344C212.251 32.7813 212.31 33.3147 212.31 33.944C212.31 34.5413 212.182 34.9893 211.926 35.288C211.681 35.5867 211.291 35.7627 210.758 35.816C210.673 35.8267 210.614 35.848 210.582 35.88C210.55 35.912 210.534 35.9707 210.534 36.056V40.84C210.534 40.9467 210.481 41 210.374 41H208.342C208.235 41 208.182 40.9467 208.182 40.84V39.88C208.182 39.8373 208.161 39.8107 208.118 39.8C208.075 39.7893 208.038 39.816 208.006 39.88C207.846 40.2107 207.579 40.5093 207.206 40.776C206.843 41.032 206.326 41.16 205.654 41.16ZM207.654 31.448C207.419 31.448 207.217 31.4107 207.046 31.336C206.875 31.2613 206.694 31.1547 206.502 31.016C206.363 30.9093 206.241 30.8347 206.134 30.792C206.027 30.7387 205.915 30.712 205.798 30.712C205.638 30.712 205.515 30.7653 205.43 30.872C205.355 30.9787 205.313 31.0907 205.302 31.208C205.281 31.304 205.233 31.352 205.158 31.352H204.566C204.502 31.352 204.459 31.3413 204.438 31.32C204.417 31.288 204.406 31.24 204.406 31.176C204.406 30.8347 204.513 30.5307 204.726 30.264C204.95 29.9867 205.297 29.848 205.766 29.848C206.001 29.848 206.203 29.8853 206.374 29.96C206.545 30.0347 206.726 30.1413 206.918 30.28C207.057 30.3867 207.179 30.4667 207.286 30.52C207.393 30.5627 207.505 30.584 207.622 30.584C207.782 30.584 207.899 30.5307 207.974 30.424C208.059 30.3173 208.107 30.2053 208.118 30.088C208.139 29.992 208.187 29.944 208.262 29.944H208.854C208.918 29.944 208.961 29.96 208.982 29.992C209.003 30.0133 209.014 30.056 209.014 30.12C209.014 30.4613 208.902 30.7707 208.678 31.048C208.465 31.3147 208.123 31.448 207.654 31.448ZM215.148 41.16C214.316 41.16 213.65 40.9413 213.148 40.504C212.658 40.056 212.412 39.4213 212.412 38.6C212.412 37.864 212.631 37.288 213.068 36.872C213.516 36.456 214.231 36.1573 215.212 35.976L216.604 35.72C216.924 35.656 217.143 35.5707 217.26 35.464C217.388 35.3467 217.452 35.2027 217.452 35.032C217.452 34.744 217.324 34.5147 217.068 34.344C216.823 34.1627 216.46 34.072 215.98 34.072C215.362 34.072 214.828 34.2267 214.38 34.536C213.932 34.8347 213.516 35.224 213.132 35.704C213.09 35.768 213.042 35.8 212.988 35.8C212.935 35.8 212.908 35.752 212.908 35.656V33.912C212.908 33.3147 213.239 32.856 213.9 32.536C214.572 32.2053 215.388 32.04 216.348 32.04C217.575 32.04 218.46 32.3067 219.004 32.84C219.548 33.3627 219.82 34.04 219.82 34.872V40.84C219.82 40.8827 219.804 40.92 219.772 40.952C219.74 40.984 219.708 41 219.676 41H217.644C217.612 41 217.575 40.984 217.532 40.952C217.5 40.92 217.484 40.8827 217.484 40.84V40.04C217.484 39.9973 217.468 39.976 217.436 39.976C217.394 39.976 217.356 40.0027 217.324 40.056C217.079 40.4507 216.775 40.7333 216.412 40.904C216.06 41.0747 215.639 41.16 215.148 41.16ZM216.044 39.416C216.482 39.416 216.823 39.272 217.068 38.984C217.324 38.696 217.452 38.3067 217.452 37.816V37.192C217.452 37.064 217.388 37.0107 217.26 37.032L216.268 37.208C215.362 37.3787 214.908 37.7627 214.908 38.36C214.908 38.7013 215.01 38.9627 215.212 39.144C215.415 39.3253 215.692 39.416 216.044 39.416ZM226.686 41C226.526 41 226.43 40.9307 226.398 40.792L223.726 31.592C223.608 31.176 223.486 30.8667 223.358 30.664C223.24 30.4507 223.091 30.2427 222.91 30.04C222.878 30.008 222.862 29.9707 222.862 29.928C222.862 29.8427 222.91 29.8 223.006 29.8H226.254C226.35 29.8 226.414 29.8213 226.446 29.864C226.478 29.9067 226.472 29.96 226.43 30.024C226.28 30.2373 226.206 30.4773 226.206 30.744C226.206 30.8827 226.243 31.1013 226.318 31.4L228.158 38.168C228.19 38.264 228.238 38.312 228.302 38.312C228.387 38.312 228.435 38.264 228.446 38.168L230.334 31.304C230.387 31.1333 230.414 30.9467 230.414 30.744C230.414 30.4773 230.339 30.2373 230.19 30.024C230.168 29.9813 230.158 29.9493 230.158 29.928C230.158 29.8427 230.227 29.8 230.366 29.8H233.47C233.566 29.8 233.614 29.8427 233.614 29.928C233.614 29.9707 233.598 30.008 233.566 30.04C233.395 30.232 233.251 30.4293 233.134 30.632C233.016 30.8347 232.894 31.1547 232.766 31.592L230.094 40.792C230.062 40.9307 229.966 41 229.806 41H226.686ZM234.079 41C234.036 41 233.999 40.984 233.967 40.952C233.935 40.92 233.919 40.8827 233.919 40.84V34.552C233.919 33.976 233.892 33.5493 233.839 33.272C233.796 32.9947 233.711 32.696 233.583 32.376L233.567 32.312C233.567 32.2373 233.615 32.2 233.711 32.2H236.223C236.265 32.2 236.303 32.216 236.335 32.248C236.367 32.28 236.383 32.3173 236.383 32.36V40.84C236.383 40.8827 236.367 40.92 236.335 40.952C236.303 40.984 236.265 41 236.223 41H234.079ZM235.135 31.8C234.74 31.8 234.409 31.7147 234.143 31.544C233.876 31.3733 233.743 31.1227 233.743 30.792C233.743 30.4507 233.871 30.2 234.127 30.04C234.393 29.88 234.729 29.8 235.135 29.8C235.551 29.8 235.892 29.88 236.159 30.04C236.425 30.2 236.559 30.4507 236.559 30.792C236.559 31.1227 236.42 31.3733 236.143 31.544C235.876 31.7147 235.54 31.8 235.135 31.8ZM237.594 41C237.552 41 237.514 40.984 237.482 40.952C237.45 40.92 237.434 40.8827 237.434 40.84V34.552C237.434 33.976 237.408 33.5493 237.354 33.272C237.312 32.9947 237.226 32.696 237.098 32.376L237.082 32.312C237.082 32.2373 237.13 32.2 237.226 32.2H239.626C239.669 32.2 239.706 32.216 239.738 32.248C239.77 32.28 239.786 32.3173 239.786 32.36V33.304C239.786 33.4 239.813 33.448 239.866 33.448C239.909 33.448 239.946 33.4107 239.978 33.336C240.426 32.472 241.226 32.04 242.378 32.04C243.328 32.04 244.042 32.3173 244.522 32.872C245.002 33.4267 245.242 34.1627 245.242 35.08V40.84C245.242 40.8827 245.226 40.92 245.194 40.952C245.162 40.984 245.125 41 245.082 41H242.938C242.896 41 242.858 40.984 242.826 40.952C242.794 40.92 242.778 40.8827 242.778 40.84V35.304C242.778 34.856 242.661 34.52 242.426 34.296C242.192 34.072 241.888 33.96 241.514 33.96C240.992 33.96 240.592 34.1467 240.314 34.52C240.037 34.8933 239.898 35.4267 239.898 36.12V40.84C239.898 40.8827 239.882 40.92 239.85 40.952C239.818 40.984 239.781 41 239.738 41H237.594ZM248.695 41.16C247.863 41.16 247.196 40.9413 246.695 40.504C246.204 40.056 245.959 39.4213 245.959 38.6C245.959 37.864 246.178 37.288 246.615 36.872C247.063 36.456 247.778 36.1573 248.759 35.976L250.151 35.72C250.471 35.656 250.69 35.5707 250.807 35.464C250.935 35.3467 250.999 35.2027 250.999 35.032C250.999 34.744 250.871 34.5147 250.615 34.344C250.37 34.1627 250.007 34.072 249.527 34.072C248.908 34.072 248.375 34.2267 247.927 34.536C247.479 34.8347 247.063 35.224 246.679 35.704C246.636 35.768 246.588 35.8 246.535 35.8C246.482 35.8 246.455 35.752 246.455 35.656V33.912C246.455 33.3147 246.786 32.856 247.447 32.536C248.119 32.2053 248.935 32.04 249.895 32.04C251.122 32.04 252.007 32.3067 252.551 32.84C253.095 33.3627 253.367 34.04 253.367 34.872V40.84C253.367 40.8827 253.351 40.92 253.319 40.952C253.287 40.984 253.255 41 253.223 41H251.191C251.159 41 251.122 40.984 251.079 40.952C251.047 40.92 251.031 40.8827 251.031 40.84V40.04C251.031 39.9973 251.015 39.976 250.983 39.976C250.94 39.976 250.903 40.0027 250.871 40.056C250.626 40.4507 250.322 40.7333 249.959 40.904C249.607 41.0747 249.186 41.16 248.695 41.16ZM249.591 39.416C250.028 39.416 250.37 39.272 250.615 38.984C250.871 38.696 250.999 38.3067 250.999 37.816V37.192C250.999 37.064 250.935 37.0107 250.807 37.032L249.815 37.208C248.908 37.3787 248.455 37.7627 248.455 38.36C248.455 38.7013 248.556 38.9627 248.759 39.144C248.962 39.3253 249.239 39.416 249.591 39.416ZM254.563 41C254.456 41 254.403 40.9467 254.403 40.84V34.552C254.403 33.976 254.376 33.5493 254.323 33.272C254.28 32.9947 254.195 32.696 254.067 32.376L254.051 32.312C254.051 32.2373 254.099 32.2 254.195 32.2H256.579C256.632 32.2 256.675 32.216 256.707 32.248C256.739 32.28 256.755 32.3173 256.755 32.36V33.304C256.755 33.4 256.782 33.448 256.835 33.448C256.878 33.448 256.915 33.4107 256.947 33.336C257.406 32.472 258.136 32.04 259.139 32.04C259.715 32.04 260.216 32.1787 260.643 32.456C261.07 32.7333 261.384 33.1173 261.587 33.608C261.608 33.672 261.635 33.704 261.667 33.704C261.71 33.704 261.742 33.6773 261.763 33.624C262.008 33.1333 262.302 32.7493 262.643 32.472C262.995 32.184 263.491 32.04 264.131 32.04C264.675 32.04 265.15 32.168 265.555 32.424C265.96 32.6693 266.27 33.0107 266.483 33.448C266.707 33.8853 266.819 34.376 266.819 34.92V40.84C266.819 40.9467 266.766 41 266.659 41H264.531C264.478 41 264.435 40.984 264.403 40.952C264.371 40.92 264.355 40.8827 264.355 40.84V35.16C264.355 34.36 264.014 33.96 263.331 33.96C262.894 33.96 262.536 34.1413 262.259 34.504C261.982 34.856 261.843 35.4053 261.843 36.152V40.84C261.843 40.9467 261.79 41 261.683 41H259.539C259.432 41 259.379 40.9467 259.379 40.84V35.16C259.379 34.36 259.038 33.96 258.355 33.96C257.918 33.96 257.56 34.1413 257.283 34.504C257.006 34.856 256.867 35.4053 256.867 36.152V40.84C256.867 40.8827 256.851 40.92 256.819 40.952C256.787 40.984 256.744 41 256.691 41H254.563ZM267.969 41C267.927 41 267.889 40.984 267.857 40.952C267.825 40.92 267.809 40.8827 267.809 40.84V34.552C267.809 33.976 267.783 33.5493 267.729 33.272C267.687 32.9947 267.601 32.696 267.473 32.376L267.457 32.312C267.457 32.2373 267.505 32.2 267.601 32.2H270.113C270.156 32.2 270.193 32.216 270.225 32.248C270.257 32.28 270.273 32.3173 270.273 32.36V40.84C270.273 40.8827 270.257 40.92 270.225 40.952C270.193 40.984 270.156 41 270.113 41H267.969ZM269.025 31.8C268.631 31.8 268.3 31.7147 268.033 31.544C267.767 31.3733 267.633 31.1227 267.633 30.792C267.633 30.4507 267.761 30.2 268.017 30.04C268.284 29.88 268.62 29.8 269.025 29.8C269.441 29.8 269.783 29.88 270.049 30.04C270.316 30.2 270.449 30.4507 270.449 30.792C270.449 31.1227 270.311 31.3733 270.033 31.544C269.767 31.7147 269.431 31.8 269.025 31.8ZM271.485 41C271.378 41 271.325 40.9467 271.325 40.84V32.152C271.325 31.576 271.298 31.1493 271.245 30.872C271.202 30.5947 271.117 30.296 270.989 29.976L270.973 29.912C270.973 29.8373 271.021 29.8 271.117 29.8H273.629C273.736 29.8 273.789 29.8533 273.789 29.96V40.84C273.789 40.9467 273.736 41 273.629 41H271.485ZM275.001 41C274.894 41 274.84 40.9467 274.84 40.84V32.152C274.84 31.576 274.814 31.1493 274.761 30.872C274.718 30.5947 274.633 30.296 274.505 29.976L274.489 29.912C274.489 29.8373 274.537 29.8 274.633 29.8H277.145C277.251 29.8 277.305 29.8533 277.305 29.96V36.024C277.305 36.1093 277.331 36.152 277.385 36.152C277.438 36.152 277.475 36.1253 277.497 36.072L279.513 33.144C279.619 32.9733 279.673 32.8133 279.673 32.664C279.673 32.568 279.657 32.488 279.625 32.424C279.614 32.4027 279.609 32.376 279.609 32.344C279.609 32.248 279.651 32.2 279.737 32.2H282.745C282.83 32.2 282.873 32.2373 282.873 32.312C282.873 32.3653 282.846 32.408 282.793 32.44C282.558 32.6 282.345 32.8293 282.153 33.128L280.217 35.976C280.099 36.1467 280.041 36.2853 280.041 36.392C280.041 36.5093 280.094 36.6427 280.201 36.792L282.857 40.808C282.878 40.8293 282.889 40.8613 282.889 40.904C282.889 40.968 282.841 41 282.745 41H280.137C280.051 41 279.987 40.9627 279.945 40.888L277.497 36.92C277.454 36.856 277.417 36.824 277.385 36.824C277.331 36.824 277.305 36.872 277.305 36.968V40.84C277.305 40.9467 277.251 41 277.145 41H275.001ZM286.383 41C286.276 41 286.223 40.9467 286.223 40.84V32.152C286.223 31.576 286.196 31.1493 286.143 30.872C286.1 30.5947 286.015 30.296 285.887 29.976L285.871 29.912C285.871 29.8373 285.919 29.8 286.015 29.8H289.199C289.295 29.8 289.359 29.8373 289.391 29.912L292.543 36.872C292.575 36.936 292.612 36.968 292.655 36.968C292.729 36.968 292.767 36.9147 292.767 36.808V32.152C292.767 31.576 292.74 31.1493 292.687 30.872C292.644 30.5947 292.559 30.296 292.431 29.976L292.415 29.912C292.415 29.8373 292.463 29.8 292.559 29.8H295.407C295.46 29.8 295.497 29.816 295.519 29.848C295.551 29.88 295.556 29.9227 295.535 29.976C295.407 30.296 295.316 30.5947 295.263 30.872C295.22 31.1493 295.199 31.576 295.199 32.152V40.84C295.199 40.9467 295.145 41 295.039 41H292.223C292.137 41 292.073 40.9627 292.031 40.888L288.863 33.912C288.841 33.8587 288.809 33.832 288.767 33.832C288.692 33.832 288.655 33.88 288.655 33.976V40.84C288.655 40.9467 288.601 41 288.495 41H286.383ZM300.095 42.92C299.466 42.92 298.874 42.8507 298.319 42.712C297.775 42.584 297.354 42.408 297.055 42.184C296.831 42.024 296.719 41.8 296.719 41.512V40.056C296.719 39.9493 296.762 39.896 296.847 39.896C296.89 39.896 296.938 39.9227 296.991 39.976C297.375 40.328 297.802 40.6 298.271 40.792C298.741 40.9733 299.295 41.064 299.935 41.064C300.607 41.064 301.146 40.888 301.551 40.536C301.967 40.184 302.175 39.72 302.175 39.144V38.952C302.175 38.888 302.149 38.856 302.095 38.856C302.053 38.856 302.015 38.8773 301.983 38.92C301.77 39.2293 301.477 39.496 301.103 39.72C300.73 39.9333 300.266 40.04 299.711 40.04C299.029 40.04 298.415 39.88 297.871 39.56C297.338 39.24 296.917 38.7813 296.607 38.184C296.309 37.576 296.159 36.8613 296.159 36.04C296.159 35.2187 296.309 34.5093 296.607 33.912C296.917 33.304 297.338 32.84 297.871 32.52C298.415 32.2 299.029 32.04 299.711 32.04C300.714 32.04 301.477 32.408 301.999 33.144C302.031 33.1973 302.069 33.224 302.111 33.224C302.143 33.224 302.17 33.2133 302.191 33.192C302.213 33.16 302.223 33.1227 302.223 33.08V32.36C302.223 32.2533 302.277 32.2 302.383 32.2H304.511C304.565 32.2 304.607 32.216 304.639 32.248C304.671 32.28 304.687 32.3173 304.687 32.36V38.68C304.687 40.088 304.277 41.144 303.455 41.848C302.634 42.5627 301.514 42.92 300.095 42.92ZM300.415 37.928C300.959 37.928 301.386 37.7573 301.695 37.416C302.015 37.064 302.175 36.6053 302.175 36.04C302.175 35.4533 302.015 34.9787 301.695 34.616C301.386 34.2533 300.959 34.072 300.415 34.072C299.871 34.072 299.439 34.2533 299.119 34.616C298.81 34.9787 298.655 35.4533 298.655 36.04C298.655 36.6053 298.81 37.064 299.119 37.416C299.439 37.7573 299.871 37.928 300.415 37.928ZM305.907 41C305.864 41 305.827 40.984 305.795 40.952C305.763 40.92 305.747 40.8827 305.747 40.84V32.152C305.747 31.576 305.72 31.1493 305.667 30.872C305.624 30.5947 305.539 30.296 305.411 29.976L305.395 29.912C305.395 29.8373 305.443 29.8 305.539 29.8H308.051C308.093 29.8 308.131 29.816 308.163 29.848C308.195 29.88 308.211 29.9173 308.211 29.96V33.24C308.211 33.2827 308.216 33.32 308.227 33.352C308.237 33.3733 308.253 33.384 308.275 33.384C308.317 33.384 308.36 33.3467 308.403 33.272C308.637 32.888 308.915 32.5893 309.235 32.376C309.565 32.152 310.051 32.04 310.691 32.04C311.64 32.04 312.355 32.3173 312.835 32.872C313.315 33.4267 313.555 34.1627 313.555 35.08V40.84C313.555 40.8827 313.539 40.92 313.507 40.952C313.475 40.984 313.437 41 313.395 41H311.251C311.208 41 311.171 40.984 311.139 40.952C311.107 40.92 311.091 40.8827 311.091 40.84V35.304C311.091 34.856 310.973 34.52 310.739 34.296C310.504 34.072 310.2 33.96 309.827 33.96C309.304 33.96 308.904 34.1467 308.627 34.52C308.349 34.8933 308.211 35.4267 308.211 36.12V40.84C308.211 40.8827 308.195 40.92 308.163 40.952C308.131 40.984 308.093 41 308.051 41H305.907ZM318.912 41.16C317.941 41.16 317.098 40.9787 316.384 40.616C315.669 40.2533 315.114 39.7307 314.72 39.048C314.336 38.3547 314.144 37.528 314.144 36.568C314.144 35.5973 314.341 34.7707 314.736 34.088C315.13 33.4053 315.653 32.8933 316.304 32.552C316.954 32.2107 317.658 32.04 318.416 32.04C319.642 32.04 320.602 32.3867 321.296 33.08C321.989 33.7627 322.336 34.712 322.336 35.928C322.336 36.1307 322.33 36.2853 322.32 36.392C322.298 36.7227 322.25 36.9627 322.176 37.112C322.112 37.2613 322.005 37.3627 321.856 37.416C321.717 37.4587 321.488 37.48 321.168 37.48H316.896C316.821 37.48 316.773 37.496 316.752 37.528C316.73 37.5493 316.725 37.5867 316.736 37.64C316.8 38.0667 317.04 38.4133 317.456 38.68C317.882 38.936 318.458 39.064 319.184 39.064C319.632 39.064 320.064 39.0107 320.48 38.904C320.906 38.7973 321.274 38.632 321.584 38.408C321.616 38.3867 321.653 38.376 321.696 38.376C321.76 38.376 321.792 38.4133 321.792 38.488V39.992C321.792 40.2053 321.76 40.3707 321.696 40.488C321.632 40.5947 321.509 40.6907 321.328 40.776C320.816 41.032 320.01 41.16 318.912 41.16ZM319.648 35.848C319.776 35.848 319.861 35.816 319.904 35.752C319.957 35.6773 319.984 35.5653 319.984 35.416C319.984 34.968 319.84 34.6213 319.552 34.376C319.264 34.12 318.88 33.992 318.4 33.992C317.92 33.992 317.525 34.1307 317.216 34.408C316.906 34.6853 316.752 35.032 316.752 35.448C316.752 35.7147 316.864 35.848 317.088 35.848H319.648ZM316.88 42.776C316.816 42.776 316.784 42.744 316.784 42.68V42.04C316.784 41.976 316.816 41.944 316.88 41.944H319.568C319.632 41.944 319.664 41.976 319.664 42.04V42.68C319.664 42.744 319.632 42.776 319.568 42.776H316.88ZM316.208 31.544C316.101 31.5333 316.048 31.4853 316.048 31.4V30.792C316.048 30.728 316.08 30.696 316.144 30.696C316.57 30.7067 316.933 30.648 317.232 30.52C317.541 30.392 317.866 30.1307 318.208 29.736C318.261 29.6827 318.314 29.656 318.368 29.656C318.421 29.656 318.474 29.6827 318.528 29.736C318.869 30.1307 319.189 30.392 319.488 30.52C319.797 30.648 320.165 30.7067 320.592 30.696C320.656 30.696 320.688 30.728 320.688 30.792V31.4C320.688 31.4853 320.634 31.5333 320.528 31.544C320.474 31.5547 320.394 31.56 320.288 31.56C319.946 31.56 319.594 31.4907 319.232 31.352C318.869 31.2027 318.581 30.9893 318.368 30.712C318.133 31.0213 317.797 31.2507 317.36 31.4C316.933 31.5387 316.549 31.5867 316.208 31.544ZM325.101 41C325.037 41 324.989 40.984 324.957 40.952C324.925 40.9093 324.92 40.8507 324.941 40.776L328.285 30.072C328.338 29.8907 328.456 29.8 328.637 29.8H331.645C331.826 29.8 331.944 29.8907 331.997 30.072L335.357 40.776C335.368 40.7973 335.373 40.824 335.373 40.856C335.373 40.952 335.314 41 335.197 41H332.877C332.77 41 332.701 40.9467 332.669 40.84L332.221 39.256C332.2 39.1707 332.141 39.128 332.045 39.128H328.077C327.981 39.128 327.922 39.1707 327.901 39.256L327.453 40.84C327.421 40.9467 327.352 41 327.245 41H325.101ZM331.437 37.08C331.49 37.08 331.528 37.064 331.549 37.032C331.581 37 331.592 36.9573 331.581 36.904L330.221 32.232C330.189 32.1147 330.136 32.056 330.061 32.056C329.986 32.056 329.933 32.1147 329.901 32.232L328.541 36.904L328.525 36.952C328.525 37.0373 328.578 37.08 328.685 37.08H331.437ZM336.063 41C336.02 41 335.983 40.984 335.951 40.952C335.919 40.92 335.903 40.8827 335.903 40.84V34.552C335.903 33.976 335.876 33.5493 335.823 33.272C335.78 32.9947 335.695 32.696 335.567 32.376L335.551 32.312C335.551 32.2373 335.599 32.2 335.695 32.2H338.095C338.138 32.2 338.175 32.216 338.207 32.248C338.239 32.28 338.255 32.3173 338.255 32.36V33.304C338.255 33.4 338.282 33.448 338.335 33.448C338.378 33.448 338.415 33.4107 338.447 33.336C338.895 32.472 339.695 32.04 340.847 32.04C341.796 32.04 342.511 32.3173 342.991 32.872C343.471 33.4267 343.711 34.1627 343.711 35.08V40.84C343.711 40.8827 343.695 40.92 343.663 40.952C343.631 40.984 343.594 41 343.551 41H341.407C341.364 41 341.327 40.984 341.295 40.952C341.263 40.92 341.247 40.8827 341.247 40.84V35.304C341.247 34.856 341.13 34.52 340.895 34.296C340.66 34.072 340.356 33.96 339.983 33.96C339.46 33.96 339.06 34.1467 338.783 34.52C338.506 34.8933 338.367 35.4267 338.367 36.12V40.84C338.367 40.8827 338.351 40.92 338.319 40.952C338.287 40.984 338.25 41 338.207 41H336.063ZM346.056 34.536C345.64 34.536 345.309 34.4187 345.064 34.184C344.818 33.9493 344.696 33.6507 344.696 33.288C344.696 32.936 344.818 32.6427 345.064 32.408C345.309 32.1627 345.64 32.04 346.056 32.04C346.472 32.04 346.802 32.1627 347.048 32.408C347.293 32.6427 347.416 32.936 347.416 33.288C347.416 33.6507 347.293 33.9493 347.048 34.184C346.802 34.4187 346.472 34.536 346.056 34.536ZM346.056 41.16C345.64 41.16 345.309 41.0427 345.064 40.808C344.818 40.5733 344.696 40.2747 344.696 39.912C344.696 39.56 344.818 39.2667 345.064 39.032C345.309 38.7867 345.64 38.664 346.056 38.664C346.472 38.664 346.802 38.7867 347.048 39.032C347.293 39.2667 347.416 39.56 347.416 39.912C347.416 40.2747 347.293 40.5733 347.048 40.808C346.802 41.0427 346.472 41.16 346.056 41.16Z" fill="white"/>
<path d="M101.521 74.32C97.4566 74.32 95.0566 70.832 95.0566 62.8C95.0566 54.768 97.4566 51.28 101.521 51.28C102.545 51.28 103.601 51.536 104.337 52.112C104.977 52.624 105.105 53.264 105.105 54.032V56.688C105.105 57.168 104.913 57.392 104.625 57.392C104.273 57.392 104.049 57.104 103.761 56.752C103.441 56.368 103.025 55.952 102.321 55.952C100.721 55.952 99.9206 57.968 99.9206 62.8C99.9206 67.632 100.721 69.648 102.321 69.648C103.025 69.648 103.441 69.232 103.761 68.848C104.049 68.496 104.241 68.208 104.593 68.208C104.881 68.208 105.105 68.432 105.105 68.912V71.568C105.105 72.336 104.977 72.976 104.337 73.488C103.601 74.064 102.545 74.32 101.521 74.32ZM106.188 74C105.836 74 105.644 73.84 105.676 73.52L107.692 54.704C107.82 53.488 107.756 52.88 107.628 52.208C107.564 51.792 107.756 51.6 108.044 51.6H115.436C115.724 51.6 115.916 51.792 115.82 52.208C115.692 52.816 115.596 53.392 115.724 54.704L117.74 73.52C117.772 73.84 117.58 74 117.228 74H113.708C113.42 74 113.228 73.84 113.196 73.584L112.908 70.768C112.876 70.448 112.716 70.288 112.396 70.288H110.764C110.444 70.288 110.252 70.448 110.22 70.768L109.932 73.584C109.9 73.872 109.676 74 109.42 74H106.188ZM112.044 66C112.396 66 112.46 65.84 112.428 65.584C112.204 62.992 112.044 61.168 111.916 57.616C111.916 57.328 111.788 57.168 111.564 57.168C111.34 57.168 111.212 57.328 111.212 57.616C111.084 61.168 110.924 62.992 110.7 65.584C110.668 65.84 110.732 66 111.084 66H112.044ZM119.426 74C119.01 74 118.786 73.776 118.786 73.36V56.624C118.786 53.872 118.69 53.424 118.402 52.08C118.338 51.792 118.498 51.6 118.786 51.6H124.546C125.25 51.6 125.506 51.792 125.57 52.528L126.466 62.512C126.498 62.768 126.594 62.864 126.754 62.864C126.914 62.864 127.042 62.768 127.074 62.512L127.97 52.528C128.034 51.792 128.29 51.6 128.994 51.6H134.978C135.266 51.6 135.426 51.792 135.362 52.08C135.074 53.424 134.978 53.872 134.978 56.624V73.36C134.978 73.776 134.754 74 134.338 74H131.234C130.818 74 130.594 73.776 130.594 73.36C130.594 68.848 130.658 63.856 130.722 59.024C130.722 58.8 130.658 58.64 130.434 58.64C130.274 58.64 130.146 58.736 130.114 58.992L128.354 73.392C128.29 73.808 128.034 74 127.65 74H125.794C125.41 74 125.154 73.808 125.09 73.392L123.33 58.96C123.298 58.736 123.202 58.64 123.01 58.64C122.786 58.64 122.722 58.832 122.722 59.024C122.786 63.856 122.85 68.848 122.85 73.36C122.85 73.776 122.626 74 122.21 74H119.426ZM141.238 74C140.822 74 140.598 73.776 140.598 73.36V56.944C140.598 54.192 140.502 53.424 140.214 52.08C140.15 51.792 140.31 51.6 140.598 51.6H145.238C145.526 51.6 145.686 51.792 145.622 52.08C145.334 53.424 145.238 54.192 145.238 56.944V60.24C145.238 60.496 145.302 60.656 145.494 60.656C145.654 60.656 145.782 60.56 145.878 60.144L146.966 55.12C147.318 53.456 147.062 52.784 146.966 52.08C146.934 51.856 147.03 51.6 147.286 51.6H151.798C152.15 51.6 152.31 51.824 152.214 52.144C151.958 52.88 151.638 53.584 151.318 54.992L150.646 57.936C150.262 59.632 149.942 60.912 149.942 62.256C149.942 63.472 150.23 64.688 150.55 66.192L152.022 73.296C152.086 73.68 151.99 74 151.446 74H148.022C147.606 74 147.318 73.808 147.254 73.36L145.846 64.656C145.782 64.336 145.686 64.24 145.526 64.24C145.334 64.24 145.238 64.4 145.238 64.688V73.36C145.238 73.776 145.014 74 144.598 74H141.238ZM153.926 74C153.51 74 153.286 73.776 153.286 73.36V56.944C153.286 54.192 153.19 53.424 152.902 52.08C152.838 51.792 152.998 51.6 153.286 51.6H161.798C161.99 51.6 162.118 51.728 162.118 51.92V56.368C162.118 56.72 161.83 56.784 161.478 56.592C160.262 55.952 159.59 55.728 158.854 55.728C158.118 55.728 157.926 56.016 157.926 56.528V60.112C157.926 60.304 158.054 60.432 158.246 60.432H161.286C161.478 60.432 161.606 60.56 161.606 60.752V64.56C161.606 64.752 161.478 64.88 161.286 64.88H158.246C158.054 64.88 157.926 65.008 157.926 65.2V69.2C157.926 69.392 158.054 69.52 158.246 69.52H161.894C162.086 69.52 162.214 69.648 162.214 69.84V73.68C162.214 73.872 162.086 74 161.894 74H153.926ZM155.11 50.704C154.822 50.704 154.758 50.544 154.758 50.352V49.808C154.758 49.648 154.822 49.52 155.046 49.488C156.006 49.328 156.614 49.04 157.286 48.496C157.446 48.368 157.574 48.272 157.734 48.272C157.894 48.272 158.022 48.368 158.182 48.496C158.854 49.04 159.462 49.328 160.422 49.488C160.646 49.52 160.71 49.648 160.71 49.808V50.352C160.71 50.544 160.646 50.704 160.358 50.704C159.398 50.704 158.278 50.192 157.734 49.616C157.19 50.192 156.07 50.704 155.11 50.704ZM155.494 47.792C155.206 47.792 155.11 47.696 155.11 47.44V46.992C155.11 46.832 155.206 46.736 155.366 46.736C156.742 46.704 158.502 46.448 160.198 45.84C160.454 45.744 160.582 45.872 160.582 46.032V46.576C160.582 46.864 160.486 46.992 160.166 47.12C158.502 47.728 156.39 47.792 155.494 47.792ZM166.705 74C166.289 74 166.065 73.776 166.065 73.36V56.24C166.065 55.952 165.937 55.696 165.457 55.696C164.945 55.696 164.625 55.952 163.761 56.656C163.313 57.008 162.897 57.136 162.897 56.592V52.24C162.897 51.824 163.121 51.6 163.537 51.6H173.233C173.649 51.6 173.873 51.824 173.873 52.24V56.592C173.873 57.136 173.457 57.008 173.009 56.656C172.145 55.952 171.825 55.696 171.313 55.696C170.833 55.696 170.705 55.952 170.705 56.24V73.36C170.705 73.776 170.481 74 170.065 74H166.705ZM179.551 74C179.135 74 178.911 73.776 178.911 73.36V56.944C178.911 54.192 178.815 53.424 178.527 52.08C178.463 51.792 178.623 51.6 178.911 51.6H184.063C188.447 51.6 190.815 54.768 190.815 62.8C190.815 70.832 188.447 74 184.063 74H179.551ZM183.967 69.616C184.991 69.616 185.951 68.56 185.951 62.8C185.951 57.04 184.991 55.984 183.967 55.984H183.871C183.679 55.984 183.551 56.112 183.551 56.304V69.296C183.551 69.488 183.679 69.616 183.871 69.616H183.967ZM197.73 74.32C194.146 74.32 192.098 72.144 192.098 68.208V56.944C192.098 54.192 192.002 53.424 191.714 52.08C191.65 51.792 191.81 51.6 192.098 51.6H196.738C197.026 51.6 197.186 51.792 197.122 52.08C196.834 53.424 196.738 54.192 196.738 56.944V68.272C196.738 69.104 197.122 69.552 197.73 69.552C198.306 69.552 198.69 69.104 198.69 68.272V56.944C198.69 54.192 198.594 53.424 198.306 52.08C198.242 51.792 198.402 51.6 198.69 51.6H203.33C203.618 51.6 203.778 51.792 203.714 52.08C203.426 53.424 203.33 54.192 203.33 56.944V68.208C203.33 72.144 201.282 74.32 197.73 74.32ZM208.748 74C208.332 74 208.108 73.776 208.108 73.36V70.96C208.108 68.912 207.98 68.112 207.276 64.944L205.164 55.568C204.78 53.872 204.588 53.36 203.98 52.048C203.852 51.792 203.98 51.6 204.236 51.6H209.388C209.644 51.6 209.74 51.856 209.708 52.048C209.516 52.784 209.324 53.456 209.708 55.472C209.932 56.688 209.996 57.872 210.22 60.08C210.252 60.4 210.316 60.656 210.572 60.656C210.828 60.656 210.892 60.4 210.924 60.08C211.148 57.872 211.244 56.688 211.468 55.472C211.852 53.456 211.66 52.784 211.468 52.048C211.436 51.856 211.532 51.6 211.788 51.6H216.492C216.748 51.6 216.876 51.792 216.748 52.048C216.14 53.36 215.916 53.872 215.564 55.568L213.612 64.944C212.94 68.112 212.748 68.912 212.748 70.96V73.36C212.748 73.776 212.524 74 212.108 74H208.748ZM224.111 74C223.695 74 223.471 73.776 223.471 73.36V56.24C223.471 55.952 223.343 55.696 222.863 55.696C222.351 55.696 222.031 55.952 221.167 56.656C220.719 57.008 220.303 57.136 220.303 56.592V52.24C220.303 51.824 220.527 51.6 220.943 51.6H230.639C231.055 51.6 231.279 51.824 231.279 52.24V56.592C231.279 57.136 230.863 57.008 230.415 56.656C229.551 55.952 229.231 55.696 228.719 55.696C228.239 55.696 228.111 55.952 228.111 56.24V73.36C228.111 73.776 227.887 74 227.471 74H224.111ZM233.051 74C232.635 74 232.411 73.776 232.411 73.36V56.944C232.411 54.192 232.315 53.424 232.027 52.08C231.963 51.792 232.123 51.6 232.411 51.6H237.595C241.723 51.6 243.611 54.704 243.611 59.472C243.611 61.424 243.195 63.216 242.427 64.432C241.915 65.232 241.851 65.936 242.011 66.608L243.707 73.232C243.771 73.488 243.771 74 243.163 74H239.739C239.355 74 239.131 73.808 239.035 73.392L237.659 67.152C237.595 66.896 237.531 66.672 237.275 66.672C237.051 66.672 236.955 66.864 236.955 67.184V73.36C236.955 73.776 236.731 74 236.315 74H233.051ZM237.531 63.536C238.363 63.536 239.003 62.416 239.003 59.536C239.003 56.688 238.363 55.568 237.531 55.568H237.403C237.115 55.568 236.955 55.728 236.955 56.016V63.088C236.955 63.376 237.115 63.536 237.403 63.536H237.531ZM245.488 74C245.072 74 244.848 73.776 244.848 73.36V56.624C244.848 53.872 244.752 53.424 244.464 52.08C244.4 51.792 244.56 51.6 244.848 51.6H249.488C249.776 51.6 249.936 51.792 249.872 52.08C249.584 53.424 249.488 53.872 249.488 56.624V73.36C249.488 73.776 249.264 74 248.848 74H245.488ZM250.064 50.64C248.88 50.672 246.384 50.544 244.464 49.84C244.144 49.712 244.048 49.584 244.048 49.296V48.656C244.048 48.496 244.176 48.368 244.368 48.432C246.384 49.2 248.496 49.488 250.192 49.488C250.352 49.488 250.448 49.584 250.448 49.744V50.288C250.448 50.544 250.352 50.64 250.064 50.64ZM258.33 74C257.914 74 257.69 73.776 257.69 73.36V56.24C257.69 55.952 257.562 55.696 257.082 55.696C256.57 55.696 256.25 55.952 255.386 56.656C254.938 57.008 254.522 57.136 254.522 56.592V52.24C254.522 51.824 254.746 51.6 255.162 51.6H264.858C265.274 51.6 265.498 51.824 265.498 52.24V56.592C265.498 57.136 265.082 57.008 264.634 56.656C263.77 55.952 263.45 55.696 262.938 55.696C262.458 55.696 262.33 55.952 262.33 56.24V73.36C262.33 73.776 262.106 74 261.69 74H258.33ZM267.27 74C266.854 74 266.63 73.776 266.63 73.36V56.944C266.63 54.192 266.534 53.424 266.246 52.08C266.182 51.792 266.342 51.6 266.63 51.6H271.814C275.942 51.6 277.83 54.704 277.83 59.472C277.83 61.424 277.414 63.216 276.646 64.432C276.134 65.232 276.07 65.936 276.23 66.608L277.926 73.232C277.99 73.488 277.99 74 277.382 74H273.958C273.574 74 273.35 73.808 273.254 73.392L271.878 67.152C271.814 66.896 271.75 66.672 271.494 66.672C271.27 66.672 271.174 66.864 271.174 67.184V73.36C271.174 73.776 270.95 74 270.534 74H267.27ZM271.75 63.536C272.582 63.536 273.222 62.416 273.222 59.536C273.222 56.688 272.582 55.568 271.75 55.568H271.622C271.334 55.568 271.174 55.728 271.174 56.016V63.088C271.174 63.376 271.334 63.536 271.622 63.536H271.75ZM284.667 74.32C281.083 74.32 279.035 72.144 279.035 68.208V56.944C279.035 54.192 278.939 53.424 278.651 52.08C278.587 51.792 278.747 51.6 279.035 51.6H283.675C283.963 51.6 284.123 51.792 284.059 52.08C283.771 53.424 283.675 54.192 283.675 56.944V68.272C283.675 69.104 284.059 69.552 284.667 69.552C285.243 69.552 285.627 69.104 285.627 68.272V56.944C285.627 54.192 285.531 53.424 285.243 52.08C285.179 51.792 285.339 51.6 285.627 51.6H290.267C290.555 51.6 290.715 51.792 290.651 52.08C290.363 53.424 290.267 54.192 290.267 56.944V68.208C290.267 72.144 288.219 74.32 284.667 74.32ZM292.613 74C292.197 74 291.973 73.776 291.973 73.36V56.624C291.973 53.872 291.877 53.424 291.589 52.08C291.525 51.792 291.685 51.6 291.973 51.6H295.685C296.069 51.6 296.325 51.792 296.389 52.144L298.437 61.84C298.469 62.064 298.597 62.192 298.789 62.192C299.013 62.192 299.077 62.032 299.077 61.776C299.045 60.912 299.109 58.128 299.045 56.304C298.949 53.872 298.853 53.424 298.565 52.08C298.501 51.792 298.661 51.6 298.949 51.6H303.141C303.429 51.6 303.589 51.792 303.525 52.08C303.237 53.424 303.141 53.872 303.141 56.624V73.36C303.141 73.776 302.917 74 302.501 74H299.429C299.045 74 298.789 73.808 298.725 73.456L296.645 63.728C296.613 63.504 296.485 63.408 296.325 63.408C296.133 63.408 296.005 63.536 296.005 63.792C296.101 65.936 296.197 70.384 296.197 73.36C296.197 73.776 295.973 74 295.557 74H292.613ZM310.8 74.32C306.32 74.32 304.432 70.512 304.432 62.8C304.432 54.736 306.864 51.28 311.056 51.28C312.272 51.28 313.552 51.472 314.256 52.208C314.64 52.592 314.8 53.072 314.8 53.744V56.656C314.8 57.072 314.704 57.424 314.32 57.424C314.096 57.424 313.904 57.328 313.488 56.848C313.136 56.432 312.688 55.952 311.92 55.952C310.128 55.952 309.264 58.064 309.264 62.864C309.264 64.176 309.328 69.968 310.704 69.968C310.992 69.968 311.12 69.68 311.12 69.232V66.416C311.12 63.664 311.024 63.216 310.736 61.872C310.672 61.584 310.832 61.392 311.12 61.392H314.576C314.992 61.392 315.248 61.616 315.248 62.032V69.072C315.248 72.976 313.168 74.32 310.8 74.32ZM321.145 74C320.729 74 320.505 73.776 320.505 73.36V56.944C320.505 54.192 320.409 53.424 320.121 52.08C320.057 51.792 320.217 51.6 320.505 51.6H325.145C325.433 51.6 325.593 51.792 325.529 52.08C325.241 53.424 325.145 54.192 325.145 56.944V59.664C325.145 59.792 325.209 59.856 325.337 59.856H327.193C327.321 59.856 327.385 59.792 327.385 59.664V56.944C327.385 54.192 327.289 53.424 327.001 52.08C326.937 51.792 327.097 51.6 327.385 51.6H332.025C332.313 51.6 332.473 51.792 332.409 52.08C332.121 53.424 332.025 54.192 332.025 56.944V73.36C332.025 73.776 331.801 74 331.385 74H328.025C327.609 74 327.385 73.776 327.385 73.36V65.008C327.385 64.88 327.321 64.816 327.193 64.816H325.337C325.209 64.816 325.145 64.88 325.145 65.008V73.36C325.145 73.776 324.921 74 324.505 74H321.145ZM339.547 74.32C335.739 74.32 333.339 71.472 333.339 62.8C333.339 54.128 335.739 51.28 339.547 51.28C343.355 51.28 345.787 54.128 345.787 62.8C345.787 71.472 343.355 74.32 339.547 74.32ZM339.547 69.84C340.283 69.84 340.891 69.008 340.891 62.8C340.891 56.56 340.283 55.76 339.547 55.76C338.811 55.76 338.235 56.56 338.235 62.8C338.235 69.008 338.811 69.84 339.547 69.84ZM342.395 50.64C341.211 50.672 338.715 50.544 336.795 49.84C336.475 49.712 336.379 49.584 336.379 49.296V48.656C336.379 48.496 336.507 48.368 336.699 48.432C338.715 49.2 340.827 49.488 342.523 49.488C342.683 49.488 342.779 49.584 342.779 49.744V50.288C342.779 50.544 342.683 50.64 342.395 50.64ZM346.626 74C346.274 74 346.082 73.84 346.114 73.52L348.13 54.704C348.258 53.488 348.194 52.88 348.066 52.208C348.002 51.792 348.194 51.6 348.482 51.6H355.874C356.162 51.6 356.354 51.792 356.258 52.208C356.13 52.816 356.034 53.392 356.162 54.704L358.178 73.52C358.21 73.84 358.018 74 357.666 74H354.146C353.858 74 353.666 73.84 353.634 73.584L353.346 70.768C353.314 70.448 353.154 70.288 352.834 70.288H351.202C350.882 70.288 350.69 70.448 350.658 70.768L350.37 73.584C350.338 73.872 350.114 74 349.858 74H346.626ZM352.482 66C352.834 66 352.898 65.84 352.866 65.584C352.642 62.992 352.482 61.168 352.354 57.616C352.354 57.328 352.226 57.168 352.002 57.168C351.778 57.168 351.65 57.328 351.65 57.616C351.522 61.168 351.362 62.992 351.138 65.584C351.106 65.84 351.17 66 351.522 66H352.482ZM120.613 108C120.197 108 119.973 107.776 119.973 107.36V90.944C119.973 88.192 119.877 87.424 119.589 86.08C119.525 85.792 119.685 85.6 119.973 85.6H124.613C124.901 85.6 125.061 85.792 124.997 86.08C124.709 87.424 124.613 88.192 124.613 90.944V94.24C124.613 94.496 124.677 94.656 124.869 94.656C125.029 94.656 125.157 94.56 125.253 94.144L126.341 89.12C126.693 87.456 126.437 86.784 126.341 86.08C126.309 85.856 126.405 85.6 126.661 85.6H131.173C131.525 85.6 131.685 85.824 131.589 86.144C131.333 86.88 131.013 87.584 130.693 88.992L130.021 91.936C129.637 93.632 129.317 94.912 129.317 96.256C129.317 97.472 129.605 98.688 129.925 100.192L131.397 107.296C131.461 107.68 131.365 108 130.821 108H127.397C126.981 108 126.693 107.808 126.629 107.36L125.221 98.656C125.157 98.336 125.061 98.24 124.901 98.24C124.709 98.24 124.613 98.4 124.613 98.688V107.36C124.613 107.776 124.389 108 123.973 108H120.613ZM133.301 108C132.885 108 132.661 107.776 132.661 107.36V90.944C132.661 88.192 132.565 87.424 132.277 86.08C132.213 85.792 132.373 85.6 132.661 85.6H137.301C137.589 85.6 137.749 85.792 137.685 86.08C137.397 87.424 137.301 88.192 137.301 90.944V93.664C137.301 93.792 137.365 93.856 137.493 93.856H139.349C139.477 93.856 139.541 93.792 139.541 93.664V90.944C139.541 88.192 139.445 87.424 139.157 86.08C139.093 85.792 139.253 85.6 139.541 85.6H144.181C144.469 85.6 144.629 85.792 144.565 86.08C144.277 87.424 144.181 88.192 144.181 90.944V107.36C144.181 107.776 143.957 108 143.541 108H140.181C139.765 108 139.541 107.776 139.541 107.36V99.008C139.541 98.88 139.477 98.816 139.349 98.816H137.493C137.365 98.816 137.301 98.88 137.301 99.008V107.36C137.301 107.776 137.077 108 136.661 108H133.301ZM151.703 108.32C147.895 108.32 145.495 105.472 145.495 96.8C145.495 88.128 147.895 85.28 151.703 85.28C155.511 85.28 157.943 88.128 157.943 96.8C157.943 105.472 155.511 108.32 151.703 108.32ZM151.703 103.84C152.439 103.84 153.047 103.008 153.047 96.8C153.047 90.56 152.439 89.76 151.703 89.76C150.967 89.76 150.391 90.56 150.391 96.8C150.391 103.008 150.967 103.84 151.703 103.84ZM158.782 108C158.43 108 158.238 107.84 158.27 107.52L160.286 88.704C160.414 87.488 160.35 86.88 160.222 86.208C160.158 85.792 160.35 85.6 160.638 85.6H168.03C168.318 85.6 168.51 85.792 168.414 86.208C168.286 86.816 168.19 87.392 168.318 88.704L170.334 107.52C170.366 107.84 170.174 108 169.822 108H166.302C166.014 108 165.822 107.84 165.79 107.584L165.502 104.768C165.47 104.448 165.31 104.288 164.99 104.288H163.358C163.038 104.288 162.846 104.448 162.814 104.768L162.526 107.584C162.494 107.872 162.27 108 162.014 108H158.782ZM164.638 100C164.99 100 165.054 99.84 165.022 99.584C164.798 96.992 164.638 95.168 164.51 91.616C164.51 91.328 164.382 91.168 164.158 91.168C163.934 91.168 163.806 91.328 163.806 91.616C163.678 95.168 163.518 96.992 163.294 99.584C163.262 99.84 163.326 100 163.678 100H164.638ZM164.03 84.672C163.71 84.672 163.55 84.48 163.55 84.16C163.55 83.936 163.614 83.744 163.966 83.584L164.574 83.328C164.798 83.232 164.958 83.136 164.958 82.912C164.958 82.688 164.702 82.592 164.382 82.592C163.998 82.592 163.678 82.784 163.294 83.136C163.102 83.296 162.878 83.232 162.878 83.04V82.368C162.878 82.112 162.91 81.888 163.23 81.696C163.486 81.536 163.87 81.408 164.414 81.408C165.566 81.408 166.302 81.952 166.302 82.848C166.302 83.456 165.918 83.84 165.278 84.128C164.926 84.288 164.798 84.352 164.702 84.512C164.638 84.608 164.574 84.672 164.382 84.672H164.03ZM172.02 108C171.604 108 171.38 107.776 171.38 107.36V90.624C171.38 87.872 171.284 87.424 170.996 86.08C170.932 85.792 171.092 85.6 171.38 85.6H175.092C175.476 85.6 175.732 85.792 175.796 86.144L177.844 95.84C177.876 96.064 178.004 96.192 178.196 96.192C178.42 96.192 178.484 96.032 178.484 95.776C178.452 94.912 178.516 92.128 178.452 90.304C178.356 87.872 178.26 87.424 177.972 86.08C177.908 85.792 178.068 85.6 178.356 85.6H182.548C182.836 85.6 182.996 85.792 182.932 86.08C182.644 87.424 182.548 87.872 182.548 90.624V107.36C182.548 107.776 182.324 108 181.908 108H178.836C178.452 108 178.196 107.808 178.132 107.456L176.052 97.728C176.02 97.504 175.892 97.408 175.732 97.408C175.54 97.408 175.412 97.536 175.412 97.792C175.508 99.936 175.604 104.384 175.604 107.36C175.604 107.776 175.38 108 174.964 108H172.02ZM190.206 108.32C185.726 108.32 183.838 104.512 183.838 96.8C183.838 88.736 186.27 85.28 190.462 85.28C191.678 85.28 192.958 85.472 193.662 86.208C194.046 86.592 194.206 87.072 194.206 87.744V90.656C194.206 91.072 194.11 91.424 193.726 91.424C193.502 91.424 193.31 91.328 192.894 90.848C192.542 90.432 192.094 89.952 191.326 89.952C189.534 89.952 188.67 92.064 188.67 96.864C188.67 98.176 188.734 103.968 190.11 103.968C190.398 103.968 190.526 103.68 190.526 103.232V100.416C190.526 97.664 190.43 97.216 190.142 95.872C190.078 95.584 190.238 95.392 190.526 95.392H193.982C194.398 95.392 194.654 95.616 194.654 96.032V103.072C194.654 106.976 192.574 108.32 190.206 108.32ZM202.983 108C202.567 108 202.343 107.776 202.343 107.36V94.08C202.343 93.856 202.343 93.696 202.215 93.696C202.151 93.696 202.087 93.728 201.959 93.92L201.287 94.848C200.359 96.16 200.135 96.352 199.879 96.352C199.655 96.352 199.527 96.16 199.527 95.808V91.616C199.527 90.976 199.591 90.72 199.975 90.272C201.031 89.056 201.767 87.808 202.471 86.304C202.727 85.76 202.855 85.6 203.239 85.6H205.959C206.375 85.6 206.599 85.824 206.599 86.24V107.36C206.599 107.776 206.375 108 205.959 108H202.983ZM208.635 108C208.251 108 208.027 107.776 208.027 107.36V104.384C208.027 103.84 208.123 103.552 208.539 102.688L210.075 99.552C211.867 95.904 212.891 93.76 212.891 92.128C212.891 91.136 212.379 90.304 211.355 90.304C210.395 90.304 209.915 90.816 209.115 91.808C208.923 92.032 208.795 92.096 208.603 92.096C208.411 92.096 208.251 91.936 208.251 91.648V88.192C208.251 87.68 208.283 87.168 208.667 86.656C209.211 85.952 210.459 85.28 212.251 85.28C215.579 85.28 217.467 87.712 217.467 91.392C217.467 94.464 216.443 96.96 214.523 100.608L213.851 101.888C213.627 102.336 213.371 102.752 213.371 103.04C213.371 103.2 213.467 103.328 213.755 103.328H217.051C217.435 103.328 217.659 103.552 217.659 103.968V107.36C217.659 107.776 217.435 108 217.051 108H208.635ZM221.4 108.32C219.672 108.32 218.68 107.232 218.68 105.824C218.68 104.448 219.672 103.328 221.4 103.328C223.128 103.328 224.12 104.448 224.12 105.824C224.12 107.232 223.128 108.32 221.4 108.32ZM229.245 108.32C227.549 108.32 226.621 107.84 226.237 107.584C225.565 107.168 225.309 106.624 225.309 105.92V102.592C225.309 102.368 225.437 102.208 225.629 102.208C225.757 102.208 225.885 102.24 226.109 102.464C226.621 102.976 227.325 103.776 228.541 103.776C230.077 103.776 230.781 102.528 230.781 100.64C230.781 98.656 229.981 97.216 228.093 97.216C227.165 97.216 226.717 97.504 226.173 97.504C225.917 97.504 225.789 97.344 225.789 97.024L225.917 86.24C225.917 85.824 226.173 85.6 226.525 85.6H234.269C234.461 85.6 234.589 85.728 234.589 85.92V89.76C234.589 89.952 234.461 90.08 234.269 90.08H230.365C229.885 90.08 229.725 90.24 229.725 90.72V92.896C229.725 93.408 229.853 93.536 230.365 93.536C233.661 93.536 235.325 96.32 235.325 100.512C235.325 105.28 233.181 108.32 229.245 108.32ZM240.531 108.32C238.643 108.32 237.523 107.776 237.139 107.488C236.467 106.976 236.371 106.56 236.371 105.696V102.528C236.371 102.176 236.531 102.016 236.723 102.016C236.915 102.016 237.043 102.144 237.203 102.304C238.195 103.392 238.803 104.032 239.827 104.032C240.979 104.032 241.619 103.008 241.619 101.28C241.619 99.872 241.043 98.464 239.699 98.464C238.963 98.464 238.611 98.688 238.323 98.688C238.163 98.688 237.971 98.56 237.971 98.272V94.944C237.971 94.624 238.163 94.464 238.323 94.464C238.547 94.464 239.219 94.656 239.731 94.656C240.883 94.656 241.523 93.6 241.523 92C241.523 90.528 240.883 89.472 239.731 89.472C238.835 89.472 238.323 90.016 237.363 91.008C237.139 91.232 237.043 91.36 236.819 91.36C236.563 91.36 236.467 91.136 236.467 90.848V88.288C236.467 87.52 236.659 87.008 236.915 86.656C237.523 85.856 238.963 85.28 240.627 85.28C244.275 85.28 245.875 88 245.875 91.104C245.875 93.44 244.979 95.008 243.827 95.872C243.635 96.032 243.539 96.128 243.539 96.256C243.539 96.384 243.635 96.448 243.859 96.608C245.203 97.568 246.227 99.168 246.227 101.664C246.227 105.216 244.435 108.32 240.531 108.32ZM251.406 108.32C249.518 108.32 248.398 107.776 248.014 107.488C247.342 106.976 247.246 106.56 247.246 105.696V102.528C247.246 102.176 247.406 102.016 247.598 102.016C247.79 102.016 247.918 102.144 248.078 102.304C249.07 103.392 249.678 104.032 250.702 104.032C251.854 104.032 252.494 103.008 252.494 101.28C252.494 99.872 251.918 98.464 250.574 98.464C249.838 98.464 249.486 98.688 249.198 98.688C249.038 98.688 248.846 98.56 248.846 98.272V94.944C248.846 94.624 249.038 94.464 249.198 94.464C249.422 94.464 250.094 94.656 250.606 94.656C251.758 94.656 252.398 93.6 252.398 92C252.398 90.528 251.758 89.472 250.606 89.472C249.71 89.472 249.198 90.016 248.238 91.008C248.014 91.232 247.918 91.36 247.694 91.36C247.438 91.36 247.342 91.136 247.342 90.848V88.288C247.342 87.52 247.534 87.008 247.79 86.656C248.398 85.856 249.838 85.28 251.502 85.28C255.15 85.28 256.75 88 256.75 91.104C256.75 93.44 255.854 95.008 254.702 95.872C254.51 96.032 254.414 96.128 254.414 96.256C254.414 96.384 254.51 96.448 254.734 96.608C256.078 97.568 257.102 99.168 257.102 101.664C257.102 105.216 255.31 108.32 251.406 108.32ZM265.58 108C265.164 108 264.94 107.776 264.94 107.36V90.24C264.94 89.952 264.812 89.696 264.332 89.696C263.82 89.696 263.5 89.952 262.636 90.656C262.188 91.008 261.772 91.136 261.772 90.592V86.24C261.772 85.824 261.996 85.6 262.412 85.6H272.108C272.524 85.6 272.748 85.824 272.748 86.24V90.592C272.748 91.136 272.332 91.008 271.884 90.656C271.02 89.952 270.7 89.696 270.188 89.696C269.708 89.696 269.58 89.952 269.58 90.24V107.36C269.58 107.776 269.356 108 268.94 108H265.58ZM272.751 108C272.399 108 272.207 107.84 272.239 107.52L274.255 88.704C274.383 87.488 274.319 86.88 274.191 86.208C274.127 85.792 274.319 85.6 274.607 85.6H281.999C282.287 85.6 282.479 85.792 282.383 86.208C282.255 86.816 282.159 87.392 282.287 88.704L284.303 107.52C284.335 107.84 284.143 108 283.791 108H280.271C279.983 108 279.791 107.84 279.759 107.584L279.471 104.768C279.439 104.448 279.279 104.288 278.959 104.288H277.327C277.007 104.288 276.815 104.448 276.783 104.768L276.495 107.584C276.463 107.872 276.239 108 275.983 108H272.751ZM278.607 100C278.959 100 279.023 99.84 278.991 99.584C278.767 96.992 278.607 95.168 278.479 91.616C278.479 91.328 278.351 91.168 278.127 91.168C277.903 91.168 277.775 91.328 277.775 91.616C277.647 95.168 277.487 96.992 277.263 99.584C277.231 99.84 277.295 100 277.647 100H278.607ZM275.663 84.704C275.375 84.704 275.311 84.544 275.311 84.352V83.808C275.311 83.648 275.375 83.52 275.599 83.488C276.559 83.328 277.167 83.04 277.839 82.496C277.999 82.368 278.127 82.272 278.287 82.272C278.447 82.272 278.575 82.368 278.735 82.496C279.407 83.04 280.015 83.328 280.975 83.488C281.199 83.52 281.263 83.648 281.263 83.808V84.352C281.263 84.544 281.199 84.704 280.911 84.704C279.951 84.704 278.831 84.192 278.287 83.616C277.743 84.192 276.623 84.704 275.663 84.704ZM276.047 81.792C275.759 81.792 275.663 81.696 275.663 81.44V80.992C275.663 80.832 275.759 80.736 275.919 80.736C277.295 80.704 279.055 80.448 280.751 79.84C281.007 79.744 281.135 79.872 281.135 80.032V80.576C281.135 80.864 281.039 80.992 280.719 81.12C279.055 81.728 276.943 81.792 276.047 81.792ZM285.988 108C285.572 108 285.348 107.776 285.348 107.36V90.624C285.348 87.872 285.252 87.424 284.964 86.08C284.9 85.792 285.06 85.6 285.348 85.6H289.06C289.444 85.6 289.7 85.792 289.764 86.144L291.812 95.84C291.844 96.064 291.972 96.192 292.164 96.192C292.388 96.192 292.452 96.032 292.452 95.776C292.42 94.912 292.484 92.128 292.42 90.304C292.324 87.872 292.228 87.424 291.94 86.08C291.876 85.792 292.036 85.6 292.324 85.6H296.516C296.804 85.6 296.964 85.792 296.9 86.08C296.612 87.424 296.516 87.872 296.516 90.624V107.36C296.516 107.776 296.292 108 295.876 108H292.804C292.42 108 292.164 107.808 292.1 107.456L290.02 97.728C289.988 97.504 289.86 97.408 289.7 97.408C289.508 97.408 289.38 97.536 289.38 97.792C289.476 99.936 289.572 104.384 289.572 107.36C289.572 107.776 289.348 108 288.932 108H285.988ZM308.177 108.32C304.113 108.32 301.713 104.832 301.713 96.8C301.713 88.768 304.113 85.28 308.177 85.28C309.201 85.28 310.257 85.536 310.993 86.112C311.633 86.624 311.761 87.264 311.761 88.032V90.688C311.761 91.168 311.569 91.392 311.281 91.392C310.929 91.392 310.705 91.104 310.417 90.752C310.097 90.368 309.681 89.952 308.977 89.952C307.377 89.952 306.577 91.968 306.577 96.8C306.577 101.632 307.377 103.648 308.977 103.648C309.681 103.648 310.097 103.232 310.417 102.848C310.705 102.496 310.897 102.208 311.249 102.208C311.537 102.208 311.761 102.432 311.761 102.912V105.568C311.761 106.336 311.633 106.976 310.993 107.488C310.257 108.064 309.201 108.32 308.177 108.32ZM318.609 108.32C314.801 108.32 312.401 105.472 312.401 96.8C312.401 88.128 314.801 85.28 318.609 85.28C322.417 85.28 324.849 88.128 324.849 96.8C324.849 105.472 322.417 108.32 318.609 108.32ZM318.609 103.84C319.345 103.84 319.953 103.008 319.953 96.8C319.953 90.56 319.345 89.76 318.609 89.76C317.873 89.76 317.297 90.56 317.297 96.8C317.297 103.008 317.873 103.84 318.609 103.84ZM326.833 110.464C326.545 110.464 326.353 110.272 326.353 109.984V107.968C326.353 107.424 326.449 107.104 326.929 106.528L328.593 104.48C329.137 103.808 329.297 103.456 329.297 103.008C329.297 102.624 329.041 102.368 328.561 102.368C328.145 102.368 327.729 102.56 327.185 103.104C326.993 103.296 326.897 103.36 326.769 103.36C326.641 103.36 326.545 103.264 326.545 103.104V100.768C326.545 100.16 326.609 99.968 326.833 99.648C327.121 99.264 328.017 98.784 329.233 98.784C331.377 98.784 332.625 100.032 332.625 102.336C332.625 103.84 332.081 105.024 331.441 105.76L330.705 106.624C330.577 106.752 330.513 106.912 330.513 106.976C330.513 107.072 330.577 107.2 330.769 107.2H332.433C332.721 107.2 332.913 107.36 332.913 107.68V109.984C332.913 110.272 332.721 110.464 332.433 110.464H326.833Z" fill="white"/>
<path d="M169.72 131.96C169.667 131.96 169.619 131.944 169.576 131.912C169.544 131.891 169.501 131.837 169.448 131.752C168.968 130.963 168.584 130.019 168.296 128.92C168.008 127.811 167.864 126.685 167.864 125.544C167.864 124.392 168.008 123.267 168.296 122.168C168.584 121.059 168.968 120.109 169.448 119.32C169.501 119.235 169.544 119.181 169.576 119.16C169.619 119.128 169.667 119.112 169.72 119.112H170.84C170.893 119.112 170.925 119.128 170.936 119.16C170.957 119.192 170.952 119.229 170.92 119.272C170.408 120.125 170.008 121.101 169.72 122.2C169.432 123.288 169.288 124.403 169.288 125.544C169.288 126.664 169.432 127.773 169.72 128.872C170.019 129.971 170.419 130.947 170.92 131.8L170.952 131.88C170.952 131.933 170.915 131.96 170.84 131.96H169.72ZM174.949 131.16C174.021 131.16 173.216 131 172.533 130.68C171.85 130.349 171.509 129.848 171.509 129.176V127.816C171.509 127.699 171.546 127.64 171.621 127.64C171.664 127.64 171.706 127.677 171.749 127.752C172.09 128.339 172.528 128.797 173.061 129.128C173.594 129.448 174.261 129.608 175.061 129.608C175.797 129.608 176.362 129.459 176.757 129.16C177.162 128.851 177.365 128.424 177.365 127.88C177.365 127.411 177.232 127.059 176.965 126.824C176.709 126.579 176.272 126.413 175.653 126.328L174.389 126.152C173.461 126.024 172.757 125.709 172.277 125.208C171.808 124.696 171.573 124.013 171.573 123.16C171.573 122.147 171.93 121.347 172.645 120.76C173.36 120.173 174.336 119.88 175.573 119.88C176.416 119.88 177.152 120.035 177.781 120.344C178.41 120.643 178.725 121.096 178.725 121.704V123.176C178.725 123.229 178.714 123.277 178.693 123.32C178.672 123.352 178.645 123.368 178.613 123.368C178.56 123.368 178.506 123.325 178.453 123.24C178.08 122.632 177.658 122.179 177.189 121.88C176.72 121.581 176.165 121.432 175.525 121.432C174.832 121.432 174.288 121.571 173.893 121.848C173.509 122.125 173.317 122.525 173.317 123.048C173.317 123.464 173.434 123.8 173.669 124.056C173.914 124.301 174.266 124.456 174.725 124.52L176.357 124.744C177.253 124.872 177.936 125.192 178.405 125.704C178.874 126.205 179.109 126.867 179.109 127.688C179.109 128.776 178.736 129.629 177.989 130.248C177.253 130.856 176.24 131.16 174.949 131.16ZM184.284 131.16C183.388 131.16 182.599 130.979 181.916 130.616C181.234 130.243 180.7 129.715 180.316 129.032C179.943 128.339 179.756 127.528 179.756 126.6C179.756 125.672 179.943 124.867 180.316 124.184C180.7 123.491 181.234 122.963 181.916 122.6C182.599 122.227 183.388 122.04 184.284 122.04C184.956 122.04 185.5 122.131 185.916 122.312C186.343 122.493 186.556 122.733 186.556 123.032V124.472C186.556 124.568 186.524 124.616 186.46 124.616C186.407 124.616 186.348 124.579 186.284 124.504C185.815 123.939 185.154 123.656 184.3 123.656C183.436 123.656 182.759 123.923 182.268 124.456C181.778 124.979 181.532 125.693 181.532 126.6C181.532 127.507 181.778 128.227 182.268 128.76C182.77 129.283 183.452 129.544 184.316 129.544C185.138 129.544 185.794 129.336 186.284 128.92C186.37 128.856 186.434 128.824 186.476 128.824C186.53 128.824 186.556 128.872 186.556 128.968V130.104C186.556 130.403 186.343 130.653 185.916 130.856C185.5 131.059 184.956 131.16 184.284 131.16ZM191.327 131.16C190.463 131.16 189.7 130.973 189.039 130.6C188.388 130.216 187.882 129.683 187.519 129C187.156 128.307 186.975 127.507 186.975 126.6C186.975 125.693 187.156 124.899 187.519 124.216C187.882 123.523 188.388 122.989 189.039 122.616C189.7 122.232 190.463 122.04 191.327 122.04C192.191 122.04 192.948 122.232 193.599 122.616C194.26 122.989 194.767 123.523 195.119 124.216C195.482 124.899 195.663 125.693 195.663 126.6C195.663 127.507 195.482 128.307 195.119 129C194.767 129.683 194.26 130.216 193.599 130.6C192.948 130.973 192.191 131.16 191.327 131.16ZM191.327 129.56C192.106 129.56 192.724 129.293 193.183 128.76C193.652 128.216 193.887 127.496 193.887 126.6C193.887 125.704 193.652 124.989 193.183 124.456C192.724 123.912 192.106 123.64 191.327 123.64C190.548 123.64 189.924 123.912 189.455 124.456C188.986 124.989 188.751 125.704 188.751 126.6C188.751 127.496 188.986 128.216 189.455 128.76C189.924 129.293 190.548 129.56 191.327 129.56ZM196.69 132.76C196.647 132.76 196.61 132.744 196.578 132.712C196.546 132.68 196.53 132.643 196.53 132.6V124.312C196.53 123.789 196.508 123.411 196.465 123.176C196.434 122.941 196.364 122.68 196.258 122.392C196.247 122.371 196.242 122.344 196.242 122.312C196.242 122.237 196.284 122.2 196.37 122.2H198.098C198.151 122.2 198.194 122.216 198.226 122.248C198.258 122.28 198.274 122.317 198.274 122.36V123.384C198.274 123.448 198.295 123.485 198.338 123.496C198.391 123.507 198.434 123.485 198.466 123.432C198.679 123.069 199.015 122.749 199.474 122.472C199.932 122.184 200.519 122.04 201.234 122.04C202.002 122.04 202.674 122.232 203.25 122.616C203.836 122.989 204.284 123.523 204.594 124.216C204.914 124.899 205.074 125.693 205.074 126.6C205.074 127.507 204.914 128.307 204.594 129C204.284 129.683 203.836 130.216 203.25 130.6C202.674 130.973 202.002 131.16 201.234 131.16C200.519 131.16 199.927 131.021 199.458 130.744C198.999 130.456 198.668 130.131 198.466 129.768C198.434 129.725 198.402 129.704 198.37 129.704C198.306 129.704 198.274 129.741 198.274 129.816V132.6C198.274 132.643 198.258 132.68 198.226 132.712C198.194 132.744 198.151 132.76 198.098 132.76H196.69ZM200.77 129.656C201.527 129.656 202.13 129.379 202.578 128.824C203.036 128.269 203.266 127.528 203.266 126.6C203.266 125.672 203.036 124.931 202.578 124.376C202.13 123.821 201.527 123.544 200.77 123.544C199.991 123.544 199.367 123.821 198.898 124.376C198.428 124.931 198.194 125.672 198.194 126.6C198.194 127.528 198.428 128.269 198.898 128.824C199.367 129.379 199.991 129.656 200.77 129.656ZM210.332 131.16C209.436 131.16 208.641 130.989 207.948 130.648C207.265 130.296 206.732 129.779 206.348 129.096C205.964 128.403 205.772 127.56 205.772 126.568C205.772 125.619 205.953 124.803 206.316 124.12C206.679 123.437 207.175 122.92 207.804 122.568C208.433 122.216 209.143 122.04 209.932 122.04C211.052 122.04 211.948 122.365 212.62 123.016C213.303 123.656 213.644 124.557 213.644 125.72C213.644 126.157 213.612 126.488 213.548 126.712C213.484 126.925 213.372 127.069 213.212 127.144C213.063 127.219 212.839 127.256 212.54 127.256H207.82C207.671 127.256 207.601 127.32 207.612 127.448C207.697 128.099 207.991 128.621 208.492 129.016C209.004 129.411 209.665 129.608 210.476 129.608C211.436 129.608 212.289 129.256 213.036 128.552C213.079 128.509 213.127 128.488 213.18 128.488C213.255 128.488 213.292 128.536 213.292 128.632V129.8C213.292 129.939 213.26 130.067 213.196 130.184C213.132 130.291 213.02 130.403 212.86 130.52C212.615 130.691 212.273 130.84 211.836 130.968C211.409 131.096 210.908 131.16 210.332 131.16ZM211.692 125.896C211.863 125.896 211.953 125.811 211.964 125.64L211.98 125.416C211.98 124.883 211.799 124.435 211.436 124.072C211.073 123.709 210.567 123.528 209.916 123.528C209.169 123.528 208.609 123.741 208.236 124.168C207.863 124.584 207.66 125.075 207.628 125.64V125.672C207.628 125.736 207.655 125.789 207.708 125.832C207.772 125.875 207.841 125.896 207.916 125.896H211.692ZM219.748 131C219.641 131 219.588 130.947 219.588 130.84V122.968C219.588 122.883 219.561 122.84 219.508 122.84C219.465 122.84 219.423 122.861 219.38 122.904C218.964 123.363 218.537 123.688 218.1 123.88C217.673 124.061 217.3 124.152 216.98 124.152C216.863 124.152 216.804 124.093 216.804 123.976V122.792C216.804 122.685 216.852 122.627 216.948 122.616C217.577 122.445 218.132 122.152 218.612 121.736C219.103 121.32 219.471 120.797 219.716 120.168C219.748 120.083 219.812 120.04 219.908 120.04H221.188C221.295 120.04 221.348 120.093 221.348 120.2V130.84C221.348 130.947 221.295 131 221.188 131H219.748ZM223.148 132.568C222.935 132.568 222.769 132.531 222.652 132.456C222.535 132.392 222.476 132.296 222.476 132.168V131.704C222.476 131.661 222.487 131.635 222.508 131.624C222.54 131.613 222.577 131.624 222.62 131.656C222.759 131.763 222.945 131.816 223.18 131.816C223.415 131.816 223.591 131.757 223.708 131.64C223.825 131.523 223.884 131.384 223.884 131.224C223.884 131.139 223.836 131.096 223.74 131.096H223.5C223.18 131.096 222.929 131.016 222.748 130.856C222.577 130.685 222.492 130.461 222.492 130.184C222.492 129.896 222.588 129.661 222.78 129.48C222.972 129.288 223.233 129.192 223.564 129.192C223.927 129.192 224.209 129.325 224.412 129.592C224.625 129.848 224.732 130.205 224.732 130.664C224.732 131.272 224.593 131.741 224.316 132.072C224.049 132.403 223.66 132.568 223.148 132.568ZM231.48 131.16C230.552 131.16 229.747 131 229.064 130.68C228.382 130.349 228.04 129.848 228.04 129.176V127.816C228.04 127.699 228.078 127.64 228.152 127.64C228.195 127.64 228.238 127.677 228.28 127.752C228.622 128.339 229.059 128.797 229.592 129.128C230.126 129.448 230.792 129.608 231.592 129.608C232.328 129.608 232.894 129.459 233.288 129.16C233.694 128.851 233.896 128.424 233.896 127.88C233.896 127.411 233.763 127.059 233.496 126.824C233.24 126.579 232.803 126.413 232.184 126.328L230.92 126.152C229.992 126.024 229.288 125.709 228.808 125.208C228.339 124.696 228.104 124.013 228.104 123.16C228.104 122.147 228.462 121.347 229.176 120.76C229.891 120.173 230.867 119.88 232.104 119.88C232.947 119.88 233.683 120.035 234.312 120.344C234.942 120.643 235.256 121.096 235.256 121.704V123.176C235.256 123.229 235.246 123.277 235.224 123.32C235.203 123.352 235.176 123.368 235.144 123.368C235.091 123.368 235.038 123.325 234.984 123.24C234.611 122.632 234.19 122.179 233.72 121.88C233.251 121.581 232.696 121.432 232.056 121.432C231.363 121.432 230.819 121.571 230.424 121.848C230.04 122.125 229.848 122.525 229.848 123.048C229.848 123.464 229.966 123.8 230.2 124.056C230.446 124.301 230.798 124.456 231.256 124.52L232.888 124.744C233.784 124.872 234.467 125.192 234.936 125.704C235.406 126.205 235.64 126.867 235.64 127.688C235.64 128.776 235.267 129.629 234.52 130.248C233.784 130.856 232.771 131.16 231.48 131.16ZM240.816 131.16C239.92 131.16 239.13 130.979 238.448 130.616C237.765 130.243 237.232 129.715 236.848 129.032C236.474 128.339 236.288 127.528 236.288 126.6C236.288 125.672 236.474 124.867 236.848 124.184C237.232 123.491 237.765 122.963 238.448 122.6C239.13 122.227 239.92 122.04 240.816 122.04C241.488 122.04 242.032 122.131 242.448 122.312C242.874 122.493 243.088 122.733 243.088 123.032V124.472C243.088 124.568 243.056 124.616 242.992 124.616C242.938 124.616 242.88 124.579 242.816 124.504C242.346 123.939 241.685 123.656 240.832 123.656C239.968 123.656 239.29 123.923 238.8 124.456C238.309 124.979 238.064 125.693 238.064 126.6C238.064 127.507 238.309 128.227 238.8 128.76C239.301 129.283 239.984 129.544 240.848 129.544C241.669 129.544 242.325 129.336 242.816 128.92C242.901 128.856 242.965 128.824 243.008 128.824C243.061 128.824 243.088 128.872 243.088 128.968V130.104C243.088 130.403 242.874 130.653 242.448 130.856C242.032 131.059 241.488 131.16 240.816 131.16ZM247.858 131.16C246.994 131.16 246.232 130.973 245.57 130.6C244.92 130.216 244.413 129.683 244.05 129C243.688 128.307 243.506 127.507 243.506 126.6C243.506 125.693 243.688 124.899 244.05 124.216C244.413 123.523 244.92 122.989 245.57 122.616C246.232 122.232 246.994 122.04 247.858 122.04C248.722 122.04 249.48 122.232 250.13 122.616C250.792 122.989 251.298 123.523 251.65 124.216C252.013 124.899 252.194 125.693 252.194 126.6C252.194 127.507 252.013 128.307 251.65 129C251.298 129.683 250.792 130.216 250.13 130.6C249.48 130.973 248.722 131.16 247.858 131.16ZM247.858 129.56C248.637 129.56 249.256 129.293 249.714 128.76C250.184 128.216 250.418 127.496 250.418 126.6C250.418 125.704 250.184 124.989 249.714 124.456C249.256 123.912 248.637 123.64 247.858 123.64C247.08 123.64 246.456 123.912 245.986 124.456C245.517 124.989 245.282 125.704 245.282 126.6C245.282 127.496 245.517 128.216 245.986 128.76C246.456 129.293 247.08 129.56 247.858 129.56ZM253.221 132.76C253.178 132.76 253.141 132.744 253.109 132.712C253.077 132.68 253.061 132.643 253.061 132.6V124.312C253.061 123.789 253.039 123.411 252.997 123.176C252.965 122.941 252.895 122.68 252.789 122.392C252.778 122.371 252.773 122.344 252.773 122.312C252.773 122.237 252.815 122.2 252.901 122.2H254.629C254.682 122.2 254.725 122.216 254.757 122.248C254.789 122.28 254.805 122.317 254.805 122.36V123.384C254.805 123.448 254.826 123.485 254.869 123.496C254.922 123.507 254.965 123.485 254.997 123.432C255.21 123.069 255.546 122.749 256.005 122.472C256.463 122.184 257.05 122.04 257.765 122.04C258.533 122.04 259.205 122.232 259.781 122.616C260.367 122.989 260.815 123.523 261.125 124.216C261.445 124.899 261.605 125.693 261.605 126.6C261.605 127.507 261.445 128.307 261.125 129C260.815 129.683 260.367 130.216 259.781 130.6C259.205 130.973 258.533 131.16 257.765 131.16C257.05 131.16 256.458 131.021 255.989 130.744C255.53 130.456 255.199 130.131 254.997 129.768C254.965 129.725 254.933 129.704 254.901 129.704C254.837 129.704 254.805 129.741 254.805 129.816V132.6C254.805 132.643 254.789 132.68 254.757 132.712C254.725 132.744 254.682 132.76 254.629 132.76H253.221ZM257.301 129.656C258.058 129.656 258.661 129.379 259.109 128.824C259.567 128.269 259.797 127.528 259.797 126.6C259.797 125.672 259.567 124.931 259.109 124.376C258.661 123.821 258.058 123.544 257.301 123.544C256.522 123.544 255.898 123.821 255.429 124.376C254.959 124.931 254.725 125.672 254.725 126.6C254.725 127.528 254.959 128.269 255.429 128.824C255.898 129.379 256.522 129.656 257.301 129.656ZM266.863 131.16C265.967 131.16 265.173 130.989 264.479 130.648C263.797 130.296 263.263 129.779 262.879 129.096C262.495 128.403 262.303 127.56 262.303 126.568C262.303 125.619 262.485 124.803 262.847 124.12C263.21 123.437 263.706 122.92 264.335 122.568C264.965 122.216 265.674 122.04 266.463 122.04C267.583 122.04 268.479 122.365 269.151 123.016C269.834 123.656 270.175 124.557 270.175 125.72C270.175 126.157 270.143 126.488 270.079 126.712C270.015 126.925 269.903 127.069 269.743 127.144C269.594 127.219 269.37 127.256 269.071 127.256H264.351C264.202 127.256 264.133 127.32 264.143 127.448C264.229 128.099 264.522 128.621 265.023 129.016C265.535 129.411 266.197 129.608 267.007 129.608C267.967 129.608 268.821 129.256 269.567 128.552C269.61 128.509 269.658 128.488 269.711 128.488C269.786 128.488 269.823 128.536 269.823 128.632V129.8C269.823 129.939 269.791 130.067 269.727 130.184C269.663 130.291 269.551 130.403 269.391 130.52C269.146 130.691 268.805 130.84 268.367 130.968C267.941 131.096 267.439 131.16 266.863 131.16ZM268.223 125.896C268.394 125.896 268.485 125.811 268.495 125.64L268.511 125.416C268.511 124.883 268.33 124.435 267.967 124.072C267.605 123.709 267.098 123.528 266.447 123.528C265.701 123.528 265.141 123.741 264.767 124.168C264.394 124.584 264.191 125.075 264.159 125.64V125.672C264.159 125.736 264.186 125.789 264.239 125.832C264.303 125.875 264.373 125.896 264.447 125.896H268.223ZM273.735 131C273.629 131 273.575 130.947 273.575 130.84V129.88C273.575 129.773 273.613 129.683 273.687 129.608L276.071 127.16C276.978 126.232 277.618 125.485 277.991 124.92C278.375 124.355 278.567 123.789 278.567 123.224C278.567 122.669 278.407 122.243 278.087 121.944C277.778 121.635 277.319 121.48 276.711 121.48C276.082 121.48 275.549 121.645 275.111 121.976C274.674 122.307 274.237 122.819 273.799 123.512C273.757 123.587 273.709 123.624 273.655 123.624C273.581 123.624 273.543 123.565 273.543 123.448V122.008C273.543 121.805 273.559 121.64 273.591 121.512C273.634 121.384 273.703 121.256 273.799 121.128C274.066 120.776 274.455 120.483 274.967 120.248C275.49 120.003 276.066 119.88 276.695 119.88C277.421 119.88 278.061 120.019 278.615 120.296C279.17 120.563 279.597 120.941 279.895 121.432C280.205 121.912 280.359 122.461 280.359 123.08C280.359 123.795 280.151 124.488 279.735 125.16C279.319 125.821 278.679 126.605 277.815 127.512L276.263 129.16C276.221 129.203 276.199 129.245 276.199 129.288C276.199 129.363 276.258 129.4 276.375 129.4H280.471C280.578 129.4 280.631 129.453 280.631 129.56V130.84C280.631 130.947 280.578 131 280.471 131H273.735ZM281.194 131.96C281.141 131.96 281.104 131.944 281.082 131.912C281.072 131.88 281.082 131.843 281.114 131.8C281.616 130.947 282.01 129.971 282.298 128.872C282.597 127.773 282.746 126.664 282.746 125.544C282.746 124.403 282.602 123.288 282.314 122.2C282.026 121.101 281.626 120.125 281.114 119.272L281.082 119.192C281.082 119.139 281.12 119.112 281.194 119.112H282.314C282.368 119.112 282.41 119.128 282.442 119.16C282.485 119.181 282.533 119.235 282.586 119.32C283.066 120.109 283.45 121.059 283.738 122.168C284.026 123.267 284.17 124.392 284.17 125.544C284.17 126.685 284.026 127.811 283.738 128.92C283.45 130.019 283.066 130.963 282.586 131.752C282.533 131.837 282.485 131.891 282.442 131.912C282.41 131.944 282.368 131.96 282.314 131.96H281.194Z" fill="white"/>
</svg>
