<svg width="1440" height="774" viewBox="0 0 1440 774" fill="none" xmlns="http://www.w3.org/2000/svg">
<g clip-path="url(#clip0_316_18782)">
<path d="M1085 61H1045V101H1085V61Z" fill="#F36E24"/>
<path d="M1075.26 87.3178L1070.49 84.5622V79.0509C1070.49 78.9357 1070.42 78.83 1070.33 78.7724L1065.39 75.9208C1065.29 75.8632 1065.17 75.8632 1065.07 75.9208L1060.12 78.7724C1060.03 78.83 1059.96 78.9357 1059.96 79.0509V84.5622L1055.18 87.3178C1055.08 87.3754 1055.01 87.481 1055.01 87.5962V93.2995C1055.01 93.4148 1055.07 93.5204 1055.18 93.5876L1060.11 96.4393C1060.16 96.4681 1060.22 96.4777 1060.28 96.4777C1060.33 96.4777 1060.39 96.4681 1060.44 96.4393L1065.22 93.6836L1069.99 96.4393C1070.04 96.4681 1070.1 96.4777 1070.16 96.4777C1070.21 96.4777 1070.27 96.4681 1070.32 96.4393L1075.25 93.5876C1075.35 93.53 1075.42 93.4244 1075.42 93.2995V87.5962C1075.42 87.481 1075.35 87.3754 1075.25 87.3178M1064.89 92.7427L1060.94 90.4575L1064.89 88.1723V92.7427ZM1069.51 84.7542L1065.56 87.0394V82.469L1069.51 84.7542ZM1064.89 87.0394L1060.94 84.7542L1064.89 82.469V87.0394ZM1065.87 87.5962L1070.16 85.119L1074.45 87.5962L1070.16 90.0734L1065.87 87.5962ZM1069.84 84.1877L1065.87 81.9025L1069.84 79.6174V84.1973V84.1877ZM1064.57 81.9025L1060.6 84.1877V79.6078L1064.57 81.8929V81.9025ZM1059.96 95.5943L1055.67 93.1171V88.1627L1059.96 90.6399V95.5943ZM1060.61 95.5943V91.024L1064.58 93.3092L1060.61 95.5943ZM1074.77 93.1171L1070.48 95.5943V90.6399L1074.77 88.1627V93.1171Z" fill="white"/>
<path d="M1052.27 66.3097C1052.27 65.0519 1051.72 64.1493 1050.28 64.1493C1048.84 64.1493 1048.27 64.9366 1048.27 66.1944V67.385C1048.27 68.7101 1048.8 69.3822 1049.78 69.3822C1050.36 69.3822 1050.7 69.1229 1050.9 68.7293H1050.91V70.4767C1050.91 70.9664 1050.72 71.3121 1050.23 71.3121C1049.74 71.3121 1049.56 71.024 1049.56 70.5247V69.9871H1048.32V70.4191C1048.32 71.6097 1048.75 72.4451 1050.26 72.4451C1051.77 72.4451 1052.27 71.5233 1052.27 70.2559V66.3193V66.3097ZM1050.91 67.5579C1050.89 68.0091 1050.7 68.2972 1050.27 68.2972C1049.8 68.2972 1049.63 68.0091 1049.63 67.4811V66.0696C1049.63 65.5607 1049.82 65.2535 1050.28 65.2535C1050.74 65.2535 1050.91 65.5607 1050.91 66.0696V67.5483V67.5579Z" fill="white"/>
<path d="M1055.16 64.2837H1054.59V67.6731H1055.16V64.2837Z" fill="white"/>
<path d="M1055.83 65.5415V67.6731H1055.35V64.2837H1055.91L1056.52 66.2232V64.2837H1057V67.6731H1056.5L1055.83 65.5415Z" fill="white"/>
<path d="M1058.88 65.1959V66.7609C1058.88 67.2794 1058.67 67.6731 1058.06 67.6731H1057.18V64.2837H1058.06C1058.67 64.2837 1058.88 64.6678 1058.88 65.1959ZM1057.98 67.2026C1058.21 67.2026 1058.31 67.0586 1058.31 66.8569V65.0806C1058.31 64.879 1058.22 64.7446 1057.98 64.7446H1057.74V67.2026H1057.98Z" fill="white"/>
<path d="M1060.71 64.2837V66.8473C1060.71 67.3754 1060.49 67.7115 1059.9 67.7115C1059.32 67.7115 1059.06 67.3754 1059.06 66.8473V64.2837H1059.62V66.9049C1059.62 67.1066 1059.7 67.241 1059.9 67.241C1060.1 67.241 1060.18 67.1066 1060.18 66.9049V64.2837H1060.71Z" fill="white"/>
<path d="M1060.86 66.9434V66.4921H1061.39V66.953C1061.39 67.145 1061.48 67.2506 1061.67 67.2506C1061.85 67.2506 1061.93 67.1354 1061.93 66.953V66.8282C1061.93 66.6361 1061.85 66.5113 1061.67 66.3481L1061.33 66.012C1061.01 65.6952 1060.86 65.5031 1060.86 65.1095V64.9943C1060.86 64.5718 1061.11 64.2549 1061.66 64.2549C1062.21 64.2549 1062.46 64.5334 1062.46 65.0231V65.3015H1061.94V65.0039C1061.94 64.8118 1061.85 64.7158 1061.67 64.7158C1061.5 64.7158 1061.4 64.8022 1061.4 64.9943V65.0615C1061.4 65.2535 1061.5 65.3591 1061.67 65.5223L1062.03 65.8776C1062.34 66.1945 1062.49 66.3769 1062.49 66.7513V66.9146C1062.49 67.3754 1062.24 67.7115 1061.67 67.7115C1061.09 67.7115 1060.86 67.385 1060.86 66.9434Z" fill="white"/>
<path d="M1062.51 64.2837H1064.02V64.7446H1063.55V67.6731H1062.98V64.7446H1062.51V64.2837Z" fill="white"/>
<path d="M1064.71 66.1176V67.6731H1064.14V64.2837H1064.97C1065.55 64.2837 1065.76 64.5718 1065.76 65.0422V65.4743C1065.76 65.8392 1065.62 66.0504 1065.31 66.1272L1065.85 67.6635H1065.26L1064.72 66.108L1064.71 66.1176ZM1064.71 64.7446V65.8008H1064.9C1065.1 65.8008 1065.18 65.7047 1065.18 65.5223V65.023C1065.18 64.8406 1065.1 64.7446 1064.9 64.7446H1064.71Z" fill="white"/>
<path d="M1066.96 66.3769V67.6731H1066.38V66.3769L1065.75 64.2837H1066.34L1066.69 65.5703L1067.03 64.2837H1067.58L1066.96 66.3769Z" fill="white"/>
<path d="M1067.39 67.1258L1067.32 67.9323H1067.64L1067.93 67.1738V67.1258H1067.39Z" fill="white"/>
<path d="M1069.05 64.2837H1068.49V67.6731H1069.05V64.2837Z" fill="white"/>
<path d="M1069.72 65.5415V67.6731H1069.24V64.2837H1069.8L1070.42 66.2232V64.2837H1070.9V67.6731H1070.4L1069.72 65.5415Z" fill="white"/>
<path d="M1071.55 65.5415V67.6731H1071.07V64.2837H1071.63L1072.24 66.2232V64.2837H1072.72V67.6731H1072.22L1071.55 65.5415Z" fill="white"/>
<path d="M1072.89 66.7993V65.1575C1072.89 64.6294 1073.15 64.2453 1073.76 64.2453C1074.36 64.2453 1074.62 64.6294 1074.62 65.1575V66.7993C1074.62 67.3274 1074.36 67.7115 1073.76 67.7115C1073.15 67.7115 1072.89 67.3178 1072.89 66.7993ZM1074.05 66.8858V65.0711C1074.05 64.8694 1073.97 64.7254 1073.76 64.7254C1073.55 64.7254 1073.47 64.8694 1073.47 65.0711V66.8858C1073.47 67.0874 1073.56 67.2314 1073.76 67.2314C1073.96 67.2314 1074.05 67.0874 1074.05 66.8858Z" fill="white"/>
<path d="M1076.52 64.2837L1075.88 67.6731H1075.26L1074.61 64.2837H1075.2L1075.58 66.6457H1075.59L1075.99 64.2837H1076.52Z" fill="white"/>
<path d="M1076.22 67.6731L1076.87 64.2837H1077.52L1078.16 67.6731H1077.58L1077.47 67.049H1076.87L1076.77 67.6731H1076.23H1076.22ZM1076.94 66.5977H1077.39L1077.17 65.2343L1076.94 66.5977H1076.94Z" fill="white"/>
<path d="M1077.93 64.2837H1079.44V64.7446H1078.98V67.6731H1078.4V64.7446H1077.93V64.2837Z" fill="white"/>
<path d="M1080.13 64.2837H1079.57V67.6731H1080.13V64.2837Z" fill="white"/>
<path d="M1080.31 66.7993V65.1575C1080.31 64.6294 1080.57 64.2453 1081.18 64.2453C1081.78 64.2453 1082.04 64.6294 1082.04 65.1575V66.7993C1082.04 67.3274 1081.78 67.7115 1081.18 67.7115C1080.57 67.7115 1080.31 67.3178 1080.31 66.7993ZM1081.48 66.8858V65.0711C1081.48 64.8694 1081.39 64.7254 1081.18 64.7254C1080.97 64.7254 1080.89 64.8694 1080.89 65.0711V66.8858C1080.89 67.0874 1080.98 67.2314 1081.18 67.2314C1081.38 67.2314 1081.48 67.0874 1081.48 66.8858Z" fill="white"/>
<path d="M1082.7 65.5415V67.6731H1082.22V64.2837H1082.78L1083.4 66.2232V64.2837H1083.87V67.6731H1083.37L1082.7 65.5415Z" fill="white"/>
<path d="M1054.51 72.4162L1055.15 69.0269H1055.8L1056.45 72.4162H1055.86L1055.75 71.7921H1055.15L1055.05 72.4162H1054.52H1054.51ZM1055.22 71.3408H1055.67L1055.45 69.987L1055.23 71.3408H1055.22Z" fill="white"/>
<path d="M1057.01 70.2847V72.4162H1056.53V69.0269H1057.09L1057.7 70.9664V69.0269H1058.17V72.4162H1057.67L1057.01 70.2847Z" fill="white"/>
<path d="M1060.05 69.939V71.5041C1060.05 72.0225 1059.84 72.4162 1059.23 72.4162H1058.36V69.0269H1059.23C1059.84 69.0269 1060.05 69.4109 1060.05 69.939ZM1059.16 71.9457C1059.39 71.9457 1059.49 71.8017 1059.49 71.6001V69.8238C1059.49 69.6222 1059.4 69.4877 1059.16 69.4877H1058.92V71.9457H1059.16Z" fill="white"/>
<path d="M1061.51 69.0269H1060.95V72.4162H1061.51V69.0269Z" fill="white"/>
<path d="M1062.19 70.2847V72.4162H1061.71V69.0269H1062.26L1062.88 70.9664V69.0269H1063.35V72.4162H1062.85L1062.19 70.2847Z" fill="white"/>
<path d="M1063.53 69.0269H1064.87V69.4877H1064.1V70.4575H1064.67V70.9184H1064.1V72.4162H1063.53V69.0269Z" fill="white"/>
<path d="M1065.54 70.8607V72.4162H1064.97V69.0269H1065.8C1066.37 69.0269 1066.59 69.3149 1066.59 69.7854V70.2174C1066.59 70.5823 1066.45 70.7935 1066.13 70.8704L1066.68 72.4066H1066.09L1065.55 70.8511L1065.54 70.8607ZM1065.54 69.4877V70.5439H1065.73C1065.92 70.5439 1066.01 70.4479 1066.01 70.2655V69.7662C1066.01 69.5837 1065.92 69.4877 1065.73 69.4877H1065.54Z" fill="white"/>
<path d="M1066.66 72.4162L1067.31 69.0269H1067.96L1068.6 72.4162H1068.02L1067.91 71.7921H1067.31L1067.21 72.4162H1066.67H1066.66ZM1067.37 71.3408H1067.82L1067.6 69.987L1067.38 71.3408H1067.37Z" fill="white"/>
<path d="M1068.6 71.6865V71.2352H1069.13V71.6961C1069.13 71.8881 1069.22 71.9938 1069.41 71.9938C1069.59 71.9938 1069.67 71.8785 1069.67 71.6961V71.5617C1069.67 71.3697 1069.59 71.2448 1069.41 71.0816L1069.07 70.7456C1068.75 70.4287 1068.6 70.2367 1068.6 69.843V69.7278C1068.6 69.3053 1068.85 68.9789 1069.4 68.9789C1069.95 68.9789 1070.2 69.2573 1070.2 69.747V70.0254H1069.68V69.7278C1069.68 69.5358 1069.59 69.4398 1069.41 69.4398C1069.24 69.4398 1069.14 69.5262 1069.14 69.7182V69.7854C1069.14 69.9774 1069.24 70.0831 1069.41 70.2463L1069.77 70.6015C1070.08 70.9184 1070.23 71.1104 1070.23 71.4849V71.6481C1070.23 72.109 1069.98 72.445 1069.41 72.445C1068.83 72.445 1068.6 72.1186 1068.6 71.6769" fill="white"/>
<path d="M1070.25 69.0269H1071.76V69.4877H1071.29V72.4162H1070.71V69.4877H1070.25V69.0269Z" fill="white"/>
<path d="M1072.45 70.8607V72.4162H1071.88V69.0269H1072.71C1073.29 69.0269 1073.5 69.3149 1073.5 69.7854V70.2174C1073.5 70.5823 1073.36 70.7935 1073.05 70.8704L1073.59 72.4066H1073L1072.46 70.8511L1072.45 70.8607ZM1072.45 69.4877V70.5439H1072.64C1072.84 70.5439 1072.92 70.4479 1072.92 70.2655V69.7662C1072.92 69.5837 1072.84 69.4877 1072.64 69.4877H1072.45Z" fill="white"/>
<path d="M1075.31 69.0269V71.5905C1075.31 72.1186 1075.09 72.4546 1074.51 72.4546C1073.92 72.4546 1073.66 72.1186 1073.66 71.5905V69.0269H1074.23V71.6481C1074.23 71.8497 1074.3 71.9841 1074.51 71.9841C1074.71 71.9841 1074.78 71.8497 1074.78 71.6481V69.0269H1075.31Z" fill="white"/>
<path d="M1075.49 71.5425V69.9006C1075.49 69.3726 1075.74 68.9885 1076.34 68.9885C1076.97 68.9885 1077.15 69.3342 1077.15 69.843V70.2463H1076.63V69.8046C1076.63 69.5934 1076.56 69.4782 1076.35 69.4782C1076.14 69.4782 1076.06 69.6222 1076.06 69.8238V71.6385C1076.06 71.8402 1076.15 71.9842 1076.35 71.9842C1076.55 71.9842 1076.63 71.8498 1076.63 71.6577V71.0336H1077.15V71.6193C1077.15 72.0994 1076.94 72.4643 1076.34 72.4643C1075.73 72.4643 1075.49 72.0706 1075.49 71.5521" fill="white"/>
<path d="M1077.19 69.0269H1078.71V69.4877H1078.24V72.4162H1077.66V69.4877H1077.19V69.0269Z" fill="white"/>
<path d="M1080.48 69.0269V71.5905C1080.48 72.1186 1080.26 72.4546 1079.67 72.4546C1079.09 72.4546 1078.83 72.1186 1078.83 71.5905V69.0269H1079.39V71.6481C1079.39 71.8497 1079.47 71.9841 1079.67 71.9841C1079.87 71.9841 1079.95 71.8497 1079.95 71.6481V69.0269H1080.48Z" fill="white"/>
<path d="M1081.23 70.8607V72.4162H1080.66V69.0269H1081.49C1082.06 69.0269 1082.27 69.3149 1082.27 69.7854V70.2174C1082.27 70.5823 1082.14 70.7935 1081.82 70.8704L1082.37 72.4066H1081.77L1081.24 70.8511L1081.23 70.8607ZM1081.23 69.4877V70.5439H1081.42C1081.61 70.5439 1081.7 70.4479 1081.7 70.2655V69.7662C1081.7 69.5837 1081.61 69.4877 1081.42 69.4877H1081.23Z" fill="white"/>
<path d="M1082.44 69.0269H1083.8V69.4877H1083.01V70.4575H1083.57V70.9184H1083.01V71.9457H1083.8V72.4162H1082.44V69.0269Z" fill="white"/>
<path d="M1136 61H1096V101H1136V61Z" fill="#CD8B2A"/>
<path d="M1126.2 81.7585C1124.42 80.3567 1122.07 80.3279 1121.21 80.5295L1121.12 80.5487C1120.12 80.7792 1118.54 81.1728 1116.69 83.4676C1116.68 83.4772 1116.67 83.4964 1116.66 83.506L1116.64 83.5348C1116.64 83.5348 1116.61 83.5924 1116.61 83.6212C1116.61 83.65 1116.61 83.6692 1116.63 83.698L1116.67 83.7652C1116.9 84.1493 1117.2 84.6486 1117.45 85.1094C1117.45 85.1094 1117.45 85.1094 1117.45 85.119C1117.48 85.1671 1117.53 85.2055 1117.59 85.2055C1117.63 85.2055 1117.67 85.1863 1117.7 85.1575C1117.71 85.1382 1117.72 85.1286 1117.74 85.1094C1119.38 82.8435 1120.67 82.5266 1121.54 82.325L1121.65 82.2962C1122.1 82.1906 1123.82 82.1906 1125.06 83.1795C1126.03 83.9477 1126.52 85.1671 1126.52 86.7993C1126.52 89.5454 1125.19 90.6207 1124.06 91.0432C1122.33 91.6961 1120.67 90.8224 1120.65 90.8128L1120.57 90.7744C1119.62 90.3615 1118.19 89.4973 1116.85 86.7993C1114.15 81.3648 1111.89 80.856 1110.39 80.5103L1110.32 80.4911C1109.63 80.3375 1107.27 80.2319 1105.41 81.7105C1104.44 82.4882 1103.28 83.9957 1103.28 86.7705C1103.28 88.4604 1103.62 89.5838 1104.52 90.7551C1104.71 91.024 1106.71 93.5972 1110.58 92.8579C1111.21 92.7427 1112.04 92.445 1112.97 91.7537L1113.82 92.5218C1113.88 92.5698 1113.96 92.5698 1114.01 92.5122C1114.04 92.4834 1114.05 92.4546 1114.05 92.4162L1114.66 88.6236V88.5852C1114.66 88.5852 1114.66 88.5084 1114.62 88.4796C1114.59 88.4508 1114.56 88.4412 1114.53 88.4412H1114.5H1114.46L1110.84 89.4589H1110.78C1110.78 89.4589 1110.73 89.4877 1110.71 89.5069C1110.65 89.5646 1110.66 89.651 1110.72 89.699L1110.77 89.7374L1111.58 90.4671C1111.05 90.8032 1110.6 90.9664 1110.25 91.0336C1107.44 91.5713 1106.06 89.7374 1106.01 89.6606L1105.99 89.6318C1105.34 88.7772 1105.12 88.0475 1105.12 86.7513C1105.12 85.1094 1105.6 83.89 1106.56 83.1219C1107.77 82.1522 1109.44 82.1522 1109.91 82.2578L1109.99 82.277C1111.22 82.5554 1112.9 82.9395 1115.21 87.5866C1116.41 90.0062 1117.92 91.5809 1119.81 92.4162C1120.05 92.541 1121.2 93.0883 1122.7 93.0883C1123.33 93.0883 1124.01 92.9923 1124.71 92.7331C1125.8 92.3202 1128.37 90.9184 1128.37 86.7705C1128.37 83.9957 1127.19 82.4786 1126.21 81.7009" fill="white"/>
<path d="M1126.14 81.8065C1124.37 80.4143 1122.03 80.3855 1121.18 80.5967L1121.08 80.6159C1120.09 80.8464 1118.52 81.2304 1116.67 83.506C1116.67 83.5156 1116.65 83.5348 1116.64 83.5444L1116.62 83.5732C1116.62 83.5732 1116.6 83.6308 1116.6 83.6596C1116.6 83.6884 1116.6 83.7076 1116.61 83.7364L1116.65 83.8036C1116.88 84.1877 1117.17 84.687 1117.42 85.1383C1117.42 85.1383 1117.42 85.1383 1117.42 85.1479C1117.45 85.1959 1117.5 85.2343 1117.56 85.2343C1117.6 85.2343 1117.64 85.2151 1117.67 85.1863C1117.68 85.1767 1117.69 85.1575 1117.7 85.1383C1119.33 82.8915 1120.62 82.5843 1121.48 82.373L1121.59 82.3442C1122.04 82.2386 1123.75 82.2386 1124.99 83.218C1125.96 83.9765 1126.45 85.1863 1126.45 86.8089C1126.45 89.5358 1125.12 90.5919 1124 91.0048C1122.27 91.6481 1120.61 90.784 1120.6 90.784L1120.52 90.7456C1119.57 90.3327 1118.16 89.4782 1116.83 86.8089C1114.14 81.4321 1111.88 80.9232 1110.39 80.5871L1110.32 80.5679C1109.63 80.4143 1107.28 80.3087 1105.43 81.7777C1104.46 82.5458 1103.31 84.0437 1103.31 86.7897C1103.31 88.47 1103.65 89.5742 1104.55 90.736C1104.74 91.0048 1106.73 93.5492 1110.58 92.8099C1111.2 92.6947 1112.03 92.397 1112.96 91.7153L1113.8 92.4738C1113.86 92.5218 1113.95 92.5218 1113.99 92.4642C1114.01 92.4354 1114.02 92.4066 1114.02 92.3682L1114.64 88.614V88.5756C1114.64 88.5756 1114.63 88.4988 1114.59 88.4796C1114.56 88.4508 1114.53 88.4412 1114.5 88.4412H1114.47H1114.43L1110.82 89.4494H1110.76C1110.76 89.4494 1110.71 89.4782 1110.69 89.4974C1110.63 89.555 1110.64 89.6414 1110.69 89.6894L1110.73 89.7278L1111.54 90.4575C1111.02 90.7936 1110.56 90.9472 1110.21 91.0144C1107.43 91.5425 1106.04 89.7278 1106 89.651L1105.98 89.6222C1105.33 88.7772 1105.11 88.0571 1105.11 86.7705C1105.11 85.1479 1105.59 83.9381 1106.54 83.1795C1107.75 82.2194 1109.41 82.2194 1109.88 82.325L1109.96 82.3442C1111.18 82.6131 1112.85 82.9971 1115.15 87.6059C1116.36 89.9966 1117.85 91.5617 1119.73 92.3874C1119.97 92.5122 1121.12 93.0499 1122.61 93.0499C1123.23 93.0499 1123.91 92.9539 1124.6 92.6947C1125.7 92.2914 1128.24 90.8992 1128.24 86.7897C1128.24 84.0437 1127.07 82.5458 1126.09 81.7681" stroke="white" stroke-width="0.23" stroke-miterlimit="10"/>
<path d="M1099.92 66.1848H1099.93V72.3874H1101.29V64.2837H1100.21L1098.95 65.7528V67.1834H1098.96L1099.92 66.1848Z" fill="white"/>
<path d="M1102.11 65.964V66.9434H1103.35V65.9256C1103.35 65.4359 1103.59 65.2919 1103.87 65.2919C1104.13 65.2919 1104.36 65.3975 1104.36 65.9064V66.5785C1104.36 67.2506 1104.31 67.5099 1103.86 67.9803L1103.1 68.7965C1102.36 69.5838 1102.08 70.1119 1102.08 70.9088V72.4067H1105.61V71.2929H1103.37V70.9088C1103.37 70.2751 1103.6 70.0351 1103.95 69.6702L1104.82 68.7485C1105.53 67.9995 1105.69 67.5195 1105.69 66.7033V65.916C1105.69 64.7542 1105.13 64.2069 1103.91 64.2069C1102.69 64.2069 1102.11 64.8406 1102.11 65.9736" fill="white"/>
<path d="M1109.38 66.1176V67.6731H1108.82V64.2837H1109.64C1110.22 64.2837 1110.43 64.5718 1110.43 65.0422V65.4743C1110.43 65.8392 1110.3 66.0504 1109.98 66.1272L1110.53 67.6635H1109.93L1109.39 66.108L1109.38 66.1176ZM1109.38 64.7446V65.8008H1109.58C1109.77 65.8008 1109.86 65.7047 1109.86 65.5223V65.023C1109.86 64.8406 1109.77 64.7446 1109.58 64.7446H1109.38Z" fill="white"/>
<path d="M1110.66 64.2837H1112.02V64.7446H1111.24V65.7144H1111.8V66.1752H1111.24V67.2026H1112.02V67.6731H1110.66V64.2837Z" fill="white"/>
<path d="M1112.21 66.9434V66.4921H1112.74V66.953C1112.74 67.145 1112.82 67.2506 1113.02 67.2506C1113.2 67.2506 1113.27 67.1354 1113.27 66.953V66.8281C1113.27 66.6361 1113.2 66.5113 1113.03 66.3481L1112.69 66.012C1112.36 65.6952 1112.22 65.5031 1112.22 65.1095V64.9943C1112.22 64.5718 1112.47 64.2453 1113.02 64.2453C1113.56 64.2453 1113.81 64.5238 1113.81 65.0135V65.2919H1113.29V64.9943C1113.29 64.8022 1113.21 64.7062 1113.03 64.7062C1112.86 64.7062 1112.76 64.7926 1112.76 64.9846V65.0519C1112.76 65.2439 1112.86 65.3495 1113.03 65.5127L1113.39 65.868C1113.7 66.1848 1113.85 66.3673 1113.85 66.7417V66.905C1113.85 67.3658 1113.6 67.7019 1113.03 67.7019C1112.45 67.7019 1112.22 67.3754 1112.22 66.9338" fill="white"/>
<path d="M1114.07 64.2837H1114.92C1115.49 64.2837 1115.7 64.5718 1115.7 65.0422V65.7528C1115.7 66.2232 1115.49 66.5209 1114.92 66.5209H1114.64V67.6731H1114.07V64.2837ZM1114.64 64.7446V66.0792H1114.85C1115.04 66.0792 1115.13 65.9832 1115.13 65.8008V65.023C1115.13 64.8406 1115.04 64.7446 1114.85 64.7446H1114.64Z" fill="white"/>
<path d="M1115.92 66.7993V65.1575C1115.92 64.6294 1116.18 64.2453 1116.78 64.2453C1117.37 64.2453 1117.64 64.6294 1117.64 65.1575V66.7993C1117.64 67.3274 1117.38 67.7115 1116.78 67.7115C1116.17 67.7115 1115.92 67.3178 1115.92 66.7993ZM1117.08 66.8858V65.0711C1117.08 64.8694 1116.99 64.7254 1116.78 64.7254C1116.57 64.7254 1116.49 64.8694 1116.49 65.0711V66.8858C1116.49 67.0874 1116.58 67.2314 1116.78 67.2314C1116.98 67.2314 1117.08 67.0874 1117.08 66.8858Z" fill="white"/>
<path d="M1118.38 65.5415V67.6731H1117.9V64.2837H1118.46L1119.07 66.2232V64.2837H1119.54V67.6731H1119.04L1118.38 65.5415Z" fill="white"/>
<path d="M1119.77 66.9434V66.4921H1120.3V66.953C1120.3 67.145 1120.39 67.2506 1120.58 67.2506C1120.76 67.2506 1120.84 67.1354 1120.84 66.953V66.8281C1120.84 66.6361 1120.76 66.5113 1120.59 66.3481L1120.25 66.012C1119.93 65.6952 1119.78 65.5031 1119.78 65.1095V64.9943C1119.78 64.5718 1120.03 64.2453 1120.58 64.2453C1121.13 64.2453 1121.38 64.5238 1121.38 65.0135V65.2919H1120.86V64.9943C1120.86 64.8022 1120.77 64.7062 1120.59 64.7062C1120.43 64.7062 1120.32 64.7926 1120.32 64.9846V65.0519C1120.32 65.2439 1120.43 65.3495 1120.59 65.5127L1120.95 65.868C1121.26 66.1848 1121.42 66.3673 1121.42 66.7417V66.905C1121.42 67.3658 1121.17 67.7019 1120.59 67.7019C1120.01 67.7019 1119.78 67.3754 1119.78 66.9338" fill="white"/>
<path d="M1122.2 64.2837H1121.63V67.6731H1122.2V64.2837Z" fill="white"/>
<path d="M1122.46 64.2837H1123.29C1123.86 64.2837 1124.05 64.5526 1124.05 65.0326V65.3783C1124.05 65.6663 1123.94 65.8392 1123.71 65.916C1124 65.9832 1124.13 66.1656 1124.13 66.4825V66.9337C1124.13 67.4138 1123.92 67.6731 1123.35 67.6731H1122.46V64.2837ZM1123.03 65.7144H1123.23C1123.41 65.7144 1123.5 65.6183 1123.5 65.4359V65.023C1123.5 64.8406 1123.41 64.7446 1123.22 64.7446H1123.03V65.7144ZM1123.03 66.1464V67.2026H1123.28C1123.47 67.2026 1123.56 67.1066 1123.56 66.9241V66.4153C1123.56 66.2328 1123.47 66.1368 1123.27 66.1368H1123.03V66.1464Z" fill="white"/>
<path d="M1124.34 64.2837H1124.91V67.2026H1125.59V67.6731H1124.34V64.2837Z" fill="white"/>
<path d="M1125.78 64.2837H1127.14V64.7446H1126.35V65.7144H1126.92V66.1752H1126.35V67.2026H1127.14V67.6731H1125.78V64.2837Z" fill="white"/>
<path d="M1108.82 71.5425V69.9006C1108.82 69.3726 1109.07 68.9885 1109.66 68.9885C1110.3 68.9885 1110.47 69.3342 1110.47 69.843V70.2463H1109.95V69.8046C1109.95 69.5934 1109.88 69.4782 1109.67 69.4782C1109.46 69.4782 1109.38 69.6222 1109.38 69.8238V71.6385C1109.38 71.8402 1109.47 71.9842 1109.67 71.9842C1109.87 71.9842 1109.95 71.8498 1109.95 71.6577V71.0336H1110.47V71.6193C1110.47 72.0994 1110.27 72.4643 1109.66 72.4643C1109.06 72.4643 1108.82 72.0706 1108.82 71.5521" fill="white"/>
<path d="M1110.71 71.5425V69.9006C1110.71 69.3726 1110.97 68.9885 1111.57 68.9885C1112.18 68.9885 1112.44 69.3726 1112.44 69.9006V71.5425C1112.44 72.0706 1112.18 72.4547 1111.57 72.4547C1110.97 72.4547 1110.71 72.061 1110.71 71.5425ZM1111.86 71.6289V69.8142C1111.86 69.6126 1111.77 69.4686 1111.56 69.4686C1111.35 69.4686 1111.28 69.6126 1111.28 69.8142V71.6289C1111.28 71.8305 1111.36 71.9746 1111.56 71.9746C1111.77 71.9746 1111.86 71.8305 1111.86 71.6289Z" fill="white"/>
<path d="M1113.17 70.2847V72.4162H1112.69V69.0269H1113.24L1113.86 70.9664V69.0269H1114.33V72.4162H1113.83L1113.17 70.2847Z" fill="white"/>
<path d="M1114.56 71.6865V71.2352H1115.09V71.6961C1115.09 71.8881 1115.18 71.9938 1115.37 71.9938C1115.55 71.9938 1115.63 71.8785 1115.63 71.6961V71.5617C1115.63 71.3697 1115.55 71.2448 1115.38 71.0816L1115.04 70.7456C1114.71 70.4287 1114.57 70.2271 1114.57 69.843V69.7278C1114.57 69.3053 1114.82 68.9789 1115.37 68.9789C1115.91 68.9789 1116.16 69.2573 1116.16 69.747V70.0254H1115.65V69.7278C1115.65 69.5358 1115.56 69.4398 1115.38 69.4398C1115.21 69.4398 1115.11 69.5262 1115.11 69.7182V69.7854C1115.11 69.9774 1115.21 70.0831 1115.38 70.2463L1115.74 70.6015C1116.05 70.9184 1116.2 71.1104 1116.2 71.4849V71.6481C1116.2 72.109 1115.95 72.445 1115.38 72.445C1114.8 72.445 1114.57 72.1186 1114.57 71.6769" fill="white"/>
<path d="M1118.07 69.0269V71.5905C1118.07 72.1186 1117.85 72.4546 1117.27 72.4546C1116.68 72.4546 1116.42 72.1186 1116.42 71.5905V69.0269H1116.99V71.6481C1116.99 71.8497 1117.07 71.9841 1117.27 71.9841C1117.47 71.9841 1117.55 71.8497 1117.55 71.6481V69.0269H1118.07Z" fill="white"/>
<path d="M1119.9 70.2174H1119.88L1119.5 72.4162H1119.24L1118.8 70.2174H1118.79V72.4162H1118.32V69.0269H1119L1119.36 70.9376H1119.37L1119.7 69.0269H1120.42V72.4162H1119.9V70.2174Z" fill="white"/>
<path d="M1120.67 69.0269H1121.51C1122.09 69.0269 1122.3 69.3149 1122.3 69.7854V70.4959C1122.3 70.976 1122.09 71.264 1121.51 71.264H1121.23V72.4162H1120.67V69.0269ZM1121.24 69.4877V70.8223H1121.45C1121.65 70.8223 1121.73 70.7263 1121.73 70.5439V69.7662C1121.73 69.5837 1121.65 69.4877 1121.45 69.4877H1121.24Z" fill="white"/>
<path d="M1122.43 69.0269H1123.95V69.4877H1123.48V72.4162H1122.9V69.4877H1122.43V69.0269Z" fill="white"/>
<path d="M1124.71 69.0269H1124.14V72.4162H1124.71V69.0269Z" fill="white"/>
<path d="M1124.97 71.5425V69.9006C1124.97 69.3726 1125.23 68.9885 1125.83 68.9885C1126.44 68.9885 1126.7 69.3726 1126.7 69.9006V71.5425C1126.7 72.0706 1126.44 72.4547 1125.83 72.4547C1125.23 72.4547 1124.97 72.061 1124.97 71.5425ZM1126.12 71.6289V69.8142C1126.12 69.6126 1126.03 69.4686 1125.82 69.4686C1125.61 69.4686 1125.53 69.6126 1125.53 69.8142V71.6289C1125.53 71.8305 1125.62 71.9746 1125.82 71.9746C1126.02 71.9746 1126.12 71.8305 1126.12 71.6289Z" fill="white"/>
<path d="M1127.43 70.2847V72.4162H1126.95V69.0269H1127.5L1128.12 70.9664V69.0269H1128.6V72.4162H1128.1L1127.43 70.2847Z" fill="white"/>
<path d="M1108.72 77.1594L1109.37 73.77H1110.02L1110.66 77.1594H1110.08L1109.97 76.5353H1109.37L1109.27 77.1594H1108.73H1108.72ZM1109.44 76.084H1109.89L1109.67 74.7302L1109.45 76.084H1109.44Z" fill="white"/>
<path d="M1111.3 75.0278V77.1594H1110.82V73.77H1111.38L1112 75.7191V73.77H1112.47V77.1594H1111.97L1111.3 75.0278Z" fill="white"/>
<path d="M1114.43 74.6822V76.2472C1114.43 76.7657 1114.21 77.1594 1113.6 77.1594H1112.72V73.77H1113.6C1114.21 73.77 1114.43 74.1541 1114.43 74.6822ZM1113.53 76.6889C1113.76 76.6889 1113.86 76.5449 1113.86 76.3432V74.5669C1113.86 74.3653 1113.77 74.2309 1113.53 74.2309H1113.29V76.6889H1113.53Z" fill="white"/>
<path d="M1115.47 73.77H1116.32C1116.89 73.77 1117.1 74.0581 1117.1 74.5285V75.2391C1117.1 75.7191 1116.89 76.0072 1116.32 76.0072H1116.04V77.1594H1115.47V73.77ZM1116.04 74.2405V75.5751H1116.25C1116.44 75.5751 1116.53 75.4791 1116.53 75.2967V74.5189C1116.53 74.3365 1116.44 74.2405 1116.25 74.2405H1116.04Z" fill="white"/>
<path d="M1117.89 75.6039V77.1594H1117.33V73.77H1118.15C1118.73 73.77 1118.94 74.0581 1118.94 74.5285V74.9606C1118.94 75.3255 1118.8 75.5367 1118.49 75.6135L1119.04 77.1498H1118.43L1117.89 75.5943V75.6039ZM1117.89 74.2405V75.2967H1118.08C1118.28 75.2967 1118.36 75.2006 1118.36 75.0182V74.5189C1118.36 74.3365 1118.28 74.2405 1118.08 74.2405H1117.89Z" fill="white"/>
<path d="M1119.17 76.2857V74.6438C1119.17 74.1157 1119.43 73.7317 1120.03 73.7317C1120.64 73.7317 1120.9 74.1157 1120.9 74.6438V76.2857C1120.9 76.8138 1120.64 77.1978 1120.03 77.1978C1119.43 77.1978 1119.17 76.8042 1119.17 76.2857ZM1120.33 76.3721V74.5574C1120.33 74.3558 1120.25 74.2117 1120.03 74.2117C1119.82 74.2117 1119.75 74.3558 1119.75 74.5574V76.3721C1119.75 76.5737 1119.83 76.7177 1120.03 76.7177C1120.24 76.7177 1120.33 76.5737 1120.33 76.3721Z" fill="white"/>
<path d="M1122.86 74.6822V76.2472C1122.86 76.7657 1122.64 77.1594 1122.03 77.1594H1121.15V73.77H1122.03C1122.64 73.77 1122.86 74.1541 1122.86 74.6822ZM1121.96 76.6889C1122.2 76.6889 1122.29 76.5449 1122.29 76.3432V74.5669C1122.29 74.3653 1122.2 74.2309 1121.96 74.2309H1121.72V76.6889H1121.96Z" fill="white"/>
<path d="M1124.77 73.77V76.3336C1124.77 76.8617 1124.55 77.1978 1123.96 77.1978C1123.37 77.1978 1123.12 76.8617 1123.12 76.3336V73.77H1123.68V76.3912C1123.68 76.5929 1123.76 76.7273 1123.96 76.7273C1124.16 76.7273 1124.24 76.5929 1124.24 76.3912V73.77H1124.77Z" fill="white"/>
<path d="M1125.02 76.2857V74.6438C1125.02 74.1157 1125.27 73.7317 1125.86 73.7317C1126.49 73.7317 1126.67 74.0773 1126.67 74.5766V74.9799H1126.15V74.5382C1126.15 74.327 1126.08 74.2117 1125.87 74.2117C1125.66 74.2117 1125.58 74.3558 1125.58 74.5574V76.3721C1125.58 76.5737 1125.67 76.7177 1125.87 76.7177C1126.07 76.7177 1126.15 76.5833 1126.15 76.3913V75.7672H1126.67V76.3529C1126.67 76.833 1126.47 77.1978 1125.86 77.1978C1125.26 77.1978 1125.02 76.8138 1125.02 76.2857Z" fill="white"/>
<path d="M1126.79 73.77H1128.31V74.2405H1127.84V77.1594H1127.26V74.2405H1126.79V73.77Z" fill="white"/>
<path d="M1129.07 73.77H1128.5V77.1594H1129.07V73.77Z" fill="white"/>
<path d="M1129.33 76.2857V74.6438C1129.33 74.1157 1129.59 73.7317 1130.19 73.7317C1130.8 73.7317 1131.06 74.1157 1131.06 74.6438V76.2857C1131.06 76.8138 1130.8 77.1978 1130.19 77.1978C1129.59 77.1978 1129.33 76.8042 1129.33 76.2857ZM1130.49 76.3721V74.5574C1130.49 74.3558 1130.4 74.2117 1130.19 74.2117C1129.98 74.2117 1129.9 74.3558 1129.9 74.5574V76.3721C1129.9 76.5737 1129.99 76.7177 1130.19 76.7177C1130.39 76.7177 1130.49 76.5737 1130.49 76.3721Z" fill="white"/>
<path d="M1131.78 75.0278V77.1594H1131.3V73.77H1131.87L1132.49 75.7191V73.77H1132.96V77.1594H1132.46L1131.78 75.0278Z" fill="white"/>
<path d="M1147.05 61L1147 100.942L1186.95 101L1187 61.0576L1147.67 61H1147.05Z" fill="#48773C"/>
<path d="M1182.04 86.0888C1180.99 84.6006 1176.2 78.6668 1167.3 78.6572C1158.4 78.6476 1153.6 84.5622 1152.54 86.0504C1152.49 86.1176 1152.45 86.1656 1152.43 86.2136C1152.45 86.2617 1152.49 86.3193 1152.54 86.3769C1153.6 87.8651 1158.38 93.7989 1167.28 93.8085C1176.19 93.8181 1180.99 87.8939 1182.04 86.4153C1182.09 86.3481 1182.13 86.3001 1182.16 86.2521C1182.13 86.204 1182.09 86.1464 1182.04 86.0888ZM1162.33 82.3922C1162.4 82.277 1162.67 81.941 1162.7 81.893C1162.77 81.8065 1162.9 81.7873 1163 81.7681C1163.1 81.7489 1163.22 81.8065 1163.24 81.8738C1163.26 81.941 1163.2 82.2194 1163.15 82.2674C1163.02 82.4018 1162.68 82.5939 1162.49 82.5651C1162.35 82.5459 1162.29 82.4306 1162.32 82.3922M1162.01 83.0259C1162.01 83.0259 1162.04 82.9971 1162.04 82.9875C1162.15 82.8627 1162.38 82.8339 1162.53 82.8051C1162.68 82.7763 1162.89 82.8531 1162.91 82.9587C1162.94 83.0643 1162.53 83.2468 1162.45 83.314C1162.24 83.506 1161.9 83.9093 1161.7 83.9573C1161.64 83.9669 1161.59 83.9573 1161.54 83.9381C1161.66 83.6212 1161.83 83.3044 1162 83.0163M1165.33 89.8622C1165.21 90.3327 1165.07 90.5055 1164.95 90.6592C1164.83 90.8128 1164.38 91.0048 1164.1 90.9856C1163.83 90.9664 1163.79 90.2079 1163.79 89.8238C1163.79 89.6894 1163.6 90.0831 1163.5 89.2765C1163.43 88.7581 1163.11 89.3341 1163.08 88.9885C1163.06 88.6428 1162.88 88.71 1162.71 88.4988C1162.54 88.2876 1162.33 88.518 1162.08 88.6236C1161.84 88.7293 1161.93 88.7869 1161.6 88.6812C1161.59 88.6812 1161.59 88.6812 1161.58 88.6812C1161.26 87.9419 1161.09 87.1258 1161.1 86.2713C1161.1 86.06 1161.11 85.8584 1161.13 85.6568C1161.14 85.6376 1161.16 85.6184 1161.17 85.5992C1161.49 85.2151 1161.48 85.1191 1161.48 85.1191L1161.85 84.9943C1161.85 84.9943 1162.42 85.0807 1162.87 85.2535C1163.22 85.3879 1163.79 85.6952 1164.12 85.5607C1164.36 85.4647 1164.55 85.3303 1164.53 85.1383C1164.5 84.8886 1164.31 84.831 1164.07 84.9943C1163.98 85.0615 1163.8 84.6198 1163.64 84.639C1163.5 84.6582 1163.83 85.1479 1163.7 85.1767C1163.58 85.1959 1163.33 84.6678 1163.29 84.5814C1163.25 84.495 1163.06 84.2837 1162.88 84.447C1162.52 84.7926 1161.92 84.7734 1161.81 84.8598C1161.44 85.1287 1161.35 84.7734 1161.36 84.5526C1161.38 84.5046 1161.39 84.4566 1161.41 84.399C1161.52 84.2645 1161.95 84.2261 1162.1 84.3221C1162.26 84.4278 1162.38 84.2933 1162.43 84.2357C1162.5 84.1685 1162.47 84.0725 1162.43 83.9861C1162.39 83.8997 1162.51 83.8421 1162.6 83.8133C1162.68 83.7941 1162.96 83.602 1163.07 83.5348C1163.18 83.4676 1163.75 83.4004 1164.01 83.5348C1164.27 83.6692 1164.5 83.554 1164.62 83.41C1164.79 83.218 1164.99 83.0835 1165.07 83.0355C1165.16 82.9875 1164.85 82.6995 1164.59 83.0163C1164.33 83.3332 1164.21 83.362 1164.08 83.362C1163.96 83.362 1163.25 83.1796 1163.16 82.9587C1163.08 82.7283 1163.38 82.5651 1163.65 82.4402C1163.92 82.3154 1164.64 82.3154 1164.82 82.277C1165.2 82.1906 1165.68 82.0082 1165.92 82.1714C1166.16 82.3346 1164.91 82.6131 1165.31 82.8435C1165.46 82.9203 1166.12 82.469 1166.35 82.3442C1166.89 82.0658 1165.83 81.9794 1165.97 81.4225C1166.12 80.7888 1164.68 81.0288 1163.96 81.0864C1164.93 80.4719 1166.07 80.1071 1167.3 80.1167C1170.23 80.1167 1172.68 82.1522 1173.32 84.879C1173.32 85.0135 1173.3 85.1095 1173.29 85.1671C1173.24 85.3879 1172.81 85.5799 1172.57 85.2247C1172.5 85.1383 1172.24 84.879 1172.25 85.3111C1172.25 85.7432 1172.66 85.7816 1172.27 86.0408C1171.87 86.3001 1171.8 86.2329 1171.61 86.3001C1171.43 86.3673 1171.25 86.8089 1171.3 87.0394C1171.34 87.2794 1171.9 87.9227 1171.49 87.8939C1171.39 87.8939 1170.65 87.3754 1170.53 87.049C1170.4 86.7033 1170.26 86.3673 1170.16 86.108C1170.06 85.8488 1169.8 85.7816 1169.58 85.9352C1169.36 86.0888 1169.64 86.2425 1169.48 86.5593C1169.32 86.8858 1169.21 87.1738 1168.97 86.905C1168.37 86.2136 1167.48 86.5497 1167.35 85.7816C1167.27 85.3687 1166.92 85.4071 1166.61 85.1671C1166.3 84.927 1166.14 84.8022 1166.09 84.975C1166.04 85.1287 1167.04 85.916 1167.11 86.1176C1167.22 86.4153 1166.81 86.6841 1166.51 86.7513C1166.22 86.8185 1166.09 86.5881 1165.8 86.2809C1165.52 85.9832 1165.39 85.7624 1165.37 86.0024C1165.34 86.3385 1165.64 86.8474 1165.94 87.0298C1166.19 87.193 1166.47 87.2602 1166.39 87.5195C1166.3 87.7787 1166.39 87.6347 1166.11 87.9131C1165.83 88.1916 1165.78 88.278 1165.79 88.6716C1165.81 89.0557 1165.72 89.0845 1165.65 89.4014C1165.59 89.7278 1165.45 89.4494 1165.32 89.9198M1171.99 87.4042C1172.2 87.385 1172.51 87.6731 1172.39 87.7883C1172.27 87.8939 1171.96 87.8555 1171.8 87.7307C1171.64 87.6059 1171.89 87.4042 1171.99 87.4042ZM1171.73 87.2122C1171.66 87.1834 1171.6 87.1258 1171.56 86.9722C1171.51 86.8185 1171.63 86.7321 1171.76 86.7993C1171.88 86.8666 1172.05 87.0586 1172.05 87.1546C1172.05 87.2506 1171.8 87.241 1171.73 87.2122ZM1168.99 87.193C1168.87 87.2986 1168.56 87.2602 1168.4 87.1354C1168.24 87.0106 1168.49 86.8089 1168.59 86.8089C1168.8 86.7897 1169.11 87.0778 1168.99 87.193ZM1166.46 88.422C1166.37 88.566 1166.14 89.603 1165.98 89.4782C1165.82 89.3534 1166.04 88.2684 1166.08 88.182C1166.33 87.7307 1166.86 87.7595 1166.45 88.4124M1167.29 92.4642C1166.69 92.4642 1166.1 92.3778 1165.55 92.2146C1165.48 92.1474 1165.43 92.0418 1165.48 91.9074C1165.67 91.4081 1166.25 91.216 1166.7 91.168C1167.71 91.072 1169.02 91.8209 1169.23 91.7057C1169.44 91.5809 1169.87 91.0336 1170.49 91.0528C1170.91 91.072 1170.91 91.1392 1171.06 91.1968C1170.01 91.9938 1168.71 92.4642 1167.29 92.4642ZM1171.67 90.6688C1171.61 90.6496 1171.55 90.6304 1171.48 90.5919C1171.14 90.4191 1171.18 90.6976 1171.02 90.6304C1170.86 90.5727 1171.21 90.1791 1170.7 90.5055C1170.2 90.832 1170.34 90.4575 1170.13 89.9006C1169.9 89.3437 1170.38 88.7196 1170.77 88.5756C1171.31 88.3836 1171.64 88.3452 1171.89 88.278C1172.64 88.0955 1172.8 87.6539 1172.93 87.9227C1172.96 87.9707 1172.98 88.0187 1173 88.0667C1173.05 88.1436 1173.09 88.3068 1173.09 88.47C1172.78 89.2957 1172.29 90.0447 1171.67 90.6592M1173.37 87.5387C1173.21 87.4907 1172.51 86.5305 1173.06 85.8968C1173.16 85.7912 1172.88 85.4839 1172.96 85.4839C1173.26 85.4647 1173.42 85.6472 1173.5 85.916C1173.5 86.0312 1173.51 86.156 1173.51 86.2713C1173.51 86.7033 1173.46 87.1258 1173.37 87.5387Z" fill="white"/>
<path d="M1152 64.2549L1151.98 72.3586H1150.63L1150.64 66.156H1150.62L1149.67 67.145H1149.65L1149.66 65.724L1150.91 64.2549H1152Z" fill="white"/>
<path d="M1156.49 66.0216V66.7225C1156.49 67.4042 1156.11 67.8555 1155.56 68.0379C1156.24 68.1915 1156.56 68.6716 1156.56 69.4109V70.6015C1156.56 71.7249 1155.95 72.4546 1154.58 72.4546C1153.19 72.4546 1152.71 71.6673 1152.71 70.4287V69.3629H1153.95V70.5247C1153.95 71.0048 1154.12 71.312 1154.59 71.312C1155 71.312 1155.19 71.0144 1155.19 70.5823V69.2477C1155.19 68.8156 1155 68.5948 1154.53 68.5948H1153.95V67.5578H1154.46C1154.9 67.5578 1155.19 67.3274 1155.19 66.9049V66.0312C1155.19 65.5895 1155.04 65.3015 1154.61 65.3015C1154.17 65.3015 1154.02 65.5895 1154.02 66.0888V66.9145H1152.77V66.1944C1152.77 65.0038 1153.26 64.1685 1154.67 64.1685C1155.93 64.1685 1156.48 64.879 1156.48 66.0216" fill="white"/>
<path d="M1159.32 66.7417V65.0999C1159.32 64.5718 1159.57 64.1877 1160.18 64.1877C1160.8 64.1877 1160.98 64.543 1160.98 65.0423V65.4455H1160.47V65.0038C1160.47 64.7926 1160.4 64.6774 1160.2 64.6774C1159.99 64.6774 1159.91 64.8214 1159.91 65.023V66.8377C1159.91 67.0394 1159.99 67.1834 1160.2 67.1834C1160.4 67.1834 1160.47 67.0586 1160.47 66.8569V66.2328H1160.99V66.8185C1160.99 67.3082 1160.79 67.6635 1160.19 67.6635C1159.59 67.6635 1159.34 67.2698 1159.34 66.7513" fill="white"/>
<path d="M1161.29 64.2357H1161.86V67.1546H1162.54L1162.53 67.6251H1161.28L1161.29 64.2357Z" fill="white"/>
<path d="M1162.81 64.2344L1162.8 67.6237L1163.37 67.6247L1163.38 64.2354L1162.81 64.2344Z" fill="white"/>
<path d="M1165.27 65.4263H1165.25L1164.86 67.6251H1164.59L1164.17 65.4263H1164.16V67.6251H1163.69L1163.7 64.2357H1164.36L1164.73 66.1464L1165.06 64.2357H1165.79V67.6251H1165.26L1165.27 65.4263Z" fill="white"/>
<path d="M1166.02 67.6251L1166.66 64.2357H1167.31L1167.96 67.6251H1167.37L1167.26 67.001H1166.66L1166.56 67.6155H1166.03L1166.02 67.6251ZM1166.73 66.5593H1167.18L1166.96 65.1959L1166.73 66.5593Z" fill="white"/>
<path d="M1167.87 64.2453H1169.39V64.7062H1168.92V67.6347H1168.34V64.7062H1167.87V64.2453Z" fill="white"/>
<path d="M1169.65 64.2453H1171.01V64.7158H1170.22V65.676L1170.78 65.6856V66.1368H1170.22L1170.21 67.1738H1171.01V67.6347H1169.65V64.2453Z" fill="white"/>
<path d="M1159.23 72.3586L1159.87 68.9693H1160.52L1161.17 72.3586H1160.58L1160.48 71.7345H1159.87L1159.77 72.349H1159.24L1159.23 72.3586ZM1159.94 71.2928H1160.39L1160.17 69.9294L1159.94 71.2928Z" fill="white"/>
<path d="M1161.32 71.4945V69.8526C1161.32 69.3246 1161.57 68.9405 1162.18 68.9405C1162.8 68.9405 1162.98 69.2861 1162.98 69.7854V70.1887H1162.46V69.747C1162.46 69.5358 1162.4 69.4206 1162.19 69.4206C1161.99 69.4206 1161.91 69.5646 1161.91 69.7662V71.5809C1161.91 71.7825 1161.99 71.9266 1162.19 71.9266C1162.4 71.9266 1162.47 71.7921 1162.47 71.6001V70.976H1162.99V71.5617C1162.99 72.0418 1162.79 72.4066 1162.18 72.4066C1161.59 72.4066 1161.34 72.013 1161.34 71.4945" fill="white"/>
<path d="M1163.17 68.9789H1164.68V69.4494H1164.21V72.3682H1163.63L1163.64 69.4494H1163.17V68.9789Z" fill="white"/>
<path d="M1164.95 68.9858L1164.95 72.3752L1165.51 72.3761L1165.52 68.9868L1164.95 68.9858Z" fill="white"/>
<path d="M1165.84 71.4945V69.8526C1165.84 69.3246 1166.11 68.9405 1166.71 68.9405C1167.31 68.9405 1167.57 69.3246 1167.57 69.8526V71.4945C1167.57 72.013 1167.31 72.4066 1166.71 72.4066C1166.11 72.4066 1165.85 72.013 1165.85 71.4945M1166.99 71.5905V69.7758C1166.99 69.5742 1166.91 69.4302 1166.71 69.4302C1166.5 69.4302 1166.42 69.5742 1166.42 69.7758V71.5905C1166.42 71.7921 1166.5 71.9362 1166.71 71.9362C1166.91 71.9362 1167 71.7921 1167 71.5905" fill="white"/>
<path d="M1168.38 70.2463L1168.37 72.3778H1167.89L1167.9 68.9885H1168.46L1169.07 70.9376V68.9885H1169.55L1169.54 72.3778H1169.04L1168.38 70.2463Z" fill="white"/>
<path d="M1238 61H1198V101H1238V61Z" fill="#007DBB"/>
<path d="M1228.76 90.2271C1228.25 89.5454 1224.99 85.3783 1220.41 85.3783C1216.43 85.3783 1212.18 88.9885 1212.18 88.9885C1212.18 88.9885 1210.59 85.7144 1207.31 85.4071C1207.29 85.4071 1207.27 85.4071 1207.25 85.4071H1207.24C1207.17 85.4071 1207.1 85.4743 1207.11 85.532C1207.11 85.5896 1207.16 85.6472 1207.16 85.6472C1207.58 86.3481 1208.66 88.3356 1208.66 90.3231C1208.66 92.3106 1207.57 94.3174 1207.16 95.0087L1207.13 95.0567C1207.13 95.0567 1207.11 95.0951 1207.11 95.1239C1207.11 95.1911 1207.17 95.2487 1207.24 95.2487H1207.27C1207.27 95.2487 1207.29 95.2487 1207.3 95.2487C1210.59 94.9415 1212.19 91.6577 1212.19 91.6577C1212.19 91.6577 1216.44 95.2679 1220.42 95.2679C1225 95.2679 1228.26 91.1008 1228.77 90.4191C1228.78 90.3999 1228.8 90.3807 1228.81 90.3711C1228.81 90.3519 1228.82 90.3423 1228.82 90.3231C1228.82 90.3039 1228.82 90.2847 1228.81 90.2751C1228.81 90.2655 1228.79 90.2463 1228.77 90.2271M1222.95 90.8512C1222.21 90.8512 1221.62 90.2559 1221.62 89.5166C1221.62 88.7773 1222.21 88.182 1222.95 88.182C1223.69 88.182 1224.29 88.7773 1224.29 89.5166C1224.29 90.2559 1223.69 90.8512 1222.95 90.8512Z" fill="white"/>
<path d="M1211.88 81.6433C1211.88 81.6433 1211.9 81.6145 1211.92 81.6049C1211.94 81.5953 1211.97 81.5857 1211.99 81.5857C1212.03 81.5857 1212.06 81.5953 1212.08 81.6241C1214.57 84.0053 1217.19 82.0754 1217.74 81.6241L1217.8 81.5761C1217.8 81.5761 1217.83 81.5761 1217.85 81.5761C1217.87 81.5761 1217.88 81.5761 1217.9 81.5761L1217.96 81.6241C1218.51 82.0754 1221.12 84.0053 1223.62 81.6241C1223.64 81.6049 1223.67 81.5857 1223.7 81.5857C1223.73 81.5857 1223.75 81.5953 1223.78 81.6049C1223.8 81.6145 1223.81 81.6241 1223.82 81.6433C1224.3 82.1234 1226.39 83.9189 1228.61 81.9986C1228.63 81.9794 1228.65 81.941 1228.65 81.9026V80.9904C1228.65 80.9136 1228.59 80.856 1228.51 80.856C1228.51 80.856 1228.49 80.856 1228.48 80.856C1228.47 80.8656 1228.45 80.8752 1228.42 80.8848C1227.74 81.2209 1225.63 82.037 1223.71 80.2223C1223.69 80.2031 1223.67 80.1839 1223.66 80.1647C1223.64 80.1551 1223.62 80.1551 1223.6 80.1551C1223.59 80.1551 1223.57 80.1551 1223.56 80.1647C1223.53 80.1647 1223.51 80.1935 1223.49 80.2127C1222.93 80.6448 1220.3 82.4211 1217.97 80.2415L1217.93 80.2127C1217.93 80.2127 1217.88 80.1743 1217.84 80.1743C1217.8 80.1743 1217.77 80.1839 1217.74 80.2127L1217.7 80.2415C1215.37 82.4211 1212.75 80.6448 1212.18 80.2127C1212.17 80.1935 1212.14 80.1743 1212.11 80.1647C1212.1 80.1647 1212.09 80.1551 1212.08 80.1551C1212.06 80.1551 1212.04 80.1551 1212.02 80.1647C1212 80.1839 1211.98 80.2031 1211.96 80.2223C1210.05 82.0274 1207.94 81.2209 1207.26 80.8848C1207.24 80.8752 1207.21 80.8656 1207.19 80.856C1207.18 80.856 1207.17 80.856 1207.16 80.856C1207.08 80.856 1207.03 80.9136 1207.03 80.9904V81.9026C1207.03 81.9026 1207.04 81.9698 1207.06 81.9986C1209.27 83.9189 1211.37 82.1234 1211.85 81.6433" fill="white"/>
<path d="M1207.21 77.5531C1207.21 77.5531 1207.19 77.5531 1207.18 77.5531C1207.11 77.5531 1207.04 77.6107 1207.04 77.6875V78.5996C1207.04 78.5996 1207.05 78.6668 1207.08 78.6956C1209.29 80.616 1211.38 78.8205 1211.87 78.3404C1211.87 78.3212 1211.89 78.3116 1211.91 78.302C1211.93 78.2924 1211.96 78.2828 1211.99 78.2828C1212.03 78.2828 1212.06 78.2924 1212.08 78.3212C1214.57 80.7024 1217.19 78.7725 1217.74 78.3212L1217.8 78.2732C1217.8 78.2732 1217.83 78.2636 1217.85 78.2636C1217.87 78.2636 1217.89 78.2636 1217.9 78.2732L1217.96 78.3212C1218.51 78.7725 1221.12 80.7024 1223.62 78.3212C1223.64 78.302 1223.67 78.2828 1223.7 78.2828C1223.73 78.2828 1223.75 78.2924 1223.77 78.302C1223.79 78.3116 1223.8 78.3212 1223.81 78.3404C1224.29 78.8205 1226.38 80.616 1228.6 78.6956C1228.62 78.6764 1228.64 78.638 1228.64 78.5996V77.6875C1228.64 77.6107 1228.58 77.5531 1228.51 77.5531C1228.51 77.5531 1228.49 77.5531 1228.49 77.5531C1228.47 77.5627 1228.45 77.5723 1228.42 77.5915C1227.74 77.9371 1225.63 78.7437 1223.71 76.929C1223.69 76.9098 1223.67 76.9002 1223.66 76.8714C1223.64 76.8714 1223.62 76.8618 1223.6 76.8618C1223.59 76.8618 1223.57 76.8618 1223.56 76.8618C1223.53 76.8714 1223.51 76.8906 1223.49 76.9098C1222.93 77.3418 1220.3 79.1181 1217.97 76.9386L1217.93 76.9098C1217.93 76.9098 1217.88 76.8714 1217.84 76.8714C1217.81 76.8714 1217.77 76.8906 1217.74 76.9098L1217.7 76.9386C1215.37 79.1181 1212.75 77.3418 1212.18 76.9098C1212.17 76.8906 1212.14 76.8714 1212.11 76.8618C1212.1 76.8618 1212.09 76.8618 1212.08 76.8618C1212.06 76.8618 1212.04 76.8618 1212.02 76.8714C1212 76.8906 1211.98 76.9098 1211.96 76.929C1210.05 78.7437 1207.94 77.9275 1207.26 77.5915C1207.23 77.5819 1207.21 77.5723 1207.19 77.5531" fill="white"/>
<path d="M1203.15 64.2837V72.3874H1201.78V66.1848H1201.77L1200.81 67.1738H1200.8V65.7528L1202.06 64.2837H1203.15Z" fill="white"/>
<path d="M1207.52 72.3874V71.072H1208.06V70.0062H1207.52V64.2837H1206.18L1203.83 70.2367V71.072H1206.23V72.3874H1207.52ZM1205.02 70.0062L1206.24 66.6745H1206.25V70.0062H1205.02Z" fill="white"/>
<path d="M1211.04 64.2453H1211.61V67.1642H1212.29V67.6251H1211.04V64.2453Z" fill="white"/>
<path d="M1213.11 64.2453H1212.55V67.6347H1213.11V64.2453Z" fill="white"/>
<path d="M1213.44 64.2453H1214.77V64.7062H1214.02V65.676H1214.58V66.1368H1214.02V67.6251H1213.44V64.2453Z" fill="white"/>
<path d="M1215.02 64.2453H1216.39V64.7062H1215.6V65.676H1216.16V66.1368H1215.6V67.1642H1216.39V67.6251H1215.02V64.2453Z" fill="white"/>
<path d="M1211.04 68.9885H1211.86C1212.43 68.9885 1212.62 69.2573 1212.62 69.7374V70.0831C1212.62 70.3711 1212.52 70.5439 1212.29 70.6208C1212.58 70.688 1212.71 70.8704 1212.71 71.1872V71.6385C1212.71 72.1186 1212.49 72.3778 1211.92 72.3778H1211.04V68.9885ZM1211.61 70.4191H1211.81C1211.99 70.4191 1212.08 70.3231 1212.08 70.1407V69.7278C1212.08 69.5454 1211.99 69.4494 1211.8 69.4494H1211.61V70.4095V70.4191ZM1211.61 70.8512V71.9074H1211.86C1212.05 71.9074 1212.13 71.8113 1212.13 71.6289V71.12C1212.13 70.9376 1212.05 70.8416 1211.85 70.8416H1211.61V70.8512Z" fill="white"/>
<path d="M1212.99 68.9885H1214.34V69.4494H1213.55V70.4191H1214.12V70.88H1213.55V71.9074H1214.34V72.3778H1212.99V68.9885Z" fill="white"/>
<path d="M1214.65 68.9885H1215.22V71.9074H1215.9V72.3778H1214.65V68.9885Z" fill="white"/>
<path d="M1216.14 71.5041V69.8622C1216.14 69.3342 1216.4 68.9501 1216.99 68.9501C1217.59 68.9501 1217.86 69.3342 1217.86 69.8622V71.5041C1217.86 72.0322 1217.6 72.4163 1216.99 72.4163C1216.39 72.4163 1216.14 72.0226 1216.14 71.5041ZM1217.29 71.5905V69.7758C1217.29 69.5742 1217.2 69.4302 1216.99 69.4302C1216.78 69.4302 1216.71 69.5742 1216.71 69.7758V71.5905C1216.71 71.7922 1216.79 71.9362 1216.99 71.9362C1217.19 71.9362 1217.29 71.7922 1217.29 71.5905Z" fill="white"/>
<path d="M1219.36 70.2847L1219.04 72.3778H1218.51L1218.05 68.9885H1218.61L1218.86 71.1296H1218.87L1219.15 68.9885H1219.62L1219.94 71.1296L1220.2 68.9885H1220.68L1220.24 72.3778H1219.7L1219.36 70.2847Z" fill="white"/>
<path d="M1223.01 70.2847L1222.68 72.3778H1222.16L1221.7 68.9885H1222.25L1222.51 71.1296H1222.52L1222.8 68.9885H1223.27L1223.58 71.1296H1223.59L1223.85 68.9885H1224.33L1223.88 72.3778H1223.35L1223.01 70.2847Z" fill="white"/>
<path d="M1224.28 72.3778L1224.92 68.9885H1225.58L1226.22 72.3778H1225.63L1225.53 71.7537H1224.92L1224.83 72.3778H1224.29H1224.28ZM1225 71.3025H1225.45L1225.23 69.9486L1225.01 71.3025H1225Z" fill="white"/>
<path d="M1226.13 68.9885H1227.65V69.4494H1227.18V72.3778H1226.6V69.4494H1226.13V68.9885Z" fill="white"/>
<path d="M1227.91 68.9885H1229.27V69.4494H1228.48V70.4191H1229.04V70.88H1228.48V71.9074H1229.27V72.3778H1227.91V68.9885Z" fill="white"/>
<path d="M1230.15 70.8224V72.3778H1229.58V68.9885H1230.41C1230.98 68.9885 1231.19 69.2765 1231.19 69.747V70.1791C1231.19 70.5439 1231.06 70.7552 1230.74 70.832L1231.29 72.3682H1230.69L1230.16 70.8128L1230.15 70.8224ZM1230.15 69.4494V70.5055H1230.34C1230.53 70.5055 1230.62 70.4095 1230.62 70.2271V69.7278C1230.62 69.5454 1230.53 69.4494 1230.34 69.4494H1230.15Z" fill="white"/>
<path d="M1289 61H1249V101H1289V61Z" fill="#40AE49"/>
<path d="M1264.36 88.0764H1265.54C1265.59 88.0764 1265.63 88.1148 1265.63 88.1628V91.0912C1265.63 91.1392 1265.59 91.1777 1265.54 91.1777H1264.36C1264.31 91.1777 1264.28 91.1392 1264.28 91.0912V88.1628C1264.28 88.1148 1264.31 88.0764 1264.36 88.0764Z" fill="white"/>
<path d="M1278.55 92.4354H1259.04C1258.99 92.4354 1258.96 92.4738 1258.96 92.5314V93.722C1258.96 93.77 1258.99 93.8084 1259.04 93.8084H1278.55C1278.6 93.8084 1278.64 93.77 1278.64 93.722V92.5314C1278.64 92.4834 1278.6 92.4354 1278.55 92.4354Z" fill="white"/>
<path d="M1278.55 94.807H1259.04C1258.99 94.807 1258.96 94.8454 1258.96 94.8935V96.0936C1258.96 96.1417 1258.99 96.1801 1259.04 96.1801H1278.55C1278.6 96.1801 1278.64 96.1417 1278.64 96.0936V94.8935C1278.64 94.8454 1278.6 94.807 1278.55 94.807Z" fill="white"/>
<path d="M1274.84 84.8406C1274.6 84.6486 1273.94 84.2069 1273.15 84.2069C1272.58 84.2069 1272.05 84.4277 1271.58 84.8694C1271.54 84.8982 1271.53 84.9462 1271.53 84.9942V85.0998C1271.53 85.1478 1271.54 85.1959 1271.58 85.2343C1271.62 85.2631 1271.67 85.2823 1271.72 85.2631C1271.73 85.2631 1271.75 85.2631 1271.76 85.2535C1271.79 85.2439 1271.82 85.2151 1271.85 85.1959C1271.96 85.1286 1272.24 85.0326 1272.64 85.0326C1273.04 85.0326 1273.87 85.1382 1274.65 85.8776L1274.67 85.8968C1274.67 85.8968 1274.77 85.964 1274.84 85.964C1274.91 85.964 1274.96 85.9352 1275 85.8968L1275.02 85.8776C1275.81 85.1478 1276.62 85.0326 1277.04 85.0326C1277.45 85.0326 1277.72 85.1286 1277.82 85.1959C1277.85 85.2247 1277.89 85.2439 1277.93 85.2631C1277.95 85.2631 1278 85.2823 1278.04 85.2631C1278.12 85.2439 1278.17 85.1767 1278.17 85.0998V85.0038C1278.17 85.0038 1278.15 84.9174 1278.12 84.879C1277.64 84.4277 1277.11 84.1973 1276.54 84.1973C1275.75 84.1973 1275.11 84.639 1274.86 84.831" fill="white"/>
<path d="M1273.63 77.0634C1273.63 77.0634 1273.56 77.121 1273.54 77.169L1273.52 77.2362C1273.5 77.2842 1273.52 77.3418 1273.55 77.3802C1273.58 77.4186 1273.63 77.4474 1273.67 77.4474C1273.67 77.4474 1273.68 77.4474 1273.69 77.4474C1273.73 77.4474 1273.76 77.4474 1273.79 77.4282C1273.81 77.4282 1273.85 77.4186 1273.91 77.4186C1273.99 77.4186 1274.78 77.4474 1275.3 78.3308C1275.33 78.398 1275.37 78.4268 1275.42 78.446C1275.44 78.446 1275.46 78.4556 1275.48 78.4556C1275.52 78.4556 1275.56 78.446 1275.58 78.4364H1275.59C1275.87 78.2828 1276.16 78.2156 1276.46 78.2156C1276.95 78.2156 1277.28 78.4172 1277.35 78.5036C1277.37 78.5324 1277.39 78.5612 1277.42 78.5804C1277.44 78.59 1277.47 78.6092 1277.49 78.6092C1277.49 78.6092 1277.51 78.6092 1277.52 78.6092C1277.52 78.6092 1277.53 78.6092 1277.53 78.6092C1277.56 78.6092 1277.58 78.6092 1277.61 78.59C1277.65 78.5708 1277.68 78.5324 1277.7 78.494L1277.72 78.4364C1277.72 78.4364 1277.72 78.4076 1277.72 78.3884C1277.72 78.3596 1277.72 78.3308 1277.7 78.302C1277.32 77.6395 1276.77 77.505 1276.37 77.505C1276.08 77.505 1275.83 77.5819 1275.67 77.6395C1275.49 77.3994 1275.04 76.9001 1274.36 76.9001C1274.12 76.9001 1273.87 76.9578 1273.63 77.0826" fill="white"/>
<path d="M1269.51 80.0591V80.1455C1269.51 80.2031 1269.55 80.2511 1269.59 80.2799C1269.63 80.2991 1269.68 80.3087 1269.73 80.2991C1269.73 80.2991 1269.75 80.2991 1269.76 80.2991C1269.8 80.2895 1269.81 80.2607 1269.84 80.2319C1269.93 80.1743 1270.19 80.0591 1270.58 80.0591C1270.98 80.0591 1271.54 80.1551 1272.13 80.6448H1272.14C1272.18 80.6928 1272.23 80.712 1272.29 80.712H1272.3C1272.36 80.712 1272.42 80.6832 1272.46 80.6352V80.616C1273.12 79.9246 1273.82 79.8286 1274.17 79.8286C1274.43 79.8286 1274.62 79.8862 1274.68 79.9246C1274.71 79.9438 1274.74 79.9631 1274.78 79.9823C1274.79 79.9823 1274.82 79.9823 1274.86 79.9823C1274.87 79.9823 1274.88 79.9823 1274.89 79.9727C1274.96 79.9534 1275.01 79.8766 1275.01 79.8094V79.7326C1275.01 79.7326 1274.98 79.6462 1274.94 79.6174C1274.56 79.2909 1274.14 79.1277 1273.69 79.1277C1273 79.1277 1272.46 79.531 1272.23 79.7326C1272.02 79.5886 1271.52 79.3005 1270.93 79.3005C1270.41 79.3005 1269.94 79.5118 1269.55 79.9438C1269.52 79.9727 1269.5 80.0207 1269.5 80.0687" fill="white"/>
<path d="M1259.63 81.6337C1259.63 80.4623 1260.58 79.5213 1261.74 79.5213C1261.79 79.5213 1261.83 79.5213 1261.88 79.5213C1261.99 78.0427 1263.22 76.8809 1264.73 76.8809C1266.31 76.8809 1267.59 78.1675 1267.59 79.7422C1267.59 80.1934 1267.48 80.6159 1267.3 80.9904C1268.73 81.3072 1269.81 82.5842 1269.81 84.1109C1269.81 85.8776 1268.38 87.3082 1266.61 87.3082C1266.48 87.3082 1262.35 87.289 1262.35 87.289C1261.1 87.289 1260.08 86.2712 1260.08 85.023C1260.08 84.4181 1260.32 83.8804 1260.69 83.4772C1260.06 83.1123 1259.63 82.4306 1259.63 81.6433" fill="white"/>
<path d="M1251.85 65.7431V67.1642H1251.86L1252.82 66.1752H1252.83V72.3682H1254.19V64.2741H1253.11L1251.85 65.7431Z" fill="white"/>
<path d="M1257.43 66.8378C1256.89 66.8378 1256.5 67.0298 1256.29 67.3947H1256.28V65.3783H1258.62V64.2646H1255.04V68.8253H1256.28V68.6429C1256.28 68.1628 1256.49 67.9035 1256.87 67.9035C1257.29 67.9035 1257.46 68.1916 1257.46 68.6333V70.592C1257.46 71.024 1257.3 71.3217 1256.88 71.3217C1256.41 71.3217 1256.25 71.0144 1256.25 70.5344V69.5166H1255.01V70.4383C1255.01 71.6673 1255.5 72.4547 1256.88 72.4547C1258.26 72.4547 1258.82 71.725 1258.82 70.6016V68.6237C1258.82 67.3466 1258.17 66.8282 1257.44 66.8282" fill="white"/>
<path d="M1261.75 64.2453H1262.32V67.1642H1263V67.6251H1261.75V64.2453Z" fill="white"/>
<path d="M1263.82 64.2453H1263.26V67.6347H1263.82V64.2453Z" fill="white"/>
<path d="M1264.15 64.2453H1265.49V64.7062H1264.73V65.676H1265.29V66.1368H1264.73V67.6251H1264.15V64.2453Z" fill="white"/>
<path d="M1265.73 64.2453H1267.1V64.7062H1266.31V65.676H1266.87V66.1368H1266.31V67.1642H1267.1V67.6251H1265.73V64.2453Z" fill="white"/>
<path d="M1261.75 71.5041V69.8622C1261.75 69.3342 1262.01 68.9501 1262.6 68.9501C1263.2 68.9501 1263.47 69.3342 1263.47 69.8622V71.5041C1263.47 72.0322 1263.21 72.4163 1262.6 72.4163C1262 72.4163 1261.75 72.0226 1261.75 71.5041ZM1262.9 71.5905V69.7758C1262.9 69.5742 1262.82 69.4206 1262.6 69.4206C1262.39 69.4206 1262.32 69.5646 1262.32 69.7758V71.5905C1262.32 71.7922 1262.4 71.9362 1262.6 71.9362C1262.81 71.9362 1262.9 71.7922 1262.9 71.5905Z" fill="white"/>
<path d="M1264.28 70.2463V72.3778H1263.8V68.9885H1264.35L1264.97 70.928V68.9885H1265.45V72.3778H1264.95L1264.28 70.2463Z" fill="white"/>
<path d="M1266.98 68.9885H1267.55V71.9074H1268.23V72.3778H1266.98V68.9885Z" fill="white"/>
<path d="M1268.41 72.3778L1269.05 68.9885H1269.7L1270.35 72.3778H1269.76L1269.65 71.7537H1269.05L1268.95 72.3778H1268.42H1268.41ZM1269.12 71.3025H1269.57L1269.35 69.9486L1269.13 71.3025H1269.12Z" fill="white"/>
<path d="M1271.05 70.2463V72.3778H1270.57V68.9885H1271.13L1271.75 70.928V68.9885H1272.22V72.3778H1271.72L1271.05 70.2463Z" fill="white"/>
<path d="M1274.24 69.9006V71.4657C1274.24 71.9842 1274.03 72.3778 1273.42 72.3778H1272.53V68.9885H1273.42C1274.03 68.9885 1274.24 69.3726 1274.24 69.9006ZM1273.35 71.9074C1273.58 71.9074 1273.68 71.7633 1273.68 71.5617V69.7854C1273.68 69.5838 1273.59 69.4494 1273.35 69.4494H1273.11V71.9074H1273.35Z" fill="white"/>
<path d="M1340 61H1300V101H1340V61Z" fill="#214393"/>
<path d="M1330.22 85.2823C1330.22 82.4594 1327.97 80.1551 1325.17 80.0495C1324.45 78.0139 1322.52 76.5545 1320.24 76.5545C1317.96 76.5545 1316.02 78.0139 1315.3 80.0495C1312.51 80.1551 1310.26 82.4594 1310.26 85.2823C1310.26 86.953 1311.05 88.4508 1312.28 89.411C1312.15 89.8718 1312.07 90.3615 1312.07 90.8608C1312.07 93.7413 1314.41 96.0936 1317.3 96.0936C1318.4 96.0936 1319.41 95.7576 1320.26 95.1815C1321.09 95.7384 1322.08 96.0648 1323.16 96.0648C1326.05 96.0648 1328.39 93.722 1328.39 90.832C1328.39 90.3423 1328.32 89.8622 1328.19 89.411C1329.41 88.4508 1330.21 86.9626 1330.21 85.2919M1324.42 81.7873C1324.42 83.8805 1322.87 85.6184 1320.85 85.916C1320.83 85.7048 1320.8 85.4935 1320.8 85.2727C1320.8 83.1796 1322.34 81.4417 1324.36 81.144C1324.39 81.3553 1324.42 81.5665 1324.42 81.7873ZM1320.26 93.8181C1319.47 93.0595 1318.99 91.9938 1318.99 90.8224C1318.99 89.651 1319.46 88.6236 1320.22 87.8651C1321 88.6236 1321.49 89.6894 1321.49 90.8608C1321.49 92.0322 1321.02 93.0595 1320.26 93.8181ZM1316.11 81.1536C1318.13 81.4513 1319.67 83.1892 1319.67 85.2823C1319.67 85.5031 1319.65 85.7144 1319.62 85.9256C1317.6 85.628 1316.05 83.8901 1316.05 81.7969C1316.05 81.5761 1316.07 81.3649 1316.11 81.1536ZM1319.22 87.145C1318.54 88.5084 1317.12 89.459 1315.49 89.459C1314.8 89.459 1314.14 89.2861 1313.57 88.9885C1314.26 87.6155 1315.67 86.6745 1317.3 86.6745C1317.99 86.6745 1318.65 86.8474 1319.22 87.145ZM1321.23 87.1162C1321.8 86.8089 1322.47 86.6361 1323.16 86.6361C1324.8 86.6361 1326.22 87.5963 1326.9 88.9789C1326.33 89.2861 1325.66 89.459 1324.97 89.459C1323.33 89.459 1321.91 88.5084 1321.23 87.1258M1320.24 77.6107C1321.95 77.6107 1323.43 78.6476 1324.07 80.1263C1322.37 80.4239 1320.95 81.5473 1320.24 83.0643C1319.53 81.5473 1318.11 80.4239 1316.41 80.1263C1317.05 78.6476 1318.53 77.6107 1320.24 77.6107ZM1311.31 85.2823C1311.31 83.1316 1312.94 81.3553 1315.05 81.1248C1315.02 81.3457 1315 81.5665 1315 81.7969C1315 83.3236 1315.66 84.7062 1316.71 85.6664C1314.97 85.8584 1313.49 86.9146 1312.69 88.3836C1311.85 87.6155 1311.31 86.5113 1311.31 85.2823ZM1313.12 90.8608C1313.12 90.5631 1313.15 90.2751 1313.22 89.9967C1313.91 90.3327 1314.68 90.5151 1315.5 90.5151C1316.42 90.5151 1317.27 90.2751 1318.02 89.8622C1317.96 90.1695 1317.94 90.4959 1317.94 90.8224C1317.94 92.2338 1318.5 93.5204 1319.41 94.4614C1318.8 94.8262 1318.08 95.0375 1317.31 95.0375C1315.01 95.0375 1313.13 93.1652 1313.13 90.8608M1327.34 90.8224C1327.34 93.1268 1325.47 94.9991 1323.17 94.9991C1322.42 94.9991 1321.72 94.7974 1321.1 94.4518C1322 93.5108 1322.54 92.2434 1322.54 90.8608C1322.54 90.5151 1322.51 90.1791 1322.45 89.8622C1323.2 90.2847 1324.06 90.5151 1324.98 90.5151C1325.8 90.5151 1326.58 90.3231 1327.27 89.9871C1327.33 90.2559 1327.35 90.5343 1327.35 90.8224M1323.79 85.628C1324.82 84.6678 1325.47 83.3044 1325.47 81.7969C1325.47 81.5665 1325.45 81.3457 1325.42 81.1248C1327.52 81.3457 1329.16 83.122 1329.16 85.2823C1329.16 86.5017 1328.63 87.6059 1327.79 88.374C1327 86.8954 1325.52 85.8392 1323.79 85.6376" fill="white"/>
<path d="M1305.92 64.2741V72.3778H1304.56V66.1752H1304.55L1303.59 67.1642H1303.58V65.7431L1304.83 64.2741H1305.92Z" fill="white"/>
<path d="M1306.54 64.2741H1309.96V65.5319L1308.18 72.3778H1306.83L1308.64 65.3879H1306.54V64.2741Z" fill="white"/>
<path d="M1312.96 64.2453H1313.81C1314.38 64.2453 1314.6 64.5334 1314.6 65.0039V65.7144C1314.6 66.1848 1314.38 66.4825 1313.81 66.4825H1313.53V67.6347H1312.96V64.2453ZM1313.53 64.7062V66.0408H1313.74C1313.93 66.0408 1314.02 65.9448 1314.02 65.7624V64.9846C1314.02 64.8022 1313.93 64.7062 1313.74 64.7062H1313.53Z" fill="white"/>
<path d="M1314.59 67.6251L1315.24 64.2357H1315.89L1316.53 67.6251H1315.95L1315.84 67.001H1315.24L1315.14 67.6251H1314.6H1314.59ZM1315.31 66.5593H1315.77L1315.54 65.1959L1315.32 66.5593H1315.31Z" fill="white"/>
<path d="M1317.33 66.0792V67.6347H1316.77V64.2453H1317.59C1318.17 64.2453 1318.38 64.5334 1318.38 65.0039V65.4359C1318.38 65.8008 1318.24 66.012 1317.93 66.0888L1318.47 67.6251H1317.88L1317.34 66.0696L1317.33 66.0792ZM1317.33 64.7062V65.7624H1317.52C1317.72 65.7624 1317.8 65.6664 1317.8 65.4839V64.9846C1317.8 64.8022 1317.72 64.7062 1317.52 64.7062H1317.33Z" fill="white"/>
<path d="M1318.57 64.2453H1320.09V64.7062H1319.61V67.6251H1319.04V64.7062H1318.57V64.2453Z" fill="white"/>
<path d="M1320.83 65.5031V67.6251H1320.35V64.2453H1320.91L1321.53 66.1848V64.2453H1322V67.6251H1321.5L1320.83 65.5031Z" fill="white"/>
<path d="M1322.32 64.2453H1323.68V64.7062H1322.89V65.676H1323.46V66.1368H1322.89V67.1642H1323.68V67.6251H1322.32V64.2453Z" fill="white"/>
<path d="M1324.55 66.0792V67.6347H1323.98V64.2453H1324.81C1325.39 64.2453 1325.6 64.5334 1325.6 65.0039V65.4359C1325.6 65.8008 1325.46 66.012 1325.15 66.0888L1325.69 67.6251H1325.09L1324.55 66.0696V66.0792ZM1324.55 64.7062V65.7624H1324.74C1324.93 65.7624 1325.02 65.6664 1325.02 65.4839V64.9846C1325.02 64.8022 1324.93 64.7062 1324.74 64.7062H1324.55Z" fill="white"/>
<path d="M1325.86 66.8954V66.4441H1326.39V66.905C1326.39 67.097 1326.47 67.2026 1326.66 67.2026C1326.85 67.2026 1326.92 67.0778 1326.92 66.905V66.7802C1326.92 66.5881 1326.85 66.4633 1326.66 66.3001L1326.33 65.964C1326 65.6472 1325.86 65.4551 1325.86 65.0615V64.9463C1325.86 64.5238 1326.11 64.2069 1326.65 64.2069C1327.2 64.2069 1327.45 64.4854 1327.45 64.9751V65.2535H1326.93V64.9559C1326.93 64.7638 1326.85 64.6678 1326.66 64.6678C1326.5 64.6678 1326.4 64.7542 1326.4 64.9463V65.0135C1326.4 65.2055 1326.5 65.3111 1326.66 65.4743L1327.03 65.8296C1327.34 66.1465 1327.49 66.3385 1327.49 66.7129V66.8762C1327.49 67.337 1327.24 67.6731 1326.66 67.6731C1326.09 67.6731 1325.86 67.3466 1325.86 66.905" fill="white"/>
<path d="M1328.9 66.1368H1328.35V67.6251H1327.79V64.2453H1328.35V65.676H1328.9V64.2453H1329.48V67.6251H1328.9V66.1368Z" fill="white"/>
<path d="M1330.37 64.2453H1329.8V67.6347H1330.37V64.2453Z" fill="white"/>
<path d="M1330.71 64.2453H1331.55C1332.13 64.2453 1332.34 64.5334 1332.34 65.0039V65.7144C1332.34 66.1848 1332.13 66.4825 1331.55 66.4825H1331.27V67.6347H1330.71V64.2453ZM1331.27 64.7062V66.0408H1331.48C1331.68 66.0408 1331.76 65.9448 1331.76 65.7624V64.9846C1331.76 64.8022 1331.68 64.7062 1331.48 64.7062H1331.27Z" fill="white"/>
<path d="M1332.6 66.8954V66.4441H1333.12V66.905C1333.12 67.097 1333.21 67.2026 1333.4 67.2026C1333.58 67.2026 1333.66 67.0778 1333.66 66.905V66.7802C1333.66 66.5881 1333.58 66.4633 1333.4 66.3001L1333.07 65.964C1332.74 65.6472 1332.6 65.4551 1332.6 65.0615V64.9463C1332.6 64.5238 1332.85 64.2069 1333.39 64.2069C1333.94 64.2069 1334.19 64.4854 1334.19 64.9751V65.2535H1333.67V64.9559C1333.67 64.7638 1333.58 64.6678 1333.4 64.6678C1333.24 64.6678 1333.13 64.7542 1333.13 64.9463V65.0135C1333.13 65.2055 1333.24 65.3111 1333.4 65.4743L1333.77 65.8296C1334.07 66.1465 1334.23 66.3385 1334.23 66.7129V66.8762C1334.23 67.337 1333.98 67.6731 1333.4 67.6731C1332.83 67.6731 1332.6 67.3466 1332.6 66.905" fill="white"/>
<path d="M1312.96 68.9885H1314.3V69.4494H1313.53V70.4191H1314.11V70.88H1313.53V72.3778H1312.96V68.9885Z" fill="white"/>
<path d="M1314.5 71.5041V69.8622C1314.5 69.3342 1314.76 68.9501 1315.35 68.9501C1315.95 68.9501 1316.22 69.3342 1316.22 69.8622V71.5041C1316.22 72.0322 1315.96 72.4163 1315.35 72.4163C1314.75 72.4163 1314.5 72.0226 1314.5 71.5041ZM1315.65 71.5905V69.7758C1315.65 69.5742 1315.56 69.4302 1315.35 69.4302C1315.14 69.4302 1315.06 69.5742 1315.06 69.7758V71.5905C1315.06 71.7922 1315.15 71.9362 1315.35 71.9362C1315.55 71.9362 1315.65 71.7922 1315.65 71.5905Z" fill="white"/>
<path d="M1317.11 70.8224V72.3778H1316.54V68.9885H1317.37C1317.94 68.9885 1318.16 69.2765 1318.16 69.747V70.1791C1318.16 70.5439 1318.02 70.7552 1317.7 70.832L1318.25 72.3682H1317.66L1317.12 70.8128L1317.11 70.8224ZM1317.11 69.4494V70.5055H1317.3C1317.49 70.5055 1317.58 70.4095 1317.58 70.2271V69.7278C1317.58 69.5454 1317.49 69.4494 1317.3 69.4494H1317.11Z" fill="white"/>
<path d="M1319.26 68.9885H1320.77V69.4494H1320.31V72.3778H1319.73V69.4494H1319.26V68.9885Z" fill="white"/>
<path d="M1322.15 70.88H1321.6V72.3682H1321.04V68.9885H1321.6V70.4191H1322.15V68.9885H1322.73V72.3682H1322.15V70.88Z" fill="white"/>
<path d="M1323.05 68.9885H1324.42V69.4494H1323.62V70.4191H1324.19V70.88H1323.62V71.9074H1324.42V72.3778H1323.05V68.9885Z" fill="white"/>
<path d="M1326.43 70.5631H1327.24V72.3682H1326.83V71.9938C1326.75 72.253 1326.6 72.4066 1326.28 72.4066C1325.79 72.4066 1325.57 72.013 1325.57 71.4945V69.8526C1325.57 69.3246 1325.82 68.9405 1326.42 68.9405C1327.03 68.9405 1327.24 69.2861 1327.24 69.7854V70.0831H1326.72V69.7374C1326.72 69.5262 1326.65 69.411 1326.43 69.411C1326.22 69.411 1326.14 69.555 1326.14 69.7566V71.5713C1326.14 71.7729 1326.22 71.917 1326.42 71.917C1326.61 71.917 1326.69 71.8113 1326.69 71.5905V70.9952H1326.42V70.5439L1326.43 70.5631Z" fill="white"/>
<path d="M1327.57 71.5041V69.8622C1327.57 69.3342 1327.83 68.9501 1328.42 68.9501C1329.02 68.9501 1329.29 69.3342 1329.29 69.8622V71.5041C1329.29 72.0322 1329.03 72.4163 1328.42 72.4163C1327.82 72.4163 1327.57 72.0226 1327.57 71.5041ZM1328.72 71.5905V69.7758C1328.72 69.5742 1328.63 69.4302 1328.42 69.4302C1328.21 69.4302 1328.13 69.5742 1328.13 69.7758V71.5905C1328.13 71.7922 1328.22 71.9362 1328.42 71.9362C1328.62 71.9362 1328.72 71.7922 1328.72 71.5905Z" fill="white"/>
<path d="M1329.45 72.3778L1330.09 68.9885H1330.74L1331.39 72.3778H1330.8L1330.7 71.7537H1330.09L1329.99 72.3778H1329.46H1329.45ZM1330.16 71.3025H1330.61L1330.39 69.9486L1330.17 71.3025H1330.16Z" fill="white"/>
<path d="M1331.62 68.9885H1332.18V71.9074H1332.87V72.3778H1331.62V68.9885Z" fill="white"/>
<path d="M1333.07 71.6481V71.1969H1333.59V71.6577C1333.59 71.8498 1333.68 71.9554 1333.87 71.9554C1334.06 71.9554 1334.13 71.8306 1334.13 71.6577V71.5233C1334.13 71.3313 1334.06 71.2065 1333.87 71.0432L1333.54 70.7072C1333.21 70.3903 1333.07 70.1983 1333.07 69.8046V69.6894C1333.07 69.2669 1333.32 68.9405 1333.86 68.9405C1334.41 68.9405 1334.66 69.2189 1334.66 69.7086V69.9775H1334.14V69.6798C1334.14 69.4878 1334.06 69.3918 1333.87 69.3918C1333.71 69.3918 1333.6 69.4782 1333.6 69.6702V69.7374C1333.6 69.9294 1333.71 70.0351 1333.87 70.1983L1334.24 70.5535C1334.55 70.8704 1334.7 71.0624 1334.7 71.4369V71.6001C1334.7 72.061 1334.45 72.397 1333.87 72.397C1333.3 72.397 1333.07 72.0706 1333.07 71.6289" fill="white"/>
<text fill="#006D5A" xml:space="preserve" style="white-space: pre" font-family="VNM Sans Display" font-size="80" font-weight="bold" letter-spacing="0em"><tspan x="762.5" y="190.6">WASTE MANAGEMENT</tspan></text>
<text fill="#006D5A" xml:space="preserve" style="white-space: pre" font-family="VNM Sans Std" font-size="32" letter-spacing="0em"><tspan x="881.516" y="238.572">Circular economy - &#x2028;</tspan><tspan x="853.891" y="275.572"> Building a green future</tspan></text>
<text fill="#006D5A" xml:space="preserve" style="white-space: pre" font-family="VNM Sans Std" font-size="16" font-weight="500" letter-spacing="0em"><tspan x="758.203" y="301.536">Guided by commitments to sustainable development and environmental </tspan><tspan x="800.117" y="319.536">protection, Vinamilk has achieved impressive results in 2023:</tspan></text>
<rect x="728" y="344" width="560" height="358" rx="8" fill="#006D5A"/>
<text fill="#FFFFF1" xml:space="preserve" style="white-space: pre" font-family="VNM Sans Display" font-size="60" font-weight="bold" letter-spacing="0em"><tspan x="830.125" y="462" data-counter data-delay="600" data-from="0" data-to="100" data-ori="100%">100%</tspan></text>
<text fill="#FFFFF1" xml:space="preserve" style="white-space: pre" font-family="VNM Sans Std" font-size="16" letter-spacing="0em"><tspan x="779.078" y="484.536">completion of environmental </tspan><tspan x="783.172" y="502.536">reports on schedule, regular </tspan><tspan x="789.305" y="520.536">environmental monitoring</tspan></text>
<line x1="989" y1="548.5" x2="765" y2="548.5" stroke="#FFFFF1" stroke-width="3"/>
<text fill="#2DFFB3" xml:space="preserve" style="white-space: pre" font-family="VNM Sans Display" font-size="32" font-weight="bold" letter-spacing="0em"><tspan x="784.344" y="616.2">NO ENVIRONMENTAL&#10;</tspan><tspan x="829.812" y="650.2">INCIDENTS</tspan></text>
<text fill="#FFFFF1" xml:space="preserve" style="white-space: pre" font-family="VNM Sans Display" font-size="32" font-weight="bold" letter-spacing="0em"><tspan x="1057.91" y="449.2">NO COMMUNITY&#10;</tspan><tspan x="1018.62" y="483.2">COMPLAINTS REGARDING&#10;</tspan><tspan x="1044.7" y="517.2">THE ENVIRONMENT</tspan></text>
<line x1="1243" y1="548.5" x2="1019" y2="548.5" stroke="#FFFFF1" stroke-width="3"/>
<text fill="#2DFFB3" xml:space="preserve" style="white-space: pre" font-family="VNM Sans Display" font-size="32" font-weight="bold" letter-spacing="0em"><tspan x="1088.92" y="616.2">NO LEGAL&#10;</tspan><tspan x="1076.56" y="650.2">VIOLATIONS</tspan></text>
<text fill="#FFFFF1" xml:space="preserve" style="white-space: pre" font-family="VNM Sans Display" font-size="24" letter-spacing="0em"><tspan x="850.684" y="384.16">STRICT COMPLIANCE WITH ENVIRONMENTAL REGULATIONS:</tspan></text>
</g>
<defs>
<clipPath id="clip0_316_18782">
<rect width="1440" height="774" fill="white"/>
</clipPath>
</defs>
</svg>
