<svg width="1440" height="774" viewBox="0 0 1440 774" fill="none" xmlns="http://www.w3.org/2000/svg">
<g clip-path="url(#clip0_141_2626)">
<path d="M1090 61H1050V101H1090V61Z" fill="#F26A2B"/>
<path d="M1057.33 66.3804C1057.33 65.1307 1056.78 64.2244 1055.35 64.2244C1053.92 64.2244 1053.36 65.0067 1053.36 66.2564V67.4488C1053.36 68.7653 1053.88 69.4331 1054.86 69.4331C1055.43 69.4331 1055.77 69.166 1055.97 68.7749H1055.98V70.5111C1055.98 70.9976 1055.79 71.341 1055.3 71.341C1054.82 71.341 1054.64 71.0549 1054.64 70.5588V70.0246H1053.4V70.4539C1053.4 71.6463 1053.83 72.4763 1055.32 72.4763C1056.82 72.4763 1057.32 71.5605 1057.32 70.3012V66.3804H1057.33ZM1055.98 67.6206C1055.95 68.0689 1055.77 68.3551 1055.34 68.3551C1054.87 68.3551 1054.7 68.0689 1054.7 67.5442V66.1419C1054.7 65.6363 1054.89 65.331 1055.35 65.331C1055.81 65.331 1055.98 65.6363 1055.98 66.1419V67.6206Z" fill="#FFFFF1"/>
<path d="M1077.72 89.3711L1074.05 87.2533V83.0081C1074.05 82.9223 1074 82.8364 1073.93 82.7887L1070.13 80.5946C1070.05 80.5469 1069.96 80.5469 1069.88 80.5946L1066.08 82.7887C1066.01 82.8364 1065.96 82.9127 1065.96 83.0081V87.2533L1062.29 89.3711C1062.21 89.4188 1062.16 89.4951 1062.16 89.5905V93.9788C1062.16 94.0646 1062.21 94.1505 1062.29 94.1982L1066.08 96.3923C1066.08 96.3923 1066.17 96.4305 1066.21 96.4305C1066.25 96.4305 1066.29 96.4209 1066.33 96.3923L1070 94.2745L1073.68 96.3923C1073.68 96.3923 1073.76 96.4305 1073.8 96.4305C1073.84 96.4305 1073.89 96.4209 1073.93 96.3923L1077.72 94.1982C1077.8 94.1505 1077.85 94.0742 1077.85 93.9788V89.5905C1077.85 89.5047 1077.8 89.4188 1077.72 89.3711ZM1069.75 93.5399L1066.7 91.7846L1069.75 90.0293V93.5495V93.5399ZM1073.3 87.3868L1070.25 89.1421V85.622L1073.3 87.3773V87.3868ZM1069.75 89.1517L1066.7 87.3964L1069.75 85.6411V89.1612V89.1517ZM1070.5 89.581L1073.8 87.673L1077.1 89.581L1073.8 91.4889L1070.5 89.581ZM1073.54 86.9575L1070.5 85.2022L1073.54 83.4469V86.9671V86.9575ZM1069.5 85.2022L1066.46 86.9575V83.4374L1069.5 85.1927V85.2022ZM1065.95 95.7341L1062.65 93.8261V90.0198L1065.95 91.9277V95.7341ZM1066.46 95.7341V92.2139L1069.5 93.9692L1066.46 95.7245V95.7341ZM1077.35 93.8261L1074.05 95.7341V91.9277L1077.35 90.0198V93.8261Z" fill="#FFFFF1"/>
<path d="M1062.82 67.8304C1062.82 68.1357 1062.67 68.2788 1062.37 68.2788H1062.08C1061.78 68.2788 1061.63 68.1357 1061.63 67.8304V66.2659C1061.63 65.9606 1061.78 65.8176 1062.08 65.8176H1062.37C1062.68 65.8176 1062.82 65.9702 1062.82 66.2659V66.8383H1062.34V66.3232C1062.34 66.2659 1062.32 66.2373 1062.26 66.2373H1062.2C1062.14 66.2373 1062.12 66.2659 1062.12 66.3232V67.7827C1062.12 67.84 1062.14 67.8686 1062.2 67.8686H1062.27C1062.33 67.8686 1062.35 67.84 1062.35 67.7827V67.1913H1062.83V67.8304H1062.82Z" fill="#FFFFF1"/>
<path d="M1063.62 66.2278H1063.56C1063.5 66.2278 1063.47 66.2564 1063.47 66.3136V67.7732C1063.47 67.8304 1063.5 67.8591 1063.56 67.8591H1063.62C1063.68 67.8591 1063.71 67.8304 1063.71 67.7732V66.3136C1063.71 66.2564 1063.68 66.2278 1063.62 66.2278ZM1063.68 65.7412L1063.58 65.6268L1063.49 65.7412H1063.28L1063.45 65.4455H1063.72L1063.89 65.7412H1063.68ZM1063.74 68.2788H1063.42C1063.12 68.2788 1062.97 68.1262 1062.97 67.8304V66.2659C1062.97 65.9606 1063.13 65.8176 1063.42 65.8176H1063.74C1064.04 65.8176 1064.19 65.9702 1064.19 66.2659V67.8304C1064.19 68.1357 1064.04 68.2788 1063.74 68.2788Z" fill="#FFFFF1"/>
<path d="M1064.76 66.9337L1064.77 67.5538L1064.78 68.2597H1064.36V65.8366H1064.85L1065.13 67.0291L1065.12 66.3327V65.8366H1065.54V68.2597H1065.07L1064.76 66.9337Z" fill="#FFFFF1"/>
<path d="M1066.29 66.886H1066.92V67.8209C1066.92 68.1262 1066.77 68.2693 1066.48 68.2693H1066.16C1065.85 68.2693 1065.71 68.1166 1065.71 67.8209V66.2564C1065.71 65.9606 1065.86 65.808 1066.16 65.808H1066.47C1066.77 65.808 1066.91 65.9606 1066.91 66.2564V66.7238H1066.44V66.3136C1066.44 66.2564 1066.41 66.2278 1066.35 66.2278H1066.28C1066.23 66.2278 1066.2 66.2564 1066.2 66.3136V67.7732C1066.2 67.8304 1066.23 67.8591 1066.28 67.8591H1066.36C1066.42 67.8591 1066.45 67.8304 1066.45 67.7732V67.2867H1066.29V66.886Z" fill="#FFFFF1"/>
<path d="M1067.95 66.9337L1067.96 67.5538L1067.97 68.2597H1067.55V65.8366H1068.05L1068.33 67.0291L1068.32 66.3327V65.8366H1068.74V68.2597H1068.27L1067.95 66.9337Z" fill="#FFFFF1"/>
<path d="M1069.49 66.886H1070.12V67.8209C1070.12 68.1262 1069.97 68.2693 1069.67 68.2693H1069.36C1069.05 68.2693 1068.91 68.1166 1068.91 67.8209V66.2564C1068.91 65.9606 1069.06 65.808 1069.36 65.808H1069.66C1069.97 65.808 1070.11 65.9606 1070.11 66.2564V66.7238H1069.63V66.3136C1069.63 66.2564 1069.6 66.2278 1069.55 66.2278H1069.48C1069.42 66.2278 1069.39 66.2564 1069.39 66.3136V67.7732C1069.39 67.8304 1069.42 67.8591 1069.48 67.8591H1069.56C1069.61 67.8591 1069.64 67.8304 1069.64 67.7732V67.2867H1069.49V66.886Z" fill="#FFFFF1"/>
<path d="M1071.01 65.8366H1071.49V68.2597H1071.01V67.239H1070.76V68.2597H1070.28V65.8366H1070.76V66.8097H1071.01V65.8366Z" fill="#FFFFF1"/>
<path d="M1072.15 65.8366H1071.66V68.2597H1072.15V65.8366Z" fill="#FFFFF1"/>
<path d="M1072.58 68.8703H1072.97V68.4696H1072.58V68.8703ZM1072.32 65.8366V68.2597H1073.23V67.8304H1072.81V67.2485H1073.21V66.8192H1072.81V66.2755H1073.23V65.8462H1072.33L1072.32 65.8366ZM1072.64 65.4455L1072.47 65.7412H1072.68L1072.77 65.6268L1072.87 65.7412H1073.08L1072.9 65.4455H1072.64Z" fill="#FFFFF1"/>
<path d="M1073.97 66.2468H1073.87V67.0005H1073.97C1074.03 67.0005 1074.06 66.9719 1074.06 66.9146V66.3422C1074.06 66.285 1074.03 66.2564 1073.97 66.2564M1073.39 68.2597V65.8366H1074.1C1074.4 65.8366 1074.55 65.9893 1074.55 66.285V66.9719C1074.55 67.2771 1074.39 67.4202 1074.1 67.4202H1073.87V68.2597H1073.38H1073.39Z" fill="#FFFFF1"/>
<path d="M1074.61 68.5459L1074.53 68.6699L1074.35 68.6222L1074.39 68.5173C1074.45 68.3933 1074.48 68.3265 1074.5 68.2597H1074.35V67.7255H1074.79V68.0308C1074.79 68.2788 1074.77 68.336 1074.61 68.5459Z" fill="#FFFFF1"/>
<path d="M1062.29 71.3601H1062.15V71.9897H1062.25C1062.34 71.9897 1062.38 71.9516 1062.38 71.8562V70.5302C1062.38 70.4348 1062.34 70.3966 1062.25 70.3966H1062.15V70.9881H1062.29V71.3601ZM1061.54 71.3601V70.9976H1061.67V69.9864H1062.35C1062.71 69.9864 1062.87 70.1581 1062.87 70.5016V71.8848C1062.87 72.2378 1062.7 72.4095 1062.35 72.4095H1061.67V71.3601H1061.54Z" fill="#FFFFF1"/>
<path d="M1064.01 69.4808V69.4522C1064.01 69.4522 1064.01 69.4426 1064 69.4426H1063.99C1063.99 69.4426 1063.99 69.4426 1063.99 69.4522V69.4999H1063.82V69.4522C1063.82 69.3377 1063.88 69.29 1063.99 69.29H1064.03C1064.15 69.29 1064.2 69.3377 1064.2 69.4522V69.4713C1064.2 69.5285 1064.18 69.5762 1064.14 69.6239L1064.09 69.6811C1064.09 69.6811 1064.06 69.7098 1064.06 69.7575H1063.92V69.7002C1063.92 69.6334 1063.92 69.6144 1063.96 69.5762L1063.99 69.5476C1063.99 69.5476 1064.01 69.5094 1064.01 69.4903M1063.67 70.3775H1063.6C1063.55 70.3775 1063.52 70.4062 1063.52 70.4634V71.923C1063.52 71.9802 1063.55 72.0088 1063.6 72.0088H1063.67C1063.73 72.0088 1063.76 71.9802 1063.76 71.923V70.4634C1063.76 70.4062 1063.73 70.3775 1063.67 70.3775ZM1063.73 69.891L1063.63 69.7765L1063.54 69.891H1063.33L1063.5 69.5953H1063.77L1063.94 69.891H1063.73ZM1063.79 72.4286H1063.48C1063.17 72.4286 1063.03 72.2759 1063.03 71.9802V70.4157C1063.03 70.12 1063.18 69.9673 1063.48 69.9673H1063.79C1064.1 69.9673 1064.24 70.12 1064.24 70.4157V71.9802C1064.24 72.2855 1064.1 72.4286 1063.79 72.4286Z" fill="#FFFFF1"/>
<path d="M1064.89 69.9864H1064.4V72.4095H1064.89V69.9864Z" fill="#FFFFF1"/>
<path d="M1065.93 72.4095H1065.54V69.9864H1066.24L1066.38 71.4555L1066.52 69.9864H1067.23V72.4095H1066.75V70.8259L1066.57 72.4095H1066.11L1065.93 70.8068V72.4095Z" fill="#FFFFF1"/>
<path d="M1068.12 70.4634C1068.12 70.4062 1068.09 70.3775 1068.03 70.3775H1067.96C1067.91 70.3775 1067.88 70.4062 1067.88 70.4634V71.923C1067.88 71.9802 1067.91 72.0088 1067.96 72.0088H1068.03C1068.09 72.0088 1068.12 71.9802 1068.12 71.923V70.4634ZM1068.13 69.891H1067.88L1067.98 69.5953H1068.32L1068.13 69.891ZM1068.85 69.8147V69.9196C1068.85 70.12 1068.76 70.2154 1068.58 70.2249C1068.6 70.2821 1068.6 70.3394 1068.6 70.4157V71.9802C1068.6 72.2855 1068.45 72.4286 1068.15 72.4286H1067.84C1067.53 72.4286 1067.39 72.2759 1067.39 71.9802V70.4157C1067.39 70.1104 1067.54 69.9673 1067.84 69.9673H1068.15C1068.27 69.9673 1068.36 69.9864 1068.43 70.0341V69.9864H1068.49C1068.55 69.9864 1068.57 69.9578 1068.57 69.9005V69.8147H1068.85Z" fill="#FFFFF1"/>
<path d="M1069.26 69.9864H1068.77V72.4095H1069.26V69.9864Z" fill="#FFFFF1"/>
<path d="M1070.57 71.9516L1070.62 71.818L1070.4 71.3983C1070.4 71.3983 1070.34 71.4746 1070.34 71.5509V71.9516C1070.34 72.0088 1070.36 72.0279 1070.41 72.0279H1070.48C1070.53 72.0279 1070.56 72.0088 1070.58 71.9516M1070.47 72.4286H1070.29C1070.01 72.4286 1069.87 72.2855 1069.87 72.0088V71.5223C1069.87 71.3506 1069.91 71.217 1070.03 71.1121L1070.17 70.9976L1070.09 70.8545C1070.01 70.721 1070 70.6351 1070 70.5016V70.4252C1070 70.1295 1070.16 69.9769 1070.45 69.9769H1070.66C1070.97 69.9769 1071.11 70.1295 1071.11 70.4252V70.7496H1070.66V70.4729C1070.66 70.4157 1070.63 70.3871 1070.58 70.3871H1070.54C1070.48 70.3871 1070.45 70.4157 1070.45 70.4729V70.5206C1070.45 70.6065 1070.47 70.6733 1070.52 70.7496L1070.83 71.3029L1070.93 70.9785H1071.41L1071.12 71.7799L1071.46 72.419H1070.97L1070.85 72.2187C1070.78 72.3713 1070.68 72.4381 1070.47 72.4381" fill="#FFFFF1"/>
<path d="M1073.17 71.9802C1073.17 72.2855 1073.02 72.4286 1072.72 72.4286H1072.43C1072.13 72.4286 1071.98 72.2759 1071.98 71.9802V70.4157C1071.98 70.1104 1072.13 69.9673 1072.43 69.9673H1072.72C1073.03 69.9673 1073.17 70.12 1073.17 70.4157V70.9881H1072.69V70.4729C1072.69 70.4157 1072.67 70.3871 1072.61 70.3871H1072.55C1072.49 70.3871 1072.47 70.4157 1072.47 70.4729V71.9325C1072.47 71.9897 1072.49 72.0184 1072.55 72.0184H1072.62C1072.68 72.0184 1072.7 71.9897 1072.7 71.9325V71.341H1073.18V71.9802H1073.17Z" fill="#FFFFF1"/>
<path d="M1074.05 70.4634C1074.05 70.4062 1074.02 70.3775 1073.96 70.3775H1073.9C1073.84 70.3775 1073.81 70.4062 1073.81 70.4634V71.923C1073.81 71.9802 1073.84 72.0088 1073.9 72.0088H1073.96C1074.02 72.0088 1074.05 71.9802 1074.05 71.923V70.4634ZM1074.77 69.8147V69.9196C1074.77 70.12 1074.69 70.2154 1074.51 70.2249C1074.53 70.2821 1074.53 70.3394 1074.53 70.4157V71.9802C1074.53 72.2855 1074.37 72.4286 1074.08 72.4286H1073.76C1073.46 72.4286 1073.32 72.2759 1073.32 71.9802V70.4157C1073.32 70.1104 1073.47 69.9673 1073.76 69.9673H1074.08C1074.19 69.9673 1074.29 69.9864 1074.35 70.0341V69.9864H1074.41C1074.47 69.9864 1074.5 69.9578 1074.5 69.9005V69.8147H1074.77Z" fill="#FFFFF1"/>
<path d="M1076.33 71.5318V71.9802C1076.33 72.2855 1076.18 72.4286 1075.88 72.4286H1075.61C1075.31 72.4286 1075.17 72.2855 1075.17 71.9802V71.4651H1075.64V71.9325C1075.64 71.9897 1075.67 72.0184 1075.73 72.0184H1075.78C1075.83 72.0184 1075.86 71.9897 1075.86 71.9325V71.6463C1075.86 71.57 1075.84 71.5318 1075.78 71.4937L1075.36 71.1884C1075.2 71.0835 1075.17 70.9785 1075.17 70.8068V70.4252C1075.17 70.12 1075.32 69.9769 1075.61 69.9769H1075.88C1076.19 69.9769 1076.33 70.1295 1076.33 70.4252V70.8641H1075.85V70.4634C1075.85 70.4062 1075.82 70.3775 1075.77 70.3775H1075.73C1075.67 70.3775 1075.64 70.4062 1075.64 70.4634V70.6923C1075.64 70.7687 1075.67 70.8068 1075.73 70.845L1076.15 71.1503C1076.29 71.2552 1076.34 71.3506 1076.34 71.5318" fill="#FFFFF1"/>
<path d="M1077.2 70.4634C1077.2 70.4062 1077.17 70.3775 1077.11 70.3775H1077.05C1076.99 70.3775 1076.96 70.4062 1076.96 70.4634V71.923C1076.96 71.9802 1076.99 72.0088 1077.05 72.0088H1077.11C1077.17 72.0088 1077.2 71.9802 1077.2 71.923V70.4634ZM1077.05 69.5476H1076.88V69.4999C1076.88 69.3854 1076.94 69.3377 1077.05 69.3377H1077.09C1077.21 69.3377 1077.25 69.3854 1077.25 69.4999V69.519C1077.25 69.5762 1077.25 69.6239 1077.2 69.6716L1077.15 69.7288C1077.15 69.7288 1077.12 69.7575 1077.12 69.8052H1076.98V69.7479C1076.98 69.6811 1076.98 69.6621 1077.02 69.6239L1077.05 69.5953C1077.05 69.5953 1077.07 69.5571 1077.07 69.538V69.5094C1077.07 69.5094 1077.07 69.4999 1077.06 69.4999H1077.05C1077.05 69.4999 1077.05 69.4999 1077.05 69.5094V69.5571V69.5476ZM1077.92 69.8147V69.9196C1077.92 70.12 1077.84 70.2154 1077.66 70.2249C1077.67 70.2821 1077.67 70.3394 1077.67 70.4157V71.9802C1077.67 72.2855 1077.52 72.4286 1077.23 72.4286H1076.91C1076.61 72.4286 1076.46 72.2759 1076.46 71.9802V70.4157C1076.46 70.1104 1076.62 69.9673 1076.91 69.9673H1077.23C1077.34 69.9673 1077.44 69.9864 1077.5 70.0341V69.9864H1077.56C1077.62 69.9864 1077.65 69.9578 1077.65 69.9005V69.8147H1077.92Z" fill="#FFFFF1"/>
<path d="M1062.36 74.1362H1062.85V76.5593H1062.36V75.5481H1062.12V76.5593H1061.64V74.1362H1062.12V75.1092H1062.36V74.1362Z" fill="#FFFFF1"/>
<path d="M1063.68 75.7865L1063.58 74.7276L1063.47 75.7865H1063.68ZM1063.4 76.7787H1063.79V77.1793H1063.4V76.7787ZM1063.73 76.2063H1063.42L1063.38 76.5593H1062.95L1063.26 74.1362H1063.92L1064.23 76.5593H1063.75L1063.71 76.2063H1063.73Z" fill="#FFFFF1"/>
<path d="M1065.06 74.5655H1064.77V74.1362H1065.85V74.5655H1065.55V76.5593H1065.06V74.5655Z" fill="#FFFFF1"/>
<path d="M1066.71 73.8595L1066.52 73.5638H1066.86L1066.96 73.8595H1066.71ZM1066.48 75.7865L1066.38 74.7276L1066.27 75.7865H1066.48ZM1066.5 74.0408L1066.41 73.9263L1066.31 74.0408H1066.1L1066.28 73.7451H1066.55L1066.72 74.0408H1066.5ZM1066.53 76.2063H1066.23L1066.19 76.5593H1065.75L1066.06 74.1362H1066.72L1067.04 76.5593H1066.55L1066.51 76.2063H1066.53Z" fill="#FFFFF1"/>
<path d="M1067.56 75.2428V75.8533L1067.57 76.5593H1067.15V74.1362H1067.65L1067.93 75.3382L1067.93 74.6418L1067.92 74.1362H1068.34V76.5593H1067.87L1067.56 75.2428Z" fill="#FFFFF1"/>
<path d="M1069.09 75.1855H1069.72V76.1204C1069.72 76.4257 1069.57 76.5688 1069.27 76.5688H1068.96C1068.65 76.5688 1068.51 76.4162 1068.51 76.1204V74.5559C1068.51 74.2507 1068.66 74.1076 1068.96 74.1076H1069.26C1069.57 74.1076 1069.71 74.2602 1069.71 74.5559V75.0234H1069.23V74.6132C1069.23 74.5559 1069.2 74.5273 1069.15 74.5273H1069.08C1069.02 74.5273 1068.99 74.5559 1068.99 74.6132V76.0727C1068.99 76.13 1069.02 76.1586 1069.08 76.1586H1069.16C1069.21 76.1586 1069.24 76.13 1069.24 76.0727V75.5862H1069.09V75.1855Z" fill="#FFFFF1"/>
<path d="M1140 61H1100V101H1140V61Z" fill="#BF8D2C"/>
<path d="M1104 66.2564H1104.01V72.4381H1105.36V64.3675H1104.28L1103.03 65.8271V67.2485H1103.04L1104 66.2564Z" fill="#FFFFF1"/>
<path d="M1106.17 66.037V67.01H1107.41V65.9988C1107.41 65.5123 1107.65 65.3692 1107.94 65.3692C1108.2 65.3692 1108.42 65.4741 1108.42 65.9797V66.6475C1108.42 67.3153 1108.37 67.5729 1107.93 68.0403L1107.16 68.8512C1106.43 69.6334 1106.15 70.1581 1106.15 70.9595V72.4477H1109.67V71.341H1107.45V70.9595C1107.45 70.3298 1107.68 70.0913 1108.02 69.7193L1108.89 68.8035C1109.6 68.0498 1109.75 67.5824 1109.75 66.7715V65.9893C1109.75 64.835 1109.19 64.2912 1107.98 64.2912C1106.76 64.2912 1106.18 64.9208 1106.18 66.056" fill="#FFFFF1"/>
<path d="M1130.96 82.4357C1129.33 81.1479 1127.37 81.0048 1126.61 81.0048C1126.21 81.0048 1125.83 81.0429 1125.56 81.1002L1125.45 81.1288C1124.42 81.3768 1122.69 81.7775 1120.67 84.2769L1120.62 84.3532C1120.59 84.4009 1120.57 84.4486 1120.57 84.5058C1120.57 84.5535 1120.58 84.5917 1120.61 84.6394L1120.65 84.7157C1120.99 85.269 1121.26 85.7555 1121.48 86.1658C1121.56 86.3184 1121.77 86.3661 1121.91 86.223C1121.92 86.2039 1121.94 86.1848 1121.95 86.1658C1123.69 83.7617 1125.05 83.4374 1125.96 83.2275L1126.07 83.1989C1126.2 83.1703 1126.4 83.1512 1126.63 83.1512C1127.05 83.1512 1128.5 83.218 1129.64 84.1147C1130.65 84.916 1131.17 86.1848 1131.17 87.902C1131.17 90.783 1129.77 91.8991 1128.61 92.3379C1128.16 92.5001 1127.68 92.586 1127.18 92.586C1125.98 92.586 1125.05 92.0995 1125.04 92.0995L1124.96 92.0613C1123.95 91.6225 1122.46 90.7162 1121.04 87.8734C1118.13 82.0351 1115.68 81.4818 1114.07 81.1192L1113.99 81.1002C1113.86 81.0715 1113.52 81.0048 1112.95 81.0048C1112.01 81.0048 1110.21 81.186 1108.66 82.4166C1107.61 83.2561 1106.35 84.8874 1106.35 87.8924C1106.35 89.7241 1106.73 90.9356 1107.7 92.2044C1107.88 92.4524 1109.57 94.6275 1112.8 94.6275C1113.28 94.6275 1113.78 94.5798 1114.28 94.4844C1114.87 94.3699 1115.78 94.0742 1116.8 93.3301L1117.65 94.0933C1117.74 94.1791 1117.91 94.1696 1117.99 94.0742C1118.03 94.0265 1118.06 93.9692 1118.06 93.912L1118.72 89.8576V89.8099C1118.72 89.7431 1118.69 89.6764 1118.64 89.6382C1118.59 89.6 1118.55 89.5714 1118.47 89.5714L1114.53 90.659H1114.45C1114.4 90.678 1114.36 90.7067 1114.33 90.7448C1114.28 90.7925 1114.26 90.8593 1114.26 90.9261C1114.26 90.9928 1114.29 91.0501 1114.34 91.0978L1115.16 91.8323C1114.73 92.0995 1114.3 92.2712 1113.88 92.3475C1113.53 92.4143 1113.17 92.4524 1112.83 92.4524C1110.6 92.4524 1109.5 90.9833 1109.45 90.9261L1109.43 90.8974C1108.76 90.0007 1108.53 89.2471 1108.53 87.8829C1108.53 86.1562 1109.03 84.8874 1110.03 84.0861C1111.13 83.2084 1112.55 83.1321 1112.96 83.1321C1113.19 83.1321 1113.39 83.1512 1113.53 83.1798L1113.61 83.1989C1114.9 83.4946 1116.68 83.8953 1119.12 88.8178C1120.41 91.4126 1122.04 93.1107 1124.08 94.0074C1124.32 94.1314 1125.58 94.7324 1127.2 94.7324C1127.95 94.7324 1128.69 94.5989 1129.38 94.3508C1130.57 93.9025 1133.34 92.3856 1133.34 87.8924C1133.34 84.8874 1132.06 83.2561 1130.99 82.4071" fill="#FFFFF1"/>
<path d="M1111.88 66.1419H1111.58V65.7126H1112.66V66.1419H1112.36V68.1357H1111.88V66.1419Z" fill="#FFFFF1"/>
<path d="M1113.27 65.7126H1112.78V68.1357H1113.27V65.7126Z" fill="#FFFFF1"/>
<path d="M1113.44 65.7126V68.1357H1114.35V67.7064H1113.93V67.1245H1114.33V66.6952H1113.93V66.1514H1114.35V65.7222H1113.45L1113.44 65.7126ZM1113.76 65.3215L1113.58 65.6172H1113.79L1113.89 65.5027L1113.99 65.6172H1114.2L1114.02 65.3215H1113.76Z" fill="#FFFFF1"/>
<path d="M1115.24 68.1548H1114.95C1114.64 68.1548 1114.5 68.0021 1114.5 67.7064V65.7126H1114.99V67.6492C1114.99 67.7064 1115.02 67.735 1115.07 67.735H1115.13C1115.19 67.735 1115.22 67.7064 1115.22 67.6492V65.7126H1115.7V67.7064C1115.7 68.0117 1115.56 68.1548 1115.25 68.1548" fill="#FFFFF1"/>
<path d="M1116.91 67.716C1117.01 67.716 1117.05 67.6778 1117.05 67.5824V66.2564C1117.05 66.161 1117.01 66.1228 1116.91 66.1228H1116.82V67.716H1116.91ZM1117.02 65.7126C1117.37 65.7126 1117.53 65.8843 1117.53 66.2278V67.611C1117.53 67.964 1117.36 68.1262 1117.02 68.1262H1116.34V65.7031H1117.02V65.7126Z" fill="#FFFFF1"/>
<path d="M1118.17 65.6172L1117.98 65.3215H1118.32L1118.42 65.6172H1118.17ZM1118.44 68.1548H1118.14C1117.84 68.1548 1117.7 68.0021 1117.7 67.7064V65.7126H1118.18V67.6492C1118.18 67.7064 1118.21 67.735 1118.27 67.735H1118.33C1118.38 67.735 1118.41 67.7064 1118.41 67.6492V65.7126H1118.9V67.7064C1118.9 68.0117 1118.75 68.1548 1118.45 68.1548" fill="#FFFFF1"/>
<path d="M1119.46 66.8192L1119.47 67.4298L1119.48 68.1357H1119.06V65.7126H1119.56L1119.83 66.9146L1119.82 66.2087V65.7126H1120.24V68.1357H1119.78L1119.46 66.8192Z" fill="#FFFFF1"/>
<path d="M1121 66.762H1121.63V67.6969C1121.63 68.0021 1121.47 68.1452 1121.18 68.1452H1120.86C1120.56 68.1452 1120.41 67.9926 1120.41 67.6969V66.1324C1120.41 65.8366 1120.57 65.684 1120.86 65.684H1121.17C1121.46 65.684 1121.62 65.8366 1121.62 66.1324V66.5998H1121.14V66.1896C1121.14 66.1324 1121.11 66.1037 1121.05 66.1037H1120.99C1120.93 66.1037 1120.9 66.1324 1120.9 66.1896V67.6492C1120.9 67.7064 1120.93 67.735 1120.99 67.735H1121.06C1121.12 67.735 1121.15 67.7064 1121.15 67.6492V67.1627H1121V66.762Z" fill="#FFFFF1"/>
<path d="M1112.3 71.8276L1112.35 71.694L1112.12 71.2743C1112.12 71.2743 1112.07 71.3506 1112.07 71.4269V71.8276C1112.07 71.8848 1112.09 71.9039 1112.14 71.9039H1112.2C1112.25 71.9039 1112.28 71.8848 1112.31 71.8276M1112.21 72.3046H1112.03C1111.75 72.3046 1111.61 72.1615 1111.61 71.8848V71.3983C1111.61 71.2266 1111.65 71.093 1111.77 70.9881L1111.91 70.8736L1111.83 70.7305C1111.75 70.5969 1111.74 70.5111 1111.74 70.3775V70.3012C1111.74 70.0055 1111.9 69.8528 1112.19 69.8528H1112.4C1112.71 69.8528 1112.85 70.0055 1112.85 70.3012V70.6256H1112.4V70.3489C1112.4 70.2917 1112.37 70.2631 1112.32 70.2631H1112.28C1112.22 70.2631 1112.19 70.2917 1112.19 70.3489V70.3966C1112.19 70.4825 1112.22 70.5492 1112.26 70.6256L1112.56 71.1789L1112.67 70.8545H1113.15L1112.86 71.6559L1113.2 72.295H1112.71L1112.59 72.0947C1112.52 72.2473 1112.41 72.3141 1112.21 72.3141" fill="#FFFFF1"/>
<path d="M1114.86 71.4078V71.8562C1114.86 72.1615 1114.71 72.3046 1114.41 72.3046H1114.15C1113.84 72.3046 1113.7 72.1615 1113.7 71.8562V71.341H1114.18V71.8085C1114.18 71.8657 1114.2 71.8943 1114.26 71.8943H1114.31C1114.37 71.8943 1114.4 71.8657 1114.4 71.8085V71.5223C1114.4 71.446 1114.37 71.4078 1114.31 71.3697L1113.89 71.0644C1113.74 70.9595 1113.7 70.8545 1113.7 70.6828V70.3012C1113.7 69.9959 1113.85 69.8528 1114.15 69.8528H1114.41C1114.72 69.8528 1114.86 70.0055 1114.86 70.3012V70.74H1114.39V70.3394C1114.39 70.2821 1114.36 70.2535 1114.3 70.2535H1114.26C1114.2 70.2535 1114.18 70.2821 1114.18 70.3394V70.5683C1114.18 70.6446 1114.2 70.6828 1114.26 70.721L1114.68 71.0262C1114.83 71.1312 1114.87 71.2266 1114.87 71.4078" fill="#FFFFF1"/>
<path d="M1115.65 71.5128L1115.55 70.4539L1115.44 71.5128H1115.65ZM1115.59 69.414V69.3854C1115.59 69.3854 1115.59 69.3663 1115.58 69.3663H1115.57C1115.57 69.3663 1115.56 69.3663 1115.56 69.3854V69.4331H1115.4V69.3854C1115.4 69.2709 1115.45 69.2232 1115.56 69.2232H1115.61C1115.72 69.2232 1115.77 69.2805 1115.77 69.3854V69.4045C1115.77 69.4713 1115.76 69.5094 1115.71 69.5571L1115.66 69.6144C1115.66 69.6144 1115.64 69.643 1115.64 69.6907H1115.49V69.6334C1115.49 69.5667 1115.49 69.5476 1115.53 69.5094L1115.56 69.4808C1115.56 69.4808 1115.59 69.4426 1115.59 69.414ZM1115.7 71.9325H1115.4L1115.36 72.2855H1114.92L1115.23 69.8624H1115.89L1116.21 72.2855H1115.73L1115.69 71.9325H1115.7Z" fill="#FFFFF1"/>
<path d="M1116.73 70.969L1116.74 71.5795V72.2855H1116.32V69.8624H1116.82L1117.1 71.0644L1117.1 70.368V69.8624H1117.51V72.2855H1117.04L1116.73 70.969Z" fill="#FFFFF1"/>
<path d="M1119.36 72.2855H1118.85L1118.71 71.5318L1118.55 72.2855H1118.09L1118.39 71.1121L1118.1 69.8624H1118.6L1118.74 70.6065L1118.89 69.8624H1119.36L1119.06 71.0358L1119.36 72.2855Z" fill="#FFFFF1"/>
<path d="M1120.21 72.3046H1119.91C1119.6 72.3046 1119.46 72.1519 1119.46 71.8562V69.8624H1119.95V71.799C1119.95 71.8562 1119.98 71.8848 1120.03 71.8848H1120.09C1120.15 71.8848 1120.18 71.8562 1120.18 71.799V69.8624H1120.66V71.8562C1120.66 72.1615 1120.51 72.3046 1120.21 72.3046" fill="#FFFFF1"/>
<path d="M1122.11 69.3091L1121.92 69.6048H1121.67L1121.78 69.3091H1122.11ZM1121.47 71.5128L1121.37 70.4539L1121.26 71.5128H1121.48H1121.47ZM1121.48 69.767L1121.39 69.6525L1121.29 69.767H1121.08L1121.25 69.4713H1121.52L1121.69 69.767H1121.48ZM1121.52 71.9325H1121.22L1121.18 72.2855H1120.74L1121.05 69.8624H1121.71L1122.03 72.2855H1121.55L1121.51 71.9325H1121.52Z" fill="#FFFFF1"/>
<path d="M1122.25 70.2917H1121.95V69.8624H1123.02V70.2917H1122.73V72.2855H1122.25V70.2917Z" fill="#FFFFF1"/>
<path d="M1112.82 76.006C1112.82 76.3112 1112.67 76.4543 1112.37 76.4543H1112.08C1111.78 76.4543 1111.63 76.3017 1111.63 76.006V74.4415C1111.63 74.1362 1111.78 73.9931 1112.08 73.9931H1112.37C1112.68 73.9931 1112.82 74.1457 1112.82 74.4415V75.0043H1112.34V74.4891C1112.34 74.4319 1112.32 74.4033 1112.26 74.4033H1112.2C1112.14 74.4033 1112.12 74.4319 1112.12 74.4891V75.9487C1112.12 76.006 1112.14 76.0346 1112.2 76.0346H1112.27C1112.33 76.0346 1112.35 76.006 1112.35 75.9487V75.3573H1112.83V75.9964L1112.82 76.006Z" fill="#FFFFF1"/>
<path d="M1113.62 74.4033H1113.56C1113.5 74.4033 1113.47 74.4319 1113.47 74.4891V75.9487C1113.47 76.006 1113.5 76.0346 1113.56 76.0346H1113.62C1113.68 76.0346 1113.71 76.006 1113.71 75.9487V74.4891C1113.71 74.4319 1113.68 74.4033 1113.62 74.4033ZM1113.9 73.621L1113.71 73.9168H1113.46L1113.57 73.621H1113.9ZM1113.75 76.4543H1113.43C1113.14 76.4543 1112.98 76.3017 1112.98 76.006V74.4415C1112.98 74.1362 1113.14 73.9931 1113.43 73.9931H1113.75C1114.05 73.9931 1114.2 74.1457 1114.2 74.4415V76.006C1114.2 76.3112 1114.05 76.4543 1113.75 76.4543Z" fill="#FFFFF1"/>
<path d="M1115.07 74.4415H1114.78V74.0122H1115.85V74.4415H1115.56V76.4352H1115.07V74.4415Z" fill="#FFFFF1"/>
<path d="M1116.57 74.4319H1116.46V75.0997H1116.57C1116.63 75.0997 1116.66 75.0711 1116.66 75.0138V74.5178C1116.66 74.4605 1116.63 74.4319 1116.57 74.4319ZM1117.14 75.6053V76.4352H1116.66V75.6053C1116.66 75.5481 1116.63 75.5194 1116.57 75.5194H1116.45V76.4352H1115.96V74.0122H1116.68C1116.99 74.0122 1117.13 74.1553 1117.13 74.4605V74.928C1117.13 75.1378 1117.06 75.2428 1116.92 75.2905C1117.08 75.3286 1117.13 75.424 1117.13 75.6053" fill="#FFFFF1"/>
<path d="M1118.2 73.621L1118.01 73.9168H1117.76L1117.87 73.621H1118.2ZM1117.97 75.6625L1117.87 74.6036L1117.76 75.6625H1117.97ZM1118.02 76.0823H1117.72L1117.68 76.4352H1117.24L1117.55 74.0122H1118.21L1118.53 76.4352H1118.05L1118.01 76.0823H1118.02Z" fill="#FFFFF1"/>
<path d="M1119.81 76.006C1119.81 76.3112 1119.66 76.4543 1119.37 76.4543H1119.07C1118.76 76.4543 1118.62 76.3017 1118.62 76.006V74.4415C1118.62 74.1362 1118.77 73.9931 1119.07 73.9931H1119.37C1119.67 73.9931 1119.81 74.1457 1119.81 74.4415V75.0043H1119.34V74.4891C1119.34 74.4319 1119.31 74.4033 1119.25 74.4033H1119.19C1119.14 74.4033 1119.11 74.4319 1119.11 74.4891V75.9487C1119.11 76.006 1119.14 76.0346 1119.19 76.0346H1119.26C1119.32 76.0346 1119.35 76.006 1119.35 75.9487V75.3573H1119.82V75.9964L1119.81 76.006Z" fill="#FFFFF1"/>
<path d="M1120.7 74.0122H1121.19V76.4352H1120.7V75.424H1120.46V76.4352H1119.98V74.0122H1120.46V74.9852H1120.7V74.0122Z" fill="#FFFFF1"/>
<path d="M1122.24 75.1188L1122.25 75.7293V76.4352H1121.83V74.0122H1122.32L1122.61 75.2142L1122.6 74.5178L1122.59 74.0122H1123.01V76.4352H1122.54L1122.24 75.1188Z" fill="#FFFFF1"/>
<path d="M1123.92 74.0122H1124.39V76.4352H1123.92V75.424H1123.67V76.4352H1123.18V74.0122H1123.67V74.9852H1123.92V74.0122Z" fill="#FFFFF1"/>
<path d="M1125.06 74.0122H1124.57V76.4352H1125.06V74.0122Z" fill="#FFFFF1"/>
<path d="M1125.49 77.0553H1125.88V76.6547H1125.49V77.0553ZM1125.23 74.0122V76.4352H1126.14V76.006H1125.72V75.424H1126.12V74.9948H1125.72V74.451H1126.14V74.0217H1125.24L1125.23 74.0122ZM1125.55 73.621L1125.38 73.9168H1125.59L1125.68 73.8118L1125.78 73.9168H1125.99L1125.8 73.621H1125.54H1125.55Z" fill="#FFFFF1"/>
<path d="M1126.68 76.4352H1126.29V74.0122H1127L1127.13 75.4813L1127.28 74.0122H1127.98V76.4352H1127.5V74.8517L1127.32 76.4352H1126.86L1126.68 74.8326V76.4352Z" fill="#FFFFF1"/>
<path d="M1190 61H1150V101H1190V61Z" fill="#417E45"/>
<path d="M1155.05 64.358V72.419H1153.69V66.2468H1153.68L1152.73 67.239H1152.72V65.8176L1153.97 64.358H1155.05Z" fill="#FFFFF1"/>
<path d="M1159.52 66.1037V66.8097C1159.52 67.487 1159.15 67.9354 1158.6 68.1166C1159.27 68.2693 1159.6 68.7462 1159.6 69.4808V70.6733C1159.6 71.7894 1159.01 72.5144 1157.63 72.5144C1156.26 72.5144 1155.76 71.7322 1155.76 70.5016V69.4426H1157V70.5969C1157 71.0739 1157.16 71.3792 1157.63 71.3792C1158.05 71.3792 1158.24 71.0835 1158.24 70.6542V69.3186C1158.24 68.8893 1158.05 68.6604 1157.57 68.6604H1157V67.6301H1157.52C1157.96 67.6301 1158.24 67.4011 1158.24 66.9719V66.1037C1158.24 65.6649 1158.09 65.3787 1157.66 65.3787C1157.23 65.3787 1157.08 65.6649 1157.08 66.161V66.9814H1155.84V66.2659C1155.84 65.0735 1156.32 64.2435 1157.73 64.2435C1158.98 64.2435 1159.52 64.9494 1159.52 66.0847" fill="#FFFFF1"/>
<path d="M1184.98 89.0563C1183.93 87.5776 1179.16 81.6726 1170.3 81.6726C1161.44 81.6726 1156.67 87.5776 1155.62 89.0563C1155.57 89.1231 1155.53 89.1708 1155.5 89.2185C1155.53 89.2662 1155.57 89.3234 1155.62 89.3806C1156.68 90.8593 1161.44 96.7644 1170.3 96.7644C1179.16 96.7644 1183.93 90.8593 1184.98 89.3806C1185.03 89.3139 1185.07 89.2662 1185.1 89.2185C1185.07 89.1708 1185.03 89.1135 1184.98 89.0563ZM1165.36 85.4026C1165.44 85.2881 1165.7 84.9542 1165.74 84.9065C1165.81 84.8207 1165.94 84.8016 1166.04 84.7825C1166.13 84.7634 1166.26 84.8207 1166.27 84.8874C1166.29 84.9542 1166.24 85.2309 1166.19 85.2786C1166.06 85.4121 1165.72 85.6029 1165.53 85.5743C1165.39 85.5552 1165.33 85.4407 1165.36 85.4026ZM1165.03 86.0322C1165.03 86.0322 1165.06 86.0036 1165.06 85.994C1165.18 85.87 1165.4 85.8414 1165.55 85.8128C1165.7 85.7842 1165.91 85.8605 1165.93 85.9654C1165.96 86.0704 1165.55 86.2516 1165.47 86.3279C1165.26 86.5187 1164.93 86.9194 1164.73 86.9671C1164.66 86.9862 1164.61 86.9671 1164.57 86.948C1164.69 86.6237 1164.84 86.3184 1165.03 86.0322M1168.35 92.834C1168.23 93.3015 1168.1 93.4732 1167.97 93.6258C1167.86 93.7784 1167.41 93.9692 1167.13 93.9502C1166.86 93.9311 1166.82 93.1774 1166.82 92.7959C1166.82 92.6623 1166.63 93.0534 1166.53 92.2521C1166.48 91.7369 1166.14 92.3093 1166.12 91.9659C1166.09 91.6225 1165.93 91.6892 1165.76 91.4794C1165.59 91.2695 1165.37 91.4985 1165.13 91.6034C1164.89 91.7083 1164.99 91.7656 1164.65 91.6606C1164.64 91.6606 1164.64 91.6606 1164.63 91.6606C1164.32 90.9261 1164.15 90.1057 1164.15 89.2566C1164.15 89.0467 1164.16 88.8464 1164.18 88.6461C1164.19 88.627 1164.2 88.6079 1164.21 88.5888C1164.54 88.2073 1164.53 88.1119 1164.53 88.1119L1164.89 87.9878C1164.89 87.9878 1165.47 88.0737 1165.9 88.2454C1166.27 88.379 1166.83 88.6842 1167.15 88.5507C1167.39 88.4553 1167.57 88.3217 1167.55 88.1309C1167.52 87.8829 1167.33 87.8257 1167.1 87.9878C1167.01 88.0451 1166.82 87.6158 1166.68 87.6349C1166.53 87.6539 1166.86 88.1405 1166.73 88.1691C1166.61 88.1882 1166.36 87.6635 1166.32 87.5776C1166.28 87.4918 1166.08 87.2819 1165.91 87.4441C1165.55 87.7875 1164.96 87.7684 1164.83 87.8543C1164.47 88.1214 1164.38 87.7684 1164.39 87.549C1164.4 87.5013 1164.41 87.4441 1164.43 87.3964C1164.55 87.2628 1164.98 87.2247 1165.12 87.3201C1165.28 87.425 1165.4 87.2914 1165.45 87.2247C1165.52 87.1579 1165.49 87.0625 1165.45 86.9766C1165.42 86.8908 1165.53 86.824 1165.62 86.8049C1165.7 86.7858 1165.98 86.5855 1166.08 86.5283C1166.2 86.4615 1166.76 86.3947 1167.02 86.5283C1167.28 86.6618 1167.51 86.5473 1167.64 86.4042C1167.8 86.2134 1168 86.0704 1168.09 86.0322C1168.18 85.994 1167.87 85.6983 1167.61 86.0131C1167.35 86.3279 1167.23 86.3565 1167.1 86.3565C1166.98 86.3565 1166.27 86.1753 1166.18 85.9559C1166.09 85.7269 1166.4 85.5648 1166.67 85.4312C1166.93 85.3072 1167.65 85.3072 1167.83 85.269C1168.2 85.1832 1168.68 85.0019 1168.93 85.1641C1169.17 85.3263 1167.93 85.6124 1168.34 85.8319C1168.48 85.9082 1169.14 85.4503 1169.37 85.3358C1169.9 85.0591 1168.85 84.9733 1168.98 84.4104C1169.14 83.7808 1167.71 84.0289 1166.98 84.0766C1167.94 83.466 1169.08 83.1035 1170.31 83.1035C1173.22 83.1035 1175.66 85.1164 1176.31 87.8352C1176.31 87.9688 1176.29 88.0642 1176.28 88.1214C1176.22 88.3408 1175.8 88.5316 1175.56 88.1786C1175.49 88.0928 1175.23 87.8352 1175.24 88.2645C1175.24 88.6938 1175.66 88.7319 1175.26 88.9895C1174.86 89.2471 1174.79 89.1803 1174.61 89.2471C1174.43 89.3139 1174.25 89.7527 1174.3 89.9912C1174.35 90.2297 1174.91 90.8688 1174.49 90.8402C1174.39 90.8402 1173.65 90.3251 1173.53 90.0007C1173.4 89.6573 1173.27 89.3234 1173.16 89.0658C1173.06 88.8083 1172.8 88.7415 1172.58 88.8941C1172.36 89.0467 1172.64 89.1994 1172.49 89.5142C1172.32 89.8385 1172.22 90.1247 1171.98 89.8576C1171.38 89.1708 1170.5 89.5047 1170.37 88.7415C1170.29 88.3217 1169.94 88.3694 1169.63 88.1309C1169.33 87.8924 1169.17 87.7684 1169.11 87.9401C1169.06 88.0928 1170.05 88.875 1170.12 89.0754C1170.22 89.3711 1169.82 89.6382 1169.53 89.705C1169.23 89.7718 1169.11 89.5428 1168.82 89.2375C1168.54 88.9418 1168.41 88.7224 1168.39 88.9609C1168.36 89.3043 1168.67 89.8004 1168.96 89.9816C1169.2 90.1438 1169.49 90.2106 1169.4 90.4682C1169.32 90.7257 1169.4 90.5826 1169.13 90.8593C1168.85 91.1359 1168.79 91.2313 1168.81 91.6129C1168.83 91.9945 1168.74 92.0231 1168.67 92.3379C1168.61 92.6623 1168.47 92.3856 1168.34 92.8531M1174.97 90.3728C1175.18 90.3537 1175.49 90.6399 1175.38 90.7544C1175.25 90.8593 1174.95 90.8211 1174.78 90.7067C1174.63 90.5826 1174.88 90.3823 1174.97 90.3728ZM1174.72 90.182C1174.65 90.1534 1174.59 90.0961 1174.55 89.9435C1174.5 89.7908 1174.62 89.705 1174.75 89.7622C1174.87 89.829 1175.04 90.0198 1175.04 90.1152C1175.04 90.2106 1174.79 90.201 1174.73 90.182M1171.99 90.1724C1171.87 90.2774 1171.55 90.2392 1171.4 90.1152C1171.24 89.9912 1171.49 89.7908 1171.59 89.7908C1171.8 89.7718 1172.1 90.058 1171.99 90.1724ZM1169.47 91.4031C1169.38 91.5462 1169.16 92.5764 1168.99 92.462C1168.84 92.3379 1169.06 91.26 1169.1 91.1741C1169.35 90.7257 1169.87 90.7544 1169.46 91.4031M1170.31 95.4288C1169.71 95.4288 1169.13 95.343 1168.57 95.1808C1168.5 95.114 1168.45 95.0091 1168.5 94.8755C1168.69 94.3794 1169.26 94.1791 1169.71 94.1409C1170.71 94.0456 1172.03 94.7896 1172.24 94.6656C1172.45 94.5416 1172.87 93.9979 1173.49 94.0169C1173.91 94.036 1173.91 94.1028 1174.05 94.16C1173.01 94.9518 1171.71 95.4193 1170.31 95.4193M1174.66 93.6258C1174.6 93.6067 1174.54 93.5876 1174.47 93.559C1174.14 93.3873 1174.17 93.664 1174 93.5972C1173.84 93.5399 1174.19 93.1488 1173.69 93.4732C1173.19 93.7975 1173.32 93.4255 1173.11 92.8722C1172.89 92.3189 1173.35 91.6988 1173.74 91.5557C1174.28 91.3649 1174.61 91.3172 1174.86 91.26C1175.6 91.0787 1175.76 90.6303 1175.89 90.8974C1175.92 90.9451 1175.94 90.9928 1175.97 91.0405C1176.01 91.1169 1176.06 91.2886 1176.06 91.4412C1175.75 92.2616 1175.26 93.0057 1174.65 93.6163M1176.36 90.5063C1176.2 90.4586 1175.5 89.5047 1176.04 88.875C1176.14 88.7701 1175.86 88.4648 1175.94 88.4648C1176.23 88.4457 1176.4 88.627 1176.47 88.8941C1176.47 89.0086 1176.48 89.1326 1176.48 89.2566C1176.48 89.6859 1176.43 90.1057 1176.36 90.5159" fill="#FFFFF1"/>
<path d="M1163.58 65.9702H1164.06V68.3837H1163.58V67.3725H1163.34V68.3837H1162.85V65.9702H1163.34V66.9432H1163.58V65.9702Z" fill="#FFFFF1"/>
<path d="M1164.9 67.611L1164.8 66.5521L1164.69 67.611H1164.9ZM1164.69 65.8748L1164.5 65.5791H1164.83L1164.93 65.8748H1164.68H1164.69ZM1164.95 68.0308H1164.64L1164.61 68.3837H1164.17L1164.48 65.9606H1165.14L1165.45 68.3837H1164.98L1164.94 68.0308H1164.95Z" fill="#FFFFF1"/>
<path d="M1165.97 67.0673L1165.98 67.6873L1165.99 68.3837H1165.57V65.9702H1166.06L1166.34 67.1627L1166.33 66.4663V65.9702H1166.75V68.3837H1166.27L1165.97 67.0673Z" fill="#FFFFF1"/>
<path d="M1167.65 65.9702H1168.13V68.3837H1167.65V67.3725H1167.41V68.3837H1166.92V65.9702H1167.41V66.9432H1167.65V65.9702Z" fill="#FFFFF1"/>
<path d="M1169.43 67.3439H1169.3V67.9735H1169.39C1169.49 67.9735 1169.53 67.9354 1169.53 67.84V66.514C1169.53 66.4186 1169.49 66.3804 1169.39 66.3804H1169.3V66.9719H1169.43V67.3439ZM1168.69 67.3439V66.9814H1168.81V65.9702H1169.5C1169.85 65.9702 1170.01 66.1419 1170.01 66.4853V67.8686C1170.01 68.2216 1169.84 68.3933 1169.5 68.3933H1168.81V67.3439H1168.69Z" fill="#FFFFF1"/>
<path d="M1170.82 66.3613H1170.75C1170.69 66.3613 1170.66 66.3899 1170.66 66.4472V67.9067C1170.66 67.964 1170.69 67.9926 1170.75 67.9926H1170.82C1170.87 67.9926 1170.9 67.964 1170.9 67.9067V66.4472C1170.9 66.3899 1170.87 66.3613 1170.82 66.3613ZM1170.59 68.6031H1170.98V69.0038H1170.59V68.6031ZM1170.87 65.8748L1170.78 65.7603L1170.68 65.8748H1170.47L1170.64 65.5791H1170.91L1171.08 65.8748H1170.87ZM1170.93 68.4124H1170.62C1170.32 68.4124 1170.17 68.2597 1170.17 67.964V66.3995C1170.17 66.1037 1170.32 65.9511 1170.62 65.9511H1170.93C1171.24 65.9511 1171.38 66.1037 1171.38 66.3995V67.964C1171.38 68.2693 1171.23 68.4124 1170.93 68.4124Z" fill="#FFFFF1"/>
<path d="M1171.95 67.0673L1171.96 67.6873L1171.97 68.3837H1171.55V65.9702H1172.05L1172.32 67.1627L1172.31 66.4663V65.9702H1172.73V68.3837H1172.26L1171.95 67.0673Z" fill="#FFFFF1"/>
<path d="M1173.48 67.0196H1174.11V67.9544C1174.11 68.2597 1173.95 68.4028 1173.66 68.4028H1173.34C1173.04 68.4028 1172.9 68.2502 1172.9 67.9544V66.3899C1172.9 66.0942 1173.05 65.9416 1173.34 65.9416H1173.65C1173.94 65.9416 1174.1 66.0942 1174.1 66.3899V66.8574H1173.62V66.4472C1173.62 66.3899 1173.59 66.3613 1173.53 66.3613H1173.47C1173.41 66.3613 1173.38 66.3899 1173.38 66.4472V67.9067C1173.38 67.964 1173.41 67.9926 1173.47 67.9926H1173.54C1173.6 67.9926 1173.63 67.964 1173.63 67.9067V67.4202H1173.48V67.0196Z" fill="#FFFFF1"/>
<path d="M1175.46 65.8748H1175.21L1175.32 65.5791H1175.65L1175.46 65.8748ZM1176.18 65.7985V65.9034C1176.18 66.0942 1176.1 66.1991 1175.93 66.2087V67.964C1175.93 68.2693 1175.78 68.4124 1175.48 68.4124H1175.18C1174.88 68.4124 1174.74 68.2597 1174.74 67.964V65.9702H1175.22V67.9067C1175.22 67.964 1175.25 67.9926 1175.31 67.9926H1175.36C1175.41 67.9926 1175.44 67.964 1175.44 67.9067V65.9702H1175.81C1175.87 65.9702 1175.9 65.9416 1175.9 65.8843V65.7985H1176.18Z" fill="#FFFFF1"/>
<path d="M1176.51 67.0673V67.6873L1176.52 68.3837H1176.1V65.9702H1176.6L1176.87 67.1627V66.4663L1176.86 65.9702H1177.28V68.3837H1176.82L1176.51 67.0673Z" fill="#FFFFF1"/>
<path d="M1178.04 67.0196H1178.67V67.9544C1178.67 68.2597 1178.51 68.4028 1178.22 68.4028H1177.9C1177.6 68.4028 1177.46 68.2502 1177.46 67.9544V66.3899C1177.46 66.0942 1177.61 65.9416 1177.9 65.9416H1178.21C1178.51 65.9416 1178.66 66.0942 1178.66 66.3899V66.8574H1178.18V66.4472C1178.18 66.3899 1178.15 66.3613 1178.09 66.3613H1178.03C1177.97 66.3613 1177.94 66.3899 1177.94 66.4472V67.9067C1177.94 67.964 1177.97 67.9926 1178.03 67.9926H1178.1C1178.16 67.9926 1178.19 67.964 1178.19 67.9067V67.4202H1178.04V67.0196Z" fill="#FFFFF1"/>
<path d="M1163.44 70.5302H1163.34V71.2838H1163.44C1163.5 71.2838 1163.53 71.2552 1163.53 71.1979V70.6256C1163.53 70.5683 1163.5 70.5397 1163.44 70.5397M1162.85 72.543V70.12H1163.56C1163.85 70.12 1164 70.2726 1164 70.5683V71.2552C1164 71.5605 1163.85 71.7036 1163.56 71.7036H1163.33V72.543H1162.84H1162.85Z" fill="#FFFFF1"/>
<path d="M1164.87 70.12H1165.36V72.543H1164.87V71.5223H1164.62V72.543H1164.15V70.12H1164.62V71.093H1164.87V70.12Z" fill="#FFFFF1"/>
<path d="M1166.16 70.5111H1166.09C1166.04 70.5111 1166.01 70.5397 1166.01 70.5969V72.0565C1166.01 72.1138 1166.04 72.1424 1166.09 72.1424H1166.16C1166.22 72.1424 1166.25 72.1138 1166.25 72.0565V70.5969C1166.25 70.5397 1166.22 70.5111 1166.16 70.5111ZM1166.45 69.7288L1166.26 70.0246H1166.01L1166.11 69.7288H1166.45ZM1166.28 72.5621H1165.97C1165.67 72.5621 1165.52 72.4095 1165.52 72.1138V70.5492C1165.52 70.2535 1165.67 70.1009 1165.97 70.1009H1166.28C1166.59 70.1009 1166.73 70.2535 1166.73 70.5492V72.1138C1166.73 72.419 1166.58 72.5621 1166.28 72.5621Z" fill="#FFFFF1"/>
<path d="M1167.3 70.12H1167.79L1167.96 71.8371L1168.13 70.12H1168.58L1168.26 72.543H1167.63L1167.3 70.12Z" fill="#FFFFF1"/>
<path d="M1169.39 70.5969C1169.39 70.5397 1169.37 70.5111 1169.31 70.5111H1169.24C1169.18 70.5111 1169.16 70.5397 1169.16 70.5969V72.0565C1169.16 72.1138 1169.18 72.1424 1169.24 72.1424H1169.31C1169.37 72.1424 1169.39 72.1138 1169.39 72.0565V70.5969ZM1169.39 70.0246H1169.15L1169.24 69.7288H1169.58L1169.38 70.0246H1169.39ZM1170.12 69.9482V70.0532C1170.12 70.2535 1170.03 70.3489 1169.85 70.3585C1169.87 70.4157 1169.88 70.4729 1169.88 70.5492V72.1138C1169.88 72.419 1169.73 72.5621 1169.43 72.5621H1169.12C1168.81 72.5621 1168.67 72.4095 1168.67 72.1138V70.5492C1168.67 70.244 1168.82 70.1009 1169.12 70.1009H1169.43C1169.55 70.1009 1169.64 70.12 1169.71 70.1677V70.12H1169.77C1169.82 70.12 1169.85 70.0913 1169.85 70.0341V69.9482H1170.13H1170.12Z" fill="#FFFFF1"/>
<path d="M1170.53 70.12H1170.04V72.543H1170.53V70.12Z" fill="#FFFFF1"/>
<path d="M1171.78 72.1233C1171.84 72.1233 1171.87 72.0947 1171.87 72.0374V71.5986C1171.87 71.5414 1171.84 71.5128 1171.78 71.5128H1171.66V72.1233H1171.78ZM1171.77 70.5302H1171.66V71.1026H1171.77C1171.83 71.1026 1171.86 71.0739 1171.86 71.0167V70.616C1171.86 70.5588 1171.83 70.5302 1171.77 70.5302ZM1172.34 71.5986V72.0851C1172.34 72.3904 1172.19 72.5335 1171.89 72.5335H1171.18V70.1104H1171.89C1172.2 70.1104 1172.34 70.2631 1172.34 70.5588V70.9213C1172.34 71.1312 1172.27 71.2361 1172.14 71.2838C1172.28 71.322 1172.35 71.4174 1172.35 71.5986" fill="#FFFFF1"/>
<path d="M1172.99 70.12H1172.5V72.543H1172.99V70.12Z" fill="#FFFFF1"/>
<path d="M1174.34 69.5667L1174.15 69.8624H1173.9L1174 69.5667H1174.34ZM1173.71 70.0246L1173.61 69.9101L1173.52 70.0246H1173.31L1173.48 69.7288H1173.74L1173.92 70.0246H1173.71ZM1174.07 70.5492H1173.65V71.093H1174.05V71.5223H1173.65V72.1042H1174.07V72.5335H1173.16V70.1104H1174.06V70.5397L1174.07 70.5492Z" fill="#FFFFF1"/>
<path d="M1174.63 71.217L1174.64 71.8371L1174.65 72.543H1174.23V70.12H1174.73L1175 71.322L1174.99 70.616V70.12H1175.41V72.543H1174.94L1174.63 71.217Z" fill="#FFFFF1"/>
<path d="M1176.71 71.4937H1176.57V72.1233H1176.66C1176.76 72.1233 1176.8 72.0851 1176.8 71.9897V70.6637C1176.8 70.5683 1176.76 70.5302 1176.66 70.5302H1176.57V71.1216H1176.71V71.4937ZM1175.97 71.4937V71.1312H1176.09V70.12H1176.77C1177.12 70.12 1177.28 70.2917 1177.28 70.6351V72.0184C1177.28 72.3713 1177.11 72.543 1176.77 72.543H1176.09V71.4937H1175.97Z" fill="#FFFFF1"/>
<path d="M1178.44 69.6144V69.5857C1178.44 69.5857 1178.44 69.5762 1178.43 69.5762H1178.42C1178.42 69.5762 1178.41 69.5762 1178.41 69.5857V69.6334H1178.25V69.5857C1178.25 69.4713 1178.3 69.4236 1178.41 69.4236H1178.46C1178.57 69.4236 1178.62 69.4713 1178.62 69.5857V69.6048C1178.62 69.6621 1178.61 69.7098 1178.56 69.7575L1178.51 69.8147C1178.51 69.8147 1178.49 69.8433 1178.49 69.891H1178.34V69.8338C1178.34 69.767 1178.34 69.7479 1178.38 69.7098L1178.41 69.6811C1178.41 69.6811 1178.44 69.643 1178.44 69.6239M1178.08 70.5111H1178.02C1177.96 70.5111 1177.93 70.5397 1177.93 70.5969V72.0565C1177.93 72.1138 1177.96 72.1424 1178.02 72.1424H1178.08C1178.14 72.1424 1178.17 72.1138 1178.17 72.0565V70.5969C1178.17 70.5397 1178.14 70.5111 1178.08 70.5111ZM1178.15 70.0246L1178.06 69.9101L1177.96 70.0246H1177.75L1177.92 69.7288H1178.19L1178.36 70.0246H1178.15ZM1178.21 72.5621H1177.89C1177.59 72.5621 1177.45 72.4095 1177.45 72.1138V70.5492C1177.45 70.2535 1177.6 70.1009 1177.89 70.1009H1178.21C1178.51 70.1009 1178.66 70.2535 1178.66 70.5492V72.1138C1178.66 72.419 1178.51 72.5621 1178.21 72.5621Z" fill="#FFFFF1"/>
<path d="M1179.32 70.12H1178.83V72.543H1179.32V70.12Z" fill="#FFFFF1"/>
<path d="M1163.34 75.5481V76.6928H1162.85V74.2697H1163.34V75.405L1163.6 74.2697H1164.11L1163.78 75.4622L1164.09 76.6928H1163.58L1163.34 75.5481Z" fill="#FFFFF1"/>
<path d="M1164.91 74.2697H1165.4V76.6928H1164.91V75.6816H1164.67V76.6928H1164.19V74.2697H1164.67V75.2428H1164.91V74.2697Z" fill="#FFFFF1"/>
<path d="M1165.57 76.6928H1166.06V74.2697H1165.57V76.6928ZM1165.8 73.8786L1165.69 74.1743H1165.94L1166.13 73.8786H1165.8Z" fill="#FFFFF1"/>
<path d="M1167.43 74.2697H1167.92V76.6928H1167.43V75.6816H1167.19V76.6928H1166.7V74.2697H1167.19V75.2428H1167.43V74.2697Z" fill="#FFFFF1"/>
<path d="M1168.76 75.9201L1168.65 74.8612L1168.55 75.9201H1168.76H1168.76ZM1168.48 76.9122H1168.87V77.3129H1168.48V76.9122ZM1168.76 74.1743L1168.67 74.0599L1168.57 74.1743H1168.36L1168.54 73.8786H1168.8L1168.97 74.1743H1168.76ZM1168.79 76.3399H1168.49L1168.45 76.6928H1168.01L1168.33 74.2697H1168.98L1169.3 76.6928H1168.82L1168.78 76.3399H1168.79Z" fill="#FFFFF1"/>
<path d="M1170.15 76.7119H1169.85C1169.55 76.7119 1169.4 76.5593 1169.4 76.2635V74.2697H1169.89V76.2158C1169.89 76.2731 1169.92 76.3017 1169.98 76.3017H1170.03C1170.09 76.3017 1170.12 76.2731 1170.12 76.2158V74.2697H1170.61V76.2635C1170.61 76.5688 1170.46 76.7119 1170.16 76.7119" fill="#FFFFF1"/>
<path d="M1240 61H1200V101H1240V61Z" fill="#1E95D3"/>
<path d="M1205.21 64.358V72.419H1203.85V66.2564H1203.84L1202.89 67.239H1202.88V65.8271L1204.13 64.358H1205.21Z" fill="#FFFFF1"/>
<path d="M1209.34 72.4286V71.1216H1209.88V70.0627H1209.34V64.358H1208L1205.66 70.2821V71.1121H1208.05V72.419H1209.34V72.4286ZM1206.85 70.0532L1208.06 66.7334H1208.07V70.0532H1206.85Z" fill="#FFFFF1"/>
<path d="M1230.71 90.182C1230.2 89.5047 1226.95 85.3549 1222.4 85.3549C1218.44 85.3549 1214.2 88.9418 1214.2 88.9418C1214.2 88.9418 1212.61 85.6888 1209.36 85.374C1209.34 85.374 1209.32 85.374 1209.29 85.374H1209.27C1209.21 85.374 1209.14 85.4407 1209.15 85.5075C1209.15 85.5648 1209.2 85.622 1209.2 85.622C1209.62 86.3184 1210.68 88.3026 1210.68 90.2774C1210.68 92.2521 1209.61 94.2459 1209.2 94.9423L1209.17 94.99C1209.17 94.99 1209.15 95.0281 1209.15 95.0568C1209.15 95.1235 1209.21 95.1808 1209.27 95.1808H1209.31C1209.31 95.1808 1209.33 95.1808 1209.35 95.1808C1212.61 94.8755 1214.21 91.6129 1214.21 91.6129C1214.21 91.6129 1218.45 95.1999 1222.41 95.1999C1226.97 95.1999 1230.22 91.0501 1230.72 90.3728C1230.73 90.3537 1230.75 90.3346 1230.76 90.3251C1230.76 90.306 1230.77 90.2964 1230.77 90.2774C1230.77 90.2583 1230.77 90.2392 1230.76 90.2297C1230.76 90.2106 1230.74 90.201 1230.72 90.182M1224.94 90.8021C1224.2 90.8021 1223.6 90.2106 1223.6 89.4665C1223.6 88.7224 1224.19 88.1405 1224.94 88.1405C1225.68 88.1405 1226.27 88.7319 1226.27 89.4665C1226.27 90.201 1225.68 90.8021 1224.94 90.8021Z" fill="#FFFFF1"/>
<path d="M1209.25 77.5609C1209.25 77.5609 1209.23 77.5609 1209.22 77.5609C1209.15 77.5609 1209.09 77.6182 1209.09 77.6945V78.6008C1209.09 78.6008 1209.1 78.6675 1209.13 78.6962C1211.33 80.6041 1213.41 78.8202 1213.9 78.3432C1213.91 78.3337 1213.92 78.3146 1213.94 78.305C1213.96 78.2955 1213.99 78.286 1214 78.286C1214.04 78.286 1214.07 78.2955 1214.09 78.3241C1216.57 80.6995 1219.18 78.7725 1219.73 78.3241L1219.79 78.2764C1219.79 78.2764 1219.81 78.2669 1219.83 78.2669C1219.85 78.2669 1219.87 78.2669 1219.88 78.2764L1219.94 78.3241C1220.48 78.7725 1223.09 80.6995 1225.58 78.3241C1225.6 78.305 1225.63 78.286 1225.66 78.286C1225.69 78.286 1225.72 78.2955 1225.74 78.305C1225.76 78.305 1225.77 78.3241 1225.78 78.3432C1226.26 78.8202 1228.34 80.6041 1230.55 78.6962C1230.57 78.6771 1230.58 78.6389 1230.58 78.6008V77.6945C1230.58 77.6182 1230.53 77.5609 1230.45 77.5609C1230.45 77.5609 1230.43 77.5609 1230.42 77.5609C1230.4 77.5705 1230.38 77.58 1230.36 77.5896C1229.68 77.933 1227.58 78.7343 1225.67 76.9313C1225.65 76.9122 1225.63 76.9027 1225.61 76.8741C1225.6 76.8741 1225.58 76.8645 1225.56 76.8645C1225.55 76.8645 1225.53 76.8645 1225.52 76.8645C1225.49 76.8741 1225.47 76.8932 1225.45 76.9122C1224.88 77.3415 1222.28 79.1064 1219.96 76.9409L1219.92 76.9122C1219.92 76.9122 1219.86 76.8741 1219.82 76.8741C1219.79 76.8741 1219.76 76.8932 1219.73 76.9122L1219.69 76.9409C1217.37 79.1064 1214.76 77.3415 1214.2 76.9122C1214.18 76.8932 1214.16 76.8741 1214.13 76.8645C1214.12 76.8645 1214.1 76.8645 1214.09 76.8645C1214.07 76.8645 1214.05 76.8645 1214.03 76.8741C1214.01 76.8932 1213.99 76.9122 1213.98 76.9313C1212.07 78.7343 1209.97 77.933 1209.29 77.5896C1209.26 77.58 1209.24 77.5705 1209.22 77.5609" fill="#FFFFF1"/>
<path d="M1213.91 81.6439C1213.91 81.6439 1213.93 81.6153 1213.95 81.6058C1213.97 81.5962 1213.99 81.5772 1214.02 81.5772C1214.06 81.5772 1214.09 81.5867 1214.11 81.6153C1216.59 83.9812 1219.2 82.0637 1219.75 81.6153L1219.8 81.5676C1219.8 81.5676 1219.83 81.5676 1219.85 81.5676C1219.87 81.5676 1219.89 81.5676 1219.9 81.5676L1219.96 81.6153C1220.5 82.0637 1223.11 83.9812 1225.6 81.6153C1225.61 81.5962 1225.65 81.5772 1225.68 81.5772C1225.71 81.5772 1225.73 81.5867 1225.75 81.6058C1225.77 81.6153 1225.78 81.6249 1225.79 81.6439C1226.27 82.1209 1228.35 83.9144 1230.56 81.9969C1230.57 81.9778 1230.59 81.9397 1230.59 81.9015V80.9952C1230.59 80.9189 1230.54 80.8617 1230.46 80.8617C1230.45 80.8617 1230.44 80.8617 1230.43 80.8617C1230.41 80.8712 1230.39 80.8808 1230.36 80.8903C1229.69 81.2337 1227.59 82.0351 1225.68 80.2321C1225.66 80.213 1225.64 80.1939 1225.62 80.1748C1225.6 80.1748 1225.59 80.1653 1225.57 80.1653C1225.56 80.1653 1225.54 80.1653 1225.53 80.1748C1225.5 80.1748 1225.48 80.2034 1225.46 80.2225C1224.89 80.6518 1222.28 82.4166 1219.97 80.2511L1219.93 80.213C1219.93 80.213 1219.87 80.1748 1219.83 80.1748C1219.79 80.1748 1219.77 80.1844 1219.74 80.213L1219.7 80.2511C1217.38 82.4166 1214.77 80.6518 1214.2 80.2225C1214.19 80.2034 1214.17 80.1844 1214.14 80.1748C1214.13 80.1748 1214.11 80.1653 1214.1 80.1653C1214.08 80.1653 1214.06 80.1653 1214.04 80.1748C1214.02 80.1939 1214 80.213 1213.99 80.2321C1212.08 82.0351 1209.98 81.2242 1209.3 80.8903C1209.27 80.8808 1209.25 80.8712 1209.23 80.8617C1209.22 80.8617 1209.22 80.8617 1209.21 80.8617C1209.13 80.8617 1209.07 80.9189 1209.07 80.9952V81.9015C1209.07 81.9015 1209.08 81.9683 1209.11 81.9969C1211.31 83.9144 1213.39 82.1209 1213.88 81.6439" fill="#FFFFF1"/>
<path d="M1213.1 66.2564H1212.8V65.8271H1213.88V66.2564H1213.58V68.2502H1213.1V66.2564Z" fill="#FFFFF1"/>
<path d="M1214.53 67.4775L1214.42 66.4186L1214.32 67.4775H1214.54H1214.53ZM1214.32 65.7412L1214.13 65.4455H1214.46L1214.57 65.7412H1214.32ZM1214.57 67.8972H1214.26L1214.22 68.2502H1213.78L1214.1 65.8271H1214.76L1215.07 68.2502H1214.6L1214.56 67.8972H1214.57Z" fill="#FFFFF1"/>
<path d="M1215.68 65.8271H1215.2V68.2502H1215.68V65.8271Z" fill="#FFFFF1"/>
<path d="M1216.73 66.9337L1216.74 67.5442V68.2502H1216.33V65.8271H1216.82L1217.1 67.0291L1217.1 66.3327V65.8271H1217.51V68.2502H1217.04L1216.73 66.9337Z" fill="#FFFFF1"/>
<path d="M1218.26 66.886H1218.89V67.8209C1218.89 68.1262 1218.74 68.2693 1218.44 68.2693H1218.13C1217.82 68.2693 1217.68 68.1166 1217.68 67.8209V66.2564C1217.68 65.9606 1217.83 65.808 1218.13 65.808H1218.43C1218.74 65.808 1218.88 65.9606 1218.88 66.2564V66.7238H1218.4V66.3136C1218.4 66.2564 1218.37 66.2278 1218.32 66.2278H1218.25C1218.19 66.2278 1218.16 66.2564 1218.16 66.3136V67.7732C1218.16 67.8304 1218.19 67.8591 1218.25 67.8591H1218.33C1218.38 67.8591 1218.41 67.8304 1218.41 67.7732V67.2867H1218.26V66.886Z" fill="#FFFFF1"/>
<path d="M1219.79 68.2693H1219.5C1219.2 68.2693 1219.05 68.1166 1219.05 67.8209V65.8271H1219.54V67.7637C1219.54 67.8209 1219.57 67.8495 1219.62 67.8495H1219.68C1219.74 67.8495 1219.77 67.8209 1219.77 67.7637V65.8271H1220.25V67.8209C1220.25 68.1262 1220.11 68.2693 1219.8 68.2693" fill="#FFFFF1"/>
<path d="M1220.73 68.2502V67.4202L1220.32 65.8271H1220.83L1220.99 66.6475L1221.17 65.8271H1221.63L1221.22 67.3916V68.2502H1220.73Z" fill="#FFFFF1"/>
<path d="M1221.69 65.8271V68.2502H1222.6V67.8209H1222.18V67.239H1222.58V66.8097H1222.18V66.2659H1222.6V65.8366H1221.7L1221.69 65.8271ZM1222.01 65.436L1221.84 65.7317H1222.05L1222.14 65.6172L1222.24 65.7317H1222.45L1222.28 65.436H1222.01Z" fill="#FFFFF1"/>
<path d="M1223.16 66.9337L1223.17 67.5442L1223.18 68.2502H1222.76V65.8271H1223.26L1223.53 67.0291L1223.52 66.3327V65.8271H1223.94V68.2502H1223.47L1223.16 66.9337Z" fill="#FFFFF1"/>
<path d="M1213.26 71.0835L1213.27 71.694L1213.28 72.4H1212.86V69.9769H1213.36L1213.63 71.1789L1213.62 70.4825V69.9769H1214.04V72.4H1213.58L1213.26 71.0835Z" fill="#FFFFF1"/>
<path d="M1215.65 69.8147V69.9196C1215.65 70.1104 1215.58 70.2058 1215.41 70.2249V71.9802C1215.41 72.2855 1215.25 72.4286 1214.96 72.4286H1214.66C1214.36 72.4286 1214.21 72.2759 1214.21 71.9802V69.9864H1214.7V71.923C1214.7 71.9802 1214.73 72.0088 1214.79 72.0088H1214.83C1214.89 72.0088 1214.92 71.9802 1214.92 71.923V69.9864H1215.29C1215.35 69.9864 1215.38 69.9578 1215.38 69.9005V69.8147H1215.65Z" fill="#FFFFF1"/>
<path d="M1216.29 70.4634C1216.29 70.4062 1216.27 70.3775 1216.21 70.3775H1216.14C1216.08 70.3775 1216.06 70.4062 1216.06 70.4634V71.923C1216.06 71.9802 1216.08 72.0088 1216.14 72.0088H1216.21C1216.27 72.0088 1216.29 71.9802 1216.29 71.923V70.4634ZM1216.29 69.891H1216.05L1216.15 69.5953H1216.48L1216.29 69.891ZM1217.02 69.8147V69.9196C1217.02 70.12 1216.93 70.2154 1216.75 70.2249C1216.77 70.2821 1216.78 70.3394 1216.78 70.4157V71.9802C1216.78 72.2855 1216.63 72.4286 1216.33 72.4286H1216.02C1215.71 72.4286 1215.57 72.2759 1215.57 71.9802V70.4157C1215.57 70.1104 1215.72 69.9673 1216.02 69.9673H1216.33C1216.45 69.9673 1216.54 69.9864 1216.61 70.0341V69.9864H1216.67C1216.72 69.9864 1216.75 69.9578 1216.75 69.9005V69.8147H1217.03H1217.02Z" fill="#FFFFF1"/>
<path d="M1218.13 71.9707C1218.13 72.2759 1217.98 72.419 1217.69 72.419H1217.39C1217.09 72.419 1216.94 72.2664 1216.94 71.9707V70.4062C1216.94 70.1104 1217.1 69.9578 1217.39 69.9578H1217.68C1217.98 69.9578 1218.13 70.1104 1218.13 70.4062V70.9785H1217.65V70.4634C1217.65 70.4062 1217.62 70.3775 1217.56 70.3775H1217.51C1217.45 70.3775 1217.42 70.4062 1217.42 70.4634V71.923C1217.42 71.9802 1217.45 72.0088 1217.51 72.0088H1217.57C1217.63 72.0088 1217.66 71.9802 1217.66 71.923V71.3315H1218.13V71.9707Z" fill="#FFFFF1"/>
<path d="M1290 61H1250V101H1290V61Z" fill="#5BBA47"/>
<path d="M1252.93 65.808V67.2294H1252.94L1253.89 66.2373H1253.9V72.4095H1255.26V64.3484H1254.18L1252.93 65.808Z" fill="#FFFFF1"/>
<path d="M1258.48 66.9051C1257.95 66.9051 1257.56 67.0959 1257.34 67.4679H1257.33V65.455H1259.65V64.3484H1256.09V68.8893H1257.33V68.7081C1257.33 68.2311 1257.54 67.9735 1257.92 67.9735C1258.34 67.9735 1258.5 68.2597 1258.5 68.6985V70.6542C1258.5 71.0835 1258.35 71.3792 1257.93 71.3792C1257.46 71.3792 1257.3 71.0739 1257.3 70.5969V69.5857H1256.06V70.5016C1256.06 71.7226 1256.54 72.5144 1257.93 72.5144C1259.31 72.5144 1259.85 71.7894 1259.85 70.6733V68.6985C1259.85 67.4298 1259.21 66.9146 1258.47 66.9146" fill="#FFFFF1"/>
<path d="M1265.39 88.0451H1266.57C1266.62 88.0451 1266.66 88.0832 1266.66 88.1309V91.0405C1266.66 91.0882 1266.62 91.1264 1266.57 91.1264H1265.4C1265.35 91.1264 1265.31 91.0882 1265.31 91.0405V88.1309C1265.31 88.0832 1265.35 88.0451 1265.4 88.0451H1265.39Z" fill="#FFFFF1"/>
<path d="M1279.51 92.3856H1260.08C1260.04 92.3856 1260 92.4238 1260 92.481V93.664C1260 93.7117 1260.04 93.7498 1260.08 93.7498H1279.51C1279.55 93.7498 1279.59 93.7117 1279.59 93.664V92.481C1279.59 92.4333 1279.55 92.3856 1279.51 92.3856Z" fill="#FFFFF1"/>
<path d="M1279.51 94.742H1260.08C1260.04 94.742 1260 94.7801 1260 94.8278V96.0203C1260 96.0203 1260.04 96.1061 1260.08 96.1061H1279.51C1279.55 96.1061 1279.59 96.068 1279.59 96.0203V94.8278C1279.59 94.7801 1279.55 94.742 1279.51 94.742Z" fill="#FFFFF1"/>
<path d="M1275.81 84.8207C1275.58 84.6299 1274.93 84.191 1274.14 84.191C1273.57 84.191 1273.05 84.4104 1272.58 84.8493C1272.54 84.8779 1272.52 84.9256 1272.52 84.9733V85.0782C1272.52 85.1355 1272.54 85.1736 1272.58 85.2118C1272.62 85.2404 1272.67 85.2595 1272.71 85.2404C1272.72 85.2404 1272.74 85.2404 1272.75 85.2309C1272.79 85.2213 1272.82 85.2022 1272.85 85.1736C1272.95 85.1068 1273.23 85.0114 1273.63 85.0114C1274.03 85.0114 1274.85 85.1259 1275.63 85.8509L1275.65 85.87C1275.65 85.87 1275.76 85.9368 1275.82 85.9368C1275.89 85.9368 1275.95 85.9082 1275.99 85.87L1276.01 85.8509C1276.79 85.1164 1277.6 85.0114 1278.01 85.0114C1278.42 85.0114 1278.69 85.1068 1278.79 85.1736C1278.82 85.2022 1278.86 85.2213 1278.9 85.2404C1278.91 85.2404 1278.96 85.2595 1279.01 85.2404C1279.09 85.2213 1279.13 85.1545 1279.13 85.0782V84.9828C1279.13 84.9828 1279.12 84.897 1279.08 84.8588C1278.6 84.4104 1278.08 84.1815 1277.5 84.1815C1276.72 84.1815 1276.07 84.6203 1275.82 84.8207" fill="#FFFFF1"/>
<path d="M1274.6 77.0744C1274.6 77.0744 1274.54 77.1316 1274.52 77.1793L1274.5 77.2461C1274.49 77.2938 1274.5 77.3511 1274.53 77.3892C1274.56 77.4274 1274.6 77.456 1274.65 77.456H1274.67C1274.71 77.456 1274.74 77.456 1274.77 77.4274C1274.78 77.4274 1274.82 77.4178 1274.88 77.4178C1274.97 77.4178 1275.75 77.4465 1276.27 78.3241C1276.3 78.3909 1276.34 78.4195 1276.4 78.4386C1276.42 78.4386 1276.44 78.4481 1276.46 78.4481C1276.5 78.4481 1276.53 78.4386 1276.56 78.4195H1276.57C1276.85 78.2764 1277.14 78.2001 1277.44 78.2001C1277.92 78.2001 1278.25 78.4004 1278.32 78.4863C1278.34 78.5149 1278.36 78.534 1278.39 78.5531C1278.41 78.5626 1278.44 78.5817 1278.46 78.5817C1278.46 78.5817 1278.48 78.5817 1278.49 78.5817C1278.49 78.5817 1278.5 78.5817 1278.5 78.5817C1278.53 78.5817 1278.55 78.5817 1278.58 78.5626C1278.62 78.5435 1278.65 78.5054 1278.67 78.4672L1278.69 78.41C1278.69 78.41 1278.69 78.3814 1278.69 78.3623C1278.69 78.3337 1278.69 78.305 1278.67 78.2764C1278.29 77.6182 1277.74 77.4846 1277.35 77.4846C1277.05 77.4846 1276.81 77.5609 1276.65 77.6182C1276.47 77.3797 1276.02 76.8836 1275.35 76.8836C1275.11 76.8836 1274.86 76.9504 1274.62 77.0649" fill="#FFFFF1"/>
<path d="M1270.5 80.0699V80.1557C1270.5 80.213 1270.54 80.2607 1270.59 80.2893C1270.62 80.3084 1270.67 80.3179 1270.72 80.3084C1270.72 80.3084 1270.74 80.3084 1270.75 80.2988C1270.79 80.2893 1270.81 80.2607 1270.83 80.2321C1270.92 80.1748 1271.19 80.0603 1271.58 80.0603C1271.97 80.0603 1272.53 80.1653 1273.11 80.6423H1273.12C1273.16 80.69 1273.22 80.709 1273.28 80.709H1273.29C1273.34 80.709 1273.4 80.6804 1273.44 80.6327V80.6136C1274.1 79.9268 1274.79 79.8218 1275.16 79.8218C1275.41 79.8218 1275.6 79.8791 1275.66 79.9172C1275.69 79.9363 1275.72 79.9554 1275.77 79.9745C1275.78 79.9745 1275.8 79.9745 1275.83 79.9745C1275.84 79.9745 1275.86 79.9745 1275.87 79.9649C1275.94 79.9459 1275.99 79.8695 1275.99 79.8028V79.7264C1275.99 79.7264 1275.96 79.6406 1275.92 79.612C1275.54 79.2876 1275.12 79.1254 1274.68 79.1254C1273.99 79.1254 1273.45 79.5261 1273.23 79.7264C1273.02 79.5834 1272.52 79.2972 1271.93 79.2972C1271.42 79.2972 1270.95 79.5166 1270.55 79.9363C1270.52 79.9649 1270.5 80.0126 1270.5 80.0603" fill="#FFFFF1"/>
<path d="M1260.67 81.6248C1260.67 80.461 1261.62 79.5166 1262.78 79.5166C1262.83 79.5166 1262.88 79.5166 1262.92 79.5166C1263.03 78.0475 1264.25 76.8836 1265.76 76.8836C1267.27 76.8836 1268.61 78.1619 1268.61 79.736C1268.61 80.1844 1268.51 80.6041 1268.33 80.9762C1269.75 81.291 1270.82 82.5597 1270.82 84.0861C1270.82 85.8414 1269.39 87.2724 1267.63 87.2724C1267.5 87.2724 1263.38 87.2437 1263.38 87.2437C1262.13 87.2437 1261.13 86.2325 1261.13 84.9924C1261.13 84.3914 1261.37 83.8476 1261.75 83.4469C1261.12 83.0844 1260.69 82.3976 1260.69 81.6153" fill="#FFFFF1"/>
<path d="M1262.53 65.9416H1262.23V65.5123H1263.3V65.9416H1263.01V67.9354H1262.53V65.9416Z" fill="#FFFFF1"/>
<path d="M1263.95 67.1627L1263.84 66.1037L1263.74 67.1627H1263.95ZM1263.74 65.4264L1263.55 65.1307H1263.88L1263.99 65.4264H1263.74ZM1263.99 67.5824H1263.69L1263.65 67.9354H1263.21L1263.53 65.5123H1264.19L1264.5 67.9354H1264.01L1263.98 67.5824H1263.99Z" fill="#FFFFF1"/>
<path d="M1265.1 65.5123H1264.61V67.9354H1265.1V65.5123Z" fill="#FFFFF1"/>
<path d="M1266.15 66.6189L1266.16 67.2294L1266.17 67.9354H1265.75V65.5123H1266.25L1266.52 66.7143V66.0179L1266.51 65.5123H1266.93V67.9354H1266.47L1266.15 66.6189Z" fill="#FFFFF1"/>
<path d="M1267.69 66.5712H1268.32V67.5061C1268.32 67.8114 1268.16 67.9544 1267.87 67.9544H1267.55C1267.25 67.9544 1267.1 67.8018 1267.1 67.5061V65.9416C1267.1 65.6458 1267.26 65.4932 1267.55 65.4932H1267.86C1268.16 65.4932 1268.31 65.6458 1268.31 65.9416V66.409H1267.83V65.9988C1267.83 65.9416 1267.8 65.913 1267.74 65.913H1267.68C1267.62 65.913 1267.59 65.9416 1267.59 65.9988V67.4584C1267.59 67.5156 1267.62 67.5442 1267.68 67.5442H1267.75C1267.81 67.5442 1267.84 67.5156 1267.84 67.4584V66.9719H1267.69V66.5712Z" fill="#FFFFF1"/>
<path d="M1269.21 67.9544H1268.92C1268.62 67.9544 1268.47 67.8018 1268.47 67.5061V65.5123H1268.96V67.4488C1268.96 67.5061 1268.98 67.5347 1269.04 67.5347H1269.1C1269.16 67.5347 1269.18 67.5061 1269.18 67.4488V65.5123H1269.67V67.5061C1269.67 67.8114 1269.53 67.9544 1269.22 67.9544" fill="#FFFFF1"/>
<path d="M1270.16 67.9354V67.1054L1269.75 65.5123H1270.25L1270.41 66.3327L1270.59 65.5123H1271.04L1270.63 67.0768V67.9354H1270.16Z" fill="#FFFFF1"/>
<path d="M1271.12 65.5123V67.9354H1272.03V67.5061H1271.61V66.9242H1272.01V66.4949H1271.61V65.9511H1272.03V65.5218H1271.13L1271.12 65.5123ZM1271.44 65.1212L1271.26 65.4169H1271.47L1271.57 65.3024L1271.66 65.4169H1271.87L1271.69 65.1212H1271.44Z" fill="#FFFFF1"/>
<path d="M1272.59 66.6189V67.2294L1272.6 67.9354H1272.18V65.5123H1272.68L1272.95 66.7143V66.0179L1272.94 65.5123H1273.36V67.9354H1272.9L1272.59 66.6189Z" fill="#FFFFF1"/>
<path d="M1262.94 71.0358H1262.79V71.6654H1262.89C1262.98 71.6654 1263.02 71.6272 1263.02 71.5318V70.2058C1263.02 70.1104 1262.98 70.0723 1262.89 70.0723H1262.79V70.6637H1262.94V71.0358ZM1262.19 71.0453V70.6828H1262.32V69.6716H1262.99C1263.35 69.6716 1263.51 69.8433 1263.51 70.1867V71.57C1263.51 71.923 1263.34 72.0947 1262.99 72.0947H1262.32V71.0453H1262.19Z" fill="#FFFFF1"/>
<path d="M1264.97 69.1088L1264.78 69.4045H1264.53L1264.62 69.1088H1264.97ZM1264.33 71.3124L1264.22 70.2535L1264.12 71.3124H1264.34H1264.33ZM1264.34 69.5762L1264.24 69.4617L1264.15 69.5762H1263.94L1264.11 69.2805H1264.38L1264.55 69.5762H1264.34ZM1264.38 71.7322H1264.07L1264.03 72.0851H1263.59L1263.91 69.6621H1264.57L1264.88 72.0851H1264.4L1264.37 71.7322H1264.38Z" fill="#FFFFF1"/>
<path d="M1265.1 70.0913H1264.81V69.6621H1265.88V70.0913H1265.59V72.0851H1265.1V70.0913Z" fill="#FFFFF1"/>
<path d="M1340 61H1300V101H1340V61Z" fill="#18476B"/>
<path d="M1305.98 64.349V72.4205H1304.63V66.2399H1304.62L1303.67 67.2277H1303.65V65.8166L1304.9 64.349H1305.98Z" fill="#FFFFF1"/>
<path d="M1306.6 64.349H1310.01V65.6002L1308.23 72.4205H1306.89L1308.7 65.4591H1306.6V64.349Z" fill="#FFFFF1"/>
<path d="M1328.4 86.9172C1328.4 84.5372 1326.51 82.5992 1324.16 82.5146C1323.56 80.8024 1321.92 79.5701 1320 79.5701C1318.08 79.5701 1316.45 80.8024 1315.84 82.5146C1313.49 82.5992 1311.6 84.5466 1311.6 86.9172C1311.6 88.3283 1312.27 89.5889 1313.3 90.3885C1313.19 90.7742 1313.12 91.1881 1313.12 91.6115C1313.12 94.0386 1315.1 96.0235 1317.54 96.0235C1318.46 96.0235 1319.31 95.7413 1320.02 95.2521C1320.72 95.7225 1321.56 95.9953 1322.46 95.9953C1324.89 95.9953 1326.87 94.0198 1326.87 91.5927C1326.87 91.1787 1326.81 90.7742 1326.7 90.3885C1327.73 89.5795 1328.39 88.3283 1328.39 86.9172M1323.52 83.9821C1323.52 85.7507 1322.21 87.2088 1320.52 87.4628C1320.49 87.2841 1320.47 87.1054 1320.47 86.9172C1320.47 85.1486 1321.78 83.6905 1323.47 83.4365C1323.5 83.6152 1323.52 83.794 1323.52 83.9727M1320.02 94.1044C1319.36 93.4647 1318.95 92.571 1318.95 91.5833C1318.95 90.5955 1319.34 89.73 1319.98 89.0903C1320.64 89.73 1321.05 90.6237 1321.05 91.6115C1321.05 92.5992 1320.66 93.4647 1320.02 94.1044ZM1316.53 83.4365C1318.22 83.6905 1319.53 85.1486 1319.53 86.9172C1319.53 87.1054 1319.51 87.2841 1319.48 87.4628C1317.79 87.2088 1316.48 85.7507 1316.48 83.9821C1316.48 83.794 1316.5 83.6152 1316.53 83.4459M1319.15 88.4882C1318.57 89.6359 1317.38 90.4356 1316.01 90.4356C1315.43 90.4356 1314.88 90.2945 1314.39 90.0405C1314.98 88.8928 1316.16 88.0931 1317.54 88.0931C1318.12 88.0931 1318.66 88.2342 1319.15 88.4882ZM1320.84 88.4694C1321.33 88.2154 1321.88 88.0649 1322.46 88.0649C1323.85 88.0649 1325.04 88.8739 1325.63 90.031C1325.14 90.285 1324.58 90.4356 1324 90.4356C1322.62 90.4356 1321.42 89.6265 1320.84 88.4694ZM1320 80.4544C1321.44 80.4544 1322.68 81.3293 1323.23 82.571C1321.8 82.825 1320.6 83.7658 1320 85.0452C1319.4 83.7658 1318.2 82.8156 1316.77 82.571C1317.32 81.3293 1318.56 80.4544 1320 80.4544ZM1312.48 86.9172C1312.48 85.1016 1313.87 83.6058 1315.63 83.4177C1315.6 83.6058 1315.59 83.794 1315.59 83.9821C1315.59 85.2709 1316.14 86.428 1317.03 87.2371C1315.57 87.4064 1314.32 88.2907 1313.65 89.523C1312.94 88.8833 1312.48 87.952 1312.48 86.9172ZM1314.01 91.6115C1314.01 91.3575 1314.04 91.1129 1314.08 90.8777C1314.67 91.1599 1315.32 91.3198 1316 91.3198C1316.77 91.3198 1317.5 91.1223 1318.13 90.7742C1318.08 91.0376 1318.05 91.3104 1318.05 91.5833C1318.05 92.7686 1318.53 93.8504 1319.29 94.65C1318.78 94.9511 1318.17 95.1298 1317.53 95.1298C1315.59 95.1298 1314.01 93.5494 1314.01 91.6115ZM1325.98 91.5833C1325.98 93.5212 1324.4 95.1016 1322.46 95.1016C1321.83 95.1016 1321.24 94.9323 1320.72 94.6406C1321.48 93.8504 1321.94 92.7874 1321.94 91.6115C1321.94 91.3199 1321.91 91.0376 1321.85 90.7648C1322.48 91.1129 1323.22 91.3198 1323.99 91.3198C1324.68 91.3198 1325.33 91.1599 1325.91 90.8777C1325.95 91.1035 1325.98 91.3387 1325.98 91.5833ZM1322.99 87.2088C1323.86 86.3998 1324.4 85.2521 1324.4 83.9821C1324.4 83.794 1324.39 83.6058 1324.37 83.4177C1326.13 83.6058 1327.51 85.1016 1327.51 86.9172C1327.51 87.952 1327.06 88.8739 1326.35 89.523C1325.68 88.2813 1324.44 87.3876 1322.98 87.2183" fill="#FFFFF1"/>
<path d="M1313.58 65.7977H1314.06V68.2248H1313.58V67.2088H1313.34V68.2248H1312.86V65.7977H1313.34V66.7761H1313.58V65.7977Z" fill="#FFFFF1"/>
<path d="M1314.96 66.2775C1314.96 66.2211 1314.93 66.1929 1314.87 66.1929H1314.81C1314.75 66.1929 1314.72 66.2211 1314.72 66.2775V67.7357C1314.72 67.7921 1314.75 67.8203 1314.81 67.8203H1314.87C1314.93 67.8203 1314.96 67.7921 1314.96 67.7357V66.2775ZM1314.65 68.4412H1315.03V68.8363H1314.65V68.4412ZM1315.69 65.6378V65.7413C1315.69 65.9483 1315.61 66.0423 1315.43 66.0423C1315.45 66.0988 1315.46 66.1552 1315.46 66.2305V67.7921C1315.46 68.0931 1315.31 68.2436 1315 68.2436H1314.69C1314.39 68.2436 1314.24 68.0931 1314.24 67.7921V66.2305C1314.24 65.9294 1314.39 65.7789 1314.69 65.7789H1315C1315.12 65.7789 1315.22 65.7977 1315.29 65.8448V65.7977H1315.34C1315.4 65.7977 1315.43 65.7695 1315.43 65.7131V65.6284H1315.7L1315.69 65.6378Z" fill="#FFFFF1"/>
<path d="M1316.2 66.2117H1316.1V66.9643H1316.2C1316.26 66.9643 1316.28 66.936 1316.28 66.8796V66.3057C1316.28 66.2493 1316.26 66.2211 1316.2 66.2211M1315.61 68.2248V65.7977H1316.31C1316.61 65.7977 1316.76 65.9483 1316.76 66.2493V66.9266C1316.76 67.2277 1316.61 67.3782 1316.31 67.3782H1316.09V68.2154H1315.6L1315.61 68.2248Z" fill="#FFFFF1"/>
<path d="M1317.62 66.2305H1317.32V65.7977H1318.39V66.2305H1318.1V68.2248H1317.62V66.2305Z" fill="#FFFFF1"/>
<path d="M1319.28 65.412L1319.09 65.7131H1318.84L1318.95 65.412H1319.29H1319.28ZM1319.04 67.444L1318.94 66.3904L1318.83 67.444H1319.05H1319.04ZM1319.09 67.8674H1318.79L1318.75 68.2248H1318.31L1318.63 65.7977H1319.29L1319.6 68.2248H1319.13L1319.09 67.8674Z" fill="#FFFFF1"/>
<path d="M1320.88 67.7921C1320.88 68.0931 1320.73 68.2436 1320.43 68.2436H1320.13C1319.83 68.2436 1319.68 68.0931 1319.68 67.7921V66.2305C1319.68 65.9294 1319.83 65.7789 1320.13 65.7789H1320.42C1320.72 65.7789 1320.87 65.9294 1320.87 66.2305V66.7949H1320.4V66.2775C1320.4 66.2211 1320.37 66.1929 1320.31 66.1929H1320.25C1320.2 66.1929 1320.17 66.2211 1320.17 66.2775V67.7357C1320.17 67.7921 1320.2 67.8203 1320.25 67.8203H1320.32C1320.38 67.8203 1320.4 67.7921 1320.4 67.7357V67.1524H1320.88V67.7921Z" fill="#FFFFF1"/>
<path d="M1322.17 66.8137V67.1806H1322.03V67.8109H1322.13C1322.22 67.8109 1322.26 67.7733 1322.26 67.6792V66.3528C1322.26 66.2587 1322.22 66.2211 1322.13 66.2211H1322.03V66.8137H1322.17ZM1321.43 67.1806V66.8137H1321.55V65.7977H1322.24C1322.59 65.7977 1322.76 65.9671 1322.76 66.3151V67.698C1322.76 68.0461 1322.59 68.2154 1322.24 68.2154H1321.55V67.1712H1321.43V67.1806Z" fill="#FFFFF1"/>
<path d="M1323.74 65.2992V65.2709C1323.74 65.2709 1323.74 65.2615 1323.73 65.2615H1323.72C1323.72 65.2615 1323.7 65.2615 1323.7 65.2709V65.318H1323.53V65.2709C1323.53 65.158 1323.58 65.1016 1323.7 65.1016H1323.75C1323.87 65.1016 1323.92 65.158 1323.92 65.2709V65.2897C1323.92 65.3556 1323.91 65.3932 1323.87 65.4403L1323.82 65.4967C1323.82 65.4967 1323.79 65.5249 1323.79 65.572H1323.65V65.5155C1323.65 65.4497 1323.65 65.4309 1323.69 65.3838L1323.72 65.3556C1323.72 65.3556 1323.74 65.318 1323.74 65.2897M1323.46 65.7131L1323.37 65.6002L1323.27 65.7131H1323.07L1323.25 65.412H1323.51L1323.69 65.7131H1323.46ZM1323.41 66.2305V66.7761H1323.8V67.2088H1323.41V67.7921H1323.83V68.2248H1322.93V65.7977H1323.83V66.2305H1323.41Z" fill="#FFFFF1"/>
<path d="M1313.58 69.9558H1314.06V72.3735H1313.58V71.3575H1313.34V72.3735H1312.86V69.9558H1313.34V70.9247H1313.58V69.9558Z" fill="#FFFFF1"/>
<path d="M1314.73 69.9558H1314.24V72.3735H1314.73V69.9558Z" fill="#FFFFF1"/>
<path d="M1315.16 72.9944H1315.54V72.5992H1315.16V72.9944ZM1314.9 69.9558V72.3829H1315.8V71.9501H1315.38V71.3669H1315.78V70.9341H1315.38V70.3885H1315.79V69.9558H1314.89H1314.9ZM1315.22 69.5607L1315.04 69.8617H1315.25L1315.34 69.7488L1315.44 69.8617H1315.64L1315.47 69.5607H1315.2H1315.22Z" fill="#FFFFF1"/>
<path d="M1316.37 71.0564L1316.38 71.6679L1316.39 72.3735H1315.96V69.9464H1316.46L1316.75 71.1505L1316.74 70.4544V69.9464H1317.15V72.3735H1316.68L1316.37 71.0564Z" fill="#FFFFF1"/>
<path d="M1318.03 70.3791H1317.74V69.9464H1318.81V70.3791H1318.52V72.3735H1318.03V70.3791Z" fill="#FFFFF1"/>
<path d="M1319.66 69.9558H1320.14V72.3735H1319.66V71.3575H1319.42V72.3735H1318.94V69.9558H1319.42V70.9247H1319.66V69.9558Z" fill="#FFFFF1"/>
<path d="M1320.71 72.5898H1321.1V72.9849H1320.71V72.5898ZM1321.75 69.7865V69.8899C1321.75 70.0875 1321.67 70.1816 1321.51 70.191V71.9407C1321.51 72.2418 1321.35 72.3923 1321.05 72.3923H1320.76C1320.46 72.3923 1320.31 72.2418 1320.31 71.9407V69.9464H1320.8V71.8843C1320.8 71.9407 1320.83 71.969 1320.88 71.969H1320.94C1321 71.969 1321.03 71.9407 1321.03 71.8843V69.9464H1321.4C1321.46 69.9464 1321.49 69.9182 1321.49 69.8617V69.777H1321.76L1321.75 69.7865Z" fill="#FFFFF1"/>
<path d="M1322.87 71.9407C1322.87 72.2418 1322.72 72.3923 1322.42 72.3923H1322.12C1321.82 72.3923 1321.67 72.2418 1321.67 71.9407V70.3791C1321.67 70.0781 1321.82 69.9276 1322.12 69.9276H1322.41C1322.71 69.9276 1322.86 70.0781 1322.86 70.3791V70.9436H1322.38V70.4262C1322.38 70.3697 1322.35 70.3415 1322.3 70.3415H1322.24C1322.18 70.3415 1322.15 70.3697 1322.15 70.4262V71.8843C1322.15 71.9407 1322.18 71.969 1322.24 71.969H1322.3C1322.36 71.969 1322.39 71.9407 1322.39 71.8843V71.2916H1322.87V71.9407Z" fill="#FFFFF1"/>
<path d="M1324.22 69.9558H1324.71V72.3735H1324.22V71.3575H1323.98V72.3735H1323.5V69.9558H1323.98V70.9247H1324.22V69.9558Z" fill="#FFFFF1"/>
<path d="M1325.51 70.3509H1325.45C1325.39 70.3509 1325.36 70.3791 1325.36 70.4356V71.8937C1325.36 71.9501 1325.39 71.9784 1325.45 71.9784H1325.51C1325.57 71.9784 1325.6 71.9501 1325.6 71.8937V70.4356C1325.6 70.3791 1325.57 70.3509 1325.51 70.3509ZM1325.79 69.5607L1325.61 69.8617H1325.36L1325.47 69.5607H1325.8H1325.79ZM1325.64 72.3923H1325.32C1325.02 72.3923 1324.87 72.2418 1324.87 71.9407V70.3791C1324.87 70.0781 1325.02 69.9276 1325.32 69.9276H1325.64C1325.94 69.9276 1326.09 70.0781 1326.09 70.3791V71.9407C1326.09 72.2418 1325.94 72.3923 1325.64 72.3923Z" fill="#FFFFF1"/>
<path d="M1326.9 71.6021L1326.8 70.5484L1326.7 71.6021H1326.91H1326.9ZM1326.94 72.0254H1326.64L1326.6 72.3829H1326.16L1326.48 69.9652H1327.14L1327.46 72.3829H1326.98L1326.94 72.0254Z" fill="#FFFFF1"/>
<path d="M1314.05 76.0988C1314.05 76.3998 1313.89 76.5503 1313.59 76.5503H1313.29C1312.99 76.5503 1312.84 76.3998 1312.84 76.0988V74.5372C1312.84 74.2361 1312.99 74.0856 1313.29 74.0856H1313.58C1313.89 74.0856 1314.04 74.2361 1314.04 74.5372V75.1016H1313.56V74.5842C1313.56 74.5278 1313.53 74.4995 1313.47 74.4995H1313.41C1313.36 74.4995 1313.33 74.5278 1313.33 74.5842V76.0423C1313.33 76.0988 1313.36 76.127 1313.41 76.127H1313.48C1313.54 76.127 1313.57 76.0988 1313.57 76.0423V75.4591H1314.05V76.0988Z" fill="#FFFFF1"/>
<path d="M1315.09 73.7187L1314.9 74.0198H1314.66L1314.76 73.7187H1315.1H1315.09ZM1314.85 75.7507L1314.75 74.6971L1314.65 75.7507H1314.86H1314.85ZM1314.9 76.174H1314.6L1314.56 76.5315H1314.12L1314.44 74.1044H1315.1L1315.42 76.5315H1314.94L1314.9 76.174Z" fill="#FFFFF1"/>
<path d="M1316.7 76.0988C1316.7 76.3998 1316.55 76.5503 1316.25 76.5503H1315.95C1315.64 76.5503 1315.49 76.3998 1315.49 76.0988V74.5372C1315.49 74.2361 1315.64 74.0856 1315.95 74.0856H1316.24C1316.54 74.0856 1316.69 74.2361 1316.69 74.5372V75.1016H1316.21V74.5842C1316.21 74.5278 1316.18 74.4995 1316.12 74.4995H1316.07C1316.01 74.4995 1315.98 74.5278 1315.98 74.5842V76.0423C1315.98 76.0988 1316.01 76.127 1316.07 76.127H1316.13C1316.19 76.127 1316.22 76.0988 1316.22 76.0423V75.4591H1316.7V76.0988Z" fill="#FFFFF1"/>
<path d="M1317.71 76.5221H1317.33V74.1044H1318.02L1318.17 75.572L1318.32 74.1044H1319.02V76.5221H1318.54V74.9417L1318.35 76.5221H1317.9L1317.71 74.9229V76.5221Z" fill="#FFFFF1"/>
<path d="M1319.6 76.7385H1319.98V77.1336H1319.6V76.7385ZM1319.93 76.5409H1319.64C1319.34 76.5409 1319.19 76.3904 1319.19 76.0894V74.095H1319.67V76.0329C1319.67 76.0894 1319.7 76.1176 1319.76 76.1176H1319.8C1319.86 76.1176 1319.89 76.0894 1319.89 76.0329V74.095H1320.37V76.0894C1320.37 76.3904 1320.22 76.5409 1319.92 76.5409" fill="#FFFFF1"/>
<path d="M1321.74 76.0988C1321.74 76.3998 1321.59 76.5503 1321.29 76.5503H1320.99C1320.69 76.5503 1320.54 76.3998 1320.54 76.0988V74.5372C1320.54 74.2361 1320.69 74.0856 1320.99 74.0856H1321.28C1321.58 74.0856 1321.73 74.2361 1321.73 74.5372V75.1016H1321.25V74.5842C1321.25 74.5278 1321.22 74.4995 1321.17 74.4995H1321.11C1321.05 74.4995 1321.03 74.5278 1321.03 74.5842V76.0423C1321.03 76.0988 1321.05 76.127 1321.11 76.127H1321.18C1321.23 76.127 1321.26 76.0988 1321.26 76.0423V75.4591H1321.74V76.0988Z" fill="#FFFFF1"/>
<path d="M1322.62 74.5372H1322.32V74.1044H1323.4V74.5372H1323.1V76.5221H1322.62V74.5372Z" fill="#FFFFF1"/>
<path d="M1324.01 74.1044H1323.52V76.5315H1324.01V74.1044Z" fill="#FFFFF1"/>
<path d="M1324.18 74.1044V76.5221H1325.08V76.0894H1324.66V75.5061H1325.05V75.0734H1324.66V74.5278H1325.07V74.095H1324.17L1324.18 74.1044ZM1324.5 73.7187L1324.32 74.0198H1324.52L1324.62 73.9069L1324.71 74.0198H1324.92L1324.74 73.7187H1324.48H1324.5Z" fill="#FFFFF1"/>
<path d="M1325.98 76.5409H1325.69C1325.39 76.5409 1325.24 76.3904 1325.24 76.0894V74.095H1325.72V76.0329C1325.72 76.0894 1325.75 76.1176 1325.8 76.1176H1325.85C1325.91 76.1176 1325.94 76.0894 1325.94 76.0329V74.095H1326.42V76.0894C1326.42 76.3904 1326.27 76.5409 1325.96 76.5409" fill="#FFFFF1"/>
<text fill="#006D5A" xml:space="preserve" style="white-space: pre" font-family="VNM Sans Display" font-size="80" font-weight="bold" letter-spacing="0em"><tspan x="788" y="190.6">QU&#x1ea2;N L&#xdd; CH&#x1ea4;T TH&#x1ea2;I</tspan></text>
<text fill="#006D5A" xml:space="preserve" style="white-space: pre" font-family="VNM Sans Std" font-size="32" letter-spacing="0em"><tspan x="871.797" y="238.572">Kinh T&#x1ebf; Tu&#x1ea7;n Ho&#xe0;n -&#xa0;&#10;</tspan><tspan x="843.094" y="275.572">Ki&#x1ebf;n T&#x1ea1;o T&#x1b0;&#x1a1;ng Lai Xanh</tspan></text>
<text fill="#006D5A" xml:space="preserve" style="white-space: pre" font-family="VNM Sans Std" font-size="16" font-weight="500" letter-spacing="0em"><tspan x="816.578" y="301.536">V&#x1edb;i cam k&#x1ebf;t ph&#xe1;t tri&#x1ec3;n b&#x1ec1;n v&#x1eef;ng v&#xe0; b&#x1ea3;o v&#x1ec7; m&#xf4;i tr&#x1b0;&#x1edd;ng,&#xa0;&#10;</tspan><tspan x="781.266" y="319.536">Vinamilk &#x111;&#xe3; &#x111;&#x1ea1;t &#x111;&#x1b0;&#x1ee3;c nh&#x1eef;ng th&#xe0;nh t&#x1ef1;u &#x1ea5;n t&#x1b0;&#x1ee3;ng trong n&#x103;m 2023</tspan></text>
<rect x="725" y="344" width="560" height="358" rx="8" fill="#006D5A"/>
<text fill="#FFFFF1" xml:space="preserve" style="white-space: pre" font-family="VNM Sans Std" font-size="16" letter-spacing="0em"><tspan x="838.812" y="421.536">Tr&#x1ed3;ng h&#x1a1;n</tspan></text>
<text fill="#FFFFF1" xml:space="preserve" style="white-space: pre" font-family="VNM Sans Display" font-size="60" font-weight="bold" letter-spacing="0em"><tspan x="827.125" y="475" data-counter data-delay="600" data-from="0" data-to="100" data-ori="100%">100%</tspan></text>
<text fill="#FFFFF1" xml:space="preserve" style="white-space: pre" font-family="VNM Sans Std" font-size="16" letter-spacing="0em"><tspan x="762.898" y="497.536">ho&#xe0;n th&#xe0;nh &#x111;&#xfa;ng ti&#x1ebf;n &#x111;&#x1ed9; b&#xe1;o c&#xe1;o </tspan><tspan x="760.734" y="515.536">m&#xf4;i tr&#x1b0;&#x1edd;ng, quan tr&#x1eaf;c m&#xf4;i tr&#x1b0;&#x1edd;ng </tspan><tspan x="849.852" y="533.536">&#x111;&#x1ecb;nh k&#x1ef3;</tspan></text>
<line x1="986" y1="548.5" x2="762" y2="548.5" stroke="#FFFFF1" stroke-width="3"/>
<text fill="#2DFFB3" xml:space="preserve" style="white-space: pre" font-family="VNM Sans Display" font-size="32" font-weight="bold" letter-spacing="0em"><tspan x="798.766" y="616.2">KH&#xd4;NG VI PH&#x1ea0;M &#x2028;</tspan><tspan x="824.219" y="650.2">PH&#xc1;P LU&#x1eac;T</tspan></text>
<text fill="#FFFFF1" xml:space="preserve" style="white-space: pre" font-family="VNM Sans Display" font-size="32" font-weight="bold" letter-spacing="0em"><tspan x="1014.67" y="449.2">KH&#xd4;NG C&#xd3; KHI&#x1ebe;U N&#x1ea0;I C&#x1ee6;A </tspan><tspan x="1014.5" y="483.2">C&#x1ed8;NG &#x110;&#x1ed2;NG XUNG QUANH </tspan><tspan x="1054.94" y="517.2">V&#x1ec0; M&#xd4;I TR&#x1af;&#x1edc;NG</tspan></text>
<line x1="1240" y1="548.5" x2="1016" y2="548.5" stroke="#FFFFF1" stroke-width="3"/>
<text fill="#2DFFB3" xml:space="preserve" style="white-space: pre" font-family="VNM Sans Display" font-size="32" font-weight="bold" letter-spacing="0em"><tspan x="1051.78" y="616.2">KH&#xd4;NG C&#xd3; S&#x1ef0; C&#x1ed0; &#x2028;</tspan><tspan x="1066.55" y="650.2"> M&#xd4;I TR&#x1af;&#x1edc;NG</tspan></text>
<text fill="#FFFFF1" xml:space="preserve" style="white-space: pre" font-family="VNM Sans Display" font-size="24" letter-spacing="0em"><tspan x="855.066" y="384.16">TU&#xc2;N TH&#x1ee6; NGHI&#xca;M NG&#x1eb6;T C&#xc1;C QUY &#x110;&#x1eca;NH V&#x1ec0; M&#xd4;I TR&#x1af;&#x1edc;NG</tspan></text>
</g>
<defs>
<clipPath id="clip0_141_2626">
<rect width="1440" height="774" fill="white"/>
</clipPath>
</defs>
</svg>
