<svg width="342" height="161" viewBox="0 0 342 161" fill="none" xmlns="http://www.w3.org/2000/svg">
<rect x="0.5" y="0.5" width="341" height="160" rx="7.5" fill="#4DD75A"/>
<rect x="0.5" y="0.5" width="341" height="160" rx="7.5" stroke="#0B4314"/>
<path d="M62.492 41C62.3853 41 62.332 40.9467 62.332 40.84V32.152C62.332 31.576 62.3053 31.1493 62.252 30.872C62.2093 30.5947 62.124 30.296 61.996 29.976L61.98 29.912C61.98 29.8373 62.028 29.8 62.124 29.8H65.308C65.404 29.8 65.468 29.8373 65.5 29.912L68.652 36.872C68.684 36.936 68.7213 36.968 68.764 36.968C68.8387 36.968 68.876 36.9147 68.876 36.808V32.152C68.876 31.576 68.8493 31.1493 68.796 30.872C68.7533 30.5947 68.668 30.296 68.54 29.976L68.524 29.912C68.524 29.8373 68.572 29.8 68.668 29.8H71.516C71.5693 29.8 71.6067 29.816 71.628 29.848C71.66 29.88 71.6653 29.9227 71.644 29.976C71.516 30.296 71.4253 30.5947 71.372 30.872C71.3293 31.1493 71.308 31.576 71.308 32.152V40.84C71.308 40.9467 71.2547 41 71.148 41H68.332C68.2467 41 68.1827 40.9627 68.14 40.888L64.972 33.912C64.9507 33.8587 64.9187 33.832 64.876 33.832C64.8013 33.832 64.764 33.88 64.764 33.976V40.84C64.764 40.9467 64.7107 41 64.604 41H62.492ZM73.0474 41C73.0047 41 72.9674 40.984 72.9354 40.952C72.9034 40.92 72.8874 40.8827 72.8874 40.84V32.152C72.8874 31.576 72.8607 31.1493 72.8074 30.872C72.7647 30.5947 72.6794 30.296 72.5514 29.976L72.5354 29.912C72.5354 29.8373 72.5834 29.8 72.6794 29.8H75.1914C75.234 29.8 75.2714 29.816 75.3034 29.848C75.3354 29.88 75.3514 29.9173 75.3514 29.96V33.24C75.3514 33.2827 75.3567 33.32 75.3674 33.352C75.378 33.3733 75.394 33.384 75.4154 33.384C75.458 33.384 75.5007 33.3467 75.5434 33.272C75.778 32.888 76.0554 32.5893 76.3754 32.376C76.706 32.152 77.1914 32.04 77.8314 32.04C78.7807 32.04 79.4954 32.3173 79.9754 32.872C80.4554 33.4267 80.6954 34.1627 80.6954 35.08V40.84C80.6954 40.8827 80.6794 40.92 80.6474 40.952C80.6154 40.984 80.578 41 80.5354 41H78.3914C78.3487 41 78.3114 40.984 78.2794 40.952C78.2474 40.92 78.2314 40.8827 78.2314 40.84V35.304C78.2314 34.856 78.114 34.52 77.8794 34.296C77.6447 34.072 77.3407 33.96 76.9674 33.96C76.4447 33.96 76.0447 34.1467 75.7674 34.52C75.49 34.8933 75.3514 35.4267 75.3514 36.12V40.84C75.3514 40.8827 75.3354 40.92 75.3034 40.952C75.2714 40.984 75.234 41 75.1914 41H73.0474ZM84.1483 41.16C83.3163 41.16 82.6496 40.9413 82.1483 40.504C81.6576 40.056 81.4123 39.4213 81.4123 38.6C81.4123 37.864 81.6309 37.288 82.0683 36.872C82.5163 36.456 83.2309 36.1573 84.2123 35.976L85.6043 35.72C85.9243 35.656 86.1429 35.5707 86.2603 35.464C86.3883 35.3467 86.4523 35.2027 86.4523 35.032C86.4523 34.744 86.3243 34.5147 86.0683 34.344C85.8229 34.1627 85.4603 34.072 84.9803 34.072C84.3616 34.072 83.8283 34.2267 83.3803 34.536C82.9323 34.8347 82.5163 35.224 82.1323 35.704C82.0896 35.768 82.0416 35.8 81.9883 35.8C81.9349 35.8 81.9083 35.752 81.9083 35.656V33.912C81.9083 33.3147 82.2389 32.856 82.9003 32.536C83.5723 32.2053 84.3883 32.04 85.3483 32.04C86.5749 32.04 87.4603 32.3067 88.0043 32.84C88.5483 33.3627 88.8203 34.04 88.8203 34.872V40.84C88.8203 40.8827 88.8043 40.92 88.7723 40.952C88.7403 40.984 88.7083 41 88.6763 41H86.6443C86.6123 41 86.5749 40.984 86.5323 40.952C86.5003 40.92 86.4843 40.8827 86.4843 40.84V40.04C86.4843 39.9973 86.4683 39.976 86.4363 39.976C86.3936 39.976 86.3563 40.0027 86.3243 40.056C86.0789 40.4507 85.7749 40.7333 85.4123 40.904C85.0603 41.0747 84.6389 41.16 84.1483 41.16ZM85.0443 39.416C85.4816 39.416 85.8229 39.272 86.0683 38.984C86.3243 38.696 86.4523 38.3067 86.4523 37.816V37.192C86.4523 37.064 86.3883 37.0107 86.2603 37.032L85.2682 37.208C84.3616 37.3787 83.9083 37.7627 83.9083 38.36C83.9083 38.7013 84.0096 38.9627 84.2123 39.144C84.4149 39.3253 84.6923 39.416 85.0443 39.416ZM87.2683 31.352C86.4789 31.352 85.7856 31.32 85.1883 31.256C84.6016 31.1813 84.0149 31.0693 83.4283 30.92C83.2896 30.888 83.2203 30.808 83.2203 30.68V30.088C83.2203 30.024 83.2629 30.0027 83.3483 30.024C84.0309 30.2053 84.6816 30.3333 85.3003 30.408C85.9189 30.472 86.5749 30.504 87.2683 30.504C87.3429 30.504 87.3803 30.536 87.3803 30.6V31.256C87.3803 31.32 87.3429 31.352 87.2683 31.352ZM92.4536 41C92.347 41 92.2936 40.9467 92.2936 40.84V34.552C92.2936 33.976 92.267 33.5493 92.2136 33.272C92.171 32.9947 92.0856 32.696 91.9576 32.376L91.9416 32.312C91.9416 32.2373 91.9896 32.2 92.0856 32.2H94.4696C94.523 32.2 94.5656 32.216 94.5976 32.248C94.6296 32.28 94.6456 32.3173 94.6456 32.36V33.304C94.6456 33.4 94.6723 33.448 94.7256 33.448C94.7683 33.448 94.8056 33.4107 94.8376 33.336C95.2963 32.472 96.027 32.04 97.0296 32.04C97.6056 32.04 98.107 32.1787 98.5336 32.456C98.9603 32.7333 99.275 33.1173 99.4776 33.608C99.499 33.672 99.5256 33.704 99.5576 33.704C99.6003 33.704 99.6323 33.6773 99.6536 33.624C99.899 33.1333 100.192 32.7493 100.534 32.472C100.886 32.184 101.382 32.04 102.022 32.04C102.566 32.04 103.04 32.168 103.446 32.424C103.851 32.6693 104.16 33.0107 104.374 33.448C104.598 33.8853 104.71 34.376 104.71 34.92V40.84C104.71 40.9467 104.656 41 104.55 41H102.422C102.368 41 102.326 40.984 102.294 40.952C102.262 40.92 102.246 40.8827 102.246 40.84V35.16C102.246 34.36 101.904 33.96 101.222 33.96C100.784 33.96 100.427 34.1413 100.15 34.504C99.8723 34.856 99.7336 35.4053 99.7336 36.152V40.84C99.7336 40.9467 99.6803 41 99.5736 41H97.4296C97.323 41 97.2696 40.9467 97.2696 40.84V35.16C97.2696 34.36 96.9283 33.96 96.2456 33.96C95.8083 33.96 95.451 34.1413 95.1736 34.504C94.8963 34.856 94.7576 35.4053 94.7576 36.152V40.84C94.7576 40.8827 94.7416 40.92 94.7096 40.952C94.6776 40.984 94.635 41 94.5816 41H92.4536ZM108.164 41.16C107.332 41.16 106.665 40.9413 106.164 40.504C105.673 40.056 105.428 39.4213 105.428 38.6C105.428 37.864 105.647 37.288 106.084 36.872C106.532 36.456 107.247 36.1573 108.228 35.976L109.62 35.72C109.94 35.656 110.159 35.5707 110.276 35.464C110.404 35.3467 110.468 35.2027 110.468 35.032C110.468 34.744 110.34 34.5147 110.084 34.344C109.839 34.1627 109.476 34.072 108.996 34.072C108.377 34.072 107.844 34.2267 107.396 34.536C106.948 34.8347 106.532 35.224 106.148 35.704C106.105 35.768 106.057 35.8 106.004 35.8C105.951 35.8 105.924 35.752 105.924 35.656V33.912C105.924 33.3147 106.255 32.856 106.916 32.536C107.588 32.2053 108.404 32.04 109.364 32.04C110.591 32.04 111.476 32.3067 112.02 32.84C112.564 33.3627 112.836 34.04 112.836 34.872V40.84C112.836 40.8827 112.82 40.92 112.788 40.952C112.756 40.984 112.724 41 112.692 41H110.66C110.628 41 110.591 40.984 110.548 40.952C110.516 40.92 110.5 40.8827 110.5 40.84V40.04C110.5 39.9973 110.484 39.976 110.452 39.976C110.409 39.976 110.372 40.0027 110.34 40.056C110.095 40.4507 109.791 40.7333 109.428 40.904C109.076 41.0747 108.655 41.16 108.164 41.16ZM109.06 39.416C109.497 39.416 109.839 39.272 110.084 38.984C110.34 38.696 110.468 38.3067 110.468 37.816V37.192C110.468 37.064 110.404 37.0107 110.276 37.032L109.284 37.208C108.377 37.3787 107.924 37.7627 107.924 38.36C107.924 38.7013 108.025 38.9627 108.228 39.144C108.431 39.3253 108.708 39.416 109.06 39.416ZM107.444 31.352C107.369 31.352 107.332 31.32 107.332 31.256V30.6C107.332 30.536 107.369 30.504 107.444 30.504C108.137 30.504 108.793 30.472 109.412 30.408C110.031 30.3333 110.681 30.2053 111.364 30.024C111.449 30.0027 111.492 30.024 111.492 30.088V30.68C111.492 30.808 111.423 30.888 111.284 30.92C110.697 31.0693 110.105 31.1813 109.508 31.256C108.921 31.32 108.233 31.352 107.444 31.352ZM115.537 42.84C114.79 42.84 114.273 42.7973 113.985 42.712C113.739 42.6373 113.617 42.4613 113.617 42.184V40.888C113.617 40.7387 113.691 40.6907 113.841 40.744C113.979 40.7867 114.193 40.8293 114.481 40.872C114.779 40.9147 115.078 40.936 115.377 40.936C115.665 40.936 115.809 40.8507 115.809 40.68C115.809 40.6267 115.761 40.456 115.665 40.168L113.617 34.072C113.467 33.624 113.329 33.288 113.201 33.064C113.083 32.84 112.939 32.632 112.769 32.44C112.737 32.408 112.721 32.3707 112.721 32.328C112.721 32.2427 112.769 32.2 112.865 32.2H115.953C116.049 32.2 116.113 32.2213 116.145 32.264C116.177 32.3067 116.171 32.36 116.129 32.424C116.001 32.616 115.937 32.8453 115.937 33.112C115.937 33.3467 115.985 33.64 116.081 33.992L117.185 37.944C117.217 38.0507 117.27 38.104 117.345 38.104C117.43 38.104 117.483 38.0507 117.505 37.944L118.593 33.752C118.657 33.5067 118.689 33.2987 118.689 33.128C118.689 32.8613 118.619 32.6267 118.481 32.424C118.459 32.3813 118.449 32.3493 118.449 32.328C118.449 32.2427 118.518 32.2 118.657 32.2H121.585C121.681 32.2 121.729 32.2427 121.729 32.328C121.729 32.3707 121.713 32.408 121.681 32.44C121.51 32.6427 121.361 32.8507 121.233 33.064C121.115 33.2773 120.987 33.6027 120.849 34.04L118.769 40.616C118.513 41.4373 118.134 42.0133 117.633 42.344C117.142 42.6747 116.443 42.84 115.537 42.84ZM127.674 41.16C126.586 41.16 125.775 41.0213 125.242 40.744C124.719 40.4667 124.458 40.0667 124.458 39.544V38.056C124.458 37.9493 124.495 37.896 124.57 37.896C124.613 37.896 124.661 37.9227 124.714 37.976C125.045 38.36 125.439 38.6853 125.898 38.952C126.357 39.2187 126.847 39.352 127.37 39.352C128.159 39.352 128.554 39.0533 128.554 38.456C128.554 38.232 128.479 38.0613 128.33 37.944C128.181 37.816 127.914 37.7093 127.53 37.624L126.634 37.416C125.898 37.2453 125.349 36.952 124.986 36.536C124.634 36.1093 124.458 35.5547 124.458 34.872C124.458 34.0187 124.778 33.336 125.418 32.824C126.069 32.3013 126.959 32.04 128.09 32.04C129.861 32.04 130.746 32.5893 130.746 33.688V35.016C130.746 35.1013 130.709 35.144 130.634 35.144C130.581 35.144 130.538 35.1173 130.506 35.064C130.229 34.6373 129.882 34.328 129.466 34.136C129.05 33.9333 128.613 33.832 128.154 33.832C127.759 33.832 127.455 33.912 127.242 34.072C127.029 34.2213 126.922 34.4293 126.922 34.696C126.922 34.9413 126.991 35.128 127.13 35.256C127.279 35.384 127.514 35.48 127.834 35.544L128.81 35.736C129.557 35.8853 130.117 36.168 130.49 36.584C130.874 36.9893 131.066 37.5227 131.066 38.184C131.066 39.0907 130.757 39.816 130.138 40.36C129.53 40.8933 128.709 41.16 127.674 41.16ZM134.513 41.16C133.596 41.16 132.903 40.8827 132.433 40.328C131.975 39.7733 131.745 39.0373 131.745 38.12V34.552C131.745 33.976 131.719 33.5493 131.665 33.272C131.623 32.9947 131.537 32.696 131.409 32.376L131.393 32.312C131.393 32.2373 131.441 32.2 131.537 32.2H134.049C134.156 32.2 134.209 32.2533 134.209 32.36V37.896C134.209 38.3653 134.321 38.7067 134.545 38.92C134.769 39.1333 135.063 39.24 135.425 39.24C135.916 39.24 136.289 39.0587 136.545 38.696C136.801 38.3333 136.929 37.8 136.929 37.096V34.552C136.929 33.976 136.903 33.5493 136.849 33.272C136.807 32.9947 136.721 32.696 136.593 32.376L136.577 32.312C136.577 32.2373 136.625 32.2 136.721 32.2H139.233C139.34 32.2 139.393 32.2533 139.393 32.36V34.632C139.393 34.888 139.495 35.016 139.697 35.016C139.889 35.016 140.023 34.92 140.097 34.728C140.183 34.5253 140.225 34.28 140.225 33.992C140.225 33.4907 140.151 32.952 140.001 32.376L139.985 32.328C139.985 32.2427 140.039 32.2 140.145 32.2H140.817C140.924 32.2 140.983 32.248 140.993 32.344C141.111 32.7813 141.169 33.3147 141.169 33.944C141.169 34.5413 141.041 34.9893 140.785 35.288C140.54 35.5867 140.151 35.7627 139.617 35.816C139.532 35.8267 139.473 35.848 139.441 35.88C139.409 35.912 139.393 35.9707 139.393 36.056V40.84C139.393 40.9467 139.34 41 139.233 41H137.201C137.095 41 137.041 40.9467 137.041 40.84V39.88C137.041 39.8373 137.02 39.8107 136.977 39.8C136.935 39.7893 136.897 39.816 136.865 39.88C136.705 40.2107 136.439 40.5093 136.065 40.776C135.703 41.032 135.185 41.16 134.513 41.16ZM136.513 31.448C136.279 31.448 136.076 31.4107 135.905 31.336C135.735 31.2613 135.553 31.1547 135.361 31.016C135.223 30.9093 135.1 30.8347 134.993 30.792C134.887 30.7387 134.775 30.712 134.657 30.712C134.497 30.712 134.375 30.7653 134.289 30.872C134.215 30.9787 134.172 31.0907 134.161 31.208C134.14 31.304 134.092 31.352 134.017 31.352H133.425C133.361 31.352 133.319 31.3413 133.297 31.32C133.276 31.288 133.265 31.24 133.265 31.176C133.265 30.8347 133.372 30.5307 133.585 30.264C133.809 29.9867 134.156 29.848 134.625 29.848C134.86 29.848 135.063 29.8853 135.233 29.96C135.404 30.0347 135.585 30.1413 135.777 30.28C135.916 30.3867 136.039 30.4667 136.145 30.52C136.252 30.5627 136.364 30.584 136.481 30.584C136.641 30.584 136.759 30.5307 136.833 30.424C136.919 30.3173 136.967 30.2053 136.977 30.088C136.999 29.992 137.047 29.944 137.121 29.944H137.713C137.777 29.944 137.82 29.96 137.841 29.992C137.863 30.0133 137.873 30.056 137.873 30.12C137.873 30.4613 137.761 30.7707 137.537 31.048C137.324 31.3147 136.983 31.448 136.513 31.448ZM144.008 41.16C143.176 41.16 142.509 40.9413 142.008 40.504C141.517 40.056 141.272 39.4213 141.272 38.6C141.272 37.864 141.49 37.288 141.928 36.872C142.376 36.456 143.09 36.1573 144.072 35.976L145.464 35.72C145.784 35.656 146.002 35.5707 146.12 35.464C146.248 35.3467 146.312 35.2027 146.312 35.032C146.312 34.744 146.184 34.5147 145.928 34.344C145.682 34.1627 145.32 34.072 144.84 34.072C144.221 34.072 143.688 34.2267 143.24 34.536C142.792 34.8347 142.376 35.224 141.992 35.704C141.949 35.768 141.901 35.8 141.848 35.8C141.794 35.8 141.768 35.752 141.768 35.656V33.912C141.768 33.3147 142.098 32.856 142.76 32.536C143.432 32.2053 144.248 32.04 145.208 32.04C146.434 32.04 147.32 32.3067 147.864 32.84C148.408 33.3627 148.68 34.04 148.68 34.872V40.84C148.68 40.8827 148.664 40.92 148.632 40.952C148.6 40.984 148.568 41 148.536 41H146.504C146.472 41 146.434 40.984 146.392 40.952C146.36 40.92 146.344 40.8827 146.344 40.84V40.04C146.344 39.9973 146.328 39.976 146.296 39.976C146.253 39.976 146.216 40.0027 146.184 40.056C145.938 40.4507 145.634 40.7333 145.272 40.904C144.92 41.0747 144.498 41.16 144.008 41.16ZM144.904 39.416C145.341 39.416 145.682 39.272 145.928 38.984C146.184 38.696 146.312 38.3067 146.312 37.816V37.192C146.312 37.064 146.248 37.0107 146.12 37.032L145.128 37.208C144.221 37.3787 143.768 37.7627 143.768 38.36C143.768 38.7013 143.869 38.9627 144.072 39.144C144.274 39.3253 144.552 39.416 144.904 39.416ZM155.545 41C155.385 41 155.289 40.9307 155.257 40.792L152.585 31.592C152.468 31.176 152.345 30.8667 152.217 30.664C152.1 30.4507 151.95 30.2427 151.769 30.04C151.737 30.008 151.721 29.9707 151.721 29.928C151.721 29.8427 151.769 29.8 151.865 29.8H155.113C155.209 29.8 155.273 29.8213 155.305 29.864C155.337 29.9067 155.332 29.96 155.289 30.024C155.14 30.2373 155.065 30.4773 155.065 30.744C155.065 30.8827 155.102 31.1013 155.177 31.4L157.017 38.168C157.049 38.264 157.097 38.312 157.161 38.312C157.246 38.312 157.294 38.264 157.305 38.168L159.193 31.304C159.246 31.1333 159.273 30.9467 159.273 30.744C159.273 30.4773 159.198 30.2373 159.049 30.024C159.028 29.9813 159.017 29.9493 159.017 29.928C159.017 29.8427 159.086 29.8 159.225 29.8H162.329C162.425 29.8 162.473 29.8427 162.473 29.928C162.473 29.9707 162.457 30.008 162.425 30.04C162.254 30.232 162.11 30.4293 161.993 30.632C161.876 30.8347 161.753 31.1547 161.625 31.592L158.953 40.792C158.921 40.9307 158.825 41 158.665 41H155.545ZM162.938 41C162.895 41 162.858 40.984 162.826 40.952C162.794 40.92 162.778 40.8827 162.778 40.84V34.552C162.778 33.976 162.751 33.5493 162.698 33.272C162.655 32.9947 162.57 32.696 162.442 32.376L162.426 32.312C162.426 32.2373 162.474 32.2 162.57 32.2H165.082C165.125 32.2 165.162 32.216 165.194 32.248C165.226 32.28 165.242 32.3173 165.242 32.36V40.84C165.242 40.8827 165.226 40.92 165.194 40.952C165.162 40.984 165.125 41 165.082 41H162.938ZM163.994 31.8C163.599 31.8 163.269 31.7147 163.002 31.544C162.735 31.3733 162.602 31.1227 162.602 30.792C162.602 30.4507 162.73 30.2 162.986 30.04C163.253 29.88 163.589 29.8 163.994 29.8C164.41 29.8 164.751 29.88 165.018 30.04C165.285 30.2 165.418 30.4507 165.418 30.792C165.418 31.1227 165.279 31.3733 165.002 31.544C164.735 31.7147 164.399 31.8 163.994 31.8ZM166.454 41C166.411 41 166.374 40.984 166.342 40.952C166.31 40.92 166.294 40.8827 166.294 40.84V34.552C166.294 33.976 166.267 33.5493 166.214 33.272C166.171 32.9947 166.086 32.696 165.958 32.376L165.942 32.312C165.942 32.2373 165.99 32.2 166.086 32.2H168.486C168.528 32.2 168.566 32.216 168.598 32.248C168.63 32.28 168.646 32.3173 168.646 32.36V33.304C168.646 33.4 168.672 33.448 168.726 33.448C168.768 33.448 168.806 33.4107 168.838 33.336C169.286 32.472 170.086 32.04 171.238 32.04C172.187 32.04 172.902 32.3173 173.382 32.872C173.862 33.4267 174.102 34.1627 174.102 35.08V40.84C174.102 40.8827 174.086 40.92 174.054 40.952C174.022 40.984 173.984 41 173.942 41H171.798C171.755 41 171.718 40.984 171.686 40.952C171.654 40.92 171.638 40.8827 171.638 40.84V35.304C171.638 34.856 171.52 34.52 171.286 34.296C171.051 34.072 170.747 33.96 170.374 33.96C169.851 33.96 169.451 34.1467 169.174 34.52C168.896 34.8933 168.758 35.4267 168.758 36.12V40.84C168.758 40.8827 168.742 40.92 168.71 40.952C168.678 40.984 168.64 41 168.598 41H166.454ZM177.555 41.16C176.723 41.16 176.056 40.9413 175.555 40.504C175.064 40.056 174.819 39.4213 174.819 38.6C174.819 37.864 175.037 37.288 175.475 36.872C175.923 36.456 176.637 36.1573 177.619 35.976L179.011 35.72C179.331 35.656 179.549 35.5707 179.667 35.464C179.795 35.3467 179.859 35.2027 179.859 35.032C179.859 34.744 179.731 34.5147 179.475 34.344C179.229 34.1627 178.867 34.072 178.387 34.072C177.768 34.072 177.235 34.2267 176.787 34.536C176.339 34.8347 175.923 35.224 175.539 35.704C175.496 35.768 175.448 35.8 175.395 35.8C175.341 35.8 175.315 35.752 175.315 35.656V33.912C175.315 33.3147 175.645 32.856 176.307 32.536C176.979 32.2053 177.795 32.04 178.755 32.04C179.981 32.04 180.867 32.3067 181.411 32.84C181.955 33.3627 182.227 34.04 182.227 34.872V40.84C182.227 40.8827 182.211 40.92 182.179 40.952C182.147 40.984 182.115 41 182.083 41H180.051C180.019 41 179.981 40.984 179.939 40.952C179.907 40.92 179.891 40.8827 179.891 40.84V40.04C179.891 39.9973 179.875 39.976 179.843 39.976C179.8 39.976 179.763 40.0027 179.731 40.056C179.485 40.4507 179.181 40.7333 178.819 40.904C178.467 41.0747 178.045 41.16 177.555 41.16ZM178.451 39.416C178.888 39.416 179.229 39.272 179.475 38.984C179.731 38.696 179.859 38.3067 179.859 37.816V37.192C179.859 37.064 179.795 37.0107 179.667 37.032L178.674 37.208C177.768 37.3787 177.315 37.7627 177.315 38.36C177.315 38.7013 177.416 38.9627 177.619 39.144C177.821 39.3253 178.099 39.416 178.451 39.416ZM183.422 41C183.316 41 183.262 40.9467 183.262 40.84V34.552C183.262 33.976 183.236 33.5493 183.182 33.272C183.14 32.9947 183.054 32.696 182.926 32.376L182.91 32.312C182.91 32.2373 182.958 32.2 183.054 32.2H185.438C185.492 32.2 185.534 32.216 185.566 32.248C185.598 32.28 185.614 32.3173 185.614 32.36V33.304C185.614 33.4 185.641 33.448 185.694 33.448C185.737 33.448 185.774 33.4107 185.806 33.336C186.265 32.472 186.996 32.04 187.998 32.04C188.574 32.04 189.076 32.1787 189.502 32.456C189.929 32.7333 190.244 33.1173 190.446 33.608C190.468 33.672 190.494 33.704 190.526 33.704C190.569 33.704 190.601 33.6773 190.622 33.624C190.868 33.1333 191.161 32.7493 191.502 32.472C191.854 32.184 192.35 32.04 192.99 32.04C193.534 32.04 194.009 32.168 194.414 32.424C194.82 32.6693 195.129 33.0107 195.342 33.448C195.566 33.8853 195.678 34.376 195.678 34.92V40.84C195.678 40.9467 195.625 41 195.518 41H193.39C193.337 41 193.294 40.984 193.262 40.952C193.23 40.92 193.214 40.8827 193.214 40.84V35.16C193.214 34.36 192.873 33.96 192.19 33.96C191.753 33.96 191.396 34.1413 191.118 34.504C190.841 34.856 190.702 35.4053 190.702 36.152V40.84C190.702 40.9467 190.649 41 190.542 41H188.398C188.292 41 188.238 40.9467 188.238 40.84V35.16C188.238 34.36 187.897 33.96 187.214 33.96C186.777 33.96 186.42 34.1413 186.142 34.504C185.865 34.856 185.726 35.4053 185.726 36.152V40.84C185.726 40.8827 185.71 40.92 185.678 40.952C185.646 40.984 185.604 41 185.55 41H183.422ZM196.829 41C196.786 41 196.749 40.984 196.717 40.952C196.685 40.92 196.669 40.8827 196.669 40.84V34.552C196.669 33.976 196.642 33.5493 196.589 33.272C196.546 32.9947 196.461 32.696 196.333 32.376L196.317 32.312C196.317 32.2373 196.365 32.2 196.461 32.2H198.973C199.015 32.2 199.053 32.216 199.085 32.248C199.117 32.28 199.133 32.3173 199.133 32.36V40.84C199.133 40.8827 199.117 40.92 199.085 40.952C199.053 40.984 199.015 41 198.973 41H196.829ZM197.885 31.8C197.49 31.8 197.159 31.7147 196.893 31.544C196.626 31.3733 196.493 31.1227 196.493 30.792C196.493 30.4507 196.621 30.2 196.877 30.04C197.143 29.88 197.479 29.8 197.885 29.8C198.301 29.8 198.642 29.88 198.909 30.04C199.175 30.2 199.309 30.4507 199.309 30.792C199.309 31.1227 199.17 31.3733 198.893 31.544C198.626 31.7147 198.29 31.8 197.885 31.8ZM200.344 41C200.238 41 200.184 40.9467 200.184 40.84V32.152C200.184 31.576 200.158 31.1493 200.104 30.872C200.062 30.5947 199.976 30.296 199.848 29.976L199.832 29.912C199.832 29.8373 199.88 29.8 199.976 29.8H202.488C202.595 29.8 202.648 29.8533 202.648 29.96V40.84C202.648 40.9467 202.595 41 202.488 41H200.344ZM203.86 41C203.753 41 203.7 40.9467 203.7 40.84V32.152C203.7 31.576 203.673 31.1493 203.62 30.872C203.577 30.5947 203.492 30.296 203.364 29.976L203.348 29.912C203.348 29.8373 203.396 29.8 203.492 29.8H206.004C206.111 29.8 206.164 29.8533 206.164 29.96V36.024C206.164 36.1093 206.191 36.152 206.244 36.152C206.297 36.152 206.335 36.1253 206.356 36.072L208.372 33.144C208.479 32.9733 208.532 32.8133 208.532 32.664C208.532 32.568 208.516 32.488 208.484 32.424C208.473 32.4027 208.468 32.376 208.468 32.344C208.468 32.248 208.511 32.2 208.596 32.2H211.604C211.689 32.2 211.732 32.2373 211.732 32.312C211.732 32.3653 211.705 32.408 211.652 32.44C211.417 32.6 211.204 32.8293 211.012 33.128L209.076 35.976C208.959 36.1467 208.9 36.2853 208.9 36.392C208.9 36.5093 208.953 36.6427 209.06 36.792L211.716 40.808C211.737 40.8293 211.748 40.8613 211.748 40.904C211.748 40.968 211.7 41 211.604 41H208.996C208.911 41 208.847 40.9627 208.804 40.888L206.356 36.92C206.313 36.856 206.276 36.824 206.244 36.824C206.191 36.824 206.164 36.872 206.164 36.968V40.84C206.164 40.9467 206.111 41 206.004 41H203.86ZM215.242 41C215.135 41 215.082 40.9467 215.082 40.84V32.152C215.082 31.576 215.055 31.1493 215.002 30.872C214.959 30.5947 214.874 30.296 214.746 29.976L214.73 29.912C214.73 29.8373 214.778 29.8 214.874 29.8H218.058C218.154 29.8 218.218 29.8373 218.25 29.912L221.402 36.872C221.434 36.936 221.471 36.968 221.514 36.968C221.589 36.968 221.626 36.9147 221.626 36.808V32.152C221.626 31.576 221.599 31.1493 221.546 30.872C221.503 30.5947 221.418 30.296 221.29 29.976L221.274 29.912C221.274 29.8373 221.322 29.8 221.418 29.8H224.266C224.319 29.8 224.357 29.816 224.378 29.848C224.41 29.88 224.415 29.9227 224.394 29.976C224.266 30.296 224.175 30.5947 224.122 30.872C224.079 31.1493 224.058 31.576 224.058 32.152V40.84C224.058 40.9467 224.005 41 223.898 41H221.082C220.997 41 220.933 40.9627 220.89 40.888L217.722 33.912C217.701 33.8587 217.669 33.832 217.626 33.832C217.551 33.832 217.514 33.88 217.514 33.976V40.84C217.514 40.9467 217.461 41 217.354 41H215.242ZM228.955 42.92C228.325 42.92 227.733 42.8507 227.179 42.712C226.635 42.584 226.213 42.408 225.915 42.184C225.691 42.024 225.579 41.8 225.579 41.512V40.056C225.579 39.9493 225.621 39.896 225.707 39.896C225.749 39.896 225.797 39.9227 225.851 39.976C226.235 40.328 226.661 40.6 227.131 40.792C227.6 40.9733 228.155 41.064 228.795 41.064C229.467 41.064 230.005 40.888 230.411 40.536C230.827 40.184 231.035 39.72 231.035 39.144V38.952C231.035 38.888 231.008 38.856 230.955 38.856C230.912 38.856 230.875 38.8773 230.843 38.92C230.629 39.2293 230.336 39.496 229.963 39.72C229.589 39.9333 229.125 40.04 228.571 40.04C227.888 40.04 227.275 39.88 226.731 39.56C226.197 39.24 225.776 38.7813 225.467 38.184C225.168 37.576 225.019 36.8613 225.019 36.04C225.019 35.2187 225.168 34.5093 225.467 33.912C225.776 33.304 226.197 32.84 226.731 32.52C227.275 32.2 227.888 32.04 228.571 32.04C229.573 32.04 230.336 32.408 230.859 33.144C230.891 33.1973 230.928 33.224 230.971 33.224C231.003 33.224 231.029 33.2133 231.051 33.192C231.072 33.16 231.083 33.1227 231.083 33.08V32.36C231.083 32.2533 231.136 32.2 231.243 32.2H233.371C233.424 32.2 233.467 32.216 233.499 32.248C233.531 32.28 233.547 32.3173 233.547 32.36V38.68C233.547 40.088 233.136 41.144 232.315 41.848C231.493 42.5627 230.373 42.92 228.955 42.92ZM229.275 37.928C229.819 37.928 230.245 37.7573 230.555 37.416C230.875 37.064 231.035 36.6053 231.035 36.04C231.035 35.4533 230.875 34.9787 230.555 34.616C230.245 34.2533 229.819 34.072 229.275 34.072C228.731 34.072 228.299 34.2533 227.979 34.616C227.669 34.9787 227.515 35.4533 227.515 36.04C227.515 36.6053 227.669 37.064 227.979 37.416C228.299 37.7573 228.731 37.928 229.275 37.928ZM234.766 41C234.723 41 234.686 40.984 234.654 40.952C234.622 40.92 234.606 40.8827 234.606 40.84V32.152C234.606 31.576 234.579 31.1493 234.526 30.872C234.483 30.5947 234.398 30.296 234.27 29.976L234.254 29.912C234.254 29.8373 234.302 29.8 234.398 29.8H236.91C236.953 29.8 236.99 29.816 237.022 29.848C237.054 29.88 237.07 29.9173 237.07 29.96V33.24C237.07 33.2827 237.075 33.32 237.086 33.352C237.097 33.3733 237.113 33.384 237.134 33.384C237.177 33.384 237.219 33.3467 237.262 33.272C237.497 32.888 237.774 32.5893 238.094 32.376C238.425 32.152 238.91 32.04 239.55 32.04C240.499 32.04 241.214 32.3173 241.694 32.872C242.174 33.4267 242.414 34.1627 242.414 35.08V40.84C242.414 40.8827 242.398 40.92 242.366 40.952C242.334 40.984 242.297 41 242.254 41H240.11C240.067 41 240.03 40.984 239.998 40.952C239.966 40.92 239.95 40.8827 239.95 40.84V35.304C239.95 34.856 239.833 34.52 239.598 34.296C239.363 34.072 239.059 33.96 238.686 33.96C238.163 33.96 237.763 34.1467 237.486 34.52C237.209 34.8933 237.07 35.4267 237.07 36.12V40.84C237.07 40.8827 237.054 40.92 237.022 40.952C236.99 40.984 236.953 41 236.91 41H234.766ZM247.771 41.16C246.8 41.16 245.958 40.9787 245.243 40.616C244.528 40.2533 243.974 39.7307 243.579 39.048C243.195 38.3547 243.003 37.528 243.003 36.568C243.003 35.5973 243.2 34.7707 243.595 34.088C243.99 33.4053 244.512 32.8933 245.163 32.552C245.814 32.2107 246.518 32.04 247.275 32.04C248.502 32.04 249.462 32.3867 250.155 33.08C250.848 33.7627 251.195 34.712 251.195 35.928C251.195 36.1307 251.19 36.2853 251.179 36.392C251.158 36.7227 251.11 36.9627 251.035 37.112C250.971 37.2613 250.864 37.3627 250.715 37.416C250.576 37.4587 250.347 37.48 250.027 37.48H245.755C245.68 37.48 245.632 37.496 245.611 37.528C245.59 37.5493 245.584 37.5867 245.595 37.64C245.659 38.0667 245.899 38.4133 246.315 38.68C246.742 38.936 247.318 39.064 248.043 39.064C248.491 39.064 248.923 39.0107 249.339 38.904C249.766 38.7973 250.134 38.632 250.443 38.408C250.475 38.3867 250.512 38.376 250.555 38.376C250.619 38.376 250.651 38.4133 250.651 38.488V39.992C250.651 40.2053 250.619 40.3707 250.555 40.488C250.491 40.5947 250.368 40.6907 250.187 40.776C249.675 41.032 248.87 41.16 247.771 41.16ZM248.507 35.848C248.635 35.848 248.72 35.816 248.763 35.752C248.816 35.6773 248.843 35.5653 248.843 35.416C248.843 34.968 248.699 34.6213 248.411 34.376C248.123 34.12 247.739 33.992 247.259 33.992C246.779 33.992 246.384 34.1307 246.075 34.408C245.766 34.6853 245.611 35.032 245.611 35.448C245.611 35.7147 245.723 35.848 245.947 35.848H248.507ZM245.739 42.776C245.675 42.776 245.643 42.744 245.643 42.68V42.04C245.643 41.976 245.675 41.944 245.739 41.944H248.427C248.491 41.944 248.523 41.976 248.523 42.04V42.68C248.523 42.744 248.491 42.776 248.427 42.776H245.739ZM245.067 31.544C244.96 31.5333 244.907 31.4853 244.907 31.4V30.792C244.907 30.728 244.939 30.696 245.003 30.696C245.43 30.7067 245.792 30.648 246.091 30.52C246.4 30.392 246.726 30.1307 247.067 29.736C247.12 29.6827 247.174 29.656 247.227 29.656C247.28 29.656 247.334 29.6827 247.387 29.736C247.728 30.1307 248.048 30.392 248.347 30.52C248.656 30.648 249.024 30.7067 249.451 30.696C249.515 30.696 249.547 30.728 249.547 30.792V31.4C249.547 31.4853 249.494 31.5333 249.387 31.544C249.334 31.5547 249.254 31.56 249.147 31.56C248.806 31.56 248.454 31.4907 248.091 31.352C247.728 31.2027 247.44 30.9893 247.227 30.712C246.992 31.0213 246.656 31.2507 246.219 31.4C245.792 31.5387 245.408 31.5867 245.067 31.544ZM253.96 41C253.896 41 253.848 40.984 253.816 40.952C253.784 40.9093 253.779 40.8507 253.8 40.776L257.144 30.072C257.198 29.8907 257.315 29.8 257.496 29.8H260.504C260.686 29.8 260.803 29.8907 260.856 30.072L264.216 40.776C264.227 40.7973 264.232 40.824 264.232 40.856C264.232 40.952 264.174 41 264.056 41H261.736C261.63 41 261.56 40.9467 261.528 40.84L261.08 39.256C261.059 39.1707 261 39.128 260.904 39.128H256.936C256.84 39.128 256.782 39.1707 256.76 39.256L256.312 40.84C256.28 40.9467 256.211 41 256.104 41H253.96ZM260.296 37.08C260.35 37.08 260.387 37.064 260.408 37.032C260.44 37 260.451 36.9573 260.44 36.904L259.08 32.232C259.048 32.1147 258.995 32.056 258.92 32.056C258.846 32.056 258.792 32.1147 258.76 32.232L257.4 36.904L257.384 36.952C257.384 37.0373 257.438 37.08 257.544 37.08H260.296ZM264.922 41C264.88 41 264.842 40.984 264.81 40.952C264.778 40.92 264.762 40.8827 264.762 40.84V34.552C264.762 33.976 264.736 33.5493 264.682 33.272C264.64 32.9947 264.554 32.696 264.426 32.376L264.41 32.312C264.41 32.2373 264.458 32.2 264.554 32.2H266.954C266.997 32.2 267.034 32.216 267.066 32.248C267.098 32.28 267.114 32.3173 267.114 32.36V33.304C267.114 33.4 267.141 33.448 267.194 33.448C267.237 33.448 267.274 33.4107 267.306 33.336C267.754 32.472 268.554 32.04 269.706 32.04C270.656 32.04 271.37 32.3173 271.85 32.872C272.33 33.4267 272.57 34.1627 272.57 35.08V40.84C272.57 40.8827 272.554 40.92 272.522 40.952C272.49 40.984 272.453 41 272.41 41H270.266C270.224 41 270.186 40.984 270.154 40.952C270.122 40.92 270.106 40.8827 270.106 40.84V35.304C270.106 34.856 269.989 34.52 269.754 34.296C269.52 34.072 269.216 33.96 268.842 33.96C268.32 33.96 267.92 34.1467 267.642 34.52C267.365 34.8933 267.226 35.4267 267.226 36.12V40.84C267.226 40.8827 267.21 40.92 267.178 40.952C267.146 40.984 267.109 41 267.066 41H264.922ZM274.915 34.536C274.499 34.536 274.168 34.4187 273.923 34.184C273.678 33.9493 273.555 33.6507 273.555 33.288C273.555 32.936 273.678 32.6427 273.923 32.408C274.168 32.1627 274.499 32.04 274.915 32.04C275.331 32.04 275.662 32.1627 275.907 32.408C276.152 32.6427 276.275 32.936 276.275 33.288C276.275 33.6507 276.152 33.9493 275.907 34.184C275.662 34.4187 275.331 34.536 274.915 34.536ZM274.915 41.16C274.499 41.16 274.168 41.0427 273.923 40.808C273.678 40.5733 273.555 40.2747 273.555 39.912C273.555 39.56 273.678 39.2667 273.923 39.032C274.168 38.7867 274.499 38.664 274.915 38.664C275.331 38.664 275.662 38.7867 275.907 39.032C276.152 39.2667 276.275 39.56 276.275 39.912C276.275 40.2747 276.152 40.5733 275.907 40.808C275.662 41.0427 275.331 41.16 274.915 41.16Z" fill="white"/>
<path d="M45.5206 74.32C41.4566 74.32 39.0566 70.832 39.0566 62.8C39.0566 54.768 41.4566 51.28 45.5206 51.28C46.5446 51.28 47.6006 51.536 48.3366 52.112C48.9766 52.624 49.1046 53.264 49.1046 54.032V56.688C49.1046 57.168 48.9126 57.392 48.6246 57.392C48.2726 57.392 48.0486 57.104 47.7606 56.752C47.4406 56.368 47.0246 55.952 46.3206 55.952C44.7206 55.952 43.9206 57.968 43.9206 62.8C43.9206 67.632 44.7206 69.648 46.3206 69.648C47.0246 69.648 47.4406 69.232 47.7606 68.848C48.0486 68.496 48.2406 68.208 48.5926 68.208C48.8806 68.208 49.1046 68.432 49.1046 68.912V71.568C49.1046 72.336 48.9766 72.976 48.3366 73.488C47.6006 74.064 46.5446 74.32 45.5206 74.32ZM50.1884 74C49.8364 74 49.6444 73.84 49.6764 73.52L51.6924 54.704C51.8204 53.488 51.7564 52.88 51.6284 52.208C51.5644 51.792 51.7564 51.6 52.0444 51.6H59.4364C59.7244 51.6 59.9164 51.792 59.8204 52.208C59.6924 52.816 59.5964 53.392 59.7244 54.704L61.7404 73.52C61.7724 73.84 61.5804 74 61.2284 74H57.7084C57.4204 74 57.2284 73.84 57.1964 73.584L56.9084 70.768C56.8764 70.448 56.7164 70.288 56.3964 70.288H54.7644C54.4444 70.288 54.2524 70.448 54.2204 70.768L53.9324 73.584C53.9004 73.872 53.6764 74 53.4204 74H50.1884ZM56.0444 66C56.3964 66 56.4604 65.84 56.4284 65.584C56.2044 62.992 56.0444 61.168 55.9164 57.616C55.9164 57.328 55.7884 57.168 55.5644 57.168C55.3404 57.168 55.2124 57.328 55.2124 57.616C55.0844 61.168 54.9244 62.992 54.7004 65.584C54.6684 65.84 54.7324 66 55.0844 66H56.0444ZM63.4259 74C63.0099 74 62.7859 73.776 62.7859 73.36V56.624C62.7859 53.872 62.6899 53.424 62.4019 52.08C62.3379 51.792 62.4979 51.6 62.7859 51.6H68.5459C69.2499 51.6 69.5059 51.792 69.5699 52.528L70.4659 62.512C70.4979 62.768 70.5939 62.864 70.7539 62.864C70.9139 62.864 71.0419 62.768 71.0739 62.512L71.9699 52.528C72.0339 51.792 72.2899 51.6 72.9939 51.6H78.9779C79.2659 51.6 79.4259 51.792 79.3619 52.08C79.0739 53.424 78.9779 53.872 78.9779 56.624V73.36C78.9779 73.776 78.7539 74 78.3379 74H75.2339C74.8179 74 74.5939 73.776 74.5939 73.36C74.5939 68.848 74.6579 63.856 74.7219 59.024C74.7219 58.8 74.6579 58.64 74.4339 58.64C74.2739 58.64 74.1459 58.736 74.1139 58.992L72.3539 73.392C72.2899 73.808 72.0339 74 71.6499 74H69.7939C69.4099 74 69.1539 73.808 69.0899 73.392L67.3299 58.96C67.2979 58.736 67.2019 58.64 67.0099 58.64C66.7859 58.64 66.7219 58.832 66.7219 59.024C66.7859 63.856 66.8499 68.848 66.8499 73.36C66.8499 73.776 66.6259 74 66.2099 74H63.4259ZM85.2384 74C84.8224 74 84.5984 73.776 84.5984 73.36V56.944C84.5984 54.192 84.5024 53.424 84.2144 52.08C84.1504 51.792 84.3104 51.6 84.5984 51.6H89.2384C89.5264 51.6 89.6864 51.792 89.6224 52.08C89.3344 53.424 89.2384 54.192 89.2384 56.944V60.24C89.2384 60.496 89.3024 60.656 89.4944 60.656C89.6544 60.656 89.7824 60.56 89.8784 60.144L90.9664 55.12C91.3184 53.456 91.0624 52.784 90.9664 52.08C90.9344 51.856 91.0304 51.6 91.2864 51.6H95.7984C96.1504 51.6 96.3104 51.824 96.2144 52.144C95.9584 52.88 95.6384 53.584 95.3184 54.992L94.6464 57.936C94.2624 59.632 93.9424 60.912 93.9424 62.256C93.9424 63.472 94.2304 64.688 94.5504 66.192L96.0224 73.296C96.0864 73.68 95.9904 74 95.4464 74H92.0224C91.6064 74 91.3184 73.808 91.2544 73.36L89.8464 64.656C89.7824 64.336 89.6864 64.24 89.5264 64.24C89.3344 64.24 89.2384 64.4 89.2384 64.688V73.36C89.2384 73.776 89.0144 74 88.5984 74H85.2384ZM97.9259 74C97.5099 74 97.2859 73.776 97.2859 73.36V56.944C97.2859 54.192 97.1899 53.424 96.9019 52.08C96.8379 51.792 96.9979 51.6 97.2859 51.6H105.798C105.99 51.6 106.118 51.728 106.118 51.92V56.368C106.118 56.72 105.83 56.784 105.478 56.592C104.262 55.952 103.59 55.728 102.854 55.728C102.118 55.728 101.926 56.016 101.926 56.528V60.112C101.926 60.304 102.054 60.432 102.246 60.432H105.286C105.478 60.432 105.606 60.56 105.606 60.752V64.56C105.606 64.752 105.478 64.88 105.286 64.88H102.246C102.054 64.88 101.926 65.008 101.926 65.2V69.2C101.926 69.392 102.054 69.52 102.246 69.52H105.894C106.086 69.52 106.214 69.648 106.214 69.84V73.68C106.214 73.872 106.086 74 105.894 74H97.9259ZM99.1099 50.704C98.8219 50.704 98.7579 50.544 98.7579 50.352V49.808C98.7579 49.648 98.8219 49.52 99.0459 49.488C100.006 49.328 100.614 49.04 101.286 48.496C101.446 48.368 101.574 48.272 101.734 48.272C101.894 48.272 102.022 48.368 102.182 48.496C102.854 49.04 103.462 49.328 104.422 49.488C104.646 49.52 104.71 49.648 104.71 49.808V50.352C104.71 50.544 104.646 50.704 104.358 50.704C103.398 50.704 102.278 50.192 101.734 49.616C101.19 50.192 100.07 50.704 99.1099 50.704ZM99.4939 47.792C99.2059 47.792 99.1099 47.696 99.1099 47.44V46.992C99.1099 46.832 99.2059 46.736 99.3659 46.736C100.742 46.704 102.502 46.448 104.198 45.84C104.454 45.744 104.582 45.872 104.582 46.032V46.576C104.582 46.864 104.486 46.992 104.166 47.12C102.502 47.728 100.39 47.792 99.4939 47.792ZM110.705 74C110.289 74 110.065 73.776 110.065 73.36V56.24C110.065 55.952 109.937 55.696 109.457 55.696C108.945 55.696 108.625 55.952 107.761 56.656C107.313 57.008 106.897 57.136 106.897 56.592V52.24C106.897 51.824 107.121 51.6 107.537 51.6H117.233C117.649 51.6 117.873 51.824 117.873 52.24V56.592C117.873 57.136 117.457 57.008 117.009 56.656C116.145 55.952 115.825 55.696 115.313 55.696C114.833 55.696 114.705 55.952 114.705 56.24V73.36C114.705 73.776 114.481 74 114.065 74H110.705ZM123.551 74C123.135 74 122.911 73.776 122.911 73.36V56.944C122.911 54.192 122.815 53.424 122.527 52.08C122.463 51.792 122.623 51.6 122.911 51.6H128.063C132.447 51.6 134.815 54.768 134.815 62.8C134.815 70.832 132.447 74 128.063 74H123.551ZM127.967 69.616C128.991 69.616 129.951 68.56 129.951 62.8C129.951 57.04 128.991 55.984 127.967 55.984H127.871C127.679 55.984 127.551 56.112 127.551 56.304V69.296C127.551 69.488 127.679 69.616 127.871 69.616H127.967ZM141.73 74.32C138.146 74.32 136.098 72.144 136.098 68.208V56.944C136.098 54.192 136.002 53.424 135.714 52.08C135.65 51.792 135.81 51.6 136.098 51.6H140.738C141.026 51.6 141.186 51.792 141.122 52.08C140.834 53.424 140.738 54.192 140.738 56.944V68.272C140.738 69.104 141.122 69.552 141.73 69.552C142.306 69.552 142.69 69.104 142.69 68.272V56.944C142.69 54.192 142.594 53.424 142.306 52.08C142.242 51.792 142.402 51.6 142.69 51.6H147.33C147.618 51.6 147.778 51.792 147.714 52.08C147.426 53.424 147.33 54.192 147.33 56.944V68.208C147.33 72.144 145.282 74.32 141.73 74.32ZM152.748 74C152.332 74 152.108 73.776 152.108 73.36V70.96C152.108 68.912 151.98 68.112 151.276 64.944L149.164 55.568C148.78 53.872 148.588 53.36 147.98 52.048C147.852 51.792 147.98 51.6 148.236 51.6H153.388C153.644 51.6 153.74 51.856 153.708 52.048C153.516 52.784 153.324 53.456 153.708 55.472C153.932 56.688 153.996 57.872 154.22 60.08C154.252 60.4 154.316 60.656 154.572 60.656C154.828 60.656 154.892 60.4 154.924 60.08C155.148 57.872 155.244 56.688 155.468 55.472C155.852 53.456 155.66 52.784 155.468 52.048C155.436 51.856 155.532 51.6 155.788 51.6H160.492C160.748 51.6 160.876 51.792 160.748 52.048C160.14 53.36 159.916 53.872 159.564 55.568L157.612 64.944C156.94 68.112 156.748 68.912 156.748 70.96V73.36C156.748 73.776 156.524 74 156.108 74H152.748ZM168.111 74C167.695 74 167.471 73.776 167.471 73.36V56.24C167.471 55.952 167.343 55.696 166.863 55.696C166.351 55.696 166.031 55.952 165.167 56.656C164.719 57.008 164.303 57.136 164.303 56.592V52.24C164.303 51.824 164.527 51.6 164.943 51.6H174.639C175.055 51.6 175.279 51.824 175.279 52.24V56.592C175.279 57.136 174.863 57.008 174.415 56.656C173.551 55.952 173.231 55.696 172.719 55.696C172.239 55.696 172.111 55.952 172.111 56.24V73.36C172.111 73.776 171.887 74 171.471 74H168.111ZM177.051 74C176.635 74 176.411 73.776 176.411 73.36V56.944C176.411 54.192 176.315 53.424 176.027 52.08C175.963 51.792 176.123 51.6 176.411 51.6H181.595C185.723 51.6 187.611 54.704 187.611 59.472C187.611 61.424 187.195 63.216 186.427 64.432C185.915 65.232 185.851 65.936 186.011 66.608L187.707 73.232C187.771 73.488 187.771 74 187.163 74H183.739C183.355 74 183.131 73.808 183.035 73.392L181.659 67.152C181.595 66.896 181.531 66.672 181.275 66.672C181.051 66.672 180.955 66.864 180.955 67.184V73.36C180.955 73.776 180.731 74 180.315 74H177.051ZM181.531 63.536C182.363 63.536 183.003 62.416 183.003 59.536C183.003 56.688 182.363 55.568 181.531 55.568H181.403C181.115 55.568 180.955 55.728 180.955 56.016V63.088C180.955 63.376 181.115 63.536 181.403 63.536H181.531ZM189.488 74C189.072 74 188.848 73.776 188.848 73.36V56.624C188.848 53.872 188.752 53.424 188.464 52.08C188.4 51.792 188.56 51.6 188.848 51.6H193.488C193.776 51.6 193.936 51.792 193.872 52.08C193.584 53.424 193.488 53.872 193.488 56.624V73.36C193.488 73.776 193.264 74 192.848 74H189.488ZM194.064 50.64C192.88 50.672 190.384 50.544 188.464 49.84C188.144 49.712 188.048 49.584 188.048 49.296V48.656C188.048 48.496 188.176 48.368 188.368 48.432C190.384 49.2 192.496 49.488 194.192 49.488C194.352 49.488 194.448 49.584 194.448 49.744V50.288C194.448 50.544 194.352 50.64 194.064 50.64ZM202.33 74C201.914 74 201.69 73.776 201.69 73.36V56.24C201.69 55.952 201.562 55.696 201.082 55.696C200.57 55.696 200.25 55.952 199.386 56.656C198.938 57.008 198.522 57.136 198.522 56.592V52.24C198.522 51.824 198.746 51.6 199.162 51.6H208.858C209.274 51.6 209.498 51.824 209.498 52.24V56.592C209.498 57.136 209.082 57.008 208.634 56.656C207.77 55.952 207.45 55.696 206.938 55.696C206.458 55.696 206.33 55.952 206.33 56.24V73.36C206.33 73.776 206.106 74 205.69 74H202.33ZM211.27 74C210.854 74 210.63 73.776 210.63 73.36V56.944C210.63 54.192 210.534 53.424 210.246 52.08C210.182 51.792 210.342 51.6 210.63 51.6H215.814C219.942 51.6 221.83 54.704 221.83 59.472C221.83 61.424 221.414 63.216 220.646 64.432C220.134 65.232 220.07 65.936 220.23 66.608L221.926 73.232C221.99 73.488 221.99 74 221.382 74H217.958C217.574 74 217.35 73.808 217.254 73.392L215.878 67.152C215.814 66.896 215.75 66.672 215.494 66.672C215.27 66.672 215.174 66.864 215.174 67.184V73.36C215.174 73.776 214.95 74 214.534 74H211.27ZM215.75 63.536C216.582 63.536 217.222 62.416 217.222 59.536C217.222 56.688 216.582 55.568 215.75 55.568H215.622C215.334 55.568 215.174 55.728 215.174 56.016V63.088C215.174 63.376 215.334 63.536 215.622 63.536H215.75ZM228.667 74.32C225.083 74.32 223.035 72.144 223.035 68.208V56.944C223.035 54.192 222.939 53.424 222.651 52.08C222.587 51.792 222.747 51.6 223.035 51.6H227.675C227.963 51.6 228.123 51.792 228.059 52.08C227.771 53.424 227.675 54.192 227.675 56.944V68.272C227.675 69.104 228.059 69.552 228.667 69.552C229.243 69.552 229.627 69.104 229.627 68.272V56.944C229.627 54.192 229.531 53.424 229.243 52.08C229.179 51.792 229.339 51.6 229.627 51.6H234.267C234.555 51.6 234.715 51.792 234.651 52.08C234.363 53.424 234.267 54.192 234.267 56.944V68.208C234.267 72.144 232.219 74.32 228.667 74.32ZM236.613 74C236.197 74 235.973 73.776 235.973 73.36V56.624C235.973 53.872 235.877 53.424 235.589 52.08C235.525 51.792 235.685 51.6 235.973 51.6H239.685C240.069 51.6 240.325 51.792 240.389 52.144L242.437 61.84C242.469 62.064 242.597 62.192 242.789 62.192C243.013 62.192 243.077 62.032 243.077 61.776C243.045 60.912 243.109 58.128 243.045 56.304C242.949 53.872 242.853 53.424 242.565 52.08C242.501 51.792 242.661 51.6 242.949 51.6H247.141C247.429 51.6 247.589 51.792 247.525 52.08C247.237 53.424 247.141 53.872 247.141 56.624V73.36C247.141 73.776 246.917 74 246.501 74H243.429C243.045 74 242.789 73.808 242.725 73.456L240.645 63.728C240.613 63.504 240.485 63.408 240.325 63.408C240.133 63.408 240.005 63.536 240.005 63.792C240.101 65.936 240.197 70.384 240.197 73.36C240.197 73.776 239.973 74 239.557 74H236.613ZM254.8 74.32C250.32 74.32 248.432 70.512 248.432 62.8C248.432 54.736 250.864 51.28 255.056 51.28C256.272 51.28 257.552 51.472 258.256 52.208C258.64 52.592 258.8 53.072 258.8 53.744V56.656C258.8 57.072 258.704 57.424 258.32 57.424C258.096 57.424 257.904 57.328 257.488 56.848C257.136 56.432 256.688 55.952 255.92 55.952C254.128 55.952 253.264 58.064 253.264 62.864C253.264 64.176 253.328 69.968 254.704 69.968C254.992 69.968 255.12 69.68 255.12 69.232V66.416C255.12 63.664 255.024 63.216 254.736 61.872C254.672 61.584 254.832 61.392 255.12 61.392H258.576C258.992 61.392 259.248 61.616 259.248 62.032V69.072C259.248 72.976 257.168 74.32 254.8 74.32ZM265.145 74C264.729 74 264.505 73.776 264.505 73.36V56.944C264.505 54.192 264.409 53.424 264.121 52.08C264.057 51.792 264.217 51.6 264.505 51.6H269.145C269.433 51.6 269.593 51.792 269.529 52.08C269.241 53.424 269.145 54.192 269.145 56.944V59.664C269.145 59.792 269.209 59.856 269.337 59.856H271.193C271.321 59.856 271.385 59.792 271.385 59.664V56.944C271.385 54.192 271.289 53.424 271.001 52.08C270.937 51.792 271.097 51.6 271.385 51.6H276.025C276.313 51.6 276.473 51.792 276.409 52.08C276.121 53.424 276.025 54.192 276.025 56.944V73.36C276.025 73.776 275.801 74 275.385 74H272.025C271.609 74 271.385 73.776 271.385 73.36V65.008C271.385 64.88 271.321 64.816 271.193 64.816H269.337C269.209 64.816 269.145 64.88 269.145 65.008V73.36C269.145 73.776 268.921 74 268.505 74H265.145ZM283.547 74.32C279.739 74.32 277.339 71.472 277.339 62.8C277.339 54.128 279.739 51.28 283.547 51.28C287.355 51.28 289.787 54.128 289.787 62.8C289.787 71.472 287.355 74.32 283.547 74.32ZM283.547 69.84C284.283 69.84 284.891 69.008 284.891 62.8C284.891 56.56 284.283 55.76 283.547 55.76C282.811 55.76 282.235 56.56 282.235 62.8C282.235 69.008 282.811 69.84 283.547 69.84ZM286.395 50.64C285.211 50.672 282.715 50.544 280.795 49.84C280.475 49.712 280.379 49.584 280.379 49.296V48.656C280.379 48.496 280.507 48.368 280.699 48.432C282.715 49.2 284.827 49.488 286.523 49.488C286.683 49.488 286.779 49.584 286.779 49.744V50.288C286.779 50.544 286.683 50.64 286.395 50.64ZM290.626 74C290.274 74 290.082 73.84 290.114 73.52L292.13 54.704C292.258 53.488 292.194 52.88 292.066 52.208C292.002 51.792 292.194 51.6 292.482 51.6H299.874C300.162 51.6 300.354 51.792 300.258 52.208C300.13 52.816 300.034 53.392 300.162 54.704L302.178 73.52C302.21 73.84 302.018 74 301.666 74H298.146C297.858 74 297.666 73.84 297.634 73.584L297.346 70.768C297.314 70.448 297.154 70.288 296.834 70.288H295.202C294.882 70.288 294.69 70.448 294.658 70.768L294.37 73.584C294.338 73.872 294.114 74 293.858 74H290.626ZM296.482 66C296.834 66 296.898 65.84 296.866 65.584C296.642 62.992 296.482 61.168 296.354 57.616C296.354 57.328 296.226 57.168 296.002 57.168C295.778 57.168 295.65 57.328 295.65 57.616C295.522 61.168 295.362 62.992 295.138 65.584C295.106 65.84 295.17 66 295.522 66H296.482ZM69.5665 108C69.1505 108 68.9265 107.776 68.9265 107.36V90.944C68.9265 88.192 68.8305 87.424 68.5425 86.08C68.4785 85.792 68.6385 85.6 68.9265 85.6H73.5665C73.8545 85.6 74.0145 85.792 73.9505 86.08C73.6625 87.424 73.5665 88.192 73.5665 90.944V94.24C73.5665 94.496 73.6305 94.656 73.8225 94.656C73.9825 94.656 74.1105 94.56 74.2065 94.144L75.2945 89.12C75.6465 87.456 75.3905 86.784 75.2945 86.08C75.2625 85.856 75.3585 85.6 75.6145 85.6H80.1265C80.4785 85.6 80.6385 85.824 80.5425 86.144C80.2865 86.88 79.9665 87.584 79.6465 88.992L78.9745 91.936C78.5905 93.632 78.2705 94.912 78.2705 96.256C78.2705 97.472 78.5585 98.688 78.8785 100.192L80.3505 107.296C80.4145 107.68 80.3185 108 79.7745 108H76.3505C75.9345 108 75.6465 107.808 75.5825 107.36L74.1745 98.656C74.1105 98.336 74.0145 98.24 73.8545 98.24C73.6625 98.24 73.5665 98.4 73.5665 98.688V107.36C73.5665 107.776 73.3425 108 72.9265 108H69.5665ZM82.254 108C81.838 108 81.614 107.776 81.614 107.36V90.944C81.614 88.192 81.518 87.424 81.23 86.08C81.166 85.792 81.326 85.6 81.614 85.6H86.254C86.542 85.6 86.702 85.792 86.638 86.08C86.35 87.424 86.254 88.192 86.254 90.944V93.664C86.254 93.792 86.318 93.856 86.446 93.856H88.302C88.43 93.856 88.494 93.792 88.494 93.664V90.944C88.494 88.192 88.398 87.424 88.11 86.08C88.046 85.792 88.206 85.6 88.494 85.6H93.134C93.422 85.6 93.582 85.792 93.518 86.08C93.23 87.424 93.134 88.192 93.134 90.944V107.36C93.134 107.776 92.91 108 92.494 108H89.134C88.718 108 88.494 107.776 88.494 107.36V99.008C88.494 98.88 88.43 98.816 88.302 98.816H86.446C86.318 98.816 86.254 98.88 86.254 99.008V107.36C86.254 107.776 86.03 108 85.614 108H82.254ZM100.656 108.32C96.848 108.32 94.448 105.472 94.448 96.8C94.448 88.128 96.848 85.28 100.656 85.28C104.464 85.28 106.896 88.128 106.896 96.8C106.896 105.472 104.464 108.32 100.656 108.32ZM100.656 103.84C101.392 103.84 102 103.008 102 96.8C102 90.56 101.392 89.76 100.656 89.76C99.92 89.76 99.344 90.56 99.344 96.8C99.344 103.008 99.92 103.84 100.656 103.84ZM107.735 108C107.383 108 107.191 107.84 107.223 107.52L109.239 88.704C109.367 87.488 109.303 86.88 109.175 86.208C109.111 85.792 109.303 85.6 109.591 85.6H116.983C117.271 85.6 117.463 85.792 117.367 86.208C117.239 86.816 117.143 87.392 117.271 88.704L119.287 107.52C119.319 107.84 119.127 108 118.775 108H115.255C114.967 108 114.775 107.84 114.743 107.584L114.455 104.768C114.423 104.448 114.263 104.288 113.943 104.288H112.311C111.991 104.288 111.799 104.448 111.767 104.768L111.479 107.584C111.447 107.872 111.223 108 110.967 108H107.735ZM113.591 100C113.943 100 114.007 99.84 113.975 99.584C113.751 96.992 113.591 95.168 113.463 91.616C113.463 91.328 113.335 91.168 113.111 91.168C112.887 91.168 112.759 91.328 112.759 91.616C112.631 95.168 112.471 96.992 112.247 99.584C112.215 99.84 112.279 100 112.631 100H113.591ZM112.983 84.672C112.663 84.672 112.503 84.48 112.503 84.16C112.503 83.936 112.567 83.744 112.919 83.584L113.527 83.328C113.751 83.232 113.911 83.136 113.911 82.912C113.911 82.688 113.655 82.592 113.335 82.592C112.951 82.592 112.631 82.784 112.247 83.136C112.055 83.296 111.831 83.232 111.831 83.04V82.368C111.831 82.112 111.863 81.888 112.183 81.696C112.439 81.536 112.823 81.408 113.367 81.408C114.519 81.408 115.255 81.952 115.255 82.848C115.255 83.456 114.871 83.84 114.231 84.128C113.879 84.288 113.751 84.352 113.655 84.512C113.591 84.608 113.527 84.672 113.335 84.672H112.983ZM120.973 108C120.557 108 120.333 107.776 120.333 107.36V90.624C120.333 87.872 120.237 87.424 119.949 86.08C119.885 85.792 120.045 85.6 120.333 85.6H124.045C124.429 85.6 124.685 85.792 124.749 86.144L126.797 95.84C126.829 96.064 126.957 96.192 127.149 96.192C127.373 96.192 127.437 96.032 127.437 95.776C127.405 94.912 127.469 92.128 127.405 90.304C127.309 87.872 127.213 87.424 126.925 86.08C126.861 85.792 127.021 85.6 127.309 85.6H131.501C131.789 85.6 131.949 85.792 131.885 86.08C131.597 87.424 131.501 87.872 131.501 90.624V107.36C131.501 107.776 131.277 108 130.861 108H127.789C127.405 108 127.149 107.808 127.085 107.456L125.005 97.728C124.973 97.504 124.845 97.408 124.685 97.408C124.493 97.408 124.365 97.536 124.365 97.792C124.461 99.936 124.557 104.384 124.557 107.36C124.557 107.776 124.333 108 123.917 108H120.973ZM139.159 108.32C134.679 108.32 132.791 104.512 132.791 96.8C132.791 88.736 135.223 85.28 139.415 85.28C140.631 85.28 141.911 85.472 142.615 86.208C142.999 86.592 143.159 87.072 143.159 87.744V90.656C143.159 91.072 143.063 91.424 142.679 91.424C142.455 91.424 142.263 91.328 141.847 90.848C141.495 90.432 141.047 89.952 140.279 89.952C138.487 89.952 137.623 92.064 137.623 96.864C137.623 98.176 137.687 103.968 139.063 103.968C139.351 103.968 139.479 103.68 139.479 103.232V100.416C139.479 97.664 139.383 97.216 139.095 95.872C139.031 95.584 139.191 95.392 139.479 95.392H142.935C143.351 95.392 143.607 95.616 143.607 96.032V103.072C143.607 106.976 141.527 108.32 139.159 108.32ZM152.448 108.32C150.752 108.32 149.824 107.84 149.44 107.584C148.768 107.168 148.512 106.624 148.512 105.92V102.592C148.512 102.368 148.64 102.208 148.832 102.208C148.96 102.208 149.088 102.24 149.312 102.464C149.824 102.976 150.528 103.776 151.744 103.776C153.28 103.776 153.984 102.528 153.984 100.64C153.984 98.656 153.184 97.216 151.296 97.216C150.368 97.216 149.92 97.504 149.376 97.504C149.12 97.504 148.992 97.344 148.992 97.024L149.12 86.24C149.12 85.824 149.376 85.6 149.728 85.6H157.472C157.664 85.6 157.792 85.728 157.792 85.92V89.76C157.792 89.952 157.664 90.08 157.472 90.08H153.568C153.088 90.08 152.928 90.24 152.928 90.72V92.896C152.928 93.408 153.056 93.536 153.568 93.536C156.864 93.536 158.528 96.32 158.528 100.512C158.528 105.28 156.384 108.32 152.448 108.32ZM161.666 108.32C159.938 108.32 158.946 107.232 158.946 105.824C158.946 104.448 159.938 103.328 161.666 103.328C163.394 103.328 164.386 104.448 164.386 105.824C164.386 107.232 163.394 108.32 161.666 108.32ZM170.085 108.32C166.309 108.32 164.389 104.448 164.389 96.8C164.389 89.152 166.309 85.28 170.085 85.28C173.861 85.28 175.781 89.152 175.781 96.8C175.781 104.448 173.861 108.32 170.085 108.32ZM170.085 104C170.981 104 171.333 101.984 171.333 96.8C171.333 91.616 170.981 89.6 170.085 89.6C169.189 89.6 168.837 91.616 168.837 96.8C168.837 101.984 169.189 104 170.085 104ZM177.119 108C176.735 108 176.511 107.776 176.511 107.36V104.384C176.511 103.84 176.607 103.552 177.023 102.688L178.559 99.552C180.351 95.904 181.375 93.76 181.375 92.128C181.375 91.136 180.863 90.304 179.839 90.304C178.879 90.304 178.399 90.816 177.599 91.808C177.407 92.032 177.279 92.096 177.087 92.096C176.895 92.096 176.735 91.936 176.735 91.648V88.192C176.735 87.68 176.767 87.168 177.151 86.656C177.695 85.952 178.943 85.28 180.735 85.28C184.063 85.28 185.951 87.712 185.951 91.392C185.951 94.464 184.927 96.96 183.007 100.608L182.335 101.888C182.111 102.336 181.855 102.752 181.855 103.04C181.855 103.2 181.951 103.328 182.239 103.328H185.535C185.919 103.328 186.143 103.552 186.143 103.968V107.36C186.143 107.776 185.919 108 185.535 108H177.119ZM188.867 108C188.259 108 188.035 107.84 188.067 107.2C188.227 101.504 189.251 96.32 192.035 91.072C192.291 90.592 192.387 90.272 191.715 90.272H187.459C187.043 90.272 186.819 90.048 186.819 89.632V86.24C186.819 85.824 187.043 85.6 187.459 85.6H196.483C196.899 85.6 197.123 85.824 197.123 86.24V88.768C197.123 89.376 197.027 89.792 196.739 90.368C194.019 95.936 192.835 101.376 192.867 107.264C192.867 107.84 192.707 108 192.131 108H188.867ZM205.408 108C204.992 108 204.768 107.776 204.768 107.36V90.24C204.768 89.952 204.64 89.696 204.16 89.696C203.648 89.696 203.328 89.952 202.464 90.656C202.016 91.008 201.6 91.136 201.6 90.592V86.24C201.6 85.824 201.824 85.6 202.24 85.6H211.936C212.352 85.6 212.576 85.824 212.576 86.24V90.592C212.576 91.136 212.16 91.008 211.712 90.656C210.848 89.952 210.528 89.696 210.016 89.696C209.536 89.696 209.408 89.952 209.408 90.24V107.36C209.408 107.776 209.184 108 208.768 108H205.408ZM212.579 108C212.227 108 212.035 107.84 212.067 107.52L214.083 88.704C214.211 87.488 214.147 86.88 214.019 86.208C213.955 85.792 214.147 85.6 214.435 85.6H221.827C222.115 85.6 222.307 85.792 222.211 86.208C222.083 86.816 221.987 87.392 222.115 88.704L224.131 107.52C224.163 107.84 223.971 108 223.619 108H220.099C219.811 108 219.619 107.84 219.587 107.584L219.299 104.768C219.267 104.448 219.107 104.288 218.787 104.288H217.155C216.835 104.288 216.643 104.448 216.611 104.768L216.323 107.584C216.291 107.872 216.067 108 215.811 108H212.579ZM218.435 100C218.787 100 218.851 99.84 218.819 99.584C218.595 96.992 218.435 95.168 218.307 91.616C218.307 91.328 218.179 91.168 217.955 91.168C217.731 91.168 217.603 91.328 217.603 91.616C217.475 95.168 217.315 96.992 217.091 99.584C217.059 99.84 217.123 100 217.475 100H218.435ZM215.491 84.704C215.203 84.704 215.139 84.544 215.139 84.352V83.808C215.139 83.648 215.203 83.52 215.427 83.488C216.387 83.328 216.995 83.04 217.667 82.496C217.827 82.368 217.955 82.272 218.115 82.272C218.275 82.272 218.403 82.368 218.563 82.496C219.235 83.04 219.843 83.328 220.803 83.488C221.027 83.52 221.091 83.648 221.091 83.808V84.352C221.091 84.544 221.027 84.704 220.739 84.704C219.779 84.704 218.659 84.192 218.115 83.616C217.571 84.192 216.451 84.704 215.491 84.704ZM215.875 81.792C215.587 81.792 215.491 81.696 215.491 81.44V80.992C215.491 80.832 215.587 80.736 215.747 80.736C217.123 80.704 218.883 80.448 220.579 79.84C220.835 79.744 220.963 79.872 220.963 80.032V80.576C220.963 80.864 220.867 80.992 220.547 81.12C218.883 81.728 216.771 81.792 215.875 81.792ZM225.817 108C225.401 108 225.177 107.776 225.177 107.36V90.624C225.177 87.872 225.081 87.424 224.793 86.08C224.729 85.792 224.889 85.6 225.177 85.6H228.889C229.273 85.6 229.529 85.792 229.593 86.144L231.641 95.84C231.673 96.064 231.801 96.192 231.993 96.192C232.217 96.192 232.281 96.032 232.281 95.776C232.249 94.912 232.312 92.128 232.249 90.304C232.153 87.872 232.057 87.424 231.769 86.08C231.705 85.792 231.865 85.6 232.153 85.6H236.345C236.633 85.6 236.793 85.792 236.729 86.08C236.441 87.424 236.345 87.872 236.345 90.624V107.36C236.345 107.776 236.121 108 235.705 108H232.633C232.249 108 231.993 107.808 231.929 107.456L229.849 97.728C229.817 97.504 229.689 97.408 229.529 97.408C229.337 97.408 229.209 97.536 229.209 97.792C229.305 99.936 229.401 104.384 229.401 107.36C229.401 107.776 229.177 108 228.761 108H225.817ZM248.005 108.32C243.941 108.32 241.541 104.832 241.541 96.8C241.541 88.768 243.941 85.28 248.005 85.28C249.029 85.28 250.085 85.536 250.821 86.112C251.461 86.624 251.589 87.264 251.589 88.032V90.688C251.589 91.168 251.397 91.392 251.109 91.392C250.757 91.392 250.533 91.104 250.245 90.752C249.925 90.368 249.509 89.952 248.805 89.952C247.205 89.952 246.405 91.968 246.405 96.8C246.405 101.632 247.205 103.648 248.805 103.648C249.509 103.648 249.925 103.232 250.245 102.848C250.533 102.496 250.725 102.208 251.077 102.208C251.365 102.208 251.589 102.432 251.589 102.912V105.568C251.589 106.336 251.461 106.976 250.821 107.488C250.085 108.064 249.029 108.32 248.005 108.32ZM258.054 108.32C254.278 108.32 252.358 104.448 252.358 96.8C252.358 89.152 254.278 85.28 258.054 85.28C261.83 85.28 263.75 89.152 263.75 96.8C263.75 104.448 261.83 108.32 258.054 108.32ZM258.054 104C258.95 104 259.302 101.984 259.302 96.8C259.302 91.616 258.95 89.6 258.054 89.6C257.158 89.6 256.806 91.616 256.806 96.8C256.806 101.984 257.158 104 258.054 104ZM265.88 110.464C265.592 110.464 265.4 110.272 265.4 109.984V107.968C265.4 107.424 265.496 107.104 265.976 106.528L267.64 104.48C268.184 103.808 268.344 103.456 268.344 103.008C268.344 102.624 268.088 102.368 267.608 102.368C267.192 102.368 266.776 102.56 266.232 103.104C266.04 103.296 265.944 103.36 265.816 103.36C265.688 103.36 265.592 103.264 265.592 103.104V100.768C265.592 100.16 265.656 99.968 265.88 99.648C266.168 99.264 267.064 98.784 268.28 98.784C270.424 98.784 271.672 100.032 271.672 102.336C271.672 103.84 271.128 105.024 270.488 105.76L269.752 106.624C269.624 106.752 269.56 106.912 269.56 106.976C269.56 107.072 269.624 107.2 269.816 107.2H271.48C271.768 107.2 271.96 107.36 271.96 107.68V109.984C271.96 110.272 271.768 110.464 271.48 110.464H265.88Z" fill="white"/>
<path d="M113.72 131.96C113.667 131.96 113.619 131.944 113.576 131.912C113.544 131.891 113.501 131.837 113.448 131.752C112.968 130.963 112.584 130.019 112.296 128.92C112.008 127.811 111.864 126.685 111.864 125.544C111.864 124.392 112.008 123.267 112.296 122.168C112.584 121.059 112.968 120.109 113.448 119.32C113.501 119.235 113.544 119.181 113.576 119.16C113.619 119.128 113.667 119.112 113.72 119.112H114.84C114.893 119.112 114.925 119.128 114.936 119.16C114.957 119.192 114.952 119.229 114.92 119.272C114.408 120.125 114.008 121.101 113.72 122.2C113.432 123.288 113.288 124.403 113.288 125.544C113.288 126.664 113.432 127.773 113.72 128.872C114.019 129.971 114.419 130.947 114.92 131.8L114.952 131.88C114.952 131.933 114.915 131.96 114.84 131.96H113.72ZM118.949 131.16C118.021 131.16 117.216 131 116.533 130.68C115.85 130.349 115.509 129.848 115.509 129.176V127.816C115.509 127.699 115.546 127.64 115.621 127.64C115.664 127.64 115.706 127.677 115.749 127.752C116.09 128.339 116.528 128.797 117.061 129.128C117.594 129.448 118.261 129.608 119.061 129.608C119.797 129.608 120.362 129.459 120.757 129.16C121.162 128.851 121.365 128.424 121.365 127.88C121.365 127.411 121.232 127.059 120.965 126.824C120.709 126.579 120.272 126.413 119.653 126.328L118.389 126.152C117.461 126.024 116.757 125.709 116.277 125.208C115.808 124.696 115.573 124.013 115.573 123.16C115.573 122.147 115.93 121.347 116.645 120.76C117.36 120.173 118.336 119.88 119.573 119.88C120.416 119.88 121.152 120.035 121.781 120.344C122.41 120.643 122.725 121.096 122.725 121.704V123.176C122.725 123.229 122.714 123.277 122.693 123.32C122.672 123.352 122.645 123.368 122.613 123.368C122.56 123.368 122.506 123.325 122.453 123.24C122.08 122.632 121.658 122.179 121.189 121.88C120.72 121.581 120.165 121.432 119.525 121.432C118.832 121.432 118.288 121.571 117.893 121.848C117.509 122.125 117.317 122.525 117.317 123.048C117.317 123.464 117.434 123.8 117.669 124.056C117.914 124.301 118.266 124.456 118.725 124.52L120.357 124.744C121.253 124.872 121.936 125.192 122.405 125.704C122.874 126.205 123.109 126.867 123.109 127.688C123.109 128.776 122.736 129.629 121.989 130.248C121.253 130.856 120.24 131.16 118.949 131.16ZM128.284 131.16C127.388 131.16 126.599 130.979 125.916 130.616C125.234 130.243 124.7 129.715 124.316 129.032C123.943 128.339 123.756 127.528 123.756 126.6C123.756 125.672 123.943 124.867 124.316 124.184C124.7 123.491 125.234 122.963 125.916 122.6C126.599 122.227 127.388 122.04 128.284 122.04C128.956 122.04 129.5 122.131 129.916 122.312C130.343 122.493 130.556 122.733 130.556 123.032V124.472C130.556 124.568 130.524 124.616 130.46 124.616C130.407 124.616 130.348 124.579 130.284 124.504C129.815 123.939 129.154 123.656 128.3 123.656C127.436 123.656 126.759 123.923 126.268 124.456C125.778 124.979 125.532 125.693 125.532 126.6C125.532 127.507 125.778 128.227 126.268 128.76C126.77 129.283 127.452 129.544 128.316 129.544C129.138 129.544 129.794 129.336 130.284 128.92C130.37 128.856 130.434 128.824 130.476 128.824C130.53 128.824 130.556 128.872 130.556 128.968V130.104C130.556 130.403 130.343 130.653 129.916 130.856C129.5 131.059 128.956 131.16 128.284 131.16ZM135.327 131.16C134.463 131.16 133.7 130.973 133.039 130.6C132.388 130.216 131.882 129.683 131.519 129C131.156 128.307 130.975 127.507 130.975 126.6C130.975 125.693 131.156 124.899 131.519 124.216C131.882 123.523 132.388 122.989 133.039 122.616C133.7 122.232 134.463 122.04 135.327 122.04C136.191 122.04 136.948 122.232 137.599 122.616C138.26 122.989 138.767 123.523 139.119 124.216C139.482 124.899 139.663 125.693 139.663 126.6C139.663 127.507 139.482 128.307 139.119 129C138.767 129.683 138.26 130.216 137.599 130.6C136.948 130.973 136.191 131.16 135.327 131.16ZM135.327 129.56C136.106 129.56 136.724 129.293 137.183 128.76C137.652 128.216 137.887 127.496 137.887 126.6C137.887 125.704 137.652 124.989 137.183 124.456C136.724 123.912 136.106 123.64 135.327 123.64C134.548 123.64 133.924 123.912 133.455 124.456C132.986 124.989 132.751 125.704 132.751 126.6C132.751 127.496 132.986 128.216 133.455 128.76C133.924 129.293 134.548 129.56 135.327 129.56ZM140.69 132.76C140.647 132.76 140.61 132.744 140.578 132.712C140.546 132.68 140.53 132.643 140.53 132.6V124.312C140.53 123.789 140.508 123.411 140.465 123.176C140.434 122.941 140.364 122.68 140.258 122.392C140.247 122.371 140.242 122.344 140.242 122.312C140.242 122.237 140.284 122.2 140.37 122.2H142.098C142.151 122.2 142.194 122.216 142.226 122.248C142.258 122.28 142.274 122.317 142.274 122.36V123.384C142.274 123.448 142.295 123.485 142.338 123.496C142.391 123.507 142.434 123.485 142.466 123.432C142.679 123.069 143.015 122.749 143.474 122.472C143.932 122.184 144.519 122.04 145.234 122.04C146.002 122.04 146.674 122.232 147.25 122.616C147.836 122.989 148.284 123.523 148.594 124.216C148.914 124.899 149.074 125.693 149.074 126.6C149.074 127.507 148.914 128.307 148.594 129C148.284 129.683 147.836 130.216 147.25 130.6C146.674 130.973 146.002 131.16 145.234 131.16C144.519 131.16 143.927 131.021 143.458 130.744C142.999 130.456 142.668 130.131 142.466 129.768C142.434 129.725 142.402 129.704 142.37 129.704C142.306 129.704 142.274 129.741 142.274 129.816V132.6C142.274 132.643 142.258 132.68 142.226 132.712C142.194 132.744 142.151 132.76 142.098 132.76H140.69ZM144.77 129.656C145.527 129.656 146.13 129.379 146.578 128.824C147.036 128.269 147.266 127.528 147.266 126.6C147.266 125.672 147.036 124.931 146.578 124.376C146.13 123.821 145.527 123.544 144.77 123.544C143.991 123.544 143.367 123.821 142.898 124.376C142.428 124.931 142.194 125.672 142.194 126.6C142.194 127.528 142.428 128.269 142.898 128.824C143.367 129.379 143.991 129.656 144.77 129.656ZM154.332 131.16C153.436 131.16 152.641 130.989 151.948 130.648C151.265 130.296 150.732 129.779 150.348 129.096C149.964 128.403 149.772 127.56 149.772 126.568C149.772 125.619 149.953 124.803 150.316 124.12C150.679 123.437 151.175 122.92 151.804 122.568C152.433 122.216 153.143 122.04 153.932 122.04C155.052 122.04 155.948 122.365 156.62 123.016C157.303 123.656 157.644 124.557 157.644 125.72C157.644 126.157 157.612 126.488 157.548 126.712C157.484 126.925 157.372 127.069 157.212 127.144C157.063 127.219 156.839 127.256 156.54 127.256H151.82C151.671 127.256 151.601 127.32 151.612 127.448C151.697 128.099 151.991 128.621 152.492 129.016C153.004 129.411 153.665 129.608 154.476 129.608C155.436 129.608 156.289 129.256 157.036 128.552C157.079 128.509 157.127 128.488 157.18 128.488C157.255 128.488 157.292 128.536 157.292 128.632V129.8C157.292 129.939 157.26 130.067 157.196 130.184C157.132 130.291 157.02 130.403 156.86 130.52C156.615 130.691 156.273 130.84 155.836 130.968C155.409 131.096 154.908 131.16 154.332 131.16ZM155.692 125.896C155.863 125.896 155.953 125.811 155.964 125.64L155.98 125.416C155.98 124.883 155.799 124.435 155.436 124.072C155.073 123.709 154.567 123.528 153.916 123.528C153.169 123.528 152.609 123.741 152.236 124.168C151.863 124.584 151.66 125.075 151.628 125.64V125.672C151.628 125.736 151.655 125.789 151.708 125.832C151.772 125.875 151.841 125.896 151.916 125.896H155.692ZM163.748 131C163.641 131 163.588 130.947 163.588 130.84V122.968C163.588 122.883 163.561 122.84 163.508 122.84C163.465 122.84 163.423 122.861 163.38 122.904C162.964 123.363 162.537 123.688 162.1 123.88C161.673 124.061 161.3 124.152 160.98 124.152C160.863 124.152 160.804 124.093 160.804 123.976V122.792C160.804 122.685 160.852 122.627 160.948 122.616C161.577 122.445 162.132 122.152 162.612 121.736C163.103 121.32 163.471 120.797 163.716 120.168C163.748 120.083 163.812 120.04 163.908 120.04H165.188C165.295 120.04 165.348 120.093 165.348 120.2V130.84C165.348 130.947 165.295 131 165.188 131H163.748ZM167.148 132.568C166.935 132.568 166.769 132.531 166.652 132.456C166.535 132.392 166.476 132.296 166.476 132.168V131.704C166.476 131.661 166.487 131.635 166.508 131.624C166.54 131.613 166.577 131.624 166.62 131.656C166.759 131.763 166.945 131.816 167.18 131.816C167.415 131.816 167.591 131.757 167.708 131.64C167.825 131.523 167.884 131.384 167.884 131.224C167.884 131.139 167.836 131.096 167.74 131.096H167.5C167.18 131.096 166.929 131.016 166.748 130.856C166.577 130.685 166.492 130.461 166.492 130.184C166.492 129.896 166.588 129.661 166.78 129.48C166.972 129.288 167.233 129.192 167.564 129.192C167.927 129.192 168.209 129.325 168.412 129.592C168.625 129.848 168.732 130.205 168.732 130.664C168.732 131.272 168.593 131.741 168.316 132.072C168.049 132.403 167.66 132.568 167.148 132.568ZM175.48 131.16C174.552 131.16 173.747 131 173.064 130.68C172.382 130.349 172.04 129.848 172.04 129.176V127.816C172.04 127.699 172.078 127.64 172.152 127.64C172.195 127.64 172.238 127.677 172.28 127.752C172.622 128.339 173.059 128.797 173.592 129.128C174.126 129.448 174.792 129.608 175.592 129.608C176.328 129.608 176.894 129.459 177.288 129.16C177.694 128.851 177.896 128.424 177.896 127.88C177.896 127.411 177.763 127.059 177.496 126.824C177.24 126.579 176.803 126.413 176.184 126.328L174.92 126.152C173.992 126.024 173.288 125.709 172.808 125.208C172.339 124.696 172.104 124.013 172.104 123.16C172.104 122.147 172.462 121.347 173.176 120.76C173.891 120.173 174.867 119.88 176.104 119.88C176.947 119.88 177.683 120.035 178.312 120.344C178.942 120.643 179.256 121.096 179.256 121.704V123.176C179.256 123.229 179.246 123.277 179.224 123.32C179.203 123.352 179.176 123.368 179.144 123.368C179.091 123.368 179.038 123.325 178.984 123.24C178.611 122.632 178.19 122.179 177.72 121.88C177.251 121.581 176.696 121.432 176.056 121.432C175.363 121.432 174.819 121.571 174.424 121.848C174.04 122.125 173.848 122.525 173.848 123.048C173.848 123.464 173.966 123.8 174.2 124.056C174.446 124.301 174.798 124.456 175.256 124.52L176.888 124.744C177.784 124.872 178.467 125.192 178.936 125.704C179.406 126.205 179.64 126.867 179.64 127.688C179.64 128.776 179.267 129.629 178.52 130.248C177.784 130.856 176.771 131.16 175.48 131.16ZM184.816 131.16C183.92 131.16 183.13 130.979 182.448 130.616C181.765 130.243 181.232 129.715 180.848 129.032C180.474 128.339 180.288 127.528 180.288 126.6C180.288 125.672 180.474 124.867 180.848 124.184C181.232 123.491 181.765 122.963 182.448 122.6C183.13 122.227 183.92 122.04 184.816 122.04C185.488 122.04 186.032 122.131 186.448 122.312C186.874 122.493 187.088 122.733 187.088 123.032V124.472C187.088 124.568 187.056 124.616 186.992 124.616C186.938 124.616 186.88 124.579 186.816 124.504C186.346 123.939 185.685 123.656 184.832 123.656C183.968 123.656 183.29 123.923 182.8 124.456C182.309 124.979 182.064 125.693 182.064 126.6C182.064 127.507 182.309 128.227 182.8 128.76C183.301 129.283 183.984 129.544 184.848 129.544C185.669 129.544 186.325 129.336 186.816 128.92C186.901 128.856 186.965 128.824 187.008 128.824C187.061 128.824 187.088 128.872 187.088 128.968V130.104C187.088 130.403 186.874 130.653 186.448 130.856C186.032 131.059 185.488 131.16 184.816 131.16ZM191.858 131.16C190.994 131.16 190.232 130.973 189.57 130.6C188.92 130.216 188.413 129.683 188.05 129C187.688 128.307 187.506 127.507 187.506 126.6C187.506 125.693 187.688 124.899 188.05 124.216C188.413 123.523 188.92 122.989 189.57 122.616C190.232 122.232 190.994 122.04 191.858 122.04C192.722 122.04 193.48 122.232 194.13 122.616C194.792 122.989 195.298 123.523 195.65 124.216C196.013 124.899 196.194 125.693 196.194 126.6C196.194 127.507 196.013 128.307 195.65 129C195.298 129.683 194.792 130.216 194.13 130.6C193.48 130.973 192.722 131.16 191.858 131.16ZM191.858 129.56C192.637 129.56 193.256 129.293 193.714 128.76C194.184 128.216 194.418 127.496 194.418 126.6C194.418 125.704 194.184 124.989 193.714 124.456C193.256 123.912 192.637 123.64 191.858 123.64C191.08 123.64 190.456 123.912 189.986 124.456C189.517 124.989 189.282 125.704 189.282 126.6C189.282 127.496 189.517 128.216 189.986 128.76C190.456 129.293 191.08 129.56 191.858 129.56ZM197.221 132.76C197.178 132.76 197.141 132.744 197.109 132.712C197.077 132.68 197.061 132.643 197.061 132.6V124.312C197.061 123.789 197.039 123.411 196.997 123.176C196.965 122.941 196.895 122.68 196.789 122.392C196.778 122.371 196.773 122.344 196.773 122.312C196.773 122.237 196.815 122.2 196.901 122.2H198.629C198.682 122.2 198.725 122.216 198.757 122.248C198.789 122.28 198.805 122.317 198.805 122.36V123.384C198.805 123.448 198.826 123.485 198.869 123.496C198.922 123.507 198.965 123.485 198.997 123.432C199.21 123.069 199.546 122.749 200.005 122.472C200.463 122.184 201.05 122.04 201.765 122.04C202.533 122.04 203.205 122.232 203.781 122.616C204.367 122.989 204.815 123.523 205.125 124.216C205.445 124.899 205.605 125.693 205.605 126.6C205.605 127.507 205.445 128.307 205.125 129C204.815 129.683 204.367 130.216 203.781 130.6C203.205 130.973 202.533 131.16 201.765 131.16C201.05 131.16 200.458 131.021 199.989 130.744C199.53 130.456 199.199 130.131 198.997 129.768C198.965 129.725 198.933 129.704 198.901 129.704C198.837 129.704 198.805 129.741 198.805 129.816V132.6C198.805 132.643 198.789 132.68 198.757 132.712C198.725 132.744 198.682 132.76 198.629 132.76H197.221ZM201.301 129.656C202.058 129.656 202.661 129.379 203.109 128.824C203.567 128.269 203.797 127.528 203.797 126.6C203.797 125.672 203.567 124.931 203.109 124.376C202.661 123.821 202.058 123.544 201.301 123.544C200.522 123.544 199.898 123.821 199.429 124.376C198.959 124.931 198.725 125.672 198.725 126.6C198.725 127.528 198.959 128.269 199.429 128.824C199.898 129.379 200.522 129.656 201.301 129.656ZM210.863 131.16C209.967 131.16 209.173 130.989 208.479 130.648C207.797 130.296 207.263 129.779 206.879 129.096C206.495 128.403 206.303 127.56 206.303 126.568C206.303 125.619 206.485 124.803 206.847 124.12C207.21 123.437 207.706 122.92 208.335 122.568C208.965 122.216 209.674 122.04 210.463 122.04C211.583 122.04 212.479 122.365 213.151 123.016C213.834 123.656 214.175 124.557 214.175 125.72C214.175 126.157 214.143 126.488 214.079 126.712C214.015 126.925 213.903 127.069 213.743 127.144C213.594 127.219 213.37 127.256 213.071 127.256H208.351C208.202 127.256 208.133 127.32 208.143 127.448C208.229 128.099 208.522 128.621 209.023 129.016C209.535 129.411 210.197 129.608 211.007 129.608C211.967 129.608 212.821 129.256 213.567 128.552C213.61 128.509 213.658 128.488 213.711 128.488C213.786 128.488 213.823 128.536 213.823 128.632V129.8C213.823 129.939 213.791 130.067 213.727 130.184C213.663 130.291 213.551 130.403 213.391 130.52C213.146 130.691 212.805 130.84 212.367 130.968C211.941 131.096 211.439 131.16 210.863 131.16ZM212.223 125.896C212.394 125.896 212.485 125.811 212.495 125.64L212.511 125.416C212.511 124.883 212.33 124.435 211.967 124.072C211.605 123.709 211.098 123.528 210.447 123.528C209.701 123.528 209.141 123.741 208.767 124.168C208.394 124.584 208.191 125.075 208.159 125.64V125.672C208.159 125.736 208.186 125.789 208.239 125.832C208.303 125.875 208.373 125.896 208.447 125.896H212.223ZM217.735 131C217.629 131 217.575 130.947 217.575 130.84V129.88C217.575 129.773 217.613 129.683 217.687 129.608L220.071 127.16C220.978 126.232 221.618 125.485 221.991 124.92C222.375 124.355 222.567 123.789 222.567 123.224C222.567 122.669 222.407 122.243 222.087 121.944C221.778 121.635 221.319 121.48 220.711 121.48C220.082 121.48 219.549 121.645 219.111 121.976C218.674 122.307 218.237 122.819 217.799 123.512C217.757 123.587 217.709 123.624 217.655 123.624C217.581 123.624 217.543 123.565 217.543 123.448V122.008C217.543 121.805 217.559 121.64 217.591 121.512C217.634 121.384 217.703 121.256 217.799 121.128C218.066 120.776 218.455 120.483 218.967 120.248C219.49 120.003 220.066 119.88 220.695 119.88C221.421 119.88 222.061 120.019 222.615 120.296C223.17 120.563 223.597 120.941 223.895 121.432C224.205 121.912 224.359 122.461 224.359 123.08C224.359 123.795 224.151 124.488 223.735 125.16C223.319 125.821 222.679 126.605 221.815 127.512L220.263 129.16C220.221 129.203 220.199 129.245 220.199 129.288C220.199 129.363 220.258 129.4 220.375 129.4H224.471C224.578 129.4 224.631 129.453 224.631 129.56V130.84C224.631 130.947 224.578 131 224.471 131H217.735ZM225.194 131.96C225.141 131.96 225.104 131.944 225.082 131.912C225.072 131.88 225.082 131.843 225.114 131.8C225.616 130.947 226.01 129.971 226.298 128.872C226.597 127.773 226.746 126.664 226.746 125.544C226.746 124.403 226.602 123.288 226.314 122.2C226.026 121.101 225.626 120.125 225.114 119.272L225.082 119.192C225.082 119.139 225.12 119.112 225.194 119.112H226.314C226.368 119.112 226.41 119.128 226.442 119.16C226.485 119.181 226.533 119.235 226.586 119.32C227.066 120.109 227.45 121.059 227.738 122.168C228.026 123.267 228.17 124.392 228.17 125.544C228.17 126.685 228.026 127.811 227.738 128.92C227.45 130.019 227.066 130.963 226.586 131.752C226.533 131.837 226.485 131.891 226.442 131.912C226.41 131.944 226.368 131.96 226.314 131.96H225.194Z" fill="white"/>
</svg>
