<svg width="1440" height="774" viewBox="0 0 1440 774" fill="none" xmlns="http://www.w3.org/2000/svg">
<g clip-path="url(#clip0_316_16988)">
<rect x="100.5" y="600.5" width="140" height="133" rx="7.5" fill="#FFFFF1"/>
<rect x="100.5" y="600.5" width="140" height="133" rx="7.5" stroke="#006D5A"/>
<text fill="#006D5A" xml:space="preserve" style="white-space: pre" font-family="VNM Sans Display" font-size="40" font-weight="bold" letter-spacing="0em"><tspan x="138.43" y="646">9,243</tspan></text>
<text fill="#006D5A" xml:space="preserve" style="white-space: pre" font-family="VNM Sans Display" font-size="14" font-weight="bold" letter-spacing="0em"><tspan x="129.5" y="663.8">JOB OPPORTUNITIES</tspan></text>
<text fill="#006D5A" xml:space="preserve" style="white-space: pre" font-family="VNM Sans Std" font-size="14" letter-spacing="0em"><tspan x="114.138" y="680.844">for the society and </tspan><tspan x="124.918" y="696.844">localities where </tspan><tspan x="118.089" y="712.844">Vinamilk operates</tspan></text>
<rect x="257.5" y="600.5" width="140" height="133" rx="7.5" fill="#FFFFF1"/>
<rect x="257.5" y="600.5" width="140" height="133" rx="7.5" stroke="#006D5A"/>
<text fill="#006D5A" xml:space="preserve" style="white-space: pre" font-family="VNM Sans Std" font-size="14" letter-spacing="0em"><tspan x="284.707" y="630.844">artnership </tspan><tspan x="361.584" y="630.844">ith</tspan></text>
<text fill="#006D5A" xml:space="preserve" style="white-space: pre" font-family="VNM Sans Std" font-size="14" letter-spacing="0em"><tspan x="277.434" y="630.844">P</tspan><tspan x="348.514" y="630.844">W</tspan></text>
<text fill="#006D5A" xml:space="preserve" style="white-space: pre" font-family="VNM Sans Display" font-size="40" font-weight="bold" letter-spacing="0em"><tspan x="296.25" y="666">4,180</tspan></text>
<text fill="#006D5A" xml:space="preserve" style="white-space: pre" font-family="VNM Sans Display" font-size="20" font-weight="bold" letter-spacing="0em"><tspan x="304.092" y="688.4">FARMER </tspan><tspan x="289.98" y="711.4">HOUSEHOLDS</tspan></text>
<rect x="414.5" y="600.5" width="140" height="133" rx="7.5" fill="#FFFFF1"/>
<rect x="414.5" y="600.5" width="140" height="133" rx="7.5" stroke="#006D5A"/>
<text fill="#006D5A" xml:space="preserve" style="white-space: pre" font-family="VNM Sans Display" font-size="40" font-weight="bold" letter-spacing="0em"><tspan x="452.059" y="646">1,906</tspan></text>
<text fill="#006D5A" xml:space="preserve" style="white-space: pre" font-family="VNM Sans Std" font-size="12" font-weight="bold" letter-spacing="0em"><tspan x="426.709" y="661.152">JOB OPPORTUNITIES</tspan></text>
<text fill="#006D5A" xml:space="preserve" style="white-space: pre" font-family="VNM Sans Std" font-size="14" letter-spacing="0em"><tspan x="441.27" y="680.844">for agricultural </tspan><tspan x="457.587" y="696.844">activities&#10;</tspan><tspan x="458.271" y="712.844">on farms</tspan></text>
<rect x="571.5" y="600.5" width="140" height="133" rx="7.5" fill="#FFFFF1"/>
<rect x="571.5" y="600.5" width="140" height="133" rx="7.5" stroke="#006D5A"/>
<text fill="#006D5A" xml:space="preserve" style="white-space: pre" font-family="VNM Sans Display" font-size="40" font-weight="bold" letter-spacing="0em"><tspan x="581.031" y="663">239,254</tspan></text>
<text fill="#006D5A" xml:space="preserve" style="white-space: pre" font-family="VNM Sans Display" font-size="14" font-weight="bold" letter-spacing="0em"><tspan x="678.589" y="663">TONS</tspan></text>
<text fill="#006D5A" xml:space="preserve" style="white-space: pre" font-family="VNM Sans Std" font-size="14" letter-spacing="0em"><tspan x="593.061" y="679.844">of raw fresh milk&#10;</tspan><tspan x="588.419" y="695.844">purchased in 2023</tspan></text>
<rect x="728.5" y="600.5" width="140" height="133" rx="7.5" fill="#FFFFF1"/>
<rect x="728.5" y="600.5" width="140" height="133" rx="7.5" stroke="#006D5A"/>
<text fill="#006D5A" xml:space="preserve" style="white-space: pre" font-family="VNM Sans Display" font-size="40" font-weight="bold" letter-spacing="0em"><tspan x="745.094" y="655">13,000</tspan></text>
<text fill="#006D5A" xml:space="preserve" style="white-space: pre" font-family="VNM Sans Display" font-size="14" font-weight="bold" letter-spacing="0em"><tspan x="829.089" y="655">TONS</tspan></text>
<text fill="#006D5A" xml:space="preserve" style="white-space: pre" font-family="VNM Sans Std" font-size="14" letter-spacing="0em"><tspan x="757.655" y="671.844">of fertilizer to </tspan><tspan x="774.055" y="687.844">support&#10;</tspan><tspan x="739.738" y="703.844">farmers households</tspan></text>
<rect x="885.5" y="600.5" width="140" height="133" rx="7.5" fill="#FFFFF1"/>
<rect x="885.5" y="600.5" width="140" height="133" rx="7.5" stroke="#006D5A"/>
<text fill="#006D5A" xml:space="preserve" style="white-space: pre" font-family="VNM Sans Display" font-size="40" font-weight="bold" letter-spacing="0em"><tspan x="898.246" y="655">215,418</tspan></text>
<text fill="#006D5A" xml:space="preserve" style="white-space: pre" font-family="VNM Sans Display" font-size="14" font-weight="bold" letter-spacing="0em"><tspan x="990.089" y="655">TONS</tspan></text>
<text fill="#006D5A" xml:space="preserve" style="white-space: pre" font-family="VNM Sans Std" font-size="14" letter-spacing="0em"><tspan x="908.25" y="671.844">of biomass corn&#10;</tspan><tspan x="908.366" y="687.844">purchased from&#10;</tspan><tspan x="896.738" y="703.844">farmers households</tspan></text>
<rect x="1042.5" y="600.5" width="140" height="133" rx="7.5" fill="#FFFFF1"/>
<rect x="1042.5" y="600.5" width="140" height="133" rx="7.5" stroke="#006D5A"/>
<text fill="#006D5A" xml:space="preserve" style="white-space: pre" font-family="VNM Sans Display" font-size="40" font-weight="bold" letter-spacing="0em"><tspan x="1081.25" y="647">100%</tspan></text>
<text fill="#006D5A" xml:space="preserve" style="white-space: pre" font-family="VNM Sans Std" font-size="14" letter-spacing="0em"><tspan x="1079.2" y="663.844">contracted </tspan><tspan x="1078.19" y="679.844">households&#10;</tspan><tspan x="1065.61" y="695.844">receiving annual&#10;</tspan><tspan x="1062.13" y="711.844">technical training</tspan></text>
<rect x="1199.5" y="600.5" width="140" height="133" rx="7.5" fill="#FFFFF1"/>
<rect x="1199.5" y="600.5" width="140" height="133" rx="7.5" stroke="#006D5A"/>
<text fill="#006D5A" xml:space="preserve" style="white-space: pre" font-family="VNM Sans Display" font-size="40" font-weight="bold" letter-spacing="0em"><tspan x="1238.25" y="647">100%</tspan></text>
<text fill="#006D5A" xml:space="preserve" style="white-space: pre" font-family="VNM Sans Std" font-size="14" letter-spacing="0em"><tspan x="1232.57" y="663.844">of the farms </tspan><tspan x="1243.91" y="679.844">certified&#10;</tspan><tspan x="1215.7" y="695.844">to the GlobalG.A.P.&#10;</tspan><tspan x="1239.54" y="711.844">standards</tspan></text>
<path d="M1240 36H1200V76H1240V36Z" fill="#EA1D2D"/>
<path d="M1231.92 55.1345C1231.92 54.5146 1232.42 54.0117 1233.04 54.0117C1233.66 54.0117 1234.15 54.5146 1234.15 55.1345C1234.15 55.7544 1233.65 56.2573 1233.04 56.2573C1232.43 56.2573 1231.92 55.7544 1231.92 55.1345Z" fill="white"/>
<path d="M1234.35 56.6783C1235.11 56.7485 1235.71 57.3801 1235.71 58.1637V61.2631C1235.71 61.4971 1235.52 61.6959 1235.27 61.6959C1235.03 61.6959 1234.84 61.4971 1234.84 61.2631V58.5965C1234.84 58.4912 1234.82 58.3626 1234.63 58.3626C1234.5 58.3626 1234.48 58.4912 1234.48 58.5848V66.5614C1234.48 66.9006 1234.2 67.1813 1233.86 67.1813C1233.52 67.1813 1233.24 66.9006 1233.24 66.5614V61.9649C1233.24 61.9649 1233.22 61.7778 1233.06 61.7778C1232.9 61.7778 1232.89 61.9064 1232.89 61.9649V66.5614C1232.89 66.9006 1232.61 67.1813 1232.27 67.1813C1231.93 67.1813 1231.65 66.9006 1231.65 66.5614V58.5848C1231.65 58.5029 1231.61 58.3626 1231.49 58.3626C1231.3 58.3626 1231.27 58.5029 1231.27 58.5965V61.2631C1231.27 61.4971 1231.08 61.6959 1230.84 61.6959C1230.61 61.6959 1230.41 61.4971 1230.41 61.2631V58.1637C1230.41 57.3801 1231.01 56.7485 1231.77 56.6783C1231.79 56.6783 1231.82 56.6783 1231.85 56.6783H1234.29C1234.29 56.6783 1234.35 56.6783 1234.37 56.6783" fill="white"/>
<path d="M1225.28 55.7193C1225.28 55.1345 1224.81 54.655 1224.21 54.655C1223.61 54.655 1223.15 55.1345 1223.15 55.7193C1223.15 56.3041 1223.63 56.7837 1224.21 56.7837C1224.8 56.7837 1225.28 56.3041 1225.28 55.7193Z" fill="white"/>
<path d="M1222.08 58.117L1221.2 60.9825C1221.2 60.9825 1221.05 61.5088 1221.5 61.6374C1221.94 61.7661 1222.08 61.2515 1222.08 61.2515L1222.8 58.8538C1222.8 58.8538 1222.83 58.6667 1222.97 58.7135C1223.11 58.7485 1223.05 58.9474 1223.05 58.9474L1221.81 63.4269H1222.96V66.6316C1222.96 66.9357 1223.2 67.1813 1223.51 67.1813C1223.81 67.1813 1224.06 66.9357 1224.06 66.6316V63.4269H1224.37V66.6316C1224.37 66.9357 1224.62 67.1813 1224.92 67.1813C1225.23 67.1813 1225.47 66.9357 1225.47 66.6316V63.4269H1226.62L1225.38 58.9474C1225.38 58.9474 1225.32 58.7485 1225.46 58.7135C1225.6 58.6784 1225.64 58.8538 1225.64 58.8538L1226.35 61.2515C1226.35 61.2515 1226.49 61.7661 1226.92 61.6374C1227.37 61.5088 1227.22 60.9825 1227.22 60.9825L1226.34 58.117C1226.34 58.117 1226.02 57.2866 1225.33 57.2866H1223.09C1222.4 57.2866 1222.08 58.117 1222.08 58.117Z" fill="white"/>
<path d="M1218.92 55.7193C1218.92 55.1345 1218.46 54.655 1217.87 54.655C1217.29 54.655 1216.81 55.1345 1216.81 55.7193C1216.81 56.3041 1217.28 56.7837 1217.87 56.7837C1218.47 56.7837 1218.92 56.3041 1218.92 55.7193Z" fill="white"/>
<path d="M1215.73 58.117L1214.85 60.9825C1214.85 60.9825 1214.69 61.5088 1215.15 61.6374C1215.59 61.7661 1215.72 61.2515 1215.72 61.2515L1216.43 58.8538C1216.43 58.8538 1216.47 58.6667 1216.61 58.7135C1216.75 58.7485 1216.69 58.9474 1216.69 58.9474L1215.45 63.4269H1216.6V66.6316C1216.6 66.9357 1216.84 67.1813 1217.15 67.1813C1217.45 67.1813 1217.7 66.9357 1217.7 66.6316V63.4269H1218.01V66.6316C1218.01 66.9357 1218.26 67.1813 1218.56 67.1813C1218.87 67.1813 1219.11 66.9357 1219.11 66.6316V63.4269H1220.26L1219.02 58.9474C1219.02 58.9474 1218.96 58.7485 1219.1 58.7135C1219.24 58.6784 1219.27 58.8538 1219.27 58.8538L1219.99 61.2515C1219.99 61.2515 1220.13 61.7661 1220.56 61.6374C1221.01 61.5088 1220.85 60.9825 1220.85 60.9825L1219.98 58.117C1219.98 58.117 1219.66 57.2866 1218.97 57.2866H1216.73C1216.04 57.2866 1215.72 58.117 1215.72 58.117" fill="white"/>
<path d="M1228.83 61.6491C1229.32 61.6491 1229.71 61.2514 1229.71 60.7602C1229.71 60.269 1229.31 59.883 1228.83 59.883C1228.35 59.883 1227.95 60.2807 1227.95 60.7602C1227.95 61.2398 1228.35 61.6491 1228.83 61.6491Z" fill="white"/>
<path d="M1226.71 64.3859C1226.67 64.4912 1226.63 64.7017 1226.84 64.807C1227.09 64.9122 1227.22 64.6783 1227.22 64.6783L1227.7 63.1462C1227.7 63.1462 1227.78 63.0409 1227.78 63.1462V66.7485C1227.78 67.0058 1227.98 67.2046 1228.23 67.2046C1228.49 67.2046 1228.69 67.0058 1228.69 66.7485V65.3333C1228.69 65.3333 1228.67 65.1345 1228.83 65.1345C1228.99 65.1345 1228.97 65.3333 1228.97 65.3333V66.7485C1228.97 67.0058 1229.17 67.2046 1229.43 67.2046C1229.68 67.2046 1229.88 67.0058 1229.88 66.7485V63.1462C1229.88 63.0409 1229.94 63.1111 1229.94 63.1111L1230.32 64.1637C1230.32 64.1637 1230.48 64.6315 1230.53 64.6549C1230.7 64.7251 1230.89 64.6549 1230.96 64.4795C1231.01 64.3625 1230.98 64.2456 1230.92 64.1637C1230.92 64.1637 1230.36 62.7719 1230.29 62.5848C1230.09 62 1229.73 62.0117 1229.38 62C1229.03 62 1228.82 62 1228.82 62C1228.82 62 1228.6 62 1228.14 62C1227.68 62.0117 1227.53 62.2456 1227.03 63.5555C1226.96 63.7427 1226.71 64.3508 1226.71 64.3859Z" fill="white"/>
<path d="M1209.47 55.1345C1209.47 54.5146 1208.97 54.0117 1208.35 54.0117C1207.73 54.0117 1207.24 54.5146 1207.24 55.1345C1207.24 55.7544 1207.74 56.2573 1208.35 56.2573C1208.96 56.2573 1209.47 55.7544 1209.47 55.1345Z" fill="white"/>
<path d="M1207.04 56.6783C1206.28 56.7485 1205.68 57.3801 1205.68 58.1637V61.2631C1205.68 61.4971 1205.88 61.6959 1206.12 61.6959C1206.35 61.6959 1206.55 61.4971 1206.55 61.2631V58.5965C1206.55 58.4912 1206.59 58.3626 1206.76 58.3626C1206.89 58.3626 1206.91 58.4912 1206.92 58.5848V66.5614C1206.92 66.9006 1207.21 67.1813 1207.54 67.1813C1207.88 67.1813 1208.16 66.9006 1208.16 66.5614V61.9649C1208.16 61.9649 1208.19 61.7778 1208.34 61.7778C1208.49 61.7778 1208.51 61.9064 1208.51 61.9649V66.5614C1208.51 66.9006 1208.8 67.1813 1209.13 67.1813C1209.47 67.1813 1209.75 66.9006 1209.75 66.5614V58.5848C1209.75 58.5029 1209.79 58.3626 1209.91 58.3626C1210.09 58.3626 1210.12 58.5029 1210.12 58.5965V61.2631C1210.12 61.4971 1210.32 61.6959 1210.55 61.6959C1210.78 61.6959 1210.98 61.4971 1210.98 61.2631V58.1637C1210.98 57.3801 1210.39 56.7485 1209.63 56.6783C1209.6 56.6783 1209.58 56.6783 1209.54 56.6783H1207.1C1207.1 56.6783 1207.04 56.6783 1207.02 56.6783" fill="white"/>
<path d="M1205.08 67.2164C1205.08 67.2164 1205.04 67.2164 1205.03 67.2164C1204.9 67.193 1204.82 67.0643 1204.84 66.9357L1205.84 61.6725C1205.86 61.5439 1205.99 61.462 1206.12 61.4854C1206.25 61.5088 1206.33 61.6374 1206.3 61.7661L1205.31 67.0293C1205.29 67.1462 1205.19 67.2281 1205.08 67.2281" fill="white"/>
<path d="M1211.54 61.1813C1211.49 61.0877 1211.38 61.0293 1211.27 61.0293C1211.1 61.0293 1210.96 61.1696 1210.96 61.3451C1210.96 61.3918 1210.99 61.4854 1210.99 61.4854L1211.88 63.0994C1211.88 63.0994 1211.94 63.2164 1211.94 63.31V66.7603C1211.94 67.0059 1212.14 67.193 1212.37 67.193C1212.61 67.193 1212.81 66.9942 1212.81 66.7603V65.3918C1212.81 65.3918 1212.78 65.2047 1212.94 65.2047C1213.09 65.2047 1213.06 65.3918 1213.06 65.3918V66.7603C1213.06 67.0059 1213.26 67.193 1213.5 67.193C1213.73 67.193 1213.93 66.9942 1213.93 66.7603V63.31C1213.93 63.2047 1213.99 63.0994 1213.99 63.0994L1214.81 61.6141C1214.81 61.6141 1214.91 61.4035 1214.91 61.3451C1214.91 61.1696 1214.77 61.0293 1214.6 61.0293C1214.48 61.0293 1214.39 61.0877 1214.33 61.1813C1214.33 61.1813 1213.89 61.9299 1213.75 62.0702C1213.61 62.2106 1213.49 62.1989 1213.49 62.1989H1212.42C1212.42 62.1989 1212.29 62.2106 1212.15 62.0702C1212.01 61.9299 1211.6 61.2047 1211.58 61.1813H1211.54Z" fill="white"/>
<path d="M1212.92 61.6491C1213.42 61.6491 1213.8 61.2514 1213.8 60.7602C1213.8 60.269 1213.4 59.883 1212.92 59.883C1212.44 59.883 1212.05 60.2807 1212.05 60.7602C1212.05 61.2398 1212.44 61.6491 1212.92 61.6491Z" fill="white"/>
<path d="M1212.92 62.8772L1213.92 63.6023L1214.4 65.3567H1212.92H1211.45L1211.93 63.6023L1212.92 62.8772Z" fill="white"/>
<path d="M1206.44 41.1696H1206.47V47.4035H1207.84V39.2515H1206.74L1205.47 40.7369V42.1638H1205.49L1206.44 41.1696Z" fill="white"/>
<path d="M1212.85 40.5965V42.7368H1212.36V39.3333H1212.92L1213.54 41.2865V39.3333H1214.02V42.7368H1213.52L1212.85 40.5965Z" fill="white"/>
<path d="M1214.35 41.8597V40.2105C1214.35 39.6842 1214.61 39.2982 1215.22 39.2982C1215.82 39.2982 1216.08 39.6842 1216.08 40.2105V41.8597C1216.08 42.386 1215.82 42.7836 1215.22 42.7836C1214.61 42.7836 1214.35 42.3977 1214.35 41.8597ZM1215.51 41.9532V40.1287C1215.51 39.9181 1215.41 39.7778 1215.22 39.7778C1215.02 39.7778 1214.92 39.9181 1214.92 40.1287V41.9532C1214.92 42.1637 1215.02 42.3041 1215.22 42.3041C1215.41 42.3041 1215.51 42.1637 1215.51 41.9532Z" fill="white"/>
<path d="M1212.36 44.1053H1213.22C1213.79 44.1053 1214.01 44.386 1214.01 44.8655V45.5789C1214.01 46.0585 1213.8 46.3509 1213.22 46.3509H1212.94V47.5088H1212.36V44.1053ZM1212.94 44.5731V45.9181H1213.15C1213.35 45.9181 1213.43 45.8246 1213.43 45.6374V44.8538C1213.43 44.6667 1213.35 44.5731 1213.15 44.5731H1212.94Z" fill="white"/>
<path d="M1214.3 46.6316V44.9825C1214.3 44.4562 1214.56 44.0702 1215.17 44.0702C1215.78 44.0702 1216.04 44.4562 1216.04 44.9825V46.6316C1216.04 47.1579 1215.78 47.5556 1215.17 47.5556C1214.56 47.5556 1214.3 47.1696 1214.3 46.6316ZM1215.46 46.7252V44.9006C1215.46 44.6901 1215.37 44.5497 1215.17 44.5497C1214.97 44.5497 1214.88 44.6901 1214.88 44.9006V46.7252C1214.88 46.9357 1214.97 47.076 1215.17 47.076C1215.37 47.076 1215.46 46.9357 1215.46 46.7252Z" fill="white"/>
<path d="M1218.09 44.1053L1217.44 47.5088H1216.82L1216.18 44.1053H1216.76L1217.15 46.4795H1217.16L1217.56 44.1053H1218.09Z" fill="white"/>
<path d="M1218.33 44.1053H1219.7V44.5731H1218.9V45.5439H1219.47V46.0117H1218.9V47.0409H1219.7V47.5088H1218.33V44.1053Z" fill="white"/>
<path d="M1220.57 45.9415V47.5088H1220V44.1053H1220.83C1221.4 44.1053 1221.61 44.386 1221.61 44.8655V45.2982C1221.61 45.6608 1221.49 45.883 1221.16 45.9532L1221.71 47.4971H1221.11L1220.57 45.9298V45.9415ZM1220.57 44.5731V45.6374H1220.76C1220.96 45.6374 1221.04 45.5322 1221.04 45.3567V44.8538C1221.04 44.6667 1220.96 44.5731 1220.76 44.5731H1220.57Z" fill="white"/>
<path d="M1221.81 44.1053H1223.33V44.5731H1222.87V47.5088H1222.29V44.5731H1221.81V44.1053Z" fill="white"/>
<path d="M1224.73 46.2105V47.5088H1224.15V46.2105L1223.51 44.1053H1224.11L1224.46 45.3918L1224.81 44.1053H1225.36L1224.73 46.2105Z" fill="white"/>
<path d="M1290 36H1250V76H1290V36Z" fill="#D19F2A"/>
<path d="M1265.94 70.0585V70.6199C1265.94 70.6199 1265.94 70.6199 1265.94 70.6316C1265.94 70.6433 1265.94 70.6316 1265.94 70.6433C1265.94 70.7836 1266.06 70.8889 1266.2 70.9006H1272.83C1272.97 70.9006 1273.09 70.7836 1273.09 70.6316V69.9883C1276.82 68.7602 1279.61 65.7427 1280.23 62.0585C1280.23 62.0585 1280.23 62.0468 1280.23 62.0351C1280.23 62.0234 1280.23 62.0117 1280.23 62C1280.23 61.8479 1280.12 61.731 1279.97 61.731H1258.84C1258.69 61.731 1258.57 61.8479 1258.57 62V62.117C1259.24 65.8363 1262.11 68.8772 1265.92 70.0468" fill="white"/>
<path d="M1273.11 52.7134C1273.03 52.8421 1270.98 55.7778 1273.16 58.152C1274.15 59.2398 1274.07 60.2105 1273.78 60.8538H1275.17C1275.45 59.8947 1275.33 58.69 1274.2 57.4503C1272.6 55.6959 1274.22 53.3333 1274.24 53.2982C1274.43 53.0292 1274.34 52.6783 1274.02 52.5146C1273.71 52.3509 1273.3 52.4444 1273.11 52.7134Z" fill="white"/>
<path d="M1269.58 60.8538H1270.97C1271.25 59.8947 1271.13 58.69 1270 57.4503C1268.4 55.6959 1270.02 53.3333 1270.05 53.2982C1270.23 53.0292 1270.14 52.6783 1269.82 52.5146C1269.51 52.3509 1269.1 52.4444 1268.91 52.7134C1268.83 52.8421 1266.78 55.7778 1268.96 58.152C1269.95 59.2398 1269.87 60.2105 1269.59 60.8538" fill="white"/>
<path d="M1264.7 52.7134C1264.61 52.8421 1262.57 55.7778 1264.75 58.152C1265.74 59.2398 1265.66 60.2105 1265.38 60.8538H1266.77C1267.05 59.8947 1266.93 58.69 1265.8 57.4503C1264.2 55.6959 1265.82 53.3333 1265.85 53.2982C1266.03 53.0292 1265.94 52.6783 1265.62 52.5146C1265.31 52.3509 1264.9 52.4444 1264.71 52.7134" fill="white"/>
<path d="M1257.63 46.269H1255.39V45.883C1255.39 45.2514 1255.61 45.0058 1255.97 44.6432L1256.84 43.7193C1257.54 42.9707 1257.71 42.4912 1257.71 41.6725V40.8888C1257.71 39.731 1257.15 39.1812 1255.93 39.1812C1254.71 39.1812 1254.13 39.8128 1254.13 40.9473V41.9298H1255.37V40.9122C1255.37 40.421 1255.6 40.2807 1255.89 40.2807C1256.16 40.2807 1256.39 40.3859 1256.39 40.8888V41.5555C1256.39 42.2222 1256.33 42.4912 1255.88 42.959L1255.12 43.766C1254.39 44.5497 1254.11 45.076 1254.11 45.883V47.3801H1257.65V46.269H1257.63Z" fill="white"/>
<path d="M1262.14 42.2924H1263.01V42.7603H1261.54V42.2924L1262.44 39.8363H1261.64V39.3684H1263.04V39.8363L1262.14 42.2924Z" fill="white"/>
<path d="M1263.34 39.3684H1264.7V39.8363H1263.91V40.807H1264.48V41.2632H1263.91V42.2924H1264.7V42.7603H1263.34V39.3684Z" fill="white"/>
<path d="M1265.58 41.2047V42.7602H1265.01V39.3801H1265.84C1266.41 39.3801 1266.62 39.6608 1266.62 40.1404V40.5731C1266.62 40.9357 1266.49 41.1579 1266.16 41.2281L1266.71 42.7602H1266.12L1265.58 41.2047ZM1265.58 39.8363V40.8889H1265.77C1265.96 40.8889 1266.05 40.7836 1266.05 40.6082V40.1053C1266.05 39.9181 1265.96 39.8246 1265.77 39.8246H1265.58V39.8363Z" fill="white"/>
<path d="M1266.92 41.883V40.2456C1266.92 39.7193 1267.18 39.3333 1267.78 39.3333C1268.37 39.3333 1268.64 39.7193 1268.64 40.2456V41.883C1268.64 42.4093 1268.39 42.7953 1267.78 42.7953C1267.17 42.7953 1266.92 42.4093 1266.92 41.883ZM1268.08 41.9766V40.152C1268.08 39.9532 1267.99 39.8011 1267.79 39.8011C1267.59 39.8011 1267.5 39.9415 1267.5 40.152V41.9766C1267.5 42.1754 1267.59 42.3275 1267.79 42.3275C1267.99 42.3275 1268.08 42.1871 1268.08 41.9766Z" fill="white"/>
<path d="M1262.7 46.0117H1262.16V47.4971H1261.59V44.117H1262.16V45.5439H1262.7V44.117H1263.29V47.4971H1262.7V46.0117Z" fill="white"/>
<path d="M1265.26 44.117V46.6784C1265.26 47.2047 1265.04 47.5439 1264.46 47.5439C1263.87 47.5439 1263.6 47.2047 1263.6 46.6784V44.117H1264.18V46.7369C1264.18 46.9357 1264.26 47.076 1264.46 47.076C1264.66 47.076 1264.74 46.9474 1264.74 46.7369V44.117H1265.26Z" fill="white"/>
<path d="M1266.06 45.3684V47.4971H1265.58V44.117H1266.14L1266.76 46.0585V44.117H1267.23V47.4971H1266.74L1266.06 45.3684Z" fill="white"/>
<path d="M1268.41 45.6959H1269.22V47.5087H1268.81V47.1345C1268.74 47.3918 1268.57 47.5438 1268.26 47.5438C1267.77 47.5438 1267.54 47.1579 1267.54 46.6316V44.9941C1267.54 44.4678 1267.8 44.0818 1268.4 44.0818C1268.99 44.0818 1269.22 44.4327 1269.22 44.9356V45.2397H1268.7V44.9006C1268.7 44.69 1268.62 44.5731 1268.42 44.5731C1268.22 44.5731 1268.13 44.7134 1268.13 44.924V46.7485C1268.13 46.9473 1268.21 47.0994 1268.41 47.0994C1268.6 47.0994 1268.69 46.9941 1268.69 46.7719V46.1754H1268.42V45.731L1268.41 45.6959Z" fill="white"/>
<path d="M1269.54 44.117H1270.91V44.5731H1270.12V45.5439H1270.68V46.0117H1270.12V47.0409H1270.91V47.4971H1269.54V44.117Z" fill="white"/>
<path d="M1271.78 45.9415V47.4971H1271.2V44.117H1272.03C1272.61 44.117 1272.82 44.3977 1272.82 44.8772V45.31C1272.82 45.6725 1272.69 45.8948 1272.36 45.9649L1272.91 47.4971H1272.32L1271.78 45.9415ZM1271.78 44.5731V45.6257H1271.96C1272.16 45.6257 1272.25 45.5322 1272.25 45.345V44.8421C1272.25 44.655 1272.16 44.5614 1271.96 44.5614H1271.78V44.5731Z" fill="white"/>
<path d="M1340 36H1300V76H1340V36Z" fill="#8F1838"/>
<path d="M1327.63 55.6725L1323.54 59.5555C1323.39 59.7076 1323.31 59.8245 1323.31 60.1403V71.0292C1323.31 71.1579 1323.41 71.2631 1323.54 71.2631H1327.77C1327.89 71.2631 1328 71.1579 1328 71.0292V55.766C1328 55.6374 1327.89 55.4035 1327.64 55.6725" fill="white"/>
<path d="M1315.86 60.7368L1311.78 64.6199C1311.63 64.7719 1311.54 64.8889 1311.54 65.2047V71.0292C1311.54 71.1579 1311.65 71.2632 1311.78 71.2632H1316C1316.13 71.2632 1316.23 71.1579 1316.23 71.0292V60.8304C1316.23 60.7018 1316.13 60.4678 1315.87 60.7368" fill="white"/>
<path d="M1329.47 50.9708C1329.47 50.9708 1329.47 50.9006 1329.44 50.8772C1329.42 50.8538 1329.39 50.8421 1329.37 50.8421H1329.35H1329.31L1326.19 51.5439H1326.13C1326.13 51.5439 1326.08 51.5672 1326.07 51.5789C1326.02 51.6257 1326.02 51.6959 1326.07 51.7427L1326.11 51.7778L1326.82 52.4912L1319.73 59.5789L1316.46 56.3041C1316.46 56.3041 1316.36 56.269 1316.33 56.3041L1315.44 57.193L1310.19 62.4444C1310.15 62.4795 1310.15 62.538 1310.19 62.5731L1311.08 63.462C1311.08 63.462 1311.17 63.4971 1311.2 63.462L1316.39 58.2807L1318.76 60.655L1319.65 61.5439C1319.65 61.5439 1319.74 61.5789 1319.78 61.5439L1327.82 53.4971L1328.57 54.2456C1328.57 54.2456 1328.69 54.2924 1328.74 54.2456C1328.76 54.2222 1328.77 54.1988 1328.77 54.1637L1329.46 50.9591V50.924L1329.47 50.9708Z" fill="white"/>
<path d="M1321.77 61.4269L1319.79 63.4152C1319.79 63.4152 1319.7 63.4503 1319.66 63.4152L1317.87 61.5906C1317.54 61.2631 1317.47 61.5321 1317.47 61.6608V71.0409C1317.47 71.1696 1317.58 71.2748 1317.71 71.2748H1321.93C1322.06 71.2748 1322.16 71.1696 1322.16 71.0409V61.497C1322.16 61.3684 1322.06 61.1345 1321.78 61.4269" fill="white"/>
<path d="M1307.71 45.3918V44.5029C1307.71 43.731 1307.43 43.1695 1306.8 42.8772C1307.33 42.6081 1307.58 42.1403 1307.58 41.4619V41.1228C1307.58 39.8596 1306.92 39.1812 1305.67 39.1812C1304.42 39.1812 1303.79 39.8596 1303.79 41.1228V41.4619C1303.79 42.1169 1304.02 42.6081 1304.55 42.8772C1303.92 43.1579 1303.65 43.731 1303.65 44.5029V45.3918C1303.65 46.6198 1304.23 47.4853 1305.67 47.4853C1307.11 47.4853 1307.71 46.6198 1307.71 45.3918ZM1305.08 41.0526C1305.08 40.5614 1305.24 40.2807 1305.68 40.2807C1306.13 40.2807 1306.3 40.5614 1306.3 41.0526V41.6023C1306.3 42.0935 1306.14 42.3742 1305.68 42.3742C1305.23 42.3742 1305.08 42.0818 1305.08 41.6023V41.0526ZM1306.35 45.5438C1306.35 46.035 1306.18 46.3859 1305.68 46.3859C1305.19 46.3859 1305.03 46.035 1305.03 45.5438V44.2339C1305.03 43.7426 1305.2 43.3918 1305.68 43.3918C1306.16 43.3918 1306.35 43.7426 1306.35 44.2339V45.5438Z" fill="white"/>
<path d="M1312.34 40.1988V41.7661C1312.34 42.2807 1312.13 42.6784 1311.51 42.6784H1310.63V39.2866H1311.51C1312.12 39.2866 1312.34 39.6725 1312.34 40.1988ZM1311.44 42.2105C1311.67 42.2105 1311.77 42.0702 1311.77 41.8597V40.0819C1311.77 39.8831 1311.67 39.7427 1311.44 39.7427H1311.19V42.1988H1311.44V42.2105Z" fill="white"/>
<path d="M1312.66 39.2866H1314.02V39.7427H1313.23V40.7135H1313.79V41.1813H1313.23V42.2105H1314.02V42.6667H1312.66V39.2866Z" fill="white"/>
<path d="M1314.27 41.8012V40.1638C1314.27 39.6375 1314.52 39.2515 1315.12 39.2515C1315.75 39.2515 1315.93 39.6024 1315.93 40.1053V40.503H1315.42V40.0585C1315.42 39.848 1315.35 39.731 1315.15 39.731C1314.95 39.731 1314.85 39.8714 1314.85 40.0819V41.8948C1314.85 42.1053 1314.94 42.2456 1315.15 42.2456C1315.36 42.2456 1315.42 42.117 1315.42 41.9182V41.2983H1315.93V41.8831C1315.93 42.3626 1315.73 42.7252 1315.12 42.7252C1314.52 42.7252 1314.27 42.3392 1314.27 41.8129" fill="white"/>
<path d="M1316.23 39.2866H1317.59V39.7427H1316.81V40.7135H1317.37V41.1813H1316.81V42.2105H1317.59V42.6667H1316.23V39.2866Z" fill="white"/>
<path d="M1318.37 40.538V42.6667H1317.89V39.2866H1318.46L1319.08 41.2281V39.2866H1319.54V42.6667H1319.05L1318.37 40.538Z" fill="white"/>
<path d="M1319.8 39.2866H1321.32V39.7427H1320.85V42.6667H1320.27V39.7427H1319.8V39.2866Z" fill="white"/>
<path d="M1323.67 40.5731L1323.34 42.6667H1322.82L1322.36 39.2866H1322.91L1323.17 41.4269H1323.18L1323.46 39.2866H1323.93L1324.25 41.4269L1324.5 39.2866H1324.98L1324.55 42.6667H1324.01L1323.67 40.5731Z" fill="white"/>
<path d="M1325.18 41.8012V40.1638C1325.18 39.6375 1325.44 39.2515 1326.04 39.2515C1326.63 39.2515 1326.9 39.6375 1326.9 40.1638V41.8012C1326.9 42.3275 1326.64 42.7135 1326.04 42.7135C1325.43 42.7135 1325.18 42.3275 1325.18 41.8012ZM1326.34 41.8831V40.0585C1326.34 39.8597 1326.25 39.7076 1326.05 39.7076C1325.85 39.7076 1325.75 39.848 1325.75 40.0585V41.8831C1325.75 42.0819 1325.85 42.234 1326.05 42.234C1326.25 42.234 1326.34 42.0936 1326.34 41.8831Z" fill="white"/>
<path d="M1327.8 41.1228V42.6784H1327.23V39.2982H1328.06C1328.63 39.2982 1328.84 39.579 1328.84 40.0585V40.4912C1328.84 40.8538 1328.71 41.076 1328.39 41.1462L1328.94 42.6784H1328.34L1327.8 41.1228ZM1327.8 39.7544V40.807H1327.99C1328.19 40.807 1328.27 40.7018 1328.27 40.5263V40.0234C1328.27 39.8363 1328.19 39.7427 1327.99 39.7427H1327.8V39.7544Z" fill="white"/>
<path d="M1329.72 41.0176V42.6667H1329.15V39.2866H1329.72V40.7719L1330.34 39.2866H1330.9L1330.25 40.807L1330.91 42.6667H1330.32L1329.72 41.0176Z" fill="white"/>
<path d="M1331.89 42.6667L1332.54 39.2866H1333.19L1333.84 42.6667H1333.25L1333.15 42.0468H1332.54L1332.44 42.6667H1331.91H1331.89ZM1332.61 41.6023H1333.06L1332.84 40.2456L1332.62 41.6023H1332.61Z" fill="white"/>
<path d="M1334.54 40.538V42.6667H1334.06V39.2866H1334.62L1335.24 41.2281V39.2866H1335.71V42.6667H1335.22L1334.54 40.538Z" fill="white"/>
<path d="M1337.74 40.1988V41.7661C1337.74 42.2807 1337.53 42.6784 1336.91 42.6784H1336.03V39.2866H1336.91C1337.52 39.2866 1337.74 39.6725 1337.74 40.1988ZM1336.84 42.2105C1337.08 42.2105 1337.17 42.0702 1337.17 41.8597V40.0819C1337.17 39.8831 1337.08 39.7427 1336.84 39.7427H1336.6V42.1988H1336.84V42.2105Z" fill="white"/>
<path d="M1310.63 44.0234H1311.99V44.4912H1311.2V45.462H1311.77V45.9181H1311.2V46.9474H1311.99V47.4152H1310.63V44.0234Z" fill="white"/>
<path d="M1312.25 46.538V44.9006C1312.25 44.3743 1312.49 43.9883 1313.1 43.9883C1313.73 43.9883 1313.91 44.3392 1313.91 44.8421V45.2398H1313.39V44.7953C1313.39 44.5848 1313.32 44.4678 1313.12 44.4678C1312.92 44.4678 1312.83 44.6082 1312.83 44.8187V46.6316C1312.83 46.8421 1312.91 46.9825 1313.12 46.9825C1313.33 46.9825 1313.39 46.8538 1313.39 46.655V46.0351H1313.91V46.6199C1313.91 47.0994 1313.71 47.462 1313.1 47.462C1312.49 47.462 1312.25 47.076 1312.25 46.5497" fill="white"/>
<path d="M1314.21 46.538V44.9006C1314.21 44.3743 1314.47 43.9883 1315.06 43.9883C1315.66 43.9883 1315.93 44.3743 1315.93 44.9006V46.538C1315.93 47.0643 1315.67 47.4503 1315.06 47.4503C1314.46 47.4503 1314.21 47.0643 1314.21 46.538ZM1315.36 46.6316V44.807C1315.36 44.6082 1315.26 44.4561 1315.06 44.4561C1314.87 44.4561 1314.77 44.5965 1314.77 44.807V46.6316C1314.77 46.8304 1314.87 46.9825 1315.06 46.9825C1315.26 46.9825 1315.36 46.8421 1315.36 46.6316Z" fill="white"/>
<path d="M1316.74 45.2865V47.4152H1316.26V44.0234H1316.82L1317.43 45.9766V44.0234H1317.91V47.4152H1317.4L1316.74 45.2865Z" fill="white"/>
<path d="M1318.22 46.538V44.9006C1318.22 44.3743 1318.48 43.9883 1319.08 43.9883C1319.67 43.9883 1319.94 44.3743 1319.94 44.9006V46.538C1319.94 47.0643 1319.68 47.4503 1319.08 47.4503C1318.47 47.4503 1318.22 47.0643 1318.22 46.538ZM1319.38 46.6316V44.807C1319.38 44.6082 1319.29 44.4561 1319.09 44.4561C1318.89 44.4561 1318.8 44.5965 1318.8 44.807V46.6316C1318.8 46.8304 1318.89 46.9825 1319.09 46.9825C1319.29 46.9825 1319.38 46.8421 1319.38 46.6316Z" fill="white"/>
<path d="M1321.85 45.2164H1321.83L1321.44 47.4152H1321.18L1320.75 45.2164V47.4152H1320.27V44.0234H1320.94L1321.31 45.9415L1321.64 44.0234H1322.36V47.4152H1321.85V45.2164Z" fill="white"/>
<path d="M1323.26 44.0234H1322.69V47.4152H1323.26V44.0234Z" fill="white"/>
<path d="M1323.59 46.538V44.9006C1323.59 44.3743 1323.84 43.9883 1324.44 43.9883C1325.08 43.9883 1325.25 44.3392 1325.25 44.8421V45.2398H1324.74V44.7953C1324.74 44.5848 1324.67 44.4678 1324.47 44.4678C1324.27 44.4678 1324.18 44.6082 1324.18 44.8187V46.6316C1324.18 46.8421 1324.26 46.9825 1324.47 46.9825C1324.68 46.9825 1324.74 46.8538 1324.74 46.655V46.0351H1325.25V46.6199C1325.25 47.0994 1325.05 47.462 1324.44 47.462C1323.84 47.462 1323.59 47.076 1323.59 46.5497" fill="white"/>
<path d="M1327.26 45.6023H1328.07V47.4152H1327.66V47.0409C1327.59 47.2983 1327.43 47.4503 1327.11 47.4503C1326.62 47.4503 1326.4 47.0643 1326.4 46.538V44.9006C1326.4 44.3743 1326.66 43.9883 1327.25 43.9883C1327.85 43.9883 1328.07 44.3392 1328.07 44.8421V45.1345H1327.56V44.7953C1327.56 44.5848 1327.47 44.4678 1327.28 44.4678C1327.08 44.4678 1326.98 44.6082 1326.98 44.8187V46.6433C1326.98 46.8538 1327.07 46.9942 1327.26 46.9942C1327.45 46.9942 1327.54 46.8889 1327.54 46.6667V46.0702H1327.28V45.6257L1327.26 45.6023Z" fill="white"/>
<path d="M1328.97 45.8597V47.4152H1328.4V44.0351H1329.23C1329.8 44.0351 1330.01 44.3158 1330.01 44.7953V45.2281C1330.01 45.5907 1329.88 45.8129 1329.56 45.883L1330.11 47.4152H1329.51L1328.97 45.8597ZM1328.97 44.4912V45.5439H1329.16C1329.36 45.5439 1329.44 45.4503 1329.44 45.2632V44.7602C1329.44 44.5731 1329.36 44.4795 1329.16 44.4795H1328.97V44.4912Z" fill="white"/>
<path d="M1330.32 46.538V44.9006C1330.32 44.3743 1330.57 43.9883 1331.17 43.9883C1331.77 43.9883 1332.03 44.3743 1332.03 44.9006V46.538C1332.03 47.0643 1331.78 47.4503 1331.17 47.4503C1330.56 47.4503 1330.32 47.0643 1330.32 46.538ZM1331.47 46.6316V44.807C1331.47 44.6082 1331.38 44.4561 1331.18 44.4561C1330.98 44.4561 1330.89 44.5965 1330.89 44.807V46.6316C1330.89 46.8304 1330.98 46.9825 1331.18 46.9825C1331.38 46.9825 1331.47 46.8421 1331.47 46.6316Z" fill="white"/>
<path d="M1333.54 45.3216L1333.23 47.4152H1332.69L1332.23 44.0234H1332.78L1333.05 46.1754L1333.34 44.0234H1333.8L1334.12 46.1754H1334.13L1334.39 44.0234H1334.86L1334.42 47.4152H1333.88L1333.56 45.3216H1333.54Z" fill="white"/>
<path d="M1335.04 44.0234H1336.56V44.4912H1336.09V47.4152H1335.52V44.4912H1335.04V44.0234Z" fill="white"/>
<path d="M1337.94 45.9181H1337.39V47.4152H1336.82V44.0234H1337.39V45.462H1337.94V44.0234H1338.52V47.4152H1337.94V45.9181Z" fill="white"/>
<rect x="731" y="111" width="606" height="258" rx="5" fill="#006D5A"/>
<rect x="731" y="111" width="606" height="258" rx="5" stroke="#4DD75A" stroke-width="6" stroke-linejoin="round"/>
<rect x="731" y="111" width="606" height="258" rx="5" stroke="#0B352E" stroke-width="6" stroke-linejoin="round" stroke-dasharray="12 12"/>
<text fill="#FFFFF1" xml:space="preserve" style="white-space: pre" font-family="VNM Sans Display" font-size="96" font-weight="bold" letter-spacing="0em"><tspan x="803.094" y="223.2" data-counter data-delay="600" data-from="0" data-to="47" data-ori="47">47</tspan></text>
<text fill="#FFFFF1" xml:space="preserve" style="white-space: pre" font-family="VNM Sans Display" font-size="24" font-weight="bold" letter-spacing="0em"><tspan x="814" y="249.28">YEARS</tspan></text>
<text fill="#FFFFF1" xml:space="preserve" style="white-space: pre" font-family="VNM Sans Std" font-size="14" letter-spacing="0em"><tspan x="793.583" y="271.844">as an expert in </tspan><tspan x="790.042" y="287.844">Milk Production </tspan><tspan x="801.253" y="303.844">Technology</tspan></text>
<text fill="#FFFFF1" xml:space="preserve" style="white-space: pre" font-family="VNM Sans Display" font-size="96" font-weight="bold" letter-spacing="0em"><tspan x="963.375" y="223.2" data-counter data-delay="600" data-from="0" data-to="33" data-ori="33">33</tspan></text>
<text fill="#FFFFF1" xml:space="preserve" style="white-space: pre" font-family="VNM Sans Display" font-size="24" font-weight="bold" letter-spacing="0em"><tspan x="974" y="249.28">YEARS</tspan></text>
<text fill="#FFFFF1" xml:space="preserve" style="white-space: pre" font-family="VNM Sans Std" font-size="14" letter-spacing="0em"><tspan x="954.725" y="271.844">as a pioneer in </tspan><tspan x="952.065" y="287.844">Dairy Farming - </tspan><tspan x="945.182" y="303.844">White Revolution</tspan></text>
<text fill="#FFFFF1" xml:space="preserve" style="white-space: pre" font-family="VNM Sans Std" font-size="14" letter-spacing="0em"><tspan x="1148.3" y="274.844">across Vietnam</tspan></text>
<text fill="#FFFFF1" xml:space="preserve" style="white-space: pre" font-family="VNM Sans Display" font-size="96" font-weight="bold" letter-spacing="0em"><tspan x="1098.41" y="223.2" data-counter data-delay="600" data-from="0" data-to="14" data-ori="14">14</tspan></text>
<text fill="#FFFFF1" xml:space="preserve" style="white-space: pre" font-family="VNM Sans Display" font-size="24" font-weight="bold" letter-spacing="0em"><tspan x="1105" y="249.28">FARMS</tspan></text>
<text fill="#FFFFF1" xml:space="preserve" style="white-space: pre" font-family="VNM Sans Display" font-size="96" font-weight="bold" letter-spacing="0em"><tspan x="1224.41" y="223.2" data-counter data-delay="600" data-from="0" data-to="14" data-ori="14">14</tspan></text>
<text fill="#FFFFF1" xml:space="preserve" style="white-space: pre" font-family="VNM Sans Display" font-size="24" font-weight="bold" letter-spacing="0em"><tspan x="1218" y="249.28">FACTORIES</tspan></text>
<text fill="#006D5A" xml:space="preserve" style="white-space: pre" font-family="VNM Sans Display" font-size="80" font-weight="bold" letter-spacing="0em"><tspan x="226.539" y="144.6">LOCAL &#x2028;</tspan><tspan x="183.414" y="228.6"> ECONOMY</tspan></text>
<rect x="100" y="253" width="403" height="220" rx="8" fill="#FFFFF1"/>
<text fill="#006D5A" xml:space="preserve" style="white-space: pre" font-family="VNM Sans Std" font-size="16" letter-spacing="0em"><tspan x="128" y="296.536">Throughout </tspan><tspan x="220.677" y="296.536">47 </tspan><tspan x="247.885" y="296.536">years </tspan><tspan x="294.609" y="296.536">of </tspan><tspan x="321.099" y="296.536">growth, </tspan><tspan x="385.526" y="296.536">Vinamilk </tspan><tspan x="451.75" y="296.536">has </tspan><tspan x="128" y="314.536">forged </tspan><tspan x="178.475" y="314.536">enduring </tspan><tspan x="241.809" y="314.536">partnerships </tspan><tspan x="331.269" y="314.536">with </tspan><tspan x="364.791" y="314.536">local </tspan><tspan x="398.031" y="314.536">economies. </tspan><tspan x="128" y="332.536">Across </tspan><tspan x="188.542" y="332.536">our </tspan><tspan x="226.896" y="332.536">value </tspan><tspan x="277.094" y="332.536">chain, </tspan><tspan x="330.682" y="332.536">Vinamilk </tspan><tspan x="401.536" y="332.536">has </tspan><tspan x="440.094" y="332.536">been </tspan><tspan x="128" y="350.536">instrumental </tspan><tspan x="232.273" y="350.536">in </tspan><tspan x="262.078" y="350.536">driving </tspan><tspan x="327.164" y="350.536">economic </tspan><tspan x="411.703" y="350.536">progress, </tspan><tspan x="128" y="368.536">generating </tspan><tspan x="209.438" y="368.536">employment </tspan><tspan x="303.578" y="368.536">opportunities, </tspan><tspan x="408.547" y="368.536">fortifying </tspan><tspan x="128" y="386.536">food </tspan><tspan x="186.245" y="386.536">security, </tspan><tspan x="266.615" y="386.536">championing </tspan><tspan x="377.688" y="386.536">environmental </tspan><tspan x="128" y="404.536">stewardship </tspan><tspan x="222.222" y="404.536">and </tspan><tspan x="258.803" y="404.536">climate </tspan><tspan x="318.322" y="404.536">action, </tspan><tspan x="374.981" y="404.536">and </tspan><tspan x="411.562" y="404.536">fostering </tspan><tspan x="128" y="422.536">sustainable, </tspan><tspan x="212.895" y="422.536">equitable </tspan><tspan x="282.758" y="422.536">development, </tspan><tspan x="382.418" y="422.536">particularly </tspan><tspan x="463.547" y="422.536">in </tspan><tspan x="128" y="440.536">regions </tspan><tspan x="180.891" y="440.536">where </tspan><tspan x="226.328" y="440.536">Vinamilk </tspan><tspan x="284.531" y="440.536">operates.</tspan></text>
</g>
<defs>
<clipPath id="clip0_316_16988">
<rect width="1440" height="774" fill="white"/>
</clipPath>
</defs>
</svg>
