<svg width="1440" height="774" viewBox="0 0 1440 774" fill="none" xmlns="http://www.w3.org/2000/svg">
<g clip-path="url(#clip0_316_18934)">
<path d="M1190 60.9901H1150V100.99H1190V60.9901Z" fill="#00ADD8"/>
<path d="M1177.36 77.1652C1177.36 77.1652 1177.29 77.1081 1177.23 77.1081H1162.73C1162.68 77.1081 1162.64 77.1271 1162.6 77.1652C1162.57 77.2032 1162.55 77.2603 1162.56 77.2984L1164.99 92.0367C1165 92.1224 1165.08 92.1795 1165.16 92.1795H1168.14L1168.35 94.5772H1167.1L1170.03 97.5077L1172.96 94.5772H1171.7L1171.9 92.1795H1174.95C1175.03 92.1795 1175.1 92.1224 1175.12 92.0367L1177.4 77.2984C1177.4 77.2508 1177.4 77.2032 1177.36 77.1652ZM1171.76 88.973C1171.76 88.973 1171.1 89.6485 1170.03 89.5819C1168.95 89.658 1168.3 88.973 1168.3 88.973C1167.21 87.8883 1167.6 86.5372 1167.97 85.8426C1168.21 85.405 1169.88 82.8931 1170.02 82.6837V82.6647C1170.16 82.8835 1171.83 85.3859 1172.06 85.8236C1172.44 86.5182 1172.83 87.8693 1171.74 88.954M1176.37 80.267C1175.97 80.0957 1175.47 80.1528 1174.99 80.3526C1173.2 81.0853 1171.97 81.3422 1170.08 80.7522C1168.89 80.3812 1167.77 79.601 1166.45 80.0767C1165.58 80.3907 1164.76 80.6952 1163.77 80.6856L1163.2 77.7551H1176.76L1176.36 80.2765L1176.37 80.267Z" fill="white"/>
<path d="M1156.06 72.522C1157.5 72.522 1158.06 71.7323 1158.06 70.4858V69.2965C1158.06 67.9739 1157.54 67.3079 1156.56 67.3079C1155.99 67.3079 1155.64 67.5648 1155.44 67.9644H1155.43V66.2327C1155.43 65.7475 1155.59 65.3954 1156.08 65.3954C1156.58 65.3954 1156.71 65.6809 1156.71 66.1852V66.718H1157.95V66.2898C1157.95 65.1005 1157.56 64.2727 1156.05 64.2727C1154.55 64.2727 1154.09 65.1861 1154.09 66.4516V70.3717C1154.09 71.6181 1154.64 72.522 1156.07 72.522M1155.43 69.1347C1155.46 68.6875 1155.65 68.3926 1156.08 68.3926C1156.55 68.3926 1156.72 68.678 1156.72 69.2013V70.6C1156.72 71.1138 1156.53 71.4088 1156.06 71.4088C1155.6 71.4088 1155.43 71.1043 1155.43 70.6V69.1252V69.1347Z" fill="white"/>
<path d="M1161.61 66.9464V65.3194C1161.61 64.796 1161.85 64.4059 1162.45 64.4059C1163.08 64.4059 1163.25 64.758 1163.25 65.2528V65.6524H1162.74V65.2052C1162.74 64.9959 1162.67 64.8722 1162.46 64.8722C1162.25 64.8722 1162.18 65.0149 1162.18 65.2242V67.032C1162.18 67.2318 1162.26 67.3745 1162.46 67.3745C1162.66 67.3745 1162.74 67.2509 1162.74 67.051V66.4326H1163.25V67.013C1163.25 67.4982 1163.05 67.8503 1162.45 67.8503C1161.85 67.8503 1161.61 67.4602 1161.61 66.9369" fill="white"/>
<path d="M1163.57 64.444H1164.13V67.3555H1164.81V67.8122H1163.57V64.444Z" fill="white"/>
<path d="M1165.06 64.444H1166.41V64.9102H1165.63V65.8712H1166.19V66.3279H1165.63V67.3555H1166.41V67.8122H1165.06V64.444Z" fill="white"/>
<path d="M1166.63 67.8122L1167.27 64.444H1167.92L1168.55 67.8122H1167.97L1167.87 67.1937H1167.27L1167.17 67.8122H1166.63ZM1167.35 66.7465H1167.8L1167.57 65.3954L1167.35 66.7465Z" fill="white"/>
<path d="M1169.27 65.6999V67.8122H1168.79V64.444H1169.34L1169.95 66.3755V64.444H1170.43V67.8122H1169.93L1169.27 65.6999Z" fill="white"/>
<path d="M1172.49 65.7285L1172.18 67.8122H1171.65L1171.19 64.444H1171.74L1172.01 66.5848L1172.29 64.444H1172.75L1173.06 66.5848H1173.07L1173.33 64.444H1173.81L1173.37 67.8122H1172.84L1172.5 65.7285H1172.49Z" fill="white"/>
<path d="M1173.76 67.8122L1174.4 64.444H1175.04L1175.68 67.8122H1175.1L1175 67.1937H1174.4L1174.3 67.8122H1173.77H1173.76ZM1174.47 66.7465H1174.93L1174.7 65.3954L1174.47 66.7465Z" fill="white"/>
<path d="M1175.6 64.444H1177.11V64.9102H1176.64V67.8122H1176.07V64.9102H1175.6V64.444Z" fill="white"/>
<path d="M1177.37 64.444H1178.72V64.9102H1177.94V65.8712H1178.51V66.3279H1177.94V67.3555H1178.72V67.8122H1177.37V64.444Z" fill="white"/>
<path d="M1179.6 66.2708V67.8122H1179.04V64.444H1179.87C1180.44 64.444 1180.65 64.7294 1180.65 65.1956V65.6238C1180.65 65.9854 1180.51 66.2042 1180.19 66.2708L1180.73 67.8027H1180.13L1179.6 66.2613V66.2708ZM1179.6 64.9102V65.9568H1179.79C1179.98 65.9568 1180.07 65.8617 1180.07 65.6809V65.1861C1180.07 65.0053 1179.98 64.9102 1179.79 64.9102H1179.6Z" fill="white"/>
<path d="M1161.52 72.5315L1162.16 69.1633H1162.81L1163.44 72.5315H1162.86L1162.76 71.9131H1162.16L1162.06 72.5315H1161.53H1161.52ZM1162.24 71.4659H1162.69L1162.47 70.1148L1162.25 71.4659H1162.24Z" fill="white"/>
<path d="M1164.16 70.4192V72.5315H1163.68V69.1633H1164.24L1164.84 71.0948V69.1633H1165.32V72.5315H1164.83L1164.16 70.4192Z" fill="white"/>
<path d="M1167.34 70.0672V71.6276C1167.34 72.1414 1167.12 72.5315 1166.52 72.5315H1165.64V69.1633H1166.52C1167.13 69.1633 1167.34 69.5439 1167.34 70.0672ZM1166.45 72.0748C1166.69 72.0748 1166.77 71.9321 1166.77 71.7323V69.9721C1166.77 69.7722 1166.69 69.6295 1166.45 69.6295H1166.21V72.0748H1166.45Z" fill="white"/>
<path d="M1168.15 71.8084V71.3517H1168.68V71.8179C1168.68 72.0082 1168.76 72.1128 1168.95 72.1128C1169.13 72.1128 1169.21 71.9987 1169.21 71.8179V71.6847C1169.21 71.4944 1169.13 71.3707 1168.95 71.2089L1168.62 70.8759C1168.3 70.5619 1168.14 70.3621 1168.14 69.972V69.8578C1168.14 69.4392 1168.39 69.1157 1168.94 69.1157C1169.5 69.1157 1169.73 69.3916 1169.73 69.8864V70.1623H1169.22V69.8674C1169.22 69.6675 1169.13 69.5819 1168.95 69.5819C1168.79 69.5819 1168.69 69.6675 1168.69 69.8578V69.9244C1168.69 70.1147 1168.79 70.2194 1168.95 70.3812L1169.31 70.7427C1169.62 71.0567 1169.77 71.247 1169.77 71.6181V71.7798C1169.77 72.2365 1169.52 72.5695 1168.94 72.5695C1168.36 72.5695 1168.14 72.246 1168.14 71.8084" fill="white"/>
<path d="M1169.93 72.5315L1170.57 69.1633H1171.22L1171.86 72.5315H1171.28L1171.17 71.9131H1170.57L1170.47 72.5315H1169.93ZM1170.65 71.4659H1171.1L1170.88 70.1148L1170.65 71.4659Z" fill="white"/>
<path d="M1172.57 70.4192V72.5315H1172.09V69.1633H1172.65L1173.26 71.0948V69.1633H1173.73V72.5315H1173.24L1172.57 70.4192Z" fill="white"/>
<path d="M1174.61 69.1633H1174.05V72.5315H1174.61V69.1633Z" fill="white"/>
<path d="M1174.88 69.1633H1176.39V69.6295H1175.93V72.5315H1175.35V69.6295H1174.88V69.1633Z" fill="white"/>
<path d="M1176.32 72.5315L1176.96 69.1633H1177.6L1178.24 72.5315H1177.66L1177.56 71.9131H1176.96L1176.85 72.5315H1176.32ZM1177.02 71.4659H1177.48L1177.25 70.1148L1177.02 71.4659Z" fill="white"/>
<path d="M1178.16 69.1633H1179.67V69.6295H1179.2V72.5315H1178.63V69.6295H1178.16V69.1633Z" fill="white"/>
<path d="M1180.49 69.1633H1179.93V72.5315H1180.49V69.1633Z" fill="white"/>
<path d="M1180.83 71.6657V70.0386C1180.83 69.5153 1181.09 69.1252 1181.68 69.1252C1182.28 69.1252 1182.54 69.5058 1182.54 70.0386V71.6657C1182.54 72.189 1182.28 72.5791 1181.68 72.5791C1181.09 72.5791 1180.83 72.189 1180.83 71.6657ZM1181.97 71.7513V69.9435C1181.97 69.7342 1181.88 69.5914 1181.67 69.5914C1181.47 69.5914 1181.39 69.7342 1181.39 69.9435V71.7513C1181.39 71.9606 1181.48 72.0938 1181.67 72.0938C1181.87 72.0938 1181.97 71.9511 1181.97 71.7513Z" fill="white"/>
<path d="M1183.34 70.4192V72.5315H1182.86V69.1633H1183.42L1184.02 71.0948V69.1633H1184.5V72.5315H1184.01L1183.34 70.4192Z" fill="white"/>
<path d="M1200.06 60.9901L1200 100.937L1239.94 100.99L1240 61.0432L1200.06 60.9901Z" fill="#48773C"/>
<path d="M1235.04 86.0865C1233.98 84.6024 1229.19 78.666 1220.3 78.6565C1211.4 78.647 1206.6 84.5644 1205.54 86.0485C1205.49 86.1151 1205.45 86.1626 1205.42 86.2102C1205.45 86.2578 1205.49 86.3148 1205.54 86.3814C1206.59 87.8655 1211.38 93.8019 1220.27 93.8114C1229.18 93.8209 1233.97 87.9036 1235.03 86.4195C1235.07 86.3529 1235.11 86.3053 1235.14 86.2482C1235.11 86.2007 1235.07 86.1436 1235.03 86.0865M1215.32 82.3953C1215.4 82.2811 1215.67 81.9386 1215.71 81.9006C1215.77 81.815 1215.91 81.7959 1216.01 81.7769C1216.1 81.7579 1216.23 81.815 1216.25 81.8816C1216.27 81.9482 1216.21 82.2241 1216.16 82.2716C1216.03 82.4048 1215.69 82.5951 1215.51 82.5665C1215.36 82.5475 1215.31 82.4333 1215.33 82.3858M1215.01 83.0232C1215.01 83.0232 1215.04 82.9946 1215.04 82.9851C1215.15 82.8615 1215.37 82.8329 1215.52 82.8044C1215.68 82.7758 1215.89 82.8519 1215.9 82.9566C1215.93 83.0612 1215.51 83.242 1215.44 83.3181C1215.23 83.5179 1214.89 83.9174 1214.7 83.9555C1214.63 83.965 1214.58 83.9555 1214.54 83.9365C1214.67 83.613 1214.82 83.3086 1215 83.0137M1218.33 89.8634C1218.21 90.339 1218.06 90.5103 1217.95 90.653C1217.83 90.8052 1217.39 90.9955 1217.1 90.9764C1216.82 90.9574 1216.78 90.2058 1216.78 89.8158C1216.78 89.6826 1216.59 90.0822 1216.49 89.2735C1216.43 88.7598 1216.1 89.3306 1216.08 88.9786C1216.06 88.6361 1215.89 88.7027 1215.71 88.4934C1215.54 88.2746 1215.32 88.5124 1215.09 88.6171C1214.85 88.7217 1214.94 88.7788 1214.6 88.6742C1214.59 88.6742 1214.59 88.6742 1214.58 88.6742C1214.27 87.9321 1214.1 87.114 1214.1 86.2578C1214.1 86.0485 1214.11 85.8392 1214.13 85.6394C1214.14 85.6204 1214.15 85.6013 1214.16 85.5823C1214.5 85.1922 1214.49 85.1066 1214.49 85.1066L1214.85 84.9829C1214.85 84.9829 1215.43 85.0781 1215.87 85.2398C1216.23 85.373 1216.79 85.6774 1217.12 85.5442C1217.36 85.4491 1217.54 85.3159 1217.52 85.1161C1217.49 84.8688 1217.3 84.8117 1217.07 84.9734C1216.98 85.0305 1216.79 84.6024 1216.65 84.6214C1216.5 84.6405 1216.83 85.1352 1216.7 85.1542C1216.58 85.1732 1216.33 84.6405 1216.29 84.5548C1216.25 84.4692 1216.05 84.2599 1215.88 84.4217C1215.51 84.7641 1214.92 84.7451 1214.79 84.8402C1214.43 85.1066 1214.34 84.7546 1214.34 84.5263C1214.35 84.4787 1214.37 84.4217 1214.39 84.3741C1214.51 84.2409 1214.93 84.2028 1215.09 84.298C1215.25 84.4026 1215.36 84.2694 1215.42 84.2028C1215.49 84.1363 1215.46 84.0411 1215.42 83.9555C1215.38 83.8699 1215.5 83.8033 1215.58 83.7843C1215.67 83.7652 1215.94 83.5654 1216.06 83.5084C1216.17 83.4418 1216.74 83.3752 1217 83.5084C1217.26 83.6416 1217.49 83.5369 1217.62 83.3847C1217.78 83.1944 1217.98 83.0517 1218.06 83.0137C1218.16 82.9661 1217.85 82.6807 1217.59 82.9946C1217.33 83.3086 1217.2 83.3371 1217.08 83.3371C1216.97 83.3371 1216.25 83.1564 1216.16 82.928C1216.08 82.6997 1216.39 82.5285 1216.65 82.4048C1216.91 82.2811 1217.64 82.2811 1217.82 82.2431C1218.19 82.1575 1218.67 81.9767 1218.91 82.1384C1219.15 82.3002 1217.9 82.5856 1218.31 82.8044C1218.45 82.8805 1219.12 82.4238 1219.35 82.3097C1219.88 82.0338 1218.83 81.9386 1218.97 81.3869C1219.12 80.759 1217.68 80.9968 1216.96 81.0539C1217.92 80.4355 1219.07 80.0835 1220.3 80.0835C1223.23 80.0835 1225.67 82.1194 1226.32 84.8498C1226.32 84.983 1226.3 85.0781 1226.29 85.1352C1226.24 85.354 1225.81 85.5538 1225.57 85.1922C1225.5 85.1066 1225.24 84.8498 1225.25 85.2779C1225.25 85.706 1225.67 85.7535 1225.27 86.0104C1224.87 86.2673 1224.8 86.2102 1224.62 86.2673C1224.44 86.3339 1224.26 86.7715 1224.3 87.0093C1224.35 87.2472 1224.91 87.8941 1224.5 87.8655C1224.4 87.8655 1223.66 87.3518 1223.53 87.0283C1223.4 86.6859 1223.27 86.3529 1223.16 86.096C1223.06 85.8392 1222.8 85.7726 1222.58 85.9248C1222.36 86.077 1222.65 86.2292 1222.49 86.5527C1222.33 86.8761 1222.21 87.1615 1221.98 86.8952C1221.37 86.2007 1220.5 86.5432 1220.37 85.7726C1220.29 85.354 1219.93 85.392 1219.63 85.1542C1219.33 84.9164 1219.17 84.7927 1219.11 84.9639C1219.06 85.1161 1220.05 85.8962 1220.13 86.1055C1220.23 86.4005 1219.83 86.6668 1219.54 86.7429C1219.24 86.8095 1219.12 86.5717 1218.83 86.2768C1218.54 85.9723 1218.42 85.7631 1218.39 85.9914C1218.36 86.3339 1218.66 86.8381 1218.96 87.0188C1219.21 87.1806 1219.49 87.2472 1219.41 87.5135C1219.32 87.7704 1219.41 87.6277 1219.12 87.9036C1218.83 88.1795 1218.79 88.2746 1218.81 88.6551C1218.83 89.0452 1218.73 89.0642 1218.66 89.3877C1218.61 89.7111 1218.46 89.4352 1218.34 89.9014M1224.99 87.3994C1225.2 87.3803 1225.51 87.6753 1225.39 87.7799C1225.27 87.8941 1224.95 87.8465 1224.8 87.7228C1224.65 87.5992 1224.89 87.3994 1224.99 87.3899M1224.72 87.2091C1224.66 87.1806 1224.6 87.1235 1224.54 86.9713C1224.5 86.819 1224.62 86.7334 1224.74 86.7905C1224.87 86.8571 1225.04 87.0474 1225.04 87.1425C1225.04 87.2376 1224.79 87.2281 1224.72 87.2091ZM1221.98 87.1901C1221.86 87.2947 1221.55 87.2567 1221.39 87.133C1221.24 87.0093 1221.5 86.8095 1221.58 86.8C1221.79 86.781 1222.11 87.0759 1221.98 87.1806M1219.45 88.4268C1219.37 88.5695 1219.13 89.6065 1218.98 89.4828C1218.82 89.3591 1219.04 88.2746 1219.09 88.189C1219.34 87.7419 1219.87 87.7609 1219.46 88.4173M1220.29 92.47C1219.68 92.47 1219.1 92.3749 1218.55 92.2132C1218.47 92.1466 1218.43 92.0419 1218.47 91.9087C1218.66 91.4045 1219.23 91.2143 1219.69 91.1667C1220.7 91.0716 1222.01 91.8231 1222.23 91.6994C1222.44 91.5758 1222.87 91.024 1223.5 91.0525C1223.92 91.0716 1223.91 91.1382 1224.07 91.1952C1223.02 91.9849 1221.72 92.4605 1220.31 92.4605M1224.67 90.6625C1224.6 90.6435 1224.54 90.6244 1224.48 90.5864C1224.13 90.4151 1224.18 90.691 1224.01 90.6244C1223.85 90.5578 1224.2 90.1773 1223.7 90.5008C1223.2 90.8242 1223.33 90.4532 1223.12 89.9014C1222.9 89.3496 1223.36 88.7217 1223.76 88.579C1224.3 88.3888 1224.64 88.3507 1224.89 88.2841C1225.63 88.1034 1225.79 87.6562 1225.92 87.9226C1225.95 87.9702 1225.97 88.0177 1226 88.0653C1226.05 88.1509 1226.09 88.3127 1226.09 88.4744C1225.78 89.3021 1225.28 90.0441 1224.67 90.6625ZM1226.37 87.5421C1226.21 87.4945 1225.51 86.5336 1226.06 85.8962C1226.16 85.7916 1225.88 85.4872 1225.95 85.4776C1226.25 85.4586 1226.42 85.6394 1226.49 85.9058C1226.49 86.0199 1226.5 86.1436 1226.5 86.2673C1226.5 86.7049 1226.45 87.1235 1226.37 87.5326" fill="white"/>
<path d="M1205 64.2626L1204.99 72.3586H1203.62L1203.63 66.1558H1203.62L1202.67 67.1452H1202.65V65.7277L1203.91 64.2531L1205 64.2626Z" fill="white"/>
<path d="M1209.49 66.0226V66.7266C1209.49 67.4116 1209.12 67.8587 1208.56 68.0394C1209.25 68.2012 1209.56 68.6768 1209.56 69.4094V70.6081C1209.56 71.7307 1208.96 72.4537 1207.58 72.4537C1206.19 72.4537 1205.71 71.6641 1205.71 70.4368V69.3713H1206.95V70.532C1206.95 71.0076 1207.11 71.3216 1207.58 71.3216C1208 71.3216 1208.19 71.0267 1208.19 70.5986V69.2667C1208.19 68.8386 1208 68.6102 1207.52 68.6102H1206.95V67.5733H1207.47C1207.91 67.5733 1208.19 67.345 1208.2 66.9169V66.0416C1208.2 65.604 1208.05 65.3186 1207.62 65.3091C1207.19 65.3091 1207.04 65.5945 1207.03 66.0987V66.9264H1205.78V66.2129C1205.78 65.0142 1206.28 64.1865 1207.69 64.1865C1208.94 64.1865 1209.49 64.8905 1209.48 66.0416" fill="white"/>
<path d="M1212.32 66.7456V65.1093C1212.32 64.5766 1212.57 64.196 1213.17 64.196C1213.8 64.196 1213.97 64.548 1213.97 65.0427V65.4423H1213.45V64.9951C1213.45 64.7858 1213.38 64.6622 1213.17 64.6622C1212.96 64.6622 1212.89 64.8049 1212.88 65.0142V66.8312C1212.88 67.0405 1212.96 67.1832 1213.16 67.1832C1213.37 67.1832 1213.44 67.0501 1213.44 66.8503V66.2224H1213.96V66.8122C1213.96 67.2974 1213.76 67.6589 1213.16 67.6589C1212.56 67.6589 1212.31 67.2689 1212.31 66.7456" fill="white"/>
<path d="M1214.29 64.2341H1214.86L1214.85 67.1547L1215.53 67.1642V67.6209H1214.28L1214.29 64.2341Z" fill="white"/>
<path d="M1215.79 64.2423L1215.79 67.6291L1216.36 67.6301L1216.36 64.2433L1215.79 64.2423Z" fill="white"/>
<path d="M1218.26 65.4328H1218.24L1217.85 67.6304H1217.59L1217.17 65.4233H1217.16V67.6304H1216.68L1216.69 64.2341L1217.36 64.2436L1217.72 66.1463H1217.73L1218.06 64.2436H1218.78V67.6304H1218.25L1218.26 65.4328Z" fill="white"/>
<path d="M1219.01 67.6304L1219.65 64.2436H1220.3L1220.94 67.6304H1220.36L1220.25 67.012H1219.64L1219.54 67.6304H1219H1219.01ZM1219.73 66.5554H1220.19L1219.96 65.1949L1219.73 66.5554Z" fill="white"/>
<path d="M1220.87 64.2436H1222.38V64.7098H1221.91V67.6304H1221.33L1221.34 64.7098H1220.87V64.2436Z" fill="white"/>
<path d="M1222.65 64.2436L1224 64.2531V64.7098H1223.21V65.6801H1223.78L1223.77 66.1463L1223.21 66.1368V67.1737H1224V67.6399L1222.64 67.6304L1222.65 64.2436Z" fill="white"/>
<path d="M1212.22 72.3681L1212.87 68.9813H1213.52L1214.16 72.3681H1213.58L1213.47 71.7497H1212.86L1212.76 72.3681H1212.21H1212.22ZM1212.94 71.293H1213.39L1213.17 69.9326L1212.94 71.293Z" fill="white"/>
<path d="M1214.32 71.4928V69.8565C1214.32 69.3238 1214.57 68.9432 1215.17 68.9432C1215.8 68.9432 1215.97 69.2952 1215.97 69.7899V70.1895H1215.45V69.7424C1215.45 69.5331 1215.38 69.4094 1215.17 69.4094C1214.97 69.4094 1214.89 69.5521 1214.88 69.7614V71.5785C1214.88 71.7878 1214.96 71.9305 1215.16 71.9305C1215.37 71.9305 1215.44 71.7973 1215.44 71.5975V70.9696H1215.96V71.5499C1215.96 72.0351 1215.76 72.3966 1215.15 72.3966C1214.55 72.3966 1214.31 72.0066 1214.31 71.4833" fill="white"/>
<path d="M1216.17 68.9813H1217.68V69.4474H1217.21V72.3681H1216.63L1216.64 69.4474H1216.16L1216.17 68.9813Z" fill="white"/>
<path d="M1217.95 68.9883L1217.94 72.3751L1218.51 72.3761L1218.52 68.9893L1217.95 68.9883Z" fill="white"/>
<path d="M1218.84 71.5024V69.8661C1218.84 69.3333 1219.11 68.9528 1219.71 68.9528C1220.32 68.9528 1220.58 69.3428 1220.58 69.8661V71.5024C1220.58 72.0256 1220.31 72.4157 1219.71 72.4157C1219.11 72.4157 1218.85 72.0256 1218.85 71.5024M1219.99 71.588V69.7709C1219.99 69.5616 1219.91 69.4189 1219.7 69.4189C1219.5 69.4189 1219.41 69.5616 1219.41 69.7709V71.588C1219.41 71.7973 1219.49 71.94 1219.69 71.94C1219.89 71.94 1219.99 71.7973 1219.99 71.588" fill="white"/>
<path d="M1221.36 70.2466V72.3776H1220.89V68.9908H1221.45L1222.06 70.9315V68.9908H1222.53V72.3776H1222.03L1221.36 70.2466Z" fill="white"/>
<path d="M1290 60.9901H1250V100.99H1290V60.9901Z" fill="#007DBB"/>
<path d="M1280.76 90.2194C1280.26 89.5343 1276.99 85.3669 1272.41 85.3669C1268.43 85.3669 1264.18 88.973 1264.18 88.973C1264.18 88.973 1262.58 85.6999 1259.32 85.3859C1259.3 85.3859 1259.28 85.3859 1259.25 85.3859H1259.23C1259.16 85.3859 1259.1 85.4525 1259.11 85.5191C1259.11 85.5762 1259.15 85.6333 1259.15 85.6333C1259.57 86.3374 1260.65 88.326 1260.65 90.3145C1260.65 92.3031 1259.56 94.3107 1259.15 95.0053L1259.12 95.0529C1259.12 95.0529 1259.1 95.091 1259.1 95.1195C1259.1 95.1861 1259.15 95.2432 1259.22 95.2432H1259.26C1259.26 95.2432 1259.28 95.2432 1259.3 95.2432C1262.58 94.9387 1264.18 91.6561 1264.18 91.6561C1264.18 91.6561 1268.43 95.2622 1272.41 95.2622C1276.99 95.2622 1280.26 91.0948 1280.76 90.4192C1280.77 90.4002 1280.79 90.3812 1280.8 90.3716C1280.8 90.3526 1280.81 90.3431 1280.81 90.3241C1280.81 90.305 1280.81 90.286 1280.8 90.2765C1280.8 90.267 1280.78 90.2479 1280.76 90.2289M1274.96 90.8474C1274.22 90.8474 1273.63 90.2479 1273.63 89.5153C1273.63 88.7827 1274.23 88.1737 1274.96 88.1737C1275.69 88.1737 1276.3 88.7732 1276.3 89.5153C1276.3 90.2575 1275.7 90.8474 1274.96 90.8474Z" fill="white"/>
<path d="M1263.88 81.6371C1263.88 81.6371 1263.9 81.6086 1263.92 81.5991C1263.94 81.5896 1263.97 81.5705 1263.99 81.5705C1264.03 81.5705 1264.06 81.58 1264.07 81.6086C1266.57 83.9873 1269.19 82.0558 1269.74 81.6086L1269.79 81.561C1269.79 81.561 1269.82 81.561 1269.84 81.561C1269.86 81.561 1269.88 81.561 1269.9 81.561L1269.95 81.6086C1270.5 82.0558 1273.11 83.9873 1275.62 81.6086C1275.63 81.5896 1275.67 81.5705 1275.7 81.5705C1275.73 81.5705 1275.76 81.58 1275.78 81.5991C1275.8 81.6086 1275.81 81.6181 1275.82 81.6371C1276.3 82.1129 1278.39 83.9112 1280.6 81.9892C1280.63 81.9701 1280.64 81.9321 1280.64 81.894V80.9806C1280.64 80.9045 1280.58 80.8474 1280.51 80.8474C1280.5 80.8474 1280.49 80.8474 1280.48 80.8474C1280.46 80.8569 1280.44 80.8664 1280.41 80.876C1279.74 81.2185 1277.62 82.0272 1275.71 80.2194C1275.69 80.2004 1275.67 80.1814 1275.65 80.1623C1275.63 80.1528 1275.62 80.1528 1275.6 80.1528C1275.59 80.1528 1275.57 80.1528 1275.56 80.1623C1275.53 80.1623 1275.51 80.1909 1275.49 80.2099C1274.92 80.6476 1272.3 82.4173 1269.97 80.2385L1269.94 80.2004C1269.94 80.2004 1269.88 80.1623 1269.84 80.1623C1269.8 80.1623 1269.77 80.1719 1269.75 80.2004L1269.71 80.2385C1267.38 82.4173 1264.75 80.6381 1264.19 80.2099C1264.18 80.1909 1264.15 80.1719 1264.12 80.1623C1264.11 80.1623 1264.09 80.1528 1264.08 80.1528C1264.06 80.1528 1264.05 80.1528 1264.03 80.1623C1264.01 80.1814 1263.99 80.2004 1263.97 80.2194C1262.06 82.0272 1259.94 81.2185 1259.27 80.876C1259.24 80.8664 1259.22 80.8569 1259.2 80.8474C1259.19 80.8474 1259.18 80.8474 1259.17 80.8474C1259.1 80.8474 1259.04 80.9045 1259.04 80.9806V81.894C1259.04 81.894 1259.06 81.9606 1259.08 81.9892C1261.29 83.9112 1263.38 82.1129 1263.86 81.6371" fill="white"/>
<path d="M1259.21 77.5457C1259.21 77.5457 1259.19 77.5457 1259.18 77.5457C1259.12 77.5457 1259.05 77.6028 1259.05 77.6789V78.5924C1259.05 78.5924 1259.06 78.6685 1259.09 78.6875C1261.3 80.6095 1263.39 78.8112 1263.87 78.3355C1263.88 78.326 1263.89 78.3069 1263.91 78.2974C1263.93 78.2879 1263.96 78.2784 1263.99 78.2784C1264.03 78.2784 1264.06 78.2879 1264.07 78.3164C1266.57 80.6951 1269.19 78.7731 1269.74 78.3164L1269.79 78.2689C1269.79 78.2689 1269.82 78.2593 1269.84 78.2593C1269.86 78.2593 1269.88 78.2593 1269.9 78.2689L1269.95 78.3164C1270.5 78.7731 1273.11 80.6951 1275.62 78.3164C1275.64 78.2974 1275.67 78.2784 1275.7 78.2784C1275.73 78.2784 1275.76 78.2879 1275.78 78.2974C1275.8 78.3069 1275.81 78.326 1275.82 78.3355C1276.3 78.8112 1278.39 80.6095 1280.6 78.6875C1280.62 78.6685 1280.64 78.6304 1280.64 78.5924V77.6789C1280.64 77.6028 1280.58 77.5457 1280.51 77.5457C1280.5 77.5457 1280.49 77.5457 1280.48 77.5457C1280.46 77.5553 1280.44 77.5648 1280.41 77.5838C1279.74 77.9263 1277.62 78.7351 1275.71 76.9178C1275.69 76.8987 1275.67 76.8892 1275.65 76.8607C1275.63 76.8607 1275.62 76.8512 1275.6 76.8512C1275.59 76.8512 1275.57 76.8512 1275.56 76.8512C1275.53 76.8607 1275.51 76.8797 1275.49 76.8987C1274.92 77.3364 1272.3 79.1062 1269.97 76.9273L1269.94 76.8987C1269.94 76.8987 1269.88 76.8607 1269.84 76.8607C1269.8 76.8607 1269.77 76.8797 1269.75 76.8987L1269.71 76.9273C1267.38 79.1062 1264.76 77.3269 1264.19 76.8987C1264.18 76.8797 1264.15 76.8607 1264.12 76.8512C1264.11 76.8512 1264.09 76.8512 1264.08 76.8512C1264.07 76.8512 1264.05 76.8512 1264.03 76.8607C1264.01 76.8797 1263.99 76.8987 1263.97 76.9178C1262.06 78.7256 1259.95 77.9168 1259.27 77.5838C1259.25 77.5743 1259.22 77.5553 1259.2 77.5457" fill="white"/>
<path d="M1255.15 64.2822V72.3793H1253.79V66.1757H1253.77L1252.82 67.1747H1252.81V65.7475L1254.06 64.2822H1255.15Z" fill="white"/>
<path d="M1259.52 72.3793V71.0662H1260.07V70.0006H1259.52V64.2822H1258.17L1255.82 70.2385V71.0758H1258.22V72.3888H1259.52V72.3793ZM1257.01 70.0006L1258.23 66.6609H1258.24V70.0006H1257.01Z" fill="white"/>
<path d="M1263.04 64.2346H1263.61V67.1556H1264.28V67.6219H1263.04V64.2346Z" fill="white"/>
<path d="M1265.11 64.2346H1264.54V67.6219H1265.11V64.2346Z" fill="white"/>
<path d="M1265.45 64.2346H1266.78V64.7008H1266.02V65.6713H1266.59V66.1281H1266.02V67.6219H1265.45V64.2346Z" fill="white"/>
<path d="M1267.03 64.2346H1268.39V64.7008H1267.6V65.6713H1268.16V66.1281H1267.6V67.1556H1268.39V67.6219H1267.03V64.2346Z" fill="white"/>
<path d="M1263.04 68.9825H1263.86C1264.44 68.9825 1264.63 69.2489 1264.63 69.7247V70.0672C1264.63 70.3526 1264.52 70.5334 1264.28 70.6095C1264.57 70.6761 1264.71 70.8664 1264.71 71.1709V71.6181C1264.71 72.0938 1264.49 72.3602 1263.93 72.3602H1263.05V68.973L1263.04 68.9825ZM1263.61 70.4097H1263.81C1263.99 70.4097 1264.07 70.3146 1264.07 70.1338V69.7151C1264.07 69.5344 1263.99 69.4392 1263.8 69.4392H1263.6V70.4002L1263.61 70.4097ZM1263.61 70.8379V71.894H1263.86C1264.05 71.894 1264.13 71.7989 1264.13 71.6181V71.1043C1264.13 70.9235 1264.05 70.8284 1263.85 70.8284H1263.6L1263.61 70.8379Z" fill="white"/>
<path d="M1264.99 68.9825H1266.35V69.4487H1265.56V70.4097H1266.12V70.8759H1265.56V71.9035H1266.35V72.3698H1264.99V68.9825Z" fill="white"/>
<path d="M1266.65 68.9825H1267.22V71.9035H1267.9V72.3698H1266.65V68.9825Z" fill="white"/>
<path d="M1268.14 71.4944V69.8578C1268.14 69.325 1268.39 68.9444 1268.99 68.9444C1269.59 68.9444 1269.86 69.325 1269.86 69.8578V71.4944C1269.86 72.0177 1269.6 72.4078 1268.99 72.4078C1268.38 72.4078 1268.14 72.0177 1268.14 71.4944ZM1269.29 71.58V69.7627C1269.29 69.5534 1269.2 69.4107 1268.99 69.4107C1268.78 69.4107 1268.71 69.5534 1268.71 69.7627V71.58C1268.71 71.7893 1268.79 71.9321 1268.99 71.9321C1269.19 71.9321 1269.29 71.7893 1269.29 71.58Z" fill="white"/>
<path d="M1271.36 70.2765L1271.04 72.3698H1270.51L1270.05 68.9825H1270.6L1270.87 71.1233L1271.15 68.9825H1271.62L1271.93 71.1233H1271.94L1272.2 68.9825H1272.69L1272.24 72.3698H1271.71L1271.36 70.2765Z" fill="white"/>
<path d="M1275.01 70.2765L1274.69 72.3698H1274.16L1273.7 68.9825H1274.25L1274.51 71.1233H1274.52L1274.81 68.9825H1275.27L1275.59 71.1233L1275.85 68.9825H1276.33L1275.89 72.3698H1275.35L1275.02 70.2765H1275.01Z" fill="white"/>
<path d="M1276.28 72.3698L1276.92 68.9825H1277.57L1278.21 72.3698H1277.63L1277.53 71.7513H1276.92L1276.81 72.3698H1276.27H1276.28ZM1276.99 71.2946H1277.45L1277.22 69.934L1276.99 71.2946Z" fill="white"/>
<path d="M1278.14 68.9825H1279.65V69.4487H1279.18V72.3698H1278.6V69.4487H1278.14V68.9825Z" fill="white"/>
<path d="M1279.92 68.9825H1281.28V69.4487H1280.49V70.4097H1281.05V70.8759H1280.49V71.9035H1281.28V72.3698H1279.92V68.9825Z" fill="white"/>
<path d="M1282.15 70.8093V72.3602H1281.58V68.973H1282.41C1282.98 68.973 1283.2 69.2584 1283.2 69.7342V70.1718C1283.2 70.5334 1283.06 70.7522 1282.74 70.8284L1283.28 72.3698H1282.68L1282.15 70.8189V70.8093ZM1282.15 69.4392V70.4954H1282.34C1282.54 70.4954 1282.62 70.3907 1282.62 70.2194V69.7247C1282.62 69.5439 1282.53 69.4487 1282.34 69.4487H1282.15V69.4392Z" fill="white"/>
<path d="M1340 60.9901H1300V100.99H1340V60.9901Z" fill="#40AE49"/>
<path d="M1315.36 88.0691H1316.55C1316.6 88.0691 1316.63 88.1071 1316.63 88.1547V91.0757C1316.63 91.1233 1316.6 91.1614 1316.55 91.1614H1315.37C1315.32 91.1614 1315.28 91.1233 1315.28 91.0757V88.1452C1315.28 88.0976 1315.32 88.0596 1315.37 88.0596L1315.36 88.0691Z" fill="white"/>
<path d="M1329.56 92.4268H1310.04C1309.99 92.4268 1309.96 92.4649 1309.96 92.522V93.7113C1309.96 93.7589 1309.99 93.7969 1310.04 93.7969H1329.56C1329.6 93.7969 1329.64 93.7589 1329.64 93.7113V92.522C1329.64 92.4744 1329.6 92.4268 1329.56 92.4268Z" fill="white"/>
<path d="M1329.56 94.8055H1310.04C1309.99 94.8055 1309.96 94.8436 1309.96 94.8911V96.09C1309.96 96.1376 1309.99 96.1756 1310.04 96.1756H1329.56C1329.6 96.1756 1329.64 96.1376 1329.64 96.09V94.8911C1329.64 94.8436 1329.6 94.8055 1329.56 94.8055Z" fill="white"/>
<path d="M1325.84 84.8341C1325.6 84.6438 1324.95 84.1966 1324.16 84.1966C1323.59 84.1966 1323.06 84.4154 1322.59 84.8626C1322.56 84.8912 1322.54 84.9387 1322.54 84.9863V85.091C1322.54 85.1481 1322.56 85.1956 1322.6 85.2242C1322.64 85.2527 1322.68 85.2718 1322.74 85.2527C1322.75 85.2527 1322.77 85.2527 1322.78 85.2527C1322.82 85.2432 1322.85 85.2147 1322.87 85.1861C1322.98 85.1195 1323.25 85.0244 1323.65 85.0244C1324.05 85.0244 1324.88 85.1385 1325.66 85.8712L1325.68 85.8902C1325.68 85.8902 1325.79 85.9568 1325.85 85.9568C1325.92 85.9568 1325.98 85.9283 1326.01 85.8902L1326.03 85.8712C1326.82 85.1385 1327.63 85.0244 1328.05 85.0244C1328.47 85.0244 1328.74 85.1195 1328.83 85.1861C1328.86 85.2147 1328.9 85.2337 1328.93 85.2527C1328.95 85.2527 1329 85.2718 1329.05 85.2527C1329.13 85.2337 1329.17 85.1671 1329.17 85.091V84.9958C1329.17 84.9958 1329.15 84.9102 1329.13 84.8721C1328.65 84.4154 1328.12 84.1871 1327.54 84.1871C1326.75 84.1871 1326.1 84.6248 1325.85 84.8246" fill="white"/>
<path d="M1324.63 77.051C1324.63 77.051 1324.56 77.1081 1324.54 77.1557L1324.52 77.2223C1324.5 77.2699 1324.52 77.3269 1324.55 77.365C1324.58 77.4031 1324.63 77.4316 1324.67 77.4316H1324.69C1324.73 77.4316 1324.76 77.4316 1324.79 77.4031C1324.81 77.4031 1324.84 77.3935 1324.9 77.3935C1324.99 77.3935 1325.78 77.4221 1326.3 78.307C1326.33 78.3736 1326.38 78.4021 1326.42 78.4211C1326.43 78.4211 1326.46 78.4307 1326.48 78.4307C1326.52 78.4307 1326.56 78.4211 1326.58 78.4116H1326.59C1326.87 78.2594 1327.17 78.1928 1327.45 78.1928C1327.95 78.1928 1328.27 78.3926 1328.34 78.4782C1328.36 78.5068 1328.37 78.5353 1328.4 78.5543C1328.42 78.5639 1328.45 78.5829 1328.47 78.5829C1328.47 78.5829 1328.49 78.5829 1328.5 78.5829C1328.5 78.5829 1328.51 78.5829 1328.52 78.5829C1328.55 78.5829 1328.57 78.5829 1328.59 78.5639C1328.63 78.5448 1328.66 78.5068 1328.68 78.4592L1328.7 78.4021C1328.7 78.4021 1328.7 78.3736 1328.7 78.3545C1328.7 78.326 1328.7 78.2975 1328.68 78.2689C1328.3 77.6124 1327.75 77.4697 1327.36 77.4697C1327.06 77.4697 1326.8 77.5458 1326.65 77.6029C1326.47 77.365 1326.02 76.8702 1325.34 76.8702C1325.1 76.8702 1324.85 76.9273 1324.61 77.051" fill="white"/>
<path d="M1320.51 80.0576V80.1433C1320.51 80.2004 1320.54 80.2479 1320.59 80.2765C1320.63 80.305 1320.68 80.305 1320.72 80.2955C1320.72 80.2955 1320.74 80.2955 1320.75 80.2955C1320.79 80.2765 1320.82 80.2575 1320.84 80.2289C1320.92 80.1718 1321.19 80.0576 1321.58 80.0576C1321.97 80.0576 1322.53 80.1623 1323.12 80.638H1323.13C1323.17 80.6856 1323.23 80.7046 1323.28 80.7046H1323.29C1323.36 80.7046 1323.41 80.6761 1323.45 80.6285H1323.45C1324.1 79.9244 1324.81 79.8198 1325.17 79.8198C1325.42 79.8198 1325.61 79.8769 1325.67 79.9149C1325.7 79.934 1325.73 79.953 1325.78 79.972C1325.79 79.972 1325.81 79.972 1325.84 79.972C1325.85 79.972 1325.87 79.972 1325.88 79.9625C1325.95 79.934 1326 79.8673 1326 79.7912V79.7151C1326 79.7151 1325.97 79.6295 1325.93 79.6009C1325.54 79.2774 1325.12 79.1062 1324.68 79.1062C1324 79.1062 1323.45 79.5153 1323.22 79.7056C1323.01 79.5629 1322.5 79.2774 1321.91 79.2774C1321.39 79.2774 1320.92 79.4963 1320.52 79.9149C1320.5 79.9435 1320.48 79.991 1320.48 80.0386" fill="white"/>
<path d="M1310.63 81.6181C1310.63 80.4478 1311.58 79.5058 1312.74 79.5058C1312.79 79.5058 1312.83 79.5058 1312.87 79.5058C1312.99 78.031 1314.22 76.8607 1315.73 76.8607C1317.31 76.8607 1318.59 78.1452 1318.59 79.7247C1318.59 80.1719 1318.49 80.5905 1318.31 80.9711C1319.74 81.2851 1320.81 82.5601 1320.81 84.0919C1320.81 85.8617 1319.37 87.2889 1317.61 87.2889C1317.49 87.2889 1313.34 87.2603 1313.34 87.2603C1312.08 87.2603 1311.08 86.2518 1311.08 84.9958C1311.08 84.3964 1311.31 83.8541 1311.69 83.4449C1311.06 83.0834 1310.63 82.3983 1310.63 81.6086" fill="white"/>
<path d="M1302.85 65.7285V67.1557H1302.86L1303.82 66.1661H1303.83V72.3697H1305.19V64.2632H1304.1L1302.85 65.7285Z" fill="white"/>
<path d="M1308.43 66.8322C1307.89 66.8322 1307.5 67.0225 1307.28 67.3935H1307.27V65.3764H1309.61V64.2632H1306.03V68.8303H1307.27V68.6495C1307.27 68.1737 1307.49 67.9073 1307.87 67.9073C1308.29 67.9073 1308.46 68.1928 1308.46 68.64V70.6C1308.46 71.0282 1308.31 71.3326 1307.89 71.3326C1307.42 71.3326 1307.26 71.0187 1307.26 70.5429V69.5248H1306.02V70.4478C1306.02 71.6752 1306.5 72.4649 1307.89 72.4649C1309.28 72.4649 1309.82 71.7323 1309.82 70.6095V68.6209C1309.82 67.346 1309.16 66.8322 1308.43 66.8322Z" fill="white"/>
<path d="M1312.74 64.2346H1313.31V67.1556H1314V67.6219H1312.74V64.2346Z" fill="white"/>
<path d="M1314.83 64.2346H1314.26V67.6219H1314.83V64.2346Z" fill="white"/>
<path d="M1315.15 64.2346H1316.48V64.7008H1315.72V65.6713H1316.29V66.1281H1315.72V67.6219H1315.15V64.2346Z" fill="white"/>
<path d="M1316.74 64.2346H1318.09V64.7008H1317.31V65.6713H1317.87V66.1281H1317.31V67.1556H1318.09V67.6219H1316.74V64.2346Z" fill="white"/>
<path d="M1312.74 71.4944V69.8578C1312.74 69.325 1313 68.9444 1313.6 68.9444C1314.2 68.9444 1314.46 69.325 1314.46 69.8578V71.4944C1314.46 72.0177 1314.21 72.4078 1313.6 72.4078C1312.99 72.4078 1312.74 72.0177 1312.74 71.4944ZM1313.9 71.58V69.7627C1313.9 69.5534 1313.82 69.4107 1313.61 69.4107C1313.4 69.4107 1313.32 69.5534 1313.32 69.7627V71.58C1313.32 71.7893 1313.41 71.9321 1313.61 71.9321C1313.81 71.9321 1313.9 71.7893 1313.9 71.58Z" fill="white"/>
<path d="M1315.27 70.2385V72.3698H1314.8V68.9825H1315.35L1315.97 70.9235V68.9825H1316.44V72.3698H1315.94L1315.27 70.2385Z" fill="white"/>
<path d="M1317.98 68.9825H1318.55V71.9035H1319.23V72.3698H1317.98V68.9825Z" fill="white"/>
<path d="M1319.4 72.3698L1320.04 68.9825H1320.69L1321.33 72.3698H1320.75L1320.65 71.7513H1320.04L1319.94 72.3698H1319.4ZM1320.12 71.2946H1320.57L1320.34 69.934L1320.12 71.2946Z" fill="white"/>
<path d="M1322.05 70.2385V72.3698H1321.56V68.9825H1322.12L1322.74 70.9235V68.9825H1323.22V72.3698H1322.71L1322.05 70.2385Z" fill="white"/>
<path d="M1325.24 69.8864V71.4563C1325.24 71.9797 1325.03 72.3698 1324.42 72.3698H1323.54V68.9825H1324.42C1325.03 68.9825 1325.24 69.3631 1325.24 69.8959M1324.35 71.9035C1324.59 71.9035 1324.67 71.7608 1324.67 71.561V69.7913C1324.67 69.5915 1324.58 69.4487 1324.35 69.4487H1324.11V71.9035H1324.35Z" fill="white"/>
<text fill="#3459FF" xml:space="preserve" style="white-space: pre" font-family="VNM Sans Display" font-size="80" font-weight="bold" letter-spacing="0em"><tspan x="99.0391" y="136.6">WATER AVAILABILITY &#x2028;</tspan><tspan x="215.328" y="220.6"> &#38; QUALITY</tspan></text>
<rect x="122" y="256" width="444" height="406" rx="8" fill="#FFFFF1"/>
<text fill="#0213B0" xml:space="preserve" style="white-space: pre" font-family="VNM Sans Std" font-size="16" letter-spacing="0em"><tspan x="169" y="332.536">Clean </tspan><tspan x="213.172" y="332.536">water, </tspan><tspan x="262.234" y="332.536">an </tspan><tspan x="286.25" y="332.536">invaluable, </tspan><tspan x="362.672" y="332.536">finite, </tspan><tspan x="409.125" y="332.536">essential-to-life </tspan><tspan x="169" y="350.536">resource, </tspan><tspan x="233.368" y="350.536">is </tspan><tspan x="246.221" y="350.536">facing </tspan><tspan x="291.308" y="350.536">serious </tspan><tspan x="342.536" y="350.536">threats </tspan><tspan x="395.467" y="350.536">from </tspan><tspan x="432.132" y="350.536">human </tspan><tspan x="481.109" y="350.536">over-</tspan><tspan x="169" y="368.536">exploitation </tspan><tspan x="256.833" y="368.536">and </tspan><tspan x="287.931" y="368.536">wastage. </tspan><tspan x="354.732" y="368.536">In </tspan><tspan x="372.112" y="368.536">the </tspan><tspan x="401.304" y="368.536">case </tspan><tspan x="437.386" y="368.536">of </tspan><tspan x="458.625" y="368.536">Vinamilk, </tspan><tspan x="169" y="386.536">clean </tspan><tspan x="210.924" y="386.536">water </tspan><tspan x="257.473" y="386.536">is </tspan><tspan x="274.179" y="386.536">also </tspan><tspan x="307.853" y="386.536">an </tspan><tspan x="330.917" y="386.536">indispensable </tspan><tspan x="430.31" y="386.536">resource </tspan><tspan x="495.703" y="386.536">for </tspan><tspan x="169" y="404.536">livestock </tspan><tspan x="237.428" y="404.536">farming, </tspan><tspan x="301.934" y="404.536">crop </tspan><tspan x="341.753" y="404.536">farming, </tspan><tspan x="406.259" y="404.536">and </tspan><tspan x="440.516" y="404.536">production </tspan><tspan x="169" y="422.536">operations. </tspan><tspan x="249.365" y="422.536">Aware </tspan><tspan x="294.651" y="422.536">that </tspan><tspan x="327.734" y="422.536">water </tspan><tspan x="370.911" y="422.536">usage </tspan><tspan x="414.745" y="422.536">and </tspan><tspan x="443.844" y="422.536">protection </tspan><tspan x="169" y="440.536">must </tspan><tspan x="207.618" y="440.536">go </tspan><tspan x="229.69" y="440.536">hand </tspan><tspan x="267.636" y="440.536">in </tspan><tspan x="282.833" y="440.536">hand, </tspan><tspan x="323.607" y="440.536">Vinamilk </tspan><tspan x="382.897" y="440.536">consistently </tspan><tspan x="469.297" y="440.536">invests </tspan><tspan x="169" y="458.536">in </tspan><tspan x="184.714" y="458.536">efficient </tspan><tspan x="246.536" y="458.536">water-saving </tspan><tspan x="339.219" y="458.536">and </tspan><tspan x="369.151" y="458.536">reusing </tspan><tspan x="422.63" y="458.536">initiatives </tspan><tspan x="491.328" y="458.536">and </tspan><tspan x="169" y="476.536">implements </tspan><tspan x="265.693" y="476.536">advanced </tspan><tspan x="348.62" y="476.536">wastewater </tspan><tspan x="446.172" y="476.536">treatment </tspan><tspan x="169" y="494.536">technologies </tspan><tspan x="261.521" y="494.536">designed </tspan><tspan x="328.714" y="494.536">to </tspan><tspan x="348.25" y="494.536">preserve </tspan><tspan x="411.896" y="494.536">the </tspan><tspan x="439.479" y="494.536">water </tspan><tspan x="483.047" y="494.536">cycle </tspan><tspan x="169" y="512.536">and </tspan><tspan x="197.773" y="512.536">safeguard </tspan><tspan x="270.062" y="512.536">this </tspan><tspan x="298.492" y="512.536">invaluable </tspan><tspan x="367.438" y="512.536">resource. </tspan><tspan x="431.961" y="512.536">Aligned </tspan><tspan x="486.172" y="512.536">with </tspan><tspan x="169" y="530.536">our </tspan><tspan x="204.594" y="530.536">commitment </tspan><tspan x="305.656" y="530.536">to </tspan><tspan x="333.922" y="530.536">sustainable </tspan><tspan x="422.938" y="530.536">development, </tspan><tspan x="169" y="548.536">water </tspan><tspan x="212.888" y="548.536">resource </tspan><tspan x="275.621" y="548.536">protection </tspan><tspan x="352.915" y="548.536">remains </tspan><tspan x="409.554" y="548.536">a </tspan><tspan x="421.426" y="548.536">top </tspan><tspan x="450.69" y="548.536">priority </tspan><tspan x="505.547" y="548.536">in </tspan><tspan x="169" y="566.536">all </tspan><tspan x="185.234" y="566.536">aspects </tspan><tspan x="241.984" y="566.536">of </tspan><tspan x="260.453" y="566.536">Vinamilk&#x2019;s </tspan><tspan x="328.219" y="566.536">operations </tspan><tspan x="404.984" y="566.536">and </tspan><tspan x="433.312" y="566.536">growth.</tspan></text>
<rect x="727.5" y="445.5" width="191" height="221" rx="6.5" fill="#3459FF"/>
<rect x="727.5" y="445.5" width="191" height="221" rx="6.5" stroke="#0213B0" stroke-width="3" stroke-linejoin="round"/>
<rect x="727.5" y="445.5" width="191" height="221" rx="6.5" stroke="#38C0FF" stroke-width="3" stroke-linejoin="round" stroke-dasharray="12 12"/>
<text fill="#FFFFF1" xml:space="preserve" style="white-space: pre" font-family="VNM Sans Display" font-size="48" font-weight="bold" letter-spacing="0em"><tspan x="781.578" y="508.06" data-counter data-delay="600" data-from="0" data-to="251" data-ori="2.51%">2.51%</tspan></text>
<text fill="#FFFFF1" xml:space="preserve" style="white-space: pre" font-family="VNM Sans Std" font-size="16" letter-spacing="0em"><tspan x="747.922" y="543.536">of water recycled and </tspan><tspan x="751.102" y="561.536">reused in production </tspan><tspan x="788.828" y="579.536">activities.</tspan></text>
<rect x="937.5" y="445.5" width="191" height="221" rx="6.5" fill="#3459FF"/>
<rect x="937.5" y="445.5" width="191" height="221" rx="6.5" stroke="#0213B0" stroke-width="3" stroke-linejoin="round"/>
<rect x="937.5" y="445.5" width="191" height="221" rx="6.5" stroke="#38C0FF" stroke-width="3" stroke-linejoin="round" stroke-dasharray="12 12"/>
<text fill="#FFFFF1" xml:space="preserve" style="white-space: pre" font-family="VNM Sans Display" font-size="48" font-weight="bold" letter-spacing="0em"><tspan x="1003.5" y="508.06" data-counter data-delay="600" data-from="0" data-to="85" data-ori="85%">85%</tspan></text>
<text fill="#FFFFF1" xml:space="preserve" style="white-space: pre" font-family="VNM Sans Std" font-size="16" letter-spacing="0em"><tspan x="979.844" y="537.536">of standardized </tspan><tspan x="976.273" y="555.536">treated livestock </tspan><tspan x="957.023" y="573.536">wastewater is recycled </tspan><tspan x="954.797" y="591.536">and reused for farming.</tspan></text>
<rect x="1147.5" y="445.5" width="191" height="221" rx="6.5" fill="#3459FF"/>
<rect x="1147.5" y="445.5" width="191" height="221" rx="6.5" stroke="#0213B0" stroke-width="3" stroke-linejoin="round"/>
<rect x="1147.5" y="445.5" width="191" height="221" rx="6.5" stroke="#38C0FF" stroke-width="3" stroke-linejoin="round" stroke-dasharray="12 12"/>
<text fill="#FFFFF1" xml:space="preserve" style="white-space: pre" font-family="VNM Sans Display" font-size="48" font-weight="bold" letter-spacing="0em"><tspan x="1203.07" y="508.06" data-counter data-delay="600" data-from="0" data-to="100" data-ori="100%">100%&#xa0;</tspan></text>
<text fill="#FFFFF1" xml:space="preserve" style="white-space: pre" font-family="VNM Sans Std" font-size="16" letter-spacing="0em"><tspan x="1185.12" y="537.536">Factory and Farm </tspan><tspan x="1164.97" y="555.536">wastewater undergoes </tspan><tspan x="1179.37" y="573.536">treatment to meet </tspan><tspan x="1204.21" y="591.536">established </tspan><tspan x="1171.27" y="609.536">requirements prior to </tspan><tspan x="1179.62" y="627.536">being released into </tspan><tspan x="1199.6" y="645.536">destinations.</tspan></text>
</g>
<defs>
<clipPath id="clip0_316_18934">
<rect width="1440" height="774" fill="white"/>
</clipPath>
</defs>
</svg>
