<svg width="343" height="161" viewBox="0 0 343 161" fill="none" xmlns="http://www.w3.org/2000/svg">
<rect x="0.5" y="0.5" width="342" height="160" rx="7.5" fill="#4DD75A"/>
<rect x="0.5" y="0.5" width="342" height="160" rx="7.5" stroke="#0B4314"/>
<path d="M53.164 41C53.0573 41 53.004 40.9467 53.004 40.84V32.312C53.004 32.1947 52.9773 32.1147 52.924 32.072C52.8707 32.0187 52.7533 31.992 52.572 31.992C51.8893 31.992 51.0733 32.1413 50.124 32.44L50.044 32.456C49.9587 32.456 49.916 32.4133 49.916 32.328V29.96C49.916 29.8533 49.9693 29.8 50.076 29.8H58.46C58.5667 29.8 58.62 29.8533 58.62 29.96V32.328C58.62 32.3813 58.5987 32.4187 58.556 32.44C58.524 32.4613 58.476 32.4613 58.412 32.44C57.4627 32.1413 56.6467 31.992 55.964 31.992C55.7827 31.992 55.6653 32.0187 55.612 32.072C55.5587 32.1147 55.532 32.1947 55.532 32.312V40.84C55.532 40.9467 55.4787 41 55.372 41H53.164ZM59.2193 41C59.1766 41 59.1393 40.984 59.1073 40.952C59.0753 40.92 59.0592 40.8827 59.0592 40.84V34.552C59.0592 33.976 59.0326 33.5493 58.9793 33.272C58.9366 32.9947 58.8513 32.696 58.7233 32.376L58.7073 32.312C58.7073 32.2373 58.7553 32.2 58.8513 32.2H61.2353C61.2886 32.2 61.3313 32.216 61.3633 32.248C61.3953 32.28 61.4113 32.3173 61.4113 32.36V33.672C61.4113 33.7253 61.4273 33.752 61.4593 33.752C61.5019 33.752 61.5286 33.7253 61.5393 33.672C61.8593 32.584 62.5259 32.04 63.5393 32.04C63.9659 32.04 64.1793 32.1147 64.1793 32.264V34.568C64.1793 34.664 64.1259 34.696 64.0193 34.664C63.8273 34.6 63.6086 34.568 63.3633 34.568C62.7446 34.568 62.2806 34.7227 61.9713 35.032C61.6726 35.3413 61.5233 35.8107 61.5233 36.44V40.84C61.5233 40.9467 61.4699 41 61.3633 41H59.2193ZM66.9295 41.16C66.0975 41.16 65.4308 40.9413 64.9295 40.504C64.4388 40.056 64.1935 39.4213 64.1935 38.6C64.1935 37.864 64.4122 37.288 64.8495 36.872C65.2975 36.456 66.0122 36.1573 66.9935 35.976L68.3855 35.72C68.7055 35.656 68.9242 35.5707 69.0415 35.464C69.1695 35.3467 69.2335 35.2027 69.2335 35.032C69.2335 34.744 69.1055 34.5147 68.8495 34.344C68.6042 34.1627 68.2415 34.072 67.7615 34.072C67.1428 34.072 66.6095 34.2267 66.1615 34.536C65.7135 34.8347 65.2975 35.224 64.9135 35.704C64.8708 35.768 64.8228 35.8 64.7695 35.8C64.7162 35.8 64.6895 35.752 64.6895 35.656V33.912C64.6895 33.3147 65.0202 32.856 65.6815 32.536C66.3535 32.2053 67.1695 32.04 68.1295 32.04C69.3562 32.04 70.2415 32.3067 70.7855 32.84C71.3295 33.3627 71.6015 34.04 71.6015 34.872V40.84C71.6015 40.8827 71.5855 40.92 71.5535 40.952C71.5215 40.984 71.4895 41 71.4575 41H69.4255C69.3935 41 69.3562 40.984 69.3135 40.952C69.2815 40.92 69.2655 40.8827 69.2655 40.84V40.04C69.2655 39.9973 69.2495 39.976 69.2175 39.976C69.1748 39.976 69.1375 40.0027 69.1055 40.056C68.8602 40.4507 68.5562 40.7333 68.1935 40.904C67.8415 41.0747 67.4202 41.16 66.9295 41.16ZM67.8255 39.416C68.2628 39.416 68.6042 39.272 68.8495 38.984C69.1055 38.696 69.2335 38.3067 69.2335 37.816V37.192C69.2335 37.064 69.1695 37.0107 69.0415 37.032L68.0495 37.208C67.1428 37.3787 66.6895 37.7627 66.6895 38.36C66.6895 38.7013 66.7908 38.9627 66.9935 39.144C67.1962 39.3253 67.4735 39.416 67.8255 39.416ZM72.7974 41C72.7547 41 72.7174 40.984 72.6854 40.952C72.6534 40.92 72.6374 40.8827 72.6374 40.84V34.552C72.6374 33.976 72.6107 33.5493 72.5574 33.272C72.5147 32.9947 72.4294 32.696 72.3014 32.376L72.2854 32.312C72.2854 32.2373 72.3334 32.2 72.4294 32.2H74.8294C74.872 32.2 74.9094 32.216 74.9414 32.248C74.9734 32.28 74.9894 32.3173 74.9894 32.36V33.304C74.9894 33.4 75.016 33.448 75.0694 33.448C75.112 33.448 75.1494 33.4107 75.1814 33.336C75.6294 32.472 76.4294 32.04 77.5814 32.04C78.5307 32.04 79.2454 32.3173 79.7254 32.872C80.2054 33.4267 80.4454 34.1627 80.4454 35.08V40.84C80.4454 40.8827 80.4294 40.92 80.3974 40.952C80.3654 40.984 80.328 41 80.2854 41H78.1414C78.0987 41 78.0614 40.984 78.0294 40.952C77.9974 40.92 77.9814 40.8827 77.9814 40.84V35.304C77.9814 34.856 77.864 34.52 77.6294 34.296C77.3947 34.072 77.0907 33.96 76.7174 33.96C76.1947 33.96 75.7947 34.1467 75.5174 34.52C75.24 34.8933 75.1014 35.4267 75.1014 36.12V40.84C75.1014 40.8827 75.0854 40.92 75.0534 40.952C75.0214 40.984 74.984 41 74.9414 41H72.7974ZM85.0796 42.92C84.4503 42.92 83.8583 42.8507 83.3036 42.712C82.7596 42.584 82.3383 42.408 82.0396 42.184C81.8156 42.024 81.7036 41.8 81.7036 41.512V40.056C81.7036 39.9493 81.7463 39.896 81.8316 39.896C81.8743 39.896 81.9223 39.9227 81.9756 39.976C82.3596 40.328 82.7863 40.6 83.2556 40.792C83.725 40.9733 84.2796 41.064 84.9196 41.064C85.5916 41.064 86.1303 40.888 86.5356 40.536C86.9516 40.184 87.1596 39.72 87.1596 39.144V38.952C87.1596 38.888 87.133 38.856 87.0796 38.856C87.037 38.856 86.9996 38.8773 86.9676 38.92C86.7543 39.2293 86.461 39.496 86.0876 39.72C85.7143 39.9333 85.2503 40.04 84.6956 40.04C84.013 40.04 83.3996 39.88 82.8556 39.56C82.3223 39.24 81.901 38.7813 81.5916 38.184C81.293 37.576 81.1436 36.8613 81.1436 36.04C81.1436 35.2187 81.293 34.5093 81.5916 33.912C81.901 33.304 82.3223 32.84 82.8556 32.52C83.3996 32.2 84.013 32.04 84.6956 32.04C85.6983 32.04 86.461 32.408 86.9836 33.144C87.0156 33.1973 87.053 33.224 87.0956 33.224C87.1276 33.224 87.1543 33.2133 87.1756 33.192C87.197 33.16 87.2076 33.1227 87.2076 33.08V32.36C87.2076 32.2533 87.261 32.2 87.3676 32.2H89.4956C89.549 32.2 89.5916 32.216 89.6236 32.248C89.6556 32.28 89.6716 32.3173 89.6716 32.36V38.68C89.6716 40.088 89.261 41.144 88.4396 41.848C87.6183 42.5627 86.4983 42.92 85.0796 42.92ZM85.3996 37.928C85.9436 37.928 86.3703 37.7573 86.6796 37.416C86.9996 37.064 87.1596 36.6053 87.1596 36.04C87.1596 35.4533 86.9996 34.9787 86.6796 34.616C86.3703 34.2533 85.9436 34.072 85.3996 34.072C84.8556 34.072 84.4236 34.2533 84.1036 34.616C83.7943 34.9787 83.6396 35.4533 83.6396 36.04C83.6396 36.6053 83.7943 37.064 84.1036 37.416C84.4236 37.7573 84.8556 37.928 85.3996 37.928ZM97.1206 41.16C96.15 41.16 95.43 40.8987 94.9606 40.376C94.4913 39.8427 94.2566 39.1067 94.2566 38.168V34.264C94.2566 34.2 94.2246 34.168 94.1606 34.168H92.9926C92.9073 34.168 92.8646 34.1253 92.8646 34.04V32.328C92.8646 32.2427 92.9073 32.2 92.9926 32.2H94.1606C94.2246 32.2 94.2566 32.168 94.2566 32.104V30.136C94.2566 30.0293 94.31 29.976 94.4166 29.976H96.5126C96.6086 29.976 96.6566 30.0293 96.6566 30.136L96.5606 32.104C96.5606 32.168 96.5926 32.2 96.6566 32.2H99.0726C99.158 32.2 99.2006 32.2427 99.2006 32.328V34.04C99.2006 34.1253 99.158 34.168 99.0726 34.168H96.7046C96.6406 34.168 96.6086 34.2 96.6086 34.264V37.768C96.6086 38.6107 96.9873 39.032 97.7446 39.032C97.958 39.032 98.15 38.9947 98.3206 38.92C98.502 38.8347 98.7206 38.6853 98.9766 38.472C99.0086 38.44 99.0406 38.424 99.0726 38.424C99.126 38.424 99.1526 38.4613 99.1526 38.536V40.2C99.1526 40.5413 98.95 40.7867 98.5446 40.936C98.1393 41.0853 97.6646 41.16 97.1206 41.16ZM100.297 41C100.255 41 100.217 40.984 100.185 40.952C100.153 40.92 100.137 40.8827 100.137 40.84V34.552C100.137 33.976 100.111 33.5493 100.057 33.272C100.015 32.9947 99.9294 32.696 99.8014 32.376L99.7854 32.312C99.7854 32.2373 99.8334 32.2 99.9294 32.2H102.313C102.367 32.2 102.409 32.216 102.441 32.248C102.473 32.28 102.489 32.3173 102.489 32.36V33.672C102.489 33.7253 102.505 33.752 102.537 33.752C102.58 33.752 102.607 33.7253 102.617 33.672C102.937 32.584 103.604 32.04 104.617 32.04C105.044 32.04 105.257 32.1147 105.257 32.264V34.568C105.257 34.664 105.204 34.696 105.097 34.664C104.905 34.6 104.687 34.568 104.441 34.568C103.823 34.568 103.359 34.7227 103.049 35.032C102.751 35.3413 102.601 35.8107 102.601 36.44V40.84C102.601 40.9467 102.548 41 102.441 41H100.297ZM108.008 41.16C107.176 41.16 106.509 40.9413 106.008 40.504C105.517 40.056 105.272 39.4213 105.272 38.6C105.272 37.864 105.49 37.288 105.928 36.872C106.376 36.456 107.09 36.1573 108.072 35.976L109.464 35.72C109.784 35.656 110.002 35.5707 110.12 35.464C110.248 35.3467 110.312 35.2027 110.312 35.032C110.312 34.744 110.184 34.5147 109.928 34.344C109.682 34.1627 109.32 34.072 108.84 34.072C108.221 34.072 107.688 34.2267 107.24 34.536C106.792 34.8347 106.376 35.224 105.992 35.704C105.949 35.768 105.901 35.8 105.848 35.8C105.794 35.8 105.768 35.752 105.768 35.656V33.912C105.768 33.3147 106.098 32.856 106.76 32.536C107.432 32.2053 108.248 32.04 109.208 32.04C110.434 32.04 111.32 32.3067 111.864 32.84C112.408 33.3627 112.68 34.04 112.68 34.872V40.84C112.68 40.8827 112.664 40.92 112.632 40.952C112.6 40.984 112.568 41 112.536 41H110.504C110.472 41 110.434 40.984 110.392 40.952C110.36 40.92 110.344 40.8827 110.344 40.84V40.04C110.344 39.9973 110.328 39.976 110.296 39.976C110.253 39.976 110.216 40.0027 110.184 40.056C109.938 40.4507 109.634 40.7333 109.272 40.904C108.92 41.0747 108.498 41.16 108.008 41.16ZM108.904 39.416C109.341 39.416 109.682 39.272 109.928 38.984C110.184 38.696 110.312 38.3067 110.312 37.816V37.192C110.312 37.064 110.248 37.0107 110.12 37.032L109.128 37.208C108.221 37.3787 107.768 37.7627 107.768 38.36C107.768 38.7013 107.869 38.9627 108.072 39.144C108.274 39.3253 108.552 39.416 108.904 39.416ZM107.752 42.776C107.688 42.776 107.656 42.744 107.656 42.68V42.04C107.656 41.976 107.688 41.944 107.752 41.944H110.44C110.504 41.944 110.536 41.976 110.536 42.04V42.68C110.536 42.744 110.504 42.776 110.44 42.776H107.752ZM113.876 41C113.833 41 113.796 40.984 113.764 40.952C113.732 40.92 113.715 40.8827 113.715 40.84V34.552C113.715 33.976 113.689 33.5493 113.636 33.272C113.593 32.9947 113.508 32.696 113.38 32.376L113.364 32.312C113.364 32.2373 113.412 32.2 113.508 32.2H116.02C116.062 32.2 116.1 32.216 116.132 32.248C116.164 32.28 116.18 32.3173 116.18 32.36V40.84C116.18 40.8827 116.164 40.92 116.132 40.952C116.1 40.984 116.062 41 116.02 41H113.876ZM114.932 31.8C114.537 31.8 114.206 31.7147 113.94 31.544C113.673 31.3733 113.54 31.1227 113.54 30.792C113.54 30.4507 113.668 30.2 113.924 30.04C114.19 29.88 114.526 29.8 114.932 29.8C115.348 29.8 115.689 29.88 115.956 30.04C116.222 30.2 116.356 30.4507 116.356 30.792C116.356 31.1227 116.217 31.3733 115.94 31.544C115.673 31.7147 115.337 31.8 114.932 31.8ZM124.741 41.16C124.261 41.16 123.802 41.0427 123.365 40.808C122.927 40.5733 122.613 40.28 122.421 39.928C122.378 39.864 122.335 39.832 122.293 39.832C122.218 39.832 122.181 39.88 122.181 39.976V40.84C122.181 40.8827 122.165 40.92 122.133 40.952C122.101 40.984 122.058 41 122.005 41H119.845C119.791 41 119.749 40.984 119.717 40.952C119.685 40.92 119.669 40.8827 119.669 40.84V32.152C119.669 31.576 119.642 31.1493 119.589 30.872C119.546 30.5947 119.461 30.296 119.333 29.976L119.317 29.912C119.317 29.8373 119.365 29.8 119.461 29.8H121.957C122.01 29.8 122.053 29.816 122.085 29.848C122.117 29.88 122.133 29.9173 122.133 29.96V33.224C122.133 33.32 122.17 33.368 122.245 33.368C122.287 33.368 122.33 33.336 122.373 33.272C122.565 32.92 122.885 32.6267 123.333 32.392C123.791 32.1573 124.261 32.04 124.741 32.04C125.519 32.04 126.191 32.232 126.757 32.616C127.322 33 127.754 33.5387 128.053 34.232C128.362 34.9147 128.517 35.704 128.517 36.6C128.517 37.496 128.362 38.2907 128.053 38.984C127.754 39.6667 127.322 40.2 126.757 40.584C126.191 40.968 125.519 41.16 124.741 41.16ZM124.101 39.048C124.677 39.048 125.141 38.824 125.493 38.376C125.845 37.9173 126.021 37.3253 126.021 36.6C126.021 35.8747 125.845 35.288 125.493 34.84C125.141 34.3813 124.677 34.152 124.101 34.152C123.525 34.152 123.061 34.3813 122.709 34.84C122.357 35.288 122.181 35.8747 122.181 36.6C122.181 37.3253 122.357 37.9173 122.709 38.376C123.061 38.824 123.525 39.048 124.101 39.048ZM133.403 41.16C132.561 41.16 131.803 40.968 131.131 40.584C130.459 40.1893 129.931 39.6453 129.547 38.952C129.174 38.2587 128.987 37.4747 128.987 36.6C128.987 35.7253 129.174 34.9413 129.547 34.248C129.931 33.5547 130.459 33.016 131.131 32.632C131.803 32.2373 132.561 32.04 133.403 32.04C134.246 32.04 135.003 32.2373 135.675 32.632C136.347 33.016 136.87 33.5547 137.243 34.248C137.627 34.9413 137.819 35.7253 137.819 36.6C137.819 37.4747 137.627 38.2587 137.243 38.952C136.87 39.6453 136.347 40.1893 135.675 40.584C135.003 40.968 134.246 41.16 133.403 41.16ZM133.403 38.984C133.979 38.984 134.443 38.7653 134.795 38.328C135.147 37.8907 135.323 37.3147 135.323 36.6C135.323 35.8853 135.147 35.3093 134.795 34.872C134.443 34.4347 133.979 34.216 133.403 34.216C132.827 34.216 132.363 34.4347 132.011 34.872C131.659 35.3093 131.483 35.8853 131.483 36.6C131.483 37.3147 131.659 37.8907 132.011 38.328C132.363 38.7653 132.827 38.984 133.403 38.984ZM135.339 31.352C134.55 31.352 133.857 31.32 133.259 31.256C132.673 31.1813 132.086 31.0693 131.499 30.92C131.361 30.888 131.291 30.808 131.291 30.68V30.088C131.291 30.024 131.334 30.0027 131.419 30.024C132.102 30.2053 132.753 30.3333 133.371 30.408C133.99 30.472 134.646 30.504 135.339 30.504C135.414 30.504 135.451 30.536 135.451 30.6V31.256C135.451 31.32 135.414 31.352 135.339 31.352ZM143.815 41.16C142.727 41.16 141.916 41.0213 141.383 40.744C140.86 40.4667 140.599 40.0667 140.599 39.544V38.056C140.599 37.9493 140.636 37.896 140.711 37.896C140.753 37.896 140.801 37.9227 140.855 37.976C141.185 38.36 141.58 38.6853 142.039 38.952C142.497 39.2187 142.988 39.352 143.511 39.352C144.3 39.352 144.695 39.0533 144.695 38.456C144.695 38.232 144.62 38.0613 144.471 37.944C144.321 37.816 144.055 37.7093 143.671 37.624L142.775 37.416C142.039 37.2453 141.489 36.952 141.127 36.536C140.775 36.1093 140.599 35.5547 140.599 34.872C140.599 34.0187 140.919 33.336 141.559 32.824C142.209 32.3013 143.1 32.04 144.231 32.04C146.001 32.04 146.887 32.5893 146.887 33.688V35.016C146.887 35.1013 146.849 35.144 146.775 35.144C146.721 35.144 146.679 35.1173 146.647 35.064C146.369 34.6373 146.023 34.328 145.607 34.136C145.191 33.9333 144.753 33.832 144.295 33.832C143.9 33.832 143.596 33.912 143.383 34.072C143.169 34.2213 143.063 34.4293 143.063 34.696C143.063 34.9413 143.132 35.128 143.271 35.256C143.42 35.384 143.655 35.48 143.975 35.544L144.951 35.736C145.697 35.8853 146.257 36.168 146.631 36.584C147.015 36.9893 147.207 37.5227 147.207 38.184C147.207 39.0907 146.897 39.816 146.279 40.36C145.671 40.8933 144.849 41.16 143.815 41.16ZM150.654 41.16C149.737 41.16 149.043 40.8827 148.574 40.328C148.115 39.7733 147.886 39.0373 147.886 38.12V34.552C147.886 33.976 147.859 33.5493 147.806 33.272C147.763 32.9947 147.678 32.696 147.55 32.376L147.534 32.312C147.534 32.2373 147.582 32.2 147.678 32.2H150.19C150.297 32.2 150.35 32.2533 150.35 32.36V37.896C150.35 38.3653 150.462 38.7067 150.686 38.92C150.91 39.1333 151.203 39.24 151.566 39.24C152.057 39.24 152.43 39.0587 152.686 38.696C152.942 38.3333 153.07 37.8 153.07 37.096V34.552C153.07 33.976 153.043 33.5493 152.99 33.272C152.947 32.9947 152.862 32.696 152.734 32.376L152.718 32.312C152.718 32.2373 152.766 32.2 152.862 32.2H155.374C155.481 32.2 155.534 32.2533 155.534 32.36V34.632C155.534 34.888 155.635 35.016 155.838 35.016C156.03 35.016 156.163 34.92 156.238 34.728C156.323 34.5253 156.366 34.28 156.366 33.992C156.366 33.4907 156.291 32.952 156.142 32.376L156.126 32.328C156.126 32.2427 156.179 32.2 156.286 32.2H156.958C157.065 32.2 157.123 32.248 157.134 32.344C157.251 32.7813 157.31 33.3147 157.31 33.944C157.31 34.5413 157.182 34.9893 156.926 35.288C156.681 35.5867 156.291 35.7627 155.758 35.816C155.673 35.8267 155.614 35.848 155.582 35.88C155.55 35.912 155.534 35.9707 155.534 36.056V40.84C155.534 40.9467 155.481 41 155.374 41H153.342C153.235 41 153.182 40.9467 153.182 40.84V39.88C153.182 39.8373 153.161 39.8107 153.118 39.8C153.075 39.7893 153.038 39.816 153.006 39.88C152.846 40.2107 152.579 40.5093 152.206 40.776C151.843 41.032 151.326 41.16 150.654 41.16ZM152.654 31.448C152.419 31.448 152.217 31.4107 152.046 31.336C151.875 31.2613 151.694 31.1547 151.502 31.016C151.363 30.9093 151.241 30.8347 151.134 30.792C151.027 30.7387 150.915 30.712 150.798 30.712C150.638 30.712 150.515 30.7653 150.43 30.872C150.355 30.9787 150.313 31.0907 150.302 31.208C150.281 31.304 150.233 31.352 150.158 31.352H149.566C149.502 31.352 149.459 31.3413 149.438 31.32C149.417 31.288 149.406 31.24 149.406 31.176C149.406 30.8347 149.513 30.5307 149.726 30.264C149.95 29.9867 150.297 29.848 150.766 29.848C151.001 29.848 151.203 29.8853 151.374 29.96C151.545 30.0347 151.726 30.1413 151.918 30.28C152.057 30.3867 152.179 30.4667 152.286 30.52C152.393 30.5627 152.505 30.584 152.622 30.584C152.782 30.584 152.899 30.5307 152.974 30.424C153.059 30.3173 153.107 30.2053 153.118 30.088C153.139 29.992 153.187 29.944 153.262 29.944H153.854C153.918 29.944 153.961 29.96 153.982 29.992C154.003 30.0133 154.014 30.056 154.014 30.12C154.014 30.4613 153.902 30.7707 153.678 31.048C153.465 31.3147 153.123 31.448 152.654 31.448ZM160.148 41.16C159.316 41.16 158.65 40.9413 158.148 40.504C157.658 40.056 157.412 39.4213 157.412 38.6C157.412 37.864 157.631 37.288 158.068 36.872C158.516 36.456 159.231 36.1573 160.212 35.976L161.604 35.72C161.924 35.656 162.143 35.5707 162.26 35.464C162.388 35.3467 162.452 35.2027 162.452 35.032C162.452 34.744 162.324 34.5147 162.068 34.344C161.823 34.1627 161.46 34.072 160.98 34.072C160.362 34.072 159.828 34.2267 159.38 34.536C158.932 34.8347 158.516 35.224 158.132 35.704C158.09 35.768 158.042 35.8 157.988 35.8C157.935 35.8 157.908 35.752 157.908 35.656V33.912C157.908 33.3147 158.239 32.856 158.9 32.536C159.572 32.2053 160.388 32.04 161.348 32.04C162.575 32.04 163.46 32.3067 164.004 32.84C164.548 33.3627 164.82 34.04 164.82 34.872V40.84C164.82 40.8827 164.804 40.92 164.772 40.952C164.74 40.984 164.708 41 164.676 41H162.644C162.612 41 162.575 40.984 162.532 40.952C162.5 40.92 162.484 40.8827 162.484 40.84V40.04C162.484 39.9973 162.468 39.976 162.436 39.976C162.394 39.976 162.356 40.0027 162.324 40.056C162.079 40.4507 161.775 40.7333 161.412 40.904C161.06 41.0747 160.639 41.16 160.148 41.16ZM161.044 39.416C161.482 39.416 161.823 39.272 162.068 38.984C162.324 38.696 162.452 38.3067 162.452 37.816V37.192C162.452 37.064 162.388 37.0107 162.26 37.032L161.268 37.208C160.362 37.3787 159.908 37.7627 159.908 38.36C159.908 38.7013 160.01 38.9627 160.212 39.144C160.415 39.3253 160.692 39.416 161.044 39.416ZM171.686 41C171.526 41 171.43 40.9307 171.398 40.792L168.726 31.592C168.608 31.176 168.486 30.8667 168.358 30.664C168.24 30.4507 168.091 30.2427 167.91 30.04C167.878 30.008 167.862 29.9707 167.862 29.928C167.862 29.8427 167.91 29.8 168.006 29.8H171.254C171.35 29.8 171.414 29.8213 171.446 29.864C171.478 29.9067 171.472 29.96 171.43 30.024C171.28 30.2373 171.206 30.4773 171.206 30.744C171.206 30.8827 171.243 31.1013 171.318 31.4L173.158 38.168C173.19 38.264 173.238 38.312 173.302 38.312C173.387 38.312 173.435 38.264 173.446 38.168L175.334 31.304C175.387 31.1333 175.414 30.9467 175.414 30.744C175.414 30.4773 175.339 30.2373 175.19 30.024C175.168 29.9813 175.158 29.9493 175.158 29.928C175.158 29.8427 175.227 29.8 175.366 29.8H178.47C178.566 29.8 178.614 29.8427 178.614 29.928C178.614 29.9707 178.598 30.008 178.566 30.04C178.395 30.232 178.251 30.4293 178.134 30.632C178.016 30.8347 177.894 31.1547 177.766 31.592L175.094 40.792C175.062 40.9307 174.966 41 174.806 41H171.686ZM179.079 41C179.036 41 178.999 40.984 178.967 40.952C178.935 40.92 178.919 40.8827 178.919 40.84V34.552C178.919 33.976 178.892 33.5493 178.839 33.272C178.796 32.9947 178.711 32.696 178.583 32.376L178.567 32.312C178.567 32.2373 178.615 32.2 178.711 32.2H181.223C181.265 32.2 181.303 32.216 181.335 32.248C181.367 32.28 181.383 32.3173 181.383 32.36V40.84C181.383 40.8827 181.367 40.92 181.335 40.952C181.303 40.984 181.265 41 181.223 41H179.079ZM180.135 31.8C179.74 31.8 179.409 31.7147 179.143 31.544C178.876 31.3733 178.743 31.1227 178.743 30.792C178.743 30.4507 178.871 30.2 179.127 30.04C179.393 29.88 179.729 29.8 180.135 29.8C180.551 29.8 180.892 29.88 181.159 30.04C181.425 30.2 181.559 30.4507 181.559 30.792C181.559 31.1227 181.42 31.3733 181.143 31.544C180.876 31.7147 180.54 31.8 180.135 31.8ZM182.594 41C182.552 41 182.514 40.984 182.482 40.952C182.45 40.92 182.434 40.8827 182.434 40.84V34.552C182.434 33.976 182.408 33.5493 182.354 33.272C182.312 32.9947 182.226 32.696 182.098 32.376L182.082 32.312C182.082 32.2373 182.13 32.2 182.226 32.2H184.626C184.669 32.2 184.706 32.216 184.738 32.248C184.77 32.28 184.786 32.3173 184.786 32.36V33.304C184.786 33.4 184.813 33.448 184.866 33.448C184.909 33.448 184.946 33.4107 184.978 33.336C185.426 32.472 186.226 32.04 187.378 32.04C188.328 32.04 189.042 32.3173 189.522 32.872C190.002 33.4267 190.242 34.1627 190.242 35.08V40.84C190.242 40.8827 190.226 40.92 190.194 40.952C190.162 40.984 190.125 41 190.082 41H187.938C187.896 41 187.858 40.984 187.826 40.952C187.794 40.92 187.778 40.8827 187.778 40.84V35.304C187.778 34.856 187.661 34.52 187.426 34.296C187.192 34.072 186.888 33.96 186.514 33.96C185.992 33.96 185.592 34.1467 185.314 34.52C185.037 34.8933 184.898 35.4267 184.898 36.12V40.84C184.898 40.8827 184.882 40.92 184.85 40.952C184.818 40.984 184.781 41 184.738 41H182.594ZM193.695 41.16C192.863 41.16 192.196 40.9413 191.695 40.504C191.204 40.056 190.959 39.4213 190.959 38.6C190.959 37.864 191.178 37.288 191.615 36.872C192.063 36.456 192.778 36.1573 193.759 35.976L195.151 35.72C195.471 35.656 195.69 35.5707 195.807 35.464C195.935 35.3467 195.999 35.2027 195.999 35.032C195.999 34.744 195.871 34.5147 195.615 34.344C195.37 34.1627 195.007 34.072 194.527 34.072C193.908 34.072 193.375 34.2267 192.927 34.536C192.479 34.8347 192.063 35.224 191.679 35.704C191.636 35.768 191.588 35.8 191.535 35.8C191.482 35.8 191.455 35.752 191.455 35.656V33.912C191.455 33.3147 191.786 32.856 192.447 32.536C193.119 32.2053 193.935 32.04 194.895 32.04C196.122 32.04 197.007 32.3067 197.551 32.84C198.095 33.3627 198.367 34.04 198.367 34.872V40.84C198.367 40.8827 198.351 40.92 198.319 40.952C198.287 40.984 198.255 41 198.223 41H196.191C196.159 41 196.122 40.984 196.079 40.952C196.047 40.92 196.031 40.8827 196.031 40.84V40.04C196.031 39.9973 196.015 39.976 195.983 39.976C195.94 39.976 195.903 40.0027 195.871 40.056C195.626 40.4507 195.322 40.7333 194.959 40.904C194.607 41.0747 194.186 41.16 193.695 41.16ZM194.591 39.416C195.028 39.416 195.37 39.272 195.615 38.984C195.871 38.696 195.999 38.3067 195.999 37.816V37.192C195.999 37.064 195.935 37.0107 195.807 37.032L194.815 37.208C193.908 37.3787 193.455 37.7627 193.455 38.36C193.455 38.7013 193.556 38.9627 193.759 39.144C193.962 39.3253 194.239 39.416 194.591 39.416ZM199.563 41C199.456 41 199.403 40.9467 199.403 40.84V34.552C199.403 33.976 199.376 33.5493 199.323 33.272C199.28 32.9947 199.195 32.696 199.067 32.376L199.051 32.312C199.051 32.2373 199.099 32.2 199.195 32.2H201.579C201.632 32.2 201.675 32.216 201.707 32.248C201.739 32.28 201.755 32.3173 201.755 32.36V33.304C201.755 33.4 201.782 33.448 201.835 33.448C201.878 33.448 201.915 33.4107 201.947 33.336C202.406 32.472 203.136 32.04 204.139 32.04C204.715 32.04 205.216 32.1787 205.643 32.456C206.07 32.7333 206.384 33.1173 206.587 33.608C206.608 33.672 206.635 33.704 206.667 33.704C206.71 33.704 206.742 33.6773 206.763 33.624C207.008 33.1333 207.302 32.7493 207.643 32.472C207.995 32.184 208.491 32.04 209.131 32.04C209.675 32.04 210.15 32.168 210.555 32.424C210.96 32.6693 211.27 33.0107 211.483 33.448C211.707 33.8853 211.819 34.376 211.819 34.92V40.84C211.819 40.9467 211.766 41 211.659 41H209.531C209.478 41 209.435 40.984 209.403 40.952C209.371 40.92 209.355 40.8827 209.355 40.84V35.16C209.355 34.36 209.014 33.96 208.331 33.96C207.894 33.96 207.536 34.1413 207.259 34.504C206.982 34.856 206.843 35.4053 206.843 36.152V40.84C206.843 40.9467 206.79 41 206.683 41H204.539C204.432 41 204.379 40.9467 204.379 40.84V35.16C204.379 34.36 204.038 33.96 203.355 33.96C202.918 33.96 202.56 34.1413 202.283 34.504C202.006 34.856 201.867 35.4053 201.867 36.152V40.84C201.867 40.8827 201.851 40.92 201.819 40.952C201.787 40.984 201.744 41 201.691 41H199.563ZM212.969 41C212.927 41 212.889 40.984 212.857 40.952C212.825 40.92 212.809 40.8827 212.809 40.84V34.552C212.809 33.976 212.783 33.5493 212.729 33.272C212.687 32.9947 212.601 32.696 212.473 32.376L212.457 32.312C212.457 32.2373 212.505 32.2 212.601 32.2H215.113C215.156 32.2 215.193 32.216 215.225 32.248C215.257 32.28 215.273 32.3173 215.273 32.36V40.84C215.273 40.8827 215.257 40.92 215.225 40.952C215.193 40.984 215.156 41 215.113 41H212.969ZM214.025 31.8C213.631 31.8 213.3 31.7147 213.033 31.544C212.767 31.3733 212.633 31.1227 212.633 30.792C212.633 30.4507 212.761 30.2 213.017 30.04C213.284 29.88 213.62 29.8 214.025 29.8C214.441 29.8 214.783 29.88 215.049 30.04C215.316 30.2 215.449 30.4507 215.449 30.792C215.449 31.1227 215.311 31.3733 215.033 31.544C214.767 31.7147 214.431 31.8 214.025 31.8ZM216.485 41C216.378 41 216.325 40.9467 216.325 40.84V32.152C216.325 31.576 216.298 31.1493 216.245 30.872C216.202 30.5947 216.117 30.296 215.989 29.976L215.973 29.912C215.973 29.8373 216.021 29.8 216.117 29.8H218.629C218.736 29.8 218.789 29.8533 218.789 29.96V40.84C218.789 40.9467 218.736 41 218.629 41H216.485ZM220.001 41C219.894 41 219.84 40.9467 219.84 40.84V32.152C219.84 31.576 219.814 31.1493 219.761 30.872C219.718 30.5947 219.633 30.296 219.505 29.976L219.489 29.912C219.489 29.8373 219.537 29.8 219.633 29.8H222.145C222.251 29.8 222.305 29.8533 222.305 29.96V36.024C222.305 36.1093 222.331 36.152 222.385 36.152C222.438 36.152 222.475 36.1253 222.497 36.072L224.513 33.144C224.619 32.9733 224.673 32.8133 224.673 32.664C224.673 32.568 224.657 32.488 224.625 32.424C224.614 32.4027 224.609 32.376 224.609 32.344C224.609 32.248 224.651 32.2 224.737 32.2H227.745C227.83 32.2 227.873 32.2373 227.873 32.312C227.873 32.3653 227.846 32.408 227.793 32.44C227.558 32.6 227.345 32.8293 227.153 33.128L225.217 35.976C225.099 36.1467 225.041 36.2853 225.041 36.392C225.041 36.5093 225.094 36.6427 225.201 36.792L227.857 40.808C227.878 40.8293 227.889 40.8613 227.889 40.904C227.889 40.968 227.841 41 227.745 41H225.137C225.051 41 224.987 40.9627 224.945 40.888L222.497 36.92C222.454 36.856 222.417 36.824 222.385 36.824C222.331 36.824 222.305 36.872 222.305 36.968V40.84C222.305 40.9467 222.251 41 222.145 41H220.001ZM231.383 41C231.276 41 231.223 40.9467 231.223 40.84V32.152C231.223 31.576 231.196 31.1493 231.143 30.872C231.1 30.5947 231.015 30.296 230.887 29.976L230.871 29.912C230.871 29.8373 230.919 29.8 231.015 29.8H234.199C234.295 29.8 234.359 29.8373 234.391 29.912L237.543 36.872C237.575 36.936 237.612 36.968 237.655 36.968C237.729 36.968 237.767 36.9147 237.767 36.808V32.152C237.767 31.576 237.74 31.1493 237.687 30.872C237.644 30.5947 237.559 30.296 237.431 29.976L237.415 29.912C237.415 29.8373 237.463 29.8 237.559 29.8H240.407C240.46 29.8 240.497 29.816 240.519 29.848C240.551 29.88 240.556 29.9227 240.535 29.976C240.407 30.296 240.316 30.5947 240.263 30.872C240.22 31.1493 240.199 31.576 240.199 32.152V40.84C240.199 40.9467 240.145 41 240.039 41H237.223C237.137 41 237.073 40.9627 237.031 40.888L233.863 33.912C233.841 33.8587 233.809 33.832 233.767 33.832C233.692 33.832 233.655 33.88 233.655 33.976V40.84C233.655 40.9467 233.601 41 233.495 41H231.383ZM245.095 42.92C244.466 42.92 243.874 42.8507 243.319 42.712C242.775 42.584 242.354 42.408 242.055 42.184C241.831 42.024 241.719 41.8 241.719 41.512V40.056C241.719 39.9493 241.762 39.896 241.847 39.896C241.89 39.896 241.938 39.9227 241.991 39.976C242.375 40.328 242.802 40.6 243.271 40.792C243.741 40.9733 244.295 41.064 244.935 41.064C245.607 41.064 246.146 40.888 246.551 40.536C246.967 40.184 247.175 39.72 247.175 39.144V38.952C247.175 38.888 247.149 38.856 247.095 38.856C247.053 38.856 247.015 38.8773 246.983 38.92C246.77 39.2293 246.477 39.496 246.103 39.72C245.73 39.9333 245.266 40.04 244.711 40.04C244.029 40.04 243.415 39.88 242.871 39.56C242.338 39.24 241.917 38.7813 241.607 38.184C241.309 37.576 241.159 36.8613 241.159 36.04C241.159 35.2187 241.309 34.5093 241.607 33.912C241.917 33.304 242.338 32.84 242.871 32.52C243.415 32.2 244.029 32.04 244.711 32.04C245.714 32.04 246.477 32.408 246.999 33.144C247.031 33.1973 247.069 33.224 247.111 33.224C247.143 33.224 247.17 33.2133 247.191 33.192C247.213 33.16 247.223 33.1227 247.223 33.08V32.36C247.223 32.2533 247.277 32.2 247.383 32.2H249.511C249.565 32.2 249.607 32.216 249.639 32.248C249.671 32.28 249.687 32.3173 249.687 32.36V38.68C249.687 40.088 249.277 41.144 248.455 41.848C247.634 42.5627 246.514 42.92 245.095 42.92ZM245.415 37.928C245.959 37.928 246.386 37.7573 246.695 37.416C247.015 37.064 247.175 36.6053 247.175 36.04C247.175 35.4533 247.015 34.9787 246.695 34.616C246.386 34.2533 245.959 34.072 245.415 34.072C244.871 34.072 244.439 34.2533 244.119 34.616C243.81 34.9787 243.655 35.4533 243.655 36.04C243.655 36.6053 243.81 37.064 244.119 37.416C244.439 37.7573 244.871 37.928 245.415 37.928ZM250.907 41C250.864 41 250.827 40.984 250.795 40.952C250.763 40.92 250.747 40.8827 250.747 40.84V32.152C250.747 31.576 250.72 31.1493 250.667 30.872C250.624 30.5947 250.539 30.296 250.411 29.976L250.395 29.912C250.395 29.8373 250.443 29.8 250.539 29.8H253.051C253.093 29.8 253.131 29.816 253.163 29.848C253.195 29.88 253.211 29.9173 253.211 29.96V33.24C253.211 33.2827 253.216 33.32 253.227 33.352C253.237 33.3733 253.253 33.384 253.275 33.384C253.317 33.384 253.36 33.3467 253.403 33.272C253.637 32.888 253.915 32.5893 254.235 32.376C254.565 32.152 255.051 32.04 255.691 32.04C256.64 32.04 257.355 32.3173 257.835 32.872C258.315 33.4267 258.555 34.1627 258.555 35.08V40.84C258.555 40.8827 258.539 40.92 258.507 40.952C258.475 40.984 258.437 41 258.395 41H256.251C256.208 41 256.171 40.984 256.139 40.952C256.107 40.92 256.091 40.8827 256.091 40.84V35.304C256.091 34.856 255.973 34.52 255.739 34.296C255.504 34.072 255.2 33.96 254.827 33.96C254.304 33.96 253.904 34.1467 253.627 34.52C253.349 34.8933 253.211 35.4267 253.211 36.12V40.84C253.211 40.8827 253.195 40.92 253.163 40.952C253.131 40.984 253.093 41 253.051 41H250.907ZM263.912 41.16C262.941 41.16 262.098 40.9787 261.384 40.616C260.669 40.2533 260.114 39.7307 259.72 39.048C259.336 38.3547 259.144 37.528 259.144 36.568C259.144 35.5973 259.341 34.7707 259.736 34.088C260.13 33.4053 260.653 32.8933 261.304 32.552C261.954 32.2107 262.658 32.04 263.416 32.04C264.642 32.04 265.602 32.3867 266.296 33.08C266.989 33.7627 267.336 34.712 267.336 35.928C267.336 36.1307 267.33 36.2853 267.32 36.392C267.298 36.7227 267.25 36.9627 267.176 37.112C267.112 37.2613 267.005 37.3627 266.856 37.416C266.717 37.4587 266.488 37.48 266.168 37.48H261.896C261.821 37.48 261.773 37.496 261.752 37.528C261.73 37.5493 261.725 37.5867 261.736 37.64C261.8 38.0667 262.04 38.4133 262.456 38.68C262.882 38.936 263.458 39.064 264.184 39.064C264.632 39.064 265.064 39.0107 265.48 38.904C265.906 38.7973 266.274 38.632 266.584 38.408C266.616 38.3867 266.653 38.376 266.696 38.376C266.76 38.376 266.792 38.4133 266.792 38.488V39.992C266.792 40.2053 266.76 40.3707 266.696 40.488C266.632 40.5947 266.509 40.6907 266.328 40.776C265.816 41.032 265.01 41.16 263.912 41.16ZM264.648 35.848C264.776 35.848 264.861 35.816 264.904 35.752C264.957 35.6773 264.984 35.5653 264.984 35.416C264.984 34.968 264.84 34.6213 264.552 34.376C264.264 34.12 263.88 33.992 263.4 33.992C262.92 33.992 262.525 34.1307 262.216 34.408C261.906 34.6853 261.752 35.032 261.752 35.448C261.752 35.7147 261.864 35.848 262.088 35.848H264.648ZM261.88 42.776C261.816 42.776 261.784 42.744 261.784 42.68V42.04C261.784 41.976 261.816 41.944 261.88 41.944H264.568C264.632 41.944 264.664 41.976 264.664 42.04V42.68C264.664 42.744 264.632 42.776 264.568 42.776H261.88ZM261.208 31.544C261.101 31.5333 261.048 31.4853 261.048 31.4V30.792C261.048 30.728 261.08 30.696 261.144 30.696C261.57 30.7067 261.933 30.648 262.232 30.52C262.541 30.392 262.866 30.1307 263.208 29.736C263.261 29.6827 263.314 29.656 263.368 29.656C263.421 29.656 263.474 29.6827 263.528 29.736C263.869 30.1307 264.189 30.392 264.488 30.52C264.797 30.648 265.165 30.7067 265.592 30.696C265.656 30.696 265.688 30.728 265.688 30.792V31.4C265.688 31.4853 265.634 31.5333 265.528 31.544C265.474 31.5547 265.394 31.56 265.288 31.56C264.946 31.56 264.594 31.4907 264.232 31.352C263.869 31.2027 263.581 30.9893 263.368 30.712C263.133 31.0213 262.797 31.2507 262.36 31.4C261.933 31.5387 261.549 31.5867 261.208 31.544ZM270.101 41C270.037 41 269.989 40.984 269.957 40.952C269.925 40.9093 269.92 40.8507 269.941 40.776L273.285 30.072C273.338 29.8907 273.456 29.8 273.637 29.8H276.645C276.826 29.8 276.944 29.8907 276.997 30.072L280.357 40.776C280.368 40.7973 280.373 40.824 280.373 40.856C280.373 40.952 280.314 41 280.197 41H277.877C277.77 41 277.701 40.9467 277.669 40.84L277.221 39.256C277.2 39.1707 277.141 39.128 277.045 39.128H273.077C272.981 39.128 272.922 39.1707 272.901 39.256L272.453 40.84C272.421 40.9467 272.352 41 272.245 41H270.101ZM276.437 37.08C276.49 37.08 276.528 37.064 276.549 37.032C276.581 37 276.592 36.9573 276.581 36.904L275.221 32.232C275.189 32.1147 275.136 32.056 275.061 32.056C274.986 32.056 274.933 32.1147 274.901 32.232L273.541 36.904L273.525 36.952C273.525 37.0373 273.578 37.08 273.685 37.08H276.437ZM281.063 41C281.02 41 280.983 40.984 280.951 40.952C280.919 40.92 280.903 40.8827 280.903 40.84V34.552C280.903 33.976 280.876 33.5493 280.823 33.272C280.78 32.9947 280.695 32.696 280.567 32.376L280.551 32.312C280.551 32.2373 280.599 32.2 280.695 32.2H283.095C283.138 32.2 283.175 32.216 283.207 32.248C283.239 32.28 283.255 32.3173 283.255 32.36V33.304C283.255 33.4 283.282 33.448 283.335 33.448C283.378 33.448 283.415 33.4107 283.447 33.336C283.895 32.472 284.695 32.04 285.847 32.04C286.796 32.04 287.511 32.3173 287.991 32.872C288.471 33.4267 288.711 34.1627 288.711 35.08V40.84C288.711 40.8827 288.695 40.92 288.663 40.952C288.631 40.984 288.594 41 288.551 41H286.407C286.364 41 286.327 40.984 286.295 40.952C286.263 40.92 286.247 40.8827 286.247 40.84V35.304C286.247 34.856 286.13 34.52 285.895 34.296C285.66 34.072 285.356 33.96 284.983 33.96C284.46 33.96 284.06 34.1467 283.783 34.52C283.506 34.8933 283.367 35.4267 283.367 36.12V40.84C283.367 40.8827 283.351 40.92 283.319 40.952C283.287 40.984 283.25 41 283.207 41H281.063ZM291.056 34.536C290.64 34.536 290.309 34.4187 290.064 34.184C289.818 33.9493 289.696 33.6507 289.696 33.288C289.696 32.936 289.818 32.6427 290.064 32.408C290.309 32.1627 290.64 32.04 291.056 32.04C291.472 32.04 291.802 32.1627 292.048 32.408C292.293 32.6427 292.416 32.936 292.416 33.288C292.416 33.6507 292.293 33.9493 292.048 34.184C291.802 34.4187 291.472 34.536 291.056 34.536ZM291.056 41.16C290.64 41.16 290.309 41.0427 290.064 40.808C289.818 40.5733 289.696 40.2747 289.696 39.912C289.696 39.56 289.818 39.2667 290.064 39.032C290.309 38.7867 290.64 38.664 291.056 38.664C291.472 38.664 291.802 38.7867 292.048 39.032C292.293 39.2667 292.416 39.56 292.416 39.912C292.416 40.2747 292.293 40.5733 292.048 40.808C291.802 41.0427 291.472 41.16 291.056 41.16Z" fill="white"/>
<path d="M46.5206 74.32C42.4566 74.32 40.0566 70.832 40.0566 62.8C40.0566 54.768 42.4566 51.28 46.5206 51.28C47.5446 51.28 48.6006 51.536 49.3366 52.112C49.9766 52.624 50.1046 53.264 50.1046 54.032V56.688C50.1046 57.168 49.9126 57.392 49.6246 57.392C49.2726 57.392 49.0486 57.104 48.7606 56.752C48.4406 56.368 48.0246 55.952 47.3206 55.952C45.7206 55.952 44.9206 57.968 44.9206 62.8C44.9206 67.632 45.7206 69.648 47.3206 69.648C48.0246 69.648 48.4406 69.232 48.7606 68.848C49.0486 68.496 49.2406 68.208 49.5926 68.208C49.8806 68.208 50.1046 68.432 50.1046 68.912V71.568C50.1046 72.336 49.9766 72.976 49.3366 73.488C48.6006 74.064 47.5446 74.32 46.5206 74.32ZM51.1884 74C50.8364 74 50.6444 73.84 50.6764 73.52L52.6924 54.704C52.8204 53.488 52.7564 52.88 52.6284 52.208C52.5644 51.792 52.7564 51.6 53.0444 51.6H60.4364C60.7244 51.6 60.9164 51.792 60.8204 52.208C60.6924 52.816 60.5964 53.392 60.7244 54.704L62.7404 73.52C62.7724 73.84 62.5804 74 62.2284 74H58.7084C58.4204 74 58.2284 73.84 58.1964 73.584L57.9084 70.768C57.8764 70.448 57.7164 70.288 57.3964 70.288H55.7644C55.4444 70.288 55.2524 70.448 55.2204 70.768L54.9324 73.584C54.9004 73.872 54.6764 74 54.4204 74H51.1884ZM57.0444 66C57.3964 66 57.4604 65.84 57.4284 65.584C57.2044 62.992 57.0444 61.168 56.9164 57.616C56.9164 57.328 56.7884 57.168 56.5644 57.168C56.3404 57.168 56.2124 57.328 56.2124 57.616C56.0844 61.168 55.9244 62.992 55.7004 65.584C55.6684 65.84 55.7324 66 56.0844 66H57.0444ZM64.4259 74C64.0099 74 63.7859 73.776 63.7859 73.36V56.624C63.7859 53.872 63.6899 53.424 63.4019 52.08C63.3379 51.792 63.4979 51.6 63.7859 51.6H69.5459C70.2499 51.6 70.5059 51.792 70.5699 52.528L71.4659 62.512C71.4979 62.768 71.5939 62.864 71.7539 62.864C71.9139 62.864 72.0419 62.768 72.0739 62.512L72.9699 52.528C73.0339 51.792 73.2899 51.6 73.9939 51.6H79.9779C80.2659 51.6 80.4259 51.792 80.3619 52.08C80.0739 53.424 79.9779 53.872 79.9779 56.624V73.36C79.9779 73.776 79.7539 74 79.3379 74H76.2339C75.8179 74 75.5939 73.776 75.5939 73.36C75.5939 68.848 75.6579 63.856 75.7219 59.024C75.7219 58.8 75.6579 58.64 75.4339 58.64C75.2739 58.64 75.1459 58.736 75.1139 58.992L73.3539 73.392C73.2899 73.808 73.0339 74 72.6499 74H70.7939C70.4099 74 70.1539 73.808 70.0899 73.392L68.3299 58.96C68.2979 58.736 68.2019 58.64 68.0099 58.64C67.7859 58.64 67.7219 58.832 67.7219 59.024C67.7859 63.856 67.8499 68.848 67.8499 73.36C67.8499 73.776 67.6259 74 67.2099 74H64.4259ZM86.2384 74C85.8224 74 85.5984 73.776 85.5984 73.36V56.944C85.5984 54.192 85.5024 53.424 85.2144 52.08C85.1504 51.792 85.3104 51.6 85.5984 51.6H90.2384C90.5264 51.6 90.6864 51.792 90.6224 52.08C90.3344 53.424 90.2384 54.192 90.2384 56.944V60.24C90.2384 60.496 90.3024 60.656 90.4944 60.656C90.6544 60.656 90.7824 60.56 90.8784 60.144L91.9664 55.12C92.3184 53.456 92.0624 52.784 91.9664 52.08C91.9344 51.856 92.0304 51.6 92.2864 51.6H96.7984C97.1504 51.6 97.3104 51.824 97.2144 52.144C96.9584 52.88 96.6384 53.584 96.3184 54.992L95.6464 57.936C95.2624 59.632 94.9424 60.912 94.9424 62.256C94.9424 63.472 95.2304 64.688 95.5504 66.192L97.0224 73.296C97.0864 73.68 96.9904 74 96.4464 74H93.0224C92.6064 74 92.3184 73.808 92.2544 73.36L90.8464 64.656C90.7824 64.336 90.6864 64.24 90.5264 64.24C90.3344 64.24 90.2384 64.4 90.2384 64.688V73.36C90.2384 73.776 90.0144 74 89.5984 74H86.2384ZM98.9259 74C98.5099 74 98.2859 73.776 98.2859 73.36V56.944C98.2859 54.192 98.1899 53.424 97.9019 52.08C97.8379 51.792 97.9979 51.6 98.2859 51.6H106.798C106.99 51.6 107.118 51.728 107.118 51.92V56.368C107.118 56.72 106.83 56.784 106.478 56.592C105.262 55.952 104.59 55.728 103.854 55.728C103.118 55.728 102.926 56.016 102.926 56.528V60.112C102.926 60.304 103.054 60.432 103.246 60.432H106.286C106.478 60.432 106.606 60.56 106.606 60.752V64.56C106.606 64.752 106.478 64.88 106.286 64.88H103.246C103.054 64.88 102.926 65.008 102.926 65.2V69.2C102.926 69.392 103.054 69.52 103.246 69.52H106.894C107.086 69.52 107.214 69.648 107.214 69.84V73.68C107.214 73.872 107.086 74 106.894 74H98.9259ZM100.11 50.704C99.8219 50.704 99.7579 50.544 99.7579 50.352V49.808C99.7579 49.648 99.8219 49.52 100.046 49.488C101.006 49.328 101.614 49.04 102.286 48.496C102.446 48.368 102.574 48.272 102.734 48.272C102.894 48.272 103.022 48.368 103.182 48.496C103.854 49.04 104.462 49.328 105.422 49.488C105.646 49.52 105.71 49.648 105.71 49.808V50.352C105.71 50.544 105.646 50.704 105.358 50.704C104.398 50.704 103.278 50.192 102.734 49.616C102.19 50.192 101.07 50.704 100.11 50.704ZM100.494 47.792C100.206 47.792 100.11 47.696 100.11 47.44V46.992C100.11 46.832 100.206 46.736 100.366 46.736C101.742 46.704 103.502 46.448 105.198 45.84C105.454 45.744 105.582 45.872 105.582 46.032V46.576C105.582 46.864 105.486 46.992 105.166 47.12C103.502 47.728 101.39 47.792 100.494 47.792ZM111.705 74C111.289 74 111.065 73.776 111.065 73.36V56.24C111.065 55.952 110.937 55.696 110.457 55.696C109.945 55.696 109.625 55.952 108.761 56.656C108.313 57.008 107.897 57.136 107.897 56.592V52.24C107.897 51.824 108.121 51.6 108.537 51.6H118.233C118.649 51.6 118.873 51.824 118.873 52.24V56.592C118.873 57.136 118.457 57.008 118.009 56.656C117.145 55.952 116.825 55.696 116.313 55.696C115.833 55.696 115.705 55.952 115.705 56.24V73.36C115.705 73.776 115.481 74 115.065 74H111.705ZM124.551 74C124.135 74 123.911 73.776 123.911 73.36V56.944C123.911 54.192 123.815 53.424 123.527 52.08C123.463 51.792 123.623 51.6 123.911 51.6H129.063C133.447 51.6 135.815 54.768 135.815 62.8C135.815 70.832 133.447 74 129.063 74H124.551ZM128.967 69.616C129.991 69.616 130.951 68.56 130.951 62.8C130.951 57.04 129.991 55.984 128.967 55.984H128.871C128.679 55.984 128.551 56.112 128.551 56.304V69.296C128.551 69.488 128.679 69.616 128.871 69.616H128.967ZM142.73 74.32C139.146 74.32 137.098 72.144 137.098 68.208V56.944C137.098 54.192 137.002 53.424 136.714 52.08C136.65 51.792 136.81 51.6 137.098 51.6H141.738C142.026 51.6 142.186 51.792 142.122 52.08C141.834 53.424 141.738 54.192 141.738 56.944V68.272C141.738 69.104 142.122 69.552 142.73 69.552C143.306 69.552 143.69 69.104 143.69 68.272V56.944C143.69 54.192 143.594 53.424 143.306 52.08C143.242 51.792 143.402 51.6 143.69 51.6H148.33C148.618 51.6 148.778 51.792 148.714 52.08C148.426 53.424 148.33 54.192 148.33 56.944V68.208C148.33 72.144 146.282 74.32 142.73 74.32ZM153.748 74C153.332 74 153.108 73.776 153.108 73.36V70.96C153.108 68.912 152.98 68.112 152.276 64.944L150.164 55.568C149.78 53.872 149.588 53.36 148.98 52.048C148.852 51.792 148.98 51.6 149.236 51.6H154.388C154.644 51.6 154.74 51.856 154.708 52.048C154.516 52.784 154.324 53.456 154.708 55.472C154.932 56.688 154.996 57.872 155.22 60.08C155.252 60.4 155.316 60.656 155.572 60.656C155.828 60.656 155.892 60.4 155.924 60.08C156.148 57.872 156.244 56.688 156.468 55.472C156.852 53.456 156.66 52.784 156.468 52.048C156.436 51.856 156.532 51.6 156.788 51.6H161.492C161.748 51.6 161.876 51.792 161.748 52.048C161.14 53.36 160.916 53.872 160.564 55.568L158.612 64.944C157.94 68.112 157.748 68.912 157.748 70.96V73.36C157.748 73.776 157.524 74 157.108 74H153.748ZM169.111 74C168.695 74 168.471 73.776 168.471 73.36V56.24C168.471 55.952 168.343 55.696 167.863 55.696C167.351 55.696 167.031 55.952 166.167 56.656C165.719 57.008 165.303 57.136 165.303 56.592V52.24C165.303 51.824 165.527 51.6 165.943 51.6H175.639C176.055 51.6 176.279 51.824 176.279 52.24V56.592C176.279 57.136 175.863 57.008 175.415 56.656C174.551 55.952 174.231 55.696 173.719 55.696C173.239 55.696 173.111 55.952 173.111 56.24V73.36C173.111 73.776 172.887 74 172.471 74H169.111ZM178.051 74C177.635 74 177.411 73.776 177.411 73.36V56.944C177.411 54.192 177.315 53.424 177.027 52.08C176.963 51.792 177.123 51.6 177.411 51.6H182.595C186.723 51.6 188.611 54.704 188.611 59.472C188.611 61.424 188.195 63.216 187.427 64.432C186.915 65.232 186.851 65.936 187.011 66.608L188.707 73.232C188.771 73.488 188.771 74 188.163 74H184.739C184.355 74 184.131 73.808 184.035 73.392L182.659 67.152C182.595 66.896 182.531 66.672 182.275 66.672C182.051 66.672 181.955 66.864 181.955 67.184V73.36C181.955 73.776 181.731 74 181.315 74H178.051ZM182.531 63.536C183.363 63.536 184.003 62.416 184.003 59.536C184.003 56.688 183.363 55.568 182.531 55.568H182.403C182.115 55.568 181.955 55.728 181.955 56.016V63.088C181.955 63.376 182.115 63.536 182.403 63.536H182.531ZM190.488 74C190.072 74 189.848 73.776 189.848 73.36V56.624C189.848 53.872 189.752 53.424 189.464 52.08C189.4 51.792 189.56 51.6 189.848 51.6H194.488C194.776 51.6 194.936 51.792 194.872 52.08C194.584 53.424 194.488 53.872 194.488 56.624V73.36C194.488 73.776 194.264 74 193.848 74H190.488ZM195.064 50.64C193.88 50.672 191.384 50.544 189.464 49.84C189.144 49.712 189.048 49.584 189.048 49.296V48.656C189.048 48.496 189.176 48.368 189.368 48.432C191.384 49.2 193.496 49.488 195.192 49.488C195.352 49.488 195.448 49.584 195.448 49.744V50.288C195.448 50.544 195.352 50.64 195.064 50.64ZM203.33 74C202.914 74 202.69 73.776 202.69 73.36V56.24C202.69 55.952 202.562 55.696 202.082 55.696C201.57 55.696 201.25 55.952 200.386 56.656C199.938 57.008 199.522 57.136 199.522 56.592V52.24C199.522 51.824 199.746 51.6 200.162 51.6H209.858C210.274 51.6 210.498 51.824 210.498 52.24V56.592C210.498 57.136 210.082 57.008 209.634 56.656C208.77 55.952 208.45 55.696 207.938 55.696C207.458 55.696 207.33 55.952 207.33 56.24V73.36C207.33 73.776 207.106 74 206.69 74H203.33ZM212.27 74C211.854 74 211.63 73.776 211.63 73.36V56.944C211.63 54.192 211.534 53.424 211.246 52.08C211.182 51.792 211.342 51.6 211.63 51.6H216.814C220.942 51.6 222.83 54.704 222.83 59.472C222.83 61.424 222.414 63.216 221.646 64.432C221.134 65.232 221.07 65.936 221.23 66.608L222.926 73.232C222.99 73.488 222.99 74 222.382 74H218.958C218.574 74 218.35 73.808 218.254 73.392L216.878 67.152C216.814 66.896 216.75 66.672 216.494 66.672C216.27 66.672 216.174 66.864 216.174 67.184V73.36C216.174 73.776 215.95 74 215.534 74H212.27ZM216.75 63.536C217.582 63.536 218.222 62.416 218.222 59.536C218.222 56.688 217.582 55.568 216.75 55.568H216.622C216.334 55.568 216.174 55.728 216.174 56.016V63.088C216.174 63.376 216.334 63.536 216.622 63.536H216.75ZM229.667 74.32C226.083 74.32 224.035 72.144 224.035 68.208V56.944C224.035 54.192 223.939 53.424 223.651 52.08C223.587 51.792 223.747 51.6 224.035 51.6H228.675C228.963 51.6 229.123 51.792 229.059 52.08C228.771 53.424 228.675 54.192 228.675 56.944V68.272C228.675 69.104 229.059 69.552 229.667 69.552C230.243 69.552 230.627 69.104 230.627 68.272V56.944C230.627 54.192 230.531 53.424 230.243 52.08C230.179 51.792 230.339 51.6 230.627 51.6H235.267C235.555 51.6 235.715 51.792 235.651 52.08C235.363 53.424 235.267 54.192 235.267 56.944V68.208C235.267 72.144 233.219 74.32 229.667 74.32ZM237.613 74C237.197 74 236.973 73.776 236.973 73.36V56.624C236.973 53.872 236.877 53.424 236.589 52.08C236.525 51.792 236.685 51.6 236.973 51.6H240.685C241.069 51.6 241.325 51.792 241.389 52.144L243.437 61.84C243.469 62.064 243.597 62.192 243.789 62.192C244.013 62.192 244.077 62.032 244.077 61.776C244.045 60.912 244.109 58.128 244.045 56.304C243.949 53.872 243.853 53.424 243.565 52.08C243.501 51.792 243.661 51.6 243.949 51.6H248.141C248.429 51.6 248.589 51.792 248.525 52.08C248.237 53.424 248.141 53.872 248.141 56.624V73.36C248.141 73.776 247.917 74 247.501 74H244.429C244.045 74 243.789 73.808 243.725 73.456L241.645 63.728C241.613 63.504 241.485 63.408 241.325 63.408C241.133 63.408 241.005 63.536 241.005 63.792C241.101 65.936 241.197 70.384 241.197 73.36C241.197 73.776 240.973 74 240.557 74H237.613ZM255.8 74.32C251.32 74.32 249.432 70.512 249.432 62.8C249.432 54.736 251.864 51.28 256.056 51.28C257.272 51.28 258.552 51.472 259.256 52.208C259.64 52.592 259.8 53.072 259.8 53.744V56.656C259.8 57.072 259.704 57.424 259.32 57.424C259.096 57.424 258.904 57.328 258.488 56.848C258.136 56.432 257.688 55.952 256.92 55.952C255.128 55.952 254.264 58.064 254.264 62.864C254.264 64.176 254.328 69.968 255.704 69.968C255.992 69.968 256.12 69.68 256.12 69.232V66.416C256.12 63.664 256.024 63.216 255.736 61.872C255.672 61.584 255.832 61.392 256.12 61.392H259.576C259.992 61.392 260.248 61.616 260.248 62.032V69.072C260.248 72.976 258.168 74.32 255.8 74.32ZM266.145 74C265.729 74 265.505 73.776 265.505 73.36V56.944C265.505 54.192 265.409 53.424 265.121 52.08C265.057 51.792 265.217 51.6 265.505 51.6H270.145C270.433 51.6 270.593 51.792 270.529 52.08C270.241 53.424 270.145 54.192 270.145 56.944V59.664C270.145 59.792 270.209 59.856 270.337 59.856H272.193C272.321 59.856 272.385 59.792 272.385 59.664V56.944C272.385 54.192 272.289 53.424 272.001 52.08C271.937 51.792 272.097 51.6 272.385 51.6H277.025C277.313 51.6 277.473 51.792 277.409 52.08C277.121 53.424 277.025 54.192 277.025 56.944V73.36C277.025 73.776 276.801 74 276.385 74H273.025C272.609 74 272.385 73.776 272.385 73.36V65.008C272.385 64.88 272.321 64.816 272.193 64.816H270.337C270.209 64.816 270.145 64.88 270.145 65.008V73.36C270.145 73.776 269.921 74 269.505 74H266.145ZM284.547 74.32C280.739 74.32 278.339 71.472 278.339 62.8C278.339 54.128 280.739 51.28 284.547 51.28C288.355 51.28 290.787 54.128 290.787 62.8C290.787 71.472 288.355 74.32 284.547 74.32ZM284.547 69.84C285.283 69.84 285.891 69.008 285.891 62.8C285.891 56.56 285.283 55.76 284.547 55.76C283.811 55.76 283.235 56.56 283.235 62.8C283.235 69.008 283.811 69.84 284.547 69.84ZM287.395 50.64C286.211 50.672 283.715 50.544 281.795 49.84C281.475 49.712 281.379 49.584 281.379 49.296V48.656C281.379 48.496 281.507 48.368 281.699 48.432C283.715 49.2 285.827 49.488 287.523 49.488C287.683 49.488 287.779 49.584 287.779 49.744V50.288C287.779 50.544 287.683 50.64 287.395 50.64ZM291.626 74C291.274 74 291.082 73.84 291.114 73.52L293.13 54.704C293.258 53.488 293.194 52.88 293.066 52.208C293.002 51.792 293.194 51.6 293.482 51.6H300.874C301.162 51.6 301.354 51.792 301.258 52.208C301.13 52.816 301.034 53.392 301.162 54.704L303.178 73.52C303.21 73.84 303.018 74 302.666 74H299.146C298.858 74 298.666 73.84 298.634 73.584L298.346 70.768C298.314 70.448 298.154 70.288 297.834 70.288H296.202C295.882 70.288 295.69 70.448 295.658 70.768L295.37 73.584C295.338 73.872 295.114 74 294.858 74H291.626ZM297.482 66C297.834 66 297.898 65.84 297.866 65.584C297.642 62.992 297.482 61.168 297.354 57.616C297.354 57.328 297.226 57.168 297.002 57.168C296.778 57.168 296.65 57.328 296.65 57.616C296.522 61.168 296.362 62.992 296.138 65.584C296.106 65.84 296.17 66 296.522 66H297.482ZM65.6134 108C65.1974 108 64.9734 107.776 64.9734 107.36V90.944C64.9734 88.192 64.8774 87.424 64.5894 86.08C64.5254 85.792 64.6854 85.6 64.9734 85.6H69.6134C69.9014 85.6 70.0614 85.792 69.9974 86.08C69.7094 87.424 69.6134 88.192 69.6134 90.944V94.24C69.6134 94.496 69.6774 94.656 69.8694 94.656C70.0294 94.656 70.1574 94.56 70.2534 94.144L71.3414 89.12C71.6934 87.456 71.4374 86.784 71.3414 86.08C71.3094 85.856 71.4054 85.6 71.6614 85.6H76.1734C76.5254 85.6 76.6854 85.824 76.5894 86.144C76.3334 86.88 76.0134 87.584 75.6934 88.992L75.0214 91.936C74.6374 93.632 74.3174 94.912 74.3174 96.256C74.3174 97.472 74.6054 98.688 74.9254 100.192L76.3974 107.296C76.4614 107.68 76.3654 108 75.8214 108H72.3974C71.9814 108 71.6934 107.808 71.6294 107.36L70.2214 98.656C70.1574 98.336 70.0614 98.24 69.9014 98.24C69.7094 98.24 69.6134 98.4 69.6134 98.688V107.36C69.6134 107.776 69.3894 108 68.9734 108H65.6134ZM78.3009 108C77.8849 108 77.6609 107.776 77.6609 107.36V90.944C77.6609 88.192 77.5649 87.424 77.2769 86.08C77.2129 85.792 77.3729 85.6 77.6609 85.6H82.3009C82.5889 85.6 82.7489 85.792 82.6849 86.08C82.3969 87.424 82.3009 88.192 82.3009 90.944V93.664C82.3009 93.792 82.3649 93.856 82.4929 93.856H84.3489C84.4769 93.856 84.5409 93.792 84.5409 93.664V90.944C84.5409 88.192 84.4449 87.424 84.1569 86.08C84.0929 85.792 84.2529 85.6 84.5409 85.6H89.1809C89.4689 85.6 89.6289 85.792 89.5649 86.08C89.2769 87.424 89.1809 88.192 89.1809 90.944V107.36C89.1809 107.776 88.9569 108 88.5409 108H85.1809C84.7649 108 84.5409 107.776 84.5409 107.36V99.008C84.5409 98.88 84.4769 98.816 84.3489 98.816H82.4929C82.3649 98.816 82.3009 98.88 82.3009 99.008V107.36C82.3009 107.776 82.0769 108 81.6609 108H78.3009ZM96.7029 108.32C92.8949 108.32 90.4949 105.472 90.4949 96.8C90.4949 88.128 92.8949 85.28 96.7029 85.28C100.511 85.28 102.943 88.128 102.943 96.8C102.943 105.472 100.511 108.32 96.7029 108.32ZM96.7029 103.84C97.4389 103.84 98.0469 103.008 98.0469 96.8C98.0469 90.56 97.4389 89.76 96.7029 89.76C95.9669 89.76 95.3909 90.56 95.3909 96.8C95.3909 103.008 95.9669 103.84 96.7029 103.84ZM103.782 108C103.43 108 103.238 107.84 103.27 107.52L105.286 88.704C105.414 87.488 105.35 86.88 105.222 86.208C105.158 85.792 105.35 85.6 105.638 85.6H113.03C113.318 85.6 113.51 85.792 113.414 86.208C113.286 86.816 113.19 87.392 113.318 88.704L115.334 107.52C115.366 107.84 115.174 108 114.822 108H111.302C111.014 108 110.822 107.84 110.79 107.584L110.502 104.768C110.47 104.448 110.31 104.288 109.99 104.288H108.358C108.038 104.288 107.846 104.448 107.814 104.768L107.526 107.584C107.494 107.872 107.27 108 107.014 108H103.782ZM109.638 100C109.99 100 110.054 99.84 110.022 99.584C109.798 96.992 109.638 95.168 109.51 91.616C109.51 91.328 109.382 91.168 109.158 91.168C108.934 91.168 108.806 91.328 108.806 91.616C108.678 95.168 108.518 96.992 108.294 99.584C108.262 99.84 108.326 100 108.678 100H109.638ZM109.03 84.672C108.71 84.672 108.55 84.48 108.55 84.16C108.55 83.936 108.614 83.744 108.966 83.584L109.574 83.328C109.798 83.232 109.958 83.136 109.958 82.912C109.958 82.688 109.702 82.592 109.382 82.592C108.998 82.592 108.678 82.784 108.294 83.136C108.102 83.296 107.878 83.232 107.878 83.04V82.368C107.878 82.112 107.91 81.888 108.23 81.696C108.486 81.536 108.87 81.408 109.414 81.408C110.566 81.408 111.302 81.952 111.302 82.848C111.302 83.456 110.918 83.84 110.278 84.128C109.926 84.288 109.798 84.352 109.702 84.512C109.638 84.608 109.574 84.672 109.382 84.672H109.03ZM117.02 108C116.604 108 116.38 107.776 116.38 107.36V90.624C116.38 87.872 116.284 87.424 115.996 86.08C115.932 85.792 116.092 85.6 116.38 85.6H120.092C120.476 85.6 120.732 85.792 120.796 86.144L122.844 95.84C122.876 96.064 123.004 96.192 123.196 96.192C123.42 96.192 123.484 96.032 123.484 95.776C123.452 94.912 123.516 92.128 123.452 90.304C123.356 87.872 123.26 87.424 122.972 86.08C122.908 85.792 123.068 85.6 123.356 85.6H127.548C127.836 85.6 127.996 85.792 127.932 86.08C127.644 87.424 127.548 87.872 127.548 90.624V107.36C127.548 107.776 127.324 108 126.908 108H123.836C123.452 108 123.196 107.808 123.132 107.456L121.052 97.728C121.02 97.504 120.892 97.408 120.732 97.408C120.54 97.408 120.412 97.536 120.412 97.792C120.508 99.936 120.604 104.384 120.604 107.36C120.604 107.776 120.38 108 119.964 108H117.02ZM135.206 108.32C130.726 108.32 128.838 104.512 128.838 96.8C128.838 88.736 131.27 85.28 135.462 85.28C136.678 85.28 137.958 85.472 138.662 86.208C139.046 86.592 139.206 87.072 139.206 87.744V90.656C139.206 91.072 139.11 91.424 138.726 91.424C138.502 91.424 138.31 91.328 137.894 90.848C137.542 90.432 137.094 89.952 136.326 89.952C134.534 89.952 133.67 92.064 133.67 96.864C133.67 98.176 133.734 103.968 135.11 103.968C135.398 103.968 135.526 103.68 135.526 103.232V100.416C135.526 97.664 135.43 97.216 135.142 95.872C135.078 95.584 135.238 95.392 135.526 95.392H138.982C139.398 95.392 139.654 95.616 139.654 96.032V103.072C139.654 106.976 137.574 108.32 135.206 108.32ZM147.983 108C147.567 108 147.343 107.776 147.343 107.36V94.08C147.343 93.856 147.343 93.696 147.215 93.696C147.151 93.696 147.087 93.728 146.959 93.92L146.287 94.848C145.359 96.16 145.135 96.352 144.879 96.352C144.655 96.352 144.527 96.16 144.527 95.808V91.616C144.527 90.976 144.591 90.72 144.975 90.272C146.031 89.056 146.767 87.808 147.471 86.304C147.727 85.76 147.855 85.6 148.239 85.6H150.959C151.375 85.6 151.599 85.824 151.599 86.24V107.36C151.599 107.776 151.375 108 150.959 108H147.983ZM153.635 108C153.251 108 153.027 107.776 153.027 107.36V104.384C153.027 103.84 153.123 103.552 153.539 102.688L155.075 99.552C156.867 95.904 157.891 93.76 157.891 92.128C157.891 91.136 157.379 90.304 156.355 90.304C155.395 90.304 154.915 90.816 154.115 91.808C153.923 92.032 153.795 92.096 153.603 92.096C153.411 92.096 153.251 91.936 153.251 91.648V88.192C153.251 87.68 153.283 87.168 153.667 86.656C154.211 85.952 155.459 85.28 157.251 85.28C160.579 85.28 162.467 87.712 162.467 91.392C162.467 94.464 161.443 96.96 159.523 100.608L158.851 101.888C158.627 102.336 158.371 102.752 158.371 103.04C158.371 103.2 158.467 103.328 158.755 103.328H162.051C162.435 103.328 162.659 103.552 162.659 103.968V107.36C162.659 107.776 162.435 108 162.051 108H153.635ZM166.4 108.32C164.672 108.32 163.68 107.232 163.68 105.824C163.68 104.448 164.672 103.328 166.4 103.328C168.128 103.328 169.12 104.448 169.12 105.824C169.12 107.232 168.128 108.32 166.4 108.32ZM174.245 108.32C172.549 108.32 171.621 107.84 171.237 107.584C170.565 107.168 170.309 106.624 170.309 105.92V102.592C170.309 102.368 170.437 102.208 170.629 102.208C170.757 102.208 170.885 102.24 171.109 102.464C171.621 102.976 172.325 103.776 173.541 103.776C175.077 103.776 175.781 102.528 175.781 100.64C175.781 98.656 174.981 97.216 173.093 97.216C172.165 97.216 171.717 97.504 171.173 97.504C170.917 97.504 170.789 97.344 170.789 97.024L170.917 86.24C170.917 85.824 171.173 85.6 171.525 85.6H179.269C179.461 85.6 179.589 85.728 179.589 85.92V89.76C179.589 89.952 179.461 90.08 179.269 90.08H175.365C174.885 90.08 174.725 90.24 174.725 90.72V92.896C174.725 93.408 174.853 93.536 175.365 93.536C178.661 93.536 180.325 96.32 180.325 100.512C180.325 105.28 178.181 108.32 174.245 108.32ZM185.531 108.32C183.643 108.32 182.523 107.776 182.139 107.488C181.467 106.976 181.371 106.56 181.371 105.696V102.528C181.371 102.176 181.531 102.016 181.723 102.016C181.915 102.016 182.043 102.144 182.203 102.304C183.195 103.392 183.803 104.032 184.827 104.032C185.979 104.032 186.619 103.008 186.619 101.28C186.619 99.872 186.043 98.464 184.699 98.464C183.963 98.464 183.611 98.688 183.323 98.688C183.163 98.688 182.971 98.56 182.971 98.272V94.944C182.971 94.624 183.163 94.464 183.323 94.464C183.547 94.464 184.219 94.656 184.731 94.656C185.883 94.656 186.523 93.6 186.523 92C186.523 90.528 185.883 89.472 184.731 89.472C183.835 89.472 183.323 90.016 182.363 91.008C182.139 91.232 182.043 91.36 181.819 91.36C181.563 91.36 181.467 91.136 181.467 90.848V88.288C181.467 87.52 181.659 87.008 181.915 86.656C182.523 85.856 183.963 85.28 185.627 85.28C189.275 85.28 190.875 88 190.875 91.104C190.875 93.44 189.979 95.008 188.827 95.872C188.635 96.032 188.539 96.128 188.539 96.256C188.539 96.384 188.635 96.448 188.859 96.608C190.203 97.568 191.227 99.168 191.227 101.664C191.227 105.216 189.435 108.32 185.531 108.32ZM196.406 108.32C194.518 108.32 193.398 107.776 193.014 107.488C192.342 106.976 192.246 106.56 192.246 105.696V102.528C192.246 102.176 192.406 102.016 192.598 102.016C192.79 102.016 192.918 102.144 193.078 102.304C194.07 103.392 194.678 104.032 195.702 104.032C196.854 104.032 197.494 103.008 197.494 101.28C197.494 99.872 196.918 98.464 195.574 98.464C194.838 98.464 194.486 98.688 194.198 98.688C194.038 98.688 193.846 98.56 193.846 98.272V94.944C193.846 94.624 194.038 94.464 194.198 94.464C194.422 94.464 195.094 94.656 195.606 94.656C196.758 94.656 197.398 93.6 197.398 92C197.398 90.528 196.758 89.472 195.606 89.472C194.71 89.472 194.198 90.016 193.238 91.008C193.014 91.232 192.918 91.36 192.694 91.36C192.438 91.36 192.342 91.136 192.342 90.848V88.288C192.342 87.52 192.534 87.008 192.79 86.656C193.398 85.856 194.838 85.28 196.502 85.28C200.15 85.28 201.75 88 201.75 91.104C201.75 93.44 200.854 95.008 199.702 95.872C199.51 96.032 199.414 96.128 199.414 96.256C199.414 96.384 199.51 96.448 199.734 96.608C201.078 97.568 202.102 99.168 202.102 101.664C202.102 105.216 200.31 108.32 196.406 108.32ZM210.58 108C210.164 108 209.94 107.776 209.94 107.36V90.24C209.94 89.952 209.812 89.696 209.332 89.696C208.82 89.696 208.5 89.952 207.636 90.656C207.188 91.008 206.772 91.136 206.772 90.592V86.24C206.772 85.824 206.996 85.6 207.412 85.6H217.108C217.524 85.6 217.748 85.824 217.748 86.24V90.592C217.748 91.136 217.332 91.008 216.884 90.656C216.02 89.952 215.7 89.696 215.188 89.696C214.708 89.696 214.58 89.952 214.58 90.24V107.36C214.58 107.776 214.356 108 213.94 108H210.58ZM217.751 108C217.399 108 217.207 107.84 217.239 107.52L219.255 88.704C219.383 87.488 219.319 86.88 219.191 86.208C219.127 85.792 219.319 85.6 219.607 85.6H226.999C227.287 85.6 227.479 85.792 227.383 86.208C227.255 86.816 227.159 87.392 227.287 88.704L229.303 107.52C229.335 107.84 229.143 108 228.791 108H225.271C224.983 108 224.791 107.84 224.759 107.584L224.471 104.768C224.439 104.448 224.279 104.288 223.959 104.288H222.327C222.007 104.288 221.815 104.448 221.783 104.768L221.495 107.584C221.463 107.872 221.239 108 220.983 108H217.751ZM223.607 100C223.959 100 224.023 99.84 223.991 99.584C223.767 96.992 223.607 95.168 223.479 91.616C223.479 91.328 223.351 91.168 223.127 91.168C222.903 91.168 222.775 91.328 222.775 91.616C222.647 95.168 222.487 96.992 222.263 99.584C222.231 99.84 222.295 100 222.647 100H223.607ZM220.663 84.704C220.375 84.704 220.311 84.544 220.311 84.352V83.808C220.311 83.648 220.375 83.52 220.599 83.488C221.559 83.328 222.167 83.04 222.839 82.496C222.999 82.368 223.127 82.272 223.287 82.272C223.447 82.272 223.575 82.368 223.735 82.496C224.407 83.04 225.015 83.328 225.975 83.488C226.199 83.52 226.263 83.648 226.263 83.808V84.352C226.263 84.544 226.199 84.704 225.911 84.704C224.951 84.704 223.831 84.192 223.287 83.616C222.743 84.192 221.623 84.704 220.663 84.704ZM221.047 81.792C220.759 81.792 220.663 81.696 220.663 81.44V80.992C220.663 80.832 220.759 80.736 220.919 80.736C222.295 80.704 224.055 80.448 225.751 79.84C226.007 79.744 226.135 79.872 226.135 80.032V80.576C226.135 80.864 226.039 80.992 225.719 81.12C224.055 81.728 221.943 81.792 221.047 81.792ZM230.988 108C230.572 108 230.348 107.776 230.348 107.36V90.624C230.348 87.872 230.252 87.424 229.964 86.08C229.9 85.792 230.06 85.6 230.348 85.6H234.06C234.444 85.6 234.7 85.792 234.764 86.144L236.812 95.84C236.844 96.064 236.972 96.192 237.164 96.192C237.388 96.192 237.452 96.032 237.452 95.776C237.42 94.912 237.484 92.128 237.42 90.304C237.324 87.872 237.228 87.424 236.94 86.08C236.876 85.792 237.036 85.6 237.324 85.6H241.516C241.804 85.6 241.964 85.792 241.9 86.08C241.612 87.424 241.516 87.872 241.516 90.624V107.36C241.516 107.776 241.292 108 240.876 108H237.804C237.42 108 237.164 107.808 237.1 107.456L235.02 97.728C234.988 97.504 234.86 97.408 234.7 97.408C234.508 97.408 234.38 97.536 234.38 97.792C234.476 99.936 234.572 104.384 234.572 107.36C234.572 107.776 234.348 108 233.932 108H230.988ZM253.177 108.32C249.113 108.32 246.713 104.832 246.713 96.8C246.713 88.768 249.113 85.28 253.177 85.28C254.201 85.28 255.257 85.536 255.993 86.112C256.633 86.624 256.761 87.264 256.761 88.032V90.688C256.761 91.168 256.569 91.392 256.281 91.392C255.929 91.392 255.705 91.104 255.417 90.752C255.097 90.368 254.681 89.952 253.977 89.952C252.377 89.952 251.577 91.968 251.577 96.8C251.577 101.632 252.377 103.648 253.977 103.648C254.681 103.648 255.097 103.232 255.417 102.848C255.705 102.496 255.897 102.208 256.249 102.208C256.537 102.208 256.761 102.432 256.761 102.912V105.568C256.761 106.336 256.633 106.976 255.993 107.488C255.257 108.064 254.201 108.32 253.177 108.32ZM263.609 108.32C259.801 108.32 257.401 105.472 257.401 96.8C257.401 88.128 259.801 85.28 263.609 85.28C267.417 85.28 269.849 88.128 269.849 96.8C269.849 105.472 267.417 108.32 263.609 108.32ZM263.609 103.84C264.345 103.84 264.953 103.008 264.953 96.8C264.953 90.56 264.345 89.76 263.609 89.76C262.873 89.76 262.297 90.56 262.297 96.8C262.297 103.008 262.873 103.84 263.609 103.84ZM271.833 110.464C271.545 110.464 271.353 110.272 271.353 109.984V107.968C271.353 107.424 271.449 107.104 271.929 106.528L273.593 104.48C274.137 103.808 274.297 103.456 274.297 103.008C274.297 102.624 274.041 102.368 273.561 102.368C273.145 102.368 272.729 102.56 272.185 103.104C271.993 103.296 271.897 103.36 271.769 103.36C271.641 103.36 271.545 103.264 271.545 103.104V100.768C271.545 100.16 271.609 99.968 271.833 99.648C272.121 99.264 273.017 98.784 274.233 98.784C276.377 98.784 277.625 100.032 277.625 102.336C277.625 103.84 277.081 105.024 276.441 105.76L275.705 106.624C275.577 106.752 275.513 106.912 275.513 106.976C275.513 107.072 275.577 107.2 275.769 107.2H277.433C277.721 107.2 277.913 107.36 277.913 107.68V109.984C277.913 110.272 277.721 110.464 277.433 110.464H271.833Z" fill="white"/>
<path d="M114.72 131.96C114.667 131.96 114.619 131.944 114.576 131.912C114.544 131.891 114.501 131.837 114.448 131.752C113.968 130.963 113.584 130.019 113.296 128.92C113.008 127.811 112.864 126.685 112.864 125.544C112.864 124.392 113.008 123.267 113.296 122.168C113.584 121.059 113.968 120.109 114.448 119.32C114.501 119.235 114.544 119.181 114.576 119.16C114.619 119.128 114.667 119.112 114.72 119.112H115.84C115.893 119.112 115.925 119.128 115.936 119.16C115.957 119.192 115.952 119.229 115.92 119.272C115.408 120.125 115.008 121.101 114.72 122.2C114.432 123.288 114.288 124.403 114.288 125.544C114.288 126.664 114.432 127.773 114.72 128.872C115.019 129.971 115.419 130.947 115.92 131.8L115.952 131.88C115.952 131.933 115.915 131.96 115.84 131.96H114.72ZM119.949 131.16C119.021 131.16 118.216 131 117.533 130.68C116.85 130.349 116.509 129.848 116.509 129.176V127.816C116.509 127.699 116.546 127.64 116.621 127.64C116.664 127.64 116.706 127.677 116.749 127.752C117.09 128.339 117.528 128.797 118.061 129.128C118.594 129.448 119.261 129.608 120.061 129.608C120.797 129.608 121.362 129.459 121.757 129.16C122.162 128.851 122.365 128.424 122.365 127.88C122.365 127.411 122.232 127.059 121.965 126.824C121.709 126.579 121.272 126.413 120.653 126.328L119.389 126.152C118.461 126.024 117.757 125.709 117.277 125.208C116.808 124.696 116.573 124.013 116.573 123.16C116.573 122.147 116.93 121.347 117.645 120.76C118.36 120.173 119.336 119.88 120.573 119.88C121.416 119.88 122.152 120.035 122.781 120.344C123.41 120.643 123.725 121.096 123.725 121.704V123.176C123.725 123.229 123.714 123.277 123.693 123.32C123.672 123.352 123.645 123.368 123.613 123.368C123.56 123.368 123.506 123.325 123.453 123.24C123.08 122.632 122.658 122.179 122.189 121.88C121.72 121.581 121.165 121.432 120.525 121.432C119.832 121.432 119.288 121.571 118.893 121.848C118.509 122.125 118.317 122.525 118.317 123.048C118.317 123.464 118.434 123.8 118.669 124.056C118.914 124.301 119.266 124.456 119.725 124.52L121.357 124.744C122.253 124.872 122.936 125.192 123.405 125.704C123.874 126.205 124.109 126.867 124.109 127.688C124.109 128.776 123.736 129.629 122.989 130.248C122.253 130.856 121.24 131.16 119.949 131.16ZM129.284 131.16C128.388 131.16 127.599 130.979 126.916 130.616C126.234 130.243 125.7 129.715 125.316 129.032C124.943 128.339 124.756 127.528 124.756 126.6C124.756 125.672 124.943 124.867 125.316 124.184C125.7 123.491 126.234 122.963 126.916 122.6C127.599 122.227 128.388 122.04 129.284 122.04C129.956 122.04 130.5 122.131 130.916 122.312C131.343 122.493 131.556 122.733 131.556 123.032V124.472C131.556 124.568 131.524 124.616 131.46 124.616C131.407 124.616 131.348 124.579 131.284 124.504C130.815 123.939 130.154 123.656 129.3 123.656C128.436 123.656 127.759 123.923 127.268 124.456C126.778 124.979 126.532 125.693 126.532 126.6C126.532 127.507 126.778 128.227 127.268 128.76C127.77 129.283 128.452 129.544 129.316 129.544C130.138 129.544 130.794 129.336 131.284 128.92C131.37 128.856 131.434 128.824 131.476 128.824C131.53 128.824 131.556 128.872 131.556 128.968V130.104C131.556 130.403 131.343 130.653 130.916 130.856C130.5 131.059 129.956 131.16 129.284 131.16ZM136.327 131.16C135.463 131.16 134.7 130.973 134.039 130.6C133.388 130.216 132.882 129.683 132.519 129C132.156 128.307 131.975 127.507 131.975 126.6C131.975 125.693 132.156 124.899 132.519 124.216C132.882 123.523 133.388 122.989 134.039 122.616C134.7 122.232 135.463 122.04 136.327 122.04C137.191 122.04 137.948 122.232 138.599 122.616C139.26 122.989 139.767 123.523 140.119 124.216C140.482 124.899 140.663 125.693 140.663 126.6C140.663 127.507 140.482 128.307 140.119 129C139.767 129.683 139.26 130.216 138.599 130.6C137.948 130.973 137.191 131.16 136.327 131.16ZM136.327 129.56C137.106 129.56 137.724 129.293 138.183 128.76C138.652 128.216 138.887 127.496 138.887 126.6C138.887 125.704 138.652 124.989 138.183 124.456C137.724 123.912 137.106 123.64 136.327 123.64C135.548 123.64 134.924 123.912 134.455 124.456C133.986 124.989 133.751 125.704 133.751 126.6C133.751 127.496 133.986 128.216 134.455 128.76C134.924 129.293 135.548 129.56 136.327 129.56ZM141.69 132.76C141.647 132.76 141.61 132.744 141.578 132.712C141.546 132.68 141.53 132.643 141.53 132.6V124.312C141.53 123.789 141.508 123.411 141.465 123.176C141.434 122.941 141.364 122.68 141.258 122.392C141.247 122.371 141.242 122.344 141.242 122.312C141.242 122.237 141.284 122.2 141.37 122.2H143.098C143.151 122.2 143.194 122.216 143.226 122.248C143.258 122.28 143.274 122.317 143.274 122.36V123.384C143.274 123.448 143.295 123.485 143.338 123.496C143.391 123.507 143.434 123.485 143.466 123.432C143.679 123.069 144.015 122.749 144.474 122.472C144.932 122.184 145.519 122.04 146.234 122.04C147.002 122.04 147.674 122.232 148.25 122.616C148.836 122.989 149.284 123.523 149.594 124.216C149.914 124.899 150.074 125.693 150.074 126.6C150.074 127.507 149.914 128.307 149.594 129C149.284 129.683 148.836 130.216 148.25 130.6C147.674 130.973 147.002 131.16 146.234 131.16C145.519 131.16 144.927 131.021 144.458 130.744C143.999 130.456 143.668 130.131 143.466 129.768C143.434 129.725 143.402 129.704 143.37 129.704C143.306 129.704 143.274 129.741 143.274 129.816V132.6C143.274 132.643 143.258 132.68 143.226 132.712C143.194 132.744 143.151 132.76 143.098 132.76H141.69ZM145.77 129.656C146.527 129.656 147.13 129.379 147.578 128.824C148.036 128.269 148.266 127.528 148.266 126.6C148.266 125.672 148.036 124.931 147.578 124.376C147.13 123.821 146.527 123.544 145.77 123.544C144.991 123.544 144.367 123.821 143.898 124.376C143.428 124.931 143.194 125.672 143.194 126.6C143.194 127.528 143.428 128.269 143.898 128.824C144.367 129.379 144.991 129.656 145.77 129.656ZM155.332 131.16C154.436 131.16 153.641 130.989 152.948 130.648C152.265 130.296 151.732 129.779 151.348 129.096C150.964 128.403 150.772 127.56 150.772 126.568C150.772 125.619 150.953 124.803 151.316 124.12C151.679 123.437 152.175 122.92 152.804 122.568C153.433 122.216 154.143 122.04 154.932 122.04C156.052 122.04 156.948 122.365 157.62 123.016C158.303 123.656 158.644 124.557 158.644 125.72C158.644 126.157 158.612 126.488 158.548 126.712C158.484 126.925 158.372 127.069 158.212 127.144C158.063 127.219 157.839 127.256 157.54 127.256H152.82C152.671 127.256 152.601 127.32 152.612 127.448C152.697 128.099 152.991 128.621 153.492 129.016C154.004 129.411 154.665 129.608 155.476 129.608C156.436 129.608 157.289 129.256 158.036 128.552C158.079 128.509 158.127 128.488 158.18 128.488C158.255 128.488 158.292 128.536 158.292 128.632V129.8C158.292 129.939 158.26 130.067 158.196 130.184C158.132 130.291 158.02 130.403 157.86 130.52C157.615 130.691 157.273 130.84 156.836 130.968C156.409 131.096 155.908 131.16 155.332 131.16ZM156.692 125.896C156.863 125.896 156.953 125.811 156.964 125.64L156.98 125.416C156.98 124.883 156.799 124.435 156.436 124.072C156.073 123.709 155.567 123.528 154.916 123.528C154.169 123.528 153.609 123.741 153.236 124.168C152.863 124.584 152.66 125.075 152.628 125.64V125.672C152.628 125.736 152.655 125.789 152.708 125.832C152.772 125.875 152.841 125.896 152.916 125.896H156.692ZM164.748 131C164.641 131 164.588 130.947 164.588 130.84V122.968C164.588 122.883 164.561 122.84 164.508 122.84C164.465 122.84 164.423 122.861 164.38 122.904C163.964 123.363 163.537 123.688 163.1 123.88C162.673 124.061 162.3 124.152 161.98 124.152C161.863 124.152 161.804 124.093 161.804 123.976V122.792C161.804 122.685 161.852 122.627 161.948 122.616C162.577 122.445 163.132 122.152 163.612 121.736C164.103 121.32 164.471 120.797 164.716 120.168C164.748 120.083 164.812 120.04 164.908 120.04H166.188C166.295 120.04 166.348 120.093 166.348 120.2V130.84C166.348 130.947 166.295 131 166.188 131H164.748ZM168.148 132.568C167.935 132.568 167.769 132.531 167.652 132.456C167.535 132.392 167.476 132.296 167.476 132.168V131.704C167.476 131.661 167.487 131.635 167.508 131.624C167.54 131.613 167.577 131.624 167.62 131.656C167.759 131.763 167.945 131.816 168.18 131.816C168.415 131.816 168.591 131.757 168.708 131.64C168.825 131.523 168.884 131.384 168.884 131.224C168.884 131.139 168.836 131.096 168.74 131.096H168.5C168.18 131.096 167.929 131.016 167.748 130.856C167.577 130.685 167.492 130.461 167.492 130.184C167.492 129.896 167.588 129.661 167.78 129.48C167.972 129.288 168.233 129.192 168.564 129.192C168.927 129.192 169.209 129.325 169.412 129.592C169.625 129.848 169.732 130.205 169.732 130.664C169.732 131.272 169.593 131.741 169.316 132.072C169.049 132.403 168.66 132.568 168.148 132.568ZM176.48 131.16C175.552 131.16 174.747 131 174.064 130.68C173.382 130.349 173.04 129.848 173.04 129.176V127.816C173.04 127.699 173.078 127.64 173.152 127.64C173.195 127.64 173.238 127.677 173.28 127.752C173.622 128.339 174.059 128.797 174.592 129.128C175.126 129.448 175.792 129.608 176.592 129.608C177.328 129.608 177.894 129.459 178.288 129.16C178.694 128.851 178.896 128.424 178.896 127.88C178.896 127.411 178.763 127.059 178.496 126.824C178.24 126.579 177.803 126.413 177.184 126.328L175.92 126.152C174.992 126.024 174.288 125.709 173.808 125.208C173.339 124.696 173.104 124.013 173.104 123.16C173.104 122.147 173.462 121.347 174.176 120.76C174.891 120.173 175.867 119.88 177.104 119.88C177.947 119.88 178.683 120.035 179.312 120.344C179.942 120.643 180.256 121.096 180.256 121.704V123.176C180.256 123.229 180.246 123.277 180.224 123.32C180.203 123.352 180.176 123.368 180.144 123.368C180.091 123.368 180.038 123.325 179.984 123.24C179.611 122.632 179.19 122.179 178.72 121.88C178.251 121.581 177.696 121.432 177.056 121.432C176.363 121.432 175.819 121.571 175.424 121.848C175.04 122.125 174.848 122.525 174.848 123.048C174.848 123.464 174.966 123.8 175.2 124.056C175.446 124.301 175.798 124.456 176.256 124.52L177.888 124.744C178.784 124.872 179.467 125.192 179.936 125.704C180.406 126.205 180.64 126.867 180.64 127.688C180.64 128.776 180.267 129.629 179.52 130.248C178.784 130.856 177.771 131.16 176.48 131.16ZM185.816 131.16C184.92 131.16 184.13 130.979 183.448 130.616C182.765 130.243 182.232 129.715 181.848 129.032C181.474 128.339 181.288 127.528 181.288 126.6C181.288 125.672 181.474 124.867 181.848 124.184C182.232 123.491 182.765 122.963 183.448 122.6C184.13 122.227 184.92 122.04 185.816 122.04C186.488 122.04 187.032 122.131 187.448 122.312C187.874 122.493 188.088 122.733 188.088 123.032V124.472C188.088 124.568 188.056 124.616 187.992 124.616C187.938 124.616 187.88 124.579 187.816 124.504C187.346 123.939 186.685 123.656 185.832 123.656C184.968 123.656 184.29 123.923 183.8 124.456C183.309 124.979 183.064 125.693 183.064 126.6C183.064 127.507 183.309 128.227 183.8 128.76C184.301 129.283 184.984 129.544 185.848 129.544C186.669 129.544 187.325 129.336 187.816 128.92C187.901 128.856 187.965 128.824 188.008 128.824C188.061 128.824 188.088 128.872 188.088 128.968V130.104C188.088 130.403 187.874 130.653 187.448 130.856C187.032 131.059 186.488 131.16 185.816 131.16ZM192.858 131.16C191.994 131.16 191.232 130.973 190.57 130.6C189.92 130.216 189.413 129.683 189.05 129C188.688 128.307 188.506 127.507 188.506 126.6C188.506 125.693 188.688 124.899 189.05 124.216C189.413 123.523 189.92 122.989 190.57 122.616C191.232 122.232 191.994 122.04 192.858 122.04C193.722 122.04 194.48 122.232 195.13 122.616C195.792 122.989 196.298 123.523 196.65 124.216C197.013 124.899 197.194 125.693 197.194 126.6C197.194 127.507 197.013 128.307 196.65 129C196.298 129.683 195.792 130.216 195.13 130.6C194.48 130.973 193.722 131.16 192.858 131.16ZM192.858 129.56C193.637 129.56 194.256 129.293 194.714 128.76C195.184 128.216 195.418 127.496 195.418 126.6C195.418 125.704 195.184 124.989 194.714 124.456C194.256 123.912 193.637 123.64 192.858 123.64C192.08 123.64 191.456 123.912 190.986 124.456C190.517 124.989 190.282 125.704 190.282 126.6C190.282 127.496 190.517 128.216 190.986 128.76C191.456 129.293 192.08 129.56 192.858 129.56ZM198.221 132.76C198.178 132.76 198.141 132.744 198.109 132.712C198.077 132.68 198.061 132.643 198.061 132.6V124.312C198.061 123.789 198.039 123.411 197.997 123.176C197.965 122.941 197.895 122.68 197.789 122.392C197.778 122.371 197.773 122.344 197.773 122.312C197.773 122.237 197.815 122.2 197.901 122.2H199.629C199.682 122.2 199.725 122.216 199.757 122.248C199.789 122.28 199.805 122.317 199.805 122.36V123.384C199.805 123.448 199.826 123.485 199.869 123.496C199.922 123.507 199.965 123.485 199.997 123.432C200.21 123.069 200.546 122.749 201.005 122.472C201.463 122.184 202.05 122.04 202.765 122.04C203.533 122.04 204.205 122.232 204.781 122.616C205.367 122.989 205.815 123.523 206.125 124.216C206.445 124.899 206.605 125.693 206.605 126.6C206.605 127.507 206.445 128.307 206.125 129C205.815 129.683 205.367 130.216 204.781 130.6C204.205 130.973 203.533 131.16 202.765 131.16C202.05 131.16 201.458 131.021 200.989 130.744C200.53 130.456 200.199 130.131 199.997 129.768C199.965 129.725 199.933 129.704 199.901 129.704C199.837 129.704 199.805 129.741 199.805 129.816V132.6C199.805 132.643 199.789 132.68 199.757 132.712C199.725 132.744 199.682 132.76 199.629 132.76H198.221ZM202.301 129.656C203.058 129.656 203.661 129.379 204.109 128.824C204.567 128.269 204.797 127.528 204.797 126.6C204.797 125.672 204.567 124.931 204.109 124.376C203.661 123.821 203.058 123.544 202.301 123.544C201.522 123.544 200.898 123.821 200.429 124.376C199.959 124.931 199.725 125.672 199.725 126.6C199.725 127.528 199.959 128.269 200.429 128.824C200.898 129.379 201.522 129.656 202.301 129.656ZM211.863 131.16C210.967 131.16 210.173 130.989 209.479 130.648C208.797 130.296 208.263 129.779 207.879 129.096C207.495 128.403 207.303 127.56 207.303 126.568C207.303 125.619 207.485 124.803 207.847 124.12C208.21 123.437 208.706 122.92 209.335 122.568C209.965 122.216 210.674 122.04 211.463 122.04C212.583 122.04 213.479 122.365 214.151 123.016C214.834 123.656 215.175 124.557 215.175 125.72C215.175 126.157 215.143 126.488 215.079 126.712C215.015 126.925 214.903 127.069 214.743 127.144C214.594 127.219 214.37 127.256 214.071 127.256H209.351C209.202 127.256 209.133 127.32 209.143 127.448C209.229 128.099 209.522 128.621 210.023 129.016C210.535 129.411 211.197 129.608 212.007 129.608C212.967 129.608 213.821 129.256 214.567 128.552C214.61 128.509 214.658 128.488 214.711 128.488C214.786 128.488 214.823 128.536 214.823 128.632V129.8C214.823 129.939 214.791 130.067 214.727 130.184C214.663 130.291 214.551 130.403 214.391 130.52C214.146 130.691 213.805 130.84 213.367 130.968C212.941 131.096 212.439 131.16 211.863 131.16ZM213.223 125.896C213.394 125.896 213.485 125.811 213.495 125.64L213.511 125.416C213.511 124.883 213.33 124.435 212.967 124.072C212.605 123.709 212.098 123.528 211.447 123.528C210.701 123.528 210.141 123.741 209.767 124.168C209.394 124.584 209.191 125.075 209.159 125.64V125.672C209.159 125.736 209.186 125.789 209.239 125.832C209.303 125.875 209.373 125.896 209.447 125.896H213.223ZM218.735 131C218.629 131 218.575 130.947 218.575 130.84V129.88C218.575 129.773 218.613 129.683 218.687 129.608L221.071 127.16C221.978 126.232 222.618 125.485 222.991 124.92C223.375 124.355 223.567 123.789 223.567 123.224C223.567 122.669 223.407 122.243 223.087 121.944C222.778 121.635 222.319 121.48 221.711 121.48C221.082 121.48 220.549 121.645 220.111 121.976C219.674 122.307 219.237 122.819 218.799 123.512C218.757 123.587 218.709 123.624 218.655 123.624C218.581 123.624 218.543 123.565 218.543 123.448V122.008C218.543 121.805 218.559 121.64 218.591 121.512C218.634 121.384 218.703 121.256 218.799 121.128C219.066 120.776 219.455 120.483 219.967 120.248C220.49 120.003 221.066 119.88 221.695 119.88C222.421 119.88 223.061 120.019 223.615 120.296C224.17 120.563 224.597 120.941 224.895 121.432C225.205 121.912 225.359 122.461 225.359 123.08C225.359 123.795 225.151 124.488 224.735 125.16C224.319 125.821 223.679 126.605 222.815 127.512L221.263 129.16C221.221 129.203 221.199 129.245 221.199 129.288C221.199 129.363 221.258 129.4 221.375 129.4H225.471C225.578 129.4 225.631 129.453 225.631 129.56V130.84C225.631 130.947 225.578 131 225.471 131H218.735ZM226.194 131.96C226.141 131.96 226.104 131.944 226.082 131.912C226.072 131.88 226.082 131.843 226.114 131.8C226.616 130.947 227.01 129.971 227.298 128.872C227.597 127.773 227.746 126.664 227.746 125.544C227.746 124.403 227.602 123.288 227.314 122.2C227.026 121.101 226.626 120.125 226.114 119.272L226.082 119.192C226.082 119.139 226.12 119.112 226.194 119.112H227.314C227.368 119.112 227.41 119.128 227.442 119.16C227.485 119.181 227.533 119.235 227.586 119.32C228.066 120.109 228.45 121.059 228.738 122.168C229.026 123.267 229.17 124.392 229.17 125.544C229.17 126.685 229.026 127.811 228.738 128.92C228.45 130.019 228.066 130.963 227.586 131.752C227.533 131.837 227.485 131.891 227.442 131.912C227.41 131.944 227.368 131.96 227.314 131.96H226.194Z" fill="white"/>
</svg>
