<svg width="1440" height="774" viewBox="0 0 1440 774" fill="none" xmlns="http://www.w3.org/2000/svg">
<g clip-path="url(#clip0_113_2688)">
<rect x="100.5" y="600.5" width="140" height="133" rx="7.5" fill="#FFFFF1"/>
<rect x="100.5" y="600.5" width="140" height="133" rx="7.5" stroke="#006D5A"/>
<text fill="#006D5A" xml:space="preserve" style="white-space: pre" font-family="VNM Sans Std" font-size="14" letter-spacing="0em"><tspan x="152.952" y="629.844">T&#x1ea1;o ra</tspan></text>
<text fill="#006D5A" xml:space="preserve" style="white-space: pre" font-family="VNM Sans Display" font-size="40" font-weight="bold" letter-spacing="0em"><tspan x="127.066" y="665">9.243</tspan></text>
<text fill="#006D5A" xml:space="preserve" style="white-space: pre" font-family="VNM Sans Display" font-size="14" font-weight="bold" letter-spacing="0em"><tspan x="195" y="650">VI&#x1ec6;C&#10;</tspan><tspan x="195" y="665">L&#xc0;M</tspan></text>
<text fill="#006D5A" xml:space="preserve" style="white-space: pre" font-family="VNM Sans Std" font-size="14" letter-spacing="0em"><tspan x="112.032" y="681.844">cho x&#xe3; h&#x1ed9;i v&#xe0; c&#xe1;c &#x111;&#x1ecb;a </tspan><tspan x="120.994" y="697.844">ph&#x1b0;&#x1a1;ng Vinamilk </tspan><tspan x="139.41" y="713.844">ho&#x1ea1;t &#x111;&#x1ed9;ng</tspan></text>
<rect x="257.5" y="600.5" width="140" height="133" rx="7.5" fill="#FFFFF1"/>
<rect x="257.5" y="600.5" width="140" height="133" rx="7.5" stroke="#006D5A"/>
<text fill="#006D5A" xml:space="preserve" style="white-space: pre" font-family="VNM Sans Std" font-size="14" letter-spacing="0em"><tspan x="303.684" y="642.344">H&#x1ee3;p t&#xe1;c</tspan></text>
<text fill="#006D5A" xml:space="preserve" style="white-space: pre" font-family="VNM Sans Display" font-size="40" font-weight="bold" letter-spacing="0em"><tspan x="296.387" y="677.5">4.180</tspan></text>
<text fill="#006D5A" xml:space="preserve" style="white-space: pre" font-family="VNM Sans Display" font-size="20" font-weight="bold" letter-spacing="0em"><tspan x="306.006" y="699.9">H&#x1ed8; D&#xc2;N</tspan></text>
<rect x="414.5" y="600.5" width="140" height="133" rx="7.5" fill="#FFFFF1"/>
<rect x="414.5" y="600.5" width="140" height="133" rx="7.5" stroke="#006D5A"/>
<text fill="#006D5A" xml:space="preserve" style="white-space: pre" font-family="VNM Sans Std" font-size="14" letter-spacing="0em"><tspan x="466.952" y="629.844">T&#x1ea1;o ra</tspan></text>
<text fill="#006D5A" xml:space="preserve" style="white-space: pre" font-family="VNM Sans Display" font-size="40" font-weight="bold" letter-spacing="0em"><tspan x="440.695" y="665">1.906</tspan></text>
<text fill="#006D5A" xml:space="preserve" style="white-space: pre" font-family="VNM Sans Display" font-size="14" font-weight="bold" letter-spacing="0em"><tspan x="509.5" y="650">VI&#x1ec6;C&#10;</tspan><tspan x="509.5" y="665">L&#xc0;M</tspan></text>
<text fill="#006D5A" xml:space="preserve" style="white-space: pre" font-family="VNM Sans Std" font-size="14" letter-spacing="0em"><tspan x="424.508" y="681.844">cho ho&#x1ea1;t &#x111;&#x1ed9;ng n&#xf4;ng </tspan><tspan x="443.327" y="697.844">nghi&#x1ec7;p t&#x1eeb; c&#xe1;c &#x2028;</tspan><tspan x="457.122" y="713.844">trang tr&#x1ea1;i</tspan></text>
<rect x="571.5" y="600.5" width="140" height="133" rx="7.5" fill="#FFFFF1"/>
<rect x="571.5" y="600.5" width="140" height="133" rx="7.5" stroke="#006D5A"/>
<text fill="#006D5A" xml:space="preserve" style="white-space: pre" font-family="VNM Sans Display" font-size="40" font-weight="bold" letter-spacing="0em"><tspan x="586.168" y="655">239.254</tspan></text>
<text fill="#006D5A" xml:space="preserve" style="white-space: pre" font-family="VNM Sans Display" font-size="14" font-weight="bold" letter-spacing="0em"><tspan x="681.152" y="655">T&#x1ea4;N</tspan></text>
<text fill="#006D5A" xml:space="preserve" style="white-space: pre" font-family="VNM Sans Std" font-size="14" letter-spacing="0em"><tspan x="585.965" y="671.844">s&#x1ea3;n l&#x1b0;&#x1ee3;ng s&#x1eef;a t&#x1b0;&#x1a1;i &#x2028;</tspan><tspan x="581.959" y="687.844"> nguy&#xea;n li&#x1ec7;u thu mua </tspan><tspan x="613.015" y="703.844">n&#x103;m 2023</tspan></text>
<rect x="728.5" y="600.5" width="140" height="133" rx="7.5" fill="#FFFFF1"/>
<rect x="728.5" y="600.5" width="140" height="133" rx="7.5" stroke="#006D5A"/>
<text fill="#006D5A" xml:space="preserve" style="white-space: pre" font-family="VNM Sans Display" font-size="40" font-weight="bold" letter-spacing="0em"><tspan x="749.73" y="655">13.000</tspan></text>
<text fill="#006D5A" xml:space="preserve" style="white-space: pre" font-family="VNM Sans Display" font-size="14" font-weight="bold" letter-spacing="0em"><tspan x="831.652" y="655">T&#x1ea4;N</tspan></text>
<text fill="#006D5A" xml:space="preserve" style="white-space: pre" font-family="VNM Sans Std" font-size="14" letter-spacing="0em"><tspan x="750.696" y="671.844">ph&#xe2;n b&#xf3;n h&#x1ed7; tr&#x1ee3; </tspan><tspan x="747.545" y="687.844">ph&#xe2;n ph&#x1ed1;i &#x111;&#x1ebf;n h&#x1ed9; </tspan><tspan x="770.623" y="703.844">n&#xf4;ng d&#xe2;n</tspan></text>
<rect x="885.5" y="600.5" width="140" height="133" rx="7.5" fill="#FFFFF1"/>
<rect x="885.5" y="600.5" width="140" height="133" rx="7.5" stroke="#006D5A"/>
<text fill="#006D5A" xml:space="preserve" style="white-space: pre" font-family="VNM Sans Display" font-size="40" font-weight="bold" letter-spacing="0em"><tspan x="902.883" y="655">215.418</tspan></text>
<text fill="#006D5A" xml:space="preserve" style="white-space: pre" font-family="VNM Sans Display" font-size="14" font-weight="bold" letter-spacing="0em"><tspan x="992.652" y="655">T&#x1ea4;N</tspan></text>
<text fill="#006D5A" xml:space="preserve" style="white-space: pre" font-family="VNM Sans Std" font-size="14" letter-spacing="0em"><tspan x="905.864" y="671.844">b&#x1eaf;p sinh kh&#x1ed1;i thu </tspan><tspan x="924.396" y="687.844">mua t&#x1eeb; h&#x1ed9; &#x2028;</tspan><tspan x="927.623" y="703.844">n&#xf4;ng d&#xe2;n</tspan></text>
<rect x="1042.5" y="600.5" width="140" height="133" rx="7.5" fill="#FFFFF1"/>
<rect x="1042.5" y="600.5" width="140" height="133" rx="7.5" stroke="#006D5A"/>
<text fill="#006D5A" xml:space="preserve" style="white-space: pre" font-family="VNM Sans Display" font-size="40" font-weight="bold" letter-spacing="0em"><tspan x="1069.75" y="655">100%</tspan></text>
<text fill="#006D5A" xml:space="preserve" style="white-space: pre" font-family="VNM Sans Display" font-size="14" font-weight="bold" letter-spacing="0em"><tspan x="1136.5" y="640">H&#x1ed8;&#10;</tspan><tspan x="1136.5" y="655">D&#xc2;N</tspan></text>
<text fill="#006D5A" xml:space="preserve" style="white-space: pre" font-family="VNM Sans Std" font-size="14" letter-spacing="0em"><tspan x="1063.06" y="671.844">li&#xea;n k&#x1ebf;t &#x111;&#x1b0;&#x1ee3;c t&#x1ead;p </tspan><tspan x="1053.57" y="687.844">hu&#x1ea5;n chuy&#x1ec3;n giao k&#x1ef9; </tspan><tspan x="1065.97" y="703.844">thu&#x1ead;t h&#xe0;ng n&#x103;m</tspan></text>
<rect x="1199.5" y="600.5" width="140" height="133" rx="7.5" fill="#FFFFF1"/>
<rect x="1199.5" y="600.5" width="140" height="133" rx="7.5" stroke="#006D5A"/>
<text fill="#006D5A" xml:space="preserve" style="white-space: pre" font-family="VNM Sans Display" font-size="40" font-weight="bold" letter-spacing="0em"><tspan x="1222.75" y="671">100%</tspan></text>
<text fill="#006D5A" xml:space="preserve" style="white-space: pre" font-family="VNM Sans Display" font-size="14" font-weight="bold" letter-spacing="0em"><tspan x="1289.5" y="654.3">TRANG&#x2028;</tspan><tspan x="1289.5" y="669.3">TR&#x1ea0;I</tspan></text>
<text fill="#006D5A" xml:space="preserve" style="white-space: pre" font-family="VNM Sans Std" font-size="14" letter-spacing="0em"><tspan x="1216.36" y="687.844">chu&#x1ea9;n GlobalG.A.P.</tspan></text>
<path d="M1240 36H1200V76H1240V36Z" fill="#E7253C"/>
<path d="M1205.58 41.2635H1205.6V47.434H1206.95V39.3727H1205.87L1204.63 40.8291V42.2472L1205.58 41.2635Z" fill="white"/>
<path d="M1230.8 55.0866C1230.8 54.4733 1231.29 53.9751 1231.91 53.9751C1232.52 53.9751 1233.02 54.4733 1233.02 55.0866C1233.02 55.6998 1232.52 56.198 1231.91 56.198C1231.29 56.198 1230.8 55.6998 1230.8 55.0866Z" fill="white"/>
<path d="M1233.21 56.6196C1233.96 56.6835 1234.54 57.3223 1234.54 58.0888V61.1549C1234.54 61.3849 1234.35 61.5893 1234.11 61.5893C1233.87 61.5893 1233.68 61.3976 1233.68 61.1549V58.5232C1233.68 58.421 1233.66 58.2932 1233.47 58.2932C1233.34 58.2932 1233.32 58.421 1233.32 58.5104V66.4056C1233.32 66.7506 1233.04 67.0188 1232.7 67.0188C1232.36 67.0188 1232.08 66.7378 1232.08 66.4056V61.8576C1232.08 61.8576 1232.06 61.6787 1231.91 61.6787C1231.76 61.6787 1231.73 61.8065 1231.73 61.8576V66.4056C1231.73 66.7506 1231.45 67.0188 1231.11 67.0188C1230.77 67.0188 1230.49 66.7378 1230.49 66.4056V58.5104C1230.49 58.421 1230.47 58.2932 1230.34 58.2932C1230.17 58.2932 1230.13 58.4337 1230.13 58.5232V61.1549C1230.13 61.3849 1229.94 61.5893 1229.7 61.5893C1229.46 61.5893 1229.27 61.3976 1229.27 61.1549V58.0888C1229.27 57.3223 1229.86 56.6835 1230.61 56.6196C1230.63 56.6196 1230.66 56.6196 1230.7 56.6196H1233.12C1233.12 56.6196 1233.18 56.6196 1233.21 56.6196Z" fill="white"/>
<path d="M1224.22 55.6615C1224.22 55.0866 1223.75 54.6139 1223.17 54.6139C1222.59 54.6139 1222.12 55.0866 1222.12 55.6615C1222.12 56.2363 1222.59 56.709 1223.17 56.709C1223.75 56.709 1224.22 56.2363 1224.22 55.6615Z" fill="white"/>
<path d="M1221.05 58.0377L1220.18 60.8738C1220.18 60.8738 1220.03 61.3976 1220.47 61.5254C1220.91 61.6531 1221.04 61.1421 1221.04 61.1421L1221.75 58.7787C1221.75 58.7787 1221.78 58.5998 1221.92 58.6381C1222.06 58.6765 1222.01 58.8681 1222.01 58.8681L1220.79 63.3012H1221.92V66.4823C1221.92 66.7889 1222.16 67.0316 1222.46 67.0316C1222.77 67.0316 1223.01 66.7889 1223.01 66.4823V63.3012H1223.32V66.4823C1223.32 66.7889 1223.56 67.0316 1223.86 67.0316C1224.17 67.0316 1224.41 66.7889 1224.41 66.4823V63.3012H1225.54L1224.32 58.8681C1224.32 58.8681 1224.27 58.6765 1224.41 58.6381C1224.54 58.5998 1224.58 58.7787 1224.58 58.7787L1225.29 61.1421C1225.29 61.1421 1225.43 61.6531 1225.86 61.5254C1226.3 61.3976 1226.15 60.8738 1226.15 60.8738L1225.28 58.0377C1225.28 58.0377 1224.96 57.2201 1224.28 57.2201H1222.06C1221.37 57.2201 1221.07 58.0377 1221.07 58.0377" fill="white"/>
<path d="M1217.94 55.6615C1217.94 55.0866 1217.47 54.6139 1216.89 54.6139C1216.31 54.6139 1215.85 55.0866 1215.85 55.6615C1215.85 56.2363 1216.31 56.709 1216.89 56.709C1217.47 56.709 1217.94 56.2363 1217.94 55.6615Z" fill="white"/>
<path d="M1214.77 58.0377L1213.9 60.8738C1213.9 60.8738 1213.75 61.3976 1214.19 61.5254C1214.64 61.6531 1214.76 61.1421 1214.76 61.1421L1215.47 58.7787C1215.47 58.7787 1215.51 58.5998 1215.64 58.6381C1215.78 58.6765 1215.73 58.8681 1215.73 58.8681L1214.51 63.3012H1215.64V66.4823C1215.64 66.7889 1215.88 67.0316 1216.19 67.0316C1216.49 67.0316 1216.73 66.7889 1216.73 66.4823V63.3012H1217.04V66.4823C1217.04 66.7889 1217.28 67.0316 1217.59 67.0316C1217.89 67.0316 1218.13 66.7889 1218.13 66.4823V63.3012H1219.26L1218.04 58.8681C1218.04 58.8681 1217.99 58.6765 1218.13 58.6381C1218.27 58.5998 1218.3 58.7787 1218.3 58.7787L1219.01 61.1421C1219.01 61.1421 1219.15 61.6531 1219.58 61.5254C1220.02 61.3976 1219.87 60.8738 1219.87 60.8738L1219 58.0377C1219 58.0377 1218.68 57.2201 1218 57.2201H1215.78C1215.09 57.2201 1214.77 58.0377 1214.77 58.0377Z" fill="white"/>
<path d="M1227.73 61.5382C1228.21 61.5382 1228.6 61.1421 1228.6 60.6694C1228.6 60.1967 1228.21 59.8007 1227.73 59.8007C1227.25 59.8007 1226.86 60.1967 1226.86 60.6694C1226.86 61.1421 1227.25 61.5382 1227.73 61.5382Z" fill="white"/>
<path d="M1225.64 64.2466C1225.6 64.3488 1225.57 64.566 1225.77 64.6554C1226.01 64.7704 1226.15 64.5276 1226.15 64.5276L1226.62 63.0201C1226.62 63.0201 1226.71 62.9179 1226.71 63.0201V66.5845C1226.71 66.8272 1226.91 67.0316 1227.15 67.0316C1227.39 67.0316 1227.61 66.8272 1227.61 66.5845V65.1792C1227.61 65.1792 1227.58 64.9748 1227.75 64.9748C1227.91 64.9748 1227.89 65.1792 1227.89 65.1792V66.5845C1227.89 66.8272 1228.09 67.0316 1228.34 67.0316C1228.59 67.0316 1228.79 66.8272 1228.79 66.5845V63.0201C1228.79 62.9179 1228.84 62.9946 1228.84 62.9946L1229.22 64.0294C1229.22 64.0294 1229.39 64.4893 1229.44 64.5149C1229.6 64.5915 1229.8 64.5149 1229.86 64.336C1229.91 64.221 1229.89 64.106 1229.83 64.0166C1229.83 64.0166 1229.27 62.6496 1229.21 62.458C1229.01 61.8831 1228.65 61.8831 1228.31 61.8831C1227.97 61.8831 1227.76 61.8831 1227.76 61.8831C1227.76 61.8831 1227.54 61.8831 1227.08 61.8831C1226.62 61.8959 1226.49 62.1258 1225.98 63.4162C1225.91 63.595 1225.67 64.2082 1225.67 64.2338L1225.64 64.2466Z" fill="white"/>
<path d="M1208.57 55.0866C1208.57 54.4733 1208.08 53.9751 1207.46 53.9751C1206.85 53.9751 1206.35 54.4733 1206.35 55.0866C1206.35 55.6998 1206.85 56.198 1207.46 56.198C1208.08 56.198 1208.57 55.6998 1208.57 55.0866Z" fill="white"/>
<path d="M1206.18 56.6196C1205.42 56.6835 1204.84 57.3223 1204.84 58.0888V61.1549C1204.84 61.3849 1205.03 61.5893 1205.27 61.5893C1205.51 61.5893 1205.7 61.3976 1205.7 61.1549V58.5232C1205.7 58.421 1205.72 58.2932 1205.91 58.2932C1206.04 58.2932 1206.06 58.421 1206.06 58.5104V66.4056C1206.06 66.7506 1206.34 67.0188 1206.68 67.0188C1207.02 67.0188 1207.3 66.7378 1207.3 66.4056V61.8576C1207.3 61.8576 1207.31 61.6787 1207.48 61.6787C1207.63 61.6787 1207.65 61.8065 1207.65 61.8576V66.4056C1207.65 66.7506 1207.93 67.0188 1208.27 67.0188C1208.61 67.0188 1208.89 66.7378 1208.89 66.4056V58.5104C1208.89 58.421 1208.93 58.2932 1209.04 58.2932C1209.22 58.2932 1209.25 58.4337 1209.25 58.5232V61.1549C1209.25 61.3849 1209.44 61.5893 1209.68 61.5893C1209.92 61.5893 1210.11 61.3976 1210.11 61.1549V58.0888C1210.11 57.3223 1209.52 56.6835 1208.77 56.6196C1208.75 56.6196 1208.72 56.6196 1208.69 56.6196H1206.27C1206.27 56.6196 1206.2 56.6196 1206.18 56.6196Z" fill="white"/>
<path d="M1210.63 61.0782C1210.56 60.9888 1210.48 60.9249 1210.36 60.9249C1210.19 60.9249 1210.05 61.0655 1210.05 61.2443C1210.05 61.2954 1210.09 61.3849 1210.09 61.3849L1210.97 62.9818C1210.97 62.9818 1211.02 63.0968 1211.02 63.1862V66.61C1211.02 66.8528 1211.21 67.0444 1211.45 67.0444C1211.69 67.0444 1211.88 66.8528 1211.88 66.61V65.2686C1211.88 65.2686 1211.85 65.077 1212 65.077C1212.15 65.077 1212.13 65.2686 1212.13 65.2686V66.61C1212.13 66.8528 1212.32 67.0444 1212.56 67.0444C1212.8 67.0444 1212.98 66.8528 1212.98 66.61V63.1862C1212.98 63.084 1213.03 62.9818 1213.03 62.9818L1213.85 61.5126C1213.85 61.5126 1213.96 61.2954 1213.96 61.2443C1213.96 61.0655 1213.82 60.9249 1213.64 60.9249C1213.53 60.9249 1213.43 60.9888 1213.38 61.0782C1213.38 61.0782 1212.95 61.8192 1212.81 61.9598C1212.67 62.1003 1212.54 62.0875 1212.54 62.0875H1211.48C1211.48 62.0875 1211.36 62.1003 1211.22 61.9598C1211.08 61.8192 1210.68 61.1038 1210.65 61.0782H1210.63Z" fill="white"/>
<path d="M1211.99 61.5382C1212.47 61.5382 1212.86 61.1421 1212.86 60.6694C1212.86 60.1967 1212.47 59.8007 1211.99 59.8007C1211.51 59.8007 1211.12 60.1967 1211.12 60.6694C1211.12 61.1421 1211.51 61.5382 1211.99 61.5382Z" fill="white"/>
<path d="M1211.99 62.7518L1212.98 63.48L1213.45 65.2047H1210.54L1211.01 63.48L1211.99 62.7518Z" fill="white"/>
<path d="M1210.99 47.6129C1210.99 47.6129 1210.99 47.5874 1210.99 47.5746L1211.47 46.4248C1211.47 46.4248 1211.47 46.412 1211.47 46.3992L1210.99 45.2494C1210.99 45.2494 1210.99 45.2494 1210.99 45.2239C1210.99 45.1983 1211.01 45.1983 1211.03 45.1983H1211.36C1211.36 45.1983 1211.4 45.1983 1211.4 45.2367L1211.67 45.9904L1211.95 45.2367C1211.95 45.2367 1211.98 45.1983 1211.99 45.1983H1212.32C1212.32 45.1983 1212.34 45.1983 1212.34 45.2111C1212.34 45.2239 1212.34 45.2367 1212.34 45.2494L1211.86 46.3992C1211.86 46.3992 1211.86 46.412 1211.86 46.4248L1212.34 47.5746C1212.34 47.5746 1212.34 47.5746 1212.34 47.6001C1212.34 47.6129 1212.33 47.6257 1212.3 47.6257H1211.98C1211.98 47.6257 1211.94 47.6257 1211.93 47.5874L1211.65 46.8464L1211.37 47.5874C1211.37 47.5874 1211.35 47.6257 1211.32 47.6257H1210.99C1210.99 47.6257 1210.97 47.6257 1210.97 47.6129" fill="white"/>
<path d="M1213.03 44.9812C1213.03 44.9812 1213.03 44.9556 1213.03 44.9428L1213.24 44.5851C1213.24 44.5851 1213.26 44.5596 1213.29 44.5596H1213.54C1213.54 44.5596 1213.56 44.5596 1213.58 44.5723C1213.59 44.5851 1213.58 44.5979 1213.58 44.6107L1213.32 44.9684C1213.32 44.9684 1213.3 44.9939 1213.27 44.9939H1213.07C1213.07 44.9939 1213.05 44.9939 1213.03 44.9812ZM1213.43 47.2296C1213.43 47.2296 1213.5 47.1019 1213.5 47.0125V45.8116C1213.5 45.7221 1213.48 45.6583 1213.43 45.5944C1213.38 45.5433 1213.31 45.5177 1213.24 45.5177C1213.16 45.5177 1213.1 45.5433 1213.05 45.5944C1213 45.6455 1212.98 45.7221 1212.98 45.8116V47.0125C1212.98 47.1019 1213.01 47.1658 1213.05 47.2296C1213.1 47.2807 1213.16 47.3063 1213.24 47.3063C1213.31 47.3063 1213.38 47.2807 1213.43 47.2296ZM1212.75 47.4724C1212.62 47.3574 1212.57 47.1913 1212.57 46.9997V45.8371C1212.57 45.6327 1212.63 45.4794 1212.75 45.3644C1212.86 45.2494 1213.02 45.1856 1213.22 45.1856C1213.43 45.1856 1213.58 45.2494 1213.7 45.3644C1213.83 45.4794 1213.89 45.6455 1213.89 45.8371V46.9997C1213.89 47.2041 1213.83 47.3574 1213.7 47.4724C1213.58 47.5874 1213.43 47.6512 1213.22 47.6512C1213.02 47.6512 1212.87 47.5874 1212.75 47.4724Z" fill="white"/>
<path d="M1214.6 46.8975H1214.99C1214.99 46.8975 1215.01 46.8975 1215 46.8847L1214.8 45.786L1214.6 46.8847C1214.6 46.8847 1214.6 46.8975 1214.61 46.8975M1215.13 47.5874L1215.06 47.2296C1215.06 47.2296 1215.06 47.2169 1215.04 47.2169H1214.54C1214.54 47.2169 1214.51 47.2169 1214.51 47.2296L1214.45 47.5874C1214.45 47.5874 1214.43 47.6257 1214.4 47.6257H1214.08C1214.08 47.6257 1214.03 47.6129 1214.04 47.5874L1214.56 45.2494C1214.56 45.2494 1214.57 45.2111 1214.6 45.2111H1214.96C1214.96 45.2111 1215 45.2239 1215.01 45.2494L1215.53 47.5874C1215.53 47.5874 1215.52 47.6257 1215.49 47.6257H1215.17C1215.17 47.6257 1215.13 47.6129 1215.12 47.5874" fill="white"/>
<path d="M1217.43 45.2239C1217.43 45.2239 1217.45 45.2239 1217.46 45.2239H1217.8C1217.8 45.2239 1217.81 45.2367 1217.81 45.2494V47.5874C1217.81 47.5874 1217.81 47.6129 1217.8 47.6129C1217.8 47.6129 1217.79 47.6257 1217.77 47.6257H1217.41C1217.41 47.6257 1217.37 47.6257 1217.36 47.5874L1216.84 46.1182V47.6001C1216.84 47.6001 1216.83 47.6129 1216.82 47.6129H1216.5C1216.5 47.6129 1216.48 47.6129 1216.48 47.6001C1216.48 47.6001 1216.48 47.5874 1216.48 47.5746V45.2111C1216.48 45.2111 1216.49 45.2111 1216.5 45.2111H1216.85C1216.85 45.2111 1216.89 45.2111 1216.91 45.2494L1217.42 46.7058C1217.42 46.7058 1217.42 46.7058 1217.43 46.7058V45.2622C1217.43 45.2622 1217.43 45.2367 1217.45 45.2367" fill="white"/>
<path d="M1218.32 47.4851C1218.2 47.3702 1218.14 47.2169 1218.14 47.0252V45.7988C1218.14 45.6072 1218.2 45.4538 1218.32 45.3389C1218.43 45.2239 1218.59 45.1728 1218.8 45.1728C1219 45.1728 1219.15 45.2367 1219.28 45.3389C1219.4 45.4538 1219.45 45.6072 1219.45 45.7988V45.9393C1219.45 45.9393 1219.45 45.9649 1219.44 45.9649C1219.44 45.9649 1219.43 45.9649 1219.41 45.9649H1219.07C1219.07 45.9649 1219.07 45.9521 1219.07 45.9393V45.7988C1219.07 45.7094 1219.05 45.6455 1219 45.5944C1218.95 45.5433 1218.88 45.5177 1218.81 45.5177C1218.73 45.5177 1218.67 45.5433 1218.62 45.5944C1218.57 45.6455 1218.54 45.7094 1218.54 45.7988V47.0252C1218.54 47.1147 1218.57 47.1785 1218.62 47.2296C1218.67 47.2807 1218.73 47.3063 1218.81 47.3063C1218.88 47.3063 1218.95 47.2807 1219 47.2296C1219.05 47.1785 1219.07 47.1147 1219.07 47.0252V46.6931C1219.07 46.6931 1219.07 46.6803 1219.06 46.6803H1218.82C1218.82 46.6803 1218.82 46.6675 1218.82 46.6547V46.3737C1218.82 46.3737 1218.83 46.3737 1218.85 46.3737H1219.46C1219.46 46.3737 1219.48 46.3865 1219.48 46.3992V47.038C1219.48 47.2296 1219.41 47.3829 1219.3 47.4979C1219.17 47.6129 1219.02 47.664 1218.82 47.664C1218.62 47.664 1218.47 47.6001 1218.34 47.4979" fill="white"/>
<path d="M1220.65 45.2239C1220.65 45.2239 1220.66 45.2239 1220.67 45.2239H1221.01C1221.01 45.2239 1221.01 45.2367 1221.01 45.2494V47.6129C1221.01 47.6129 1221 47.6257 1220.99 47.6257H1220.67C1220.67 47.6257 1220.65 47.6257 1220.65 47.6129C1220.65 47.6129 1220.64 47.6001 1220.64 47.5874V46.6036C1220.64 46.6036 1220.64 46.5909 1220.62 46.5909H1220.18C1220.18 46.5909 1220.17 46.5909 1220.17 46.6036V47.5874C1220.17 47.5874 1220.17 47.6129 1220.16 47.6129C1220.16 47.6129 1220.14 47.6257 1220.13 47.6257H1219.82C1219.82 47.6257 1219.79 47.6257 1219.79 47.6129C1219.79 47.6129 1219.78 47.6001 1219.78 47.5874V45.2494C1219.78 45.2494 1219.78 45.2239 1219.79 45.2239C1219.79 45.2239 1219.8 45.2239 1219.82 45.2239H1220.16C1220.16 45.2239 1220.17 45.2367 1220.17 45.2494V46.2204C1220.17 46.2204 1220.17 46.2332 1220.18 46.2332H1220.62C1220.62 46.2332 1220.64 46.2332 1220.64 46.2204V45.2494C1220.64 45.2494 1220.64 45.2239 1220.65 45.2239Z" fill="white"/>
<path d="M1222.12 44.9556C1222.12 44.9556 1222.11 44.9812 1222.09 44.9812H1221.88C1221.88 44.9812 1221.85 44.9812 1221.83 44.9556L1221.58 44.5979C1221.58 44.5979 1221.58 44.5851 1221.58 44.5723C1221.58 44.5468 1221.59 44.5468 1221.62 44.5468H1221.87C1221.87 44.5468 1221.91 44.5468 1221.92 44.5723L1222.12 44.9301V44.9556ZM1222.59 45.5433C1222.59 45.5433 1222.58 45.5433 1222.57 45.5433H1221.82C1221.82 45.5433 1221.81 45.5433 1221.81 45.5561V46.2076C1221.81 46.2076 1221.81 46.2204 1221.82 46.2204H1222.26C1222.26 46.2204 1222.29 46.2204 1222.29 46.2332C1222.29 46.2332 1222.3 46.2459 1222.3 46.2587V46.527C1222.3 46.527 1222.3 46.5525 1222.29 46.5525C1222.29 46.5525 1222.28 46.5653 1222.26 46.5653H1221.82C1221.82 46.5653 1221.81 46.5653 1221.81 46.5781V47.2296C1221.81 47.2296 1221.81 47.2424 1221.82 47.2424H1222.59C1222.59 47.2424 1222.6 47.2552 1222.6 47.268V47.5235C1222.6 47.5235 1222.6 47.549 1222.59 47.549C1222.59 47.549 1222.58 47.5618 1222.57 47.5618H1221.44C1221.44 47.5618 1221.42 47.5618 1221.42 47.549C1221.42 47.549 1221.42 47.5363 1221.42 47.5235V45.16C1221.42 45.16 1221.43 45.16 1221.44 45.16H1222.59C1222.59 45.16 1222.6 45.1728 1222.6 45.1856V45.4538C1222.6 45.4538 1222.6 45.4794 1222.59 45.4794" fill="white"/>
<path d="M1223.7 47.2296C1223.7 47.2296 1223.78 47.1019 1223.78 47.0125V45.8116C1223.78 45.7221 1223.75 45.6583 1223.7 45.5944C1223.65 45.5433 1223.59 45.5177 1223.51 45.5177C1223.44 45.5177 1223.37 45.5433 1223.32 45.5944C1223.27 45.6455 1223.25 45.7221 1223.25 45.8116V47.0125C1223.25 47.1019 1223.27 47.1658 1223.32 47.2296C1223.37 47.2807 1223.44 47.3063 1223.51 47.3063C1223.59 47.3063 1223.65 47.2807 1223.7 47.2296ZM1223.03 47.4724C1222.91 47.3574 1222.86 47.1913 1222.86 46.9997V45.8371C1222.86 45.6327 1222.92 45.4794 1223.03 45.3644C1223.15 45.2494 1223.31 45.1856 1223.51 45.1856C1223.71 45.1856 1223.86 45.2494 1223.99 45.3644C1224.12 45.4794 1224.18 45.6455 1224.18 45.8371V46.9997C1224.18 47.2041 1224.12 47.3574 1223.99 47.4724C1223.86 47.5874 1223.71 47.6512 1223.51 47.6512C1223.31 47.6512 1223.16 47.5874 1223.03 47.4724Z" fill="white"/>
<path d="M1290 36H1250V76H1290V36Z" fill="#DEA639"/>
<path d="M1257.48 46.3053H1255.25V45.919C1255.25 45.2835 1255.47 45.0467 1255.82 44.6854L1256.69 43.7757C1257.39 43.028 1257.54 42.5545 1257.54 41.7445V40.9595C1257.54 39.8006 1256.98 39.2648 1255.77 39.2648C1254.56 39.2648 1253.98 39.9003 1253.98 41.0218V41.9938H1255.21V40.9844C1255.21 40.4984 1255.45 40.3489 1255.73 40.3489C1255.99 40.3489 1256.22 40.4611 1256.22 40.9595V41.6199C1256.22 42.2804 1256.15 42.5421 1255.72 43.0156L1254.95 43.8255C1254.21 44.6106 1253.94 45.134 1253.94 45.9315V47.4143H1257.46V46.3053H1257.48Z" fill="white"/>
<path d="M1265.96 69.9813V70.5421C1265.96 70.5421 1265.96 70.5421 1265.96 70.5545C1265.96 70.6916 1266.09 70.8037 1266.22 70.8037H1272.82C1272.97 70.8037 1273.08 70.6791 1273.08 70.5421V69.9065C1276.8 68.6854 1279.59 65.6822 1280.19 62.0062C1280.19 62.0062 1280.19 61.9938 1280.19 61.9813C1280.19 61.9813 1280.19 61.9564 1280.19 61.9439C1280.19 61.7944 1280.07 61.6822 1279.92 61.6822H1258.89C1258.74 61.6822 1258.62 61.8069 1258.62 61.9439V62.0685C1259.28 65.7695 1262.14 68.7975 1265.93 69.9688" fill="white"/>
<path d="M1273.1 52.7227C1273.01 52.8474 1270.98 55.7757 1273.15 58.1308C1274.14 59.215 1274.05 60.1745 1273.76 60.8224H1275.15C1275.44 59.8629 1275.31 58.6667 1274.19 57.433C1272.59 55.6885 1274.21 53.3333 1274.24 53.296C1274.42 53.0218 1274.32 52.6854 1274.01 52.5234C1273.7 52.3614 1273.29 52.4486 1273.1 52.7103" fill="white"/>
<path d="M1269.58 60.8349H1270.97C1271.25 59.8754 1271.13 58.6791 1270 57.4455C1268.4 55.7009 1270.01 53.3458 1270.05 53.3084C1270.24 53.0343 1270.14 52.6978 1269.83 52.5358C1269.52 52.3738 1269.11 52.4611 1268.91 52.7227C1268.82 52.8474 1266.79 55.7757 1268.96 58.1308C1269.95 59.215 1269.86 60.1745 1269.58 60.8224" fill="white"/>
<path d="M1264.72 52.7227C1264.64 52.8474 1262.61 55.7757 1264.77 58.1308C1265.76 59.215 1265.68 60.1745 1265.39 60.8224H1266.78C1267.07 59.8629 1266.94 58.6667 1265.81 57.433C1264.22 55.6885 1265.84 53.3333 1265.86 53.296C1266.05 53.0218 1265.95 52.6854 1265.64 52.5234C1265.33 52.3614 1264.92 52.4486 1264.72 52.7103" fill="white"/>
<path d="M1260.91 43.4642C1260.91 43.4642 1260.91 43.4517 1260.91 43.4393V41.0717C1260.91 41.0717 1260.92 41.0717 1260.93 41.0717H1261.28C1261.28 41.0717 1261.28 41.0841 1261.28 41.0966V42.0685C1261.28 42.0685 1261.28 42.0685 1261.29 42.0685L1261.81 41.0966C1261.81 41.0966 1261.84 41.0717 1261.86 41.0717H1262.21C1262.21 41.0717 1262.24 41.0717 1262.24 41.0841C1262.24 41.0841 1262.24 41.109 1262.24 41.1215L1261.72 42.0935C1261.72 42.0935 1261.72 42.1059 1261.72 42.1184L1262.27 43.4517C1262.27 43.4517 1262.27 43.4517 1262.27 43.4766C1262.27 43.4891 1262.27 43.5016 1262.24 43.5016H1261.89C1261.89 43.5016 1261.85 43.5016 1261.84 43.4766L1261.43 42.4798C1261.43 42.4798 1261.43 42.4798 1261.42 42.4798L1261.28 42.7041C1261.28 42.7041 1261.28 42.7165 1261.28 42.729V43.4891C1261.28 43.4891 1261.27 43.5016 1261.26 43.5016H1260.93C1260.93 43.5016 1260.91 43.5016 1260.91 43.4891" fill="white"/>
<path d="M1263.42 41.0717C1263.42 41.0717 1263.44 41.0592 1263.45 41.0592H1263.77C1263.77 41.0592 1263.8 41.0592 1263.8 41.0717C1263.8 41.0717 1263.8 41.0841 1263.8 41.0966V43.4642C1263.8 43.4642 1263.78 43.4642 1263.77 43.4642H1263.42C1263.42 43.4642 1263.42 43.4517 1263.42 43.4393V42.4548C1263.42 42.4548 1263.42 42.4424 1263.41 42.4424H1262.97C1262.97 42.4424 1262.95 42.4424 1262.95 42.4548V43.4393C1262.95 43.4393 1262.95 43.4642 1262.94 43.4642C1262.94 43.4642 1262.93 43.4642 1262.92 43.4642H1262.57C1262.57 43.4642 1262.57 43.4517 1262.57 43.4393V41.0717C1262.57 41.0717 1262.58 41.0592 1262.59 41.0592H1262.92C1262.92 41.0592 1262.94 41.0592 1262.94 41.0717C1262.94 41.0717 1262.95 41.0841 1262.95 41.0966V42.0685C1262.95 42.0685 1262.95 42.081 1262.97 42.081H1263.41C1263.41 42.081 1263.42 42.081 1263.42 42.0685V41.0717Z" fill="white"/>
<path d="M1264.98 43.0779C1264.98 43.0779 1265.06 42.9533 1265.06 42.866V41.6698C1265.06 41.5826 1265.03 41.5078 1264.98 41.4579C1264.93 41.4081 1264.87 41.3707 1264.8 41.3707C1264.72 41.3707 1264.66 41.3956 1264.61 41.4579C1264.56 41.5078 1264.54 41.5826 1264.54 41.6698V42.866C1264.54 42.9533 1264.56 43.028 1264.61 43.0779C1264.66 43.1277 1264.72 43.1651 1264.8 43.1651C1264.87 43.1651 1264.93 43.1402 1264.98 43.0779ZM1264.33 40.8224C1264.33 40.8224 1264.33 40.7975 1264.33 40.785L1264.55 40.4237C1264.55 40.4237 1264.58 40.3988 1264.6 40.3988H1264.96C1264.96 40.3988 1265 40.3988 1265.01 40.4237L1265.23 40.785V40.81C1265.23 40.8224 1265.23 40.8349 1265.2 40.8349H1264.96C1264.96 40.8349 1264.92 40.8349 1264.91 40.81L1264.79 40.5857C1264.79 40.5857 1264.77 40.5857 1264.76 40.5857L1264.64 40.81C1264.64 40.81 1264.61 40.8349 1264.59 40.8349H1264.35C1264.35 40.8349 1264.33 40.8349 1264.32 40.8349M1264.32 43.3271C1264.19 43.2025 1264.13 43.053 1264.13 42.8536V41.6947C1264.13 41.4953 1264.19 41.3333 1264.32 41.2212C1264.44 41.0966 1264.6 41.0467 1264.8 41.0467C1265 41.0467 1265.16 41.109 1265.28 41.2212C1265.41 41.3458 1265.47 41.4953 1265.47 41.6947V42.8536C1265.47 43.053 1265.41 43.215 1265.28 43.3271C1265.16 43.4517 1265 43.5016 1264.8 43.5016C1264.6 43.5016 1264.44 43.4393 1264.32 43.3271Z" fill="white"/>
<path d="M1266.77 41.0717C1266.77 41.0717 1266.78 41.0592 1266.79 41.0592H1267.1C1267.1 41.0592 1267.13 41.0592 1267.13 41.0717C1267.13 41.0717 1267.13 41.0841 1267.13 41.0966V43.4642C1267.13 43.4642 1267.11 43.4642 1267.1 43.4642H1266.74C1266.74 43.4642 1266.71 43.4642 1266.69 43.4268L1266.17 41.9564C1266.17 41.9564 1266.17 41.9564 1266.16 41.9564V43.4393C1266.16 43.4393 1266.15 43.4393 1266.14 43.4393H1265.8C1265.8 43.4393 1265.79 43.4268 1265.79 43.4143V41.0717C1265.79 41.0717 1265.79 41.0467 1265.8 41.0467C1265.8 41.0467 1265.81 41.0343 1265.83 41.0343H1266.19C1266.19 41.0343 1266.22 41.0467 1266.24 41.0717L1266.76 42.5296C1266.76 42.5296 1266.76 42.5296 1266.77 42.5296C1266.77 42.5296 1266.77 42.5296 1266.77 42.5171V41.0717V41.0467V41.0717Z" fill="white"/>
<path d="M1267.66 43.3396C1267.54 43.2274 1267.49 43.0779 1267.49 42.891V41.6698C1267.49 41.4829 1267.55 41.3333 1267.66 41.2212C1267.78 41.109 1267.93 41.0467 1268.13 41.0467C1268.33 41.0467 1268.49 41.109 1268.6 41.2212C1268.72 41.3333 1268.79 41.4829 1268.79 41.6822V41.8442C1268.79 41.8442 1268.77 41.8567 1268.76 41.8567H1268.44C1268.44 41.8567 1268.41 41.8567 1268.41 41.8442C1268.41 41.8442 1268.41 41.8318 1268.41 41.8193V41.6822C1268.41 41.595 1268.39 41.5327 1268.34 41.4829C1268.29 41.433 1268.23 41.4081 1268.15 41.4081C1268.08 41.4081 1268.02 41.433 1267.97 41.4829C1267.92 41.5327 1267.89 41.595 1267.89 41.6822V42.9159C1267.89 43.0031 1267.92 43.0654 1267.97 43.1153C1268.02 43.1651 1268.08 43.19 1268.15 43.19C1268.23 43.19 1268.29 43.1651 1268.34 43.1153C1268.39 43.0654 1268.41 43.0031 1268.41 42.9159V42.5794C1268.41 42.5794 1268.41 42.567 1268.4 42.567H1268.17C1268.17 42.567 1268.15 42.5545 1268.15 42.5421V42.2928C1268.15 42.2928 1268.15 42.2679 1268.17 42.2679C1268.17 42.2679 1268.18 42.2555 1268.19 42.2555H1268.79C1268.79 42.2555 1268.81 42.2555 1268.81 42.2679C1268.81 42.2679 1268.81 42.2804 1268.81 42.2928V42.9283C1268.81 43.1153 1268.75 43.2648 1268.63 43.3769C1268.5 43.4891 1268.35 43.5514 1268.15 43.5514C1267.96 43.5514 1267.8 43.4891 1267.68 43.3769" fill="white"/>
<path d="M1269.93 43.3271C1269.8 43.215 1269.75 43.053 1269.75 42.8536V41.6698C1269.75 41.4704 1269.81 41.3084 1269.93 41.1963C1270.04 41.0841 1270.2 41.0218 1270.4 41.0218C1270.59 41.0218 1270.76 41.0841 1270.87 41.1963C1270.98 41.3084 1271.05 41.4704 1271.05 41.6698V41.7321C1271.05 41.7321 1271.04 41.7445 1271.03 41.7445H1270.71C1270.71 41.7445 1270.67 41.7445 1270.67 41.7196V41.6324C1270.67 41.5576 1270.64 41.4829 1270.59 41.433C1270.54 41.3832 1270.48 41.3583 1270.41 41.3583C1270.33 41.3583 1270.27 41.3832 1270.22 41.433C1270.17 41.4829 1270.15 41.5452 1270.15 41.6324V42.866C1270.15 42.9533 1270.17 43.0156 1270.22 43.0654C1270.27 43.1153 1270.33 43.1402 1270.41 43.1402C1270.48 43.1402 1270.54 43.1153 1270.59 43.0654C1270.64 43.0156 1270.67 42.9533 1270.67 42.866V42.7788C1270.67 42.7788 1270.67 42.7539 1270.68 42.7539C1270.68 42.7539 1270.69 42.7414 1270.71 42.7414H1271.03L1271.05 42.7664V42.8287C1271.05 43.028 1270.99 43.1776 1270.87 43.3022C1270.74 43.4268 1270.59 43.4766 1270.4 43.4766C1270.2 43.4766 1270.04 43.4143 1269.93 43.3022" fill="white"/>
<path d="M1272.17 43.0779C1272.17 43.0779 1272.24 42.9533 1272.24 42.866V41.6698C1272.24 41.5826 1272.22 41.5078 1272.17 41.4579C1272.12 41.4081 1272.06 41.3707 1271.98 41.3707C1271.91 41.3707 1271.85 41.3956 1271.8 41.4579C1271.75 41.5078 1271.72 41.5826 1271.72 41.6698V42.866C1271.72 42.9533 1271.75 43.028 1271.8 43.0779C1271.85 43.1277 1271.91 43.1651 1271.98 43.1651C1272.06 43.1651 1272.12 43.1402 1272.17 43.0779ZM1272.11 40.81C1272.11 40.81 1272.09 40.8349 1272.07 40.8349H1271.87C1271.87 40.8349 1271.83 40.8349 1271.82 40.81L1271.57 40.4611V40.4361C1271.57 40.4237 1271.59 40.4112 1271.61 40.4112H1271.86C1271.86 40.4112 1271.89 40.4112 1271.91 40.4361L1272.12 40.7975V40.8224L1272.11 40.81ZM1271.5 43.3271C1271.37 43.2025 1271.31 43.053 1271.31 42.8536V41.6947C1271.31 41.4953 1271.37 41.3333 1271.5 41.2212C1271.62 41.0966 1271.78 41.0467 1271.98 41.0467C1272.18 41.0467 1272.34 41.109 1272.46 41.2212C1272.59 41.3458 1272.65 41.4953 1272.65 41.6947V42.8536C1272.65 43.053 1272.59 43.215 1272.46 43.3271C1272.34 43.4517 1272.18 43.5016 1271.98 43.5016C1271.78 43.5016 1271.62 43.4393 1271.5 43.3271Z" fill="white"/>
<path d="M1273.96 41.0717C1273.96 41.0717 1273.98 41.0592 1273.99 41.0592H1274.3C1274.3 41.0592 1274.32 41.0592 1274.32 41.0717C1274.32 41.0717 1274.32 41.0841 1274.32 41.0966V43.4642C1274.32 43.4642 1274.31 43.4642 1274.3 43.4642H1273.94C1273.94 43.4642 1273.9 43.4642 1273.89 43.4268L1273.37 41.9564C1273.37 41.9564 1273.37 41.9564 1273.36 41.9564V43.4393C1273.36 43.4393 1273.34 43.4393 1273.33 43.4393H1273C1273 43.4393 1272.98 43.4268 1272.98 43.4143V41.0717C1272.98 41.0717 1272.98 41.0467 1273 41.0467C1273 41.0467 1273.01 41.0343 1273.02 41.0343H1273.38C1273.38 41.0343 1273.42 41.0467 1273.43 41.0717L1273.95 42.5296C1273.95 42.5296 1273.95 42.5296 1273.96 42.5296C1273.96 42.5296 1273.96 42.5296 1273.96 42.5171V41.0717V41.0467V41.0717Z" fill="white"/>
<path d="M1261.89 45.2212C1261.89 45.2212 1261.9 45.2087 1261.91 45.2087H1262.22C1262.22 45.2087 1262.25 45.2087 1262.25 45.2212C1262.25 45.2212 1262.25 45.2336 1262.25 45.2461V47.6137C1262.25 47.6137 1262.24 47.6137 1262.22 47.6137H1261.86C1261.86 47.6137 1261.83 47.6137 1261.81 47.5763L1261.29 46.1059C1261.29 46.1059 1261.29 46.1059 1261.28 46.1059V47.5888C1261.28 47.5888 1261.27 47.5888 1261.26 47.5888H1260.92C1260.92 47.5888 1260.91 47.5763 1260.91 47.5639V45.2212C1260.91 45.2212 1260.91 45.1963 1260.92 45.1963C1260.92 45.1963 1260.93 45.1838 1260.95 45.1838H1261.31C1261.31 45.1838 1261.34 45.1963 1261.36 45.2212L1261.88 46.6791C1261.88 46.6791 1261.88 46.6791 1261.88 46.6667V45.1963" fill="white"/>
<path d="M1263.04 46.891H1263.42C1263.42 46.891 1263.45 46.891 1263.44 46.8785L1263.24 45.7819L1263.04 46.8785C1263.04 46.8785 1263.04 46.891 1263.05 46.891M1263.08 48.3364C1263.08 48.3364 1263.02 48.2368 1263.02 48.162C1263.02 48.0872 1263.04 48.0374 1263.08 48C1263.11 47.9502 1263.18 47.9377 1263.25 47.9377C1263.33 47.9377 1263.37 47.9626 1263.41 48C1263.45 48.0498 1263.47 48.0997 1263.47 48.162C1263.47 48.2243 1263.45 48.2866 1263.41 48.3364C1263.36 48.3863 1263.31 48.3988 1263.25 48.3988C1263.19 48.3988 1263.13 48.3738 1263.08 48.3364ZM1263.57 47.5888L1263.51 47.2274C1263.51 47.2274 1263.51 47.215 1263.49 47.215H1262.98C1262.98 47.215 1262.95 47.215 1262.95 47.2274L1262.89 47.5888C1262.89 47.5888 1262.88 47.6262 1262.84 47.6262H1262.53C1262.53 47.6262 1262.48 47.6137 1262.5 47.5763L1263 45.2336C1263 45.2336 1263.03 45.1963 1263.05 45.1963H1263.42C1263.42 45.1963 1263.46 45.2087 1263.47 45.2336L1263.98 47.5763C1263.98 47.5763 1263.97 47.6262 1263.94 47.6262H1263.62C1263.62 47.6262 1263.59 47.6137 1263.57 47.5888Z" fill="white"/>
<path d="M1265.2 45.2212C1265.2 45.2212 1265.21 45.2087 1265.22 45.2087H1265.53C1265.53 45.2087 1265.55 45.2087 1265.55 45.2212C1265.55 45.2212 1265.55 45.2336 1265.55 45.2461V47.6137C1265.55 47.6137 1265.54 47.6137 1265.53 47.6137H1265.17C1265.17 47.6137 1265.13 47.6137 1265.12 47.5763L1264.6 46.1059C1264.6 46.1059 1264.6 46.1059 1264.59 46.1059V47.5888C1264.59 47.5888 1264.58 47.5888 1264.56 47.5888H1264.23C1264.23 47.5888 1264.22 47.5763 1264.22 47.5639V45.2212C1264.22 45.2212 1264.22 45.1963 1264.23 45.1963C1264.23 45.1963 1264.24 45.1838 1264.25 45.1838H1264.61C1264.61 45.1838 1264.65 45.1963 1264.66 45.2212L1265.18 46.6791C1265.18 46.6791 1265.18 46.6791 1265.18 46.6667V45.1963" fill="white"/>
<path d="M1267.63 45.8941C1267.63 45.7944 1267.61 45.7072 1267.56 45.6449C1267.51 45.5826 1267.45 45.5576 1267.37 45.5576H1267.16C1267.16 45.5576 1267.15 45.5576 1267.15 45.5701V46.2305C1267.15 46.2305 1267.15 46.243 1267.16 46.243H1267.34C1267.34 46.243 1267.36 46.243 1267.36 46.2555C1267.36 46.2555 1267.37 46.2679 1267.37 46.2804V46.4299C1267.37 46.4299 1267.37 46.4548 1267.36 46.4548C1267.36 46.4548 1267.35 46.4673 1267.34 46.4673H1267.16C1267.16 46.4673 1267.15 46.4673 1267.15 46.4798V47.2523C1267.15 47.2523 1267.15 47.2648 1267.16 47.2648H1267.37C1267.45 47.2648 1267.51 47.2274 1267.56 47.1651C1267.61 47.1028 1267.63 47.028 1267.63 46.9159V45.8692V45.8941ZM1267.86 45.3832C1267.98 45.5078 1268.03 45.6698 1268.03 45.8692V46.9657C1268.03 47.1651 1267.97 47.3271 1267.86 47.4517C1267.73 47.5763 1267.59 47.6386 1267.39 47.6386H1266.79C1266.79 47.6386 1266.77 47.6386 1266.77 47.6262C1266.77 47.6262 1266.76 47.6137 1266.76 47.6012V46.5171C1266.76 46.5171 1266.76 46.5047 1266.74 46.5047H1266.68C1266.68 46.5047 1266.66 46.5047 1266.66 46.4922C1266.66 46.4922 1266.66 46.4798 1266.66 46.4673V46.2928C1266.66 46.2928 1266.67 46.2804 1266.68 46.2804H1266.74C1266.74 46.2804 1266.76 46.2804 1266.76 46.2679V45.296C1266.76 45.296 1266.76 45.271 1266.77 45.271C1266.77 45.271 1266.78 45.271 1266.79 45.271H1267.39C1267.59 45.271 1267.75 45.3333 1267.86 45.4455" fill="white"/>
<path d="M1268.8 44.972C1268.8 44.972 1268.8 44.947 1268.8 44.9346L1269 44.5732C1269 44.5732 1269.02 44.5483 1269.05 44.5483H1269.29C1269.29 44.5483 1269.32 44.5483 1269.33 44.5607C1269.33 44.5607 1269.33 44.5857 1269.33 44.5981L1269.07 44.9595C1269.07 44.9595 1269.05 44.9844 1269.02 44.9844H1268.82C1268.82 44.9844 1268.8 44.9844 1268.79 44.972M1269.18 47.2274C1269.18 47.2274 1269.26 47.1028 1269.26 47.0156V45.8193C1269.26 45.7321 1269.23 45.6573 1269.18 45.6075C1269.13 45.5576 1269.07 45.5203 1269 45.5203C1268.92 45.5203 1268.86 45.5452 1268.81 45.6075C1268.76 45.6573 1268.74 45.7321 1268.74 45.8193V47.0156C1268.74 47.1028 1268.76 47.1776 1268.81 47.2274C1268.86 47.2773 1268.92 47.3146 1269 47.3146C1269.07 47.3146 1269.13 47.2897 1269.18 47.2274ZM1268.51 47.4766C1268.39 47.352 1268.33 47.2025 1268.33 47.0031V45.8442C1268.33 45.6449 1268.39 45.4829 1268.51 45.3707C1268.64 45.2461 1268.8 45.1963 1269 45.1963C1269.2 45.1963 1269.36 45.2586 1269.48 45.3707C1269.6 45.4953 1269.67 45.6449 1269.67 45.8442V47.0031C1269.67 47.2025 1269.6 47.3645 1269.48 47.4766C1269.36 47.6012 1269.2 47.6511 1269 47.6511C1268.8 47.6511 1268.64 47.5888 1268.51 47.4766Z" fill="white"/>
<path d="M1269.99 47.6137C1269.99 47.6137 1269.99 47.6012 1269.99 47.5888V45.2212C1269.99 45.2212 1270 45.2212 1270.01 45.2212H1270.36C1270.36 45.2212 1270.36 45.2336 1270.36 45.2461V47.6137C1270.36 47.6137 1270.35 47.6262 1270.33 47.6262H1270.01C1270.01 47.6262 1269.99 47.6262 1269.99 47.6137Z" fill="white"/>
<path d="M1340 36H1300V76H1340V36Z" fill="#A21C43"/>
<path d="M1307.76 45.4389V44.5536C1307.76 43.7805 1307.49 43.2195 1306.86 42.9327C1307.39 42.6708 1307.64 42.197 1307.64 41.5362V41.1995C1307.64 39.9402 1306.98 39.2668 1305.73 39.2668C1304.48 39.2668 1303.85 39.9402 1303.85 41.1995V41.5362C1303.85 42.1845 1304.09 42.6833 1304.61 42.9327C1303.98 43.2195 1303.72 43.7805 1303.72 44.5536V45.4389C1303.72 46.6608 1304.3 47.5212 1305.72 47.5212C1307.15 47.5212 1307.74 46.6608 1307.74 45.4389M1305.14 41.1247C1305.14 40.6384 1305.31 40.3516 1305.75 40.3516C1306.18 40.3516 1306.37 40.6384 1306.37 41.1247V41.6733C1306.37 42.1596 1306.2 42.4464 1305.75 42.4464C1305.29 42.4464 1305.14 42.1596 1305.14 41.6733V41.1247ZM1306.41 45.5885C1306.41 46.0748 1306.24 46.4239 1305.75 46.4239C1305.25 46.4239 1305.09 46.0748 1305.09 45.5885V44.2793C1305.09 43.793 1305.26 43.4439 1305.75 43.4439C1306.23 43.4439 1306.41 43.793 1306.41 44.2793V45.5885Z" fill="white"/>
<path d="M1326.07 59.0673L1322.89 62.0848C1322.76 62.2095 1322.7 62.2968 1322.7 62.5337V71C1322.7 71.0998 1322.77 71.1746 1322.89 71.1746H1326.17C1326.27 71.1746 1326.35 71.0998 1326.35 71V59.1297C1326.35 59.0299 1326.28 58.8429 1326.07 59.0549" fill="white"/>
<path d="M1316.92 63.0075L1313.73 66.0249C1313.61 66.1496 1313.55 66.2369 1313.55 66.4738V71.0125C1313.55 71.1122 1313.63 71.187 1313.73 71.187H1317.02C1317.11 71.187 1317.2 71.0998 1317.2 71.0125V63.0823C1317.2 62.9825 1317.13 62.7955 1316.92 63.0075Z" fill="white"/>
<path d="M1327.5 55.4015C1327.5 55.4015 1327.5 55.3516 1327.48 55.3267C1327.47 55.3142 1327.44 55.3017 1327.42 55.3017H1327.38L1324.94 55.8504H1324.89C1324.89 55.8504 1324.85 55.8628 1324.84 55.8753C1324.8 55.9127 1324.8 55.9751 1324.84 56.0125L1324.87 56.0374L1325.42 56.586L1319.91 62.0973L1317.36 59.5536C1317.36 59.5536 1317.29 59.5287 1317.26 59.5536L1316.57 60.2519L1312.48 64.3292C1312.48 64.3292 1312.46 64.404 1312.48 64.4289L1313.18 65.1147C1313.18 65.1147 1313.25 65.1397 1313.28 65.1147L1317.3 61.0873L1319.15 62.9327L1319.84 63.6185C1319.84 63.6185 1319.91 63.6434 1319.94 63.6185L1326.19 57.3591L1326.77 57.9451C1326.77 57.9451 1326.87 57.9825 1326.9 57.9451C1326.91 57.9327 1326.92 57.9077 1326.92 57.8828L1327.46 55.389V55.3641L1327.5 55.4015Z" fill="white"/>
<path d="M1321.51 63.5312L1319.98 65.0773C1319.98 65.0773 1319.9 65.1022 1319.88 65.0773L1318.49 63.6559C1318.23 63.4065 1318.18 63.606 1318.18 63.7057V71.0125C1318.18 71.1122 1318.27 71.187 1318.35 71.187H1321.63C1321.73 71.187 1321.82 71.0998 1321.82 71.0125V63.5935C1321.82 63.4938 1321.75 63.3067 1321.51 63.5312Z" fill="white"/>
<path d="M1310.71 41.0249H1311.21L1311.37 42.7456L1311.55 41.0249H1312L1311.68 43.4439H1311.03L1310.71 41.0249Z" fill="white"/>
<path d="M1312.59 41.0249H1312.11V43.4439H1312.59V41.0249Z" fill="white"/>
<path d="M1313.03 44.0549H1313.41V43.6559H1313.03V44.0549ZM1312.77 43.4439H1313.67V43.0075H1313.25V42.4214H1313.65V41.985H1313.25V41.4364H1313.67V41H1312.77V43.4439ZM1313.09 40.6384L1312.92 40.9377H1313.13L1313.23 40.8254L1313.33 40.9377H1313.54L1313.36 40.6384H1313.09Z" fill="white"/>
<path d="M1315.02 43.02C1315.02 43.3192 1314.87 43.4688 1314.58 43.4688H1314.28C1313.98 43.4688 1313.83 43.3192 1313.83 43.02V41.4613C1313.83 41.1621 1313.98 41.0125 1314.28 41.0125H1314.56C1314.86 41.0125 1315.01 41.1621 1315.01 41.4613V42.0224H1314.53V41.5112C1314.53 41.5112 1314.5 41.4239 1314.44 41.4239H1314.39C1314.39 41.4239 1314.3 41.4489 1314.3 41.5112V42.9701C1314.3 42.9701 1314.33 43.0574 1314.39 43.0574H1314.45C1314.45 43.0574 1314.54 43.0324 1314.54 42.9701V42.384H1315.02V43.02Z" fill="white"/>
<path d="M1315.65 41.0249V43.4439H1316.48V43.0075H1316.14V41.0249H1315.65Z" fill="white"/>
<path d="M1317.28 42.6708L1317.16 41.611L1317.05 42.6708H1317.28ZM1317.08 40.9377L1316.89 40.6384H1317.23L1317.33 40.9377H1317.08ZM1317.33 43.0948H1317.02L1316.98 43.4439H1316.54L1316.87 41.0249H1317.52L1317.85 43.4439H1317.36L1317.33 43.0948Z" fill="white"/>
<path d="M1318.34 43.4439H1317.94V41.0249H1318.65L1318.79 42.4838L1318.93 41.0249H1319.64V43.4439H1319.16V41.8603L1318.97 43.4439H1318.51L1318.34 41.8479V43.4439Z" fill="white"/>
<path d="M1320.94 42.3965H1320.8V43.02H1320.9C1321 43.02 1321.04 42.9825 1321.04 42.8828V41.5611C1321.04 41.4613 1321 41.4239 1320.9 41.4239H1320.8V42.0224H1320.94V42.3965ZM1320.19 42.0349H1320.31V41.0249H1320.99C1321.34 41.0249 1321.51 41.1995 1321.51 41.5486V42.9327C1321.51 43.2818 1321.34 43.4564 1320.99 43.4564H1320.31V42.409H1320.19V42.0349Z" fill="white"/>
<path d="M1322.33 42.6708L1322.22 41.611L1322.11 42.6708H1322.33ZM1322.12 40.9377L1321.93 40.6384H1322.27L1322.37 40.9377H1322.12ZM1322.38 43.0948H1322.07L1322.03 43.4439H1321.6L1321.92 41.0249H1322.58L1322.9 43.4439H1322.41L1322.38 43.0948Z" fill="white"/>
<path d="M1323.76 41.0249V42.2219L1323.49 41.0249H1323V43.4439H1323.42L1323.41 42.7456L1323.39 42.1222L1323.7 43.4439H1324.17V41.0249H1323.76Z" fill="white"/>
<path d="M1324.93 42.0723H1325.56V43.0075C1325.56 43.3067 1325.41 43.4564 1325.11 43.4564H1324.8C1324.51 43.4564 1324.36 43.3067 1324.36 43.0075V41.4489C1324.36 41.1496 1324.51 41 1324.8 41H1325.11C1325.41 41 1325.56 41.1496 1325.56 41.4489V41.9102H1325.08V41.4988C1325.08 41.4988 1325.05 41.4115 1324.99 41.4115H1324.92C1324.92 41.4115 1324.83 41.4364 1324.83 41.4988V42.9576C1324.83 42.9576 1324.85 43.0449 1324.92 43.0449H1324.99C1324.99 43.0449 1325.08 43.02 1325.08 42.9576V42.4713H1324.93V42.0599V42.0723Z" fill="white"/>
<path d="M1311.5 45.1771V46.1496H1311.27V45.1771H1310.79V47.596H1311.27V46.586H1311.5V47.596H1312V45.1771H1311.5Z" fill="white"/>
<path d="M1312.8 45.5636H1312.73C1312.73 45.5636 1312.64 45.5885 1312.64 45.6509V47.1097C1312.64 47.1097 1312.67 47.197 1312.73 47.197H1312.8C1312.8 47.197 1312.89 47.1721 1312.89 47.1097V45.6509C1312.89 45.6509 1312.87 45.5636 1312.8 45.5636ZM1312.92 47.6209H1312.61C1312.31 47.6209 1312.16 47.4713 1312.16 47.1721V45.6135C1312.16 45.3142 1312.31 45.1646 1312.61 45.1646H1312.92C1313.21 45.1646 1313.36 45.3142 1313.36 45.6135V47.1721C1313.36 47.4713 1313.21 47.6209 1312.92 47.6209Z" fill="white"/>
<path d="M1314.18 46.8229L1314.07 45.7631L1313.96 46.8229H1314.18ZM1313.98 45.0773L1313.8 44.7781H1314.13L1314.23 45.0773H1313.98ZM1314.23 47.2469H1313.92L1313.88 47.596H1313.45L1313.77 45.1771H1314.43L1314.75 47.596H1314.27L1314.23 47.2469Z" fill="white"/>
<path d="M1315.62 45.1771V45.6758L1315.63 46.3741L1315.34 45.1771H1314.85V47.596H1315.27V46.8978L1315.26 46.2743L1315.57 47.596H1316.04V45.1771H1315.62Z" fill="white"/>
<path d="M1316.78 46.2244H1317.41V47.1596C1317.41 47.4589 1317.26 47.6085 1316.97 47.6085H1316.66C1316.36 47.6085 1316.21 47.4589 1316.21 47.1596V45.601C1316.21 45.3017 1316.36 45.1521 1316.66 45.1521H1316.97C1317.26 45.1521 1317.41 45.3017 1317.41 45.601V46.0623H1316.93V45.6509C1316.93 45.6509 1316.9 45.5636 1316.84 45.5636H1316.77C1316.77 45.5636 1316.68 45.5885 1316.68 45.6509V47.1097C1316.68 47.1097 1316.71 47.197 1316.77 47.197H1316.84C1316.84 47.197 1316.93 47.1721 1316.93 47.1097V46.6234H1316.78V46.212V46.2244Z" fill="white"/>
<path d="M1318.71 47.1347L1318.76 46.9975L1318.53 46.5736C1318.53 46.5736 1318.46 46.6484 1318.46 46.7232V47.1222C1318.46 47.1222 1318.49 47.197 1318.54 47.197H1318.6C1318.6 47.197 1318.69 47.1721 1318.7 47.1222M1318.61 47.6209H1318.43C1318.14 47.6209 1318.01 47.4838 1318.01 47.197V46.7107C1318.01 46.5362 1318.04 46.4115 1318.17 46.2993L1318.3 46.1746L1318.23 46.0249C1318.15 45.8878 1318.14 45.8005 1318.14 45.6633V45.5885C1318.14 45.2893 1318.29 45.1397 1318.59 45.1397H1318.8C1319.1 45.1397 1319.24 45.2893 1319.24 45.5885V45.9127H1318.8V45.6384C1318.8 45.6384 1318.77 45.5511 1318.71 45.5511H1318.67C1318.67 45.5511 1318.59 45.5761 1318.59 45.6384V45.6883C1318.59 45.7756 1318.61 45.8379 1318.66 45.9252L1318.96 46.4738L1319.06 46.1496H1319.53L1319.24 46.9476L1319.59 47.5835H1319.1L1318.98 47.384C1318.91 47.5337 1318.81 47.596 1318.6 47.596" fill="white"/>
<path d="M1320.07 45.1771V45.601H1320.37V47.596H1320.85V45.601H1321.14V45.1771H1320.07Z" fill="white"/>
<path d="M1321.8 46.8229L1321.68 45.7631L1321.57 46.8229H1321.8ZM1321.62 44.7781V44.8404C1321.62 44.8404 1321.65 44.9027 1321.68 44.9027H1321.72C1321.72 44.9027 1321.78 44.8778 1321.78 44.8404V44.7781H1321.98V44.8529C1321.98 45.015 1321.91 45.0773 1321.77 45.0773H1321.63C1321.49 45.0773 1321.42 45.0025 1321.42 44.8529V44.7781H1321.63H1321.62ZM1321.83 47.2469H1321.52L1321.49 47.596H1321.05L1321.37 45.1771H1322.03L1322.35 47.596H1321.87L1321.83 47.2469Z" fill="white"/>
<path d="M1323.22 45.1771L1323.23 45.6758V46.3741L1322.95 45.1771H1322.46V47.596H1322.87V46.8978L1322.86 46.2743L1323.17 47.596H1323.64V45.1771H1323.22Z" fill="white"/>
<path d="M1324.4 46.2244H1325.03V47.1596C1325.03 47.4589 1324.88 47.6085 1324.58 47.6085H1324.27C1323.98 47.6085 1323.83 47.4589 1323.83 47.1596V45.601C1323.83 45.3017 1323.98 45.1521 1324.27 45.1521H1324.58C1324.88 45.1521 1325.03 45.3017 1325.03 45.601V46.0623H1324.54V45.6509C1324.54 45.6509 1324.52 45.5636 1324.46 45.5636H1324.38C1324.38 45.5636 1324.3 45.5885 1324.3 45.6509V47.1097C1324.3 47.1097 1324.32 47.197 1324.38 47.197H1324.46C1324.46 47.197 1324.54 47.1721 1324.54 47.1097V46.6234H1324.4V46.212V46.2244Z" fill="white"/>
<path d="M1310.74 49.3167V49.7531H1311.02V51.7481H1311.5V49.7531H1311.8V49.3167H1310.74Z" fill="white"/>
<path d="M1312.53 49.7406H1312.41V50.414H1312.53C1312.53 50.414 1312.62 50.389 1312.62 50.3267V49.8279C1312.62 49.8279 1312.59 49.7406 1312.53 49.7406ZM1313.1 50.9127V51.7481H1312.62V50.9127C1312.62 50.9127 1312.59 50.8254 1312.53 50.8254H1312.41V51.7481H1311.93V49.3292H1312.64C1312.94 49.3292 1313.09 49.4788 1313.09 49.7781V50.2394C1313.09 50.4514 1313.02 50.5511 1312.88 50.601C1313.03 50.6384 1313.09 50.7382 1313.09 50.9127" fill="white"/>
<path d="M1314.7 49.2544C1314.7 49.4539 1314.63 49.5411 1314.45 49.5536V51.3117C1314.45 51.611 1314.3 51.7606 1314.01 51.7606H1313.71C1313.41 51.7606 1313.26 51.611 1313.26 51.3117V49.3167H1313.75V51.2618C1313.75 51.2618 1313.77 51.3491 1313.83 51.3491H1313.88C1313.88 51.3491 1313.97 51.3242 1313.97 51.2618V49.3167H1314.34C1314.34 49.3167 1314.43 49.2918 1314.43 49.2294V49.1421H1314.7V49.2544Z" fill="white"/>
<path d="M1315.34 49.803C1315.34 49.803 1315.32 49.7157 1315.26 49.7157H1315.18C1315.18 49.7157 1315.1 49.7406 1315.1 49.803V51.2618C1315.1 51.2618 1315.12 51.3491 1315.18 51.3491H1315.26C1315.26 51.3491 1315.34 51.3242 1315.34 51.2618V49.803ZM1315.2 48.8928H1315.03V48.8429C1315.03 48.7307 1315.08 48.6808 1315.2 48.6808H1315.24C1315.36 48.6808 1315.41 48.7307 1315.41 48.8429V48.8678C1315.41 48.8678 1315.39 48.9676 1315.36 49.0175L1315.31 49.0798C1315.31 49.0798 1315.28 49.1047 1315.28 49.1546H1315.13V49.1047C1315.13 49.0424 1315.13 49.0175 1315.17 48.9801L1315.2 48.9551C1315.2 48.9551 1315.22 48.9177 1315.22 48.8928V48.8678C1315.22 48.8678 1315.22 48.8554 1315.21 48.8554C1315.21 48.8554 1315.2 48.8554 1315.2 48.8678V48.9177V48.8928ZM1316.07 49.1546V49.2544C1316.07 49.4539 1315.99 49.5536 1315.81 49.5536C1315.83 49.616 1315.84 49.6783 1315.84 49.7406V51.3117C1315.84 51.611 1315.69 51.7606 1315.39 51.7606H1315.08C1314.79 51.7606 1314.64 51.611 1314.64 51.3117V49.7406C1314.64 49.4414 1314.79 49.2918 1315.08 49.2918H1315.39C1315.52 49.2918 1315.6 49.3167 1315.68 49.3541V49.3042H1315.73C1315.73 49.3042 1315.81 49.2793 1315.81 49.217V49.1297H1316.09L1316.07 49.1546Z" fill="white"/>
<path d="M1316.76 49.3167L1316.77 49.8279V50.5262L1316.48 49.3167H1315.99V51.7481H1316.41V51.0374L1316.4 50.4264L1316.71 51.7481H1317.18V49.3167H1316.76Z" fill="white"/>
<path d="M1317.93 50.3766H1318.56V51.3117C1318.56 51.611 1318.41 51.7606 1318.12 51.7606H1317.81C1317.51 51.7606 1317.36 51.611 1317.36 51.3117V49.7531C1317.36 49.4539 1317.51 49.3042 1317.81 49.3042H1318.12C1318.41 49.3042 1318.56 49.4539 1318.56 49.7531V50.2145H1318.08V49.803C1318.08 49.803 1318.06 49.7157 1317.99 49.7157H1317.92C1317.92 49.7157 1317.83 49.7406 1317.83 49.803V51.2618C1317.83 51.2618 1317.86 51.3491 1317.92 51.3491H1317.99C1317.99 51.3491 1318.08 51.3242 1318.08 51.2618V50.7756H1317.93V50.3641V50.3766Z" fill="white"/>
<path d="M1319.68 50.601V51.7481H1319.2V49.3167H1319.68V50.4638L1319.94 49.3167H1320.45L1320.12 50.5137L1320.43 51.7481H1319.93L1319.68 50.601Z" fill="white"/>
<path d="M1321.02 49.3167H1320.53V51.7357H1321.02V49.3167Z" fill="white"/>
<path d="M1321.96 49.3167V49.8279L1321.97 50.5262L1321.68 49.3167H1321.19V51.7481H1321.61L1321.6 51.0374V50.4264L1321.91 51.7481H1322.38V49.3167H1321.96Z" fill="white"/>
<path d="M1323.27 49.3167V50.3017H1323.03V49.3167H1322.54V51.7481H1323.03V50.7257H1323.27V51.7481H1323.75V49.3167H1323.27Z" fill="white"/>
<path d="M1324.35 49.3167V49.7531H1324.64V51.7481H1325.13V49.7531H1325.42V49.3167H1324.35Z" fill="white"/>
<path d="M1325.54 51.7357H1326.44V51.2993H1326.02V50.7132H1326.41V50.2768H1326.02V49.7282H1326.44V49.2918H1325.54V51.7357ZM1325.86 48.9302L1325.68 49.2294H1325.89L1325.99 49.1172L1326.09 49.2294H1326.3L1326.13 48.9302H1325.86ZM1326.38 48.7681L1326.28 49.0673H1326.53L1326.71 48.7681H1326.38Z" fill="white"/>
<rect x="731" y="111" width="606" height="258" rx="5" fill="#006D5A"/>
<rect x="731" y="111" width="606" height="258" rx="5" stroke="#4DD75A" stroke-width="6" stroke-linejoin="round"/>
<rect x="731" y="111" width="606" height="258" rx="5" stroke="#0B352E" stroke-width="6" stroke-linejoin="round" stroke-dasharray="12 12"/>
<text fill="#FFFFF1" xml:space="preserve" style="white-space: pre" font-family="VNM Sans Display" font-size="96" font-weight="bold" letter-spacing="0em"><tspan x="803.094" y="223.2" data-counter data-delay="600" data-from="0" data-to="47" data-ori="47">47</tspan></text>
<text fill="#FFFFF1" xml:space="preserve" style="white-space: pre" font-family="VNM Sans Display" font-size="24" font-weight="bold" letter-spacing="0em"><tspan x="819.5" y="249.28">N&#x102;M</tspan></text>
<text fill="#FFFFF1" xml:space="preserve" style="white-space: pre" font-family="VNM Sans Std" font-size="14" letter-spacing="0em"><tspan x="799.024" y="271.844">l&#xe0; chuy&#xea;n gia </tspan><tspan x="786.72" y="287.844">trong c&#xf4;ng ngh&#x1ec7; </tspan><tspan x="799.66" y="303.844">s&#x1ea3;n xu&#x1ea5;t s&#x1eef;a</tspan></text>
<text fill="#FFFFF1" xml:space="preserve" style="white-space: pre" font-family="VNM Sans Display" font-size="96" font-weight="bold" letter-spacing="0em"><tspan x="963.375" y="223.2" data-counter data-delay="600" data-from="0" data-to="33" data-ori="33">33</tspan></text>
<text fill="#FFFFF1" xml:space="preserve" style="white-space: pre" font-family="VNM Sans Display" font-size="24" font-weight="bold" letter-spacing="0em"><tspan x="979.5" y="249.28">N&#x102;M</tspan></text>
<text fill="#FFFFF1" xml:space="preserve" style="white-space: pre" font-family="VNM Sans Std" font-size="14" letter-spacing="0em"><tspan x="961.431" y="271.844">l&#xe0; ng&#x1b0;&#x1edd;i m&#x1edf; </tspan><tspan x="956.27" y="287.844">&#x111;&#x1b0;&#x1edd;ng trong &#x2028;</tspan><tspan x="941.436" y="303.844"> Ch&#x103;n nu&#xf4;i b&#xf2; s&#x1eef;a - </tspan><tspan x="946.303" y="319.844">C&#xe1;ch m&#x1ea1;ng tr&#x1eaf;ng</tspan></text>
<text fill="#FFFFF1" xml:space="preserve" style="white-space: pre" font-family="VNM Sans Std" font-size="14" letter-spacing="0em"><tspan x="1130.01" y="274.844">tr&#x1ea3;i d&#xe0;i kh&#x1eaf;p Vi&#x1ec7;t Nam</tspan></text>
<text fill="#FFFFF1" xml:space="preserve" style="white-space: pre" font-family="VNM Sans Display" font-size="96" font-weight="bold" letter-spacing="0em"><tspan x="1108.41" y="223.2" data-counter data-delay="600" data-from="0" data-to="14" data-ori="14">14</tspan></text>
<text fill="#FFFFF1" xml:space="preserve" style="white-space: pre" font-family="VNM Sans Display" font-size="24" font-weight="bold" letter-spacing="0em"><tspan x="1098" y="249.28">TRANG TR&#x1ea0;I</tspan></text>
<text fill="#FFFFF1" xml:space="preserve" style="white-space: pre" font-family="VNM Sans Display" font-size="96" font-weight="bold" letter-spacing="0em"><tspan x="1219.91" y="223.2" data-counter data-delay="600" data-from="0" data-to="14" data-ori="14">14</tspan></text>
<text fill="#FFFFF1" xml:space="preserve" style="white-space: pre" font-family="VNM Sans Display" font-size="24" font-weight="bold" letter-spacing="0em"><tspan x="1218" y="249.28">NH&#xc0; M&#xc1;Y</tspan></text>
<text fill="#006D5A" xml:space="preserve" style="white-space: pre" font-family="VNM Sans Display" font-size="80" font-weight="bold" letter-spacing="0em"><tspan x="212.945" y="144.6">KINH T&#x1ebe;&#x2028;</tspan><tspan x="152.438" y="228.6">&#x110;&#x1eca;A PH&#x1af;&#x1a0;NG&#xa0;</tspan></text>
<rect x="100" y="253" width="403" height="220" rx="8" fill="#FFFFF1"/>
<text fill="#006D5A" xml:space="preserve" style="white-space: pre" font-family="VNM Sans Std" font-size="16" letter-spacing="0em"><tspan x="128" y="305.536">47 </tspan><tspan x="152.156" y="305.536">n&#x103;m </tspan><tspan x="189.031" y="305.536">h&#xec;nh </tspan><tspan x="225.172" y="305.536">th&#xe0;nh </tspan><tspan x="273.016" y="305.536">ph&#xe1;t </tspan><tspan x="312.812" y="305.536">tri&#x1ec3;n </tspan><tspan x="352.688" y="305.536">l&#xe0; </tspan><tspan x="370.969" y="305.536">47 </tspan><tspan x="395.125" y="305.536">n&#x103;m </tspan><tspan x="432" y="305.536">kh&#xf4;ng </tspan><tspan x="128" y="323.536">ng&#x1eeb;ng </tspan><tspan x="176.906" y="323.536">l&#x1edb;n </tspan><tspan x="202.641" y="323.536">m&#x1ea1;nh </tspan><tspan x="244.578" y="323.536">c&#xf9;ng </tspan><tspan x="282.203" y="323.536">kinh </tspan><tspan x="313.953" y="323.536">t&#x1ebf; </tspan><tspan x="332.953" y="323.536">&#x111;&#x1ecb;a </tspan><tspan x="357.516" y="323.536">ph&#x1b0;&#x1a1;ng. </tspan><tspan x="419.453" y="323.536">Vinamilk </tspan><tspan x="128" y="341.536">th&#xf4;ng </tspan><tspan x="174.463" y="341.536">qua </tspan><tspan x="204.034" y="341.536">chu&#x1ed7;i </tspan><tspan x="244.747" y="341.536">gi&#xe1; </tspan><tspan x="268.678" y="341.536">tr&#x1ecb; </tspan><tspan x="288.234" y="341.536">c&#x1ee7;a </tspan><tspan x="315.994" y="341.536">m&#xec;nh </tspan><tspan x="353.144" y="341.536">th&#xfa;c </tspan><tspan x="388.591" y="341.536">&#x111;&#x1ea9;y </tspan><tspan x="417.819" y="341.536">n&#x1ec1;n </tspan><tspan x="447.406" y="341.536">kinh </tspan><tspan x="128" y="359.536">t&#x1ebf;, </tspan><tspan x="151.663" y="359.536">t&#x1ea1;o </tspan><tspan x="181.513" y="359.536">vi&#x1ec7;c </tspan><tspan x="214.784" y="359.536">l&#xe0;m </tspan><tspan x="244.416" y="359.536">hi&#x1ec7;u </tspan><tspan x="278.547" y="359.536">qu&#x1ea3;, </tspan><tspan x="312.85" y="359.536">c&#x1ea3;i </tspan><tspan x="337.091" y="359.536">thi&#x1ec7;n </tspan><tspan x="378.3" y="359.536">an </tspan><tspan x="400.556" y="359.536">ninh </tspan><tspan x="435.062" y="359.536">l&#x1b0;&#x1a1;ng </tspan><tspan x="128" y="377.536">th&#x1ef1;c, </tspan><tspan x="168.609" y="377.536">chung </tspan><tspan x="216.109" y="377.536">tay </tspan><tspan x="244.062" y="377.536">gi&#x1ea3;i </tspan><tspan x="272.234" y="377.536">quy&#x1ebf;t </tspan><tspan x="317.891" y="377.536">c&#xe1;c </tspan><tspan x="346.312" y="377.536">m&#x1ed1;i </tspan><tspan x="376.953" y="377.536">lo </tspan><tspan x="394.609" y="377.536">ng&#x1ea1;i </tspan><tspan x="428.391" y="377.536">v&#x1ec1; </tspan><tspan x="449.859" y="377.536">m&#xf4;i </tspan><tspan x="128" y="395.536">tr&#x1b0;&#x1edd;ng </tspan><tspan x="182.67" y="395.536">v&#xe0; </tspan><tspan x="203.247" y="395.536">bi&#x1ebf;n </tspan><tspan x="237.651" y="395.536">&#x111;&#x1ed5;i </tspan><tspan x="264.556" y="395.536">kh&#xed; </tspan><tspan x="288.819" y="395.536">h&#x1ead;u, </tspan><tspan x="321.365" y="395.536">th&#xfa;c </tspan><tspan x="357.832" y="395.536">&#x111;&#x1ea9;y </tspan><tspan x="388.08" y="395.536">t&#x103;ng </tspan><tspan x="425.531" y="395.536">tr&#x1b0;&#x1edf;ng </tspan><tspan x="128" y="413.536">b&#x1ec1;n </tspan><tspan x="158.764" y="413.536">v&#x1eef;ng </tspan><tspan x="198.513" y="413.536">v&#xe0; </tspan><tspan x="218.214" y="413.536">c&#xe2;n </tspan><tspan x="246.401" y="413.536">b&#x1eb1;ng </tspan><tspan x="285.493" y="413.536">trong </tspan><tspan x="328.57" y="413.536">x&#xe3; </tspan><tspan x="348.506" y="413.536">h&#x1ed9;i, </tspan><tspan x="376.348" y="413.536">&#x111;&#x1eb7;c </tspan><tspan x="405.487" y="413.536">bi&#x1ec7;t </tspan><tspan x="437.095" y="413.536">l&#xe0; </tspan><tspan x="452.078" y="413.536">c&#xe1;c </tspan><tspan x="128" y="431.536">&#x111;&#x1ecb;a </tspan><tspan x="151.062" y="431.536">ph&#x1b0;&#x1a1;ng </tspan><tspan x="208.672" y="431.536">Vinamilk </tspan><tspan x="266.875" y="431.536">c&#xf3; </tspan><tspan x="285.984" y="431.536">ho&#x1ea1;t </tspan><tspan x="320.641" y="431.536">&#x111;&#x1ed9;ng.</tspan></text>
</g>
<defs>
<clipPath id="clip0_113_2688">
<rect width="1440" height="774" fill="white"/>
</clipPath>
</defs>
</svg>
