<svg width="1440" height="774" viewBox="0 0 1440 774" fill="none" xmlns="http://www.w3.org/2000/svg">
<g clip-path="url(#clip0_201_2203)">
<path d="M1190 61H1150V101H1190V61Z" fill="#27BDE3"/>
<path d="M1156.05 72.5196C1157.49 72.5196 1158.05 71.7301 1158.05 70.4839V69.2949C1158.05 67.9727 1157.53 67.3068 1156.55 67.3068C1155.98 67.3068 1155.63 67.5636 1155.42 67.9631H1155.41V66.2224C1155.41 65.7372 1155.57 65.3853 1156.06 65.3853C1156.56 65.3853 1156.69 65.6706 1156.69 66.1748V66.7075H1157.93V66.2794C1157.93 65.0904 1157.54 64.2628 1156.03 64.2628C1154.53 64.2628 1154.07 65.176 1154.07 66.4411V70.3698C1154.07 71.6159 1154.62 72.5196 1156.05 72.5196ZM1155.42 69.1332C1155.45 68.6861 1155.63 68.3912 1156.07 68.3912C1156.54 68.3912 1156.71 68.6766 1156.71 69.1998V70.5981C1156.71 71.1118 1156.52 71.4067 1156.05 71.4067C1155.59 71.4067 1155.42 71.0927 1155.42 70.5981V69.1237V69.1332Z" fill="#FFFFF1"/>
<path d="M1177.37 77.1712C1177.37 77.1712 1177.3 77.1142 1177.24 77.1142H1162.73C1162.68 77.1142 1162.64 77.1332 1162.6 77.1712C1162.57 77.2093 1162.55 77.2568 1162.56 77.3044L1164.99 92.0488C1165 92.1344 1165.08 92.1914 1165.17 92.1914H1168.15L1168.36 94.5981H1167.11L1170.04 97.5279L1172.98 94.5886H1171.72L1171.93 92.1914H1174.98C1175.06 92.1914 1175.13 92.1344 1175.14 92.0488L1177.42 77.3044C1177.42 77.2568 1177.42 77.2093 1177.38 77.1712M1171.76 88.9762C1171.76 88.9762 1171.1 89.6516 1170.03 89.5755C1168.95 89.6516 1168.3 88.9762 1168.3 88.9762C1167.21 87.8918 1167.6 86.541 1167.97 85.8371C1168.2 85.3995 1169.88 82.8882 1170.02 82.679V82.6599V82.6694C1170.16 82.8787 1171.84 85.39 1172.06 85.8276C1172.44 86.522 1172.84 87.8728 1171.74 88.9667M1176.37 80.2723C1175.97 80.1011 1175.47 80.1581 1174.99 80.3579C1173.2 81.0904 1171.97 81.3472 1170.08 80.7574C1168.89 80.3864 1167.76 79.6064 1166.45 80.082C1165.58 80.396 1164.76 80.7004 1163.77 80.6908L1163.2 77.761H1176.77L1176.37 80.2818V80.2723Z" fill="#FFFFF1"/>
<path d="M1162.04 66.8312L1162.05 67.4495L1162.06 68.1534H1161.64V65.7277H1162.13L1162.41 66.9263V66.2319L1162.4 65.7277H1162.82V68.1534H1162.35L1162.04 66.8312Z" fill="#FFFFF1"/>
<path d="M1164.43 65.6611C1164.43 65.8514 1164.35 65.956 1164.18 65.9655V67.7158C1164.18 68.0202 1164.03 68.1629 1163.73 68.1629H1163.44C1163.13 68.1629 1162.99 68.0107 1162.99 67.7158V65.7182H1163.47V67.6587C1163.47 67.7158 1163.5 67.7444 1163.56 67.7444H1163.61C1163.66 67.7444 1163.69 67.7158 1163.69 67.6587V65.7182H1164.06C1164.12 65.7182 1164.15 65.6897 1164.15 65.6326V65.547H1164.43V65.6611Z" fill="#FFFFF1"/>
<path d="M1165.07 66.2128C1165.07 66.1558 1165.04 66.1272 1164.99 66.1272H1164.92C1164.86 66.1272 1164.83 66.1558 1164.83 66.2128V67.6683C1164.83 67.7253 1164.86 67.7539 1164.92 67.7539H1164.99C1165.04 67.7539 1165.07 67.7253 1165.07 67.6683V66.2128ZM1165.07 65.6326H1164.82L1164.93 65.3377H1165.26L1165.07 65.6326ZM1165.79 65.5565V65.6611C1165.79 65.8609 1165.71 65.956 1165.53 65.9655C1165.55 66.0226 1165.56 66.0797 1165.56 66.1558V67.7158C1165.56 68.0202 1165.4 68.1629 1165.11 68.1629H1164.79C1164.49 68.1629 1164.35 68.0107 1164.35 67.7158V66.1558C1164.35 65.8514 1164.5 65.7087 1164.79 65.7087H1165.11C1165.22 65.7087 1165.32 65.7277 1165.38 65.7753L1165.4 65.7277H1165.44C1165.5 65.7277 1165.53 65.6992 1165.53 65.6421V65.5565H1165.8H1165.79Z" fill="#FFFFF1"/>
<path d="M1166.91 67.7253C1166.91 68.0297 1166.76 68.1724 1166.46 68.1724H1166.17C1165.86 68.1724 1165.72 68.0202 1165.72 67.7253V66.1653C1165.72 65.8609 1165.87 65.7182 1166.17 65.7182H1166.46C1166.77 65.7182 1166.91 65.8704 1166.91 66.1653V66.736H1166.43V66.2224C1166.43 66.1653 1166.4 66.1367 1166.35 66.1367H1166.29C1166.23 66.1367 1166.2 66.1653 1166.2 66.2224V67.6778C1166.2 67.7348 1166.23 67.7634 1166.29 67.7634H1166.36C1166.41 67.7634 1166.44 67.7348 1166.44 67.6778V67.088H1166.92V67.7253H1166.91Z" fill="#FFFFF1"/>
<path d="M1168.7 67.2782V67.7253C1168.7 68.0297 1168.54 68.1724 1168.25 68.1724H1167.98C1167.68 68.1724 1167.54 68.0202 1167.54 67.7253V67.2117H1168.01V67.6873C1168.01 67.7444 1168.04 67.7729 1168.1 67.7729H1168.14C1168.2 67.7729 1168.23 67.7444 1168.23 67.6873V67.3924C1168.23 67.3163 1168.2 67.2782 1168.14 67.2402L1167.73 66.9358C1167.57 66.8312 1167.54 66.7265 1167.54 66.5553V66.1748C1167.54 65.8704 1167.69 65.7277 1167.98 65.7277H1168.25C1168.55 65.7277 1168.7 65.8799 1168.7 66.1748V66.6219H1168.22V66.2224C1168.22 66.1653 1168.19 66.1367 1168.13 66.1367H1168.1C1168.04 66.1367 1168.01 66.1653 1168.01 66.2224V66.4507C1168.01 66.5268 1168.04 66.5648 1168.1 66.6029L1168.52 66.9073C1168.67 67.0119 1168.71 67.107 1168.71 67.2878" fill="#FFFFF1"/>
<path d="M1169.5 67.3734L1169.39 66.3175L1169.29 67.3734H1169.51H1169.5ZM1169.22 68.3722H1169.61V68.7717H1169.22V68.3722ZM1169.53 67.7919H1169.23L1169.19 68.1439H1168.75L1169.08 65.7182H1169.73L1170.05 68.1439H1169.57L1169.53 67.7919Z" fill="#FFFFF1"/>
<path d="M1171.33 67.7253C1171.33 68.0297 1171.18 68.1724 1170.88 68.1724H1170.59C1170.29 68.1724 1170.14 68.0202 1170.14 67.7253V66.1653C1170.14 65.8609 1170.29 65.7182 1170.59 65.7182H1170.88C1171.19 65.7182 1171.33 65.8704 1171.33 66.1653V66.736H1170.86V66.2224C1170.86 66.1653 1170.83 66.1367 1170.77 66.1367H1170.71C1170.66 66.1367 1170.63 66.1653 1170.63 66.2224V67.6778C1170.63 67.7348 1170.66 67.7634 1170.71 67.7634H1170.78C1170.84 67.7634 1170.87 67.7348 1170.87 67.6778V67.088H1171.34V67.7253H1171.33Z" fill="#FFFFF1"/>
<path d="M1172.23 65.7277H1172.7V68.1534H1172.23V67.1356H1171.98V68.1534H1171.49V65.7277H1171.98V66.7075H1172.23V65.7277Z" fill="#FFFFF1"/>
<path d="M1162.29 71.8442L1162.35 71.7111L1162.12 71.2925C1162.12 71.2925 1162.06 71.3686 1162.06 71.4447V71.8442C1162.06 71.9013 1162.09 71.9203 1162.14 71.9203H1162.21C1162.25 71.9203 1162.28 71.9013 1162.3 71.8442M1162.21 72.3199H1162.03C1161.74 72.3199 1161.61 72.1772 1161.61 71.9013V71.4162C1161.61 71.2449 1161.65 71.1118 1161.77 71.0071L1161.9 70.893L1161.83 70.7503C1161.75 70.6171 1161.74 70.5315 1161.74 70.3983V70.3222C1161.74 70.0178 1161.89 69.8752 1162.19 69.8752H1162.4C1162.7 69.8752 1162.84 70.0274 1162.84 70.3222V70.6457H1162.4V70.3698C1162.4 70.3127 1162.37 70.2842 1162.31 70.2842H1162.27C1162.22 70.2842 1162.19 70.3127 1162.19 70.3698V70.4174C1162.19 70.503 1162.21 70.5696 1162.25 70.6457L1162.56 71.1974L1162.66 70.874H1163.14L1162.85 71.673L1163.2 72.3103H1162.7L1162.59 72.1106C1162.51 72.2628 1162.42 72.3294 1162.21 72.3294" fill="#FFFFF1"/>
<path d="M1163.64 69.8752H1164.13L1164.3 71.5969L1164.48 69.8752H1164.93L1164.61 72.3008H1163.97L1163.64 69.8752Z" fill="#FFFFF1"/>
<path d="M1165.28 72.9191H1165.67V72.5196H1165.28V72.9191ZM1165.03 69.8751V72.3008H1165.94V71.8728H1165.52V71.2925H1165.92V70.8549H1165.52V70.3127H1165.94V69.8847H1165.03V69.8751ZM1165.35 69.4851L1165.17 69.78H1165.38L1165.47 69.6659L1165.57 69.78H1165.78L1165.59 69.4851H1165.33H1165.35Z" fill="#FFFFF1"/>
<path d="M1167.73 71.4257V71.8728C1167.73 72.1772 1167.57 72.3199 1167.28 72.3199H1167.01C1166.71 72.3199 1166.56 72.1677 1166.56 71.8728V71.3591H1167.04V71.8347C1167.04 71.8918 1167.07 71.9203 1167.13 71.9203H1167.17C1167.23 71.9203 1167.26 71.8918 1167.26 71.8347V71.5398C1167.26 71.4637 1167.23 71.4257 1167.17 71.3876L1166.75 71.0832C1166.6 70.9786 1166.56 70.874 1166.56 70.7027V70.3222C1166.56 70.0178 1166.72 69.8752 1167.01 69.8752H1167.28C1167.58 69.8752 1167.73 70.0274 1167.73 70.3222V70.7693H1167.25V70.3698C1167.25 70.3127 1167.22 70.2842 1167.16 70.2842H1167.13C1167.07 70.2842 1167.04 70.3127 1167.04 70.3698V70.5981C1167.04 70.6742 1167.07 70.7122 1167.13 70.7503L1167.54 71.0547C1167.7 71.1593 1167.73 71.2545 1167.73 71.4352" fill="#FFFFF1"/>
<path d="M1168.35 69.8752H1167.87V72.3008H1168.35V69.8752Z" fill="#FFFFF1"/>
<path d="M1168.93 70.9786L1168.94 71.5969L1168.95 72.3008H1168.53V69.8752H1169.03L1169.31 71.0737L1169.3 70.3793V69.8752H1169.71V72.3008H1169.24L1168.93 70.9786Z" fill="#FFFFF1"/>
<path d="M1170.61 69.8752H1171.1V72.3008H1170.61V71.283H1170.37V72.3008H1169.89V69.8752H1170.37V70.8549H1170.61V69.8752Z" fill="#FFFFF1"/>
<path d="M1240 61H1200V101H1240V61Z" fill="#417E45"/>
<path d="M1205.04 64.3579V72.415H1203.69V66.2414H1203.68L1202.73 67.2307H1202.71V65.8228L1203.97 64.3579H1205.04Z" fill="#FFFFF1"/>
<path d="M1209.51 66.1082V66.8121C1209.51 67.4875 1209.14 67.9441 1208.59 68.1249C1209.27 68.2771 1209.59 68.7527 1209.59 69.4946V70.6837C1209.59 71.7967 1209 72.5291 1207.63 72.5291C1206.26 72.5291 1205.77 71.7491 1205.77 70.522V69.4661H1207V70.6171C1207 71.0927 1207.16 71.4067 1207.63 71.4067C1208.05 71.4067 1208.24 71.1118 1208.24 70.6837V69.352C1208.24 68.9239 1208.05 68.6956 1207.57 68.6956H1207V67.6587H1207.52C1207.95 67.6587 1208.24 67.4304 1208.24 67.0024V66.1367C1208.24 65.6992 1208.09 65.4138 1207.66 65.4138C1207.23 65.4138 1207.08 65.6992 1207.08 66.2033V67.0214H1205.84V66.308C1205.84 65.1189 1206.33 64.2913 1207.74 64.2913C1208.98 64.2913 1209.53 64.9952 1209.53 66.1367" fill="#FFFFF1"/>
<path d="M1234.98 89.0428C1233.93 87.5684 1229.16 81.6611 1220.3 81.6611C1211.45 81.6611 1206.68 87.5589 1205.62 89.0428C1205.57 89.1094 1205.54 89.157 1205.51 89.2045C1205.54 89.2521 1205.57 89.3092 1205.62 89.3662C1206.68 90.8407 1211.45 96.7479 1220.3 96.7479C1229.16 96.7479 1233.93 90.8502 1234.98 89.3662C1235.03 89.2996 1235.07 89.2521 1235.1 89.2045C1235.07 89.157 1235.03 89.0999 1234.98 89.0428ZM1215.36 85.3995C1215.43 85.2854 1215.7 84.9429 1215.74 84.9049C1215.8 84.8193 1215.94 84.8002 1216.03 84.7812C1216.13 84.7622 1216.25 84.8193 1216.27 84.8859C1216.29 84.9524 1216.23 85.2283 1216.18 85.2759C1216.05 85.409 1215.72 85.5993 1215.53 85.5708C1215.38 85.5517 1215.33 85.4376 1215.36 85.3995ZM1215.04 86.0273C1215.04 86.0273 1215.07 85.9988 1215.07 85.9893C1215.18 85.8656 1215.4 85.8371 1215.56 85.8086C1215.71 85.78 1215.92 85.8561 1215.94 85.9608C1215.96 86.0654 1215.56 86.2461 1215.48 86.3222C1215.27 86.522 1214.94 86.9215 1214.74 86.9596C1214.67 86.9691 1214.62 86.9596 1214.58 86.9405C1214.71 86.6171 1214.86 86.3127 1215.03 86.0273M1218.35 92.8288C1218.23 93.3044 1218.1 93.4756 1217.97 93.6183C1217.85 93.7705 1217.41 93.9608 1217.13 93.9417C1216.85 93.9227 1216.8 93.1712 1216.8 92.7812C1216.8 92.648 1216.61 93.0476 1216.52 92.239C1216.45 91.7253 1216.13 92.2961 1216.1 91.9536C1216.07 91.6112 1215.91 91.6778 1215.74 91.4685C1215.56 91.2497 1215.35 91.4875 1215.11 91.5922C1214.87 91.6968 1214.97 91.7539 1214.62 91.6492C1214.62 91.6492 1214.61 91.6492 1214.6 91.6492C1214.29 90.9073 1214.12 90.0987 1214.12 89.2426C1214.12 89.0333 1214.13 88.8335 1214.15 88.6243C1214.16 88.6052 1214.17 88.5862 1214.19 88.5672C1214.51 88.1867 1214.5 88.0916 1214.5 88.0916L1214.86 87.9679C1214.86 87.9679 1215.44 88.0535 1215.87 88.2247C1216.23 88.3579 1216.79 88.6623 1217.12 88.5291C1217.35 88.434 1217.53 88.3008 1217.52 88.1011C1217.49 87.8537 1217.3 87.7967 1217.06 87.9584C1216.97 88.025 1216.78 87.5874 1216.64 87.6064C1216.5 87.6254 1216.82 88.1201 1216.7 88.1391C1216.57 88.1581 1216.33 87.635 1216.28 87.5493C1216.24 87.4637 1216.04 87.2545 1215.87 87.4162C1215.51 87.7586 1214.92 87.7396 1214.79 87.8347C1214.43 88.1011 1214.34 87.7491 1214.35 87.5303C1214.36 87.4828 1214.38 87.4257 1214.39 87.3781C1214.51 87.2449 1214.94 87.2069 1215.08 87.302C1215.24 87.4067 1215.36 87.2735 1215.41 87.2069C1215.48 87.1403 1215.45 87.0452 1215.41 86.9596C1215.37 86.874 1215.49 86.8074 1215.57 86.7884C1215.66 86.7693 1215.94 86.5696 1216.04 86.5125C1216.15 86.4459 1216.73 86.3793 1216.98 86.5125C1217.24 86.6457 1217.47 86.541 1217.6 86.3888C1217.76 86.1986 1217.96 86.0559 1218.05 86.0178C1218.13 85.9798 1217.83 85.6849 1217.57 85.9988C1217.32 86.3127 1217.19 86.3413 1217.07 86.3413C1216.94 86.3413 1216.23 86.1605 1216.15 85.9417C1216.06 85.7134 1216.37 85.5517 1216.63 85.4186C1216.9 85.2949 1217.61 85.2949 1217.8 85.2568C1218.17 85.1712 1218.66 84.9905 1218.9 85.1522C1219.13 85.3139 1217.89 85.5993 1218.3 85.8181C1218.44 85.8942 1219.1 85.4376 1219.32 85.3234C1219.86 85.0476 1218.81 84.962 1218.94 84.4007C1219.09 83.7729 1217.66 84.0107 1216.94 84.0678C1217.91 83.4495 1219.05 83.0975 1220.27 83.0975C1223.18 83.0975 1225.62 85.1142 1226.27 87.8252C1226.27 87.9584 1226.25 88.0535 1226.24 88.1106C1226.18 88.3294 1225.76 88.5196 1225.52 88.1677C1225.45 88.082 1225.19 87.8252 1225.2 88.2533C1225.2 88.6813 1225.62 88.7194 1225.22 88.9762C1224.82 89.2331 1224.76 89.176 1224.58 89.2331C1224.39 89.2996 1224.21 89.7372 1224.26 89.975C1224.31 90.2128 1224.87 90.8502 1224.45 90.8312C1224.36 90.8312 1223.61 90.3175 1223.49 89.9941C1223.37 89.6516 1223.22 89.3187 1223.12 89.0618C1223.01 88.805 1222.76 88.7384 1222.54 88.8906C1222.32 89.0428 1222.6 89.195 1222.44 89.5089C1222.28 89.8323 1222.18 90.1177 1221.94 89.8514C1221.34 89.157 1220.46 89.4994 1220.32 88.7289C1220.25 88.3103 1219.88 88.3484 1219.59 88.1201C1219.29 87.8823 1219.12 87.7586 1219.07 87.9298C1219.02 88.082 1220.01 88.8621 1220.08 89.0618C1220.19 89.3567 1219.79 89.6231 1219.49 89.6897C1219.2 89.7562 1219.08 89.5279 1218.78 89.2235C1218.5 88.9287 1218.37 88.7099 1218.35 88.9477C1218.32 89.2901 1218.63 89.7848 1218.92 89.975C1219.17 90.1367 1219.46 90.2033 1219.37 90.4602C1219.29 90.717 1219.37 90.5743 1219.09 90.8502C1218.81 91.126 1218.75 91.2212 1218.77 91.6017C1218.79 91.9917 1218.69 92.0107 1218.63 92.3341C1218.57 92.6576 1218.43 92.3817 1218.31 92.8478M1224.97 90.3746C1225.18 90.3555 1225.5 90.6409 1225.37 90.7551C1225.25 90.8597 1224.95 90.8216 1224.78 90.698C1224.63 90.5743 1224.88 90.3746 1224.97 90.365M1224.72 90.1843C1224.65 90.1558 1224.59 90.0987 1224.55 89.9465C1224.5 89.7943 1224.62 89.7087 1224.75 89.7658C1224.87 89.8323 1225.04 90.0226 1225.04 90.1177C1225.04 90.2128 1224.79 90.2033 1224.73 90.1748M1221.99 90.1653C1221.86 90.2699 1221.55 90.2319 1221.4 90.1082C1221.25 89.9845 1221.49 89.7848 1221.59 89.7848C1221.8 89.7658 1222.11 90.0606 1221.99 90.1653ZM1219.47 91.3924C1219.38 91.5351 1219.15 92.5719 1218.99 92.4483C1218.84 92.3246 1219.06 91.2402 1219.09 91.1641C1219.34 90.717 1219.87 90.736 1219.46 91.3924M1220.3 95.4162C1219.7 95.4162 1219.12 95.3306 1218.57 95.1688C1218.5 95.1023 1218.45 94.9976 1218.5 94.8644C1218.69 94.3698 1219.26 94.17 1219.7 94.132C1220.7 94.0369 1222.02 94.7788 1222.23 94.6647C1222.44 94.541 1222.87 93.9988 1223.49 94.0178C1223.92 94.0369 1223.91 94.1035 1224.05 94.1605C1223.01 94.9501 1221.72 95.4257 1220.31 95.4257M1224.66 93.6183C1224.59 93.5993 1224.54 93.5803 1224.47 93.5517C1224.14 93.3805 1224.18 93.6564 1224 93.5898C1223.84 93.5327 1224.19 93.1427 1223.69 93.4661C1223.2 93.7895 1223.33 93.4186 1223.11 92.8668C1222.89 92.3151 1223.36 91.6873 1223.75 91.5446C1224.28 91.3543 1224.61 91.3163 1224.87 91.2497C1225.61 91.069 1225.76 90.6219 1225.9 90.8882C1225.93 90.9358 1225.95 90.9834 1225.97 91.0309C1226.01 91.107 1226.07 91.2782 1226.07 91.4304C1225.76 92.258 1225.27 93 1224.65 93.6088M1226.35 90.5077C1226.19 90.4602 1225.5 89.4994 1226.04 88.8716C1226.14 88.7669 1225.86 88.4625 1225.94 88.4625C1226.24 88.4435 1226.39 88.6243 1226.48 88.8906C1226.48 89.0048 1226.49 89.1284 1226.49 89.2521C1226.49 89.6801 1226.44 90.1082 1226.35 90.5077Z" fill="#FFFFF1"/>
<path d="M1213.58 65.9655H1214.06V68.3817H1213.58V67.3734H1213.33V68.3817H1212.85V65.9655H1213.33V66.9358H1213.58V65.9655Z" fill="#FFFFF1"/>
<path d="M1214.9 67.6112L1214.8 66.5553L1214.69 67.6112H1214.91H1214.9ZM1214.69 65.8704L1214.5 65.5755H1214.83L1214.93 65.8704H1214.68H1214.69ZM1214.95 68.0297H1214.64L1214.61 68.3817H1214.17L1214.48 65.956H1215.14L1215.45 68.3817H1214.98L1214.94 68.0297H1214.95Z" fill="#FFFFF1"/>
<path d="M1215.98 67.069V67.6873L1215.99 68.3817H1215.57V65.9655H1216.06L1216.35 67.1641L1216.34 66.4697L1216.33 65.9655H1216.75V68.3817H1216.28L1215.98 67.069Z" fill="#FFFFF1"/>
<path d="M1217.65 65.9655H1218.13V68.3817H1217.65V67.3734H1217.4V68.3817H1216.92V65.9655H1217.4V66.9358H1217.65V65.9655Z" fill="#FFFFF1"/>
<path d="M1219.43 66.9738V67.3353H1219.3V67.9631H1219.39C1219.49 67.9631 1219.52 67.9251 1219.52 67.83V66.5077C1219.52 66.4126 1219.49 66.3746 1219.39 66.3746H1219.3V66.9738H1219.43ZM1218.69 66.9834H1218.81V65.975H1219.5C1219.85 65.975 1220.02 66.1463 1220.02 66.4982V67.887C1220.02 68.239 1219.85 68.4102 1219.5 68.4102H1218.81V67.3639H1218.69V66.9834Z" fill="#FFFFF1"/>
<path d="M1220.81 66.3555H1220.74C1220.68 66.3555 1220.66 66.3841 1220.66 66.4411V67.8966C1220.66 67.9536 1220.68 67.9822 1220.74 67.9822H1220.81C1220.86 67.9822 1220.89 67.9536 1220.89 67.8966V66.4411C1220.89 66.3841 1220.86 66.3555 1220.81 66.3555ZM1220.58 68.6005H1220.97V69H1220.58V68.6005ZM1220.87 65.8704L1220.78 65.7562L1220.68 65.8704H1220.47L1220.65 65.5755H1220.91L1221.09 65.8704H1220.87ZM1220.93 68.4102H1220.62C1220.31 68.4102 1220.17 68.258 1220.17 67.9631V66.4031C1220.17 66.0987 1220.32 65.956 1220.62 65.956H1220.93C1221.24 65.956 1221.38 66.1082 1221.38 66.4031V67.9631C1221.38 68.2675 1221.23 68.4102 1220.93 68.4102Z" fill="#FFFFF1"/>
<path d="M1221.95 67.069L1221.96 67.6873L1221.97 68.3817H1221.55V65.9655H1222.05L1222.32 67.1641L1222.31 66.4697V65.9655H1222.73V68.3817H1222.26L1221.95 67.069Z" fill="#FFFFF1"/>
<path d="M1223.48 67.0214H1224.11V67.9631C1224.11 68.2675 1223.96 68.4102 1223.66 68.4102H1223.35C1223.05 68.4102 1222.9 68.258 1222.9 67.9631V66.4031C1222.9 66.0987 1223.05 65.956 1223.35 65.956H1223.65C1223.96 65.956 1224.1 66.1082 1224.1 66.4031V66.8692H1223.63V66.4602C1223.63 66.4031 1223.6 66.3746 1223.54 66.3746H1223.47C1223.42 66.3746 1223.39 66.4031 1223.39 66.4602V67.9156C1223.39 67.9727 1223.42 68.0012 1223.47 68.0012H1223.55C1223.61 68.0012 1223.63 67.9727 1223.63 67.9156V67.4304H1223.48V67.0214Z" fill="#FFFFF1"/>
<path d="M1225.46 65.8704H1225.21L1225.32 65.5755H1225.65L1225.46 65.8704ZM1226.18 65.7943V65.8989C1226.18 66.0892 1226.11 66.1938 1225.94 66.2033V67.9536C1225.94 68.258 1225.79 68.4007 1225.49 68.4007H1225.2C1224.89 68.4007 1224.75 68.2485 1224.75 67.9536V65.956H1225.23V67.8966C1225.23 67.9536 1225.26 67.9822 1225.32 67.9822H1225.38C1225.43 67.9822 1225.46 67.9536 1225.46 67.8966V65.956H1225.83C1225.89 65.956 1225.92 65.9275 1225.92 65.8704V65.7848H1226.19L1226.18 65.7943Z" fill="#FFFFF1"/>
<path d="M1226.51 67.069L1226.52 67.6873V68.3817H1226.1V65.9655H1226.59L1226.88 67.1641L1226.87 66.4697V65.9655H1227.29V68.3817H1226.81L1226.51 67.069Z" fill="#FFFFF1"/>
<path d="M1228.04 67.0214H1228.67V67.9631C1228.67 68.2675 1228.52 68.4102 1228.22 68.4102H1227.91C1227.6 68.4102 1227.46 68.258 1227.46 67.9631V66.4031C1227.46 66.0987 1227.61 65.956 1227.91 65.956H1228.21C1228.52 65.956 1228.66 66.1082 1228.66 66.4031V66.8692H1228.18V66.4602C1228.18 66.4031 1228.15 66.3746 1228.1 66.3746H1228.03C1227.97 66.3746 1227.94 66.4031 1227.94 66.4602V67.9156C1227.94 67.9727 1227.97 68.0012 1228.03 68.0012H1228.11C1228.16 68.0012 1228.19 67.9727 1228.19 67.9156V67.4304H1228.04V67.0214Z" fill="#FFFFF1"/>
<path d="M1213.43 70.5315H1213.33V71.283H1213.43C1213.49 71.283 1213.52 71.2545 1213.52 71.1974V70.6171C1213.52 70.5601 1213.49 70.5315 1213.43 70.5315ZM1212.85 72.5386V70.113H1213.57C1213.87 70.113 1214.01 70.2652 1214.01 70.5601V71.2449C1214.01 71.5493 1213.86 71.692 1213.57 71.692H1213.34V72.5291H1212.85V72.5386Z" fill="#FFFFF1"/>
<path d="M1214.87 70.113H1215.36V72.5386H1214.87V71.5208H1214.62V72.5386H1214.14V70.113H1214.62V71.0927H1214.87V70.113Z" fill="#FFFFF1"/>
<path d="M1216.17 70.5125H1216.1C1216.04 70.5125 1216.01 70.541 1216.01 70.5981V72.063C1216.01 72.1201 1216.04 72.1486 1216.1 72.1486H1216.17C1216.22 72.1486 1216.25 72.1201 1216.25 72.063V70.5981C1216.25 70.541 1216.22 70.5125 1216.17 70.5125ZM1216.44 69.7229L1216.25 70.0178H1216L1216.11 69.7229H1216.44ZM1216.28 72.5577H1215.97C1215.66 72.5577 1215.52 72.4055 1215.52 72.1106V70.5505C1215.52 70.2461 1215.67 70.1034 1215.97 70.1034H1216.28C1216.59 70.1034 1216.73 70.2556 1216.73 70.5505V72.1106C1216.73 72.415 1216.58 72.5577 1216.28 72.5577Z" fill="#FFFFF1"/>
<path d="M1217.3 70.113H1217.79L1217.96 71.8347L1218.13 70.113H1218.58L1218.26 72.5386H1217.62L1217.3 70.113Z" fill="#FFFFF1"/>
<path d="M1219.39 70.5981C1219.39 70.541 1219.36 70.5125 1219.31 70.5125H1219.24C1219.18 70.5125 1219.15 70.541 1219.15 70.5981V72.0535C1219.15 72.1106 1219.18 72.1391 1219.24 72.1391H1219.31C1219.36 72.1391 1219.39 72.1106 1219.39 72.0535V70.5981ZM1219.4 70.0273H1219.15L1219.26 69.7325H1219.59L1219.4 70.0273ZM1220.12 69.9512V70.0559C1220.12 70.2652 1220.04 70.3508 1219.86 70.3603C1219.88 70.4174 1219.89 70.4744 1219.89 70.5505V72.1106C1219.89 72.415 1219.73 72.5577 1219.44 72.5577H1219.12C1218.82 72.5577 1218.68 72.4055 1218.68 72.1106V70.5505C1218.68 70.2461 1218.83 70.1034 1219.12 70.1034H1219.44C1219.55 70.1034 1219.65 70.1225 1219.71 70.17V70.1225H1219.77C1219.83 70.1225 1219.86 70.0939 1219.86 70.0369V69.9512H1220.13H1220.12Z" fill="#FFFFF1"/>
<path d="M1220.53 70.113H1220.05V72.5386H1220.53V70.113Z" fill="#FFFFF1"/>
<path d="M1221.78 72.1201C1221.84 72.1201 1221.86 72.0916 1221.86 72.0345V71.5969C1221.86 71.5398 1221.84 71.5113 1221.78 71.5113H1221.66V72.1201H1221.78ZM1221.77 70.5315H1221.66V71.1023H1221.77C1221.83 71.1023 1221.86 71.0737 1221.86 71.0166V70.6171C1221.86 70.5601 1221.83 70.5315 1221.77 70.5315ZM1222.35 71.5969V72.0916C1222.35 72.396 1222.2 72.5386 1221.9 72.5386H1221.18V70.113H1221.89C1222.2 70.113 1222.34 70.2652 1222.34 70.5601V70.9215C1222.34 71.1308 1222.26 71.2354 1222.14 71.283C1222.28 71.321 1222.35 71.4162 1222.35 71.5969Z" fill="#FFFFF1"/>
<path d="M1222.99 70.113H1222.5V72.5386H1222.99V70.113Z" fill="#FFFFF1"/>
<path d="M1224.34 69.5612L1224.15 69.8561H1223.9L1224.01 69.5612H1224.34ZM1223.71 70.0273L1223.61 69.9132L1223.52 70.0273H1223.31L1223.49 69.7325H1223.76L1223.93 70.0273H1223.71ZM1224.06 70.5505H1223.64V71.0927H1224.04V71.5303H1223.64V72.1106H1224.06V72.5386H1223.16V70.113H1224.06V70.5505Z" fill="#FFFFF1"/>
<path d="M1224.63 71.2164L1224.64 71.8347V72.5386H1224.22V70.113H1224.72L1225 71.3115L1225 70.6171V70.113H1225.41V72.5386H1224.94L1224.63 71.2164Z" fill="#FFFFF1"/>
<path d="M1226.71 71.1213V71.4923H1226.57V72.1201H1226.67C1226.76 72.1201 1226.8 72.082 1226.8 71.9869V70.6647C1226.8 70.5696 1226.76 70.5315 1226.67 70.5315H1226.57V71.1213H1226.71ZM1225.96 71.4923V71.1213H1226.09V70.113H1226.77C1227.13 70.113 1227.3 70.2842 1227.3 70.6361V72.0155C1227.3 72.3674 1227.13 72.5386 1226.77 72.5386H1226.09V71.4923H1225.96Z" fill="#FFFFF1"/>
<path d="M1228.44 69.6088V69.5803C1228.44 69.5803 1228.44 69.5707 1228.43 69.5707H1228.42C1228.42 69.5707 1228.41 69.5707 1228.41 69.5803V69.6278H1228.25V69.5803C1228.25 69.4661 1228.31 69.4185 1228.41 69.4185H1228.47C1228.58 69.4185 1228.63 69.4756 1228.63 69.5803V69.5993C1228.63 69.6564 1228.62 69.7039 1228.57 69.7515L1228.52 69.8086C1228.52 69.8086 1228.5 69.8371 1228.5 69.8847H1228.35V69.8276C1228.35 69.761 1228.35 69.742 1228.39 69.7039L1228.42 69.6754C1228.42 69.6754 1228.45 69.6373 1228.45 69.6088M1228.09 70.5125H1228.02C1227.96 70.5125 1227.93 70.541 1227.93 70.5981V72.063C1227.93 72.1201 1227.96 72.1486 1228.02 72.1486H1228.09C1228.14 72.1486 1228.17 72.1201 1228.17 72.063V70.5981C1228.17 70.541 1228.14 70.5125 1228.09 70.5125ZM1228.15 70.0273L1228.06 69.9132L1227.96 70.0273H1227.75L1227.92 69.7325H1228.19L1228.37 70.0273H1228.15ZM1228.21 72.5577H1227.9C1227.59 72.5577 1227.45 72.4055 1227.45 72.1106V70.5505C1227.45 70.2461 1227.6 70.1034 1227.9 70.1034H1228.21C1228.51 70.1034 1228.66 70.2556 1228.66 70.5505V72.1106C1228.66 72.415 1228.51 72.5577 1228.21 72.5577Z" fill="#FFFFF1"/>
<path d="M1229.32 70.113H1228.83V72.5386H1229.32V70.113Z" fill="#FFFFF1"/>
<path d="M1213.33 75.5446V76.6861H1212.85V74.2604H1213.33V75.4019L1213.61 74.2604H1214.11L1213.79 75.459L1214.09 76.6861H1213.58L1213.33 75.5446Z" fill="#FFFFF1"/>
<path d="M1214.91 74.2604H1215.4V76.6861H1214.91V75.6778H1214.67V76.6861H1214.19V74.2604H1214.67V75.2402H1214.91V74.2604Z" fill="#FFFFF1"/>
<path d="M1215.57 76.6861H1216.06V74.2604H1215.57V76.6861ZM1215.79 73.8799L1215.69 74.1748H1215.94L1216.13 73.8799H1215.79Z" fill="#FFFFF1"/>
<path d="M1217.43 74.2604H1217.92V76.6861H1217.43V75.6778H1217.18V76.6861H1216.71V74.2604H1217.18V75.2402H1217.43V74.2604Z" fill="#FFFFF1"/>
<path d="M1218.75 75.9156L1218.65 74.8597L1218.54 75.9156H1218.76H1218.75ZM1218.48 76.9049H1218.87V77.3044H1218.48V76.9049ZM1218.76 74.1748L1218.67 74.0606L1218.57 74.1748H1218.36L1218.54 73.8799H1218.81L1218.99 74.1748H1218.76ZM1218.8 76.3341H1218.5L1218.46 76.6861H1218.02L1218.33 74.2604H1218.99L1219.3 76.6861H1218.83L1218.79 76.3341H1218.8Z" fill="#FFFFF1"/>
<path d="M1220.14 76.7051H1219.85C1219.54 76.7051 1219.4 76.5529 1219.4 76.258V74.2604H1219.89V76.201C1219.89 76.258 1219.91 76.2866 1219.97 76.2866H1220.03C1220.09 76.2866 1220.11 76.258 1220.11 76.201V74.2604H1220.6V76.258C1220.6 76.5624 1220.45 76.7051 1220.15 76.7051" fill="#FFFFF1"/>
<path d="M1290 61H1250V101H1290V61Z" fill="#1E95D3"/>
<path d="M1255.2 64.3674V72.4245H1253.85V66.2509H1253.84L1252.89 67.2402H1252.87V65.8228L1254.13 64.3674H1255.2Z" fill="#FFFFF1"/>
<path d="M1259.33 72.4245V71.1213H1259.88V70.0654H1259.33V64.3579H1258L1255.66 70.2842V71.1213H1258.05V72.4245H1259.33ZM1256.85 70.0559L1258.07 66.736H1258.08V70.0559H1256.85Z" fill="#FFFFF1"/>
<path d="M1280.71 90.1843C1280.21 89.5089 1276.96 85.3615 1272.4 85.3615C1268.44 85.3615 1264.21 88.9572 1264.21 88.9572C1264.21 88.9572 1262.62 85.7039 1259.36 85.39C1259.34 85.39 1259.32 85.39 1259.31 85.39H1259.29C1259.22 85.39 1259.15 85.4566 1259.16 85.5232C1259.16 85.5803 1259.21 85.6373 1259.21 85.6373C1259.63 86.3318 1260.7 88.3103 1260.7 90.2889C1260.7 92.2675 1259.63 94.2652 1259.21 94.9501L1259.18 94.9976C1259.18 94.9976 1259.16 95.0357 1259.16 95.0642C1259.16 95.1308 1259.22 95.1879 1259.29 95.1879H1259.32C1259.32 95.1879 1259.34 95.1879 1259.36 95.1879C1262.63 94.8835 1264.22 91.6207 1264.22 91.6207C1264.22 91.6207 1268.46 95.2069 1272.42 95.2069C1276.97 95.2069 1280.23 91.0595 1280.73 90.3841C1280.74 90.365 1280.76 90.346 1280.77 90.3365C1280.77 90.3175 1280.77 90.308 1280.77 90.2889C1280.77 90.2699 1280.77 90.2509 1280.77 90.2414C1280.76 90.2319 1280.75 90.2128 1280.73 90.1938M1274.93 90.8026C1274.2 90.8026 1273.6 90.2033 1273.6 89.4709C1273.6 88.7384 1274.2 88.1391 1274.93 88.1391C1275.66 88.1391 1276.26 88.7289 1276.26 89.4709C1276.26 90.2128 1275.67 90.8026 1274.93 90.8026Z" fill="#FFFFF1"/>
<path d="M1259.26 77.5612C1259.26 77.5612 1259.24 77.5612 1259.23 77.5612C1259.15 77.5612 1259.1 77.6183 1259.1 77.6944V78.5981C1259.1 78.5981 1259.11 78.6742 1259.13 78.6932C1261.33 80.6052 1263.42 78.8169 1263.9 78.3413C1263.91 78.3318 1263.92 78.3127 1263.94 78.3032C1263.96 78.2937 1263.99 78.2842 1264.01 78.2842C1264.05 78.2842 1264.08 78.2937 1264.1 78.3222C1266.58 80.7004 1269.19 78.7693 1269.73 78.3222L1269.79 78.2747C1269.79 78.2747 1269.82 78.2652 1269.84 78.2652C1269.86 78.2652 1269.88 78.2652 1269.89 78.2747L1269.95 78.3222C1270.49 78.7693 1273.1 80.7004 1275.58 78.3222C1275.6 78.3032 1275.64 78.2842 1275.67 78.2842C1275.7 78.2842 1275.73 78.2937 1275.75 78.3032C1275.77 78.3032 1275.78 78.3222 1275.78 78.3413C1276.27 78.8169 1278.34 80.6052 1280.55 78.6932C1280.57 78.6742 1280.59 78.6361 1280.59 78.5981V77.6944C1280.59 77.6183 1280.53 77.5612 1280.47 77.5612C1280.47 77.5612 1280.45 77.5612 1280.44 77.5612C1280.42 77.5707 1280.4 77.5803 1280.37 77.5993C1279.7 77.9417 1277.59 78.7408 1275.69 76.9429C1275.67 76.9239 1275.65 76.9144 1275.63 76.8859C1275.61 76.8859 1275.59 76.8763 1275.58 76.8763C1275.57 76.8763 1275.55 76.8763 1275.54 76.8763C1275.51 76.8859 1275.49 76.9049 1275.47 76.9239C1274.9 77.352 1272.29 79.1213 1269.97 76.9524L1269.93 76.9239C1269.93 76.9239 1269.88 76.8859 1269.84 76.8859C1269.81 76.8859 1269.77 76.9049 1269.74 76.9239L1269.7 76.9524C1267.38 79.1213 1264.78 77.352 1264.21 76.9239C1264.19 76.9049 1264.17 76.8859 1264.14 76.8763C1264.13 76.8763 1264.11 76.8763 1264.1 76.8763C1264.08 76.8763 1264.06 76.8763 1264.04 76.8859C1264.02 76.9049 1264.01 76.9239 1263.99 76.9429C1262.08 78.7503 1259.98 77.9417 1259.31 77.5993C1259.28 77.5898 1259.26 77.5803 1259.24 77.5612" fill="#FFFFF1"/>
<path d="M1263.9 81.6421C1263.9 81.6421 1263.92 81.6136 1263.94 81.604C1263.96 81.5945 1263.99 81.5755 1264 81.5755C1264.04 81.5755 1264.07 81.585 1264.09 81.6136C1266.57 83.9822 1269.18 82.0606 1269.72 81.6136L1269.78 81.566C1269.78 81.566 1269.81 81.566 1269.83 81.566C1269.85 81.566 1269.87 81.566 1269.88 81.566L1269.94 81.6136C1270.48 82.0606 1273.09 83.9822 1275.57 81.6136C1275.59 81.5945 1275.63 81.5755 1275.66 81.5755C1275.69 81.5755 1275.71 81.585 1275.74 81.604C1275.76 81.6136 1275.77 81.6231 1275.77 81.6421C1276.26 82.1177 1278.33 83.9061 1280.54 81.9941C1280.56 81.9655 1280.58 81.937 1280.58 81.8989V80.9857C1280.58 80.9096 1280.52 80.8526 1280.45 80.8526C1280.45 80.8526 1280.43 80.8526 1280.42 80.8526C1280.4 80.8621 1280.38 80.8716 1280.35 80.8811C1279.68 81.2235 1277.57 82.0226 1275.67 80.2247C1275.65 80.2057 1275.63 80.1867 1275.61 80.1677C1275.59 80.1677 1275.57 80.1581 1275.56 80.1581C1275.55 80.1581 1275.53 80.1581 1275.52 80.1677C1275.49 80.1677 1275.47 80.1962 1275.45 80.2152C1274.88 80.6433 1272.27 82.4126 1269.95 80.2438L1269.92 80.2152C1269.92 80.2152 1269.87 80.1772 1269.83 80.1772C1269.8 80.1772 1269.76 80.1867 1269.74 80.2152L1269.7 80.2438C1267.38 82.4126 1264.78 80.6433 1264.2 80.2152C1264.19 80.1962 1264.17 80.1772 1264.14 80.1677C1264.13 80.1677 1264.11 80.1581 1264.1 80.1581C1264.08 80.1581 1264.06 80.1581 1264.04 80.1677C1264.02 80.1867 1264 80.2057 1263.99 80.2247C1262.08 82.0226 1259.98 81.2235 1259.3 80.8811C1259.28 80.8716 1259.26 80.8621 1259.24 80.8526C1259.23 80.8526 1259.22 80.8526 1259.21 80.8526C1259.13 80.8526 1259.08 80.9096 1259.08 80.9857V81.8989C1259.08 81.8989 1259.09 81.9655 1259.11 81.9941C1261.31 83.9061 1263.4 82.1177 1263.88 81.6421" fill="#FFFFF1"/>
<path d="M1263.1 66.2604H1262.81V65.8323H1263.88V66.2604H1263.59V68.2485H1263.1V66.2604Z" fill="#FFFFF1"/>
<path d="M1264.53 67.478L1264.42 66.4221L1264.32 67.478H1264.54H1264.53ZM1264.32 65.7372L1264.13 65.4423H1264.46L1264.56 65.7372H1264.31H1264.32ZM1264.57 67.8966H1264.26L1264.22 68.2485H1263.79L1264.1 65.8228H1264.76L1265.07 68.2485H1264.59L1264.55 67.8966H1264.57Z" fill="#FFFFF1"/>
<path d="M1265.68 65.8323H1265.2V68.258H1265.68V65.8323Z" fill="#FFFFF1"/>
<path d="M1266.73 66.9358L1266.74 67.5541L1266.75 68.2485H1266.33V65.8323H1266.82L1267.1 67.0309V66.3365L1267.09 65.8323H1267.51V68.2485H1267.04L1266.73 66.9358Z" fill="#FFFFF1"/>
<path d="M1268.26 66.8882H1268.89V67.83C1268.89 68.1344 1268.73 68.2771 1268.44 68.2771H1268.12C1267.82 68.2771 1267.68 68.1249 1267.68 67.83V66.2699C1267.68 65.9655 1267.83 65.8228 1268.12 65.8228H1268.43C1268.73 65.8228 1268.88 65.975 1268.88 66.2699V66.736H1268.4V66.327C1268.4 66.2699 1268.37 66.2414 1268.32 66.2414H1268.25C1268.19 66.2414 1268.16 66.2699 1268.16 66.327V67.7824C1268.16 67.8395 1268.19 67.868 1268.25 67.868H1268.32C1268.38 67.868 1268.41 67.8395 1268.41 67.7824V67.2973H1268.26V66.8882Z" fill="#FFFFF1"/>
<path d="M1269.79 68.2771H1269.5C1269.19 68.2771 1269.05 68.1249 1269.05 67.83V65.8323H1269.53V67.7729C1269.53 67.83 1269.56 67.8585 1269.62 67.8585H1269.68C1269.73 67.8585 1269.76 67.83 1269.76 67.7729V65.8323H1270.25V67.83C1270.25 68.1344 1270.1 68.2771 1269.8 68.2771" fill="#FFFFF1"/>
<path d="M1270.73 68.2485V67.4209L1270.32 65.8323H1270.83L1270.99 66.6504L1271.16 65.8323H1271.63L1271.22 67.3924V68.2485H1270.73Z" fill="#FFFFF1"/>
<path d="M1271.7 65.8323V68.258H1272.6V67.8205H1272.18V67.2402H1272.58V66.8121H1272.18V66.2699H1272.6V65.8419H1271.7V65.8323ZM1272.01 65.4423L1271.84 65.7372H1272.05L1272.14 65.6231L1272.24 65.7372H1272.45L1272.27 65.4423H1272H1272.01Z" fill="#FFFFF1"/>
<path d="M1273.16 66.9358L1273.17 67.5541L1273.18 68.2485H1272.76V65.8323H1273.25L1273.53 67.0309V66.3365L1273.52 65.8323H1273.94V68.2485H1273.47L1273.16 66.9358Z" fill="#FFFFF1"/>
<path d="M1263.26 71.0832L1263.27 71.7015V72.4055H1262.85V69.9798H1263.35L1263.63 71.1784L1263.62 70.4839V69.9798H1264.04V72.4055H1263.57L1263.26 71.0832Z" fill="#FFFFF1"/>
<path d="M1265.65 69.8181V69.9227C1265.65 70.113 1265.58 70.2176 1265.4 70.2271V71.9774C1265.4 72.2818 1265.25 72.4245 1264.96 72.4245H1264.66C1264.36 72.4245 1264.21 72.2723 1264.21 71.9774V69.9798H1264.7V71.9203C1264.7 71.9774 1264.73 72.0059 1264.79 72.0059H1264.84C1264.9 72.0059 1264.93 71.9774 1264.93 71.9203V69.9798H1265.3C1265.36 69.9798 1265.39 69.9512 1265.39 69.8942V69.8086H1265.66L1265.65 69.8181Z" fill="#FFFFF1"/>
<path d="M1266.29 70.4649C1266.29 70.4078 1266.26 70.3793 1266.2 70.3793H1266.14C1266.08 70.3793 1266.05 70.4078 1266.05 70.4649V71.9203C1266.05 71.9774 1266.08 72.0059 1266.14 72.0059H1266.2C1266.26 72.0059 1266.29 71.9774 1266.29 71.9203V70.4649ZM1266.3 69.8942H1266.05L1266.15 69.5993H1266.49L1266.3 69.8942ZM1267.02 69.8181V69.9227C1267.02 70.132 1266.93 70.2176 1266.75 70.2271C1266.77 70.2842 1266.78 70.3413 1266.78 70.4174V71.9774C1266.78 72.2818 1266.63 72.4245 1266.34 72.4245H1266.02C1265.72 72.4245 1265.57 72.2723 1265.57 71.9774V70.4174C1265.57 70.113 1265.73 69.9703 1266.02 69.9703H1266.34C1266.45 69.9703 1266.54 69.9893 1266.61 70.0369V69.9893H1266.67C1266.73 69.9893 1266.75 69.9608 1266.75 69.9037V69.8181H1267.03H1267.02Z" fill="#FFFFF1"/>
<path d="M1268.13 71.9774C1268.13 72.2818 1267.98 72.4245 1267.69 72.4245H1267.39C1267.09 72.4245 1266.95 72.2723 1266.95 71.9774V70.4174C1266.95 70.113 1267.1 69.9703 1267.39 69.9703H1267.69C1267.99 69.9703 1268.13 70.1225 1268.13 70.4174V70.9881H1267.66V70.4744C1267.66 70.4174 1267.63 70.3888 1267.57 70.3888H1267.52C1267.46 70.3888 1267.43 70.4174 1267.43 70.4744V71.9298C1267.43 71.9869 1267.46 72.0155 1267.52 72.0155H1267.57C1267.63 72.0155 1267.66 71.9869 1267.66 71.9298V71.3401H1268.13V71.9774Z" fill="#FFFFF1"/>
<path d="M1340 61H1300V101H1340V61Z" fill="#5BBA47"/>
<path d="M1302.92 65.8133V67.2307H1302.94L1303.89 66.2414H1303.9V72.415H1305.26V64.3484H1304.18L1302.92 65.8133Z" fill="#FFFFF1"/>
<path d="M1308.48 66.9073C1307.94 66.9073 1307.55 67.0975 1307.34 67.4685H1307.33V65.4614H1309.66V64.3579H1306.09V68.9049H1307.33V68.7241C1307.33 68.2485 1307.54 67.9822 1307.92 67.9822C1308.33 67.9822 1308.5 68.2675 1308.5 68.7051V70.6552C1308.5 71.0832 1308.34 71.3781 1307.93 71.3781C1307.46 71.3781 1307.3 71.0642 1307.3 70.5886V69.5803H1306.06V70.4935C1306.06 71.7206 1306.55 72.5006 1307.93 72.5006C1309.31 72.5006 1309.85 71.7776 1309.85 70.6552V68.6766C1309.85 67.4019 1309.19 66.8882 1308.47 66.8882" fill="#FFFFF1"/>
<path d="M1315.38 88.044H1316.56C1316.61 88.044 1316.65 88.082 1316.65 88.1296V91.0404C1316.65 91.088 1316.61 91.126 1316.56 91.126H1315.38C1315.34 91.126 1315.3 91.088 1315.3 91.0404V88.1296C1315.3 88.082 1315.34 88.044 1315.38 88.044Z" fill="#FFFFF1"/>
<path d="M1329.5 92.3817H1310.08C1310.03 92.3817 1309.99 92.4197 1309.99 92.4768V93.6659C1309.99 93.7134 1310.03 93.7515 1310.08 93.7515H1329.5C1329.55 93.7515 1329.59 93.7134 1329.59 93.6659V92.4768C1329.59 92.4293 1329.55 92.3817 1329.5 92.3817Z" fill="#FFFFF1"/>
<path d="M1329.5 94.7408H1310.08C1310.03 94.7408 1309.99 94.7788 1309.99 94.8264V96.0155C1309.99 96.0155 1310.03 96.1011 1310.08 96.1011H1329.5C1329.55 96.1011 1329.59 96.063 1329.59 96.0155V94.8264C1329.59 94.7788 1329.55 94.7408 1329.5 94.7408Z" fill="#FFFFF1"/>
<path d="M1325.81 84.8193C1325.57 84.629 1324.92 84.1819 1324.13 84.1819C1323.57 84.1819 1323.04 84.4007 1322.57 84.8478C1322.54 84.8763 1322.52 84.9239 1322.52 84.9715V85.0761C1322.52 85.1332 1322.54 85.1807 1322.58 85.2093C1322.62 85.2378 1322.66 85.2568 1322.71 85.2378C1322.72 85.2378 1322.74 85.2378 1322.75 85.2378C1322.79 85.2283 1322.82 85.1998 1322.84 85.1712C1322.95 85.1046 1323.23 85.0095 1323.63 85.0095C1324.02 85.0095 1324.84 85.1142 1325.62 85.8466L1325.64 85.8656C1325.64 85.8656 1325.75 85.9322 1325.81 85.9322C1325.87 85.9322 1325.94 85.9037 1325.98 85.8656L1325.99 85.8466C1326.77 85.1142 1327.58 85.0095 1328 85.0095C1328.42 85.0095 1328.68 85.1046 1328.78 85.1712C1328.81 85.1998 1328.85 85.2188 1328.89 85.2378C1328.91 85.2378 1328.95 85.2568 1329 85.2378C1329.08 85.2188 1329.12 85.1522 1329.12 85.0761V84.981C1329.12 84.981 1329.11 84.8954 1329.07 84.8573C1328.59 84.4007 1328.06 84.1724 1327.49 84.1724C1326.71 84.1724 1326.06 84.61 1325.81 84.8098" fill="#FFFFF1"/>
<path d="M1324.6 77.0761C1324.6 77.0761 1324.54 77.1332 1324.52 77.1807L1324.5 77.2473C1324.49 77.2949 1324.5 77.352 1324.53 77.39C1324.56 77.4281 1324.6 77.4566 1324.65 77.4566H1324.67C1324.71 77.4566 1324.74 77.4566 1324.77 77.4376C1324.79 77.4376 1324.82 77.4281 1324.88 77.4281C1324.97 77.4281 1325.75 77.4566 1326.27 78.3317C1326.3 78.3983 1326.34 78.4269 1326.39 78.4459C1326.4 78.4459 1326.44 78.4554 1326.45 78.4554C1326.49 78.4554 1326.53 78.4459 1326.55 78.4269H1326.55C1326.84 78.2842 1327.14 78.2081 1327.42 78.2081C1327.91 78.2081 1328.23 78.4078 1328.31 78.4935C1328.32 78.522 1328.34 78.5505 1328.37 78.56C1328.39 78.5696 1328.42 78.5886 1328.44 78.5886C1328.44 78.5886 1328.46 78.5886 1328.47 78.5886C1328.47 78.5886 1328.48 78.5886 1328.49 78.5886C1328.51 78.5886 1328.53 78.5886 1328.56 78.5696C1328.6 78.5505 1328.63 78.5125 1328.65 78.4649L1328.67 78.4078C1328.67 78.4078 1328.67 78.3793 1328.67 78.3603C1328.67 78.3317 1328.67 78.3032 1328.65 78.2747C1328.27 77.6183 1327.73 77.4851 1327.34 77.4851C1327.04 77.4851 1326.78 77.5612 1326.64 77.6183C1326.46 77.3805 1326.01 76.8859 1325.33 76.8859C1325.09 76.8859 1324.84 76.9524 1324.6 77.0666" fill="#FFFFF1"/>
<path d="M1320.5 80.0725V80.1581C1320.5 80.2152 1320.54 80.2628 1320.59 80.2913C1320.63 80.3103 1320.67 80.3199 1320.72 80.3103C1320.72 80.3103 1320.74 80.3103 1320.75 80.3008C1320.79 80.2913 1320.82 80.2628 1320.84 80.2342C1320.92 80.1772 1321.19 80.063 1321.58 80.063C1321.97 80.063 1322.53 80.1677 1323.11 80.6433H1323.12C1323.16 80.6908 1323.22 80.7099 1323.27 80.7099H1323.28C1323.34 80.7099 1323.4 80.6813 1323.43 80.6338V80.6147C1324.09 79.9298 1324.79 79.8252 1325.15 79.8252C1325.4 79.8252 1325.58 79.8823 1325.65 79.9203C1325.68 79.9394 1325.71 79.9584 1325.76 79.9774C1325.77 79.9774 1325.79 79.9774 1325.83 79.9774C1325.84 79.9774 1325.86 79.9774 1325.87 79.9679C1325.94 79.9394 1325.98 79.8728 1325.98 79.7967V79.7206C1325.98 79.7206 1325.96 79.635 1325.92 79.6064C1325.53 79.283 1325.12 79.1213 1324.67 79.1213C1323.99 79.1213 1323.44 79.5208 1323.22 79.7206C1323.01 79.5779 1322.51 79.2925 1321.92 79.2925C1321.41 79.2925 1320.94 79.5018 1320.54 79.9298C1320.51 79.9679 1320.49 80.0059 1320.49 80.0535" fill="#FFFFF1"/>
<path d="M1310.67 81.6326C1310.67 80.4721 1311.61 79.5303 1312.77 79.5303C1312.82 79.5303 1312.86 79.5303 1312.9 79.5303C1313.02 78.0559 1314.24 76.8954 1315.74 76.8954C1317.23 76.8954 1318.58 78.17 1318.58 79.7491C1318.58 80.1962 1318.48 80.6147 1318.3 80.9952C1319.72 81.3092 1320.79 82.5838 1320.79 84.0963C1320.79 85.8561 1319.36 87.283 1317.6 87.283C1317.48 87.283 1313.35 87.2545 1313.35 87.2545C1312.1 87.2545 1311.09 86.2461 1311.09 85C1311.09 84.4007 1311.33 83.8585 1311.71 83.459C1311.07 83.0975 1310.65 82.4126 1310.65 81.6326" fill="#FFFFF1"/>
<path d="M1312.52 65.9465H1312.23V65.5184H1313.3V65.9465H1313.01V67.9346H1312.52V65.9465Z" fill="#FFFFF1"/>
<path d="M1313.95 67.1641L1313.84 66.1082L1313.74 67.1641H1313.95ZM1313.74 65.4233L1313.55 65.1284H1313.88L1313.99 65.4233H1313.74ZM1314 67.5826H1313.69L1313.65 67.9346H1313.22L1313.54 65.5089H1314.2L1314.51 67.9346H1314.03L1313.99 67.5826H1314Z" fill="#FFFFF1"/>
<path d="M1315.1 65.5184H1314.61V67.9441H1315.1V65.5184Z" fill="#FFFFF1"/>
<path d="M1316.16 66.6219V67.2402L1316.17 67.9346H1315.75V65.5184H1316.24L1316.53 66.717L1316.52 66.0226L1316.51 65.5184H1316.94V67.9346H1316.46L1316.16 66.6219Z" fill="#FFFFF1"/>
<path d="M1317.68 66.5743H1318.31V67.5161C1318.31 67.8205 1318.16 67.9631 1317.86 67.9631H1317.55C1317.24 67.9631 1317.1 67.8109 1317.1 67.5161V65.956C1317.1 65.6516 1317.25 65.5089 1317.55 65.5089H1317.85C1318.16 65.5089 1318.3 65.6611 1318.3 65.956V66.4221H1317.82V66.0131C1317.82 65.956 1317.79 65.9275 1317.74 65.9275H1317.67C1317.61 65.9275 1317.58 65.956 1317.58 66.0131V67.4685C1317.58 67.5256 1317.61 67.5541 1317.67 67.5541H1317.75C1317.8 67.5541 1317.83 67.5256 1317.83 67.4685V66.9834H1317.68V66.5743Z" fill="#FFFFF1"/>
<path d="M1319.22 67.9631H1318.93C1318.62 67.9631 1318.48 67.8109 1318.48 67.5161V65.5184H1318.96V67.459C1318.96 67.5161 1318.99 67.5446 1319.05 67.5446H1319.11C1319.16 67.5446 1319.19 67.5161 1319.19 67.459V65.5184H1319.68V67.5161C1319.68 67.8205 1319.53 67.9631 1319.23 67.9631" fill="#FFFFF1"/>
<path d="M1320.15 67.9346V67.107L1319.74 65.5184H1320.25L1320.41 66.3365L1320.59 65.5184H1321.05L1320.64 67.0785V67.9346H1320.15Z" fill="#FFFFF1"/>
<path d="M1321.11 65.5184V67.9441H1322.02V67.5065H1321.6V66.9263H1322V66.4887H1321.6V65.9465H1322.02V65.5184H1321.11ZM1321.44 65.1284L1321.27 65.4233H1321.47L1321.57 65.3092L1321.67 65.4233H1321.87L1321.69 65.1284H1321.43H1321.44Z" fill="#FFFFF1"/>
<path d="M1322.59 66.6219V67.2402L1322.6 67.9346H1322.18V65.5184H1322.67L1322.96 66.717L1322.95 66.0226L1322.94 65.5184H1323.36V67.9346H1322.89L1322.59 66.6219Z" fill="#FFFFF1"/>
<path d="M1312.94 70.6742V71.0452H1312.8V71.673H1312.89C1312.99 71.673 1313.03 71.635 1313.03 71.5398V70.2176C1313.03 70.1225 1312.99 70.0844 1312.89 70.0844H1312.8V70.6742H1312.94ZM1312.19 71.0452V70.6742H1312.31V69.6659H1313C1313.35 69.6659 1313.52 69.8371 1313.52 70.1891V71.5684C1313.52 71.9203 1313.35 72.0916 1313 72.0916H1312.31V71.0452H1312.19Z" fill="#FFFFF1"/>
<path d="M1314.97 69.1141L1314.78 69.409H1314.53L1314.62 69.1141H1314.97ZM1314.33 71.3115L1314.22 70.2556L1314.12 71.3115H1314.33ZM1314.34 69.5803L1314.24 69.4661L1314.15 69.5803H1313.94L1314.12 69.2854H1314.39L1314.56 69.5803H1314.34ZM1314.37 71.7396H1314.06L1314.02 72.0916H1313.59L1313.91 69.6659H1314.57L1314.88 72.0916H1314.39L1314.36 71.7396H1314.37Z" fill="#FFFFF1"/>
<path d="M1315.1 70.1034H1314.8V69.6659H1315.88V70.1034H1315.58V72.0916H1315.1V70.1034Z" fill="#FFFFF1"/>
<text fill="#3459FF" xml:space="preserve" style="white-space: pre" font-family="VNM Sans Display" font-size="80" font-weight="bold" letter-spacing="0em"><tspan x="130.766" y="136.6">NGU&#x1ed2;N N&#x1af;&#x1eda;C V&#xc0; &#x2028;</tspan><tspan x="107.602" y="220.6">CH&#x1ea4;T L&#x1af;&#x1ee2;NG N&#x1af;&#x1eda;C</tspan></text>
<rect x="99" y="256" width="444" height="406" rx="8" fill="#FFFFF1"/>
<text fill="#0213B0" xml:space="preserve" style="white-space: pre" font-family="VNM Sans Std" font-size="16" letter-spacing="0em"><tspan x="146" y="332.536">N&#x1b0;&#x1edb;c </tspan><tspan x="186.498" y="332.536">s&#x1ea1;ch </tspan><tspan x="221.044" y="332.536">l&#xe0; </tspan><tspan x="235.402" y="332.536">t&#xe0;i </tspan><tspan x="256.65" y="332.536">nguy&#xea;n </tspan><tspan x="310.648" y="332.536">v&#xf4; </tspan><tspan x="331.209" y="332.536">c&#xf9;ng </tspan><tspan x="368.38" y="332.536">quan </tspan><tspan x="406.003" y="332.536">tr&#x1ecd;ng </tspan><tspan x="448.455" y="332.536">cho </tspan><tspan x="477.516" y="332.536">s&#x1ef1; </tspan><tspan x="146" y="350.536">s&#x1ed1;ng, </tspan><tspan x="187.311" y="350.536">&#x111;&#xe2;y </tspan><tspan x="216.997" y="350.536">l&#xe0; </tspan><tspan x="232.292" y="350.536">ngu&#x1ed3;n </tspan><tspan x="280.572" y="350.536">t&#xe0;i </tspan><tspan x="302.758" y="350.536">nguy&#xea;n </tspan><tspan x="357.694" y="350.536">h&#x1eef;u </tspan><tspan x="388.614" y="350.536">h&#x1ea1;n </tspan><tspan x="418.05" y="350.536">v&#xe0; </tspan><tspan x="438.064" y="350.536">&#x111;ang </tspan><tspan x="477.547" y="350.536">c&#xf3; </tspan><tspan x="146" y="368.536">nguy </tspan><tspan x="184.833" y="368.536">c&#x1a1; </tspan><tspan x="206.917" y="368.536">s&#x1ee5;t </tspan><tspan x="233.703" y="368.536">gi&#x1ea3;m </tspan><tspan x="271.177" y="368.536">nghi&#xea;m </tspan><tspan x="326.323" y="368.536">tr&#x1ecd;ng </tspan><tspan x="369.812" y="368.536">do </tspan><tspan x="393.193" y="368.536">c&#xe1;c </tspan><tspan x="420.854" y="368.536">ho&#x1ea1;t </tspan><tspan x="457.594" y="368.536">&#x111;&#x1ed9;ng </tspan><tspan x="146" y="386.536">khai </tspan><tspan x="176.388" y="386.536">th&#xe1;c </tspan><tspan x="210.729" y="386.536">v&#xe0; </tspan><tspan x="229.695" y="386.536">s&#x1eed; </tspan><tspan x="249.77" y="386.536">d&#x1ee5;ng </tspan><tspan x="288.642" y="386.536">l&#xe3;ng </tspan><tspan x="320.514" y="386.536">ph&#xed; </tspan><tspan x="344.964" y="386.536">c&#x1ee7;a </tspan><tspan x="372.134" y="386.536">con </tspan><tspan x="400.709" y="386.536">ng&#x1b0;&#x1edd;i. </tspan><tspan x="447.065" y="386.536">&#x110;&#x1ed1;i </tspan><tspan x="473.328" y="386.536">v&#x1edb;i </tspan><tspan x="146" y="404.536">Vinamilk, </tspan><tspan x="208.839" y="404.536">n&#x1b0;&#x1edb;c </tspan><tspan x="248.599" y="404.536">l&#xe0; </tspan><tspan x="263.719" y="404.536">y&#x1ebf;u </tspan><tspan x="292.495" y="404.536">t&#x1ed1; </tspan><tspan x="312.677" y="404.536">kh&#xf4;ng </tspan><tspan x="360.141" y="404.536">th&#x1ec3; </tspan><tspan x="388.37" y="404.536">thi&#x1ebf;u </tspan><tspan x="427.865" y="404.536">trong </tspan><tspan x="471.078" y="404.536">c&#xe1;c </tspan><tspan x="146" y="422.536">ho&#x1ea1;t </tspan><tspan x="187.643" y="422.536">&#x111;&#x1ed9;ng </tspan><tspan x="233.691" y="422.536">ch&#x103;n </tspan><tspan x="275.725" y="422.536">nu&#xf4;i, </tspan><tspan x="317.133" y="422.536">tr&#x1ed3;ng </tspan><tspan x="365.525" y="422.536">tr&#x1ecd;t </tspan><tspan x="402.684" y="422.536">v&#xe0; </tspan><tspan x="427.701" y="422.536">s&#x1ea3;n </tspan><tspan x="460.594" y="422.536">xu&#x1ea5;t. </tspan><tspan x="146" y="440.536">Vinamilk </tspan><tspan x="204.544" y="440.536">lu&#xf4;n </tspan><tspan x="236.479" y="440.536">&#xfd; </tspan><tspan x="247.773" y="440.536">th&#x1ee9;c </tspan><tspan x="283.051" y="440.536">vi&#x1ec7;c </tspan><tspan x="313.33" y="440.536">s&#x1eed; </tspan><tspan x="332.811" y="440.536">d&#x1ee5;ng </tspan><tspan x="371.089" y="440.536">ph&#x1ea3;i </tspan><tspan x="402.68" y="440.536">&#x111;i </tspan><tspan x="418.349" y="440.536">&#x111;&#xf4;i </tspan><tspan x="443.05" y="440.536">v&#x1edb;i </tspan><tspan x="466.719" y="440.536">vi&#x1ec7;c </tspan><tspan x="146" y="458.536">b&#x1ea3;o </tspan><tspan x="177.48" y="458.536">v&#x1ec7; </tspan><tspan x="198.553" y="458.536">m&#x1ecd;i </tspan><tspan x="228.798" y="458.536">ngu&#x1ed3;n </tspan><tspan x="277.544" y="458.536">t&#xe0;i </tspan><tspan x="300.195" y="458.536">nguy&#xea;n. </tspan><tspan x="358.425" y="458.536">V&#xe0; </tspan><tspan x="380.483" y="458.536">v&#x1edb;i </tspan><tspan x="406.259" y="458.536">t&#x1ea7;m </tspan><tspan x="438.973" y="458.536">nh&#xec;n </tspan><tspan x="472.594" y="458.536">&#x111;&#xf3;, </tspan><tspan x="146" y="476.536">h&#xe0;ng </tspan><tspan x="185.105" y="476.536">n&#x103;m, </tspan><tspan x="222.539" y="476.536">Vinamilk </tspan><tspan x="283.301" y="476.536">lu&#xf4;n </tspan><tspan x="317.453" y="476.536">th&#xfa;c </tspan><tspan x="353.934" y="476.536">&#x111;&#x1ea9;y </tspan><tspan x="384.195" y="476.536">v&#xe0; </tspan><tspan x="404.785" y="476.536">khuy&#x1ebf;n </tspan><tspan x="458.812" y="476.536">kh&#xed;ch </tspan><tspan x="146" y="494.536">nhi&#x1ec1;u </tspan><tspan x="185.702" y="494.536">c&#x1ea3;i </tspan><tspan x="206.982" y="494.536">ti&#x1ebf;n </tspan><tspan x="236.699" y="494.536">ti&#x1ebf;t </tspan><tspan x="264.494" y="494.536">ki&#x1ec7;m </tspan><tspan x="299.384" y="494.536">v&#xe0; </tspan><tspan x="317.788" y="494.536">t&#xe1;i </tspan><tspan x="338.365" y="494.536">s&#x1eed; </tspan><tspan x="357.879" y="494.536">d&#x1ee5;ng </tspan><tspan x="396.19" y="494.536">n&#x1b0;&#x1edb;c </tspan><tspan x="434.517" y="494.536">hi&#x1ec7;u </tspan><tspan x="465.688" y="494.536">qu&#x1ea3;, </tspan><tspan x="146" y="512.536">&#x111;&#x1ed3;ng </tspan><tspan x="188.617" y="512.536">th&#x1edd;i </tspan><tspan x="223.297" y="512.536">&#xe1;p </tspan><tspan x="246.648" y="512.536">d&#x1ee5;ng </tspan><tspan x="288.141" y="512.536">c&#xf4;ng </tspan><tspan x="328.43" y="512.536">ngh&#x1ec7; </tspan><tspan x="369.141" y="512.536">ti&#xea;n </tspan><tspan x="402.039" y="512.536">ti&#x1ebf;n </tspan><tspan x="434.938" y="512.536">&#x111;&#x1ec3; </tspan><tspan x="459.055" y="512.536">x&#x1eed; </tspan><tspan x="482.859" y="512.536">l&#xfd; </tspan><tspan x="146" y="530.536">n&#x1b0;&#x1edb;c </tspan><tspan x="184.076" y="530.536">th&#x1ea3;i, </tspan><tspan x="215.762" y="530.536">nh&#x1eb1;m </tspan><tspan x="256.323" y="530.536">&#x111;&#x1ea3;m </tspan><tspan x="289.306" y="530.536">b&#x1ea3;o </tspan><tspan x="318.46" y="530.536">v&#xf2;ng </tspan><tspan x="355.724" y="530.536">tu&#x1ea7;n </tspan><tspan x="389.91" y="530.536">ho&#xe0;n </tspan><tspan x="426.72" y="530.536">n&#x1b0;&#x1edb;c, </tspan><tspan x="467.625" y="530.536">b&#x1ea3;o </tspan><tspan x="146" y="548.536">t&#x1ed3;n </tspan><tspan x="176.425" y="548.536">ngu&#x1ed3;n </tspan><tspan x="226.241" y="548.536">t&#xe0;i </tspan><tspan x="249.964" y="548.536">nguy&#xea;n </tspan><tspan x="306.436" y="548.536">qu&#xfd; </tspan><tspan x="338.486" y="548.536">gi&#xe1; </tspan><tspan x="364.411" y="548.536">n&#xe0;y. </tspan><tspan x="396.477" y="548.536">C&#xf9;ng </tspan><tspan x="437.418" y="548.536">v&#x1edb;i </tspan><tspan x="464.266" y="548.536">&#x111;&#x1ecb;nh </tspan><tspan x="146" y="566.536">h&#x1b0;&#x1edb;ng </tspan><tspan x="194.486" y="566.536">ph&#xe1;t </tspan><tspan x="229.597" y="566.536">tri&#x1ec3;n </tspan><tspan x="264.786" y="566.536">b&#x1ec1;n </tspan><tspan x="294.163" y="566.536">v&#x1eef;ng </tspan><tspan x="332.523" y="566.536">lu&#xf4;n </tspan><tspan x="364.4" y="566.536">l&#xe0; </tspan><tspan x="377.995" y="566.536">t&#xf4;n </tspan><tspan x="405.184" y="566.536">ch&#x1ec9; </tspan><tspan x="427.17" y="566.536">trong </tspan><tspan x="468.859" y="566.536">m&#x1ecd;i </tspan><tspan x="146" y="584.536">ho&#x1ea1;t </tspan><tspan x="181.54" y="584.536">&#x111;&#x1ed9;ng </tspan><tspan x="221.486" y="584.536">v&#xe0; </tspan><tspan x="240.401" y="584.536">ph&#xe1;t </tspan><tspan x="276.113" y="584.536">tri&#x1ec3;n </tspan><tspan x="311.903" y="584.536">c&#x1ee7;a </tspan><tspan x="339.021" y="584.536">Vinamilk, </tspan><tspan x="400.936" y="584.536">b&#x1ea3;o </tspan><tspan x="430.851" y="584.536">v&#x1ec7; </tspan><tspan x="450.359" y="584.536">ngu&#x1ed3;n </tspan><tspan x="146" y="602.536">t&#xe0;i </tspan><tspan x="166.203" y="602.536">nguy&#xea;n </tspan><tspan x="219.156" y="602.536">n&#x1b0;&#x1edb;c </tspan><tspan x="257.109" y="602.536">l&#xe0; </tspan><tspan x="270.422" y="602.536">nhi&#x1ec7;m </tspan><tspan x="314.391" y="602.536">v&#x1ee5; </tspan><tspan x="333.594" y="602.536">quan </tspan><tspan x="370.172" y="602.536">tr&#x1ecd;ng </tspan><tspan x="411.578" y="602.536">b&#x1ead;c </tspan><tspan x="438.969" y="602.536">nh&#x1ea5;t.</tspan></text>
<rect x="727.5" y="473.5" width="191" height="187" rx="6.5" fill="#3459FF"/>
<rect x="727.5" y="473.5" width="191" height="187" rx="6.5" stroke="#0213B0" stroke-width="3" stroke-linejoin="round"/>
<rect x="727.5" y="473.5" width="191" height="187" rx="6.5" stroke="#38C0FF" stroke-width="3" stroke-linejoin="round" stroke-dasharray="12 12"/>
<text fill="#FFFFF1" xml:space="preserve" style="white-space: pre" font-family="VNM Sans Std" font-size="16" letter-spacing="0em"><tspan x="760.164" y="563.536">L&#x1b0;&#x1ee3;ng n&#x1b0;&#x1edb;c &#x111;&#x1b0;&#x1ee3;c </tspan><tspan x="758.266" y="581.536">tu&#x1ea7;n ho&#xe0;n v&#xe0; t&#xe1;i s&#x1eed; </tspan><tspan x="765.328" y="599.536">d&#x1ee5;ng trong ho&#x1ea1;t </tspan><tspan x="773.227" y="617.536">&#x111;&#x1ed9;ng s&#x1ea3;n xu&#x1ea5;t</tspan></text>
<text fill="#FFFFF1" xml:space="preserve" style="white-space: pre" font-family="VNM Sans Display" font-size="48" font-weight="bold" letter-spacing="0em"><tspan x="788.414" y="536.06" data-counter data-delay="600" data-from="0" data-to="251" data-ori="2,51%">2,51%</tspan></text>
<rect x="937.5" y="473.5" width="191" height="187" rx="6.5" fill="#3459FF"/>
<rect x="937.5" y="473.5" width="191" height="187" rx="6.5" stroke="#0213B0" stroke-width="3" stroke-linejoin="round"/>
<rect x="937.5" y="473.5" width="191" height="187" rx="6.5" stroke="#38C0FF" stroke-width="3" stroke-linejoin="round" stroke-dasharray="12 12"/>
<text fill="#FFFFF1" xml:space="preserve" style="white-space: pre" font-family="VNM Sans Std" font-size="16" letter-spacing="0em"><tspan x="960.352" y="563.536">L&#x1b0;&#x1ee3;ng n&#x1b0;&#x1edb;c th&#x1ea3;i ch&#x103;n </tspan><tspan x="967.172" y="581.536">nu&#xf4;i x&#x1eed; l&#xfd; &#x111;&#x1ea1;t chu&#x1ea9;n </tspan><tspan x="960.758" y="599.536">&#x111;&#x1b0;&#x1ee3;c tu&#x1ea7;n ho&#xe0;n v&#xe0; t&#xe1;i </tspan><tspan x="956.492" y="617.536">s&#x1eed; d&#x1ee5;ng cho tr&#x1ed3;ng tr&#x1ecd;t</tspan></text>
<text fill="#FFFFF1" xml:space="preserve" style="white-space: pre" font-family="VNM Sans Display" font-size="48" font-weight="bold" letter-spacing="0em"><tspan x="1004" y="536.06" data-counter data-delay="600" data-from="0" data-to="85" data-ori="85%">85%</tspan></text>
<rect x="1147.5" y="473.5" width="191" height="187" rx="6.5" fill="#3459FF"/>
<rect x="1147.5" y="473.5" width="191" height="187" rx="6.5" stroke="#0213B0" stroke-width="3" stroke-linejoin="round"/>
<rect x="1147.5" y="473.5" width="191" height="187" rx="6.5" stroke="#38C0FF" stroke-width="3" stroke-linejoin="round" stroke-dasharray="12 12"/>
<text fill="#FFFFF1" xml:space="preserve" style="white-space: pre" font-family="VNM Sans Std" font-size="16" letter-spacing="0em"><tspan x="1164.35" y="563.536">N&#x1b0;&#x1edb;c th&#x1ea3;i t&#x1eeb; ho&#x1ea1;t &#x111;&#x1ed9;ng </tspan><tspan x="1172.92" y="581.536">s&#x1ea3;n xu&#x1ea5;t v&#xe0; ch&#x103;n nu&#xf4;i </tspan><tspan x="1180.77" y="599.536">&#x111;&#x1b0;&#x1ee3;c x&#x1eed; l&#xfd; &#x111;&#x1ea1;t quy </tspan><tspan x="1167.88" y="617.536">chu&#x1ea9;n tr&#x1b0;&#x1edb;c khi x&#x1ea3; th&#x1ea3;i </tspan><tspan x="1174.95" y="635.536">v&#xe0;o ngu&#x1ed3;n ti&#x1ebf;p nh&#x1ead;n</tspan></text>
<text fill="#FFFFF1" xml:space="preserve" style="white-space: pre" font-family="VNM Sans Display" font-size="48" font-weight="bold" letter-spacing="0em"><tspan x="1204.07" y="536.06" data-counter data-delay="600" data-from="0" data-to="100" data-ori="100%">100%&#xa0;</tspan></text>
</g>
<defs>
<clipPath id="clip0_201_2203">
<rect width="1440" height="774" fill="white"/>
</clipPath>
</defs>
</svg>
