<svg width="375" height="1037" viewBox="0 0 375 1037" fill="none" xmlns="http://www.w3.org/2000/svg">
<text fill="#3459FF" xml:space="preserve" style="white-space: pre" font-family="VNM Sans Display" font-size="48" font-weight="bold" letter-spacing="0em"><tspan x="54.6172" y="66.56">S&#x1ea2;N PH&#x1ea8;M AN TO&#xc0;N </tspan><tspan x="80.9141" y="116.56">V&#xc0; CH&#x1ea4;T L&#x1af;&#x1ee2;NG</tspan></text>
<rect y="354" width="16.2214" height="23" fill="#38C0FF"/>
<rect x="16.2214" y="354" width="8.77865" height="23" fill="#3459FF"/>
<rect x="25" y="354" width="16.2214" height="23" fill="#38C0FF"/>
<rect x="41.2214" y="354" width="8.77865" height="23" fill="#3459FF"/>
<rect x="50" y="354" width="16.2214" height="23" fill="#38C0FF"/>
<rect x="66.2214" y="354" width="8.77865" height="23" fill="#3459FF"/>
<rect x="75" y="354" width="16.2214" height="23" fill="#38C0FF"/>
<rect x="91.2217" y="354" width="8.77865" height="23" fill="#3459FF"/>
<rect x="100" y="354" width="16.2214" height="23" fill="#38C0FF"/>
<rect x="116.221" y="354" width="8.77865" height="23" fill="#3459FF"/>
<rect x="125" y="354" width="16.2214" height="23" fill="#38C0FF"/>
<rect x="141.221" y="354" width="8.77865" height="23" fill="#3459FF"/>
<rect x="150" y="354" width="16.2214" height="23" fill="#38C0FF"/>
<rect x="166.221" y="354" width="8.77865" height="23" fill="#3459FF"/>
<rect x="175" y="354" width="16.2214" height="23" fill="#38C0FF"/>
<rect x="191.221" y="354" width="8.77865" height="23" fill="#3459FF"/>
<rect x="200" y="354" width="16.2214" height="23" fill="#38C0FF"/>
<rect x="216.221" y="354" width="8.77865" height="23" fill="#3459FF"/>
<rect x="225" y="354" width="16.2214" height="23" fill="#38C0FF"/>
<rect x="241.221" y="354" width="8.77865" height="23" fill="#3459FF"/>
<rect x="250" y="354" width="16.2214" height="23" fill="#38C0FF"/>
<rect x="266.221" y="354" width="8.77865" height="23" fill="#3459FF"/>
<rect x="275" y="354" width="16.2214" height="23" fill="#38C0FF"/>
<rect x="291.221" y="354" width="8.77865" height="23" fill="#3459FF"/>
<rect x="300" y="354" width="16.2214" height="23" fill="#38C0FF"/>
<rect x="316.221" y="354" width="8.77865" height="23" fill="#3459FF"/>
<rect x="325" y="354" width="16.2214" height="23" fill="#38C0FF"/>
<rect x="341.221" y="354" width="8.77865" height="23" fill="#3459FF"/>
<rect x="350" y="354" width="16.2214" height="23" fill="#38C0FF"/>
<rect x="366.221" y="354" width="8.77865" height="23" fill="#3459FF"/>
<path d="M221 298H181V338H221V298Z" fill="#DEA639"/>
<path d="M188.478 308.306H186.249V307.922C186.249 307.287 186.476 307.047 186.824 306.688L187.687 305.777C188.394 305.034 188.549 304.555 188.549 303.74V302.961C188.549 301.811 187.986 301.259 186.776 301.259C185.566 301.259 184.978 301.895 184.978 303.021V303.992H186.213V302.985C186.213 302.494 186.452 302.362 186.74 302.362C187.004 302.362 187.231 302.47 187.231 302.973V303.644C187.231 304.315 187.171 304.567 186.728 305.034L185.961 305.849C185.23 306.628 184.954 307.155 184.954 307.958V309.444H188.478V308.306Z" fill="white"/>
<path d="M196.95 331.984V332.548C196.95 332.548 196.95 332.548 196.95 332.56C196.95 332.572 196.95 332.56 196.95 332.572C196.95 332.715 197.07 332.823 197.214 332.823H203.817C203.96 332.823 204.08 332.703 204.08 332.56V331.925C207.795 330.702 210.575 327.694 211.186 324.028C211.186 324.028 211.186 324.016 211.186 324.004C211.186 323.992 211.186 323.98 211.186 323.968C211.186 323.824 211.066 323.704 210.923 323.704H189.916C189.772 323.704 189.652 323.824 189.652 323.968V324.087C190.311 327.79 193.163 330.822 196.962 331.984" fill="white"/>
<path d="M204.092 314.729C204.008 314.848 201.971 317.772 204.14 320.145C205.134 321.235 205.05 322.182 204.763 322.829H206.153C206.428 321.871 206.321 320.672 205.194 319.45C203.6 317.712 205.218 315.352 205.242 315.316C205.434 315.052 205.326 314.705 205.014 314.537C204.703 314.369 204.295 314.465 204.104 314.729" fill="white"/>
<path d="M200.569 322.829H201.959C202.234 321.871 202.126 320.672 201 319.45C199.406 317.712 201.012 315.352 201.048 315.316C201.24 315.052 201.132 314.705 200.82 314.537C200.509 314.381 200.101 314.465 199.91 314.729C199.826 314.848 197.789 317.772 199.957 320.145C200.952 321.235 200.868 322.194 200.581 322.829" fill="white"/>
<path d="M195.715 314.729C195.631 314.848 193.594 317.772 195.763 320.145C196.758 321.235 196.674 322.182 196.386 322.829H197.776C198.052 321.871 197.944 320.672 196.818 319.45C195.224 317.712 196.842 315.352 196.866 315.316C197.057 315.052 196.949 314.705 196.638 314.537C196.326 314.369 195.919 314.465 195.727 314.729" fill="white"/>
<path d="M191.905 305.466C191.905 305.466 191.893 305.454 191.893 305.442V303.105C191.893 303.105 191.893 303.081 191.905 303.081L191.929 303.069H192.253C192.253 303.069 192.277 303.069 192.277 303.081C192.277 303.081 192.289 303.093 192.289 303.105V304.075C192.289 304.075 192.289 304.075 192.3 304.075L192.816 303.105C192.816 303.105 192.84 303.069 192.864 303.069H193.211C193.211 303.069 193.235 303.069 193.247 303.081C193.247 303.081 193.247 303.105 193.247 303.117L192.732 304.087C192.732 304.087 192.732 304.099 192.732 304.111L193.295 305.442C193.295 305.442 193.295 305.442 193.295 305.466C193.295 305.49 193.283 305.49 193.259 305.49H192.912C192.912 305.49 192.876 305.49 192.864 305.454L192.456 304.459C192.456 304.459 192.456 304.459 192.444 304.459L192.312 304.687C192.312 304.687 192.312 304.699 192.312 304.711V305.442C192.312 305.442 192.312 305.466 192.3 305.466C192.3 305.466 192.289 305.478 192.277 305.478H191.953C191.953 305.478 191.929 305.478 191.929 305.466" fill="white"/>
<path d="M194.409 303.069L194.433 303.057H194.757C194.757 303.057 194.781 303.057 194.781 303.069C194.781 303.069 194.793 303.081 194.793 303.093V305.43C194.793 305.43 194.793 305.454 194.781 305.454C194.781 305.454 194.769 305.466 194.757 305.466H194.433C194.433 305.466 194.409 305.466 194.409 305.454C194.409 305.454 194.397 305.442 194.397 305.43V304.447C194.397 304.447 194.397 304.435 194.385 304.435H193.942C193.942 304.435 193.93 304.435 193.93 304.447V305.43C193.93 305.43 193.93 305.454 193.918 305.454C193.918 305.454 193.906 305.466 193.894 305.466H193.57C193.57 305.466 193.546 305.466 193.546 305.454C193.546 305.454 193.534 305.442 193.534 305.43V303.093C193.534 303.093 193.534 303.069 193.546 303.069C193.546 303.069 193.558 303.057 193.57 303.057H193.894C193.894 303.057 193.918 303.057 193.918 303.069C193.918 303.069 193.93 303.081 193.93 303.093V304.064C193.93 304.064 193.93 304.075 193.942 304.075H194.385C194.385 304.075 194.397 304.075 194.397 304.064V303.093C194.397 303.093 194.397 303.069 194.409 303.069Z" fill="white"/>
<path d="M195.979 305.082C195.979 305.082 196.051 304.962 196.051 304.866V303.668C196.051 303.584 196.027 303.512 195.979 303.452C195.931 303.392 195.871 303.368 195.788 303.368C195.704 303.368 195.644 303.392 195.596 303.452C195.548 303.512 195.524 303.572 195.524 303.668V304.866C195.524 304.95 195.548 305.022 195.596 305.082C195.644 305.142 195.704 305.166 195.788 305.166C195.871 305.166 195.931 305.142 195.979 305.082ZM195.332 302.829C195.332 302.829 195.332 302.805 195.332 302.793L195.548 302.434C195.548 302.434 195.572 302.41 195.596 302.41H195.955C195.955 302.41 195.991 302.41 196.003 302.434L196.231 302.793V302.817C196.231 302.829 196.219 302.841 196.195 302.841H195.955C195.955 302.841 195.919 302.841 195.907 302.817L195.788 302.602C195.788 302.602 195.776 302.59 195.764 302.602L195.644 302.817C195.644 302.817 195.62 302.841 195.596 302.841H195.356C195.356 302.841 195.332 302.841 195.32 302.841M195.308 305.322C195.188 305.202 195.129 305.046 195.129 304.842V303.68C195.129 303.476 195.188 303.321 195.308 303.201C195.428 303.081 195.584 303.021 195.788 303.021C195.991 303.021 196.147 303.081 196.267 303.201C196.387 303.321 196.447 303.476 196.447 303.68V304.842C196.447 305.046 196.387 305.202 196.267 305.322C196.147 305.442 195.979 305.501 195.788 305.501C195.596 305.501 195.428 305.442 195.308 305.322Z" fill="white"/>
<path d="M197.765 303.069L197.789 303.057H198.1C198.1 303.057 198.124 303.057 198.136 303.069C198.136 303.069 198.136 303.081 198.136 303.093V305.454C198.136 305.454 198.112 305.466 198.1 305.466H197.741C197.741 305.466 197.705 305.466 197.693 305.43L197.178 303.968C197.178 303.968 197.178 303.968 197.166 303.968C197.166 303.968 197.166 303.968 197.166 303.98V305.466C197.166 305.466 197.154 305.478 197.142 305.478H196.83C196.83 305.478 196.806 305.478 196.806 305.466C196.806 305.466 196.794 305.454 196.794 305.442V303.105C196.794 303.105 196.794 303.081 196.806 303.081C196.806 303.081 196.818 303.069 196.83 303.069H197.19C197.19 303.069 197.226 303.081 197.238 303.105L197.753 304.567C197.753 304.567 197.753 304.567 197.765 304.567V303.117C197.765 303.117 197.765 303.093 197.777 303.093" fill="white"/>
<path d="M198.651 305.334C198.531 305.226 198.471 305.07 198.471 304.878V303.656C198.471 303.464 198.531 303.321 198.651 303.201C198.771 303.081 198.927 303.033 199.118 303.033C199.31 303.033 199.478 303.093 199.598 303.201C199.718 303.309 199.777 303.464 199.777 303.656V303.788C199.777 303.788 199.777 303.812 199.765 303.812L199.741 303.824H199.418C199.418 303.824 199.394 303.824 199.394 303.812C199.394 303.812 199.382 303.8 199.382 303.788V303.644C199.382 303.56 199.358 303.5 199.31 303.44C199.262 303.392 199.202 303.368 199.13 303.368C199.058 303.368 198.999 303.392 198.951 303.44C198.903 303.488 198.879 303.56 198.879 303.644V304.878C198.879 304.962 198.903 305.022 198.951 305.082C198.999 305.13 199.058 305.154 199.13 305.154C199.202 305.154 199.262 305.13 199.31 305.082C199.358 305.034 199.382 304.962 199.382 304.878V304.543C199.382 304.543 199.382 304.531 199.37 304.531H199.154C199.154 304.531 199.13 304.531 199.13 304.519V304.219C199.13 304.219 199.142 304.207 199.154 304.207H199.741C199.741 304.207 199.765 304.207 199.765 304.219C199.765 304.219 199.777 304.231 199.777 304.243V304.878C199.777 305.07 199.718 305.214 199.598 305.334C199.478 305.442 199.322 305.502 199.118 305.502C198.915 305.502 198.759 305.442 198.651 305.334Z" fill="white"/>
<path d="M200.916 305.322C200.796 305.202 200.736 305.046 200.736 304.854V303.68C200.736 303.488 200.796 303.321 200.916 303.213C201.036 303.105 201.192 303.033 201.384 303.033C201.575 303.033 201.743 303.093 201.863 303.213C201.983 303.333 202.043 303.488 202.043 303.68V303.716C202.043 303.716 202.043 303.74 202.031 303.752C202.031 303.752 202.019 303.764 202.007 303.764H201.683C201.683 303.764 201.647 303.764 201.647 303.74V303.656C201.647 303.572 201.623 303.512 201.575 303.464C201.527 303.416 201.467 303.392 201.396 303.392C201.324 303.392 201.264 303.416 201.216 303.464C201.168 303.512 201.144 303.584 201.144 303.656V304.89C201.144 304.974 201.168 305.034 201.216 305.094C201.264 305.142 201.324 305.166 201.396 305.166C201.467 305.166 201.539 305.142 201.575 305.094C201.623 305.046 201.647 304.974 201.647 304.89V304.806C201.647 304.806 201.647 304.783 201.659 304.783C201.659 304.783 201.671 304.771 201.683 304.771H202.007L202.031 304.794C202.031 304.794 202.043 304.806 202.043 304.818V304.854C202.043 305.046 201.983 305.202 201.863 305.322C201.743 305.442 201.587 305.502 201.384 305.502C201.18 305.502 201.036 305.442 200.916 305.322Z" fill="white"/>
<path d="M203.157 305.082C203.157 305.082 203.229 304.962 203.229 304.866V303.668C203.229 303.584 203.205 303.512 203.157 303.452C203.109 303.392 203.049 303.368 202.966 303.368C202.882 303.368 202.822 303.392 202.774 303.452C202.726 303.512 202.702 303.572 202.702 303.668V304.866C202.702 304.95 202.726 305.022 202.774 305.082C202.822 305.142 202.882 305.166 202.966 305.166C203.049 305.166 203.109 305.142 203.157 305.082ZM203.097 302.805C203.097 302.805 203.085 302.829 203.061 302.829H202.858C202.858 302.829 202.822 302.829 202.81 302.805L202.558 302.458V302.434C202.558 302.422 202.57 302.41 202.594 302.41H202.846C202.846 302.41 202.882 302.41 202.894 302.434L203.097 302.793V302.817V302.805ZM202.498 305.322C202.378 305.202 202.318 305.046 202.318 304.842V303.68C202.318 303.476 202.378 303.321 202.498 303.201C202.618 303.081 202.774 303.021 202.977 303.021C203.181 303.021 203.337 303.081 203.457 303.201C203.577 303.321 203.637 303.476 203.637 303.68V304.842C203.637 305.046 203.577 305.202 203.457 305.322C203.337 305.442 203.169 305.501 202.977 305.501C202.786 305.501 202.618 305.442 202.498 305.322Z" fill="white"/>
<path d="M204.955 303.069C204.955 303.069 204.967 303.057 204.979 303.057H205.29C205.29 303.057 205.314 303.057 205.314 303.069C205.314 303.069 205.326 303.081 205.326 303.093V305.43C205.326 305.43 205.326 305.454 205.314 305.454C205.314 305.454 205.302 305.466 205.29 305.466H204.931C204.931 305.466 204.895 305.466 204.883 305.43L204.368 303.968C204.368 303.968 204.368 303.968 204.356 303.968C204.356 303.968 204.356 303.968 204.356 303.98V305.466L204.332 305.478H204.02C204.02 305.478 203.996 305.478 203.996 305.466C203.996 305.466 203.984 305.454 203.984 305.442V303.105C203.984 303.105 203.984 303.081 203.996 303.081C203.996 303.081 204.008 303.069 204.02 303.069H204.38C204.38 303.069 204.416 303.081 204.428 303.105L204.943 304.567C204.943 304.567 204.943 304.567 204.955 304.567V303.117C204.955 303.117 204.955 303.093 204.967 303.093" fill="white"/>
<path d="M192.887 307.215L192.911 307.203H193.223C193.223 307.203 193.247 307.203 193.259 307.215C193.259 307.215 193.259 307.227 193.259 307.239V309.6C193.259 309.6 193.235 309.612 193.223 309.612H192.863C192.863 309.612 192.827 309.612 192.815 309.576L192.3 308.114C192.3 308.114 192.3 308.114 192.288 308.114C192.288 308.114 192.288 308.114 192.288 308.126V309.612C192.288 309.612 192.276 309.624 192.264 309.624H191.953C191.953 309.624 191.929 309.624 191.929 309.612C191.929 309.612 191.917 309.6 191.917 309.588V307.251C191.917 307.251 191.917 307.227 191.929 307.227C191.929 307.227 191.941 307.215 191.953 307.215H192.312C192.312 307.215 192.348 307.227 192.36 307.251L192.875 308.713C192.875 308.713 192.875 308.713 192.887 308.713V307.263C192.887 307.263 192.887 307.239 192.899 307.239" fill="white"/>
<path d="M194.037 308.893H194.421C194.421 308.893 194.445 308.893 194.433 308.881L194.229 307.79L194.037 308.881C194.037 308.881 194.037 308.893 194.049 308.893M194.061 310.331C194.061 310.331 194.001 310.235 194.001 310.163C194.001 310.091 194.025 310.043 194.061 309.995C194.109 309.947 194.157 309.923 194.229 309.923C194.301 309.923 194.349 309.947 194.397 309.995C194.445 310.043 194.457 310.091 194.457 310.163C194.457 310.235 194.433 310.283 194.397 310.331C194.349 310.379 194.301 310.403 194.229 310.403C194.157 310.403 194.109 310.379 194.061 310.331ZM194.565 309.588L194.493 309.228C194.493 309.228 194.493 309.216 194.469 309.216H193.965C193.965 309.216 193.941 309.216 193.941 309.228L193.87 309.588C193.87 309.588 193.858 309.624 193.822 309.624H193.51C193.51 309.624 193.462 309.612 193.474 309.576L193.989 307.239C193.989 307.239 194.013 307.203 194.037 307.203H194.409C194.409 307.203 194.445 307.215 194.457 307.239L194.972 309.576C194.972 309.576 194.96 309.624 194.936 309.624H194.613C194.613 309.624 194.577 309.612 194.565 309.588Z" fill="white"/>
<path d="M196.195 307.215L196.219 307.203H196.531C196.531 307.203 196.555 307.203 196.567 307.215C196.567 307.215 196.567 307.227 196.567 307.239V309.6C196.567 309.6 196.543 309.612 196.531 309.612H196.171C196.171 309.612 196.135 309.612 196.123 309.576L195.608 308.114C195.608 308.114 195.608 308.114 195.596 308.114C195.596 308.114 195.596 308.114 195.596 308.126V309.612C195.596 309.612 195.584 309.624 195.572 309.624H195.26C195.26 309.624 195.236 309.624 195.236 309.612C195.236 309.612 195.225 309.6 195.225 309.588V307.251C195.225 307.251 195.225 307.227 195.236 307.227C195.236 307.227 195.248 307.215 195.26 307.215H195.62C195.62 307.215 195.656 307.227 195.668 307.251L196.183 308.713C196.183 308.713 196.183 308.713 196.195 308.713V307.263C196.195 307.263 196.195 307.239 196.207 307.239" fill="white"/>
<path d="M198.628 307.898C198.628 307.79 198.604 307.706 198.556 307.646C198.508 307.587 198.448 307.551 198.364 307.551H198.16C198.16 307.551 198.148 307.551 198.148 307.563V308.222C198.148 308.222 198.148 308.234 198.16 308.234H198.34C198.34 308.234 198.364 308.234 198.364 308.246C198.364 308.246 198.364 308.258 198.364 308.27V308.449L198.34 308.461H198.16C198.16 308.461 198.148 308.461 198.148 308.473V309.24C198.148 309.24 198.148 309.264 198.16 309.264H198.364C198.436 309.264 198.508 309.228 198.544 309.168C198.592 309.108 198.616 309.025 198.616 308.929V307.874L198.628 307.898ZM198.855 307.383C198.975 307.503 199.035 307.658 199.035 307.862V308.965C199.035 309.168 198.975 309.324 198.855 309.444C198.735 309.564 198.58 309.624 198.376 309.624H197.789C197.789 309.624 197.765 309.624 197.765 309.612C197.765 309.6 197.753 309.588 197.753 309.588V308.497C197.753 308.497 197.753 308.485 197.741 308.485H197.681C197.681 308.485 197.657 308.485 197.657 308.473C197.657 308.461 197.645 308.449 197.645 308.449V308.294C197.645 308.294 197.645 308.27 197.657 308.27C197.669 308.27 197.669 308.258 197.681 308.258H197.741C197.741 308.258 197.753 308.258 197.753 308.246V307.263C197.753 307.263 197.753 307.239 197.765 307.239C197.777 307.239 197.789 307.227 197.789 307.227H198.376C198.58 307.227 198.735 307.287 198.855 307.407" fill="white"/>
<path d="M199.789 306.975C199.789 306.975 199.789 306.951 199.789 306.939L199.993 306.58C199.993 306.58 200.017 306.556 200.041 306.556H200.293C200.293 306.556 200.317 306.556 200.329 306.568C200.329 306.568 200.329 306.592 200.329 306.604L200.077 306.963C200.077 306.963 200.053 306.987 200.029 306.987H199.837C199.837 306.987 199.813 306.987 199.801 306.975M200.173 309.228C200.173 309.228 200.245 309.108 200.245 309.013V307.814C200.245 307.73 200.221 307.658 200.173 307.599C200.125 307.539 200.065 307.515 199.981 307.515C199.897 307.515 199.837 307.539 199.789 307.599C199.741 307.658 199.717 307.718 199.717 307.814V309.013C199.717 309.096 199.741 309.168 199.789 309.228C199.837 309.288 199.897 309.312 199.981 309.312C200.065 309.312 200.125 309.288 200.173 309.228ZM199.502 309.48C199.382 309.36 199.322 309.204 199.322 309.001V307.838C199.322 307.635 199.382 307.479 199.502 307.359C199.622 307.239 199.777 307.179 199.981 307.179C200.185 307.179 200.341 307.239 200.46 307.359C200.58 307.479 200.64 307.635 200.64 307.838V309.001C200.64 309.204 200.58 309.36 200.46 309.48C200.341 309.6 200.173 309.66 199.981 309.66C199.789 309.66 199.622 309.6 199.502 309.48Z" fill="white"/>
<path d="M200.976 309.612C200.976 309.612 200.964 309.6 200.964 309.588V307.251C200.964 307.251 200.964 307.227 200.976 307.227C200.976 307.227 200.988 307.215 201 307.215H201.324C201.324 307.215 201.348 307.215 201.348 307.227C201.348 307.227 201.36 307.239 201.36 307.251V309.588C201.36 309.588 201.36 309.612 201.348 309.612C201.348 309.612 201.336 309.624 201.324 309.624H201C201 309.624 200.976 309.624 200.976 309.612Z" fill="white"/>
<path d="M267 298H227V338H267V298Z" fill="#4C9E45"/>
<path d="M232.705 309.519C234.072 309.519 234.671 308.788 234.671 307.673V306.487C234.671 305.755 234.348 305.276 233.676 305.12C234.24 304.94 234.599 304.485 234.599 303.814V303.118C234.599 301.98 234.048 301.272 232.801 301.272C231.399 301.272 230.907 302.099 230.907 303.298V304.017H232.142V303.19C232.142 302.687 232.298 302.411 232.729 302.411C233.161 302.411 233.317 302.699 233.317 303.142V304.005C233.317 304.437 233.029 304.665 232.597 304.665H232.082V305.696H232.657C233.137 305.696 233.329 305.923 233.329 306.355V307.685C233.329 308.117 233.137 308.417 232.717 308.417C232.25 308.417 232.082 308.105 232.082 307.625V306.475H230.847V307.53C230.847 308.752 231.339 309.543 232.717 309.543" fill="white"/>
<path d="M260.431 322.993C260.431 321.866 259.712 320.955 258.621 320.955C258.07 320.955 257.411 321.554 257.051 321.926C256.692 321.554 256.08 320.955 255.529 320.955C254.438 320.955 253.671 321.866 253.671 322.993C253.671 323.556 253.899 324.059 254.246 324.431L257.051 327.236L259.856 324.431C260.216 324.059 260.431 323.556 260.431 322.993Z" fill="white"/>
<path d="M248.493 331.839H248.469C248.253 331.827 248.085 331.671 248.037 331.455L246.611 323.16L244.453 327.164C244.357 327.344 244.166 327.44 243.974 327.404C243.782 327.368 243.626 327.212 243.602 327.02L242.691 320.619L241.013 324.383C240.941 324.551 240.773 324.659 240.593 324.659H234.085C233.833 324.659 233.629 324.455 233.629 324.191C233.629 323.927 233.833 323.736 234.085 323.736H240.294L242.499 318.785C242.583 318.593 242.775 318.485 242.979 318.509C243.183 318.533 243.338 318.701 243.374 318.905L244.321 325.51L246.455 321.566C246.551 321.386 246.743 321.302 246.934 321.326C247.126 321.362 247.282 321.506 247.318 321.698L248.637 329.381L253.443 313.415C253.503 313.235 253.659 313.103 253.851 313.091C254.043 313.079 254.222 313.175 254.306 313.355L256.836 318.605C256.943 318.833 256.848 319.109 256.62 319.217C256.392 319.325 256.116 319.229 256.008 319.001L253.995 314.829L248.96 331.539C248.9 331.731 248.721 331.863 248.517 331.863" fill="white"/>
<path d="M238.867 305.252C238.747 305.132 238.687 304.976 238.687 304.785V303.61C238.687 303.406 238.747 303.25 238.867 303.142C238.987 303.034 239.143 302.963 239.334 302.963C239.526 302.963 239.694 303.022 239.814 303.142C239.934 303.262 239.994 303.418 239.994 303.61V303.646C239.994 303.646 239.994 303.67 239.982 303.682C239.982 303.682 239.97 303.694 239.958 303.694H239.634C239.634 303.694 239.598 303.694 239.598 303.67V303.586C239.598 303.502 239.574 303.442 239.526 303.382C239.478 303.334 239.418 303.31 239.346 303.31C239.274 303.31 239.215 303.334 239.167 303.382C239.119 303.43 239.095 303.502 239.095 303.586V304.821C239.095 304.904 239.119 304.964 239.167 305.024C239.215 305.072 239.274 305.096 239.346 305.096C239.418 305.096 239.478 305.072 239.526 305.024C239.574 304.976 239.598 304.904 239.598 304.821V304.737C239.598 304.737 239.598 304.713 239.61 304.713C239.61 304.713 239.622 304.701 239.634 304.701H239.958L239.982 304.725C239.982 304.725 239.994 304.737 239.994 304.749V304.797C239.994 304.988 239.934 305.144 239.814 305.264C239.694 305.384 239.538 305.444 239.334 305.444C239.131 305.444 238.975 305.384 238.867 305.264" fill="white"/>
<path d="M240.473 305.24C240.353 305.108 240.293 304.94 240.293 304.737V302.998C240.293 302.998 240.305 302.987 240.329 302.987H240.641C240.641 302.987 240.665 302.987 240.665 302.998C240.665 302.998 240.677 303.01 240.677 303.022V304.773C240.677 304.868 240.701 304.94 240.749 305C240.797 305.06 240.856 305.084 240.928 305.084C241 305.084 241.06 305.06 241.108 305C241.156 304.94 241.18 304.868 241.18 304.773V303.022C241.18 303.022 241.18 302.998 241.192 302.998C241.192 302.998 241.204 302.987 241.216 302.987H241.54C241.54 302.987 241.564 302.987 241.564 302.998C241.564 303.01 241.576 303.01 241.576 303.022V304.737C241.576 304.952 241.516 305.12 241.396 305.24C241.276 305.36 241.12 305.432 240.916 305.432C240.713 305.432 240.557 305.372 240.437 305.24" fill="white"/>
<path d="M242.391 306.115C242.391 306.115 242.331 306.019 242.331 305.947C242.331 305.875 242.355 305.827 242.391 305.779C242.439 305.731 242.487 305.708 242.559 305.708C242.631 305.708 242.679 305.731 242.727 305.779C242.775 305.827 242.799 305.875 242.799 305.947C242.799 306.019 242.775 306.067 242.727 306.115C242.679 306.163 242.631 306.187 242.559 306.187C242.487 306.187 242.439 306.163 242.391 306.115ZM242.739 305.012C242.739 305.012 242.811 304.88 242.811 304.797V303.598C242.811 303.514 242.787 303.442 242.739 303.382C242.691 303.322 242.631 303.298 242.547 303.298C242.463 303.298 242.403 303.322 242.355 303.382C242.307 303.442 242.283 303.502 242.283 303.598V304.797C242.283 304.88 242.307 304.952 242.355 305.012C242.403 305.072 242.463 305.096 242.547 305.096C242.631 305.096 242.691 305.072 242.739 305.012ZM242.092 302.759C242.092 302.759 242.092 302.735 242.092 302.723L242.307 302.363C242.307 302.363 242.331 302.339 242.355 302.339H242.715C242.715 302.339 242.751 302.339 242.763 302.363L242.991 302.723V302.747C242.991 302.759 242.991 302.771 242.955 302.771H242.715C242.715 302.771 242.679 302.771 242.667 302.747L242.547 302.531C242.547 302.531 242.535 302.531 242.523 302.531L242.403 302.747C242.403 302.747 242.379 302.771 242.355 302.771H242.115C242.115 302.771 242.092 302.771 242.08 302.759M242.068 305.252C241.948 305.132 241.888 304.976 241.888 304.773V303.61C241.888 303.406 241.948 303.25 242.068 303.13C242.187 303.01 242.343 302.951 242.547 302.951C242.751 302.951 242.907 303.01 243.026 303.13C243.146 303.25 243.206 303.406 243.206 303.61V304.773C243.206 304.976 243.146 305.132 243.026 305.252C242.907 305.372 242.739 305.432 242.547 305.432C242.355 305.432 242.187 305.372 242.068 305.252Z" fill="white"/>
<path d="M243.674 305.252C243.554 305.132 243.494 304.976 243.494 304.785V303.61C243.494 303.406 243.554 303.25 243.674 303.142C243.793 303.034 243.949 302.963 244.141 302.963C244.333 302.963 244.501 303.022 244.62 303.142C244.74 303.262 244.8 303.418 244.8 303.61V303.646C244.8 303.646 244.8 303.67 244.788 303.682C244.788 303.682 244.776 303.694 244.764 303.694H244.441C244.441 303.694 244.405 303.694 244.405 303.67V303.586C244.405 303.502 244.381 303.442 244.333 303.382C244.285 303.334 244.225 303.31 244.153 303.31C244.081 303.31 244.021 303.334 243.973 303.382C243.925 303.43 243.901 303.502 243.901 303.586V304.821C243.901 304.904 243.925 304.964 243.973 305.024C244.021 305.072 244.081 305.096 244.153 305.096C244.225 305.096 244.285 305.072 244.333 305.024C244.381 304.976 244.405 304.904 244.405 304.821V304.737C244.405 304.737 244.405 304.713 244.417 304.713C244.417 304.713 244.429 304.701 244.441 304.701H244.764L244.788 304.725C244.788 304.725 244.8 304.737 244.8 304.749V304.797C244.8 304.988 244.74 305.144 244.62 305.264C244.501 305.384 244.345 305.444 244.141 305.444C243.937 305.444 243.781 305.384 243.674 305.264" fill="white"/>
<path d="M245.903 305.264C245.783 305.144 245.724 305 245.724 304.809V304.725C245.724 304.725 245.724 304.701 245.724 304.689C245.724 304.689 245.736 304.677 245.76 304.677H246.071C246.071 304.677 246.095 304.677 246.095 304.689C246.095 304.689 246.107 304.713 246.107 304.725V304.797C246.107 304.892 246.131 304.964 246.179 305.012C246.227 305.072 246.287 305.096 246.359 305.096C246.431 305.096 246.491 305.072 246.539 305.012C246.587 304.964 246.611 304.892 246.611 304.809C246.611 304.749 246.599 304.701 246.575 304.653C246.551 304.605 246.515 304.569 246.467 304.533C246.419 304.497 246.347 304.437 246.239 304.365C246.119 304.281 246.035 304.209 245.963 304.149C245.891 304.089 245.831 304.005 245.783 303.921C245.736 303.826 245.712 303.73 245.712 303.61C245.712 303.418 245.772 303.262 245.891 303.154C246.011 303.046 246.155 302.987 246.347 302.987C246.539 302.987 246.694 303.046 246.814 303.166C246.934 303.286 246.994 303.442 246.994 303.634V303.742C246.994 303.742 246.982 303.742 246.97 303.742H246.635L246.623 303.718V303.622C246.623 303.538 246.599 303.454 246.551 303.406C246.503 303.358 246.443 303.322 246.371 303.322C246.299 303.322 246.239 303.346 246.203 303.394C246.155 303.442 246.131 303.514 246.131 303.598C246.131 303.682 246.155 303.754 246.203 303.814C246.251 303.874 246.347 303.945 246.479 304.053C246.623 304.161 246.73 304.245 246.802 304.305C246.874 304.377 246.934 304.449 246.97 304.521C247.006 304.605 247.03 304.689 247.03 304.797C247.03 304.988 246.97 305.144 246.85 305.264C246.73 305.384 246.575 305.444 246.383 305.444C246.191 305.444 246.035 305.384 245.915 305.276" fill="white"/>
<path d="M248.337 302.483C248.337 302.483 248.337 302.459 248.337 302.447L248.541 302.088C248.541 302.088 248.565 302.064 248.589 302.064H248.84C248.84 302.064 248.864 302.064 248.876 302.076C248.876 302.076 248.876 302.1 248.876 302.111L248.624 302.471C248.624 302.471 248.601 302.495 248.577 302.495H248.373C248.373 302.495 248.349 302.495 248.337 302.483ZM248.097 305.012C248.097 305.012 248.169 304.88 248.169 304.797V303.598C248.169 303.514 248.145 303.442 248.097 303.382C248.049 303.322 247.989 303.298 247.905 303.298C247.821 303.298 247.761 303.322 247.713 303.382C247.666 303.442 247.642 303.502 247.642 303.598V304.797C247.642 304.88 247.666 304.952 247.713 305.012C247.761 305.072 247.821 305.096 247.905 305.096C247.989 305.096 248.049 305.072 248.097 305.012ZM247.438 302.759C247.438 302.759 247.438 302.735 247.438 302.723L247.654 302.363C247.654 302.363 247.678 302.339 247.702 302.339H248.061C248.061 302.339 248.097 302.339 248.109 302.363L248.337 302.723V302.747C248.337 302.759 248.337 302.771 248.301 302.771H248.061C248.061 302.771 248.025 302.771 248.013 302.747L247.893 302.531C247.893 302.531 247.881 302.531 247.869 302.531L247.749 302.747C247.749 302.747 247.725 302.771 247.702 302.771H247.462C247.462 302.771 247.438 302.771 247.426 302.759M247.426 305.252C247.306 305.132 247.246 304.976 247.246 304.773V303.61C247.246 303.406 247.306 303.25 247.426 303.13C247.546 303.011 247.702 302.951 247.905 302.951C248.109 302.951 248.265 303.011 248.385 303.13C248.505 303.25 248.565 303.406 248.565 303.61V304.773C248.565 304.976 248.505 305.132 248.385 305.252C248.265 305.372 248.097 305.432 247.905 305.432C247.713 305.432 247.546 305.372 247.426 305.252Z" fill="white"/>
<path d="M249.883 302.998C249.883 302.998 249.895 302.987 249.919 302.987H250.231C250.231 302.987 250.255 302.987 250.267 302.998C250.279 303.01 250.267 303.01 250.267 303.022V305.384C250.267 305.384 250.255 305.396 250.231 305.396H249.871C249.871 305.396 249.835 305.396 249.823 305.36L249.308 303.898C249.308 303.898 249.308 303.898 249.308 303.909V305.396C249.308 305.396 249.296 305.408 249.272 305.408H248.96C248.96 305.408 248.936 305.408 248.924 305.396C248.912 305.384 248.912 305.384 248.912 305.372V303.034C248.912 303.034 248.912 303.01 248.924 303.01C248.936 303.01 248.936 302.998 248.96 302.998H249.32C249.32 302.998 249.356 303.01 249.368 303.034L249.883 304.497C249.883 304.497 249.883 304.497 249.895 304.497C249.895 304.497 249.895 304.497 249.895 304.485V303.01" fill="white"/>
<path d="M250.77 305.264C250.65 305.156 250.59 305 250.59 304.809V303.586C250.59 303.394 250.65 303.25 250.77 303.13C250.889 303.022 251.045 302.963 251.237 302.963C251.429 302.963 251.597 303.022 251.717 303.13C251.836 303.25 251.896 303.394 251.896 303.586V303.718C251.896 303.718 251.896 303.742 251.884 303.742C251.884 303.742 251.872 303.754 251.86 303.754H251.537C251.537 303.754 251.513 303.754 251.513 303.742C251.513 303.73 251.513 303.718 251.513 303.718V303.574C251.513 303.49 251.489 303.43 251.441 303.37C251.393 303.322 251.333 303.298 251.261 303.298C251.189 303.298 251.117 303.322 251.081 303.37C251.033 303.418 251.009 303.49 251.009 303.574V304.809C251.009 304.892 251.033 304.964 251.081 305.012C251.129 305.06 251.189 305.084 251.261 305.084C251.333 305.084 251.393 305.06 251.441 305.012C251.489 304.964 251.513 304.892 251.513 304.809V304.473C251.513 304.473 251.513 304.461 251.489 304.461H251.273C251.273 304.461 251.249 304.461 251.249 304.449L251.237 304.425V304.173C251.237 304.173 251.237 304.149 251.249 304.149C251.249 304.149 251.261 304.137 251.273 304.137H251.86C251.86 304.137 251.884 304.137 251.884 304.149C251.884 304.149 251.896 304.161 251.896 304.173V304.809C251.896 305 251.836 305.144 251.717 305.264C251.597 305.372 251.441 305.432 251.237 305.432C251.033 305.432 250.877 305.372 250.77 305.264Z" fill="white"/>
<path d="M238.747 309.543C238.747 309.543 238.747 309.531 238.747 309.519V307.158C238.747 307.158 238.759 307.146 238.783 307.146H239.095C239.095 307.146 239.119 307.146 239.119 307.158C239.119 307.158 239.131 307.17 239.131 307.182V308.153C239.131 308.153 239.131 308.153 239.143 308.153L239.658 307.182C239.658 307.182 239.682 307.146 239.706 307.146H240.054C240.054 307.146 240.078 307.146 240.09 307.158C240.09 307.158 240.09 307.182 240.09 307.194L239.574 308.165C239.574 308.165 239.574 308.177 239.574 308.189L240.138 309.519C240.138 309.519 240.138 309.519 240.138 309.543C240.138 309.567 240.138 309.567 240.102 309.567H239.754C239.754 309.567 239.718 309.567 239.706 309.531L239.299 308.536C239.299 308.536 239.299 308.536 239.287 308.536L239.155 308.764C239.155 308.764 239.155 308.776 239.155 308.788V309.519C239.155 309.519 239.155 309.543 239.143 309.543C239.143 309.543 239.131 309.555 239.119 309.555H238.807C238.807 309.555 238.783 309.555 238.771 309.543" fill="white"/>
<path d="M241.264 307.146C241.264 307.146 241.276 307.134 241.3 307.134H241.612C241.612 307.134 241.636 307.134 241.636 307.146C241.636 307.146 241.648 307.158 241.648 307.17V309.507C241.648 309.507 241.648 309.531 241.636 309.531C241.636 309.531 241.624 309.543 241.612 309.543H241.3C241.3 309.543 241.276 309.543 241.264 309.531C241.264 309.531 241.264 309.519 241.264 309.507V308.524C241.264 308.524 241.264 308.5 241.24 308.5H240.797C240.797 308.5 240.785 308.5 240.785 308.524V309.507C240.785 309.507 240.785 309.531 240.773 309.531C240.773 309.531 240.761 309.543 240.749 309.543H240.425C240.425 309.543 240.401 309.543 240.401 309.531C240.401 309.531 240.389 309.519 240.389 309.507V307.17C240.389 307.17 240.389 307.146 240.401 307.146C240.401 307.146 240.413 307.134 240.425 307.134H240.749C240.749 307.134 240.773 307.134 240.773 307.146C240.773 307.146 240.785 307.158 240.785 307.17V308.141C240.785 308.141 240.785 308.153 240.797 308.153H241.24C241.24 308.153 241.264 308.153 241.264 308.141V307.146Z" fill="white"/>
<path d="M242.823 309.16C242.823 309.16 242.895 309.028 242.895 308.944V307.745C242.895 307.661 242.871 307.589 242.823 307.53C242.775 307.47 242.715 307.446 242.631 307.446C242.547 307.446 242.487 307.47 242.439 307.53C242.391 307.589 242.367 307.649 242.367 307.745V308.944C242.367 309.028 242.391 309.1 242.439 309.16C242.487 309.22 242.547 309.244 242.631 309.244C242.715 309.244 242.775 309.22 242.823 309.16ZM242.571 306.942C242.571 306.942 242.631 306.834 242.679 306.774C242.703 306.75 242.727 306.726 242.739 306.702C242.739 306.678 242.751 306.654 242.751 306.619C242.751 306.595 242.751 306.571 242.715 306.547C242.691 306.523 242.667 306.523 242.643 306.523C242.607 306.523 242.583 306.523 242.559 306.547C242.535 306.559 242.511 306.595 242.475 306.631C242.475 306.643 242.451 306.654 242.439 306.654C242.439 306.654 242.427 306.654 242.415 306.654L242.331 306.583C242.331 306.583 242.307 306.547 242.331 306.523C242.379 306.451 242.427 306.403 242.475 306.379C242.523 306.355 242.583 306.331 242.667 306.331C242.763 306.331 242.847 306.355 242.906 306.415C242.966 306.475 242.99 306.535 242.99 306.631C242.99 306.678 242.978 306.726 242.954 306.762C242.93 306.798 242.894 306.834 242.859 306.882C242.811 306.93 242.787 306.966 242.763 306.99C242.763 307.014 242.739 307.026 242.703 307.014L242.607 306.99C242.607 306.99 242.571 306.966 242.583 306.942M242.151 309.411C242.031 309.292 241.972 309.136 241.972 308.932V307.769C241.972 307.565 242.031 307.41 242.151 307.29C242.271 307.17 242.427 307.11 242.631 307.11C242.835 307.11 242.99 307.17 243.11 307.29C243.23 307.41 243.29 307.565 243.29 307.769V308.932C243.29 309.136 243.23 309.292 243.11 309.411C242.99 309.531 242.823 309.591 242.631 309.591C242.439 309.591 242.271 309.531 242.151 309.411Z" fill="white"/>
<path d="M244.812 307.47C244.812 307.47 244.8 307.482 244.776 307.482H244.033C244.033 307.482 244.021 307.482 244.021 307.494V308.153C244.021 308.153 244.021 308.165 244.033 308.165H244.476C244.476 308.165 244.5 308.165 244.5 308.177L244.512 308.201V308.464C244.512 308.464 244.512 308.488 244.5 308.488C244.488 308.488 244.488 308.5 244.476 308.5H244.033C244.033 308.5 244.021 308.5 244.021 308.512V309.172C244.021 309.172 244.021 309.184 244.033 309.184H244.776C244.776 309.184 244.8 309.184 244.812 309.196C244.812 309.196 244.812 309.22 244.812 309.232V309.519C244.812 309.519 244.8 309.531 244.776 309.531H243.649C243.649 309.531 243.625 309.531 243.625 309.519C243.625 309.519 243.613 309.507 243.613 309.495V307.158C243.613 307.158 243.613 307.134 243.625 307.134C243.625 307.134 243.637 307.122 243.649 307.122H244.776C244.776 307.122 244.8 307.122 244.812 307.134C244.812 307.134 244.812 307.146 244.812 307.158V307.446" fill="white"/>
<path d="M246.934 307.134H247.258C247.258 307.134 247.282 307.134 247.282 307.146C247.282 307.158 247.282 307.158 247.282 307.17V309.531C247.282 309.531 247.27 309.543 247.258 309.543H246.934C246.934 309.543 246.91 309.543 246.898 309.531C246.898 309.531 246.898 309.519 246.898 309.507V307.865C246.898 307.865 246.898 307.865 246.886 307.865L246.587 308.405C246.587 308.405 246.563 308.429 246.551 308.429C246.539 308.429 246.527 308.429 246.515 308.405L246.215 307.865C246.215 307.865 246.215 307.865 246.203 307.865C246.203 307.865 246.203 307.865 246.203 307.877V309.531C246.203 309.531 246.191 309.543 246.167 309.543H245.855C245.855 309.543 245.831 309.543 245.82 309.531C245.808 309.519 245.82 309.519 245.82 309.507V307.146C245.82 307.146 245.843 307.134 245.855 307.134H246.167C246.167 307.134 246.203 307.134 246.215 307.158L246.551 307.745C246.551 307.745 246.563 307.745 246.575 307.745L246.898 307.158C246.898 307.158 246.922 307.134 246.946 307.134" fill="white"/>
<path d="M248.049 308.824H248.433C248.433 308.824 248.457 308.824 248.445 308.812L248.241 307.721L248.049 308.812C248.049 308.812 248.049 308.824 248.061 308.824M248.085 310.263C248.085 310.263 248.013 310.167 248.013 310.095C248.013 310.023 248.037 309.975 248.085 309.927C248.133 309.879 248.181 309.855 248.253 309.855C248.325 309.855 248.373 309.879 248.421 309.927C248.469 309.975 248.481 310.023 248.481 310.095C248.481 310.167 248.457 310.215 248.421 310.263C248.373 310.31 248.325 310.334 248.253 310.334C248.181 310.334 248.133 310.31 248.085 310.263ZM248.588 309.519L248.517 309.16C248.517 309.16 248.517 309.136 248.493 309.136H247.989C247.989 309.136 247.965 309.136 247.965 309.16L247.905 309.519C247.905 309.519 247.893 309.555 247.857 309.555H247.546C247.546 309.555 247.498 309.543 247.51 309.507L248.025 307.17C248.025 307.17 248.049 307.134 248.073 307.134H248.445C248.445 307.134 248.481 307.146 248.493 307.17L249.008 309.507C249.008 309.507 248.996 309.555 248.972 309.555H248.648C248.648 309.555 248.612 309.543 248.6 309.519" fill="white"/>
<path d="M250.206 307.146C250.206 307.146 250.218 307.134 250.242 307.134H250.554C250.554 307.134 250.578 307.134 250.59 307.146C250.602 307.158 250.59 307.158 250.59 307.17V309.531C250.59 309.531 250.578 309.543 250.554 309.543H250.194C250.194 309.543 250.158 309.543 250.146 309.507L249.631 308.045C249.631 308.045 249.631 308.045 249.631 308.057V309.543C249.631 309.543 249.619 309.555 249.595 309.555H249.283C249.283 309.555 249.259 309.555 249.247 309.543C249.235 309.531 249.235 309.531 249.235 309.519V307.182C249.235 307.182 249.235 307.158 249.247 307.158C249.259 307.158 249.259 307.146 249.283 307.146H249.643C249.643 307.146 249.679 307.158 249.691 307.182L250.206 308.644C250.206 308.644 250.206 308.644 250.218 308.644V307.17" fill="white"/>
<path d="M251.849 307.146C251.849 307.146 251.861 307.134 251.885 307.134H252.196C252.196 307.134 252.22 307.134 252.22 307.146C252.22 307.146 252.232 307.158 252.232 307.17V309.507C252.232 309.507 252.232 309.531 252.22 309.531C252.22 309.531 252.208 309.543 252.196 309.543H251.885C251.885 309.543 251.861 309.543 251.849 309.531C251.849 309.531 251.849 309.519 251.849 309.507V308.524C251.849 308.524 251.849 308.5 251.825 308.5H251.381C251.381 308.5 251.369 308.5 251.369 308.524V309.507C251.369 309.507 251.369 309.531 251.357 309.531C251.357 309.531 251.345 309.543 251.333 309.543H251.01C251.01 309.543 250.986 309.543 250.986 309.531C250.986 309.531 250.974 309.519 250.974 309.507V307.17C250.974 307.17 250.974 307.146 250.986 307.146C250.986 307.146 250.998 307.134 251.01 307.134H251.333C251.333 307.134 251.357 307.134 251.357 307.146C251.357 307.146 251.369 307.158 251.369 307.17V308.141C251.369 308.141 251.369 308.153 251.381 308.153H251.825C251.825 308.153 251.849 308.153 251.849 308.141V307.146Z" fill="white"/>
<path d="M313 298H273V338H313V298Z" fill="#BF8D2C"/>
<path d="M276.992 303.249H277.004V309.42H278.371V301.355H277.28L276.033 302.817V304.243H276.045L276.992 303.249Z" fill="white"/>
<path d="M279.173 303.021V303.992H280.408V302.985C280.408 302.494 280.647 302.35 280.935 302.35C281.199 302.35 281.427 302.458 281.427 302.961V303.632C281.427 304.303 281.367 304.555 280.923 305.022L280.156 305.837C279.425 306.628 279.149 307.143 279.149 307.946V309.432H282.673V308.33H280.444V307.946C280.444 307.311 280.671 307.083 281.019 306.712L281.882 305.801C282.577 305.046 282.733 304.579 282.733 303.764V302.973C282.733 301.823 282.17 301.271 280.959 301.271C279.748 301.271 279.161 301.907 279.161 303.033" fill="white"/>
<path d="M303.962 319.414C302.332 318.132 300.378 317.988 299.611 317.988C299.203 317.988 298.832 318.024 298.556 318.084L298.448 318.108C297.417 318.348 295.679 318.755 293.665 321.259L293.606 321.331C293.606 321.331 293.558 321.427 293.558 321.487C293.558 321.535 293.57 321.571 293.594 321.619L293.642 321.691C293.977 322.242 294.253 322.733 294.469 323.141C294.553 323.297 294.756 323.345 294.9 323.201C294.912 323.189 294.924 323.165 294.936 323.153C296.674 320.744 298.041 320.433 298.94 320.217L299.048 320.193C299.167 320.169 299.371 320.145 299.599 320.145C300.019 320.145 301.481 320.217 302.608 321.116C303.615 321.919 304.13 323.189 304.13 324.902C304.13 327.778 302.74 328.905 301.565 329.336C301.121 329.504 300.642 329.588 300.138 329.588C298.94 329.588 298.005 329.108 297.993 329.096L297.909 329.061C296.902 328.629 295.404 327.718 293.989 324.866C291.088 319.031 288.643 318.479 287.025 318.108L286.941 318.084C286.821 318.06 286.473 317.988 285.898 317.988C284.963 317.988 283.165 318.168 281.619 319.402C280.564 320.241 279.305 321.871 279.305 324.878C279.305 326.712 279.677 327.922 280.648 329.192C280.828 329.444 282.518 331.613 285.754 331.613C286.234 331.613 286.725 331.565 287.229 331.469C287.816 331.361 288.727 331.062 289.746 330.319L290.597 331.086C290.693 331.17 290.861 331.158 290.944 331.074C290.992 331.026 291.004 330.966 291.004 330.918L291.664 326.868V326.82C291.664 326.748 291.628 326.688 291.58 326.64C291.532 326.604 291.484 326.58 291.412 326.58L287.468 327.67H287.396C287.396 327.67 287.3 327.718 287.277 327.754C287.229 327.802 287.205 327.862 287.217 327.934C287.217 327.994 287.253 328.066 287.3 328.102L288.116 328.845C287.684 329.108 287.253 329.288 286.833 329.36C286.473 329.432 286.126 329.468 285.79 329.468C283.561 329.468 282.458 328.006 282.41 327.934L282.386 327.898C281.703 327.011 281.475 326.244 281.475 324.89C281.475 323.165 281.978 321.895 282.973 321.104C284.076 320.229 285.502 320.157 285.91 320.157C286.138 320.157 286.342 320.169 286.473 320.205L286.557 320.229C287.852 320.516 289.614 320.924 292.071 325.837C293.366 328.437 294.984 330.139 297.034 331.026C297.274 331.146 298.532 331.745 300.162 331.745C300.918 331.745 301.649 331.613 302.344 331.361C303.531 330.918 306.312 329.396 306.312 324.902C306.312 321.895 305.041 320.265 303.962 319.426" fill="white"/>
<path d="M284.591 302.697V303.129H284.879V305.118H285.37V303.129H285.658V302.697H284.591Z" fill="white"/>
<path d="M286.258 302.697H285.778V305.118H286.258V302.697Z" fill="white"/>
<path d="M286.449 302.697V305.118H287.36V304.687H286.941V304.111H287.336V303.68H286.941V303.141H287.36V302.709H286.461L286.449 302.697ZM286.761 302.314L286.581 302.614H286.797L286.893 302.506L286.989 302.614H287.204L287.025 302.314H286.761Z" fill="white"/>
<path d="M288.248 305.142H287.948C287.648 305.142 287.492 304.998 287.492 304.687V302.697H287.972V304.639C287.972 304.639 287.996 304.723 288.056 304.723H288.104C288.104 304.723 288.188 304.699 288.188 304.639V302.697H288.667V304.687C288.667 304.986 288.523 305.142 288.212 305.142" fill="white"/>
<path d="M289.914 304.711C290.01 304.711 290.046 304.675 290.046 304.579V303.261C290.046 303.165 290.01 303.129 289.914 303.129H289.818V304.723H289.914V304.711ZM290.022 302.697C290.369 302.697 290.537 302.865 290.537 303.213V304.591C290.537 304.938 290.369 305.106 290.022 305.106H289.338V302.685H290.022V302.697Z" fill="white"/>
<path d="M291.172 302.614L290.98 302.314H291.315L291.411 302.614H291.16H291.172ZM291.447 305.142H291.148C290.848 305.142 290.692 304.998 290.692 304.687V302.697H291.172V304.639C291.172 304.639 291.196 304.723 291.255 304.723H291.303C291.303 304.723 291.387 304.699 291.387 304.639V302.697H291.867V304.687C291.867 304.986 291.723 305.142 291.411 305.142" fill="white"/>
<path d="M292.826 302.697V303.201L292.838 303.908L292.562 302.697H292.059V305.118H292.478V304.423L292.466 303.8L292.778 305.118H293.246V302.697H292.826Z" fill="white"/>
<path d="M294.624 303.752V304.687C294.624 304.986 294.48 305.142 294.168 305.142H293.857C293.557 305.142 293.401 304.998 293.401 304.687V303.117C293.401 302.817 293.545 302.661 293.857 302.661H294.157C294.456 302.661 294.612 302.805 294.612 303.117V303.584H294.133V303.177C294.133 303.177 294.109 303.093 294.049 303.093H293.977C293.977 303.093 293.893 303.117 293.893 303.177V304.639C293.893 304.639 293.917 304.723 293.977 304.723H294.061C294.061 304.723 294.145 304.699 294.145 304.639V304.159H293.989V303.752H294.624Z" fill="white"/>
<path d="M285.299 308.821L285.347 308.689L285.119 308.27C285.119 308.27 285.059 308.353 285.059 308.425V308.821C285.059 308.821 285.083 308.893 285.131 308.893H285.191C285.191 308.893 285.275 308.869 285.287 308.821M285.215 309.3H285.035C284.759 309.3 284.616 309.156 284.616 308.881V308.389C284.616 308.222 284.652 308.09 284.771 307.982L284.903 307.862L284.819 307.718C284.747 307.587 284.735 307.503 284.735 307.359V307.287C284.735 306.987 284.879 306.832 285.191 306.832H285.395C285.694 306.832 285.85 306.975 285.85 307.287V307.611H285.407V307.335C285.407 307.275 285.383 307.251 285.323 307.251H285.287C285.287 307.251 285.203 307.275 285.203 307.335V307.383C285.203 307.479 285.227 307.527 285.275 307.611L285.574 308.162L285.682 307.838H286.162L285.874 308.641L286.222 309.276H285.718L285.61 309.084C285.539 309.228 285.431 309.3 285.227 309.3" fill="white"/>
<path d="M287.876 308.401V308.845C287.876 309.144 287.732 309.3 287.421 309.3H287.157C286.857 309.3 286.701 309.156 286.701 308.845V308.33H287.169V308.797C287.169 308.797 287.193 308.881 287.253 308.881H287.301C287.301 308.881 287.385 308.857 287.385 308.797V308.509C287.385 308.437 287.361 308.401 287.301 308.354L286.881 308.042C286.737 307.934 286.689 307.838 286.689 307.658V307.275C286.689 306.975 286.833 306.82 287.145 306.82H287.409C287.708 306.82 287.864 306.963 287.864 307.275V307.718H287.385V307.323C287.385 307.323 287.361 307.239 287.301 307.239H287.265C287.265 307.239 287.181 307.263 287.181 307.323V307.551C287.181 307.623 287.205 307.658 287.265 307.706L287.684 308.018C287.828 308.126 287.876 308.222 287.876 308.401Z" fill="white"/>
<path d="M288.667 308.497L288.559 307.443L288.451 308.497H288.667ZM288.595 306.4V306.364C288.595 306.364 288.595 306.352 288.583 306.352C288.583 306.352 288.571 306.352 288.571 306.364V306.412H288.403V306.364C288.403 306.256 288.463 306.197 288.571 306.197H288.619C288.727 306.197 288.787 306.244 288.787 306.364V306.388C288.787 306.448 288.775 306.496 288.727 306.544L288.679 306.604C288.679 306.604 288.655 306.64 288.655 306.676H288.511V306.616C288.511 306.544 288.511 306.532 288.547 306.484L288.571 306.448C288.571 306.448 288.595 306.412 288.595 306.388M288.703 308.917H288.403L288.367 309.276H287.924L288.247 306.856H288.906L289.218 309.276H288.739L288.703 308.917Z" fill="white"/>
<path d="M290.093 306.856V307.359L290.105 308.054L289.83 306.856H289.326V309.276H289.746V308.569L289.734 307.958L290.045 309.276H290.513V306.856H290.093Z" fill="white"/>
<path d="M292.359 309.276H291.856L291.712 308.521L291.556 309.276H291.088L291.388 308.102L291.1 306.856H291.604L291.736 307.587L291.892 306.856H292.359L292.059 308.018L292.359 309.276Z" fill="white"/>
<path d="M293.209 309.3H292.91C292.61 309.3 292.454 309.156 292.454 308.845V306.856H292.934V308.797C292.934 308.797 292.958 308.881 293.018 308.881H293.066C293.066 308.881 293.15 308.857 293.15 308.797V306.856H293.629V308.845C293.629 309.144 293.485 309.3 293.174 309.3" fill="white"/>
<path d="M295.116 306.304L294.924 306.604H294.673L294.769 306.304H295.116ZM294.481 308.497L294.373 307.443L294.265 308.497H294.481ZM294.493 306.76L294.397 306.652L294.301 306.76H294.085L294.265 306.46H294.529L294.709 306.76H294.493ZM294.229 308.917L294.193 309.276H293.75L294.073 306.856H294.733L295.056 309.276H294.577L294.541 308.917H294.229Z" fill="white"/>
<path d="M294.96 306.856V307.287H295.248V309.276H295.727V307.287H296.027V306.856H294.96Z" fill="white"/>
<path d="M285.826 312.991C285.826 313.291 285.682 313.446 285.371 313.446H285.071C284.771 313.446 284.616 313.303 284.616 312.991V311.421C284.616 311.122 284.759 310.966 285.071 310.966H285.359C285.658 310.966 285.814 311.11 285.814 311.421V311.984H285.335V311.469C285.335 311.469 285.311 311.385 285.251 311.385H285.191C285.191 311.385 285.107 311.409 285.107 311.469V312.931C285.107 312.991 285.131 313.015 285.191 313.015H285.251C285.251 313.015 285.335 312.991 285.335 312.931V312.344H285.814V312.979L285.826 312.991Z" fill="white"/>
<path d="M286.629 311.397H286.557C286.557 311.397 286.473 311.421 286.473 311.481V312.943C286.473 312.943 286.497 313.027 286.557 313.027H286.629C286.629 313.027 286.713 313.003 286.713 312.943V311.481C286.713 311.481 286.689 311.397 286.629 311.397ZM286.904 310.618L286.713 310.918H286.461L286.557 310.618H286.904ZM286.749 313.446H286.437C286.137 313.446 285.981 313.303 285.981 312.991V311.421C285.981 311.122 286.125 310.966 286.437 310.966H286.749C287.048 310.966 287.204 311.11 287.204 311.421V312.991C287.204 313.291 287.06 313.446 286.749 313.446Z" fill="white"/>
<path d="M287.779 311.002V311.433H288.067V313.422H288.559V311.433H288.846V311.002H287.779Z" fill="white"/>
<path d="M289.577 311.421H289.458V312.092H289.577C289.637 312.092 289.661 312.068 289.661 312.008V311.505C289.661 311.505 289.637 311.421 289.577 311.421ZM290.153 312.596V313.434H289.673V312.608C289.673 312.608 289.649 312.524 289.589 312.524H289.47V313.446H288.99V311.026H289.709C290.009 311.026 290.165 311.17 290.165 311.481V311.948C290.165 312.152 290.093 312.26 289.961 312.308C290.105 312.344 290.177 312.44 290.177 312.62" fill="white"/>
<path d="M291.208 310.618L291.017 310.918H290.765L290.861 310.618H291.208ZM290.981 312.655L290.873 311.601L290.765 312.655H290.981ZM290.717 313.075L290.681 313.434H290.237L290.561 311.014H291.22L291.544 313.434H291.064L291.029 313.075H290.717Z" fill="white"/>
<path d="M292.814 312.991C292.814 313.291 292.67 313.446 292.358 313.446H292.059C291.759 313.446 291.603 313.303 291.603 312.991V311.421C291.603 311.122 291.747 310.966 292.059 310.966H292.347C292.646 310.966 292.802 311.11 292.802 311.421V311.984H292.323V311.469C292.323 311.469 292.299 311.385 292.239 311.385H292.179C292.179 311.385 292.095 311.409 292.095 311.469V312.931C292.095 312.991 292.119 313.015 292.179 313.015H292.239C292.239 313.015 292.323 312.991 292.323 312.931V312.344H292.802V312.979L292.814 312.991Z" fill="white"/>
<path d="M293.702 311.002H294.193V313.422H293.702V312.416H293.462V313.422H292.982V311.002H293.462V311.972H293.702V311.002Z" fill="white"/>
<path d="M295.596 311.002L295.608 311.505V312.2L295.332 311.002H294.828V313.422H295.248V312.727L295.236 312.104L295.548 313.422H296.015V311.002H295.596Z" fill="white"/>
<path d="M296.914 311.002H297.405V313.422H296.914V312.416H296.674V313.422H296.194V311.002H296.674V311.972H296.914V311.002Z" fill="white"/>
<path d="M298.052 311.002H297.573V313.422H298.052V311.002Z" fill="white"/>
<path d="M298.496 314.046H298.88V313.65H298.496V314.046ZM298.232 311.002V313.422H299.143V312.991H298.724V312.416H299.119V311.984H298.724V311.445H299.143V311.014H298.244L298.232 311.002ZM298.556 310.618L298.376 310.918H298.592L298.688 310.81L298.784 310.918H299L298.82 310.618H298.556Z" fill="white"/>
<path d="M299.683 313.422H299.299V311.002H299.994L300.138 312.464L300.282 311.002H300.989V313.422H300.51V311.841L300.33 313.422H299.874L299.683 311.817V313.422Z" fill="white"/>
<path d="M359.06 298H319.06V338H359.06V298Z" fill="#417E45"/>
<path d="M324.113 301.358V309.421H322.754V303.249H322.745L321.797 304.237H321.778V302.817L323.032 301.358H324.113Z" fill="white"/>
<path d="M328.583 303.108V303.804C328.583 304.482 328.22 304.933 327.655 305.112C328.335 305.262 328.65 305.742 328.65 306.476V307.661C328.65 308.781 328.057 309.505 326.688 309.505C325.319 309.505 324.822 308.724 324.822 307.492V306.438H326.056V307.595C326.056 308.075 326.219 308.376 326.688 308.376C327.1 308.376 327.291 308.075 327.291 307.652V306.316C327.291 305.883 327.1 305.667 326.631 305.667H326.056V304.632H326.564C327.004 304.632 327.291 304.406 327.291 303.974V303.108C327.291 302.666 327.138 302.384 326.707 302.384C326.277 302.384 326.123 302.666 326.123 303.165V303.983H324.889V303.268C324.889 302.083 325.377 301.246 326.784 301.246C328.028 301.246 328.583 301.951 328.583 303.089" fill="white"/>
<path d="M354.044 326.053C352.991 324.576 348.224 318.677 339.361 318.677C330.498 318.677 325.731 324.576 324.678 326.053C324.63 326.119 324.592 326.175 324.563 326.213C324.592 326.26 324.63 326.316 324.678 326.382C325.731 327.859 330.498 333.757 339.361 333.757C348.224 333.757 352.991 327.859 354.044 326.382C354.092 326.316 354.13 326.26 354.159 326.213C354.13 326.166 354.092 326.109 354.044 326.053ZM334.413 322.403C334.489 322.29 334.757 321.951 334.786 321.913C334.853 321.829 334.987 321.81 335.083 321.791C335.178 321.772 335.303 321.829 335.322 321.895C335.341 321.97 335.284 322.243 335.236 322.29C335.102 322.421 334.767 322.619 334.585 322.581C334.441 322.563 334.384 322.45 334.413 322.403ZM334.097 323.033C334.097 323.033 334.125 323.005 334.125 322.995C334.24 322.864 334.46 322.845 334.614 322.817C334.767 322.788 334.977 322.864 334.996 322.967C335.025 323.071 334.614 323.259 334.537 323.325C334.326 323.522 333.991 323.917 333.8 323.964C333.733 323.983 333.685 323.964 333.637 323.945C333.762 323.626 333.915 323.315 334.097 323.024M337.418 329.834C337.294 330.305 337.16 330.474 337.035 330.625C336.92 330.775 336.47 330.963 336.193 330.944C335.915 330.926 335.877 330.173 335.877 329.787C335.877 329.656 335.686 330.051 335.59 329.251C335.523 328.734 335.197 329.308 335.178 328.96C335.159 328.621 334.987 328.687 334.815 328.47C334.642 328.254 334.432 328.489 334.183 328.602C333.944 328.706 334.039 328.762 333.704 328.659C333.704 328.659 333.695 328.659 333.685 328.659C333.369 327.925 333.197 327.106 333.197 326.26C333.197 326.053 333.206 325.846 333.226 325.639C333.235 325.62 333.254 325.601 333.264 325.582C333.589 325.197 333.58 325.103 333.58 325.103L333.944 324.98C333.944 324.98 334.518 325.065 334.958 325.234C335.312 325.366 335.877 325.676 336.202 325.535C336.442 325.441 336.624 325.31 336.604 325.112C336.576 324.867 336.384 324.811 336.145 324.971C336.059 325.037 335.877 324.595 335.724 324.623C335.58 324.642 335.906 325.131 335.781 325.159C335.657 325.178 335.408 324.651 335.37 324.566C335.331 324.482 335.14 324.265 334.968 324.425C334.604 324.773 334.011 324.754 333.896 324.839C333.532 325.112 333.436 324.754 333.446 324.529C333.455 324.482 333.475 324.425 333.494 324.378C333.609 324.246 334.03 324.209 334.183 324.303C334.346 324.406 334.46 324.275 334.518 324.209C334.585 324.143 334.556 324.04 334.518 323.955C334.48 323.87 334.594 323.804 334.681 323.786C334.767 323.767 335.035 323.569 335.15 323.503C335.264 323.437 335.829 323.372 336.088 323.503C336.346 323.635 336.576 323.532 336.7 323.381C336.863 323.193 337.064 323.052 337.15 323.005C337.236 322.967 336.93 322.675 336.671 322.986C336.413 323.296 336.289 323.325 336.164 323.325C336.04 323.325 335.331 323.146 335.245 322.92C335.159 322.694 335.465 322.525 335.733 322.403C335.992 322.28 336.719 322.28 336.901 322.233C337.274 322.149 337.753 321.96 337.992 322.13C338.232 322.29 336.987 322.572 337.399 322.798C337.542 322.882 338.203 322.421 338.433 322.299C338.959 322.026 337.916 321.932 338.05 321.377C338.203 320.747 336.767 320.992 336.049 321.048C337.006 320.437 338.145 320.079 339.371 320.079C342.28 320.079 344.721 322.092 345.372 324.811C345.372 324.943 345.353 325.046 345.343 325.093C345.286 325.319 344.865 325.507 344.616 325.15C344.549 325.056 344.29 324.811 344.3 325.234C344.3 325.658 344.721 325.705 344.319 325.959C343.927 326.213 343.85 326.156 343.668 326.222C343.486 326.288 343.305 326.73 343.352 326.965C343.4 327.2 343.955 327.84 343.544 327.821C343.448 327.821 342.711 327.313 342.587 326.984C342.462 326.645 342.319 326.307 342.213 326.053C342.108 325.799 341.85 325.733 341.63 325.883C341.409 326.034 341.687 326.184 341.534 326.504C341.381 326.824 341.266 327.116 341.027 326.843C340.424 326.156 339.553 326.495 339.409 325.723C339.332 325.31 338.978 325.347 338.672 325.112C338.375 324.877 338.203 324.745 338.155 324.924C338.107 325.074 339.103 325.855 339.17 326.053C339.275 326.354 338.873 326.617 338.576 326.683C338.279 326.749 338.155 326.514 337.868 326.222C337.581 325.921 337.456 325.705 337.437 325.94C337.408 326.278 337.705 326.777 338.002 326.965C338.251 327.125 338.528 327.191 338.452 327.454C338.375 327.708 338.452 327.567 338.174 327.84C337.897 328.122 337.839 328.207 337.858 328.593C337.877 328.978 337.782 328.997 337.715 329.317C337.657 329.637 337.514 329.364 337.399 329.834M344.042 327.37C344.252 327.351 344.558 327.643 344.444 327.746C344.319 327.859 344.013 327.812 343.86 327.699C343.707 327.577 343.955 327.379 344.051 327.37M343.774 327.182C343.707 327.153 343.649 327.097 343.601 326.946C343.553 326.796 343.678 326.711 343.802 326.768C343.927 326.833 344.089 327.022 344.089 327.125C344.089 327.229 343.841 327.21 343.774 327.191M341.055 327.172C340.931 327.285 340.625 327.238 340.462 327.116C340.309 326.993 340.558 326.796 340.653 326.786C340.864 326.768 341.17 327.059 341.055 327.163M338.528 328.395C338.442 328.536 338.212 329.571 338.059 329.449C337.906 329.326 338.117 328.245 338.165 328.16C338.404 327.708 338.94 327.737 338.528 328.386M339.371 332.421C338.768 332.421 338.184 332.337 337.638 332.177C337.562 332.111 337.514 332.008 337.562 331.876C337.753 331.377 338.318 331.18 338.768 331.142C339.763 331.048 341.084 331.791 341.295 331.669C341.505 331.547 341.926 331.001 342.548 331.02C342.97 331.039 342.97 331.104 343.113 331.161C342.079 331.951 340.778 332.421 339.371 332.421ZM343.726 330.625C343.659 330.606 343.601 330.587 343.534 330.549C343.199 330.38 343.238 330.653 343.075 330.587C342.912 330.521 343.266 330.145 342.769 330.465C342.271 330.785 342.405 330.418 342.194 329.863C341.974 329.308 342.443 328.687 342.836 328.546C343.372 328.348 343.707 328.31 343.955 328.254C344.702 328.066 344.855 327.633 344.989 327.897C345.018 327.944 345.037 327.991 345.066 328.038C345.104 328.122 345.162 328.282 345.162 328.442C344.846 329.27 344.357 330.004 343.745 330.615M345.41 327.511C345.248 327.464 344.549 326.504 345.104 325.874C345.19 325.77 344.922 325.469 344.999 325.46C345.296 325.441 345.458 325.62 345.535 325.893C345.535 326.006 345.544 326.128 345.544 326.25C345.544 326.683 345.497 327.106 345.41 327.511Z" fill="white"/>
<path d="M332.642 302.967H333.12V305.385H332.642V304.369H332.393V305.385H331.914V302.967H332.393V303.936H332.642V302.967Z" fill="white"/>
<path d="M333.963 304.613L333.857 303.56L333.752 304.613H333.963ZM333.752 302.873L333.561 302.572H333.896L333.991 302.873H333.743H333.752ZM334.001 305.037H333.695L333.666 305.394H333.226L333.542 302.967H334.202L334.518 305.394H334.039L334.001 305.037Z" fill="white"/>
<path d="M335.035 304.068L335.044 304.689V305.385H334.623V302.967H335.121L335.398 304.162V303.466L335.389 302.967H335.81V305.385H335.341L335.035 304.068Z" fill="white"/>
<path d="M336.71 302.967H337.198V305.385H336.71V304.369H336.47V305.385H335.982V302.967H336.47V303.936H336.71V302.967Z" fill="white"/>
<path d="M338.5 303.974V304.341H338.366V304.971H338.461C338.557 304.971 338.595 304.933 338.595 304.839V303.513C338.595 303.419 338.557 303.381 338.461 303.381H338.366V303.974H338.5ZM337.753 304.341V303.974H337.877V302.967H338.557C338.911 302.967 339.074 303.136 339.074 303.484V304.867C339.074 305.215 338.902 305.385 338.557 305.385H337.877V304.341H337.753Z" fill="white"/>
<path d="M339.868 303.362H339.801C339.744 303.362 339.715 303.39 339.715 303.447V304.905C339.715 304.961 339.744 304.99 339.801 304.99H339.868C339.926 304.99 339.955 304.961 339.955 304.905V303.447C339.955 303.39 339.926 303.362 339.868 303.362ZM339.648 305.601H340.031V305.996H339.648V305.601ZM339.935 302.873L339.84 302.76L339.744 302.873H339.533L339.706 302.572H339.974L340.146 302.873H339.935ZM339.993 305.404H339.677C339.38 305.404 339.227 305.253 339.227 304.952V303.39C339.227 303.089 339.38 302.939 339.677 302.939H339.993C340.299 302.939 340.443 303.089 340.443 303.39V304.952C340.443 305.253 340.299 305.404 339.993 305.404Z" fill="white"/>
<path d="M341.017 304.068V304.689L341.027 305.385H340.605V302.967H341.103L341.381 304.162V303.466L341.371 302.967H341.792V305.385H341.323L341.017 304.068Z" fill="white"/>
<path d="M343.161 304.021V304.961C343.161 305.262 343.017 305.413 342.711 305.413H342.395C342.089 305.413 341.945 305.262 341.945 304.961V303.4C341.945 303.099 342.089 302.948 342.395 302.948H342.702C342.998 302.948 343.151 303.099 343.151 303.4V303.861H342.673V303.447C342.673 303.39 342.644 303.362 342.587 303.362H342.52C342.462 303.362 342.434 303.39 342.434 303.447V304.905C342.434 304.961 342.462 304.99 342.52 304.99H342.596C342.654 304.99 342.682 304.961 342.682 304.905V304.425H342.529V304.021H343.161Z" fill="white"/>
<path d="M344.52 302.873H344.271L344.367 302.572H344.702L344.511 302.873H344.52ZM345.238 302.901C345.238 303.099 345.162 303.193 344.989 303.202V304.952C344.989 305.253 344.846 305.404 344.539 305.404H344.243C343.936 305.404 343.793 305.253 343.793 304.952V302.958H344.281V304.896C344.281 304.952 344.31 304.98 344.367 304.98H344.415C344.472 304.98 344.501 304.952 344.501 304.896V302.958H344.874C344.932 302.958 344.961 302.929 344.961 302.873V302.788H345.238V302.901Z" fill="white"/>
<path d="M345.564 304.068L345.573 304.689L345.583 305.385H345.162V302.967H345.659L345.937 304.162L345.927 303.466V302.967H346.348V305.385H345.879L345.564 304.068Z" fill="white"/>
<path d="M347.717 304.021V304.961C347.717 305.262 347.574 305.413 347.267 305.413H346.951C346.645 305.413 346.502 305.262 346.502 304.961V303.4C346.502 303.099 346.645 302.948 346.951 302.948H347.258C347.554 302.948 347.708 303.099 347.708 303.4V303.861H347.229V303.447C347.229 303.39 347.2 303.362 347.143 303.362H347.076C347.018 303.362 346.99 303.39 346.99 303.447V304.905C346.99 304.961 347.018 304.99 347.076 304.99H347.152C347.21 304.99 347.239 304.961 347.239 304.905V304.425H347.085V304.021H347.717Z" fill="white"/>
<path d="M332.498 307.53H332.393V308.282H332.498C332.556 308.282 332.584 308.254 332.584 308.198V307.624C332.584 307.567 332.556 307.539 332.498 307.539M331.914 309.533V307.106H332.623C332.919 307.106 333.072 307.257 333.072 307.558V308.245C333.072 308.546 332.929 308.696 332.623 308.696H332.393V309.533H331.905H331.914Z" fill="white"/>
<path d="M333.934 307.116H334.413V309.533H333.934V308.527H333.695V309.533H333.206V307.116H333.695V308.094H333.934V307.116Z" fill="white"/>
<path d="M335.226 307.511H335.159C335.102 307.511 335.073 307.539 335.073 307.595V309.054C335.073 309.11 335.102 309.138 335.159 309.138H335.226C335.284 309.138 335.312 309.11 335.312 309.054V307.595C335.312 307.539 335.284 307.511 335.226 307.511ZM335.504 306.73L335.312 307.031H335.063L335.159 306.73H335.504ZM335.341 309.562H335.025C334.728 309.562 334.575 309.411 334.575 309.11V307.548C334.575 307.247 334.728 307.097 335.025 307.097H335.341C335.647 307.097 335.791 307.247 335.791 307.548V309.11C335.791 309.411 335.647 309.562 335.341 309.562Z" fill="white"/>
<path d="M336.365 307.116H336.853L337.026 308.837L337.198 307.116H337.648L337.322 309.533H336.691L336.365 307.116Z" fill="white"/>
<path d="M338.452 307.595C338.452 307.539 338.423 307.511 338.366 307.511H338.299C338.241 307.511 338.212 307.539 338.212 307.595V309.054C338.212 309.11 338.241 309.138 338.299 309.138H338.366C338.423 309.138 338.452 309.11 338.452 309.054V307.595ZM338.461 307.022H338.212L338.318 306.721H338.653L338.461 307.022ZM339.179 306.946V307.05C339.179 307.257 339.093 307.351 338.911 307.351C338.93 307.407 338.94 307.464 338.94 307.539V309.101C338.94 309.402 338.796 309.552 338.49 309.552H338.174C337.877 309.552 337.724 309.402 337.724 309.101V307.539C337.724 307.238 337.868 307.087 338.174 307.087H338.49C338.605 307.087 338.701 307.106 338.768 307.153V307.106H338.825C338.882 307.106 338.911 307.078 338.911 307.022V306.937H339.189L339.179 306.946Z" fill="white"/>
<path d="M339.591 307.116H339.103V309.543H339.591V307.116Z" fill="white"/>
<path d="M340.835 309.119C340.893 309.119 340.921 309.091 340.921 309.035V308.593C340.921 308.536 340.893 308.508 340.835 308.508H340.711V309.119H340.835ZM340.835 307.53H340.72V308.103H340.835C340.893 308.103 340.921 308.075 340.921 308.019V307.614C340.921 307.558 340.893 307.53 340.835 307.53ZM341.409 308.593V309.082C341.409 309.383 341.266 309.533 340.96 309.533H340.242V307.116H340.96C341.256 307.116 341.409 307.266 341.409 307.567V307.925C341.409 308.132 341.333 308.235 341.208 308.282C341.352 308.32 341.419 308.414 341.419 308.593" fill="white"/>
<path d="M342.051 307.116H341.563V309.543H342.051V307.116Z" fill="white"/>
<path d="M343.4 306.561L343.209 306.862H342.96L343.056 306.561H343.4ZM342.769 307.022L342.673 306.909L342.577 307.022H342.367L342.539 306.721H342.807L342.979 307.022H342.769ZM343.123 307.548H342.711V308.094H343.113V308.527H342.711V309.11H343.132V309.543H342.223V307.125H343.123V307.558V307.548Z" fill="white"/>
<path d="M343.697 308.216V308.837L343.707 309.533H343.285V307.116H343.783L344.061 308.32V307.614L344.051 307.116H344.472V309.533H344.003L343.697 308.216Z" fill="white"/>
<path d="M345.774 308.122V308.489H345.64V309.119H345.736C345.832 309.119 345.87 309.082 345.87 308.988V307.661C345.87 307.567 345.832 307.53 345.736 307.53H345.64V308.122H345.774ZM345.028 308.489V308.122H345.152V307.116H345.832C346.186 307.116 346.348 307.285 346.348 307.633V309.016C346.348 309.364 346.176 309.533 345.832 309.533H345.152V308.489H345.028Z" fill="white"/>
<path d="M347.497 306.617V306.589C347.497 306.589 347.497 306.579 347.487 306.579H347.478C347.478 306.579 347.468 306.579 347.468 306.589V306.636H347.306V306.589C347.306 306.476 347.363 306.42 347.468 306.42H347.516C347.621 306.42 347.679 306.476 347.679 306.589V306.608C347.679 306.674 347.669 306.711 347.621 306.758L347.574 306.815C347.574 306.815 347.545 306.843 347.545 306.89H347.401V306.833C347.401 306.768 347.401 306.749 347.44 306.702L347.468 306.674C347.468 306.674 347.497 306.636 347.497 306.608M347.152 307.511H347.085C347.028 307.511 346.999 307.539 346.999 307.595V309.054C346.999 309.11 347.028 309.138 347.085 309.138H347.152C347.21 309.138 347.239 309.11 347.239 309.054V307.595C347.239 307.539 347.21 307.511 347.152 307.511ZM347.21 307.022L347.114 306.909L347.018 307.022H346.808L346.98 306.721H347.248L347.42 307.022H347.21ZM347.267 309.562H346.951C346.655 309.562 346.502 309.411 346.502 309.11V307.548C346.502 307.247 346.655 307.097 346.951 307.097H347.267C347.574 307.097 347.717 307.247 347.717 307.548V309.11C347.717 309.411 347.574 309.562 347.267 309.562Z" fill="white"/>
<path d="M348.378 307.116H347.889V309.543H348.378V307.116Z" fill="white"/>
<path d="M332.393 312.544V313.691H331.914V311.264H332.393V312.403L332.67 311.264H333.168L332.852 312.459L333.159 313.691H332.642L332.393 312.544Z" fill="white"/>
<path d="M333.972 311.264H334.46V313.691H333.972V312.675H333.733V313.691H333.245V311.264H333.733V312.243H333.972V311.264Z" fill="white"/>
<path d="M334.633 313.691H335.121V311.274H334.633V313.691ZM334.853 310.879L334.757 311.18H335.006L335.197 310.879H334.853Z" fill="white"/>
<path d="M336.49 311.264H336.978V313.691H336.49V312.675H336.25V313.691H335.762V311.264H336.25V312.243H336.49V311.264Z" fill="white"/>
<path d="M337.81 312.911L337.705 311.857L337.6 312.911H337.81ZM337.533 313.908H337.916V314.303H337.533V313.908ZM337.83 311.18L337.734 311.067L337.638 311.18H337.428L337.6 310.879H337.858L338.031 311.18H337.82H337.83ZM337.858 313.334H337.552L337.523 313.691H337.083L337.399 311.264H338.059L338.375 313.691H337.897L337.858 313.334Z" fill="white"/>
<path d="M339.208 313.71H338.911C338.614 313.71 338.461 313.56 338.461 313.259V311.264H338.949V313.202C338.949 313.259 338.978 313.287 339.036 313.287H339.084C339.141 313.287 339.17 313.259 339.17 313.202V311.264H339.658V313.259C339.658 313.56 339.514 313.71 339.208 313.71Z" fill="white"/>
<text fill="#0213B0" xml:space="preserve" style="white-space: pre" font-family="VNM Sans Std" font-size="16" letter-spacing="0em"><tspan x="16" y="455.536">Vinamilk </tspan><tspan x="74.3802" y="455.536">tin </tspan><tspan x="95.5573" y="455.536">r&#x1eb1;ng, </tspan><tspan x="131.641" y="455.536">n&#x1ec1;n </tspan><tspan x="159.88" y="455.536">t&#x1ea3;ng </tspan><tspan x="194.964" y="455.536">c&#x1ee7;a </tspan><tspan x="221.375" y="455.536">m&#x1ed9;t </tspan><tspan x="252.818" y="455.536">cu&#x1ed9;c </tspan><tspan x="288.464" y="455.536">s&#x1ed1;ng </tspan><tspan x="325.141" y="455.536">kh&#x1ecf;e </tspan><tspan x="16" y="473.536">m&#x1ea1;nh, </tspan><tspan x="60.2483" y="473.536">h&#x1ea1;nh </tspan><tspan x="97.0747" y="473.536">ph&#xfa;c </tspan><tspan x="134.354" y="473.536">b&#x1eaf;t </tspan><tspan x="161.493" y="473.536">ngu&#x1ed3;n </tspan><tspan x="208.632" y="473.536">t&#x1eeb; </tspan><tspan x="228.521" y="473.536">vi&#x1ec7;c </tspan><tspan x="259.3" y="473.536">nu&#xf4;i </tspan><tspan x="291.736" y="473.536">d&#x1b0;&#x1ee1;ng </tspan><tspan x="341.656" y="473.536">c&#x1a1; </tspan><tspan x="16" y="491.536">th&#x1ec3; </tspan><tspan x="44.8854" y="491.536">b&#x1eb1;ng </tspan><tspan x="84.7708" y="491.536">th&#x1ef1;c </tspan><tspan x="122.172" y="491.536">ph&#x1ea9;m </tspan><tspan x="165.948" y="491.536">v&#x1edb;i </tspan><tspan x="191.74" y="491.536">ch&#x1ebf; </tspan><tspan x="221.328" y="491.536">&#x111;&#x1ed9; </tspan><tspan x="245.229" y="491.536">dinh </tspan><tspan x="279.74" y="491.536">d&#x1b0;&#x1ee1;ng </tspan><tspan x="331.281" y="491.536">l&#xe0;nh </tspan><tspan x="16" y="509.536">m&#x1ea1;nh. </tspan><tspan x="62.4306" y="509.536">Nhu </tspan><tspan x="95.2361" y="509.536">c&#x1ea7;u </tspan><tspan x="124.635" y="509.536">dinh </tspan><tspan x="159.847" y="509.536">d&#x1b0;&#x1ee1;ng </tspan><tspan x="212.09" y="509.536">c&#x1ee7;a </tspan><tspan x="241.49" y="509.536">m&#x1ed7;i </tspan><tspan x="272.451" y="509.536">c&#xe1; </tspan><tspan x="293.601" y="509.536">nh&#xe2;n </tspan><tspan x="332.75" y="509.536">&#x111;&#x1ec1;u </tspan><tspan x="16" y="527.536">mang </tspan><tspan x="57.9641" y="527.536">d&#x1ea5;u </tspan><tspan x="86.975" y="527.536">&#x1ea5;n </tspan><tspan x="106.861" y="527.536">ri&#xea;ng </tspan><tspan x="144.934" y="527.536">&#x111;&#x1ed9;c </tspan><tspan x="175.07" y="527.536">&#x111;&#xe1;o. </tspan><tspan x="207.738" y="527.536">Do </tspan><tspan x="230.983" y="527.536">&#x111;&#xf3;, </tspan><tspan x="256.009" y="527.536">Vinamilk </tspan><tspan x="315.177" y="527.536">&#x111;&#x1eb7;t </tspan><tspan x="342.516" y="527.536">s&#x1ee9; </tspan><tspan x="16" y="545.536">m&#x1ec7;nh </tspan><tspan x="60.4306" y="545.536">c&#x1ee7;a </tspan><tspan x="90.0486" y="545.536">m&#xec;nh </tspan><tspan x="129.057" y="545.536">kh&#xf4;ng </tspan><tspan x="178.097" y="545.536">ch&#x1ec9; </tspan><tspan x="203.184" y="545.536">vi&#x1ec7;c </tspan><tspan x="236.505" y="545.536">cung </tspan><tspan x="276.014" y="545.536">c&#x1ea5;p </tspan><tspan x="306.788" y="545.536">c&#xe1;c </tspan><tspan x="335.75" y="545.536">s&#x1ea3;n </tspan><tspan x="16" y="563.536">ph&#x1ea9;m </tspan><tspan x="59.6146" y="563.536">ch&#x1ea5;t </tspan><tspan x="94.9323" y="563.536">l&#x1b0;&#x1ee3;ng </tspan><tspan x="139.828" y="563.536">cao, </tspan><tspan x="171.974" y="563.536">an </tspan><tspan x="193.198" y="563.536">to&#xe0;n </tspan><tspan x="230.141" y="563.536">cho </tspan><tspan x="260.458" y="563.536">m&#x1ecd;i </tspan><tspan x="290.557" y="563.536">ng&#x1b0;&#x1edd;i, </tspan><tspan x="338.281" y="563.536">m&#xe0; </tspan><tspan x="16" y="581.536">c&#xf2;n </tspan><tspan x="48.5434" y="581.536">l&#xe0; </tspan><tspan x="66.7587" y="581.536">dinh </tspan><tspan x="103.708" y="581.536">d&#x1b0;&#x1ee1;ng </tspan><tspan x="157.689" y="581.536">ph&#xf9; </tspan><tspan x="191.436" y="581.536">h&#x1ee3;p </tspan><tspan x="227.057" y="581.536">cho </tspan><tspan x="259.976" y="581.536">c&#xe1;c </tspan><tspan x="290.457" y="581.536">nh&#xf3;m </tspan><tspan x="337.297" y="581.536">&#x111;&#x1ed1;i </tspan><tspan x="16" y="599.536">t&#x1b0;&#x1ee3;ng </tspan><tspan x="63.3837" y="599.536">d&#x1ec5; </tspan><tspan x="84.6111" y="599.536">b&#x1ecb; </tspan><tspan x="100.417" y="599.536">t&#x1ed5;n </tspan><tspan x="128.144" y="599.536">th&#x1b0;&#x1a1;ng, </tspan><tspan x="186.887" y="599.536">ch&#x1ee7; </tspan><tspan x="214.74" y="599.536">&#x111;&#x1ed9;ng </tspan><tspan x="254.623" y="599.536">gi&#x1ea3;m </tspan><tspan x="290.835" y="599.536">thi&#x1ec3;u </tspan><tspan x="329.344" y="599.536">th&#x1ea5;t </tspan><tspan x="16" y="617.536">tho&#xe1;t </tspan><tspan x="60.8542" y="617.536">v&#xe0; </tspan><tspan x="82.1927" y="617.536">l&#xe3;ng </tspan><tspan x="116.438" y="617.536">ph&#xed; </tspan><tspan x="143.26" y="617.536">th&#x1ef1;c </tspan><tspan x="181.505" y="617.536">ph&#x1ea9;m </tspan><tspan x="226.125" y="617.536">&#x111;&#x1ed3;ng </tspan><tspan x="268.495" y="617.536">th&#x1edd;i </tspan><tspan x="302.927" y="617.536">cam </tspan><tspan x="337.203" y="617.536">k&#x1ebf;t </tspan><tspan x="16" y="635.536">minh </tspan><tspan x="54.8457" y="635.536">b&#x1ea1;ch </tspan><tspan x="93.9883" y="635.536">trong </tspan><tspan x="138.615" y="635.536">th&#xf4;ng </tspan><tspan x="186.773" y="635.536">tin </tspan><tspan x="210.994" y="635.536">truy&#x1ec1;n </tspan><tspan x="261.996" y="635.536">th&#xf4;ng </tspan><tspan x="310.154" y="635.536">v&#xe0; </tspan><tspan x="331.406" y="635.536">kinh </tspan><tspan x="16" y="653.536">doanh.</tspan></text>
<rect x="16" y="719" width="342" height="112" rx="8" fill="#38C0FF"/>
<text fill="#FFFFF1" xml:space="preserve" style="white-space: pre" font-family="VNM Sans Display" font-size="54" font-weight="bold" letter-spacing="0em"><tspan x="47.2188" y="788.195" data-counter data-from="0" data-to="250" data-ori="250+">250+</tspan></text>
<text fill="#FFFFF1" xml:space="preserve" style="white-space: pre" font-family="VNM Sans Display" font-size="20" letter-spacing="0em"><tspan x="55.332" y="808.189">S&#x1ea3;n ph&#x1ea9;m</tspan></text>
<text fill="#FFFFF1" xml:space="preserve" style="white-space: pre" font-family="VNM Sans Display" font-size="54" font-weight="bold" letter-spacing="0em"><tspan x="170.152" y="788.195" data-counter data-from="0" data-to="13" data-ori="13">13</tspan></text>
<text fill="#FFFFF1" xml:space="preserve" style="white-space: pre" font-family="VNM Sans Display" font-size="20" letter-spacing="0em"><tspan x="154.293" y="810.189">S&#x1ea3;n ph&#x1ea9;m m&#x1edb;i</tspan></text>
<text fill="#FFFFF1" xml:space="preserve" style="white-space: pre" font-family="VNM Sans Std" font-size="12" letter-spacing="0em"><tspan x="274.213" y="744.152">C&#x1ea3;i ti&#x1ebf;n</tspan></text>
<text fill="#FFFFF1" xml:space="preserve" style="white-space: pre" font-family="VNM Sans Display" font-size="54" font-weight="bold" letter-spacing="0em"><tspan x="273.779" y="788.195" data-counter data-from="0" data-to="24" data-ori="24">24</tspan></text>
<text fill="#FFFFF1" xml:space="preserve" style="white-space: pre" font-family="VNM Sans Display" font-size="20" letter-spacing="0em"><tspan x="270.332" y="810.189">S&#x1ea3;n ph&#x1ea9;m</tspan></text>
<rect x="16" y="847" width="164" height="144" rx="5.39645" fill="#38C0FF"/>
<text fill="#FFFFF1" xml:space="preserve" style="white-space: pre" font-family="VNM Sans Std" font-size="13" letter-spacing="0em"><tspan x="42.7881" y="884.998">100% nh&#xe0; m&#xe1;y &#x111;&#x1b0;&#x1ee3;c </tspan><tspan x="39.0112" y="899.998">ch&#x1ee9;ng nh&#x1ead;n H&#x1ec7; th&#x1ed1;ng </tspan><tspan x="41.8296" y="914.998">qu&#x1ea3;n l&#xfd; An to&#xe0;n th&#x1ef1;c </tspan><tspan x="38.3257" y="929.998">ph&#x1ea9;m theo ti&#xea;u chu&#x1ea9;n</tspan></text>
<text fill="#FFFFF1" xml:space="preserve" style="white-space: pre" font-family="VNM Sans Display" font-size="32" font-weight="bold" letter-spacing="0em"><tspan x="46.0625" y="965.4">FSSC 22000</tspan></text>
<rect x="196" y="847" width="162" height="144" rx="5.39645" fill="#38C0FF"/>
<text fill="#FFFFF1" xml:space="preserve" style="white-space: pre" font-family="VNM Sans Std" font-size="13" letter-spacing="0em"><tspan x="227.901" y="899.998">Ph&#xf2;ng th&#xed; nghi&#x1ec7;m &#x2028;</tspan><tspan x="249.775" y="914.998">&#x111;&#x1ea1;t chu&#x1ea9;n</tspan></text>
<text fill="#FFFFF1" xml:space="preserve" style="white-space: pre" font-family="VNM Sans Display" font-size="32" font-weight="bold" letter-spacing="0em"><tspan x="233.641" y="950.4">ISO 17025</tspan></text>
</svg>
