<svg width="1440" height="774" viewBox="0 0 1440 774" fill="none" xmlns="http://www.w3.org/2000/svg">
<g clip-path="url(#clip0_316_17362)">
<text fill="#006D5A" xml:space="preserve" style="white-space: pre" font-family="VNM Sans Display" font-size="80" font-weight="bold" letter-spacing="0em"><tspan x="189.633" y="122.6">ANIMAL WELFARE</tspan></text>
<rect x="85.5" y="161" width="606" height="557" rx="5" fill="#006D5A"/>
<rect x="85.5" y="161" width="606" height="557" rx="5" stroke="#4DD75A" stroke-width="6" stroke-linejoin="round"/>
<rect x="86" y="161" width="606" height="557" rx="5" stroke="#0B352E" stroke-width="6" stroke-linejoin="round" stroke-dasharray="12 12"/>
<text fill="#FFFFF1" xml:space="preserve" style="white-space: pre" font-family="VNM Sans Display" font-size="96" font-weight="bold" letter-spacing="0em"><tspan x="155.719" y="273.2" data-counter data-delay="600" data-from="0" data-to="3" data-ori="03">03</tspan></text>
<text fill="#FFFFF1" xml:space="preserve" style="white-space: pre" font-family="VNM Sans Display" font-size="24" font-weight="500" letter-spacing="0em"><tspan x="169.5" y="299.28">FARMS</tspan></text>
<text fill="#FFFFF1" xml:space="preserve" style="white-space: pre" font-family="VNM Sans Std" font-size="14" letter-spacing="0em"><tspan x="144.152" y="321.844">certified to the &#x2028;</tspan><tspan x="157.592" y="337.844"> Organic EU </tspan><tspan x="163.601" y="353.844">standard</tspan></text>
<text fill="#FFFFF1" xml:space="preserve" style="white-space: pre" font-family="VNM Sans Display" font-size="96" font-weight="bold" letter-spacing="0em"><tspan x="315.719" y="273.2" data-counter data-delay="600" data-from="0" data-to="3" data-ori="03">03</tspan></text>
<text fill="#FFFFF1" xml:space="preserve" style="white-space: pre" font-family="VNM Sans Display" font-size="24" font-weight="500" letter-spacing="0em"><tspan x="276" y="299.28">VINAMILK GREEN FARMS</tspan></text>
<text fill="#FFFFF1" xml:space="preserve" style="white-space: pre" font-family="VNM Sans Std" font-size="14" letter-spacing="0em"><tspan x="296.701" y="321.844">an ecological dairy </tspan><tspan x="316.272" y="337.844">farm model</tspan></text>
<text fill="#FFFFF1" xml:space="preserve" style="white-space: pre" font-family="VNM Sans Display" font-size="96" font-weight="bold" letter-spacing="0em"><tspan x="459" y="273.2" data-counter data-delay="600" data-from="0" data-to="100" data-ori="100%">100%</tspan></text>
<text fill="#FFFFF1" xml:space="preserve" style="white-space: pre" font-family="VNM Sans Display" font-size="24" font-weight="500" letter-spacing="0em"><tspan x="490" y="299.28">OF THE FARMS</tspan></text>
<text fill="#FFFFF1" xml:space="preserve" style="white-space: pre" font-family="VNM Sans Std" font-size="14" letter-spacing="0em"><tspan x="489.84" y="321.844">compliant with </tspan><tspan x="468.683" y="337.844">GlobalG.A.P. standards</tspan></text>
<text fill="#2DFFB3" xml:space="preserve" style="white-space: pre" font-family="VNM Sans Display" font-size="80" font-weight="bold" letter-spacing="0em"><tspan x="154.203" y="475" data-counter data-delay="600" data-from="0" data-to="166" data-ori="166">166</tspan></text>
<text fill="#2DFFB3" xml:space="preserve" style="white-space: pre" font-family="VNM Sans Display" font-size="16" font-weight="500" letter-spacing="0em"><tspan x="242" y="433.52">VETERINARIANS AND </tspan><tspan x="242" y="451.52">ANIMAL HEALTH </tspan><tspan x="242" y="469.52">EXPERTS</tspan></text>
<text fill="#FFFFF1" xml:space="preserve" style="white-space: pre" font-family="VNM Sans Std" font-size="14" letter-spacing="0em"><tspan x="154" y="491.844">11% of farm personnel: &#x2028;</tspan><tspan x="154" y="507.844"> Specialize in cow health and </tspan><tspan x="154" y="523.844">well-being</tspan></text>
<text fill="#2DFFB3" xml:space="preserve" style="white-space: pre" font-family="VNM Sans Display" font-size="80" font-weight="bold" letter-spacing="0em"><tspan x="154" y="660" data-counter data-delay="600" data-from="0" data-to="100" data-ori="100%">100%</tspan></text>
<text fill="#2DFFB3" xml:space="preserve" style="white-space: pre" font-family="VNM Sans Display" font-size="24" font-weight="500" letter-spacing="0em"><tspan x="283" y="626.28">OF FARM </tspan><tspan x="283" y="654.28">WORKERS</tspan></text>
<text fill="#FFFFF1" xml:space="preserve" style="white-space: pre" font-family="VNM Sans Std" font-size="14" letter-spacing="0em"><tspan x="154" y="676.844">are properly trained</tspan></text>
<text fill="#2DFFB3" xml:space="preserve" style="white-space: pre" font-family="VNM Sans Display" font-size="80" font-weight="bold" letter-spacing="0em"><tspan x="426.094" y="475" data-counter data-delay="600" data-from="0" data-to="61" data-ori="6.1">6.1</tspan></text>
<text fill="#2DFFB3" xml:space="preserve" style="white-space: pre" font-family="VNM Sans Display" font-size="24" font-weight="500" letter-spacing="0em"><tspan x="493" y="474.56">BILLION</tspan></text>
<text fill="#FFFFF1" xml:space="preserve" style="white-space: pre" font-family="VNM Sans Std" font-size="14" letter-spacing="0em"><tspan x="426" y="491.844">invested in projects and </tspan><tspan x="426" y="507.844">innovation to develop pastures </tspan><tspan x="426" y="523.844">for cows to roam freely and </tspan><tspan x="426" y="539.844">comfortably, accompanied by </tspan><tspan x="426" y="555.844">resting mattresses for enhanced </tspan><tspan x="426" y="571.844">comfort</tspan></text>
<text fill="#2DFFB3" xml:space="preserve" style="white-space: pre" font-family="VNM Sans Display" font-size="24" font-weight="500" letter-spacing="0em"><tspan x="426" y="411.56">VND</tspan></text>
<text fill="#2DFFB3" xml:space="preserve" style="white-space: pre" font-family="VNM Sans Display" font-size="80" font-weight="bold" letter-spacing="0em"><tspan x="426.133" y="660" data-counter data-delay="600" data-from="0" data-to="10" data-ori="10">10</tspan></text>
<text fill="#2DFFB3" xml:space="preserve" style="white-space: pre" font-family="VNM Sans Display" font-size="20" font-weight="500" letter-spacing="0em"><tspan x="483" y="622.4">ANNUAL TRAINING </tspan><tspan x="483" y="645.4">SESSIONS</tspan></text>
<text fill="#FFFFF1" xml:space="preserve" style="white-space: pre" font-family="VNM Sans Std" font-size="14" letter-spacing="0em"><tspan x="426" y="676.844">to raise awareness on animal </tspan><tspan x="426" y="692.844">welfare</tspan></text>
<line x1="120" y1="382.5" x2="653" y2="382.5" stroke="white" stroke-width="3"/>
<path d="M1240 46H1200V86H1240V46Z" fill="#D19F2A"/>
<path d="M1215.94 80.0538V80.6145C1215.94 80.6145 1215.94 80.6145 1215.94 80.6262C1215.94 80.6379 1215.94 80.6262 1215.94 80.6379C1215.94 80.7781 1216.05 80.8949 1216.19 80.8949H1222.84C1222.98 80.8949 1223.1 80.7781 1223.1 80.6262V79.9837C1226.82 78.757 1229.63 75.7313 1230.23 72.0514C1230.23 72.0514 1230.23 72.0398 1230.23 72.0281C1230.23 72.0164 1230.23 72.0047 1230.23 71.993C1230.23 71.8412 1230.12 71.7243 1229.97 71.7243H1208.87C1208.72 71.7243 1208.6 71.8412 1208.6 71.993V72.1098C1209.26 75.8248 1212.13 78.8739 1215.94 80.0421" fill="white"/>
<path d="M1223.11 62.7173C1223.03 62.8458 1220.98 65.7781 1223.15 68.1496C1224.15 69.236 1224.07 70.2057 1223.78 70.8482H1225.18C1225.46 69.8902 1225.34 68.687 1224.21 67.4486C1222.6 65.6963 1224.23 63.3365 1224.25 63.2898C1224.44 63.0211 1224.35 62.6706 1224.03 62.5071C1223.71 62.3435 1223.31 62.4253 1223.11 62.7057" fill="white"/>
<path d="M1219.57 70.8481H1220.96C1221.24 69.8902 1221.12 68.6869 1219.99 67.4486C1218.39 65.6963 1220.01 63.3364 1220.04 63.2897C1220.22 63.021 1220.13 62.6706 1219.81 62.507C1219.5 62.3435 1219.09 62.4369 1218.9 62.7056C1218.82 62.8341 1216.78 65.7663 1218.95 68.1495C1219.94 69.236 1219.86 70.2056 1219.58 70.8481" fill="white"/>
<path d="M1214.7 62.7173C1214.6 62.8458 1212.57 65.7781 1214.74 68.1496C1215.74 69.236 1215.65 70.2057 1215.37 70.8482H1216.76C1217.05 69.8902 1216.93 68.687 1215.8 67.4486C1214.19 65.6963 1215.82 63.3365 1215.84 63.2898C1216.03 63.0211 1215.94 62.6706 1215.62 62.5071C1215.3 62.3435 1214.9 62.4253 1214.71 62.7057" fill="white"/>
<path d="M1207.63 56.2687H1205.4V55.8832C1205.4 55.2523 1205.62 55.007 1205.97 54.6448L1206.84 53.722C1207.55 52.9743 1207.71 52.4953 1207.71 51.6776V50.8948C1207.71 49.7383 1207.15 49.1892 1205.93 49.1892C1204.72 49.1892 1204.13 49.8201 1204.13 50.9533V51.9346H1205.37V50.9182C1205.37 50.4276 1205.61 50.2874 1205.9 50.2874C1206.16 50.2874 1206.39 50.3925 1206.39 50.8948V51.5607C1206.39 52.2266 1206.33 52.4953 1205.89 52.9626L1205.13 53.7687C1204.39 54.5631 1204.11 55.0888 1204.11 55.8832V57.3785H1207.65V56.2687H1207.63Z" fill="white"/>
<path d="M1212.14 52.2967H1213V52.7524H1211.54V52.2967L1212.44 49.8318H1211.64V49.3645H1213.04V49.8318L1212.14 52.2967Z" fill="white"/>
<path d="M1213.34 49.3645H1214.7V49.8318H1213.9V50.8014H1214.47V51.257H1213.9V52.2967H1214.7V52.7524H1213.34V49.3645Z" fill="white"/>
<path d="M1215.57 51.1986V52.7524H1215V49.3645H1215.83C1216.4 49.3645 1216.61 49.6449 1216.61 50.1238V50.5561C1216.61 50.9182 1216.48 51.1402 1216.16 51.2103L1216.71 52.7524H1216.11L1215.57 51.1986ZM1215.57 49.8318V50.8832H1215.76C1215.96 50.8832 1216.04 50.7897 1216.04 50.6028V50.1005C1216.04 49.9136 1215.96 49.8201 1215.76 49.8201H1215.57V49.8318Z" fill="white"/>
<path d="M1216.92 51.8761V50.2406C1216.92 49.7149 1217.17 49.3294 1217.78 49.3294C1218.39 49.3294 1218.64 49.7149 1218.64 50.2406V51.8761C1218.64 52.4018 1218.39 52.7874 1217.78 52.7874C1217.17 52.7874 1216.92 52.4018 1216.92 51.8761ZM1218.07 51.9696V50.1472C1218.07 49.9369 1217.98 49.7967 1217.78 49.7967C1217.58 49.7967 1217.49 49.9369 1217.49 50.1472V51.9696C1217.49 52.1799 1217.58 52.3201 1217.78 52.3201C1217.98 52.3201 1218.07 52.1799 1218.07 51.9696Z" fill="white"/>
<path d="M1212.7 56.0117H1212.15V57.4953H1211.58V54.1192H1212.15V55.5444H1212.7V54.1192H1213.27V57.4953H1212.7V56.0117Z" fill="white"/>
<path d="M1215.26 54.1075V56.6659C1215.26 57.1916 1215.03 57.5304 1214.45 57.5304C1213.87 57.5304 1213.6 57.1916 1213.6 56.6659V54.1075H1214.17V56.7243C1214.17 56.9229 1214.25 57.0631 1214.45 57.0631C1214.65 57.0631 1214.73 56.9346 1214.73 56.7243V54.1075H1215.26Z" fill="white"/>
<path d="M1216.06 55.3692V57.4953H1215.57V54.1075H1216.13L1216.75 56.0584V54.1075H1217.23V57.4953H1216.73L1216.06 55.3692Z" fill="white"/>
<path d="M1218.41 55.6963H1219.22V57.507H1218.81V57.1332C1218.74 57.3902 1218.57 57.5421 1218.26 57.5421C1217.77 57.5421 1217.55 57.1565 1217.55 56.6308V54.9953C1217.55 54.4696 1217.8 54.0841 1218.4 54.0841C1218.99 54.0841 1219.22 54.4346 1219.22 54.9369V55.2406H1218.7V54.9019C1218.7 54.6916 1218.62 54.5748 1218.42 54.5748C1218.22 54.5748 1218.13 54.7149 1218.13 54.9252V56.7477C1218.13 56.9579 1218.21 57.0981 1218.41 57.0981C1218.6 57.0981 1218.69 56.993 1218.69 56.771V56.1752H1218.42V55.7313L1218.41 55.6963Z" fill="white"/>
<path d="M1219.54 54.1075H1220.9V54.5748H1220.12V55.5444H1220.68V56H1220.12V57.0397H1220.9V57.4953H1219.54V54.1075Z" fill="white"/>
<path d="M1221.78 55.9416V57.4953H1221.2V54.1075H1222.03C1222.61 54.1075 1222.82 54.3879 1222.82 54.8668V55.2991C1222.82 55.6612 1222.69 55.8832 1222.36 55.9533L1222.91 57.4953H1222.31L1221.78 55.9416ZM1221.78 54.5748V55.6262H1221.96C1222.16 55.6262 1222.24 55.521 1222.24 55.3458V54.8435C1222.24 54.6565 1222.16 54.5631 1221.96 54.5631H1221.78V54.5748Z" fill="white"/>
<path d="M1290 46H1250V86H1290V46Z" fill="#2D9A47"/>
<path d="M1283.49 71.0233C1283.49 69.8902 1282.77 68.9789 1281.67 68.9789C1281.12 68.9789 1280.46 69.5864 1280.11 69.9486C1279.74 69.5747 1279.12 68.9789 1278.58 68.9789C1277.48 68.9789 1276.71 69.8902 1276.71 71.0233C1276.71 71.5841 1276.93 72.0981 1277.29 72.4719L1280.11 75.299L1282.92 72.4836C1283.28 72.1098 1283.51 71.5958 1283.51 71.035" fill="white"/>
<path d="M1271.51 79.9019H1271.48C1271.27 79.8902 1271.1 79.7266 1271.06 79.5164L1269.63 71.1869L1267.45 75.2056C1267.36 75.3809 1267.16 75.4743 1266.96 75.4393C1266.76 75.4042 1266.61 75.2523 1266.59 75.0537L1265.67 68.6285L1263.98 72.4136C1263.91 72.5771 1263.75 72.6939 1263.56 72.6939H1257.02C1256.76 72.6939 1256.57 72.4837 1256.57 72.2266C1256.57 71.9696 1256.78 71.7594 1257.02 71.7594H1263.26L1265.48 66.7827C1265.56 66.5958 1265.76 66.479 1265.97 66.514C1266.18 66.5374 1266.33 66.7009 1266.37 66.9112L1267.31 73.5467L1269.45 69.5865C1269.54 69.4112 1269.74 69.3178 1269.93 69.3528C1270.12 69.3879 1270.28 69.5397 1270.32 69.7266L1271.64 77.4486L1276.46 61.4089C1276.52 61.222 1276.68 61.0935 1276.87 61.0818C1277.06 61.0701 1277.24 61.1752 1277.32 61.3388L1279.86 66.6075C1279.96 66.8411 1279.87 67.1098 1279.65 67.2266C1279.42 67.3435 1279.15 67.2383 1279.03 67.0164L1277.01 62.8224L1271.95 79.5981C1271.89 79.7967 1271.72 79.9252 1271.51 79.9252" fill="white"/>
<path d="M1256 57.4836C1257.38 57.4836 1257.98 56.7593 1257.98 55.6378V54.4463C1257.98 53.7103 1257.65 53.2313 1256.97 53.0678C1257.54 52.8925 1257.91 52.4369 1257.91 51.7593V51.0584C1257.91 49.9136 1257.36 49.2126 1256.11 49.2126C1254.7 49.2126 1254.21 50.0421 1254.21 51.2453V51.9579H1255.44V51.1285C1255.44 50.6262 1255.6 50.3458 1256.03 50.3458C1256.46 50.3458 1256.61 50.6378 1256.61 51.0701V51.9463C1256.61 52.3785 1256.33 52.6005 1255.89 52.6005H1255.37V53.6402H1255.95C1256.43 53.6402 1256.61 53.8622 1256.61 54.2944V55.6262C1256.61 56.0584 1256.43 56.3505 1256 56.3505C1255.54 56.3505 1255.37 56.035 1255.37 55.5561V54.3995H1254.14V55.4626C1254.14 56.6893 1254.63 57.4836 1256.02 57.4836" fill="white"/>
<path d="M1262.69 50.9532H1263.49V52.764H1263.08V52.3902C1263.01 52.6472 1262.85 52.799 1262.53 52.799C1262.04 52.799 1261.82 52.4135 1261.82 51.8878V50.2523C1261.82 49.7266 1262.08 49.3411 1262.68 49.3411C1263.27 49.3411 1263.49 49.6916 1263.49 50.1939V50.4976H1262.98V50.1589C1262.98 49.9486 1262.9 49.8317 1262.7 49.8317C1262.5 49.8317 1262.41 49.9719 1262.41 50.1822V52.0046C1262.41 52.2032 1262.49 52.3551 1262.69 52.3551C1262.87 52.3551 1262.97 52.25 1262.97 52.028V51.4322H1262.7V50.9883L1262.69 50.9532Z" fill="white"/>
<path d="M1263.82 51.8878V50.2523C1263.82 49.7266 1264.08 49.3411 1264.68 49.3411C1265.29 49.3411 1265.55 49.7266 1265.55 50.2523V51.8878C1265.55 52.4135 1265.29 52.799 1264.68 52.799C1264.08 52.799 1263.82 52.4135 1263.82 51.8878ZM1264.98 51.9696V50.1472C1264.98 49.9369 1264.88 49.7967 1264.68 49.7967C1264.49 49.7967 1264.39 49.9369 1264.39 50.1472V51.9696C1264.39 52.1799 1264.49 52.3201 1264.68 52.3201C1264.88 52.3201 1264.98 52.1799 1264.98 51.9696Z" fill="white"/>
<path d="M1265.86 51.8878V50.2523C1265.86 49.7266 1266.12 49.3411 1266.73 49.3411C1267.34 49.3411 1267.59 49.7266 1267.59 50.2523V51.8878C1267.59 52.4135 1267.34 52.799 1266.73 52.799C1266.12 52.799 1265.86 52.4135 1265.86 51.8878ZM1267.02 51.9696V50.1472C1267.02 49.9369 1266.93 49.7967 1266.73 49.7967C1266.53 49.7967 1266.44 49.9369 1266.44 50.1472V51.9696C1266.44 52.1799 1266.53 52.3201 1266.73 52.3201C1266.93 52.3201 1267.02 52.1799 1267.02 51.9696Z" fill="white"/>
<path d="M1269.63 50.2757V51.8411C1269.63 52.3552 1269.42 52.7523 1268.81 52.7523H1267.93V49.3645H1268.81C1269.42 49.3645 1269.63 49.75 1269.63 50.2757ZM1268.73 52.2967C1268.96 52.2967 1269.05 52.1566 1269.05 51.958V50.1823C1269.05 49.9837 1268.96 49.8435 1268.73 49.8435H1268.49V52.2967H1268.73Z" fill="white"/>
<path d="M1271.92 51.2687H1271.37V52.7524H1270.81V49.3762H1271.37V50.8014H1271.92V49.3762H1272.5V52.7524H1271.92V51.2687Z" fill="white"/>
<path d="M1272.82 49.3645H1274.18V49.8318H1273.39V50.8014H1273.95V51.257H1273.39V52.2967H1274.18V52.7523H1272.82V49.3645Z" fill="white"/>
<path d="M1274.39 52.7523L1275.04 49.3645H1275.68L1276.32 52.7523H1275.74L1275.63 52.1332H1275.02L1274.92 52.7523H1274.38H1274.39ZM1275.11 51.6776H1275.56L1275.34 50.3224L1275.12 51.6776H1275.11Z" fill="white"/>
<path d="M1276.57 49.3645H1277.13V52.2967H1277.8V52.7523H1276.57V49.3645Z" fill="white"/>
<path d="M1277.68 49.3645H1279.19V49.8318H1278.73V52.7523H1278.14V49.8318H1277.68V49.3645Z" fill="white"/>
<path d="M1280.57 51.2687H1280.02V52.7524H1279.45V49.3762H1280.02V50.8014H1280.57V49.3762H1281.15V52.7524H1280.57V51.2687Z" fill="white"/>
<path d="M1261.74 57.4953L1262.38 54.1075H1263.04L1263.68 57.4953H1263.1L1262.99 56.8762H1262.38L1262.28 57.4953H1261.74ZM1262.45 56.4323H1262.91L1262.69 55.0771L1262.46 56.4323H1262.45Z" fill="white"/>
<path d="M1264.39 55.3692V57.4953H1263.9V54.1192H1264.46L1265.08 56.0584V54.1192H1265.56V57.4953H1265.06L1264.39 55.3692Z" fill="white"/>
<path d="M1267.58 55.0187V56.5841C1267.58 57.0981 1267.37 57.4953 1266.76 57.4953H1265.89V54.1075H1266.76C1267.37 54.1075 1267.58 54.493 1267.58 55.0187ZM1266.69 57.0397C1266.93 57.0397 1267.02 56.8995 1267.02 56.7009V54.9252C1267.02 54.7266 1266.93 54.5865 1266.69 54.5865H1266.46V57.0397H1266.69Z" fill="white"/>
<path d="M1269.99 55.4042L1269.67 57.4953H1269.14L1268.68 54.1192H1269.23L1269.5 56.257H1269.51L1269.79 54.1192H1270.26L1270.57 56.257L1270.83 54.1192H1271.31L1270.88 57.4953H1270.34L1270 55.4042H1269.99Z" fill="white"/>
<path d="M1271.55 54.1192H1272.91V54.5748H1272.13V55.5444H1272.69V56.0117H1272.13V57.0397H1272.91V57.4953H1271.55V54.1192Z" fill="white"/>
<path d="M1273.22 54.1192H1273.79V57.0397H1274.46V57.4953H1273.22V54.1192Z" fill="white"/>
<path d="M1274.73 54.1192H1275.29V57.0397H1275.98V57.4953H1274.73V54.1192Z" fill="white"/>
<path d="M1276.69 55.6963H1275.9V56.1519H1276.69V55.6963Z" fill="white"/>
<path d="M1276.99 54.1192H1277.81C1278.39 54.1192 1278.57 54.3879 1278.57 54.8668V55.2056C1278.57 55.486 1278.47 55.6729 1278.24 55.743C1278.52 55.8014 1278.66 56 1278.66 56.3037V56.7594C1278.66 57.2383 1278.45 57.507 1277.87 57.507H1276.99V54.1192ZM1277.56 55.5444H1277.76C1277.94 55.5444 1278.03 55.4509 1278.03 55.264V54.8552C1278.03 54.6682 1277.94 54.5748 1277.74 54.5748H1277.55V55.5327L1277.56 55.5444ZM1277.56 55.9766V57.0397H1277.8C1277.99 57.0397 1278.08 56.9463 1278.08 56.7594V56.2453C1278.08 56.0701 1278 55.965 1277.8 55.965H1277.56V55.9766Z" fill="white"/>
<path d="M1278.94 54.1192H1280.3V54.5748H1279.51V55.5444H1280.07V56.0117H1279.51V57.0397H1280.3V57.4953H1278.94V54.1192Z" fill="white"/>
<path d="M1281.18 54.1075H1280.61V57.4953H1281.18V54.1075Z" fill="white"/>
<path d="M1281.99 55.3692V57.4953H1281.51V54.1192H1282.07L1282.68 56.0584V54.1192H1283.15V57.4953H1282.65L1281.99 55.3692Z" fill="white"/>
<path d="M1284.33 55.6963H1285.14V57.507H1284.73V57.1332C1284.66 57.3902 1284.5 57.542 1284.18 57.542C1283.69 57.542 1283.47 57.1565 1283.47 56.6308V54.9953C1283.47 54.4696 1283.73 54.0841 1284.32 54.0841C1284.92 54.0841 1285.14 54.4346 1285.14 54.9369V55.2406H1284.61V54.9019C1284.61 54.6916 1284.53 54.5748 1284.33 54.5748C1284.14 54.5748 1284.04 54.7149 1284.04 54.9252V56.7477C1284.04 56.9463 1284.12 57.0981 1284.32 57.0981C1284.51 57.0981 1284.6 56.993 1284.6 56.771V56.1752H1284.33V55.7313V55.6963Z" fill="white"/>
<path d="M1340 46H1300V86H1340V46Z" fill="#CD8B2A"/>
<path d="M1330.2 66.7593C1328.42 65.3575 1326.08 65.3224 1325.21 65.5327L1325.11 65.556C1324.11 65.7897 1322.54 66.1752 1320.68 68.4766C1320.68 68.4883 1320.65 68.5 1320.64 68.5117L1320.62 68.535C1320.62 68.535 1320.58 68.5934 1320.58 68.6285C1320.58 68.6518 1320.58 68.6869 1320.61 68.7103L1320.65 68.7803C1320.89 69.1659 1321.18 69.6682 1321.43 70.1238C1321.43 70.1238 1321.43 70.1238 1321.43 70.1355C1321.45 70.1822 1321.51 70.2173 1321.57 70.2173C1321.61 70.2173 1321.65 70.2056 1321.67 70.1705C1321.68 70.1589 1321.69 70.1355 1321.71 70.1238C1323.35 67.8574 1324.64 67.542 1325.51 67.3317L1325.62 67.3084C1326.08 67.2032 1327.79 67.2032 1329.04 68.1845C1330.01 68.9556 1330.5 70.1705 1330.5 71.8061C1330.5 74.5514 1329.17 75.6261 1328.05 76.0467C1326.31 76.7009 1324.65 75.8247 1324.64 75.8247L1324.57 75.7897C1323.61 75.3808 1322.2 74.5163 1320.85 71.8177C1318.14 66.3855 1315.89 65.8715 1314.39 65.5327L1314.31 65.5093C1313.63 65.3575 1311.26 65.2406 1309.4 66.736C1308.43 67.507 1307.28 69.014 1307.28 71.7944C1307.28 73.4883 1307.63 74.6098 1308.52 75.778C1308.72 76.0467 1310.71 78.6168 1314.59 77.8808C1315.21 77.764 1316.05 77.4603 1316.97 76.771L1317.83 77.542C1317.83 77.542 1317.97 77.5888 1318.03 77.542C1318.05 77.5187 1318.06 77.4836 1318.06 77.4486L1318.68 73.6518V73.6168C1318.68 73.6168 1318.67 73.5467 1318.63 73.5117C1318.61 73.4883 1318.58 73.4766 1318.54 73.4766H1318.52H1318.48L1314.86 74.493H1314.79C1314.79 74.493 1314.74 74.5163 1314.72 74.5397C1314.66 74.5981 1314.67 74.6799 1314.72 74.7383L1314.77 74.7733L1315.57 75.5093C1315.05 75.8481 1314.59 76 1314.24 76.0701C1311.44 76.6074 1310.06 74.7733 1310 74.6916L1309.98 74.6682C1309.32 73.8154 1309.1 73.0911 1309.1 71.7827C1309.1 70.1355 1309.58 68.9205 1310.54 68.1612C1311.75 67.1916 1313.42 67.1916 1313.89 67.2967L1313.97 67.3201C1315.2 67.6004 1316.88 67.9743 1319.19 72.6355C1320.4 75.0537 1321.9 76.6308 1323.8 77.4603C1324.04 77.5888 1325.19 78.1261 1326.68 78.1261C1327.3 78.1261 1327.99 78.0327 1328.69 77.7757C1329.79 77.3668 1332.35 75.9649 1332.35 71.8061C1332.35 69.0257 1331.17 67.5187 1330.19 66.736" fill="white"/>
<path d="M1330.14 66.806C1328.38 65.4158 1326.04 65.3925 1325.17 65.5911L1325.08 65.6144C1324.09 65.8481 1322.52 66.2336 1320.68 68.5C1320.68 68.5116 1320.65 68.5233 1320.64 68.535L1320.62 68.5584C1320.62 68.5584 1320.58 68.6168 1320.58 68.6518C1320.58 68.6752 1320.58 68.7102 1320.61 68.7336L1320.65 68.8037C1320.89 69.1892 1321.18 69.6799 1321.42 70.1355C1321.42 70.1355 1321.42 70.1355 1321.42 70.1472C1321.45 70.1939 1321.51 70.2289 1321.56 70.2289C1321.61 70.2289 1321.65 70.2173 1321.67 70.1822C1321.67 70.1705 1321.69 70.1472 1321.71 70.1355C1323.34 67.8925 1324.63 67.5771 1325.49 67.3785L1325.6 67.3551C1326.05 67.25 1327.76 67.25 1328.99 68.2313C1329.96 68.9906 1330.46 70.1939 1330.46 71.8177C1330.46 74.5397 1329.12 75.6028 1328.01 76.0116C1326.28 76.6542 1324.63 75.8014 1324.61 75.7897L1324.54 75.7546C1323.6 75.3458 1322.17 74.4929 1320.84 71.8177C1318.15 66.4322 1315.9 65.9299 1314.4 65.5911L1314.32 65.5677C1313.64 65.4158 1311.28 65.3107 1309.44 66.7827C1308.47 67.5537 1307.31 69.0373 1307.31 71.7944C1307.31 73.4766 1307.66 74.5747 1308.55 75.7429C1308.75 76.0116 1310.74 78.5584 1314.59 77.8224C1315.21 77.7056 1316.04 77.4135 1316.96 76.7243L1317.81 77.4836C1317.81 77.4836 1317.96 77.5303 1318.01 77.4836C1318.04 77.4602 1318.05 77.4252 1318.05 77.3901L1318.66 73.6285V73.5817C1318.66 73.5817 1318.64 73.5116 1318.61 73.4883C1318.59 73.4649 1318.55 73.4532 1318.52 73.4532H1318.49H1318.46L1314.85 74.4579H1314.78C1314.78 74.4579 1314.73 74.4813 1314.71 74.5046C1314.65 74.563 1314.66 74.6448 1314.71 74.7032L1314.75 74.7383L1315.56 75.4626C1315.03 75.8014 1314.58 75.9532 1314.24 76.0233C1311.45 76.549 1310.07 74.7383 1310.02 74.6682L1310 74.6448C1309.35 73.8037 1309.13 73.0794 1309.13 71.7944C1309.13 70.1705 1309.61 68.9556 1310.57 68.2079C1311.78 67.25 1313.45 67.25 1313.91 67.3551L1313.99 67.3785C1315.22 67.6472 1316.89 68.0327 1319.19 72.6355C1320.38 75.0303 1321.89 76.5958 1323.77 77.4135C1324.02 77.5303 1325.16 78.0794 1326.65 78.0794C1327.27 78.0794 1327.94 77.9859 1328.64 77.7289C1329.74 77.3201 1332.28 75.9299 1332.28 71.8177C1332.28 69.0724 1331.11 67.5654 1330.13 66.7944" stroke="white" stroke-width="0.19" stroke-miterlimit="10"/>
<path d="M1303.93 51.1869H1303.94V57.3902H1305.29V49.2944H1304.21L1302.96 50.7547V52.1799H1302.97L1303.93 51.1869Z" fill="white"/>
<path d="M1306.11 50.9649V51.9462H1307.35V50.9299C1307.35 50.4392 1307.59 50.299 1307.87 50.299C1308.13 50.299 1308.36 50.4042 1308.36 50.9065V51.5724C1308.36 52.2383 1308.31 52.507 1307.86 52.9743L1307.09 53.792C1306.36 54.5864 1306.08 55.1005 1306.08 55.9065V57.4019H1309.61V56.292H1307.38V55.9065C1307.38 55.2757 1307.62 55.0304 1307.96 54.6565L1308.83 53.7336C1309.53 52.986 1309.7 52.507 1309.7 51.6892V50.8948C1309.7 49.7383 1309.14 49.1892 1307.92 49.1892C1306.71 49.1892 1306.11 49.8201 1306.11 50.9533" fill="white"/>
<path d="M1313.39 51.1168V52.6706H1312.82V49.2827H1313.64C1314.22 49.2827 1314.43 49.5631 1314.43 50.0421V50.4743C1314.43 50.8365 1314.3 51.0584 1313.97 51.1285L1314.52 52.6706H1313.93L1313.39 51.1168ZM1313.39 49.75V50.8014H1313.57C1313.77 50.8014 1313.86 50.6963 1313.86 50.521V50.0187C1313.86 49.8318 1313.77 49.7383 1313.57 49.7383H1313.39V49.75Z" fill="white"/>
<path d="M1314.67 49.2827H1316.03V49.75H1315.23V50.7196H1315.81V51.1752H1315.23V52.2033H1316.03V52.6706H1314.67V49.2827Z" fill="white"/>
<path d="M1316.2 51.9462V51.4906H1316.73V51.9579C1316.73 52.1448 1316.81 52.2616 1317.01 52.2616C1317.18 52.2616 1317.27 52.1448 1317.27 51.9579V51.8294C1317.27 51.6308 1317.18 51.514 1317.01 51.3504L1316.67 51.0116C1316.34 50.6962 1316.19 50.4976 1316.19 50.1121V49.9953C1316.19 49.5747 1316.44 49.2476 1316.99 49.2476C1317.53 49.2476 1317.78 49.528 1317.78 50.0187V50.299H1317.27V50.007C1317.27 49.8084 1317.17 49.7149 1317 49.7149C1316.83 49.7149 1316.73 49.8084 1316.73 49.9953V50.0654C1316.73 50.2523 1316.83 50.3691 1317 50.521L1317.36 50.8831C1317.66 51.1986 1317.82 51.3855 1317.82 51.7593V51.9229C1317.82 52.3901 1317.57 52.7172 1316.99 52.7172C1316.4 52.7172 1316.18 52.3901 1316.18 51.9462" fill="white"/>
<path d="M1318.07 49.2827H1318.91C1319.49 49.2827 1319.7 49.5631 1319.7 50.0421V50.7547C1319.7 51.2336 1319.49 51.514 1318.91 51.514H1318.63V52.6589H1318.06V49.271L1318.07 49.2827ZM1318.63 49.75V51.0818H1318.84C1319.04 51.0818 1319.12 50.9883 1319.12 50.8014V50.0187C1319.12 49.8318 1319.04 49.7383 1318.84 49.7383H1318.63V49.75Z" fill="white"/>
<path d="M1319.92 51.7943V50.1588C1319.92 49.6331 1320.17 49.2476 1320.78 49.2476C1321.39 49.2476 1321.65 49.6331 1321.65 50.1588V51.7943C1321.65 52.3201 1321.39 52.7056 1320.78 52.7056C1320.17 52.7056 1319.92 52.3201 1319.92 51.7943ZM1321.07 51.8878V50.0654C1321.07 49.8551 1320.98 49.7149 1320.78 49.7149C1320.58 49.7149 1320.49 49.8551 1320.49 50.0654V51.8878C1320.49 52.0864 1320.58 52.2383 1320.78 52.2383C1320.98 52.2383 1321.07 52.0981 1321.07 51.8878Z" fill="white"/>
<path d="M1322.38 50.5444V52.6706H1321.9V49.2827H1322.45L1323.07 51.222V49.2827H1323.55V52.6706H1323.05L1322.38 50.5444Z" fill="white"/>
<path d="M1323.77 51.9462V51.4906H1324.3V51.9579C1324.3 52.1448 1324.38 52.2616 1324.58 52.2616C1324.75 52.2616 1324.84 52.1448 1324.84 51.9579V51.8294C1324.84 51.6308 1324.75 51.514 1324.58 51.3504L1324.24 51.0116C1323.91 50.6962 1323.76 50.4976 1323.76 50.1121V49.9953C1323.76 49.5747 1324.01 49.2476 1324.56 49.2476C1325.11 49.2476 1325.35 49.528 1325.35 50.0187V50.299H1324.84V50.007C1324.84 49.8084 1324.74 49.7149 1324.57 49.7149C1324.4 49.7149 1324.3 49.8084 1324.3 49.9953V50.0654C1324.3 50.2523 1324.4 50.3691 1324.57 50.521L1324.93 50.8831C1325.25 51.1986 1325.39 51.3855 1325.39 51.7593V51.9229C1325.39 52.3901 1325.14 52.7172 1324.56 52.7172C1323.97 52.7172 1323.75 52.3901 1323.75 51.9462" fill="white"/>
<path d="M1326.2 49.2827H1325.63V52.6706H1326.2V49.2827Z" fill="white"/>
<path d="M1326.46 49.2827H1327.29C1327.86 49.2827 1328.05 49.5514 1328.05 50.0304V50.3808C1328.05 50.6612 1327.94 50.8481 1327.71 50.9182C1327.99 50.9883 1328.13 51.1752 1328.13 51.479V51.9346C1328.13 52.4136 1327.92 52.6823 1327.35 52.6823H1326.46V49.2944V49.2827ZM1327.03 50.7079H1327.23C1327.42 50.7079 1327.5 50.6145 1327.5 50.4276V50.0187C1327.5 49.8318 1327.42 49.7383 1327.22 49.7383H1327.02V50.7079H1327.03ZM1327.03 51.1519V52.215H1327.28C1327.47 52.215 1327.56 52.1215 1327.56 51.9346V51.4206C1327.56 51.2453 1327.48 51.1402 1327.28 51.1402H1327.03V51.1519Z" fill="white"/>
<path d="M1328.34 49.2827H1328.91V52.2033H1329.59V52.6706H1328.34V49.2827Z" fill="white"/>
<path d="M1329.79 49.2827H1331.15V49.75H1330.35V50.7196H1330.92V51.1752H1330.35V52.2033H1331.15V52.6706H1329.79V49.2827Z" fill="white"/>
<path d="M1312.82 56.5374V54.9019C1312.82 54.3762 1313.06 53.9907 1313.67 53.9907C1314.28 53.9907 1314.47 54.3412 1314.47 54.8435V55.2407H1313.96V54.7968C1313.96 54.5865 1313.89 54.4697 1313.68 54.4697C1313.47 54.4697 1313.39 54.6098 1313.39 54.8201V56.6426C1313.39 56.8528 1313.47 56.993 1313.68 56.993C1313.89 56.993 1313.96 56.8645 1313.96 56.6659V56.0468H1314.47V56.6309C1314.47 57.1098 1314.28 57.472 1313.67 57.472C1313.06 57.472 1312.82 57.0865 1312.82 56.5608" fill="white"/>
<path d="M1314.71 56.5374V54.9019C1314.71 54.3762 1314.97 53.9907 1315.57 53.9907C1316.18 53.9907 1316.44 54.3762 1316.44 54.9019V56.5374C1316.44 57.0631 1316.18 57.4486 1315.57 57.4486C1314.97 57.4486 1314.71 57.0631 1314.71 56.5374ZM1315.86 56.6309V54.8084C1315.86 54.5982 1315.77 54.458 1315.57 54.458C1315.37 54.458 1315.28 54.5982 1315.28 54.8084V56.6309C1315.28 56.8295 1315.37 56.9813 1315.57 56.9813C1315.77 56.9813 1315.86 56.8412 1315.86 56.6309Z" fill="white"/>
<path d="M1317.16 55.2874V57.4135H1316.68V54.0257H1317.24L1317.86 55.9766V54.0257H1318.33V57.4135H1317.84L1317.16 55.2874Z" fill="white"/>
<path d="M1318.56 56.6893V56.2337H1319.09V56.701C1319.09 56.8879 1319.17 57.0047 1319.37 57.0047C1319.54 57.0047 1319.63 56.8879 1319.63 56.701V56.5725C1319.63 56.3739 1319.54 56.257 1319.37 56.0935L1319.03 55.7547C1318.7 55.4393 1318.55 55.2407 1318.55 54.8552V54.7384C1318.55 54.3178 1318.8 53.9907 1319.35 53.9907C1319.9 53.9907 1320.14 54.2711 1320.14 54.7617V55.0304H1319.63V54.7384C1319.63 54.5398 1319.53 54.4463 1319.36 54.4463C1319.19 54.4463 1319.09 54.5398 1319.09 54.7267V54.7968C1319.09 54.9837 1319.19 55.1005 1319.36 55.2524L1319.72 55.6145C1320.04 55.9299 1320.18 56.1169 1320.18 56.4907V56.6542C1320.18 57.1215 1319.93 57.4486 1319.35 57.4486C1318.76 57.4486 1318.54 57.1215 1318.54 56.6776" fill="white"/>
<path d="M1322.08 54.0257V56.5841C1322.08 57.1098 1321.86 57.4486 1321.27 57.4486C1320.69 57.4486 1320.42 57.1098 1320.42 56.5841V54.0257H1320.99V56.6425C1320.99 56.8411 1321.08 56.9813 1321.27 56.9813C1321.47 56.9813 1321.55 56.8528 1321.55 56.6425V54.0257H1322.08Z" fill="white"/>
<path d="M1323.9 55.2173H1323.88L1323.49 57.4135H1323.24L1322.8 55.2173H1322.79V57.4135H1322.33V54.0257H1322.99L1323.36 55.9416L1323.69 54.0257H1324.42V57.4135H1323.9V55.2173Z" fill="white"/>
<path d="M1324.67 54.0257H1325.51C1326.09 54.0257 1326.3 54.3061 1326.3 54.785V55.4976C1326.3 55.9766 1326.09 56.257 1325.51 56.257H1325.23V57.4019H1324.66V54.014L1324.67 54.0257ZM1325.25 54.493V55.8248H1325.46C1325.66 55.8248 1325.74 55.7313 1325.74 55.5444V54.7617C1325.74 54.5748 1325.66 54.4813 1325.46 54.4813H1325.25V54.493Z" fill="white"/>
<path d="M1326.44 54.0257H1327.94V54.493H1327.48V57.4135H1326.9V54.493H1326.44V54.0257Z" fill="white"/>
<path d="M1328.72 54.0257H1328.14V57.4135H1328.72V54.0257Z" fill="white"/>
<path d="M1328.97 56.5374V54.9019C1328.97 54.3762 1329.23 53.9907 1329.84 53.9907C1330.44 53.9907 1330.7 54.3762 1330.7 54.9019V56.5374C1330.7 57.0631 1330.44 57.4486 1329.84 57.4486C1329.23 57.4486 1328.97 57.0631 1328.97 56.5374ZM1330.13 56.6309V54.8084C1330.13 54.5982 1330.03 54.458 1329.84 54.458C1329.64 54.458 1329.54 54.5982 1329.54 54.8084V56.6309C1329.54 56.8295 1329.64 56.9813 1329.84 56.9813C1330.03 56.9813 1330.13 56.8412 1330.13 56.6309Z" fill="white"/>
<path d="M1331.43 55.2874V57.4135H1330.95V54.0257H1331.51L1332.13 55.9766V54.0257H1332.59V57.4135H1332.1L1331.43 55.2874Z" fill="white"/>
<path d="M1312.72 62.1565L1313.36 58.7687H1314.02L1314.66 62.1565H1314.08L1313.97 61.5374H1313.36L1313.26 62.1565H1312.72ZM1313.43 61.0818H1313.89L1313.67 59.7266L1313.45 61.0818H1313.43Z" fill="white"/>
<path d="M1315.3 60.0304V62.1565H1314.83V58.7687H1315.39L1315.99 60.7196V58.7687H1316.47V62.1565H1315.97L1315.3 60.0304Z" fill="white"/>
<path d="M1318.44 59.6799V61.2453C1318.44 61.7593 1318.22 62.1565 1317.61 62.1565H1316.73V58.7687H1317.61C1318.21 58.7687 1318.44 59.1542 1318.44 59.6799ZM1317.54 61.6892C1317.77 61.6892 1317.86 61.549 1317.86 61.3388V59.5631C1317.86 59.3645 1317.77 59.2243 1317.54 59.2243H1317.29V61.6776H1317.54V61.6892Z" fill="white"/>
<path d="M1319.47 58.7687H1320.32C1320.89 58.7687 1321.1 59.049 1321.1 59.528V60.2406C1321.1 60.7196 1320.89 61 1320.32 61H1320.04V62.1448H1319.46V58.757L1319.47 58.7687ZM1320.04 59.236V60.5677H1320.25C1320.44 60.5677 1320.53 60.4743 1320.53 60.2874V59.5047C1320.53 59.3177 1320.44 59.2243 1320.25 59.2243H1320.04V59.236Z" fill="white"/>
<path d="M1321.89 60.6028V62.1565H1321.32V58.7687H1322.15C1322.72 58.7687 1322.93 59.0491 1322.93 59.528V59.9603C1322.93 60.3224 1322.8 60.5444 1322.48 60.6145L1323.03 62.1565H1322.43L1321.89 60.6028ZM1321.89 59.236V60.2874H1322.08C1322.28 60.2874 1322.36 60.1822 1322.36 60.007V59.5047C1322.36 59.3177 1322.28 59.2243 1322.08 59.2243H1321.89V59.236Z" fill="white"/>
<path d="M1323.18 61.2804V59.6449C1323.18 59.1192 1323.43 58.7337 1324.04 58.7337C1324.65 58.7337 1324.91 59.1192 1324.91 59.6449V61.2804C1324.91 61.8061 1324.65 62.1916 1324.04 62.1916C1323.43 62.1916 1323.18 61.8061 1323.18 61.2804ZM1324.33 61.3739V59.5514C1324.33 59.3411 1324.24 59.201 1324.04 59.201C1323.84 59.201 1323.75 59.3411 1323.75 59.5514V61.3739C1323.75 61.5725 1323.84 61.7243 1324.04 61.7243C1324.24 61.7243 1324.33 61.5841 1324.33 61.3739Z" fill="white"/>
<path d="M1326.86 59.6799V61.2453C1326.86 61.7593 1326.65 62.1565 1326.03 62.1565H1325.15V58.7687H1326.03C1326.64 58.7687 1326.86 59.1542 1326.86 59.6799ZM1325.96 61.6892C1326.19 61.6892 1326.29 61.549 1326.29 61.3388V59.5631C1326.29 59.3645 1326.19 59.2243 1325.96 59.2243H1325.72V61.6776H1325.96V61.6892Z" fill="white"/>
<path d="M1328.76 58.7687V61.3271C1328.76 61.8528 1328.54 62.1916 1327.96 62.1916C1327.37 62.1916 1327.1 61.8528 1327.1 61.3271V58.7687H1327.68V61.3855C1327.68 61.5841 1327.76 61.7243 1327.96 61.7243C1328.15 61.7243 1328.24 61.5958 1328.24 61.3855V58.7687H1328.76Z" fill="white"/>
<path d="M1329.02 61.2804V59.6449C1329.02 59.1192 1329.26 58.7337 1329.87 58.7337C1330.48 58.7337 1330.68 59.0841 1330.68 59.5865V59.9837H1330.16V59.5398C1330.16 59.3295 1330.09 59.2126 1329.89 59.2126C1329.7 59.2126 1329.6 59.3528 1329.6 59.5631V61.3855C1329.6 61.5958 1329.68 61.736 1329.89 61.736C1330.11 61.736 1330.16 61.6075 1330.16 61.4089V60.7898H1330.68V61.3739C1330.68 61.8528 1330.48 62.215 1329.87 62.215C1329.26 62.215 1329.02 61.8295 1329.02 61.3038" fill="white"/>
<path d="M1330.79 58.7687H1332.31V59.236H1331.85V62.1565H1331.26V59.236H1330.79V58.7687Z" fill="white"/>
<path d="M1333.07 58.7687H1332.5V62.1565H1333.07V58.7687Z" fill="white"/>
<path d="M1333.33 61.2804V59.6449C1333.33 59.1192 1333.59 58.7337 1334.19 58.7337C1334.8 58.7337 1335.06 59.1192 1335.06 59.6449V61.2804C1335.06 61.8061 1334.8 62.1916 1334.19 62.1916C1333.59 62.1916 1333.33 61.8061 1333.33 61.2804ZM1334.49 61.3739V59.5514C1334.49 59.3411 1334.39 59.201 1334.19 59.201C1334 59.201 1333.9 59.3411 1333.9 59.5514V61.3739C1333.9 61.5725 1334 61.7243 1334.19 61.7243C1334.39 61.7243 1334.49 61.5841 1334.49 61.3739Z" fill="white"/>
<path d="M1335.8 60.0304V62.1565H1335.32V58.7687H1335.87L1336.48 60.7196V58.7687H1336.96V62.1565H1336.46L1335.8 60.0304Z" fill="white"/>
</g>
<defs>
<clipPath id="clip0_316_17362">
<rect width="1440" height="774" fill="white"/>
</clipPath>
</defs>
</svg>
