<svg width="1440" height="774" viewBox="0 0 1440 774" fill="none" xmlns="http://www.w3.org/2000/svg">
<g clip-path="url(#clip0_313_14316)">
<text fill="#006D5A" xml:space="preserve" style="white-space: pre" font-family="VNM Sans Display" font-size="80" font-weight="bold" letter-spacing="0em"><tspan x="166.195" y="141.6">PH&#xda;C L&#x1ee2;I&#xa0;&#x110;&#x1ed8;NG V&#x1eac;T</tspan></text>
<rect x="85.5" y="180" width="606" height="544" rx="5" fill="#006D5A"/>
<rect x="85.5" y="180" width="606" height="544" rx="5" stroke="#4DD75A" stroke-width="6" stroke-linejoin="round"/>
<rect x="86" y="180" width="606" height="544" rx="5" stroke="#0B352E" stroke-width="6" stroke-linejoin="round" stroke-dasharray="12 12"/>
<text fill="#FFFFF1" xml:space="preserve" style="white-space: pre" font-family="VNM Sans Display" font-size="96" font-weight="bold" letter-spacing="0em"><tspan x="155.719" y="292.2" data-counter data-delay="600" data-from="0" data-to="3" data-ori="03">03</tspan></text>
<text fill="#FFFFF1" xml:space="preserve" style="white-space: pre" font-family="VNM Sans Display" font-size="24" font-weight="500" letter-spacing="0em"><tspan x="154" y="318.28">TRANG TR&#x1ea0;I</tspan></text>
<text fill="#FFFFF1" xml:space="preserve" style="white-space: pre" font-family="VNM Sans Std" font-size="14" letter-spacing="0em"><tspan x="135.765" y="340.844">&#x111;&#x1ea1;t ti&#xea;u chu&#x1ea9;n h&#x1eef;u </tspan><tspan x="143.25" y="356.844">c&#x1a1; Organic Ch&#xe2;u </tspan><tspan x="182.707" y="372.844">&#xc2;u</tspan></text>
<text fill="#FFFFF1" xml:space="preserve" style="white-space: pre" font-family="VNM Sans Display" font-size="96" font-weight="bold" letter-spacing="0em"><tspan x="315.719" y="292.2" data-counter data-delay="600" data-from="0" data-to="3" data-ori="03">03</tspan></text>
<text fill="#FFFFF1" xml:space="preserve" style="white-space: pre" font-family="VNM Sans Display" font-size="24" font-weight="500" letter-spacing="0em"><tspan x="314" y="318.28">TRANG TR&#x1ea0;I</tspan></text>
<text fill="#FFFFF1" xml:space="preserve" style="white-space: pre" font-family="VNM Sans Std" font-size="14" letter-spacing="0em"><tspan x="310.325" y="340.844">theo m&#xf4; h&#xec;nh&#xa0;&#10;</tspan><tspan x="293.755" y="356.844">trang tr&#x1ea1;i sinh th&#xe1;i -</tspan><tspan x="290.398" y="372.844">&#xa0;Vinamilk Green Farm</tspan></text>
<text fill="#FFFFF1" xml:space="preserve" style="white-space: pre" font-family="VNM Sans Display" font-size="96" font-weight="bold" letter-spacing="0em"><tspan x="459" y="292.2" data-counter data-delay="600" data-from="0" data-to="100" data-ori="100%">100%</tspan></text>
<text fill="#FFFFF1" xml:space="preserve" style="white-space: pre" font-family="VNM Sans Display" font-size="24" font-weight="500" letter-spacing="0em"><tspan x="497.5" y="318.28">TRANG TR&#x1ea0;I</tspan></text>
<text fill="#FFFFF1" xml:space="preserve" style="white-space: pre" font-family="VNM Sans Std" font-size="14" letter-spacing="0em"><tspan x="474.979" y="340.844">&#xa0;trang tr&#x1ea1;i &#x111;&#x1ea1;t chu&#x1ea9;n </tspan><tspan x="499.8" y="356.844">GlobalG.A.P.</tspan></text>
<text fill="#2DFFB3" xml:space="preserve" style="white-space: pre" font-family="VNM Sans Display" font-size="80" font-weight="bold" letter-spacing="0em"><tspan x="154.203" y="490" data-counter data-delay="600" data-from="0" data-to="166" data-ori="166">166</tspan></text>
<text fill="#2DFFB3" xml:space="preserve" style="white-space: pre" font-family="VNM Sans Display" font-size="24" font-weight="500" letter-spacing="0em"><tspan x="242" y="456.28">B&#xc1;C S&#x128; V&#xc0; &#x2028;</tspan><tspan x="242" y="484.28">CHUY&#xca;N GIA TH&#xda; Y&#xa0;</tspan></text>
<text fill="#FFFFF1" xml:space="preserve" style="white-space: pre" font-family="VNM Sans Std" font-size="14" letter-spacing="0em"><tspan x="154" y="506.844">(11% nh&#xe2;n s&#x1ef1; trang tr&#x1ea1;i l&#xe0; &#x111;&#x1ed9;i ng&#x169; </tspan><tspan x="154" y="522.844">chuy&#xea;n gia ch&#x103;m s&#xf3;c s&#x1ee9;c kh&#x1ecf;e &#x111;&#xe0;n </tspan><tspan x="154" y="538.844">b&#xf2;)</tspan></text>
<text fill="#2DFFB3" xml:space="preserve" style="white-space: pre" font-family="VNM Sans Display" font-size="80" font-weight="bold" letter-spacing="0em"><tspan x="154" y="656" data-counter data-delay="600" data-from="0" data-to="100" data-ori="100%">100%</tspan></text>
<text fill="#2DFFB3" xml:space="preserve" style="white-space: pre" font-family="VNM Sans Display" font-size="24" font-weight="500" letter-spacing="0em"><tspan x="283" y="622.28">NH&#xc2;N VI&#xca;N</tspan></text>
<text fill="#FFFFF1" xml:space="preserve" style="white-space: pre" font-family="VNM Sans Std" font-size="14" letter-spacing="0em"><tspan x="154" y="672.844">nh&#xe2;n vi&#xea;n trang tr&#x1ea1;i &#x111;&#x1b0;&#x1ee3;c t&#xe0;o t&#x1ea1;o</tspan></text>
<text fill="#2DFFB3" xml:space="preserve" style="white-space: pre" font-family="VNM Sans Display" font-size="80" font-weight="bold" letter-spacing="0em"><tspan x="426.32" y="490" data-counter data-delay="600" data-from="0" data-to="61" data-ori="6,1">6,1</tspan></text>
<text fill="#2DFFB3" xml:space="preserve" style="white-space: pre" font-family="VNM Sans Display" font-size="24" font-weight="500" letter-spacing="0em"><tspan x="494" y="456.28">T&#x1ef6; &#x110;&#x1ed2;NG</tspan></text>
<text fill="#FFFFF1" xml:space="preserve" style="white-space: pre" font-family="VNM Sans Std" font-size="14" letter-spacing="0em"><tspan x="426" y="506.844">C&#xe1;c d&#x1ef1; &#xe1;n &#x111;&#x1ea7;u t&#x1b0;, s&#xe1;ng ki&#x1ebf;n c&#x1ea3;i </tspan><tspan x="426" y="522.844">ti&#x1ebf;n s&#xe2;n ch&#x1a1;i &#x111;&#x1ec3; cho b&#xf2; t&#x1ef1; do v&#xe0; </tspan><tspan x="426" y="538.844">tho&#x1ea3;i m&#xe1;i, n&#x1ec7;m n&#x1eb1;m &#x111;&#x1ec3; b&#xf2; tho&#x1ea3;i </tspan><tspan x="426" y="554.844">m&#xe1;i h&#x1a1;n khi ngh&#x1ec9; ng&#x1a1;i</tspan></text>
<text fill="#2DFFB3" xml:space="preserve" style="white-space: pre" font-family="VNM Sans Display" font-size="80" font-weight="bold" letter-spacing="0em"><tspan x="426.133" y="656" data-counter data-delay="600" data-from="0" data-to="10" data-ori="10">10</tspan></text>
<text fill="#2DFFB3" xml:space="preserve" style="white-space: pre" font-family="VNM Sans Display" font-size="24" font-weight="500" letter-spacing="0em"><tspan x="483" y="622.28">KHO&#xc1; &#x110;&#xc0;O T&#x1ea0;O</tspan></text>
<text fill="#FFFFF1" xml:space="preserve" style="white-space: pre" font-family="VNM Sans Std" font-size="14" letter-spacing="0em"><tspan x="426" y="672.844">h&#xe0;ng n&#x103;m n&#xe2;ng cao nh&#x1ead;n th&#x1ee9;c v&#x1ec1; </tspan><tspan x="426" y="688.844">ph&#xfa;c l&#x1ee3;i cho &#x111;&#xe0;n b&#xf2;</tspan></text>
<line x1="120" y1="401.5" x2="653" y2="401.5" stroke="white" stroke-width="3"/>
<path d="M1240 46H1200V86H1240V46Z" fill="#DEA639"/>
<path d="M1207.48 56.3118H1205.27V55.9281C1205.27 55.2926 1205.5 55.0647 1205.83 54.693L1206.7 53.7818C1207.4 53.0384 1207.56 52.5588 1207.56 51.7434V50.964C1207.56 49.8129 1207 49.2614 1205.78 49.2614C1204.57 49.2614 1203.99 49.8969 1203.99 51.024V51.9952H1205.23V50.988C1205.23 50.4964 1205.47 50.3525 1205.75 50.3525C1206.01 50.3525 1206.24 50.4604 1206.24 50.964V51.6355C1206.24 52.307 1206.18 52.5588 1205.75 53.0264L1204.99 53.8417C1204.25 54.6211 1203.98 55.1487 1203.98 55.952V57.4388H1207.5V56.3357L1207.48 56.3118Z" fill="white"/>
<path d="M1215.96 79.9928V80.5564C1215.96 80.5564 1215.96 80.5564 1215.96 80.5683C1215.96 80.5803 1215.96 80.5683 1215.96 80.5803C1215.96 80.7242 1216.08 80.8321 1216.22 80.8321H1222.81C1222.96 80.8321 1223.07 80.7122 1223.08 80.5683V79.9329C1226.79 78.7218 1229.58 75.7002 1230.19 72.0312C1230.19 72.0312 1230.19 72.0192 1230.19 72.0072C1230.19 71.9952 1230.19 71.9832 1230.19 71.9712C1230.19 71.8273 1230.07 71.7074 1229.92 71.7074H1208.92C1208.77 71.7074 1208.65 71.8273 1208.65 71.9712V72.0911C1209.32 75.7962 1212.17 78.8177 1215.96 79.9928Z" fill="white"/>
<path d="M1223.09 62.7266C1223.01 62.8465 1220.97 65.7722 1223.14 68.1343C1224.13 69.2134 1224.04 70.1727 1223.77 70.8201H1225.15C1225.43 69.8609 1225.32 68.6619 1224.19 67.4388C1222.6 65.7002 1224.21 63.3381 1224.24 63.3022C1224.43 63.0384 1224.32 62.6906 1224.01 62.5228C1223.69 62.3669 1223.28 62.4508 1223.09 62.7146" fill="white"/>
<path d="M1219.57 70.8321H1220.96C1221.24 69.8729 1221.13 68.6739 1219.99 67.4508C1218.4 65.7122 1220.01 63.3501 1220.04 63.3141C1220.24 63.0504 1220.13 62.7026 1219.81 62.5348C1219.5 62.3789 1219.09 62.4628 1218.9 62.7266C1218.81 62.8465 1216.78 65.7722 1218.95 68.1463C1219.93 69.2254 1219.85 70.1847 1219.57 70.8321Z" fill="white"/>
<path d="M1214.72 62.7266C1214.63 62.8465 1212.59 65.7722 1214.76 68.1343C1215.75 69.2134 1215.67 70.1727 1215.39 70.8201H1216.78C1217.05 69.8609 1216.94 68.6619 1215.81 67.4388C1214.22 65.7002 1215.84 63.3381 1215.86 63.3022C1216.05 63.0384 1215.94 62.6906 1215.63 62.5228C1215.32 62.3669 1214.91 62.4508 1214.72 62.7146" fill="white"/>
<path d="M1210.89 53.47C1210.89 53.47 1210.88 53.458 1210.88 53.4341V51.0959C1210.88 51.0959 1210.88 51.0719 1210.89 51.0719L1210.92 51.06H1211.23C1211.23 51.06 1211.26 51.06 1211.26 51.0719C1211.26 51.0719 1211.27 51.0839 1211.27 51.0959V52.0671C1211.27 52.0671 1211.27 52.0671 1211.28 52.0671L1211.8 51.0959C1211.8 51.0959 1211.82 51.06 1211.85 51.06H1212.18C1212.18 51.06 1212.21 51.06 1212.22 51.0719C1212.22 51.0719 1212.22 51.0959 1212.22 51.1079L1211.7 52.0791C1211.7 52.0791 1211.7 52.0911 1211.7 52.1031L1212.26 53.4341C1212.26 53.4341 1212.26 53.4341 1212.26 53.458C1212.26 53.47 1212.26 53.482 1212.22 53.482H1211.88C1211.88 53.482 1211.85 53.482 1211.83 53.446L1211.43 52.4508C1211.43 52.4508 1211.43 52.4508 1211.41 52.4508L1211.27 52.6787C1211.27 52.6787 1211.27 52.6906 1211.27 52.7026V53.4341C1211.27 53.4341 1211.27 53.458 1211.26 53.47C1211.24 53.482 1211.24 53.482 1211.23 53.482H1210.92C1210.92 53.482 1210.89 53.482 1210.89 53.47Z" fill="white"/>
<path d="M1213.41 51.0719L1213.44 51.06H1213.75C1213.75 51.06 1213.78 51.06 1213.78 51.0719C1213.78 51.0719 1213.79 51.0839 1213.79 51.1079V53.446C1213.79 53.446 1213.79 53.47 1213.78 53.47C1213.78 53.47 1213.76 53.482 1213.75 53.482H1213.44C1213.44 53.482 1213.41 53.482 1213.41 53.47C1213.41 53.47 1213.4 53.458 1213.4 53.446V52.4628C1213.4 52.4628 1213.4 52.4508 1213.39 52.4508H1212.96C1212.96 52.4508 1212.94 52.4508 1212.94 52.4628V53.446C1212.94 53.446 1212.94 53.47 1212.93 53.47C1212.93 53.47 1212.92 53.482 1212.91 53.482H1212.59C1212.59 53.482 1212.57 53.482 1212.57 53.47C1212.57 53.47 1212.56 53.458 1212.56 53.446V51.1079C1212.56 51.1079 1212.56 51.0839 1212.57 51.0719C1212.57 51.0719 1212.58 51.06 1212.59 51.06H1212.91C1212.91 51.06 1212.93 51.06 1212.93 51.0719C1212.93 51.0719 1212.94 51.0839 1212.94 51.1079V52.0791C1212.94 52.0791 1212.94 52.0911 1212.96 52.0911H1213.39C1213.39 52.0911 1213.4 52.0911 1213.4 52.0791V51.1079C1213.4 51.1079 1213.4 51.0839 1213.41 51.0719Z" fill="white"/>
<path d="M1214.98 53.0743C1214.98 53.0743 1215.05 52.9544 1215.05 52.8585V51.6595C1215.05 51.5755 1215.03 51.5036 1214.98 51.4436C1214.93 51.3837 1214.87 51.3597 1214.79 51.3597C1214.7 51.3597 1214.64 51.3837 1214.59 51.4436C1214.55 51.4916 1214.52 51.5635 1214.52 51.6595V52.8585C1214.52 52.9424 1214.55 53.0144 1214.59 53.0743C1214.64 53.1223 1214.7 53.1583 1214.79 53.1583C1214.87 53.1583 1214.93 53.1343 1214.98 53.0743ZM1214.33 50.8321C1214.33 50.8321 1214.33 50.8082 1214.33 50.7962L1214.55 50.4365C1214.55 50.4365 1214.57 50.4125 1214.59 50.4125H1214.96C1214.96 50.4125 1214.99 50.4125 1215 50.4365L1215.23 50.7962V50.8201C1215.23 50.8321 1215.22 50.8441 1215.2 50.8441H1214.96C1214.96 50.8441 1214.92 50.8441 1214.91 50.8201L1214.79 50.6043C1214.79 50.6043 1214.78 50.5923 1214.76 50.6043L1214.64 50.8201C1214.64 50.8201 1214.62 50.8441 1214.59 50.8441H1214.35C1214.35 50.8441 1214.33 50.8441 1214.32 50.8321M1214.31 53.3261C1214.18 53.2062 1214.12 53.0504 1214.12 52.8465V51.6835C1214.12 51.4796 1214.18 51.3237 1214.31 51.2038C1214.43 51.0839 1214.58 51.024 1214.79 51.024C1214.99 51.024 1215.15 51.0839 1215.27 51.2038C1215.39 51.3237 1215.45 51.4796 1215.45 51.6835V52.8465C1215.45 53.0504 1215.39 53.2062 1215.27 53.3261C1215.15 53.446 1214.99 53.506 1214.79 53.506C1214.58 53.506 1214.43 53.446 1214.31 53.3261Z" fill="white"/>
<path d="M1216.76 51.0719L1216.79 51.06H1217.1C1217.1 51.06 1217.13 51.06 1217.14 51.0719C1217.14 51.0719 1217.14 51.0839 1217.14 51.1079V53.47C1217.14 53.47 1217.11 53.482 1217.1 53.482H1216.74C1216.74 53.482 1216.7 53.482 1216.69 53.446L1216.17 51.9832C1216.17 51.9832 1216.17 51.9832 1216.16 51.9832C1216.15 51.9832 1216.16 51.9832 1216.16 51.9952V53.47L1216.14 53.482H1215.82C1215.82 53.482 1215.8 53.482 1215.8 53.47C1215.8 53.47 1215.79 53.458 1215.79 53.446V51.1079C1215.79 51.1079 1215.79 51.0839 1215.8 51.0719C1215.8 51.0719 1215.81 51.06 1215.82 51.06H1216.19C1216.19 51.06 1216.22 51.0719 1216.23 51.0959L1216.75 52.5588C1216.75 52.5588 1216.75 52.5588 1216.76 52.5588V51.1079C1216.76 51.1079 1216.76 51.0839 1216.78 51.0719" fill="white"/>
<path d="M1217.66 53.3381C1217.54 53.2182 1217.48 53.0743 1217.48 52.8825V51.6595C1217.48 51.4676 1217.54 51.3237 1217.66 51.2038C1217.78 51.0839 1217.93 51.036 1218.13 51.036C1218.32 51.036 1218.48 51.0959 1218.6 51.2038C1218.72 51.3237 1218.78 51.4676 1218.78 51.6595V51.7914C1218.78 51.7914 1218.78 51.8153 1218.76 51.8153L1218.74 51.8273H1218.43C1218.43 51.8273 1218.4 51.8273 1218.4 51.8153C1218.4 51.8153 1218.39 51.8034 1218.39 51.7914V51.6475C1218.39 51.5635 1218.37 51.5036 1218.32 51.4436C1218.27 51.3957 1218.21 51.3717 1218.14 51.3717C1218.07 51.3717 1218.01 51.3957 1217.96 51.4436C1217.91 51.4916 1217.88 51.5635 1217.88 51.6475V52.8825C1217.88 52.9664 1217.91 53.0384 1217.96 53.0863C1218.01 53.1343 1218.07 53.1583 1218.14 53.1583C1218.21 53.1583 1218.27 53.1343 1218.32 53.0863C1218.37 53.0384 1218.39 52.9664 1218.39 52.8825V52.5468C1218.39 52.5468 1218.39 52.5348 1218.38 52.5348H1218.16C1218.16 52.5348 1218.14 52.5348 1218.14 52.5228C1218.14 52.5228 1218.13 52.5108 1218.13 52.4868V52.235C1218.13 52.235 1218.13 52.211 1218.14 52.199C1218.14 52.199 1218.15 52.199 1218.16 52.199H1218.78C1218.78 52.199 1218.79 52.223 1218.79 52.235V52.8705C1218.79 53.0624 1218.73 53.2062 1218.61 53.3261C1218.49 53.446 1218.33 53.494 1218.14 53.494C1217.95 53.494 1217.79 53.4341 1217.67 53.3261" fill="white"/>
<path d="M1219.92 53.3261C1219.8 53.2062 1219.74 53.0504 1219.74 52.8585V51.6835C1219.74 51.4796 1219.8 51.3237 1219.92 51.2158C1220.04 51.0959 1220.2 51.036 1220.39 51.036C1220.58 51.036 1220.75 51.0959 1220.87 51.2158C1220.99 51.3357 1221.05 51.4916 1221.05 51.6835V51.7194C1221.05 51.7194 1221.05 51.7434 1221.04 51.7554C1221.04 51.7554 1221.03 51.7674 1221.02 51.7674H1220.69C1220.69 51.7674 1220.66 51.7674 1220.66 51.7434V51.6595C1220.66 51.5755 1220.63 51.5156 1220.58 51.4676C1220.54 51.4197 1220.48 51.3957 1220.4 51.3957C1220.33 51.3957 1220.27 51.4197 1220.22 51.4676C1220.17 51.5156 1220.15 51.5875 1220.15 51.6595V52.8945C1220.15 52.9784 1220.17 53.0384 1220.22 53.0863C1220.27 53.1343 1220.33 53.1583 1220.4 53.1583C1220.48 53.1583 1220.54 53.1343 1220.58 53.0863C1220.63 53.0384 1220.66 52.9664 1220.66 52.8945V52.8106C1220.66 52.8106 1220.66 52.7866 1220.67 52.7866C1220.67 52.7866 1220.68 52.7746 1220.69 52.7746H1221.02C1221.02 52.7746 1221.04 52.7866 1221.04 52.7986C1221.04 52.7986 1221.05 52.8106 1221.05 52.8345V52.8705C1221.05 53.0624 1220.99 53.2182 1220.87 53.3381C1220.75 53.458 1220.6 53.518 1220.39 53.518C1220.19 53.518 1220.04 53.458 1219.92 53.3381" fill="white"/>
<path d="M1222.16 53.0743C1222.16 53.0743 1222.24 52.9544 1222.24 52.8585V51.6595C1222.24 51.5755 1222.21 51.5036 1222.16 51.4436C1222.12 51.3837 1222.05 51.3597 1221.97 51.3597C1221.89 51.3597 1221.83 51.3837 1221.78 51.4436C1221.73 51.4916 1221.71 51.5635 1221.71 51.6595V52.8585C1221.71 52.9424 1221.73 53.0144 1221.78 53.0743C1221.83 53.1223 1221.89 53.1583 1221.97 53.1583C1222.05 53.1583 1222.12 53.1343 1222.16 53.0743ZM1222.1 50.8082C1222.1 50.8082 1222.09 50.8321 1222.07 50.8321H1221.86C1221.86 50.8321 1221.83 50.8321 1221.81 50.8082L1221.56 50.4604V50.4365C1221.56 50.4245 1221.57 50.4125 1221.6 50.4125H1221.85C1221.85 50.4125 1221.89 50.4125 1221.9 50.4365L1222.1 50.7962V50.8201V50.8082ZM1221.5 53.3261C1221.38 53.2062 1221.32 53.0504 1221.32 52.8465V51.6835C1221.32 51.4796 1221.38 51.3237 1221.5 51.2038C1221.62 51.0839 1221.78 51.024 1221.98 51.024C1222.19 51.024 1222.34 51.0839 1222.46 51.2038C1222.59 51.3237 1222.65 51.4796 1222.65 51.6835V52.8465C1222.65 53.0504 1222.59 53.2062 1222.46 53.3261C1222.34 53.446 1222.19 53.506 1221.98 53.506C1221.78 53.506 1221.62 53.446 1221.5 53.3261Z" fill="white"/>
<path d="M1223.96 51.0719C1223.96 51.0719 1223.97 51.06 1223.98 51.06H1224.3C1224.3 51.06 1224.32 51.06 1224.32 51.0719C1224.32 51.0719 1224.33 51.0839 1224.33 51.1079V53.446C1224.33 53.446 1224.33 53.47 1224.32 53.47C1224.32 53.47 1224.31 53.482 1224.3 53.482H1223.93C1223.93 53.482 1223.9 53.482 1223.89 53.446L1223.37 51.9832C1223.37 51.9832 1223.37 51.9832 1223.37 51.9952V53.47C1223.37 53.47 1223.34 53.482 1223.33 53.482H1223.02C1223.02 53.482 1222.99 53.482 1222.99 53.47C1222.99 53.47 1222.98 53.458 1222.98 53.446V51.1079C1222.98 51.1079 1222.98 51.0839 1222.99 51.0719L1223.02 51.06H1223.38C1223.38 51.06 1223.42 51.0719 1223.43 51.0959L1223.95 52.5588C1223.95 52.5588 1223.95 52.5588 1223.96 52.5588V51.1079C1223.96 51.1079 1223.96 51.0839 1223.97 51.0719" fill="white"/>
<path d="M1211.88 55.2206L1211.91 55.2086H1212.22C1212.22 55.2086 1212.24 55.2086 1212.26 55.2206C1212.26 55.2206 1212.26 55.2326 1212.26 55.2566V57.6187C1212.26 57.6187 1212.23 57.6307 1212.22 57.6307H1211.86C1211.86 57.6307 1211.82 57.6307 1211.81 57.5947L1211.29 56.1319C1211.29 56.1319 1211.29 56.1319 1211.28 56.1319C1211.27 56.1319 1211.28 56.1319 1211.28 56.1439V57.6187L1211.26 57.6307H1210.94C1210.94 57.6307 1210.92 57.6307 1210.92 57.6187C1210.92 57.6187 1210.91 57.6067 1210.91 57.5947V55.2566C1210.91 55.2566 1210.91 55.2326 1210.92 55.2206C1210.92 55.2206 1210.93 55.2086 1210.94 55.2086H1211.3C1211.3 55.2086 1211.34 55.2206 1211.35 55.2446L1211.87 56.6954C1211.87 56.6954 1211.87 56.6954 1211.88 56.6954V55.2446C1211.88 55.2446 1211.88 55.2206 1211.9 55.2086" fill="white"/>
<path d="M1213.04 56.8993H1213.43C1213.43 56.8993 1213.45 56.8993 1213.44 56.8873L1213.23 55.7962L1213.04 56.8873C1213.04 56.8873 1213.04 56.8993 1213.05 56.8993M1213.06 58.3381C1213.06 58.3381 1213 58.2422 1213 58.1703C1213 58.0983 1213.03 58.0504 1213.06 58.0024C1213.11 57.9544 1213.16 57.9424 1213.23 57.9424C1213.31 57.9424 1213.35 57.9664 1213.4 58.0024C1213.45 58.0504 1213.46 58.0983 1213.46 58.1703C1213.46 58.2422 1213.44 58.2902 1213.4 58.3381C1213.35 58.3861 1213.31 58.4101 1213.23 58.4101C1213.16 58.4101 1213.11 58.3861 1213.06 58.3381ZM1213.57 57.5947L1213.5 57.235C1213.5 57.235 1213.5 57.223 1213.47 57.223H1212.97C1212.97 57.223 1212.94 57.223 1212.94 57.235L1212.88 57.5947C1212.88 57.5947 1212.87 57.6307 1212.84 57.6307H1212.52C1212.52 57.6307 1212.47 57.6187 1212.49 57.5827L1212.99 55.2446C1212.99 55.2446 1213.02 55.2086 1213.04 55.2086H1213.4C1213.4 55.2086 1213.44 55.2206 1213.45 55.2446L1213.97 57.5827C1213.97 57.5827 1213.96 57.6307 1213.93 57.6307H1213.61C1213.61 57.6307 1213.57 57.6187 1213.56 57.5947" fill="white"/>
<path d="M1215.2 55.2206L1215.22 55.2086H1215.53C1215.53 55.2086 1215.56 55.2086 1215.56 55.2206C1215.56 55.2206 1215.56 55.2326 1215.56 55.2566V57.6187L1215.53 57.6307H1215.17C1215.17 57.6307 1215.14 57.6307 1215.13 57.5947L1214.61 56.1319C1214.61 56.1319 1214.61 56.1319 1214.59 56.1319C1214.58 56.1319 1214.59 56.1319 1214.59 56.1439V57.6187C1214.59 57.6187 1214.58 57.6307 1214.57 57.6307H1214.26C1214.26 57.6307 1214.23 57.6307 1214.23 57.6187C1214.23 57.6187 1214.22 57.6067 1214.22 57.5947V55.2566C1214.22 55.2566 1214.22 55.2326 1214.23 55.2206C1214.23 55.2206 1214.25 55.2086 1214.26 55.2086H1214.62C1214.62 55.2086 1214.66 55.2206 1214.67 55.2446L1215.19 56.6954C1215.19 56.6954 1215.19 56.6954 1215.2 56.6954V55.2446C1215.2 55.2446 1215.2 55.2206 1215.21 55.2086" fill="white"/>
<path d="M1217.63 55.8921C1217.63 55.7842 1217.61 55.7122 1217.56 55.6403C1217.51 55.5803 1217.45 55.5444 1217.37 55.5444H1217.16C1217.16 55.5444 1217.15 55.5444 1217.15 55.5564V56.2158C1217.15 56.2158 1217.15 56.2398 1217.16 56.2398H1217.35C1217.35 56.2398 1217.37 56.2518 1217.37 56.2638V56.4197C1217.37 56.4197 1217.37 56.4436 1217.35 56.4436C1217.35 56.4436 1217.34 56.4556 1217.33 56.4556H1217.16C1217.16 56.4556 1217.15 56.4556 1217.15 56.4676V57.235C1217.15 57.235 1217.15 57.247 1217.16 57.247H1217.37C1217.44 57.247 1217.5 57.211 1217.55 57.1511C1217.6 57.0911 1217.62 57.0072 1217.62 56.9113V55.8561L1217.63 55.8921ZM1217.85 55.3885C1217.97 55.5084 1218.03 55.6643 1218.03 55.8681V56.9712C1218.03 57.1751 1217.97 57.3309 1217.85 57.4508C1217.73 57.5707 1217.57 57.6307 1217.38 57.6307H1216.79C1216.79 57.6307 1216.76 57.6307 1216.76 57.6187C1216.76 57.6187 1216.75 57.6067 1216.75 57.5947V56.5036C1216.75 56.5036 1216.75 56.4916 1216.74 56.4916H1216.68C1216.68 56.4916 1216.66 56.4916 1216.66 56.4796C1216.66 56.4796 1216.66 56.4676 1216.66 56.4556V56.2758H1216.74C1216.74 56.2758 1216.75 56.2758 1216.75 56.2518V55.2686C1216.75 55.2686 1216.75 55.2446 1216.76 55.2326L1216.79 55.2206H1217.38C1217.57 55.2206 1217.74 55.2806 1217.85 55.4005" fill="white"/>
<path d="M1218.79 54.9808C1218.79 54.9808 1218.79 54.9568 1218.79 54.9448L1218.99 54.5851C1218.99 54.5851 1219.02 54.5612 1219.04 54.5612H1219.29C1219.29 54.5612 1219.32 54.5612 1219.33 54.5731C1219.33 54.5731 1219.33 54.5971 1219.33 54.6091L1219.08 54.9688C1219.08 54.9688 1219.05 54.9928 1219.03 54.9928H1218.84C1218.84 54.9928 1218.81 54.9928 1218.8 54.9808M1219.17 57.235C1219.17 57.235 1219.25 57.1151 1219.25 57.0192V55.8201C1219.25 55.7362 1219.22 55.6643 1219.17 55.6043C1219.13 55.5444 1219.07 55.5204 1218.98 55.5204C1218.9 55.5204 1218.84 55.5444 1218.79 55.6043C1218.74 55.6643 1218.72 55.7242 1218.72 55.8201V57.0192C1218.72 57.1031 1218.74 57.1751 1218.79 57.235C1218.84 57.283 1218.9 57.3189 1218.98 57.3189C1219.07 57.3189 1219.13 57.295 1219.17 57.235ZM1218.51 57.4748C1218.39 57.3549 1218.33 57.199 1218.33 56.9952V55.8321C1218.33 55.6403 1218.39 55.4724 1218.51 55.3525C1218.63 55.2326 1218.79 55.1727 1218.99 55.1727C1219.2 55.1727 1219.36 55.2326 1219.48 55.3525C1219.6 55.4724 1219.66 55.6283 1219.66 55.8321V56.9952C1219.66 57.199 1219.6 57.3549 1219.48 57.4748C1219.36 57.5947 1219.2 57.6547 1218.99 57.6547C1218.79 57.6547 1218.63 57.5947 1218.51 57.4748Z" fill="white"/>
<path d="M1219.98 57.6187C1219.98 57.6187 1219.97 57.6067 1219.97 57.5827V55.2446C1219.97 55.2446 1219.97 55.2206 1219.98 55.2206C1219.98 55.2206 1219.99 55.2086 1220.01 55.2086H1220.32C1220.32 55.2086 1220.34 55.2086 1220.34 55.2206C1220.34 55.2206 1220.36 55.2326 1220.36 55.2446V57.5827C1220.36 57.5827 1220.36 57.6067 1220.34 57.6187C1220.33 57.6307 1220.33 57.6307 1220.32 57.6307H1220.01C1220.01 57.6307 1219.98 57.6307 1219.98 57.6187Z" fill="white"/>
<path d="M1290 46H1250V86H1290V46Z" fill="#4C9E45"/>
<path d="M1255.71 57.5228C1257.09 57.5228 1257.68 56.7914 1257.68 55.6763V54.4892C1257.68 53.7578 1257.35 53.2782 1256.68 53.1223C1257.23 52.9424 1257.6 52.4868 1257.6 51.8153V51.1199C1257.6 49.9808 1257.06 49.2734 1255.81 49.2734C1254.41 49.2734 1253.92 50.1007 1253.92 51.2998V52.0192H1255.16V51.2038C1255.16 50.7002 1255.31 50.4245 1255.74 50.4245C1256.16 50.4245 1256.32 50.7122 1256.32 51.1559V52.0192C1256.32 52.4508 1256.03 52.6787 1255.59 52.6787H1255.09V53.7098H1255.65C1256.12 53.7098 1256.32 53.9376 1256.32 54.3693V55.7002C1256.32 56.1319 1256.12 56.4197 1255.71 56.4197C1255.24 56.4197 1255.09 56.1079 1255.09 55.6403V54.4892H1253.84V55.5444C1253.84 56.7674 1254.33 57.5588 1255.71 57.5588" fill="white"/>
<path d="M1283.43 71C1283.43 69.8729 1282.71 68.9616 1281.61 68.9616C1281.07 68.9616 1280.41 69.5611 1280.05 69.9329C1279.68 69.5611 1279.07 68.9616 1278.53 68.9616C1277.43 68.9616 1276.67 69.8729 1276.67 71C1276.67 71.5635 1276.89 72.0671 1277.25 72.4388L1280.06 75.2446L1282.85 72.4388C1283.21 72.0671 1283.43 71.5635 1283.43 71Z" fill="white"/>
<path d="M1271.5 79.8369H1271.48C1271.26 79.8249 1271.09 79.6691 1271.05 79.4532L1269.63 71.1559L1267.48 75.1607C1267.38 75.3405 1267.19 75.4364 1266.99 75.4005C1266.8 75.3645 1266.64 75.2086 1266.62 75.0168L1265.7 68.6139L1264.03 72.3789C1263.96 72.5468 1263.79 72.6547 1263.61 72.6547H1257.1C1256.85 72.6547 1256.64 72.4508 1256.64 72.199C1256.64 71.9472 1256.85 71.7434 1257.1 71.7434H1263.31L1265.51 66.7914C1265.6 66.5995 1265.79 66.4916 1265.99 66.5276C1266.2 66.5516 1266.35 66.7194 1266.39 66.9233L1267.33 73.518L1269.46 69.5731C1269.56 69.3933 1269.75 69.3094 1269.95 69.3333C1270.14 69.3693 1270.3 69.5132 1270.32 69.705L1271.63 77.3909L1276.44 61.4317C1276.5 61.2518 1276.66 61.1199 1276.85 61.1079C1277.04 61.0959 1277.23 61.1918 1277.3 61.3717L1279.83 66.6115C1279.94 66.8393 1279.84 67.1151 1279.61 67.223C1279.38 67.3309 1279.11 67.235 1279 67.0072L1276.98 62.8345L1271.96 79.5372C1271.9 79.729 1271.72 79.8609 1271.51 79.8609" fill="white"/>
<path d="M1261.87 53.2542C1261.75 53.1343 1261.69 52.9784 1261.69 52.7866V51.6115C1261.69 51.4077 1261.75 51.2518 1261.87 51.1439C1261.99 51.024 1262.15 50.964 1262.34 50.964C1262.53 50.964 1262.7 51.024 1262.82 51.1439C1262.94 51.2638 1263 51.4197 1263 51.6115V51.6475C1263 51.6475 1263 51.6715 1262.99 51.6835L1262.97 51.6954H1262.64C1262.64 51.6954 1262.61 51.6954 1262.61 51.6715V51.5875C1262.61 51.5036 1262.58 51.4436 1262.53 51.3957C1262.49 51.3477 1262.43 51.3237 1262.35 51.3237C1262.28 51.3237 1262.22 51.3477 1262.17 51.3957C1262.12 51.4436 1262.1 51.5156 1262.1 51.5875V52.8225C1262.1 52.9065 1262.12 52.9664 1262.17 53.0144C1262.22 53.0623 1262.28 53.0863 1262.35 53.0863C1262.43 53.0863 1262.49 53.0623 1262.53 53.0144C1262.58 52.9664 1262.61 52.8945 1262.61 52.8225V52.7386C1262.61 52.7386 1262.61 52.7146 1262.62 52.7146L1262.64 52.7026H1262.97C1262.97 52.7026 1262.99 52.7146 1262.99 52.7266C1262.99 52.7266 1263 52.7386 1263 52.7626V52.7986C1263 52.9904 1262.94 53.1463 1262.82 53.2662C1262.7 53.3861 1262.55 53.446 1262.34 53.446C1262.14 53.446 1261.99 53.3861 1261.87 53.2662" fill="white"/>
<path d="M1263.47 53.2422C1263.35 53.1103 1263.29 52.9424 1263.29 52.7386V51.024C1263.29 51.024 1263.29 51 1263.31 51C1263.31 51 1263.32 50.988 1263.33 50.988H1263.65C1263.65 50.988 1263.68 50.988 1263.68 51C1263.68 51 1263.69 51.012 1263.69 51.024V52.7746C1263.69 52.8705 1263.71 52.9424 1263.76 53.0024C1263.81 53.0624 1263.87 53.0863 1263.94 53.0863C1264.02 53.0863 1264.08 53.0624 1264.12 53.0024C1264.17 52.9424 1264.2 52.8705 1264.2 52.7746V51.024C1264.2 51.024 1264.2 51 1264.21 51C1264.21 51 1264.22 50.988 1264.23 50.988H1264.55C1264.55 50.988 1264.57 50.988 1264.57 51C1264.57 51 1264.58 51.012 1264.58 51.024V52.7386C1264.58 52.9544 1264.52 53.1223 1264.4 53.2422C1264.28 53.3741 1264.12 53.4341 1263.93 53.4341C1263.74 53.4341 1263.57 53.3741 1263.46 53.2422" fill="white"/>
<path d="M1265.39 54.1175C1265.39 54.1175 1265.32 54.0216 1265.32 53.9496C1265.32 53.8777 1265.34 53.8297 1265.39 53.7818C1265.44 53.7338 1265.49 53.7098 1265.56 53.7098C1265.63 53.7098 1265.68 53.7338 1265.73 53.7818C1265.78 53.8297 1265.8 53.8777 1265.8 53.9496C1265.8 54.0216 1265.78 54.0695 1265.73 54.1175C1265.68 54.1655 1265.63 54.1895 1265.56 54.1895C1265.49 54.1895 1265.44 54.1655 1265.39 54.1175ZM1265.74 53.0144C1265.74 53.0144 1265.81 52.8945 1265.81 52.7986V51.5995C1265.81 51.5156 1265.79 51.4436 1265.74 51.3837C1265.69 51.3357 1265.63 51.2998 1265.55 51.2998C1265.46 51.2998 1265.4 51.3237 1265.35 51.3837C1265.31 51.4317 1265.28 51.5036 1265.28 51.5995V52.7986C1265.28 52.8825 1265.31 52.9544 1265.35 53.0144C1265.4 53.0623 1265.46 53.0983 1265.55 53.0983C1265.63 53.0983 1265.69 53.0743 1265.74 53.0144ZM1265.09 50.7602C1265.09 50.7602 1265.09 50.7362 1265.09 50.7242L1265.31 50.3645C1265.31 50.3645 1265.33 50.3405 1265.35 50.3405H1265.72C1265.72 50.3405 1265.75 50.3405 1265.76 50.3645L1265.99 50.7242V50.7482C1265.99 50.7602 1265.98 50.7722 1265.96 50.7722H1265.72C1265.72 50.7722 1265.68 50.7722 1265.67 50.7482L1265.55 50.5324C1265.55 50.5324 1265.53 50.5204 1265.52 50.5324L1265.4 50.7482C1265.4 50.7482 1265.38 50.7722 1265.35 50.7722H1265.11C1265.11 50.7722 1265.09 50.7722 1265.08 50.7602M1265.08 53.2542C1264.96 53.1343 1264.9 52.9784 1264.9 52.7746V51.6115C1264.9 51.4077 1264.96 51.2518 1265.08 51.1319C1265.2 51.012 1265.35 50.952 1265.56 50.952C1265.76 50.952 1265.92 51.012 1266.04 51.1319C1266.16 51.2518 1266.22 51.4077 1266.22 51.6115V52.7746C1266.22 52.9784 1266.16 53.1343 1266.04 53.2542C1265.92 53.3741 1265.76 53.4341 1265.56 53.4341C1265.35 53.4341 1265.2 53.3741 1265.08 53.2542Z" fill="white"/>
<path d="M1266.68 53.2542C1266.56 53.1343 1266.5 52.9784 1266.5 52.7866V51.6115C1266.5 51.4077 1266.56 51.2518 1266.68 51.1439C1266.8 51.024 1266.96 50.964 1267.15 50.964C1267.34 50.964 1267.51 51.024 1267.63 51.1439C1267.75 51.2638 1267.81 51.4197 1267.81 51.6115V51.6475C1267.81 51.6475 1267.81 51.6715 1267.8 51.6835L1267.78 51.6954H1267.45C1267.45 51.6954 1267.41 51.6954 1267.41 51.6715V51.5875C1267.41 51.5036 1267.39 51.4436 1267.34 51.3957C1267.29 51.3477 1267.23 51.3237 1267.16 51.3237C1267.09 51.3237 1267.03 51.3477 1266.98 51.3957C1266.93 51.4436 1266.91 51.5156 1266.91 51.5875V52.8225C1266.91 52.9065 1266.93 52.9664 1266.98 53.0144C1267.03 53.0623 1267.09 53.0863 1267.16 53.0863C1267.23 53.0863 1267.29 53.0623 1267.34 53.0144C1267.39 52.9664 1267.41 52.8945 1267.41 52.8225V52.7386C1267.41 52.7386 1267.41 52.7146 1267.43 52.7146L1267.45 52.7026H1267.78C1267.78 52.7026 1267.8 52.7146 1267.8 52.7266C1267.8 52.7266 1267.81 52.7386 1267.81 52.7626V52.7986C1267.81 52.9904 1267.75 53.1463 1267.63 53.2662C1267.51 53.3861 1267.35 53.446 1267.15 53.446C1266.94 53.446 1266.8 53.3861 1266.68 53.2662" fill="white"/>
<path d="M1268.9 53.2662C1268.78 53.1463 1268.72 53.0024 1268.72 52.8106V52.7146C1268.72 52.7146 1268.72 52.6906 1268.73 52.6906C1268.73 52.6906 1268.74 52.6787 1268.75 52.6787H1269.07C1269.07 52.6787 1269.09 52.6787 1269.09 52.6906C1269.09 52.6906 1269.1 52.7026 1269.1 52.7146V52.7866C1269.1 52.8705 1269.13 52.9424 1269.17 53.0024C1269.22 53.0624 1269.28 53.0863 1269.36 53.0863C1269.43 53.0863 1269.49 53.0624 1269.54 53.0024C1269.58 52.9544 1269.61 52.8825 1269.61 52.7986C1269.61 52.7386 1269.6 52.6906 1269.57 52.6427C1269.55 52.5947 1269.51 52.5588 1269.46 52.5228C1269.42 52.4868 1269.34 52.4269 1269.25 52.3549C1269.13 52.271 1269.04 52.199 1268.97 52.1271C1268.9 52.0671 1268.84 51.9832 1268.79 51.8993C1268.74 51.8034 1268.72 51.7074 1268.72 51.5875C1268.72 51.3957 1268.78 51.2398 1268.89 51.1319C1269.01 51.024 1269.15 50.964 1269.34 50.964C1269.54 50.964 1269.69 51.024 1269.8 51.1439C1269.92 51.2638 1269.98 51.4197 1269.98 51.6115V51.6954C1269.98 51.6954 1269.98 51.7194 1269.97 51.7194L1269.95 51.7314H1269.63C1269.63 51.7314 1269.61 51.7314 1269.61 51.7194C1269.61 51.7194 1269.6 51.7074 1269.6 51.6954V51.5995C1269.6 51.5156 1269.57 51.4436 1269.52 51.3837C1269.48 51.3357 1269.42 51.2998 1269.34 51.2998C1269.27 51.2998 1269.22 51.3237 1269.17 51.3717C1269.13 51.4197 1269.11 51.4916 1269.11 51.5755C1269.11 51.6595 1269.14 51.7314 1269.19 51.7914C1269.23 51.8513 1269.33 51.9233 1269.46 52.0312C1269.61 52.1391 1269.7 52.223 1269.78 52.283C1269.85 52.3429 1269.9 52.4149 1269.95 52.4988C1269.98 52.5827 1270.01 52.6667 1270.01 52.7746C1270.01 52.9664 1269.95 53.1343 1269.83 53.2422C1269.7 53.3621 1269.55 53.4221 1269.37 53.4221C1269.19 53.4221 1269.02 53.3621 1268.9 53.2542" fill="white"/>
<path d="M1271.34 50.4844C1271.34 50.4844 1271.34 50.4604 1271.34 50.4484L1271.55 50.0887C1271.55 50.0887 1271.57 50.0647 1271.6 50.0647H1271.85C1271.85 50.0647 1271.87 50.0648 1271.89 50.0767C1271.89 50.0767 1271.89 50.1007 1271.89 50.1127L1271.63 50.4724C1271.63 50.4724 1271.61 50.4964 1271.58 50.4964H1271.39C1271.39 50.4964 1271.37 50.4964 1271.36 50.4844M1271.09 53.0144C1271.09 53.0144 1271.16 52.8945 1271.16 52.7986V51.5995C1271.16 51.5156 1271.14 51.4436 1271.09 51.3837C1271.04 51.3357 1270.98 51.2998 1270.9 51.2998C1270.81 51.2998 1270.75 51.3237 1270.71 51.3837C1270.66 51.4317 1270.63 51.5036 1270.63 51.5995V52.7986C1270.63 52.8825 1270.66 52.9544 1270.71 53.0144C1270.75 53.0623 1270.81 53.0983 1270.9 53.0983C1270.98 53.0983 1271.04 53.0743 1271.09 53.0144ZM1270.44 50.7602C1270.44 50.7602 1270.44 50.7362 1270.44 50.7242L1270.66 50.3645C1270.66 50.3645 1270.68 50.3405 1270.71 50.3405H1271.07C1271.07 50.3405 1271.1 50.3405 1271.11 50.3645L1271.34 50.7242V50.7482C1271.34 50.7602 1271.33 50.7722 1271.31 50.7722H1271.07C1271.07 50.7722 1271.03 50.7722 1271.02 50.7482L1270.9 50.5324C1270.9 50.5324 1270.89 50.5204 1270.87 50.5324L1270.75 50.7482C1270.75 50.7482 1270.73 50.7722 1270.71 50.7722H1270.46C1270.46 50.7722 1270.44 50.7722 1270.43 50.7602M1270.42 53.2542C1270.3 53.1343 1270.24 52.9784 1270.24 52.7746V51.6115C1270.24 51.4077 1270.3 51.2518 1270.42 51.1319C1270.54 51.012 1270.69 50.952 1270.9 50.952C1271.1 50.952 1271.26 51.012 1271.38 51.1319C1271.5 51.2518 1271.56 51.4077 1271.56 51.6115V52.7746C1271.56 52.9784 1271.5 53.1343 1271.38 53.2542C1271.26 53.3741 1271.1 53.4341 1270.9 53.4341C1270.69 53.4341 1270.54 53.3741 1270.42 53.2542Z" fill="white"/>
<path d="M1272.89 51C1272.89 51 1272.9 50.988 1272.91 50.988H1273.22C1273.22 50.988 1273.25 50.988 1273.25 51C1273.25 51.012 1273.26 51.012 1273.26 51.036V53.3741C1273.26 53.3741 1273.26 53.3981 1273.25 53.3981C1273.25 53.3981 1273.24 53.4101 1273.22 53.4101H1272.86C1272.86 53.4101 1272.83 53.4101 1272.81 53.3741L1272.3 51.9113C1272.3 51.9113 1272.3 51.9113 1272.3 51.9233V53.3981C1272.3 53.3981 1272.27 53.4101 1272.26 53.4101H1271.95C1271.95 53.4101 1271.92 53.4101 1271.92 53.3981C1271.92 53.3981 1271.91 53.3861 1271.91 53.3741V51.036C1271.91 51.036 1271.91 51.012 1271.92 51C1271.93 50.988 1271.95 50.988 1271.95 50.988H1272.31C1272.31 50.988 1272.34 51 1272.36 51.024L1272.87 52.4748C1272.87 52.4748 1272.87 52.4748 1272.89 52.4748V51.024C1272.89 51.024 1272.89 51 1272.9 50.988" fill="white"/>
<path d="M1273.77 53.2662C1273.65 53.1463 1273.59 53.0024 1273.59 52.8106V51.5875C1273.59 51.3957 1273.65 51.2518 1273.77 51.1319C1273.89 51.012 1274.04 50.964 1274.24 50.964C1274.43 50.964 1274.59 51.024 1274.71 51.1319C1274.83 51.2518 1274.89 51.3957 1274.89 51.5875V51.7194C1274.89 51.7194 1274.89 51.7434 1274.87 51.7434C1274.87 51.7434 1274.86 51.7554 1274.85 51.7554H1274.54C1274.54 51.7554 1274.51 51.7554 1274.51 51.7434C1274.51 51.7434 1274.5 51.7314 1274.5 51.7194V51.5755C1274.5 51.4916 1274.48 51.4197 1274.43 51.3717C1274.38 51.3237 1274.32 51.2998 1274.25 51.2998C1274.18 51.2998 1274.12 51.3237 1274.07 51.3717C1274.02 51.4197 1274 51.4916 1274 51.5755V52.8106C1274 52.8945 1274.02 52.9664 1274.07 53.0144C1274.12 53.0623 1274.18 53.0863 1274.25 53.0863C1274.32 53.0863 1274.38 53.0623 1274.43 53.0144C1274.48 52.9664 1274.5 52.8945 1274.5 52.8106V52.4748C1274.5 52.4748 1274.5 52.4628 1274.49 52.4628H1274.28C1274.28 52.4628 1274.26 52.4628 1274.25 52.4508C1274.25 52.4508 1274.24 52.4388 1274.24 52.4269V52.1751C1274.24 52.1751 1274.24 52.1511 1274.25 52.1511C1274.25 52.1511 1274.27 52.1391 1274.28 52.1391H1274.87C1274.87 52.1391 1274.9 52.1391 1274.9 52.1511C1274.9 52.1511 1274.91 52.1631 1274.91 52.1751V52.8106C1274.91 53.0024 1274.85 53.1463 1274.73 53.2662C1274.61 53.3861 1274.45 53.4341 1274.26 53.4341C1274.07 53.4341 1273.91 53.3741 1273.79 53.2662" fill="white"/>
<path d="M1261.75 57.5468C1261.75 57.5468 1261.74 57.5348 1261.74 57.5108V55.1727C1261.74 55.1727 1261.74 55.1487 1261.75 55.1487L1261.77 55.1367H1262.09C1262.09 55.1367 1262.11 55.1367 1262.11 55.1487C1262.11 55.1487 1262.12 55.1607 1262.12 55.1727V56.1439C1262.12 56.1439 1262.12 56.1439 1262.14 56.1439L1262.65 55.1727C1262.65 55.1727 1262.68 55.1367 1262.7 55.1367H1263.04C1263.04 55.1367 1263.06 55.1367 1263.08 55.1487C1263.08 55.1487 1263.08 55.1727 1263.08 55.1847L1262.56 56.1559C1262.56 56.1559 1262.56 56.1679 1262.56 56.1799L1263.11 57.5108C1263.11 57.5108 1263.11 57.5108 1263.11 57.5348C1263.11 57.5468 1263.11 57.5588 1263.08 57.5588H1262.74C1262.74 57.5588 1262.7 57.5588 1262.69 57.5228L1262.28 56.5276C1262.28 56.5276 1262.28 56.5276 1262.27 56.5276L1262.12 56.7554C1262.12 56.7554 1262.12 56.7674 1262.12 56.7794V57.5108C1262.12 57.5108 1262.12 57.5348 1262.11 57.5468C1262.1 57.5588 1262.1 57.5468 1262.09 57.5468H1261.75Z" fill="white"/>
<path d="M1264.26 55.1487L1264.28 55.1367H1264.59C1264.59 55.1367 1264.62 55.1367 1264.62 55.1487C1264.62 55.1607 1264.63 55.1607 1264.63 55.1847V57.5228C1264.63 57.5228 1264.63 57.5468 1264.62 57.5468C1264.61 57.5468 1264.61 57.5468 1264.59 57.5468H1264.26C1264.26 57.5468 1264.25 57.5348 1264.25 57.5228V56.5396C1264.25 56.5396 1264.25 56.5276 1264.23 56.5276H1263.8C1263.8 56.5276 1263.79 56.5276 1263.79 56.5396V57.5228C1263.79 57.5228 1263.79 57.5468 1263.78 57.5468C1263.78 57.5468 1263.76 57.5468 1263.75 57.5468H1263.41C1263.41 57.5468 1263.4 57.5348 1263.4 57.5228V55.1847C1263.4 55.1847 1263.4 55.1607 1263.41 55.1487C1263.41 55.1487 1263.43 55.1367 1263.44 55.1367H1263.75C1263.75 55.1367 1263.78 55.1367 1263.78 55.1487C1263.78 55.1487 1263.79 55.1607 1263.79 55.1847V56.1559C1263.79 56.1559 1263.79 56.1679 1263.8 56.1679H1264.23C1264.23 56.1679 1264.25 56.1679 1264.25 56.1559V55.1847C1264.25 55.1847 1264.25 55.1607 1264.26 55.1487Z" fill="white"/>
<path d="M1265.82 57.1631C1265.82 57.1631 1265.9 57.0432 1265.9 56.9472V55.7482C1265.9 55.6643 1265.87 55.5923 1265.82 55.5324C1265.78 55.4844 1265.72 55.4484 1265.63 55.4484C1265.55 55.4484 1265.49 55.4724 1265.44 55.5324C1265.39 55.5803 1265.37 55.6523 1265.37 55.7482V56.9472C1265.37 57.0312 1265.39 57.1031 1265.44 57.1631C1265.49 57.223 1265.55 57.247 1265.63 57.247C1265.72 57.247 1265.78 57.223 1265.82 57.1631ZM1265.57 54.9448C1265.57 54.9448 1265.63 54.8369 1265.68 54.777C1265.7 54.753 1265.73 54.729 1265.74 54.705C1265.74 54.6811 1265.75 54.6571 1265.75 54.6211C1265.75 54.5971 1265.75 54.5731 1265.72 54.5492C1265.69 54.5252 1265.67 54.5132 1265.64 54.5132C1265.61 54.5132 1265.58 54.5132 1265.56 54.5372C1265.53 54.5492 1265.51 54.5851 1265.47 54.6211C1265.47 54.6331 1265.45 54.6451 1265.44 54.6451C1265.44 54.6451 1265.43 54.6451 1265.41 54.6451L1265.33 54.5731C1265.33 54.5731 1265.31 54.5372 1265.33 54.5132C1265.38 54.4412 1265.43 54.3933 1265.47 54.3693C1265.52 54.3333 1265.58 54.3213 1265.67 54.3213C1265.76 54.3213 1265.85 54.3453 1265.91 54.4053C1265.97 54.4652 1265.99 54.5372 1265.99 54.6211C1265.99 54.6691 1265.99 54.717 1265.96 54.753C1265.93 54.789 1265.9 54.8249 1265.86 54.8729C1265.81 54.9209 1265.79 54.9568 1265.78 54.9808C1265.76 55.0048 1265.74 55.0168 1265.72 55.0048L1265.62 54.9808C1265.62 54.9808 1265.57 54.9568 1265.6 54.9329M1265.15 57.4029C1265.03 57.283 1264.97 57.1271 1264.97 56.9233V55.7602C1264.97 55.5564 1265.03 55.4005 1265.15 55.2806C1265.27 55.1607 1265.43 55.1007 1265.63 55.1007C1265.84 55.1007 1265.99 55.1607 1266.11 55.2806C1266.23 55.4005 1266.29 55.5564 1266.29 55.7602V56.9233C1266.29 57.1271 1266.23 57.283 1266.11 57.4029C1265.99 57.5228 1265.84 57.5827 1265.63 57.5827C1265.43 57.5827 1265.27 57.5228 1265.15 57.4029Z" fill="white"/>
<path d="M1267.81 55.4724L1267.79 55.4844H1267.04C1267.04 55.4844 1267.03 55.4844 1267.03 55.4964V56.1439C1267.03 56.1439 1267.03 56.1559 1267.04 56.1559H1267.49C1267.49 56.1559 1267.51 56.1559 1267.51 56.1679C1267.51 56.1679 1267.52 56.1799 1267.52 56.2038V56.4676C1267.52 56.4676 1267.52 56.4916 1267.51 56.4916C1267.51 56.4916 1267.5 56.5036 1267.49 56.5036H1267.04C1267.04 56.5036 1267.03 56.5036 1267.03 56.5156V57.1751C1267.03 57.1751 1267.03 57.1871 1267.04 57.1871H1267.79C1267.79 57.1871 1267.81 57.1871 1267.81 57.199C1267.81 57.199 1267.82 57.211 1267.82 57.223V57.4868C1267.82 57.4868 1267.82 57.5108 1267.81 57.5108L1267.79 57.5228H1266.67C1266.67 57.5228 1266.64 57.5228 1266.63 57.5108C1266.62 57.4988 1266.63 57.4988 1266.63 57.4868V55.1247C1266.63 55.1247 1266.66 55.1127 1266.67 55.1127H1267.79C1267.79 55.1127 1267.81 55.1127 1267.81 55.1247C1267.81 55.1247 1267.82 55.1367 1267.82 55.1487V55.4125C1267.82 55.4125 1267.82 55.4365 1267.81 55.4484" fill="white"/>
<path d="M1269.93 55.1367H1270.25C1270.25 55.1367 1270.27 55.1367 1270.27 55.1487C1270.27 55.1487 1270.28 55.1607 1270.28 55.1847V57.5228C1270.28 57.5228 1270.28 57.5468 1270.27 57.5468C1270.27 57.5468 1270.26 57.5588 1270.25 57.5588H1269.93C1269.93 57.5588 1269.91 57.5588 1269.91 57.5468C1269.91 57.5468 1269.9 57.5348 1269.9 57.5228V55.8801C1269.9 55.8801 1269.9 55.8801 1269.89 55.8801L1269.58 56.4317C1269.58 56.4317 1269.56 56.4556 1269.55 56.4556C1269.55 56.4556 1269.52 56.4556 1269.51 56.4317L1269.21 55.8801C1269.21 55.8801 1269.21 55.8801 1269.2 55.8801C1269.19 55.8801 1269.2 55.8801 1269.2 55.8921V57.5228C1269.2 57.5228 1269.2 57.5468 1269.19 57.5468C1269.17 57.5468 1269.16 57.5588 1269.16 57.5588H1268.85C1268.85 57.5588 1268.82 57.5588 1268.82 57.5468C1268.82 57.5468 1268.81 57.5348 1268.81 57.5228V55.1847C1268.81 55.1847 1268.81 55.1607 1268.82 55.1487L1268.85 55.1367H1269.16C1269.16 55.1367 1269.2 55.1367 1269.21 55.1607L1269.55 55.7482C1269.55 55.7482 1269.56 55.7482 1269.57 55.7482L1269.9 55.1607C1269.9 55.1607 1269.92 55.1367 1269.95 55.1367" fill="white"/>
<path d="M1271.05 56.8273H1271.44C1271.44 56.8273 1271.46 56.8273 1271.46 56.8153L1271.26 55.7242L1271.07 56.8153C1271.07 56.8153 1271.07 56.8273 1271.08 56.8273M1271.08 58.2662C1271.08 58.2662 1271.01 58.1703 1271.01 58.0983C1271.01 58.0264 1271.03 57.9784 1271.08 57.9305C1271.13 57.8825 1271.18 57.8705 1271.25 57.8705C1271.32 57.8705 1271.37 57.8945 1271.42 57.9305C1271.46 57.9784 1271.49 58.0264 1271.49 58.0983C1271.49 58.1703 1271.46 58.2182 1271.42 58.2662C1271.37 58.3141 1271.32 58.3381 1271.25 58.3381C1271.18 58.3381 1271.13 58.3141 1271.08 58.2662ZM1271.58 57.5228L1271.51 57.1631C1271.51 57.1631 1271.51 57.1511 1271.49 57.1511H1270.98C1270.98 57.1511 1270.96 57.1511 1270.96 57.1631L1270.89 57.5228C1270.89 57.5228 1270.87 57.5588 1270.84 57.5588H1270.52C1270.52 57.5588 1270.48 57.5468 1270.49 57.5108L1270.99 55.1727C1270.99 55.1727 1271.02 55.1367 1271.04 55.1367H1271.4C1271.4 55.1367 1271.44 55.1487 1271.45 55.1727L1271.97 57.5108C1271.97 57.5108 1271.96 57.5588 1271.93 57.5588H1271.61C1271.61 57.5588 1271.57 57.5468 1271.56 57.5228" fill="white"/>
<path d="M1273.21 55.1487C1273.21 55.1487 1273.22 55.1367 1273.24 55.1367H1273.55C1273.55 55.1367 1273.57 55.1367 1273.57 55.1487C1273.57 55.1607 1273.59 55.1607 1273.59 55.1847V57.5228C1273.59 57.5228 1273.59 57.5468 1273.57 57.5468C1273.56 57.5468 1273.56 57.5468 1273.55 57.5468H1273.19C1273.19 57.5468 1273.15 57.5468 1273.14 57.5108L1272.62 56.048C1272.62 56.048 1272.62 56.048 1272.62 56.06V57.5348C1272.62 57.5348 1272.6 57.5348 1272.59 57.5348H1272.25C1272.25 57.5348 1272.24 57.5228 1272.24 57.5108V55.1727C1272.24 55.1727 1272.24 55.1487 1272.25 55.1367C1272.26 55.1247 1272.27 55.1247 1272.27 55.1247H1272.63C1272.63 55.1247 1272.67 55.1367 1272.68 55.1607L1273.2 56.6115C1273.2 56.6115 1273.2 56.6115 1273.21 56.6115V55.1607C1273.21 55.1607 1273.21 55.1367 1273.22 55.1247" fill="white"/>
<path d="M1274.84 55.1487C1274.84 55.1487 1274.85 55.1367 1274.86 55.1367H1275.18C1275.18 55.1367 1275.2 55.1367 1275.2 55.1487C1275.2 55.1607 1275.21 55.1607 1275.21 55.1847V57.5228C1275.21 57.5228 1275.21 57.5468 1275.2 57.5468C1275.19 57.5468 1275.19 57.5468 1275.18 57.5468H1274.84C1274.84 57.5468 1274.83 57.5348 1274.83 57.5228V56.5396C1274.83 56.5396 1274.83 56.5276 1274.81 56.5276H1274.38C1274.38 56.5276 1274.37 56.5276 1274.37 56.5396V57.5228C1274.37 57.5228 1274.37 57.5468 1274.36 57.5468C1274.36 57.5468 1274.34 57.5468 1274.33 57.5468H1274C1274 57.5468 1273.98 57.5348 1273.98 57.5228V55.1847C1273.98 55.1847 1273.98 55.1607 1274 55.1487C1274 55.1487 1274.01 55.1367 1274.02 55.1367H1274.33C1274.33 55.1367 1274.36 55.1367 1274.36 55.1487C1274.36 55.1487 1274.37 55.1607 1274.37 55.1847V56.1559C1274.37 56.1559 1274.37 56.1679 1274.38 56.1679H1274.81C1274.81 56.1679 1274.83 56.1679 1274.83 56.1559V55.1847C1274.83 55.1847 1274.83 55.1607 1274.84 55.1487Z" fill="white"/>
<path d="M1340 46H1300V86H1340V46Z" fill="#BF8D2C"/>
<path d="M1303.99 51.2518H1304V57.4269H1305.36V49.3573H1304.28L1303.03 50.8201V52.235H1303.04L1303.99 51.2518Z" fill="white"/>
<path d="M1306.17 51.024V51.9952H1307.41V50.988C1307.41 50.4964 1307.65 50.3645 1307.93 50.3645C1308.2 50.3645 1308.42 50.4724 1308.42 50.976V51.6475C1308.42 52.3189 1308.36 52.5707 1307.92 53.0384L1307.16 53.8417C1306.42 54.6331 1306.15 55.1487 1306.15 55.952V57.4389H1309.67V56.3357H1307.44V55.952C1307.44 55.3166 1307.66 55.0887 1308.01 54.717L1308.88 53.8058C1309.58 53.0624 1309.74 52.5827 1309.74 51.7674V50.988C1309.74 49.8369 1309.18 49.2854 1307.97 49.2854C1306.75 49.2854 1306.17 49.9209 1306.17 51.048" fill="white"/>
<path d="M1330.95 67.4269C1329.32 66.1319 1327.36 66 1326.6 66C1326.2 66 1325.83 66.036 1325.55 66.0959L1325.44 66.1199C1324.4 66.3597 1322.68 66.7674 1320.67 69.2734L1320.61 69.3453C1320.61 69.3453 1320.56 69.4412 1320.56 69.5012C1320.56 69.5492 1320.57 69.5851 1320.6 69.6331L1320.64 69.705C1320.98 70.2566 1321.26 70.7482 1321.48 71.1559C1321.56 71.3118 1321.77 71.3597 1321.91 71.2158C1321.92 71.2038 1321.93 71.1799 1321.95 71.1679C1323.68 68.7578 1325.04 68.446 1325.95 68.2302L1326.06 68.2062C1326.18 68.1703 1326.38 68.1583 1326.61 68.1583C1327.03 68.1583 1328.49 68.2302 1329.62 69.1295C1330.64 69.9329 1331.15 71.2038 1331.15 72.9185C1331.15 75.7962 1329.76 76.9113 1328.6 77.3549C1328.15 77.5228 1327.67 77.6067 1327.18 77.6067C1325.97 77.6067 1325.04 77.1271 1325.03 77.1151L1324.95 77.0791C1323.95 76.6475 1322.44 75.7362 1321.03 72.8825C1318.13 67.0432 1315.68 66.4916 1314.06 66.1319L1313.98 66.1079C1313.86 66.0839 1313.51 66.012 1312.94 66.012C1312 66.012 1310.21 66.1919 1308.67 67.4269C1307.62 68.2662 1306.35 69.8969 1306.35 72.9065C1306.35 74.741 1306.72 75.94 1307.69 77.223C1307.87 77.4748 1309.56 79.6451 1312.79 79.6451C1313.27 79.6451 1313.76 79.5971 1314.27 79.5012C1314.86 79.3933 1315.78 79.0935 1316.79 78.3501L1317.64 79.1175C1317.74 79.2014 1317.91 79.2014 1317.99 79.1055C1318.03 79.0576 1318.05 78.9976 1318.05 78.9377L1318.7 74.8849V74.8369C1318.7 74.765 1318.68 74.705 1318.63 74.6571C1318.58 74.6211 1318.54 74.5971 1318.46 74.5971L1314.52 75.6883H1314.45C1314.45 75.6883 1314.35 75.7362 1314.33 75.7722C1314.28 75.8201 1314.26 75.8801 1314.27 75.952C1314.27 76.012 1314.31 76.0719 1314.35 76.1199L1315.17 76.8633C1314.74 77.1271 1314.32 77.307 1313.9 77.3789C1313.53 77.4508 1313.18 77.4868 1312.85 77.4868C1310.62 77.4868 1309.51 76.024 1309.47 75.952L1309.45 75.9281C1308.77 75.0408 1308.54 74.2734 1308.54 72.9185C1308.54 71.1919 1309.05 69.9209 1310.04 69.1295C1311.15 68.2422 1312.57 68.1823 1312.98 68.1823C1313.21 68.1823 1313.4 68.1942 1313.53 68.2302L1313.62 68.2542C1314.91 68.542 1316.68 68.9496 1319.13 73.8657C1320.42 76.4676 1322.04 78.1703 1324.08 79.0576C1324.32 79.1775 1325.59 79.777 1327.2 79.777C1327.96 79.777 1328.7 79.6451 1329.38 79.3933C1330.58 78.9496 1333.35 77.4269 1333.35 72.9305C1333.35 69.9329 1332.07 68.2902 1331.01 67.4508" fill="white"/>
<path d="M1311.58 50.7002V51.1319H1311.87V53.1223H1312.37V51.1319H1312.65V50.7002H1311.58Z" fill="white"/>
<path d="M1313.26 50.7002H1312.77V53.1223H1313.26V50.7002Z" fill="white"/>
<path d="M1313.44 50.7002V53.1223H1314.34V52.6906H1313.92V52.1031H1314.32V51.6715H1313.92V51.1319H1314.33V50.7002H1313.43H1313.44ZM1313.75 50.3165L1313.57 50.6163H1313.79L1313.88 50.5084L1313.98 50.6163H1314.2L1314.02 50.3165H1313.75Z" fill="white"/>
<path d="M1315.25 53.1463H1314.96C1314.66 53.1463 1314.51 53.0024 1314.51 52.6906V50.7002H1314.99V52.6427C1314.99 52.7026 1315.02 52.7266 1315.08 52.7266H1315.13C1315.13 52.7266 1315.21 52.7026 1315.21 52.6427V50.7002H1315.69V52.6906C1315.69 52.9904 1315.55 53.1463 1315.25 53.1463Z" fill="white"/>
<path d="M1316.91 52.7146C1317.01 52.7146 1317.04 52.6787 1317.04 52.5827V51.2638C1317.04 51.1679 1317.01 51.1319 1316.91 51.1319H1316.81V52.7266H1316.91V52.7146ZM1317.02 50.7002C1317.37 50.7002 1317.54 50.8681 1317.54 51.2158V52.5947C1317.54 52.9424 1317.37 53.1103 1317.02 53.1103H1316.33V50.6883H1317.02V50.7002Z" fill="white"/>
<path d="M1318.16 50.6163L1317.97 50.3165H1318.31L1318.4 50.6163H1318.16ZM1318.44 53.1463H1318.15C1317.85 53.1463 1317.7 53.0024 1317.7 52.6906V50.7002H1318.19V52.6427C1318.19 52.7026 1318.21 52.7266 1318.27 52.7266H1318.32C1318.32 52.7266 1318.4 52.7026 1318.4 52.6427V50.7002H1318.89V52.6906C1318.89 52.9904 1318.74 53.1463 1318.44 53.1463Z" fill="white"/>
<path d="M1319.83 50.7002V51.2038L1319.84 51.8993L1319.55 50.7002H1319.05V53.1223H1319.48L1319.46 52.4269V51.8034L1319.76 53.1223H1320.24V50.7002H1319.83Z" fill="white"/>
<path d="M1320.99 51.7554H1321.62V52.6906C1321.62 52.9904 1321.48 53.1463 1321.18 53.1463H1320.86C1320.56 53.1463 1320.42 53.0024 1320.42 52.6906V51.1319C1320.42 50.8321 1320.56 50.6763 1320.86 50.6763H1321.16C1321.46 50.6763 1321.61 50.8201 1321.61 51.1319V51.5995H1321.13V51.1918C1321.13 51.1918 1321.1 51.1079 1321.04 51.1079H1320.97C1320.97 51.1079 1320.89 51.1319 1320.89 51.1918V52.6547C1320.89 52.6547 1320.91 52.7386 1320.97 52.7386H1321.05C1321.05 52.7386 1321.14 52.7146 1321.14 52.6547V52.1751H1320.98V51.7674L1320.99 51.7554Z" fill="white"/>
<path d="M1312.29 56.8154L1312.34 56.6835L1312.11 56.2638C1312.11 56.2638 1312.05 56.3477 1312.05 56.4197V56.8154C1312.05 56.8154 1312.08 56.8873 1312.12 56.8873H1312.18C1312.18 56.8873 1312.27 56.8633 1312.28 56.8154M1312.21 57.295H1312.03C1311.75 57.295 1311.61 57.1511 1311.61 56.8753V56.3837C1311.61 56.2158 1311.64 56.0839 1311.77 55.976L1311.91 55.8561L1311.82 55.7122C1311.75 55.5803 1311.74 55.4964 1311.74 55.3525V55.2806C1311.74 54.9808 1311.88 54.8249 1312.18 54.8249H1312.39C1312.69 54.8249 1312.84 54.9688 1312.84 55.2806V55.6043H1312.39V55.3285C1312.39 55.3285 1312.37 55.2446 1312.3 55.2446H1312.27C1312.27 55.2446 1312.18 55.2686 1312.18 55.3285V55.3765C1312.18 55.4604 1312.21 55.5204 1312.26 55.6043L1312.56 56.1559L1312.67 55.8321H1313.14L1312.85 56.6355L1313.2 57.271H1312.7L1312.59 57.0791C1312.52 57.223 1312.41 57.295 1312.21 57.295Z" fill="white"/>
<path d="M1314.86 56.3957V56.8393C1314.86 57.1391 1314.72 57.295 1314.41 57.295H1314.15C1313.85 57.295 1313.7 57.1511 1313.7 56.8393V56.3237H1314.17V56.7914C1314.17 56.7914 1314.2 56.8753 1314.26 56.8753H1314.31C1314.31 56.8753 1314.39 56.8513 1314.39 56.7914V56.5036C1314.39 56.4317 1314.37 56.3957 1314.31 56.3477L1313.88 56.036C1313.74 55.9281 1313.69 55.8321 1313.69 55.6523V55.2686C1313.69 54.9688 1313.84 54.8129 1314.14 54.8129H1314.4C1314.7 54.8129 1314.85 54.9568 1314.85 55.2686V55.7122H1314.38V55.3166C1314.38 55.3166 1314.35 55.2326 1314.29 55.2326H1314.26C1314.26 55.2326 1314.17 55.2566 1314.17 55.3166V55.5444C1314.17 55.6163 1314.2 55.6643 1314.26 55.7002L1314.67 56.012C1314.81 56.1199 1314.86 56.2158 1314.86 56.3957Z" fill="white"/>
<path d="M1315.66 56.5036L1315.55 55.4484L1315.44 56.5036H1315.66ZM1315.58 54.4053V54.3693C1315.58 54.3693 1315.58 54.3573 1315.57 54.3573C1315.57 54.3573 1315.56 54.3573 1315.56 54.3693V54.4173H1315.39V54.3693C1315.39 54.2614 1315.45 54.2014 1315.56 54.2014H1315.61C1315.72 54.2014 1315.78 54.2494 1315.78 54.3693V54.3933C1315.78 54.4532 1315.76 54.5012 1315.72 54.5492L1315.67 54.6091C1315.67 54.6091 1315.64 54.6451 1315.64 54.6811H1315.5V54.6211C1315.5 54.5492 1315.5 54.5372 1315.53 54.4892L1315.56 54.4532C1315.56 54.4532 1315.58 54.4173 1315.58 54.3933M1315.7 56.9233H1315.4L1315.37 57.283H1314.93L1315.25 54.8609H1315.91L1316.22 57.283H1315.74L1315.7 56.9233Z" fill="white"/>
<path d="M1317.09 54.8489V55.3525L1317.1 56.06L1316.82 54.8489H1316.32V57.271H1316.74V56.5755L1316.73 55.964L1317.04 57.271H1317.51V54.8489H1317.09Z" fill="white"/>
<path d="M1319.36 57.283H1318.85L1318.7 56.5276L1318.55 57.283H1318.09L1318.39 56.1079L1318.09 54.8609H1318.6L1318.73 55.5923L1318.89 54.8609H1319.36L1319.05 56.024L1319.36 57.283Z" fill="white"/>
<path d="M1320.21 57.295H1319.92C1319.62 57.295 1319.48 57.1511 1319.48 56.8393V54.8489H1319.96V56.7914C1319.96 56.8513 1319.98 56.8753 1320.04 56.8753H1320.09C1320.09 56.8753 1320.17 56.8513 1320.17 56.7914V54.8489H1320.66V56.8393C1320.66 57.1391 1320.51 57.295 1320.21 57.295Z" fill="white"/>
<path d="M1322.12 54.3094L1321.92 54.6091H1321.68L1321.78 54.3094H1322.12ZM1321.48 56.5036L1321.37 55.4484L1321.26 56.5036H1321.48ZM1321.49 54.765L1321.39 54.6571L1321.3 54.765H1321.09L1321.27 54.4652H1321.54L1321.72 54.765H1321.49ZM1321.51 56.9233H1321.21L1321.18 57.283H1320.74L1321.05 54.8609H1321.72L1322.03 57.283H1321.55L1321.51 56.9233Z" fill="white"/>
<path d="M1321.95 54.8489V55.2926H1322.25V57.271H1322.73V55.2926H1323.02V54.8489H1321.95Z" fill="white"/>
<path d="M1312.82 61C1312.82 61.2998 1312.68 61.4556 1312.38 61.4556H1312.08C1311.77 61.4556 1311.63 61.3118 1311.63 61V59.4293C1311.63 59.1295 1311.77 58.9736 1312.08 58.9736H1312.37C1312.67 58.9736 1312.81 59.1175 1312.81 59.4293V59.9928H1312.33V59.4772C1312.33 59.4772 1312.3 59.3933 1312.24 59.3933H1312.18C1312.18 59.3933 1312.1 59.4173 1312.1 59.4772V60.94C1312.1 60.94 1312.12 61.024 1312.18 61.024H1312.24C1312.24 61.024 1312.33 61 1312.33 60.94V60.3525H1312.81V60.988L1312.82 61Z" fill="white"/>
<path d="M1313.62 59.3933H1313.55C1313.55 59.3933 1313.46 59.4173 1313.46 59.4772V60.94C1313.46 61 1313.49 61.024 1313.55 61.024H1313.62C1313.62 61.024 1313.7 61 1313.7 60.94V59.4772C1313.7 59.4772 1313.68 59.3933 1313.62 59.3933ZM1313.9 58.6139L1313.7 58.9137H1313.46L1313.56 58.6139H1313.9ZM1313.74 61.4437H1313.43C1313.12 61.4437 1312.98 61.2998 1312.98 60.988V59.4173C1312.98 59.1175 1313.12 58.9616 1313.43 58.9616H1313.74C1314.04 58.9616 1314.18 59.1055 1314.18 59.4173V60.988C1314.18 61.2878 1314.04 61.4437 1313.74 61.4437Z" fill="white"/>
<path d="M1314.78 59.0096V59.4412H1315.06V61.4317H1315.55V59.4412H1315.85V59.0096H1314.78Z" fill="white"/>
<path d="M1316.57 59.4293H1316.45V60.1007H1316.57C1316.57 60.1007 1316.66 60.0767 1316.66 60.0168V59.5132C1316.66 59.5132 1316.63 59.4293 1316.57 59.4293ZM1317.15 60.5923V61.4197H1316.67V60.5923C1316.67 60.5923 1316.64 60.5084 1316.58 60.5084H1316.46V61.4197H1315.98V58.9976H1316.7C1317.01 58.9976 1317.15 59.1415 1317.15 59.4532V59.9209C1317.15 60.1247 1317.08 60.2326 1316.94 60.2806C1317.09 60.3166 1317.16 60.4125 1317.16 60.5923" fill="white"/>
<path d="M1318.2 58.6139L1318.01 58.9137H1317.76L1317.86 58.6139H1318.2ZM1317.97 60.6523L1317.86 59.5971L1317.75 60.6523H1317.97ZM1318.02 61.0719H1317.72L1317.68 61.4317H1317.25L1317.56 59.0096H1318.22L1318.54 61.4317H1318.05L1318.02 61.0719Z" fill="white"/>
<path d="M1319.81 61C1319.81 61.2998 1319.67 61.4556 1319.37 61.4556H1319.07C1318.76 61.4556 1318.62 61.3118 1318.62 61V59.4293C1318.62 59.1295 1318.76 58.9736 1319.07 58.9736H1319.36C1319.66 58.9736 1319.8 59.1175 1319.8 59.4293V59.9928H1319.32V59.4772C1319.32 59.4772 1319.29 59.3933 1319.23 59.3933H1319.17C1319.17 59.3933 1319.09 59.4173 1319.09 59.4772V60.94C1319.09 60.94 1319.11 61.024 1319.17 61.024H1319.23C1319.23 61.024 1319.32 61 1319.32 60.94V60.3525H1319.8V60.988L1319.81 61Z" fill="white"/>
<path d="M1320.71 59.0096H1321.19V61.4317H1320.71V60.4125H1320.46V61.4317H1319.97V59.0096H1320.46V59.9808H1320.71V59.0096Z" fill="white"/>
<path d="M1322.6 59.0096V59.5132L1322.61 60.2086L1322.32 59.0096H1321.83V61.4317H1322.25L1322.24 60.7242V60.1127L1322.54 61.4317H1323.01V59.0096H1322.6Z" fill="white"/>
<path d="M1323.91 59.0096H1324.39V61.4317H1323.91V60.4125H1323.67V61.4317H1323.19V59.0096H1323.67V59.9808H1323.91V59.0096Z" fill="white"/>
<path d="M1325.06 59.0096H1324.57V61.4317H1325.06V59.0096Z" fill="white"/>
<path d="M1325.49 62.0432H1325.88V61.6475H1325.49V62.0432ZM1325.24 59.0096V61.4317H1326.14V61H1325.72V60.4245H1326.12V59.9928H1325.72V59.4532H1326.14V59.0216H1325.24V59.0096ZM1325.55 58.6139L1325.37 58.9137H1325.59L1325.68 58.8058L1325.78 58.9137H1325.98L1325.8 58.6139H1325.54H1325.55Z" fill="white"/>
<path d="M1326.68 61.4317H1326.3V59.0096H1327L1327.13 60.4724L1327.27 59.0096H1327.98V61.4317H1327.5V59.8369L1327.32 61.4317H1326.86L1326.68 59.8249V61.4317Z" fill="white"/>
</g>
<defs>
<clipPath id="clip0_313_14316">
<rect width="1440" height="774" fill="white"/>
</clipPath>
</defs>
</svg>
