<svg width="343" height="161" viewBox="0 0 343 161" fill="none" xmlns="http://www.w3.org/2000/svg">
<rect x="0.5" y="0.5" width="342" height="160" rx="7.5" fill="#4DD75A"/>
<rect x="0.5" y="0.5" width="342" height="160" rx="7.5" stroke="#0B4314"/>
<path d="M70.42 41C70.26 41 70.164 40.9307 70.132 40.792L67.46 31.592C67.3427 31.176 67.22 30.8667 67.092 30.664C66.9747 30.4507 66.8253 30.2427 66.644 30.04C66.612 30.008 66.596 29.9707 66.596 29.928C66.596 29.8427 66.644 29.8 66.74 29.8H69.988C70.084 29.8 70.148 29.8213 70.18 29.864C70.212 29.9067 70.2067 29.96 70.164 30.024C70.0147 30.2373 69.94 30.4773 69.94 30.744C69.94 30.8827 69.9773 31.1013 70.052 31.4L71.892 38.168C71.924 38.264 71.972 38.312 72.036 38.312C72.1213 38.312 72.1693 38.264 72.18 38.168L74.068 31.304C74.1213 31.1333 74.148 30.9467 74.148 30.744C74.148 30.4773 74.0733 30.2373 73.924 30.024C73.9027 29.9813 73.892 29.9493 73.892 29.928C73.892 29.8427 73.9613 29.8 74.1 29.8H77.204C77.3 29.8 77.348 29.8427 77.348 29.928C77.348 29.9707 77.332 30.008 77.3 30.04C77.1293 30.232 76.9853 30.4293 76.868 30.632C76.7507 30.8347 76.628 31.1547 76.5 31.592L73.828 40.792C73.796 40.9307 73.7 41 73.54 41H70.42ZM77.813 41C77.7703 41 77.733 40.984 77.701 40.952C77.669 40.92 77.653 40.8827 77.653 40.84V34.552C77.653 33.976 77.6263 33.5493 77.573 33.272C77.5303 32.9947 77.445 32.696 77.317 32.376L77.301 32.312C77.301 32.2373 77.349 32.2 77.445 32.2H79.957C79.9997 32.2 80.037 32.216 80.069 32.248C80.101 32.28 80.117 32.3173 80.117 32.36V40.84C80.117 40.8827 80.101 40.92 80.069 40.952C80.037 40.984 79.9997 41 79.957 41H77.813ZM78.869 31.8C78.4743 31.8 78.1437 31.7147 77.877 31.544C77.6103 31.3733 77.477 31.1227 77.477 30.792C77.477 30.4507 77.605 30.2 77.861 30.04C78.1277 29.88 78.4637 29.8 78.869 29.8C79.285 29.8 79.6263 29.88 79.893 30.04C80.1597 30.2 80.293 30.4507 80.293 30.792C80.293 31.1227 80.1543 31.3733 79.877 31.544C79.6103 31.7147 79.2743 31.8 78.869 31.8ZM81.3286 41C81.286 41 81.2486 40.984 81.2166 40.952C81.1846 40.92 81.1686 40.8827 81.1686 40.84V34.552C81.1686 33.976 81.142 33.5493 81.0886 33.272C81.046 32.9947 80.9606 32.696 80.8326 32.376L80.8166 32.312C80.8166 32.2373 80.8646 32.2 80.9606 32.2H83.3606C83.4033 32.2 83.4406 32.216 83.4726 32.248C83.5046 32.28 83.5206 32.3173 83.5206 32.36V33.304C83.5206 33.4 83.5473 33.448 83.6006 33.448C83.6433 33.448 83.6806 33.4107 83.7126 33.336C84.1606 32.472 84.9606 32.04 86.1126 32.04C87.062 32.04 87.7766 32.3173 88.2566 32.872C88.7366 33.4267 88.9766 34.1627 88.9766 35.08V40.84C88.9766 40.8827 88.9606 40.92 88.9286 40.952C88.8966 40.984 88.8593 41 88.8166 41H86.6726C86.63 41 86.5926 40.984 86.5606 40.952C86.5286 40.92 86.5126 40.8827 86.5126 40.84V35.304C86.5126 34.856 86.3953 34.52 86.1606 34.296C85.926 34.072 85.622 33.96 85.2486 33.96C84.726 33.96 84.326 34.1467 84.0486 34.52C83.7713 34.8933 83.6326 35.4267 83.6326 36.12V40.84C83.6326 40.8827 83.6166 40.92 83.5846 40.952C83.5526 40.984 83.5153 41 83.4726 41H81.3286ZM92.4295 41.16C91.5975 41.16 90.9308 40.9413 90.4295 40.504C89.9388 40.056 89.6935 39.4213 89.6935 38.6C89.6935 37.864 89.9122 37.288 90.3495 36.872C90.7975 36.456 91.5122 36.1573 92.4935 35.976L93.8855 35.72C94.2055 35.656 94.4242 35.5707 94.5415 35.464C94.6695 35.3467 94.7335 35.2027 94.7335 35.032C94.7335 34.744 94.6055 34.5147 94.3495 34.344C94.1042 34.1627 93.7415 34.072 93.2615 34.072C92.6428 34.072 92.1095 34.2267 91.6615 34.536C91.2135 34.8347 90.7975 35.224 90.4135 35.704C90.3708 35.768 90.3228 35.8 90.2695 35.8C90.2162 35.8 90.1895 35.752 90.1895 35.656V33.912C90.1895 33.3147 90.5202 32.856 91.1815 32.536C91.8535 32.2053 92.6695 32.04 93.6295 32.04C94.8562 32.04 95.7415 32.3067 96.2855 32.84C96.8295 33.3627 97.1015 34.04 97.1015 34.872V40.84C97.1015 40.8827 97.0855 40.92 97.0535 40.952C97.0215 40.984 96.9895 41 96.9575 41H94.9255C94.8935 41 94.8562 40.984 94.8135 40.952C94.7815 40.92 94.7655 40.8827 94.7655 40.84V40.04C94.7655 39.9973 94.7495 39.976 94.7175 39.976C94.6748 39.976 94.6375 40.0027 94.6055 40.056C94.3602 40.4507 94.0562 40.7333 93.6935 40.904C93.3415 41.0747 92.9202 41.16 92.4295 41.16ZM93.3255 39.416C93.7628 39.416 94.1042 39.272 94.3495 38.984C94.6055 38.696 94.7335 38.3067 94.7335 37.816V37.192C94.7335 37.064 94.6695 37.0107 94.5415 37.032L93.5495 37.208C92.6428 37.3787 92.1895 37.7627 92.1895 38.36C92.1895 38.7013 92.2908 38.9627 92.4935 39.144C92.6962 39.3253 92.9735 39.416 93.3255 39.416ZM98.2974 41C98.1907 41 98.1374 40.9467 98.1374 40.84V34.552C98.1374 33.976 98.1107 33.5493 98.0574 33.272C98.0147 32.9947 97.9294 32.696 97.8014 32.376L97.7854 32.312C97.7854 32.2373 97.8334 32.2 97.9294 32.2H100.313C100.367 32.2 100.409 32.216 100.441 32.248C100.473 32.28 100.489 32.3173 100.489 32.36V33.304C100.489 33.4 100.516 33.448 100.569 33.448C100.612 33.448 100.649 33.4107 100.681 33.336C101.14 32.472 101.871 32.04 102.873 32.04C103.449 32.04 103.951 32.1787 104.377 32.456C104.804 32.7333 105.119 33.1173 105.321 33.608C105.343 33.672 105.369 33.704 105.401 33.704C105.444 33.704 105.476 33.6773 105.497 33.624C105.743 33.1333 106.036 32.7493 106.377 32.472C106.729 32.184 107.225 32.04 107.865 32.04C108.409 32.04 108.884 32.168 109.289 32.424C109.695 32.6693 110.004 33.0107 110.217 33.448C110.441 33.8853 110.553 34.376 110.553 34.92V40.84C110.553 40.9467 110.5 41 110.393 41H108.265C108.212 41 108.169 40.984 108.137 40.952C108.105 40.92 108.089 40.8827 108.089 40.84V35.16C108.089 34.36 107.748 33.96 107.065 33.96C106.628 33.96 106.271 34.1413 105.993 34.504C105.716 34.856 105.577 35.4053 105.577 36.152V40.84C105.577 40.9467 105.524 41 105.417 41H103.273C103.167 41 103.113 40.9467 103.113 40.84V35.16C103.113 34.36 102.772 33.96 102.089 33.96C101.652 33.96 101.295 34.1413 101.017 34.504C100.74 34.856 100.601 35.4053 100.601 36.152V40.84C100.601 40.8827 100.585 40.92 100.553 40.952C100.521 40.984 100.479 41 100.425 41H98.2974ZM111.704 41C111.661 41 111.624 40.984 111.592 40.952C111.56 40.92 111.544 40.8827 111.544 40.84V34.552C111.544 33.976 111.517 33.5493 111.464 33.272C111.421 32.9947 111.336 32.696 111.208 32.376L111.192 32.312C111.192 32.2373 111.24 32.2 111.336 32.2H113.848C113.89 32.2 113.928 32.216 113.96 32.248C113.992 32.28 114.008 32.3173 114.008 32.36V40.84C114.008 40.8827 113.992 40.92 113.96 40.952C113.928 40.984 113.89 41 113.848 41H111.704ZM112.76 31.8C112.365 31.8 112.034 31.7147 111.768 31.544C111.501 31.3733 111.368 31.1227 111.368 30.792C111.368 30.4507 111.496 30.2 111.752 30.04C112.018 29.88 112.354 29.8 112.76 29.8C113.176 29.8 113.517 29.88 113.784 30.04C114.05 30.2 114.184 30.4507 114.184 30.792C114.184 31.1227 114.045 31.3733 113.768 31.544C113.501 31.7147 113.165 31.8 112.76 31.8ZM115.219 41C115.113 41 115.059 40.9467 115.059 40.84V32.152C115.059 31.576 115.033 31.1493 114.979 30.872C114.937 30.5947 114.851 30.296 114.723 29.976L114.707 29.912C114.707 29.8373 114.755 29.8 114.851 29.8H117.363C117.47 29.8 117.523 29.8533 117.523 29.96V40.84C117.523 40.9467 117.47 41 117.363 41H115.219ZM118.735 41C118.628 41 118.575 40.9467 118.575 40.84V32.152C118.575 31.576 118.548 31.1493 118.495 30.872C118.452 30.5947 118.367 30.296 118.239 29.976L118.223 29.912C118.223 29.8373 118.271 29.8 118.367 29.8H120.879C120.986 29.8 121.039 29.8533 121.039 29.96V36.024C121.039 36.1093 121.066 36.152 121.119 36.152C121.172 36.152 121.21 36.1253 121.231 36.072L123.247 33.144C123.354 32.9733 123.407 32.8133 123.407 32.664C123.407 32.568 123.391 32.488 123.359 32.424C123.348 32.4027 123.343 32.376 123.343 32.344C123.343 32.248 123.386 32.2 123.471 32.2H126.479C126.564 32.2 126.607 32.2373 126.607 32.312C126.607 32.3653 126.58 32.408 126.527 32.44C126.292 32.6 126.079 32.8293 125.887 33.128L123.951 35.976C123.834 36.1467 123.775 36.2853 123.775 36.392C123.775 36.5093 123.828 36.6427 123.935 36.792L126.591 40.808C126.612 40.8293 126.623 40.8613 126.623 40.904C126.623 40.968 126.575 41 126.479 41H123.871C123.786 41 123.722 40.9627 123.679 40.888L121.231 36.92C121.188 36.856 121.151 36.824 121.119 36.824C121.066 36.824 121.039 36.872 121.039 36.968V40.84C121.039 40.9467 120.986 41 120.879 41H118.735ZM127.92 33.736C127.664 33.736 127.461 33.6987 127.312 33.624C127.162 33.5387 127.088 33.4213 127.088 33.272V32.648C127.088 32.6053 127.098 32.5787 127.12 32.568C127.152 32.5467 127.184 32.5467 127.215 32.568C127.333 32.6533 127.445 32.7173 127.552 32.76C127.669 32.8027 127.818 32.824 128 32.824C128.245 32.824 128.442 32.7653 128.592 32.648C128.741 32.52 128.816 32.3653 128.816 32.184C128.816 32.12 128.8 32.0773 128.768 32.056C128.736 32.024 128.688 32.008 128.624 32.008H128.32C127.936 32.008 127.632 31.912 127.408 31.72C127.184 31.5173 127.072 31.2347 127.072 30.872C127.072 30.5307 127.178 30.2427 127.392 30.008C127.616 29.7627 127.936 29.64 128.352 29.64C128.842 29.64 129.216 29.8 129.472 30.12C129.728 30.44 129.856 30.8933 129.856 31.48C129.856 32.1947 129.68 32.7493 129.328 33.144C128.976 33.5387 128.506 33.736 127.92 33.736ZM133.33 41.16C132.242 41.16 131.432 41.0213 130.898 40.744C130.376 40.4667 130.114 40.0667 130.114 39.544V38.056C130.114 37.9493 130.152 37.896 130.226 37.896C130.269 37.896 130.317 37.9227 130.37 37.976C130.701 38.36 131.096 38.6853 131.554 38.952C132.013 39.2187 132.504 39.352 133.026 39.352C133.816 39.352 134.21 39.0533 134.21 38.456C134.21 38.232 134.136 38.0613 133.986 37.944C133.837 37.816 133.57 37.7093 133.186 37.624L132.29 37.416C131.554 37.2453 131.005 36.952 130.642 36.536C130.29 36.1093 130.114 35.5547 130.114 34.872C130.114 34.0187 130.434 33.336 131.074 32.824C131.725 32.3013 132.616 32.04 133.746 32.04C135.517 32.04 136.402 32.5893 136.402 33.688V35.016C136.402 35.1013 136.365 35.144 136.29 35.144C136.237 35.144 136.194 35.1173 136.162 35.064C135.885 34.6373 135.538 34.328 135.122 34.136C134.706 33.9333 134.269 33.832 133.81 33.832C133.416 33.832 133.112 33.912 132.898 34.072C132.685 34.2213 132.578 34.4293 132.578 34.696C132.578 34.9413 132.648 35.128 132.786 35.256C132.936 35.384 133.17 35.48 133.49 35.544L134.466 35.736C135.213 35.8853 135.773 36.168 136.146 36.584C136.53 36.9893 136.722 37.5227 136.722 38.184C136.722 39.0907 136.413 39.816 135.794 40.36C135.186 40.8933 134.365 41.16 133.33 41.16ZM140.367 41C140.26 41 140.207 40.9467 140.207 40.84V32.152C140.207 31.576 140.18 31.1493 140.127 30.872C140.084 30.5947 139.999 30.296 139.871 29.976L139.855 29.912C139.855 29.8373 139.903 29.8 139.999 29.8H143.183C143.279 29.8 143.343 29.8373 143.375 29.912L146.527 36.872C146.559 36.936 146.596 36.968 146.639 36.968C146.714 36.968 146.751 36.9147 146.751 36.808V32.152C146.751 31.576 146.724 31.1493 146.671 30.872C146.628 30.5947 146.543 30.296 146.415 29.976L146.399 29.912C146.399 29.8373 146.447 29.8 146.543 29.8H149.391C149.444 29.8 149.482 29.816 149.503 29.848C149.535 29.88 149.54 29.9227 149.519 29.976C149.391 30.296 149.3 30.5947 149.247 30.872C149.204 31.1493 149.183 31.576 149.183 32.152V40.84C149.183 40.9467 149.13 41 149.023 41H146.207C146.122 41 146.058 40.9627 146.015 40.888L142.847 33.912C142.826 33.8587 142.794 33.832 142.751 33.832C142.676 33.832 142.639 33.88 142.639 33.976V40.84C142.639 40.9467 142.586 41 142.479 41H140.367ZM154.08 42.92C153.45 42.92 152.858 42.8507 152.304 42.712C151.76 42.584 151.338 42.408 151.04 42.184C150.816 42.024 150.704 41.8 150.704 41.512V40.056C150.704 39.9493 150.746 39.896 150.832 39.896C150.874 39.896 150.922 39.9227 150.976 39.976C151.36 40.328 151.786 40.6 152.256 40.792C152.725 40.9733 153.28 41.064 153.92 41.064C154.592 41.064 155.13 40.888 155.536 40.536C155.952 40.184 156.16 39.72 156.16 39.144V38.952C156.16 38.888 156.133 38.856 156.08 38.856C156.037 38.856 156 38.8773 155.968 38.92C155.754 39.2293 155.461 39.496 155.088 39.72C154.714 39.9333 154.25 40.04 153.696 40.04C153.013 40.04 152.4 39.88 151.856 39.56C151.322 39.24 150.901 38.7813 150.592 38.184C150.293 37.576 150.144 36.8613 150.144 36.04C150.144 35.2187 150.293 34.5093 150.592 33.912C150.901 33.304 151.322 32.84 151.856 32.52C152.4 32.2 153.013 32.04 153.696 32.04C154.698 32.04 155.461 32.408 155.984 33.144C156.016 33.1973 156.053 33.224 156.096 33.224C156.128 33.224 156.154 33.2133 156.176 33.192C156.197 33.16 156.208 33.1227 156.208 33.08V32.36C156.208 32.2533 156.261 32.2 156.368 32.2H158.496C158.549 32.2 158.592 32.216 158.624 32.248C158.656 32.28 158.672 32.3173 158.672 32.36V38.68C158.672 40.088 158.261 41.144 157.44 41.848C156.618 42.5627 155.498 42.92 154.08 42.92ZM154.4 37.928C154.944 37.928 155.37 37.7573 155.68 37.416C156 37.064 156.16 36.6053 156.16 36.04C156.16 35.4533 156 34.9787 155.68 34.616C155.37 34.2533 154.944 34.072 154.4 34.072C153.856 34.072 153.424 34.2533 153.104 34.616C152.794 34.9787 152.64 35.4533 152.64 36.04C152.64 36.6053 152.794 37.064 153.104 37.416C153.424 37.7573 153.856 37.928 154.4 37.928ZM159.891 41C159.848 41 159.811 40.984 159.779 40.952C159.747 40.92 159.731 40.8827 159.731 40.84V32.152C159.731 31.576 159.704 31.1493 159.651 30.872C159.608 30.5947 159.523 30.296 159.395 29.976L159.379 29.912C159.379 29.8373 159.427 29.8 159.523 29.8H162.035C162.078 29.8 162.115 29.816 162.147 29.848C162.179 29.88 162.195 29.9173 162.195 29.96V33.24C162.195 33.2827 162.2 33.32 162.211 33.352C162.222 33.3733 162.238 33.384 162.259 33.384C162.302 33.384 162.344 33.3467 162.387 33.272C162.622 32.888 162.899 32.5893 163.219 32.376C163.55 32.152 164.035 32.04 164.675 32.04C165.624 32.04 166.339 32.3173 166.819 32.872C167.299 33.4267 167.539 34.1627 167.539 35.08V40.84C167.539 40.8827 167.523 40.92 167.491 40.952C167.459 40.984 167.422 41 167.379 41H165.235C165.192 41 165.155 40.984 165.123 40.952C165.091 40.92 165.075 40.8827 165.075 40.84V35.304C165.075 34.856 164.958 34.52 164.723 34.296C164.488 34.072 164.184 33.96 163.811 33.96C163.288 33.96 162.888 34.1467 162.611 34.52C162.334 34.8933 162.195 35.4267 162.195 36.12V40.84C162.195 40.8827 162.179 40.92 162.147 40.952C162.115 40.984 162.078 41 162.035 41H159.891ZM172.896 41.16C171.925 41.16 171.083 40.9787 170.368 40.616C169.653 40.2533 169.099 39.7307 168.704 39.048C168.32 38.3547 168.128 37.528 168.128 36.568C168.128 35.5973 168.325 34.7707 168.72 34.088C169.115 33.4053 169.637 32.8933 170.288 32.552C170.939 32.2107 171.643 32.04 172.4 32.04C173.627 32.04 174.587 32.3867 175.28 33.08C175.973 33.7627 176.32 34.712 176.32 35.928C176.32 36.1307 176.315 36.2853 176.304 36.392C176.283 36.7227 176.235 36.9627 176.16 37.112C176.096 37.2613 175.989 37.3627 175.84 37.416C175.701 37.4587 175.472 37.48 175.152 37.48H170.88C170.805 37.48 170.757 37.496 170.736 37.528C170.715 37.5493 170.709 37.5867 170.72 37.64C170.784 38.0667 171.024 38.4133 171.44 38.68C171.867 38.936 172.443 39.064 173.168 39.064C173.616 39.064 174.048 39.0107 174.464 38.904C174.891 38.7973 175.259 38.632 175.568 38.408C175.6 38.3867 175.637 38.376 175.68 38.376C175.744 38.376 175.776 38.4133 175.776 38.488V39.992C175.776 40.2053 175.744 40.3707 175.68 40.488C175.616 40.5947 175.493 40.6907 175.312 40.776C174.8 41.032 173.995 41.16 172.896 41.16ZM173.632 35.848C173.76 35.848 173.845 35.816 173.888 35.752C173.941 35.6773 173.968 35.5653 173.968 35.416C173.968 34.968 173.824 34.6213 173.536 34.376C173.248 34.12 172.864 33.992 172.384 33.992C171.904 33.992 171.509 34.1307 171.2 34.408C170.891 34.6853 170.736 35.032 170.736 35.448C170.736 35.7147 170.848 35.848 171.072 35.848H173.632ZM179.085 41C179.021 41 178.973 40.984 178.941 40.952C178.909 40.9093 178.904 40.8507 178.925 40.776L182.269 30.072C182.323 29.8907 182.44 29.8 182.621 29.8H185.629C185.811 29.8 185.928 29.8907 185.981 30.072L189.341 40.776C189.352 40.7973 189.357 40.824 189.357 40.856C189.357 40.952 189.299 41 189.181 41H186.861C186.755 41 186.685 40.9467 186.653 40.84L186.205 39.256C186.184 39.1707 186.125 39.128 186.029 39.128H182.061C181.965 39.128 181.907 39.1707 181.885 39.256L181.437 40.84C181.405 40.9467 181.336 41 181.229 41H179.085ZM185.421 37.08C185.475 37.08 185.512 37.064 185.533 37.032C185.565 37 185.576 36.9573 185.565 36.904L184.205 32.232C184.173 32.1147 184.12 32.056 184.045 32.056C183.971 32.056 183.917 32.1147 183.885 32.232L182.525 36.904L182.509 36.952C182.509 37.0373 182.563 37.08 182.669 37.08H185.421ZM190.047 41C190.005 41 189.967 40.984 189.935 40.952C189.903 40.92 189.887 40.8827 189.887 40.84V34.552C189.887 33.976 189.861 33.5493 189.807 33.272C189.765 32.9947 189.679 32.696 189.551 32.376L189.535 32.312C189.535 32.2373 189.583 32.2 189.679 32.2H192.079C192.122 32.2 192.159 32.216 192.191 32.248C192.223 32.28 192.239 32.3173 192.239 32.36V33.304C192.239 33.4 192.266 33.448 192.319 33.448C192.362 33.448 192.399 33.4107 192.431 33.336C192.879 32.472 193.679 32.04 194.831 32.04C195.781 32.04 196.495 32.3173 196.975 32.872C197.455 33.4267 197.695 34.1627 197.695 35.08V40.84C197.695 40.8827 197.679 40.92 197.647 40.952C197.615 40.984 197.578 41 197.535 41H195.391C195.349 41 195.311 40.984 195.279 40.952C195.247 40.92 195.231 40.8827 195.231 40.84V35.304C195.231 34.856 195.114 34.52 194.879 34.296C194.645 34.072 194.341 33.96 193.967 33.96C193.445 33.96 193.045 34.1467 192.767 34.52C192.49 34.8933 192.351 35.4267 192.351 36.12V40.84C192.351 40.8827 192.335 40.92 192.303 40.952C192.271 40.984 192.234 41 192.191 41H190.047ZM201.586 41C201.479 41 201.426 40.9467 201.426 40.84V32.152C201.426 31.576 201.399 31.1493 201.346 30.872C201.303 30.5947 201.218 30.296 201.09 29.976L201.074 29.912C201.074 29.8373 201.122 29.8 201.218 29.8H205.586C206.834 29.8 207.89 30.0453 208.754 30.536C209.618 31.0267 210.268 31.6933 210.706 32.536C211.143 33.3787 211.367 34.3333 211.378 35.4C211.367 36.4667 211.143 37.4213 210.706 38.264C210.268 39.1067 209.618 39.7733 208.754 40.264C207.89 40.7547 206.834 41 205.586 41H201.586ZM205.426 38.808C206.151 38.808 206.764 38.6587 207.266 38.36C207.767 38.0507 208.146 37.64 208.402 37.128C208.658 36.6053 208.786 36.0293 208.786 35.4C208.786 34.7707 208.658 34.2 208.402 33.688C208.146 33.1653 207.767 32.7547 207.266 32.456C206.764 32.1467 206.151 31.992 205.426 31.992H204.114C204.007 31.992 203.954 32.0453 203.954 32.152V38.648C203.954 38.7547 204.007 38.808 204.114 38.808H205.426ZM214.633 41.16C213.801 41.16 213.134 40.9413 212.633 40.504C212.142 40.056 211.897 39.4213 211.897 38.6C211.897 37.864 212.115 37.288 212.553 36.872C213.001 36.456 213.715 36.1573 214.697 35.976L216.089 35.72C216.409 35.656 216.627 35.5707 216.745 35.464C216.873 35.3467 216.937 35.2027 216.937 35.032C216.937 34.744 216.809 34.5147 216.553 34.344C216.307 34.1627 215.945 34.072 215.465 34.072C214.846 34.072 214.313 34.2267 213.865 34.536C213.417 34.8347 213.001 35.224 212.617 35.704C212.574 35.768 212.526 35.8 212.473 35.8C212.419 35.8 212.393 35.752 212.393 35.656V33.912C212.393 33.3147 212.723 32.856 213.385 32.536C214.057 32.2053 214.873 32.04 215.833 32.04C217.059 32.04 217.945 32.3067 218.489 32.84C219.033 33.3627 219.305 34.04 219.305 34.872V40.84C219.305 40.8827 219.289 40.92 219.257 40.952C219.225 40.984 219.193 41 219.161 41H217.129C217.097 41 217.059 40.984 217.017 40.952C216.985 40.92 216.969 40.8827 216.969 40.84V40.04C216.969 39.9973 216.953 39.976 216.921 39.976C216.878 39.976 216.841 40.0027 216.809 40.056C216.563 40.4507 216.259 40.7333 215.897 40.904C215.545 41.0747 215.123 41.16 214.633 41.16ZM215.529 39.416C215.966 39.416 216.307 39.272 216.553 38.984C216.809 38.696 216.937 38.3067 216.937 37.816V37.192C216.937 37.064 216.873 37.0107 216.745 37.032L215.753 37.208C214.846 37.3787 214.393 37.7627 214.393 38.36C214.393 38.7013 214.494 38.9627 214.697 39.144C214.899 39.3253 215.177 39.416 215.529 39.416ZM220.501 41C220.458 41 220.421 40.984 220.389 40.952C220.357 40.92 220.34 40.8827 220.34 40.84V34.552C220.34 33.976 220.314 33.5493 220.261 33.272C220.218 32.9947 220.133 32.696 220.005 32.376L219.989 32.312C219.989 32.2373 220.037 32.2 220.133 32.2H222.645C222.687 32.2 222.725 32.216 222.757 32.248C222.789 32.28 222.805 32.3173 222.805 32.36V40.84C222.805 40.8827 222.789 40.92 222.757 40.952C222.725 40.984 222.687 41 222.645 41H220.501ZM221.557 31.8C221.162 31.8 220.831 31.7147 220.565 31.544C220.298 31.3733 220.165 31.1227 220.165 30.792C220.165 30.4507 220.293 30.2 220.549 30.04C220.815 29.88 221.151 29.8 221.557 29.8C221.973 29.8 222.314 29.88 222.581 30.04C222.847 30.2 222.981 30.4507 222.981 30.792C222.981 31.1227 222.842 31.3733 222.565 31.544C222.298 31.7147 221.962 31.8 221.557 31.8ZM224.016 41C223.973 41 223.936 40.984 223.904 40.952C223.872 40.92 223.856 40.8827 223.856 40.84V34.552C223.856 33.976 223.829 33.5493 223.776 33.272C223.733 32.9947 223.648 32.696 223.52 32.376L223.504 32.312C223.504 32.2373 223.552 32.2 223.648 32.2H226.032C226.085 32.2 226.128 32.216 226.16 32.248C226.192 32.28 226.208 32.3173 226.208 32.36V33.672C226.208 33.7253 226.224 33.752 226.256 33.752C226.299 33.752 226.325 33.7253 226.336 33.672C226.656 32.584 227.323 32.04 228.336 32.04C228.763 32.04 228.976 32.1147 228.976 32.264V34.568C228.976 34.664 228.923 34.696 228.816 34.664C228.624 34.6 228.405 34.568 228.16 34.568C227.541 34.568 227.077 34.7227 226.768 35.032C226.469 35.3413 226.32 35.8107 226.32 36.44V40.84C226.32 40.9467 226.267 41 226.16 41H224.016ZM232.193 42.84C231.446 42.84 230.929 42.7973 230.641 42.712C230.396 42.6373 230.273 42.4613 230.273 42.184V40.888C230.273 40.7387 230.348 40.6907 230.497 40.744C230.636 40.7867 230.849 40.8293 231.137 40.872C231.436 40.9147 231.734 40.936 232.033 40.936C232.321 40.936 232.465 40.8507 232.465 40.68C232.465 40.6267 232.417 40.456 232.321 40.168L230.273 34.072C230.124 33.624 229.985 33.288 229.857 33.064C229.74 32.84 229.596 32.632 229.425 32.44C229.393 32.408 229.377 32.3707 229.377 32.328C229.377 32.2427 229.425 32.2 229.521 32.2H232.609C232.705 32.2 232.769 32.2213 232.801 32.264C232.833 32.3067 232.828 32.36 232.785 32.424C232.657 32.616 232.593 32.8453 232.593 33.112C232.593 33.3467 232.641 33.64 232.737 33.992L233.841 37.944C233.873 38.0507 233.926 38.104 234.001 38.104C234.086 38.104 234.14 38.0507 234.161 37.944L235.249 33.752C235.313 33.5067 235.345 33.2987 235.345 33.128C235.345 32.8613 235.276 32.6267 235.137 32.424C235.116 32.3813 235.105 32.3493 235.105 32.328C235.105 32.2427 235.174 32.2 235.313 32.2H238.241C238.337 32.2 238.385 32.2427 238.385 32.328C238.385 32.3707 238.369 32.408 238.337 32.44C238.166 32.6427 238.017 32.8507 237.889 33.064C237.772 33.2773 237.644 33.6027 237.505 34.04L235.425 40.616C235.169 41.4373 234.79 42.0133 234.289 42.344C233.798 42.6747 233.1 42.84 232.193 42.84ZM241.898 41C241.792 41 241.738 40.9467 241.738 40.84V32.152C241.738 31.576 241.712 31.1493 241.658 30.872C241.616 30.5947 241.53 30.296 241.402 29.976L241.386 29.912C241.386 29.8373 241.434 29.8 241.53 29.8H248.81C248.917 29.8 248.97 29.8533 248.97 29.96V32.104C248.97 32.2213 248.901 32.2587 248.762 32.216C248.368 32.0987 248.01 32.0187 247.69 31.976C247.37 31.9333 246.922 31.912 246.346 31.912H244.426C244.32 31.912 244.266 31.9653 244.266 32.072V34.376C244.266 34.4827 244.32 34.536 244.426 34.536H248.186C248.293 34.536 248.346 34.5893 248.346 34.696V36.6C248.346 36.7067 248.293 36.76 248.186 36.76H244.426C244.32 36.76 244.266 36.8133 244.266 36.92V40.84C244.266 40.9467 244.213 41 244.106 41H241.898ZM251.789 41.16C250.957 41.16 250.29 40.9413 249.789 40.504C249.298 40.056 249.053 39.4213 249.053 38.6C249.053 37.864 249.272 37.288 249.709 36.872C250.157 36.456 250.872 36.1573 251.853 35.976L253.245 35.72C253.565 35.656 253.784 35.5707 253.901 35.464C254.029 35.3467 254.093 35.2027 254.093 35.032C254.093 34.744 253.965 34.5147 253.709 34.344C253.464 34.1627 253.101 34.072 252.621 34.072C252.002 34.072 251.469 34.2267 251.021 34.536C250.573 34.8347 250.157 35.224 249.773 35.704C249.73 35.768 249.682 35.8 249.629 35.8C249.576 35.8 249.549 35.752 249.549 35.656V33.912C249.549 33.3147 249.88 32.856 250.541 32.536C251.213 32.2053 252.029 32.04 252.989 32.04C254.216 32.04 255.101 32.3067 255.645 32.84C256.189 33.3627 256.461 34.04 256.461 34.872V40.84C256.461 40.8827 256.445 40.92 256.413 40.952C256.381 40.984 256.349 41 256.317 41H254.285C254.253 41 254.216 40.984 254.173 40.952C254.141 40.92 254.125 40.8827 254.125 40.84V40.04C254.125 39.9973 254.109 39.976 254.077 39.976C254.034 39.976 253.997 40.0027 253.965 40.056C253.72 40.4507 253.416 40.7333 253.053 40.904C252.701 41.0747 252.28 41.16 251.789 41.16ZM252.685 39.416C253.122 39.416 253.464 39.272 253.709 38.984C253.965 38.696 254.093 38.3067 254.093 37.816V37.192C254.093 37.064 254.029 37.0107 253.901 37.032L252.909 37.208C252.002 37.3787 251.549 37.7627 251.549 38.36C251.549 38.7013 251.65 38.9627 251.853 39.144C252.056 39.3253 252.333 39.416 252.685 39.416ZM257.657 41C257.614 41 257.577 40.984 257.545 40.952C257.513 40.92 257.497 40.8827 257.497 40.84V34.552C257.497 33.976 257.47 33.5493 257.417 33.272C257.374 32.9947 257.289 32.696 257.161 32.376L257.145 32.312C257.145 32.2373 257.193 32.2 257.289 32.2H259.673C259.726 32.2 259.769 32.216 259.801 32.248C259.833 32.28 259.849 32.3173 259.849 32.36V33.672C259.849 33.7253 259.865 33.752 259.897 33.752C259.939 33.752 259.966 33.7253 259.977 33.672C260.297 32.584 260.963 32.04 261.977 32.04C262.403 32.04 262.617 32.1147 262.617 32.264V34.568C262.617 34.664 262.563 34.696 262.457 34.664C262.265 34.6 262.046 34.568 261.801 34.568C261.182 34.568 260.718 34.7227 260.409 35.032C260.11 35.3413 259.961 35.8107 259.961 36.44V40.84C259.961 40.9467 259.907 41 259.801 41H257.657ZM263.626 41C263.519 41 263.465 40.9467 263.465 40.84V34.552C263.465 33.976 263.439 33.5493 263.386 33.272C263.343 32.9947 263.258 32.696 263.13 32.376L263.114 32.312C263.114 32.2373 263.162 32.2 263.258 32.2H265.642C265.695 32.2 265.738 32.216 265.77 32.248C265.802 32.28 265.818 32.3173 265.818 32.36V33.304C265.818 33.4 265.844 33.448 265.898 33.448C265.94 33.448 265.978 33.4107 266.01 33.336C266.468 32.472 267.199 32.04 268.202 32.04C268.778 32.04 269.279 32.1787 269.706 32.456C270.132 32.7333 270.447 33.1173 270.65 33.608C270.671 33.672 270.698 33.704 270.73 33.704C270.772 33.704 270.804 33.6773 270.826 33.624C271.071 33.1333 271.364 32.7493 271.706 32.472C272.058 32.184 272.554 32.04 273.194 32.04C273.738 32.04 274.212 32.168 274.618 32.424C275.023 32.6693 275.332 33.0107 275.546 33.448C275.77 33.8853 275.882 34.376 275.882 34.92V40.84C275.882 40.9467 275.828 41 275.722 41H273.594C273.54 41 273.498 40.984 273.466 40.952C273.434 40.92 273.418 40.8827 273.418 40.84V35.16C273.418 34.36 273.076 33.96 272.394 33.96C271.956 33.96 271.599 34.1413 271.322 34.504C271.044 34.856 270.906 35.4053 270.906 36.152V40.84C270.906 40.9467 270.852 41 270.746 41H268.602C268.495 41 268.442 40.9467 268.442 40.84V35.16C268.442 34.36 268.1 33.96 267.418 33.96C266.98 33.96 266.623 34.1413 266.346 34.504C266.068 34.856 265.93 35.4053 265.93 36.152V40.84C265.93 40.8827 265.914 40.92 265.882 40.952C265.85 40.984 265.807 41 265.754 41H263.626Z" fill="white"/>
<path d="M60.393 70.28C56.837 70.28 54.737 67.228 54.737 60.2C54.737 53.172 56.837 50.12 60.393 50.12C61.289 50.12 62.213 50.344 62.857 50.848C63.417 51.296 63.529 51.856 63.529 52.528V54.852C63.529 55.272 63.361 55.468 63.109 55.468C62.801 55.468 62.605 55.216 62.353 54.908C62.073 54.572 61.709 54.208 61.093 54.208C59.693 54.208 58.993 55.972 58.993 60.2C58.993 64.428 59.693 66.192 61.093 66.192C61.709 66.192 62.073 65.828 62.353 65.492C62.605 65.184 62.773 64.932 63.081 64.932C63.333 64.932 63.529 65.128 63.529 65.548V67.872C63.529 68.544 63.417 69.104 62.857 69.552C62.213 70.056 61.289 70.28 60.393 70.28ZM69.5213 70.28C66.1893 70.28 64.0893 67.788 64.0893 60.2C64.0893 52.612 66.1893 50.12 69.5213 50.12C72.8533 50.12 74.9813 52.612 74.9813 60.2C74.9813 67.788 72.8533 70.28 69.5213 70.28ZM69.5213 66.36C70.1653 66.36 70.6973 65.632 70.6973 60.2C70.6973 54.74 70.1653 54.04 69.5213 54.04C68.8773 54.04 68.3733 54.74 68.3733 60.2C68.3733 65.632 68.8773 66.36 69.5213 66.36ZM76.689 70C76.325 70 76.129 69.804 76.129 69.44V54.796C76.129 52.388 76.045 51.996 75.793 50.82C75.737 50.568 75.877 50.4 76.129 50.4H81.169C81.785 50.4 82.009 50.568 82.065 51.212L82.849 59.948C82.877 60.172 82.961 60.256 83.101 60.256C83.241 60.256 83.353 60.172 83.381 59.948L84.165 51.212C84.221 50.568 84.445 50.4 85.061 50.4H90.297C90.549 50.4 90.689 50.568 90.633 50.82C90.381 51.996 90.297 52.388 90.297 54.796V69.44C90.297 69.804 90.101 70 89.737 70H87.021C86.657 70 86.461 69.804 86.461 69.44C86.461 65.492 86.517 61.124 86.573 56.896C86.573 56.7 86.517 56.56 86.321 56.56C86.181 56.56 86.069 56.644 86.041 56.868L84.501 69.468C84.445 69.832 84.221 70 83.885 70H82.261C81.925 70 81.701 69.832 81.645 69.468L80.105 56.84C80.077 56.644 79.993 56.56 79.825 56.56C79.629 56.56 79.573 56.728 79.573 56.896C79.629 61.124 79.685 65.492 79.685 69.44C79.685 69.804 79.489 70 79.125 70H76.689ZM92.357 70C91.993 70 91.797 69.804 91.797 69.44V54.796C91.797 52.388 91.713 51.996 91.461 50.82C91.405 50.568 91.545 50.4 91.797 50.4H96.837C97.453 50.4 97.677 50.568 97.733 51.212L98.517 59.948C98.545 60.172 98.629 60.256 98.769 60.256C98.909 60.256 99.021 60.172 99.049 59.948L99.833 51.212C99.889 50.568 100.113 50.4 100.729 50.4H105.965C106.217 50.4 106.357 50.568 106.301 50.82C106.049 51.996 105.965 52.388 105.965 54.796V69.44C105.965 69.804 105.769 70 105.405 70H102.689C102.325 70 102.129 69.804 102.129 69.44C102.129 65.492 102.185 61.124 102.241 56.896C102.241 56.7 102.185 56.56 101.989 56.56C101.849 56.56 101.737 56.644 101.709 56.868L100.169 69.468C100.113 69.832 99.889 70 99.553 70H97.929C97.593 70 97.369 69.832 97.313 69.468L95.773 56.84C95.745 56.644 95.661 56.56 95.493 56.56C95.297 56.56 95.241 56.728 95.241 56.896C95.297 61.124 95.353 65.492 95.353 69.44C95.353 69.804 95.157 70 94.793 70H92.357ZM108.025 70C107.661 70 107.465 69.804 107.465 69.44V54.796C107.465 52.388 107.381 51.996 107.129 50.82C107.073 50.568 107.213 50.4 107.465 50.4H111.525C111.777 50.4 111.917 50.568 111.861 50.82C111.609 51.996 111.525 52.388 111.525 54.796V69.44C111.525 69.804 111.329 70 110.965 70H108.025ZM115.843 70C115.479 70 115.283 69.804 115.283 69.44V54.46C115.283 54.208 115.171 53.984 114.751 53.984C114.303 53.984 114.023 54.208 113.267 54.824C112.875 55.132 112.511 55.244 112.511 54.768V50.96C112.511 50.596 112.707 50.4 113.071 50.4H121.555C121.919 50.4 122.115 50.596 122.115 50.96V54.768C122.115 55.244 121.751 55.132 121.359 54.824C120.603 54.208 120.323 53.984 119.875 53.984C119.455 53.984 119.343 54.208 119.343 54.46V69.44C119.343 69.804 119.147 70 118.783 70H115.843ZM125.906 70C125.542 70 125.346 69.804 125.346 69.44V54.46C125.346 54.208 125.234 53.984 124.814 53.984C124.366 53.984 124.086 54.208 123.33 54.824C122.938 55.132 122.574 55.244 122.574 54.768V50.96C122.574 50.596 122.77 50.4 123.134 50.4H131.618C131.982 50.4 132.178 50.596 132.178 50.96V54.768C132.178 55.244 131.814 55.132 131.422 54.824C130.666 54.208 130.386 53.984 129.938 53.984C129.518 53.984 129.406 54.208 129.406 54.46V69.44C129.406 69.804 129.21 70 128.846 70H125.906ZM133.728 70C133.364 70 133.168 69.804 133.168 69.44V55.076C133.168 52.668 133.084 51.996 132.832 50.82C132.776 50.568 132.916 50.4 133.168 50.4H140.616C140.784 50.4 140.896 50.512 140.896 50.68V54.572C140.896 54.88 140.644 54.936 140.336 54.768C139.272 54.208 138.684 54.012 138.04 54.012C137.396 54.012 137.228 54.264 137.228 54.712V57.848C137.228 58.016 137.34 58.128 137.508 58.128H140.168C140.336 58.128 140.448 58.24 140.448 58.408V61.74C140.448 61.908 140.336 62.02 140.168 62.02H137.508C137.34 62.02 137.228 62.132 137.228 62.3V65.8C137.228 65.968 137.34 66.08 137.508 66.08H140.7C140.868 66.08 140.98 66.192 140.98 66.36V69.72C140.98 69.888 140.868 70 140.7 70H133.728ZM142.67 70C142.306 70 142.11 69.804 142.11 69.44V55.076C142.11 52.668 142.026 51.996 141.774 50.82C141.718 50.568 141.858 50.4 142.11 50.4H146.618C150.454 50.4 152.526 53.172 152.526 60.2C152.526 67.228 150.454 70 146.618 70H142.67ZM146.534 66.164C147.43 66.164 148.27 65.24 148.27 60.2C148.27 55.16 147.43 54.236 146.534 54.236H146.45C146.282 54.236 146.17 54.348 146.17 54.516V65.884C146.17 66.052 146.282 66.164 146.45 66.164H146.534ZM159.894 70C159.53 70 159.334 69.804 159.334 69.44V54.46C159.334 54.208 159.222 53.984 158.802 53.984C158.354 53.984 158.074 54.208 157.318 54.824C156.926 55.132 156.562 55.244 156.562 54.768V50.96C156.562 50.596 156.758 50.4 157.122 50.4H165.606C165.97 50.4 166.166 50.596 166.166 50.96V54.768C166.166 55.244 165.802 55.132 165.41 54.824C164.654 54.208 164.374 53.984 163.926 53.984C163.506 53.984 163.394 54.208 163.394 54.46V69.44C163.394 69.804 163.198 70 162.834 70H159.894ZM171.842 70.28C168.51 70.28 166.41 67.788 166.41 60.2C166.41 52.612 168.51 50.12 171.842 50.12C175.174 50.12 177.302 52.612 177.302 60.2C177.302 67.788 175.174 70.28 171.842 70.28ZM171.842 66.36C172.486 66.36 173.018 65.632 173.018 60.2C173.018 54.74 172.486 54.04 171.842 54.04C171.198 54.04 170.694 54.74 170.694 60.2C170.694 65.632 171.198 66.36 171.842 66.36ZM182.427 70C182.063 70 181.867 69.804 181.867 69.44V54.796C181.867 52.388 181.783 51.996 181.531 50.82C181.475 50.568 181.615 50.4 181.867 50.4H186.907C187.523 50.4 187.747 50.568 187.803 51.212L188.587 59.948C188.615 60.172 188.699 60.256 188.839 60.256C188.979 60.256 189.091 60.172 189.119 59.948L189.903 51.212C189.959 50.568 190.183 50.4 190.799 50.4H196.035C196.287 50.4 196.427 50.568 196.371 50.82C196.119 51.996 196.035 52.388 196.035 54.796V69.44C196.035 69.804 195.839 70 195.475 70H192.759C192.395 70 192.199 69.804 192.199 69.44C192.199 65.492 192.255 61.124 192.311 56.896C192.311 56.7 192.255 56.56 192.059 56.56C191.919 56.56 191.807 56.644 191.779 56.868L190.239 69.468C190.183 69.832 189.959 70 189.623 70H187.999C187.663 70 187.439 69.832 187.383 69.468L185.843 56.84C185.815 56.644 185.731 56.56 185.563 56.56C185.367 56.56 185.311 56.728 185.311 56.896C185.367 61.124 185.423 65.492 185.423 69.44C185.423 69.804 185.227 70 184.863 70H182.427ZM197.395 70C197.087 70 196.919 69.86 196.947 69.58L198.711 53.116C198.823 52.052 198.767 51.52 198.655 50.932C198.599 50.568 198.767 50.4 199.019 50.4H205.487C205.739 50.4 205.907 50.568 205.823 50.932C205.711 51.464 205.627 51.968 205.739 53.116L207.503 69.58C207.531 69.86 207.363 70 207.055 70H203.975C203.723 70 203.555 69.86 203.527 69.636L203.275 67.172C203.247 66.892 203.107 66.752 202.827 66.752H201.399C201.119 66.752 200.951 66.892 200.923 67.172L200.671 69.636C200.643 69.888 200.447 70 200.223 70H197.395ZM202.519 63C202.827 63 202.883 62.86 202.855 62.636C202.659 60.368 202.519 58.772 202.407 55.664C202.407 55.412 202.295 55.272 202.099 55.272C201.903 55.272 201.791 55.412 201.791 55.664C201.679 58.772 201.539 60.368 201.343 62.636C201.315 62.86 201.371 63 201.679 63H202.519ZM208.978 70C208.614 70 208.418 69.804 208.418 69.44V54.796C208.418 52.388 208.334 51.996 208.082 50.82C208.026 50.568 208.166 50.4 208.418 50.4H212.478C212.73 50.4 212.87 50.568 212.814 50.82C212.562 51.996 212.478 52.388 212.478 54.796V69.44C212.478 69.804 212.282 70 211.918 70H208.978ZM214.556 70C214.192 70 213.996 69.804 213.996 69.44V54.796C213.996 52.388 213.912 51.996 213.66 50.82C213.604 50.568 213.744 50.4 213.996 50.4H217.244C217.58 50.4 217.804 50.568 217.86 50.876L219.652 59.36C219.68 59.556 219.792 59.668 219.96 59.668C220.156 59.668 220.212 59.528 220.212 59.304C220.184 58.548 220.24 56.112 220.184 54.516C220.1 52.388 220.016 51.996 219.764 50.82C219.708 50.568 219.848 50.4 220.1 50.4H223.768C224.02 50.4 224.16 50.568 224.104 50.82C223.852 51.996 223.768 52.388 223.768 54.796V69.44C223.768 69.804 223.572 70 223.208 70H220.52C220.184 70 219.96 69.832 219.904 69.524L218.084 61.012C218.056 60.816 217.944 60.732 217.804 60.732C217.636 60.732 217.524 60.844 217.524 61.068C217.608 62.944 217.692 66.836 217.692 69.44C217.692 69.804 217.496 70 217.132 70H214.556ZM228.089 70C227.725 70 227.529 69.804 227.529 69.44V54.46C227.529 54.208 227.417 53.984 226.997 53.984C226.549 53.984 226.269 54.208 225.513 54.824C225.121 55.132 224.757 55.244 224.757 54.768V50.96C224.757 50.596 224.953 50.4 225.317 50.4H233.801C234.165 50.4 234.361 50.596 234.361 50.96V54.768C234.361 55.244 233.997 55.132 233.605 54.824C232.849 54.208 232.569 53.984 232.121 53.984C231.701 53.984 231.589 54.208 231.589 54.46V69.44C231.589 69.804 231.393 70 231.029 70H228.089ZM234.364 70C234.056 70 233.888 69.86 233.916 69.58L235.68 53.116C235.792 52.052 235.736 51.52 235.624 50.932C235.568 50.568 235.736 50.4 235.988 50.4H242.456C242.708 50.4 242.876 50.568 242.792 50.932C242.68 51.464 242.596 51.968 242.708 53.116L244.472 69.58C244.5 69.86 244.332 70 244.024 70H240.944C240.692 70 240.524 69.86 240.496 69.636L240.244 67.172C240.216 66.892 240.076 66.752 239.796 66.752H238.368C238.088 66.752 237.92 66.892 237.892 67.172L237.64 69.636C237.612 69.888 237.416 70 237.192 70H234.364ZM239.488 63C239.796 63 239.852 62.86 239.824 62.636C239.628 60.368 239.488 58.772 239.376 55.664C239.376 55.412 239.264 55.272 239.068 55.272C238.872 55.272 238.76 55.412 238.76 55.664C238.648 58.772 238.508 60.368 238.312 62.636C238.284 62.86 238.34 63 238.648 63H239.488ZM245.947 70C245.583 70 245.387 69.804 245.387 69.44V54.796C245.387 52.388 245.303 51.996 245.051 50.82C244.995 50.568 245.135 50.4 245.387 50.4H249.447C249.699 50.4 249.839 50.568 249.783 50.82C249.531 51.996 249.447 52.388 249.447 54.796V69.44C249.447 69.804 249.251 70 248.887 70H245.947ZM251.525 70C251.161 70 250.965 69.804 250.965 69.44V54.796C250.965 52.388 250.881 51.996 250.629 50.82C250.573 50.568 250.713 50.4 250.965 50.4H254.213C254.549 50.4 254.773 50.568 254.829 50.876L256.621 59.36C256.649 59.556 256.761 59.668 256.929 59.668C257.125 59.668 257.181 59.528 257.181 59.304C257.153 58.548 257.209 56.112 257.153 54.516C257.069 52.388 256.985 51.996 256.733 50.82C256.677 50.568 256.817 50.4 257.069 50.4H260.737C260.989 50.4 261.129 50.568 261.073 50.82C260.821 51.996 260.737 52.388 260.737 54.796V69.44C260.737 69.804 260.541 70 260.177 70H257.489C257.153 70 256.929 69.832 256.873 69.524L255.053 61.012C255.025 60.816 254.913 60.732 254.773 60.732C254.605 60.732 254.493 60.844 254.493 61.068C254.577 62.944 254.661 66.836 254.661 69.44C254.661 69.804 254.465 70 254.101 70H251.525ZM262.818 70C262.454 70 262.258 69.804 262.258 69.44V54.796C262.258 52.388 262.174 51.996 261.922 50.82C261.866 50.568 262.006 50.4 262.258 50.4H266.318C266.57 50.4 266.71 50.568 266.654 50.82C266.402 51.996 266.318 52.388 266.318 54.796V69.44C266.318 69.804 266.122 70 265.758 70H262.818ZM268.396 70C268.032 70 267.836 69.804 267.836 69.44V54.796C267.836 52.388 267.752 51.996 267.5 50.82C267.444 50.568 267.584 50.4 267.836 50.4H271.084C271.42 50.4 271.644 50.568 271.7 50.876L273.492 59.36C273.52 59.556 273.632 59.668 273.8 59.668C273.996 59.668 274.052 59.528 274.052 59.304C274.024 58.548 274.08 56.112 274.024 54.516C273.94 52.388 273.856 51.996 273.604 50.82C273.548 50.568 273.688 50.4 273.94 50.4H277.608C277.86 50.4 278 50.568 277.944 50.82C277.692 51.996 277.608 52.388 277.608 54.796V69.44C277.608 69.804 277.412 70 277.048 70H274.36C274.024 70 273.8 69.832 273.744 69.524L271.924 61.012C271.896 60.816 271.784 60.732 271.644 60.732C271.476 60.732 271.364 60.844 271.364 61.068C271.448 62.944 271.532 66.836 271.532 69.44C271.532 69.804 271.336 70 270.972 70H268.396ZM284.309 70.28C280.389 70.28 278.737 66.948 278.737 60.2C278.737 53.144 280.865 50.12 284.533 50.12C285.597 50.12 286.717 50.288 287.333 50.932C287.669 51.268 287.809 51.688 287.809 52.276V54.824C287.809 55.188 287.725 55.496 287.389 55.496C287.193 55.496 287.025 55.412 286.661 54.992C286.353 54.628 285.961 54.208 285.289 54.208C283.721 54.208 282.965 56.056 282.965 60.256C282.965 61.404 283.021 66.472 284.225 66.472C284.477 66.472 284.589 66.22 284.589 65.828V63.364C284.589 60.956 284.505 60.564 284.253 59.388C284.197 59.136 284.337 58.968 284.589 58.968H287.613C287.977 58.968 288.201 59.164 288.201 59.528V65.688C288.201 69.104 286.381 70.28 284.309 70.28ZM43.2613 99C42.8973 99 42.7013 98.804 42.7013 98.44V83.796C42.7013 81.388 42.6173 80.996 42.3653 79.82C42.3093 79.568 42.4493 79.4 42.7013 79.4H45.9493C46.2853 79.4 46.5093 79.568 46.5653 79.876L48.3573 88.36C48.3853 88.556 48.4973 88.668 48.6653 88.668C48.8613 88.668 48.9173 88.528 48.9173 88.304C48.8893 87.548 48.9453 85.112 48.8893 83.516C48.8053 81.388 48.7213 80.996 48.4693 79.82C48.4133 79.568 48.5533 79.4 48.8053 79.4H52.4733C52.7253 79.4 52.8653 79.568 52.8093 79.82C52.5573 80.996 52.4733 81.388 52.4733 83.796V98.44C52.4733 98.804 52.2773 99 51.9133 99H49.2253C48.8893 99 48.6653 98.832 48.6093 98.524L46.7893 90.012C46.7613 89.816 46.6493 89.732 46.5093 89.732C46.3413 89.732 46.2293 89.844 46.2293 90.068C46.3133 91.944 46.3973 95.836 46.3973 98.44C46.3973 98.804 46.2013 99 45.8373 99H43.2613ZM54.5543 99C54.1903 99 53.9943 98.804 53.9943 98.44V84.076C53.9943 81.668 53.9103 80.996 53.6583 79.82C53.6023 79.568 53.7423 79.4 53.9943 79.4H61.4423C61.6103 79.4 61.7223 79.512 61.7223 79.68V83.572C61.7223 83.88 61.4703 83.936 61.1623 83.768C60.0983 83.208 59.5103 83.012 58.8663 83.012C58.2223 83.012 58.0543 83.264 58.0543 83.712V86.848C58.0543 87.016 58.1663 87.128 58.3343 87.128H60.9943C61.1623 87.128 61.2743 87.24 61.2743 87.408V90.74C61.2743 90.908 61.1623 91.02 60.9943 91.02H58.3343C58.1663 91.02 58.0543 91.132 58.0543 91.3V94.8C58.0543 94.968 58.1663 95.08 58.3343 95.08H61.5263C61.6943 95.08 61.8063 95.192 61.8063 95.36V98.72C61.8063 98.888 61.6943 99 61.5263 99H54.5543ZM67.8357 99.28C64.6997 99.28 62.9077 97.376 62.9077 93.932V84.076C62.9077 81.668 62.8237 80.996 62.5717 79.82C62.5157 79.568 62.6557 79.4 62.9077 79.4H66.9677C67.2197 79.4 67.3597 79.568 67.3037 79.82C67.0517 80.996 66.9677 81.668 66.9677 84.076V93.988C66.9677 94.716 67.3037 95.108 67.8357 95.108C68.3397 95.108 68.6757 94.716 68.6757 93.988V84.076C68.6757 81.668 68.5917 80.996 68.3397 79.82C68.2837 79.568 68.4237 79.4 68.6757 79.4H72.7357C72.9877 79.4 73.1277 79.568 73.0717 79.82C72.8197 80.996 72.7357 81.668 72.7357 84.076V93.932C72.7357 97.376 70.9437 99.28 67.8357 99.28ZM77.0287 99C76.6647 99 76.4687 98.804 76.4687 98.44V83.46C76.4687 83.208 76.3567 82.984 75.9367 82.984C75.4887 82.984 75.2087 83.208 74.4527 83.824C74.0607 84.132 73.6967 84.244 73.6967 83.768V79.96C73.6967 79.596 73.8927 79.4 74.2567 79.4H82.7407C83.1047 79.4 83.3007 79.596 83.3007 79.96V83.768C83.3007 84.244 82.9367 84.132 82.5447 83.824C81.7887 83.208 81.5087 82.984 81.0607 82.984C80.6407 82.984 80.5287 83.208 80.5287 83.46V98.44C80.5287 98.804 80.3327 99 79.9687 99H77.0287ZM84.8512 99C84.4872 99 84.2912 98.804 84.2912 98.44V84.076C84.2912 81.668 84.2072 80.996 83.9552 79.82C83.8992 79.568 84.0392 79.4 84.2912 79.4H88.8272C92.4392 79.4 94.0912 82.116 94.0912 86.288C94.0912 87.996 93.7272 89.564 93.0552 90.628C92.6072 91.328 92.5512 91.944 92.6912 92.532L94.1752 98.328C94.2312 98.552 94.2312 99 93.6992 99H90.7032C90.3672 99 90.1712 98.832 90.0872 98.468L88.8832 93.008C88.8272 92.784 88.7712 92.588 88.5472 92.588C88.3512 92.588 88.2672 92.756 88.2672 93.036V98.44C88.2672 98.804 88.0712 99 87.7072 99H84.8512ZM88.7712 89.844C89.4992 89.844 90.0592 88.864 90.0592 86.344C90.0592 83.852 89.4992 82.872 88.7712 82.872H88.6592C88.4072 82.872 88.2672 83.012 88.2672 83.264V89.452C88.2672 89.704 88.4072 89.844 88.6592 89.844H88.7712ZM95.1707 99C94.8627 99 94.6947 98.86 94.7227 98.58L96.4867 82.116C96.5987 81.052 96.5427 80.52 96.4307 79.932C96.3747 79.568 96.5427 79.4 96.7947 79.4H103.263C103.515 79.4 103.683 79.568 103.599 79.932C103.487 80.464 103.403 80.968 103.515 82.116L105.279 98.58C105.307 98.86 105.139 99 104.831 99H101.751C101.499 99 101.331 98.86 101.303 98.636L101.051 96.172C101.023 95.892 100.883 95.752 100.603 95.752H99.1747C98.8947 95.752 98.7267 95.892 98.6987 96.172L98.4467 98.636C98.4187 98.888 98.2227 99 97.9987 99H95.1707ZM100.295 92C100.603 92 100.659 91.86 100.631 91.636C100.435 89.368 100.295 87.772 100.183 84.664C100.183 84.412 100.071 84.272 99.8747 84.272C99.6787 84.272 99.5667 84.412 99.5667 84.664C99.4547 87.772 99.3147 89.368 99.1187 91.636C99.0907 91.86 99.1467 92 99.4547 92H100.295ZM106.754 99C106.39 99 106.194 98.804 106.194 98.44V84.076C106.194 81.668 106.11 80.996 105.858 79.82C105.802 79.568 105.942 79.4 106.194 79.4H110.254C110.506 79.4 110.646 79.568 110.59 79.82C110.338 80.996 110.254 81.668 110.254 84.076V94.8C110.254 94.968 110.366 95.08 110.534 95.08H113.726C113.894 95.08 114.006 95.192 114.006 95.36V98.72C114.006 98.888 113.894 99 113.726 99H106.754ZM115.476 99C115.112 99 114.916 98.804 114.916 98.44V83.796C114.916 81.388 114.832 80.996 114.58 79.82C114.524 79.568 114.664 79.4 114.916 79.4H118.976C119.228 79.4 119.368 79.568 119.312 79.82C119.06 80.996 118.976 81.388 118.976 83.796V98.44C118.976 98.804 118.78 99 118.416 99H115.476ZM123.294 99C122.93 99 122.734 98.804 122.734 98.44V83.46C122.734 83.208 122.622 82.984 122.202 82.984C121.754 82.984 121.474 83.208 120.718 83.824C120.326 84.132 119.962 84.244 119.962 83.768V79.96C119.962 79.596 120.158 79.4 120.522 79.4H129.006C129.37 79.4 129.566 79.596 129.566 79.96V83.768C129.566 84.244 129.202 84.132 128.81 83.824C128.054 83.208 127.774 82.984 127.326 82.984C126.906 82.984 126.794 83.208 126.794 83.46V98.44C126.794 98.804 126.598 99 126.234 99H123.294ZM133.942 99C133.578 99 133.382 98.804 133.382 98.44V96.34C133.382 94.548 133.27 93.848 132.654 91.076L130.806 82.872C130.47 81.388 130.302 80.94 129.769 79.792C129.657 79.568 129.769 79.4 129.994 79.4H134.502C134.726 79.4 134.81 79.624 134.782 79.792C134.614 80.436 134.446 81.024 134.782 82.788C134.978 83.852 135.034 84.888 135.23 86.82C135.258 87.1 135.314 87.324 135.538 87.324C135.762 87.324 135.818 87.1 135.846 86.82C136.042 84.888 136.126 83.852 136.322 82.788C136.658 81.024 136.49 80.436 136.322 79.792C136.294 79.624 136.378 79.4 136.602 79.4H140.718C140.942 79.4 141.054 79.568 140.942 79.792C140.41 80.94 140.214 81.388 139.906 82.872L138.198 91.076C137.61 93.848 137.442 94.548 137.442 96.34V98.44C137.442 98.804 137.246 99 136.882 99H133.942ZM149.652 99.28C146.32 99.28 144.22 96.788 144.22 89.2C144.22 81.612 146.32 79.12 149.652 79.12C152.984 79.12 155.112 81.612 155.112 89.2C155.112 96.788 152.984 99.28 149.652 99.28ZM149.652 95.36C150.296 95.36 150.828 94.632 150.828 89.2C150.828 83.74 150.296 83.04 149.652 83.04C149.008 83.04 148.504 83.74 148.504 89.2C148.504 94.632 149.008 95.36 149.652 95.36ZM156.82 99C156.456 99 156.26 98.804 156.26 98.44V84.076C156.26 81.668 156.176 80.996 155.924 79.82C155.868 79.568 156.008 79.4 156.26 79.4H163.708C163.876 79.4 163.988 79.512 163.988 79.68V83.572C163.988 83.88 163.736 83.936 163.428 83.768C162.364 83.208 161.776 83.012 161.132 83.012C160.488 83.012 160.32 83.264 160.32 83.712V86.848C160.32 87.016 160.432 87.128 160.6 87.128H163.26C163.428 87.128 163.54 87.24 163.54 87.408V90.74C163.54 90.908 163.428 91.02 163.26 91.02H160.6C160.432 91.02 160.32 91.132 160.32 91.3V98.44C160.32 98.804 160.124 99 159.76 99H156.82ZM168.261 99C167.953 99 167.785 98.86 167.813 98.58L169.577 82.116C169.689 81.052 169.633 80.52 169.521 79.932C169.465 79.568 169.633 79.4 169.885 79.4H176.353C176.605 79.4 176.773 79.568 176.689 79.932C176.577 80.464 176.493 80.968 176.605 82.116L178.369 98.58C178.397 98.86 178.229 99 177.921 99H174.841C174.589 99 174.421 98.86 174.393 98.636L174.141 96.172C174.113 95.892 173.973 95.752 173.693 95.752H172.265C171.985 95.752 171.817 95.892 171.789 96.172L171.537 98.636C171.509 98.888 171.313 99 171.089 99H168.261ZM173.385 92C173.693 92 173.749 91.86 173.721 91.636C173.525 89.368 173.385 87.772 173.273 84.664C173.273 84.412 173.161 84.272 172.965 84.272C172.769 84.272 172.657 84.412 172.657 84.664C172.545 87.772 172.405 89.368 172.209 91.636C172.181 91.86 172.237 92 172.545 92H173.385ZM179.843 99C179.479 99 179.283 98.804 179.283 98.44V84.076C179.283 81.668 179.199 80.996 178.947 79.82C178.891 79.568 179.031 79.4 179.283 79.4H183.651C187.599 79.4 189.083 82.172 189.083 86.484C189.083 90.628 187.711 93.4 183.819 93.4H183.595C183.371 93.4 183.259 93.512 183.259 93.736V98.44C183.259 98.804 183.063 99 182.699 99H179.843ZM183.763 90.04C184.547 90.04 185.051 89.06 185.051 86.484C185.051 83.936 184.547 82.956 183.763 82.956H183.595C183.399 82.956 183.259 83.096 183.259 83.32V89.676C183.259 89.872 183.371 90.04 183.595 90.04H183.763ZM190.562 99C190.198 99 190.002 98.804 190.002 98.44V84.076C190.002 81.668 189.918 80.996 189.666 79.82C189.61 79.568 189.75 79.4 190.002 79.4H194.37C198.318 79.4 199.802 82.172 199.802 86.484C199.802 90.628 198.43 93.4 194.538 93.4H194.314C194.09 93.4 193.978 93.512 193.978 93.736V98.44C193.978 98.804 193.782 99 193.418 99H190.562ZM194.482 90.04C195.266 90.04 195.77 89.06 195.77 86.484C195.77 83.936 195.266 82.956 194.482 82.956H194.314C194.118 82.956 193.978 83.096 193.978 83.32V89.676C193.978 89.872 194.09 90.04 194.314 90.04H194.482ZM201.281 99C200.917 99 200.721 98.804 200.721 98.44V84.076C200.721 81.668 200.637 80.996 200.385 79.82C200.329 79.568 200.469 79.4 200.721 79.4H205.257C208.869 79.4 210.521 82.116 210.521 86.288C210.521 87.996 210.157 89.564 209.485 90.628C209.037 91.328 208.981 91.944 209.121 92.532L210.605 98.328C210.661 98.552 210.661 99 210.129 99H207.133C206.797 99 206.601 98.832 206.517 98.468L205.313 93.008C205.257 92.784 205.201 92.588 204.977 92.588C204.781 92.588 204.697 92.756 204.697 93.036V98.44C204.697 98.804 204.501 99 204.137 99H201.281ZM205.201 89.844C205.929 89.844 206.489 88.864 206.489 86.344C206.489 83.852 205.929 82.872 205.201 82.872H205.089C204.837 82.872 204.697 83.012 204.697 83.264V89.452C204.697 89.704 204.837 89.844 205.089 89.844H205.201ZM216.672 99.28C213.34 99.28 211.24 96.788 211.24 89.2C211.24 81.612 213.34 79.12 216.672 79.12C220.004 79.12 222.132 81.612 222.132 89.2C222.132 96.788 220.004 99.28 216.672 99.28ZM216.672 95.36C217.316 95.36 217.848 94.632 217.848 89.2C217.848 83.74 217.316 83.04 216.672 83.04C216.028 83.04 215.524 83.74 215.524 89.2C215.524 94.632 216.028 95.36 216.672 95.36ZM223.01 99C222.73 99 222.562 98.804 222.59 98.524L223.374 91.776C223.542 90.348 223.598 89.368 223.598 88.388C223.598 87.576 223.57 86.764 223.402 85.56L223.066 83.236C222.842 81.668 222.646 80.856 222.226 79.82C222.142 79.596 222.198 79.4 222.45 79.4H226.734C227.042 79.4 227.07 79.624 227.042 79.848C226.986 80.24 226.93 80.604 226.93 81.192C226.93 82.424 227.182 83.964 227.462 86.568C227.49 86.848 227.574 86.96 227.742 86.96C227.91 86.96 227.994 86.848 228.022 86.568C228.246 84.048 228.554 82.368 228.554 81.192C228.554 80.604 228.498 80.24 228.442 79.848C228.414 79.624 228.442 79.4 228.75 79.4H233.034C233.286 79.4 233.342 79.596 233.258 79.82C232.838 80.856 232.642 81.668 232.418 83.236L232.082 85.56C231.914 86.764 231.886 87.576 231.886 88.388C231.886 89.368 231.942 90.348 232.11 91.776L232.894 98.524C232.922 98.804 232.754 99 232.474 99H229.282C228.946 99 228.722 98.804 228.694 98.356C228.47 95.948 228.274 93.512 228.05 90.824C228.022 90.544 227.938 90.404 227.742 90.404C227.546 90.404 227.462 90.544 227.434 90.824C227.21 93.512 227.014 95.948 226.79 98.356C226.762 98.804 226.538 99 226.202 99H223.01ZM234.722 99C234.358 99 234.162 98.804 234.162 98.44V83.796C234.162 81.388 234.078 80.996 233.826 79.82C233.77 79.568 233.91 79.4 234.162 79.4H238.222C238.474 79.4 238.614 79.568 238.558 79.82C238.306 80.996 238.222 81.388 238.222 83.796V98.44C238.222 98.804 238.026 99 237.662 99H234.722ZM240.3 99C239.936 99 239.74 98.804 239.74 98.44V83.796C239.74 81.388 239.656 80.996 239.404 79.82C239.348 79.568 239.488 79.4 239.74 79.4H244.78C245.396 79.4 245.62 79.568 245.676 80.212L246.46 88.948C246.488 89.172 246.572 89.256 246.712 89.256C246.852 89.256 246.964 89.172 246.992 88.948L247.776 80.212C247.832 79.568 248.056 79.4 248.672 79.4H253.908C254.16 79.4 254.3 79.568 254.244 79.82C253.992 80.996 253.908 81.388 253.908 83.796V98.44C253.908 98.804 253.712 99 253.348 99H250.632C250.268 99 250.072 98.804 250.072 98.44C250.072 94.492 250.128 90.124 250.184 85.896C250.184 85.7 250.128 85.56 249.932 85.56C249.792 85.56 249.68 85.644 249.652 85.868L248.112 98.468C248.056 98.832 247.832 99 247.496 99H245.872C245.536 99 245.312 98.832 245.256 98.468L243.716 85.84C243.688 85.644 243.604 85.56 243.436 85.56C243.24 85.56 243.184 85.728 243.184 85.896C243.24 90.124 243.296 94.492 243.296 98.44C243.296 98.804 243.1 99 242.736 99H240.3ZM255.268 99C254.96 99 254.792 98.86 254.82 98.58L256.584 82.116C256.696 81.052 256.64 80.52 256.528 79.932C256.472 79.568 256.64 79.4 256.892 79.4H263.36C263.612 79.4 263.78 79.568 263.696 79.932C263.584 80.464 263.5 80.968 263.612 82.116L265.376 98.58C265.404 98.86 265.236 99 264.928 99H261.848C261.596 99 261.428 98.86 261.4 98.636L261.148 96.172C261.12 95.892 260.98 95.752 260.7 95.752H259.272C258.992 95.752 258.824 95.892 258.796 96.172L258.544 98.636C258.516 98.888 258.32 99 258.096 99H255.268ZM260.392 92C260.7 92 260.756 91.86 260.728 91.636C260.532 89.368 260.392 87.772 260.28 84.664C260.28 84.412 260.168 84.272 259.972 84.272C259.776 84.272 259.664 84.412 259.664 84.664C259.552 87.772 259.412 89.368 259.216 91.636C259.188 91.86 259.244 92 259.552 92H260.392ZM268.244 99C267.88 99 267.684 98.804 267.684 98.44V83.46C267.684 83.208 267.572 82.984 267.152 82.984C266.704 82.984 266.424 83.208 265.668 83.824C265.276 84.132 264.912 84.244 264.912 83.768V79.96C264.912 79.596 265.108 79.4 265.472 79.4H273.956C274.32 79.4 274.516 79.596 274.516 79.96V83.768C274.516 84.244 274.152 84.132 273.76 83.824C273.004 83.208 272.724 82.984 272.276 82.984C271.856 82.984 271.744 83.208 271.744 83.46V98.44C271.744 98.804 271.548 99 271.184 99H268.244ZM276.066 99C275.702 99 275.506 98.804 275.506 98.44V84.076C275.506 81.668 275.422 80.996 275.17 79.82C275.114 79.568 275.254 79.4 275.506 79.4H282.954C283.122 79.4 283.234 79.512 283.234 79.68V83.572C283.234 83.88 282.982 83.936 282.674 83.768C281.61 83.208 281.022 83.012 280.378 83.012C279.734 83.012 279.566 83.264 279.566 83.712V86.848C279.566 87.016 279.678 87.128 279.846 87.128H282.506C282.674 87.128 282.786 87.24 282.786 87.408V90.74C282.786 90.908 282.674 91.02 282.506 91.02H279.846C279.678 91.02 279.566 91.132 279.566 91.3V94.8C279.566 94.968 279.678 95.08 279.846 95.08H283.038C283.206 95.08 283.318 95.192 283.318 95.36V98.72C283.318 98.888 283.206 99 283.038 99H276.066ZM285.007 99C284.643 99 284.447 98.804 284.447 98.44V84.076C284.447 81.668 284.363 80.996 284.111 79.82C284.055 79.568 284.195 79.4 284.447 79.4H288.507C288.759 79.4 288.899 79.568 288.843 79.82C288.591 80.996 288.507 81.668 288.507 84.076V94.8C288.507 94.968 288.619 95.08 288.787 95.08H291.979C292.147 95.08 292.259 95.192 292.259 95.36V98.72C292.259 98.888 292.147 99 291.979 99H285.007ZM294.586 99C294.222 99 294.026 98.804 294.026 98.44V96.34C294.026 94.548 293.914 93.848 293.298 91.076L291.45 82.872C291.114 81.388 290.946 80.94 290.414 79.792C290.302 79.568 290.414 79.4 290.638 79.4H295.146C295.37 79.4 295.454 79.624 295.426 79.792C295.258 80.436 295.09 81.024 295.426 82.788C295.622 83.852 295.678 84.888 295.874 86.82C295.902 87.1 295.958 87.324 296.182 87.324C296.406 87.324 296.462 87.1 296.49 86.82C296.686 84.888 296.77 83.852 296.966 82.788C297.302 81.024 297.134 80.436 296.966 79.792C296.938 79.624 297.022 79.4 297.246 79.4H301.362C301.586 79.4 301.698 79.568 301.586 79.792C301.054 80.94 300.858 81.388 300.55 82.872L298.842 91.076C298.254 93.848 298.086 94.548 298.086 96.34V98.44C298.086 98.804 297.89 99 297.526 99H294.586ZM54.2487 128C53.8847 128 53.6887 127.804 53.6887 127.44V115.82C53.6887 115.624 53.6887 115.484 53.5767 115.484C53.5207 115.484 53.4647 115.512 53.3527 115.68L52.7647 116.492C51.9527 117.64 51.7567 117.808 51.5327 117.808C51.3367 117.808 51.2247 117.64 51.2247 117.332V113.664C51.2247 113.104 51.2807 112.88 51.6167 112.488C52.5407 111.424 53.1847 110.332 53.8007 109.016C54.0247 108.54 54.1367 108.4 54.4727 108.4H56.8527C57.2167 108.4 57.4127 108.596 57.4127 108.96V127.44C57.4127 127.804 57.2167 128 56.8527 128H54.2487ZM59.1942 128C58.8582 128 58.6622 127.804 58.6622 127.44V124.836C58.6622 124.36 58.7462 124.108 59.1102 123.352L60.4542 120.608C62.0222 117.416 62.9182 115.54 62.9182 114.112C62.9182 113.244 62.4702 112.516 61.5742 112.516C60.7342 112.516 60.3142 112.964 59.6142 113.832C59.4462 114.028 59.3342 114.084 59.1662 114.084C58.9982 114.084 58.8582 113.944 58.8582 113.692V110.668C58.8582 110.22 58.8862 109.772 59.2222 109.324C59.6982 108.708 60.7902 108.12 62.3582 108.12C65.2702 108.12 66.9222 110.248 66.9222 113.468C66.9222 116.156 66.0262 118.34 64.3462 121.532L63.7582 122.652C63.5622 123.044 63.3382 123.408 63.3382 123.66C63.3382 123.8 63.4222 123.912 63.6742 123.912H66.5582C66.8942 123.912 67.0902 124.108 67.0902 124.472V127.44C67.0902 127.804 66.8942 128 66.5582 128H59.1942ZM69.6638 130.772C68.8518 130.772 68.2078 130.492 68.2078 129.96V129.036C68.2078 128.784 68.3758 128.756 68.5998 128.896C68.8238 129.036 69.1318 129.204 69.6638 129.204C70.4198 129.204 70.8398 128.728 70.8398 128.308C70.8398 128.028 70.6718 127.972 70.3358 127.972H70.1678C68.7398 127.972 67.9838 127.16 67.9838 126.068C67.9838 124.976 68.7398 123.94 70.2798 123.94C71.9318 123.94 72.8838 125.172 72.8838 127.076C72.8838 128.868 72.0718 130.772 69.6638 130.772ZM77.4193 128.28C75.9353 128.28 75.1233 127.86 74.7873 127.636C74.1993 127.272 73.9753 126.796 73.9753 126.18V123.268C73.9753 123.072 74.0873 122.932 74.2553 122.932C74.3673 122.932 74.4793 122.96 74.6753 123.156C75.1233 123.604 75.7393 124.304 76.8033 124.304C78.1473 124.304 78.7633 123.212 78.7633 121.56C78.7633 119.824 78.0633 118.564 76.4113 118.564C75.5993 118.564 75.2073 118.816 74.7313 118.816C74.5073 118.816 74.3953 118.676 74.3953 118.396L74.5073 108.96C74.5073 108.596 74.7313 108.4 75.0393 108.4H81.8153C81.9833 108.4 82.0953 108.512 82.0953 108.68V112.04C82.0953 112.208 81.9833 112.32 81.8153 112.32H78.3993C77.9793 112.32 77.8393 112.46 77.8393 112.88V114.784C77.8393 115.232 77.9513 115.344 78.3993 115.344C81.2833 115.344 82.7393 117.78 82.7393 121.448C82.7393 125.62 80.8633 128.28 77.4193 128.28ZM87.295 128.28C85.643 128.28 84.663 127.804 84.327 127.552C83.739 127.104 83.655 126.74 83.655 125.984V123.212C83.655 122.904 83.795 122.764 83.963 122.764C84.131 122.764 84.243 122.876 84.383 123.016C85.251 123.968 85.783 124.528 86.679 124.528C87.687 124.528 88.247 123.632 88.247 122.12C88.247 120.888 87.743 119.656 86.567 119.656C85.923 119.656 85.615 119.852 85.363 119.852C85.223 119.852 85.055 119.74 85.055 119.488V116.576C85.055 116.296 85.223 116.156 85.363 116.156C85.559 116.156 86.147 116.324 86.595 116.324C87.603 116.324 88.163 115.4 88.163 114C88.163 112.712 87.603 111.788 86.595 111.788C85.811 111.788 85.363 112.264 84.523 113.132C84.327 113.328 84.243 113.44 84.047 113.44C83.823 113.44 83.739 113.244 83.739 112.992V110.752C83.739 110.08 83.907 109.632 84.131 109.324C84.663 108.624 85.923 108.12 87.379 108.12C90.571 108.12 91.971 110.5 91.971 113.216C91.971 115.26 91.187 116.632 90.179 117.388C90.011 117.528 89.927 117.612 89.927 117.724C89.927 117.836 90.011 117.892 90.207 118.032C91.383 118.872 92.279 120.272 92.279 122.456C92.279 125.564 90.711 128.28 87.295 128.28ZM96.8107 128.28C95.1587 128.28 94.1787 127.804 93.8427 127.552C93.2547 127.104 93.1707 126.74 93.1707 125.984V123.212C93.1707 122.904 93.3107 122.764 93.4787 122.764C93.6467 122.764 93.7587 122.876 93.8987 123.016C94.7667 123.968 95.2987 124.528 96.1947 124.528C97.2027 124.528 97.7627 123.632 97.7627 122.12C97.7627 120.888 97.2587 119.656 96.0827 119.656C95.4387 119.656 95.1307 119.852 94.8787 119.852C94.7387 119.852 94.5707 119.74 94.5707 119.488V116.576C94.5707 116.296 94.7387 116.156 94.8787 116.156C95.0747 116.156 95.6627 116.324 96.1107 116.324C97.1187 116.324 97.6787 115.4 97.6787 114C97.6787 112.712 97.1187 111.788 96.1107 111.788C95.3267 111.788 94.8787 112.264 94.0387 113.132C93.8427 113.328 93.7587 113.44 93.5627 113.44C93.3387 113.44 93.2547 113.244 93.2547 112.992V110.752C93.2547 110.08 93.4227 109.632 93.6467 109.324C94.1787 108.624 95.4387 108.12 96.8947 108.12C100.087 108.12 101.487 110.5 101.487 113.216C101.487 115.26 100.703 116.632 99.6947 117.388C99.5267 117.528 99.4427 117.612 99.4427 117.724C99.4427 117.836 99.5267 117.892 99.7227 118.032C100.899 118.872 101.795 120.272 101.795 122.456C101.795 125.564 100.227 128.28 96.8107 128.28ZM109.212 128C108.848 128 108.652 127.804 108.652 127.44V112.46C108.652 112.208 108.54 111.984 108.12 111.984C107.672 111.984 107.392 112.208 106.636 112.824C106.244 113.132 105.88 113.244 105.88 112.768V108.96C105.88 108.596 106.076 108.4 106.44 108.4H114.924C115.288 108.4 115.484 108.596 115.484 108.96V112.768C115.484 113.244 115.12 113.132 114.728 112.824C113.972 112.208 113.692 111.984 113.244 111.984C112.824 111.984 112.712 112.208 112.712 112.46V127.44C112.712 127.804 112.516 128 112.152 128H109.212ZM121.16 128.28C117.828 128.28 115.728 125.788 115.728 118.2C115.728 110.612 117.828 108.12 121.16 108.12C124.492 108.12 126.62 110.612 126.62 118.2C126.62 125.788 124.492 128.28 121.16 128.28ZM121.16 124.36C121.804 124.36 122.336 123.632 122.336 118.2C122.336 112.74 121.804 112.04 121.16 112.04C120.516 112.04 120.012 112.74 120.012 118.2C120.012 123.632 120.516 124.36 121.16 124.36ZM128.328 128C127.964 128 127.768 127.804 127.768 127.44V112.796C127.768 110.388 127.684 109.996 127.432 108.82C127.376 108.568 127.516 108.4 127.768 108.4H131.016C131.352 108.4 131.576 108.568 131.632 108.876L133.424 117.36C133.452 117.556 133.564 117.668 133.732 117.668C133.928 117.668 133.984 117.528 133.984 117.304C133.956 116.548 134.012 114.112 133.956 112.516C133.872 110.388 133.788 109.996 133.536 108.82C133.48 108.568 133.62 108.4 133.872 108.4H137.54C137.792 108.4 137.932 108.568 137.876 108.82C137.624 109.996 137.54 110.388 137.54 112.796V127.44C137.54 127.804 137.344 128 136.98 128H134.292C133.956 128 133.732 127.832 133.676 127.524L131.856 119.012C131.828 118.816 131.716 118.732 131.576 118.732C131.408 118.732 131.296 118.844 131.296 119.068C131.38 120.944 131.464 124.836 131.464 127.44C131.464 127.804 131.268 128 130.904 128H128.328ZM142.113 128.28C140.853 128.28 139.677 127.916 139.173 127.356C138.809 126.964 138.725 126.516 138.725 126.012V122.54C138.725 122.26 138.837 121.98 139.117 121.98C139.369 121.98 139.481 122.148 139.845 122.68C140.349 123.436 140.825 124.052 141.721 124.052C142.589 124.052 142.897 123.24 142.897 122.596C142.897 121.504 142.169 120.72 141.021 119.404C139.873 118.088 138.697 116.464 138.697 113.972C138.697 110.612 140.461 108.12 143.597 108.12C144.801 108.12 145.725 108.484 146.229 109.016C146.621 109.408 146.677 109.884 146.677 110.388V113.384C146.677 113.692 146.565 113.944 146.285 113.944C146.033 113.944 145.921 113.832 145.501 113.3C145.053 112.712 144.689 112.348 144.101 112.348C143.205 112.348 142.841 113.048 142.841 113.72C142.841 114.868 143.625 115.764 144.829 117.136C146.033 118.536 147.069 120.02 147.069 122.484C147.069 125.816 145.249 128.28 142.113 128.28ZM156.543 128.28C153.211 128.28 151.111 125.788 151.111 118.2C151.111 110.612 153.211 108.12 156.543 108.12C159.875 108.12 162.003 110.612 162.003 118.2C162.003 125.788 159.875 128.28 156.543 128.28ZM156.543 124.36C157.187 124.36 157.719 123.632 157.719 118.2C157.719 112.74 157.187 112.04 156.543 112.04C155.899 112.04 155.395 112.74 155.395 118.2C155.395 123.632 155.899 124.36 156.543 124.36ZM163.711 128C163.347 128 163.151 127.804 163.151 127.44V113.076C163.151 110.668 163.067 109.996 162.815 108.82C162.759 108.568 162.899 108.4 163.151 108.4H170.599C170.767 108.4 170.879 108.512 170.879 108.68V112.572C170.879 112.88 170.627 112.936 170.319 112.768C169.255 112.208 168.667 112.012 168.023 112.012C167.379 112.012 167.211 112.264 167.211 112.712V115.848C167.211 116.016 167.323 116.128 167.491 116.128H170.151C170.319 116.128 170.431 116.24 170.431 116.408V119.74C170.431 119.908 170.319 120.02 170.151 120.02H167.491C167.323 120.02 167.211 120.132 167.211 120.3V127.44C167.211 127.804 167.015 128 166.651 128H163.711ZM180.555 128.28C176.999 128.28 174.899 125.228 174.899 118.2C174.899 111.172 176.999 108.12 180.555 108.12C181.451 108.12 182.375 108.344 183.019 108.848C183.579 109.296 183.691 109.856 183.691 110.528V112.852C183.691 113.272 183.523 113.468 183.271 113.468C182.963 113.468 182.767 113.216 182.515 112.908C182.235 112.572 181.871 112.208 181.255 112.208C179.855 112.208 179.155 113.972 179.155 118.2C179.155 122.428 179.855 124.192 181.255 124.192C181.871 124.192 182.235 123.828 182.515 123.492C182.767 123.184 182.935 122.932 183.243 122.932C183.495 122.932 183.691 123.128 183.691 123.548V125.872C183.691 126.544 183.579 127.104 183.019 127.552C182.375 128.056 181.451 128.28 180.555 128.28ZM189.683 128.28C186.351 128.28 184.251 125.788 184.251 118.2C184.251 110.612 186.351 108.12 189.683 108.12C193.015 108.12 195.143 110.612 195.143 118.2C195.143 125.788 193.015 128.28 189.683 128.28ZM189.683 124.36C190.327 124.36 190.859 123.632 190.859 118.2C190.859 112.74 190.327 112.04 189.683 112.04C189.039 112.04 188.535 112.74 188.535 118.2C188.535 123.632 189.039 124.36 189.683 124.36ZM196.879 130.156C196.627 130.156 196.459 129.988 196.459 129.736V127.972C196.459 127.496 196.543 127.216 196.963 126.712L198.419 124.92C198.895 124.332 199.035 124.024 199.035 123.632C199.035 123.296 198.811 123.072 198.391 123.072C198.027 123.072 197.663 123.24 197.187 123.716C197.019 123.884 196.935 123.94 196.823 123.94C196.711 123.94 196.627 123.856 196.627 123.716V121.672C196.627 121.14 196.683 120.972 196.879 120.692C197.131 120.356 197.915 119.936 198.979 119.936C200.855 119.936 201.947 121.028 201.947 123.044C201.947 124.36 201.471 125.396 200.911 126.04L200.267 126.796C200.155 126.908 200.099 127.048 200.099 127.104C200.099 127.188 200.155 127.3 200.323 127.3H201.779C202.031 127.3 202.199 127.44 202.199 127.72V129.736C202.199 129.988 202.031 130.156 201.779 130.156H196.879ZM207.789 128C207.425 128 207.229 127.804 207.229 127.44V113.076C207.229 110.668 207.145 109.996 206.893 108.82C206.837 108.568 206.977 108.4 207.229 108.4H214.677C214.845 108.4 214.957 108.512 214.957 108.68V112.572C214.957 112.88 214.705 112.936 214.397 112.768C213.333 112.208 212.745 112.012 212.101 112.012C211.457 112.012 211.289 112.264 211.289 112.712V115.848C211.289 116.016 211.401 116.128 211.569 116.128H214.229C214.397 116.128 214.509 116.24 214.509 116.408V119.74C214.509 119.908 214.397 120.02 214.229 120.02H211.569C211.401 120.02 211.289 120.132 211.289 120.3V123.8C211.289 123.968 211.401 124.08 211.569 124.08H214.761C214.929 124.08 215.041 124.192 215.041 124.36V127.72C215.041 127.888 214.929 128 214.761 128H207.789ZM216.73 128C216.366 128 216.17 127.804 216.17 127.44V112.796C216.17 110.388 216.086 109.996 215.834 108.82C215.778 108.568 215.918 108.4 216.17 108.4H221.21C221.826 108.4 222.05 108.568 222.106 109.212L222.89 117.948C222.918 118.172 223.002 118.256 223.142 118.256C223.282 118.256 223.394 118.172 223.422 117.948L224.206 109.212C224.262 108.568 224.486 108.4 225.102 108.4H230.338C230.59 108.4 230.73 108.568 230.674 108.82C230.422 109.996 230.338 110.388 230.338 112.796V127.44C230.338 127.804 230.142 128 229.778 128H227.062C226.698 128 226.502 127.804 226.502 127.44C226.502 123.492 226.558 119.124 226.614 114.896C226.614 114.7 226.558 114.56 226.362 114.56C226.222 114.56 226.11 114.644 226.082 114.868L224.542 127.468C224.486 127.832 224.262 128 223.926 128H222.302C221.966 128 221.742 127.832 221.686 127.468L220.146 114.84C220.118 114.644 220.034 114.56 219.866 114.56C219.67 114.56 219.614 114.728 219.614 114.896C219.67 119.124 219.726 123.492 219.726 127.44C219.726 127.804 219.53 128 219.166 128H216.73ZM232.398 128C232.034 128 231.838 127.804 231.838 127.44V112.796C231.838 110.388 231.754 109.996 231.502 108.82C231.446 108.568 231.586 108.4 231.838 108.4H235.898C236.15 108.4 236.29 108.568 236.234 108.82C235.982 109.996 235.898 110.388 235.898 112.796V127.44C235.898 127.804 235.702 128 235.338 128H232.398ZM240.468 128.28C239.208 128.28 238.032 127.916 237.528 127.356C237.164 126.964 237.08 126.516 237.08 126.012V122.54C237.08 122.26 237.192 121.98 237.472 121.98C237.724 121.98 237.836 122.148 238.2 122.68C238.704 123.436 239.18 124.052 240.076 124.052C240.944 124.052 241.252 123.24 241.252 122.596C241.252 121.504 240.524 120.72 239.376 119.404C238.228 118.088 237.052 116.464 237.052 113.972C237.052 110.612 238.816 108.12 241.952 108.12C243.156 108.12 244.08 108.484 244.584 109.016C244.976 109.408 245.032 109.884 245.032 110.388V113.384C245.032 113.692 244.92 113.944 244.64 113.944C244.388 113.944 244.276 113.832 243.856 113.3C243.408 112.712 243.044 112.348 242.456 112.348C241.56 112.348 241.196 113.048 241.196 113.72C241.196 114.868 241.98 115.764 243.184 117.136C244.388 118.536 245.424 120.02 245.424 122.484C245.424 125.816 243.604 128.28 240.468 128.28ZM249.464 128.28C248.204 128.28 247.028 127.916 246.524 127.356C246.16 126.964 246.076 126.516 246.076 126.012V122.54C246.076 122.26 246.188 121.98 246.468 121.98C246.72 121.98 246.832 122.148 247.196 122.68C247.7 123.436 248.176 124.052 249.072 124.052C249.94 124.052 250.248 123.24 250.248 122.596C250.248 121.504 249.52 120.72 248.372 119.404C247.224 118.088 246.048 116.464 246.048 113.972C246.048 110.612 247.812 108.12 250.948 108.12C252.152 108.12 253.076 108.484 253.58 109.016C253.972 109.408 254.028 109.884 254.028 110.388V113.384C254.028 113.692 253.916 113.944 253.636 113.944C253.384 113.944 253.272 113.832 252.852 113.3C252.404 112.712 252.04 112.348 251.452 112.348C250.556 112.348 250.192 113.048 250.192 113.72C250.192 114.868 250.976 115.764 252.18 117.136C253.384 118.536 254.42 120.02 254.42 122.484C254.42 125.816 252.6 128.28 249.464 128.28ZM255.968 128C255.604 128 255.408 127.804 255.408 127.44V112.796C255.408 110.388 255.324 109.996 255.072 108.82C255.016 108.568 255.156 108.4 255.408 108.4H259.468C259.72 108.4 259.86 108.568 259.804 108.82C259.552 109.996 259.468 110.388 259.468 112.796V127.44C259.468 127.804 259.272 128 258.908 128H255.968ZM266.054 128.28C262.722 128.28 260.622 125.788 260.622 118.2C260.622 110.612 262.722 108.12 266.054 108.12C269.386 108.12 271.514 110.612 271.514 118.2C271.514 125.788 269.386 128.28 266.054 128.28ZM266.054 124.36C266.698 124.36 267.23 123.632 267.23 118.2C267.23 112.74 266.698 112.04 266.054 112.04C265.41 112.04 264.906 112.74 264.906 118.2C264.906 123.632 265.41 124.36 266.054 124.36ZM273.222 128C272.858 128 272.662 127.804 272.662 127.44V112.796C272.662 110.388 272.578 109.996 272.326 108.82C272.27 108.568 272.41 108.4 272.662 108.4H275.91C276.246 108.4 276.47 108.568 276.526 108.876L278.318 117.36C278.346 117.556 278.458 117.668 278.626 117.668C278.822 117.668 278.878 117.528 278.878 117.304C278.85 116.548 278.906 114.112 278.85 112.516C278.766 110.388 278.682 109.996 278.43 108.82C278.374 108.568 278.514 108.4 278.766 108.4H282.434C282.686 108.4 282.826 108.568 282.77 108.82C282.518 109.996 282.434 110.388 282.434 112.796V127.44C282.434 127.804 282.238 128 281.874 128H279.186C278.85 128 278.626 127.832 278.57 127.524L276.75 119.012C276.722 118.816 276.61 118.732 276.47 118.732C276.302 118.732 276.19 118.844 276.19 119.068C276.274 120.944 276.358 124.836 276.358 127.44C276.358 127.804 276.162 128 275.798 128H273.222ZM287.007 128.28C285.747 128.28 284.571 127.916 284.067 127.356C283.703 126.964 283.619 126.516 283.619 126.012V122.54C283.619 122.26 283.731 121.98 284.011 121.98C284.263 121.98 284.375 122.148 284.739 122.68C285.243 123.436 285.719 124.052 286.615 124.052C287.483 124.052 287.791 123.24 287.791 122.596C287.791 121.504 287.063 120.72 285.915 119.404C284.767 118.088 283.591 116.464 283.591 113.972C283.591 110.612 285.355 108.12 288.491 108.12C289.695 108.12 290.619 108.484 291.123 109.016C291.515 109.408 291.571 109.884 291.571 110.388V113.384C291.571 113.692 291.459 113.944 291.179 113.944C290.927 113.944 290.815 113.832 290.395 113.3C289.947 112.712 289.583 112.348 288.995 112.348C288.099 112.348 287.735 113.048 287.735 113.72C287.735 114.868 288.519 115.764 289.723 117.136C290.927 118.536 291.963 120.02 291.963 122.484C291.963 125.816 290.143 128.28 287.007 128.28Z" fill="white"/>
<path d="M114.72 150.96C114.667 150.96 114.619 150.944 114.576 150.912C114.544 150.891 114.501 150.837 114.448 150.752C113.968 149.963 113.584 149.019 113.296 147.92C113.008 146.811 112.864 145.685 112.864 144.544C112.864 143.392 113.008 142.267 113.296 141.168C113.584 140.059 113.968 139.109 114.448 138.32C114.501 138.235 114.544 138.181 114.576 138.16C114.619 138.128 114.667 138.112 114.72 138.112H115.84C115.893 138.112 115.925 138.128 115.936 138.16C115.957 138.192 115.952 138.229 115.92 138.272C115.408 139.125 115.008 140.101 114.72 141.2C114.432 142.288 114.288 143.403 114.288 144.544C114.288 145.664 114.432 146.773 114.72 147.872C115.019 148.971 115.419 149.947 115.92 150.8L115.952 150.88C115.952 150.933 115.915 150.96 115.84 150.96H114.72ZM119.949 150.16C119.021 150.16 118.216 150 117.533 149.68C116.85 149.349 116.509 148.848 116.509 148.176V146.816C116.509 146.699 116.546 146.64 116.621 146.64C116.664 146.64 116.706 146.677 116.749 146.752C117.09 147.339 117.528 147.797 118.061 148.128C118.594 148.448 119.261 148.608 120.061 148.608C120.797 148.608 121.362 148.459 121.757 148.16C122.162 147.851 122.365 147.424 122.365 146.88C122.365 146.411 122.232 146.059 121.965 145.824C121.709 145.579 121.272 145.413 120.653 145.328L119.389 145.152C118.461 145.024 117.757 144.709 117.277 144.208C116.808 143.696 116.573 143.013 116.573 142.16C116.573 141.147 116.93 140.347 117.645 139.76C118.36 139.173 119.336 138.88 120.573 138.88C121.416 138.88 122.152 139.035 122.781 139.344C123.41 139.643 123.725 140.096 123.725 140.704V142.176C123.725 142.229 123.714 142.277 123.693 142.32C123.672 142.352 123.645 142.368 123.613 142.368C123.56 142.368 123.506 142.325 123.453 142.24C123.08 141.632 122.658 141.179 122.189 140.88C121.72 140.581 121.165 140.432 120.525 140.432C119.832 140.432 119.288 140.571 118.893 140.848C118.509 141.125 118.317 141.525 118.317 142.048C118.317 142.464 118.434 142.8 118.669 143.056C118.914 143.301 119.266 143.456 119.725 143.52L121.357 143.744C122.253 143.872 122.936 144.192 123.405 144.704C123.874 145.205 124.109 145.867 124.109 146.688C124.109 147.776 123.736 148.629 122.989 149.248C122.253 149.856 121.24 150.16 119.949 150.16ZM129.284 150.16C128.388 150.16 127.599 149.979 126.916 149.616C126.234 149.243 125.7 148.715 125.316 148.032C124.943 147.339 124.756 146.528 124.756 145.6C124.756 144.672 124.943 143.867 125.316 143.184C125.7 142.491 126.234 141.963 126.916 141.6C127.599 141.227 128.388 141.04 129.284 141.04C129.956 141.04 130.5 141.131 130.916 141.312C131.343 141.493 131.556 141.733 131.556 142.032V143.472C131.556 143.568 131.524 143.616 131.46 143.616C131.407 143.616 131.348 143.579 131.284 143.504C130.815 142.939 130.154 142.656 129.3 142.656C128.436 142.656 127.759 142.923 127.268 143.456C126.778 143.979 126.532 144.693 126.532 145.6C126.532 146.507 126.778 147.227 127.268 147.76C127.77 148.283 128.452 148.544 129.316 148.544C130.138 148.544 130.794 148.336 131.284 147.92C131.37 147.856 131.434 147.824 131.476 147.824C131.53 147.824 131.556 147.872 131.556 147.968V149.104C131.556 149.403 131.343 149.653 130.916 149.856C130.5 150.059 129.956 150.16 129.284 150.16ZM136.327 150.16C135.463 150.16 134.7 149.973 134.039 149.6C133.388 149.216 132.882 148.683 132.519 148C132.156 147.307 131.975 146.507 131.975 145.6C131.975 144.693 132.156 143.899 132.519 143.216C132.882 142.523 133.388 141.989 134.039 141.616C134.7 141.232 135.463 141.04 136.327 141.04C137.191 141.04 137.948 141.232 138.599 141.616C139.26 141.989 139.767 142.523 140.119 143.216C140.482 143.899 140.663 144.693 140.663 145.6C140.663 146.507 140.482 147.307 140.119 148C139.767 148.683 139.26 149.216 138.599 149.6C137.948 149.973 137.191 150.16 136.327 150.16ZM136.327 148.56C137.106 148.56 137.724 148.293 138.183 147.76C138.652 147.216 138.887 146.496 138.887 145.6C138.887 144.704 138.652 143.989 138.183 143.456C137.724 142.912 137.106 142.64 136.327 142.64C135.548 142.64 134.924 142.912 134.455 143.456C133.986 143.989 133.751 144.704 133.751 145.6C133.751 146.496 133.986 147.216 134.455 147.76C134.924 148.293 135.548 148.56 136.327 148.56ZM141.69 151.76C141.647 151.76 141.61 151.744 141.578 151.712C141.546 151.68 141.53 151.643 141.53 151.6V143.312C141.53 142.789 141.508 142.411 141.465 142.176C141.434 141.941 141.364 141.68 141.258 141.392C141.247 141.371 141.242 141.344 141.242 141.312C141.242 141.237 141.284 141.2 141.37 141.2H143.098C143.151 141.2 143.194 141.216 143.226 141.248C143.258 141.28 143.274 141.317 143.274 141.36V142.384C143.274 142.448 143.295 142.485 143.338 142.496C143.391 142.507 143.434 142.485 143.466 142.432C143.679 142.069 144.015 141.749 144.474 141.472C144.932 141.184 145.519 141.04 146.234 141.04C147.002 141.04 147.674 141.232 148.25 141.616C148.836 141.989 149.284 142.523 149.594 143.216C149.914 143.899 150.074 144.693 150.074 145.6C150.074 146.507 149.914 147.307 149.594 148C149.284 148.683 148.836 149.216 148.25 149.6C147.674 149.973 147.002 150.16 146.234 150.16C145.519 150.16 144.927 150.021 144.458 149.744C143.999 149.456 143.668 149.131 143.466 148.768C143.434 148.725 143.402 148.704 143.37 148.704C143.306 148.704 143.274 148.741 143.274 148.816V151.6C143.274 151.643 143.258 151.68 143.226 151.712C143.194 151.744 143.151 151.76 143.098 151.76H141.69ZM145.77 148.656C146.527 148.656 147.13 148.379 147.578 147.824C148.036 147.269 148.266 146.528 148.266 145.6C148.266 144.672 148.036 143.931 147.578 143.376C147.13 142.821 146.527 142.544 145.77 142.544C144.991 142.544 144.367 142.821 143.898 143.376C143.428 143.931 143.194 144.672 143.194 145.6C143.194 146.528 143.428 147.269 143.898 147.824C144.367 148.379 144.991 148.656 145.77 148.656ZM155.332 150.16C154.436 150.16 153.641 149.989 152.948 149.648C152.265 149.296 151.732 148.779 151.348 148.096C150.964 147.403 150.772 146.56 150.772 145.568C150.772 144.619 150.953 143.803 151.316 143.12C151.679 142.437 152.175 141.92 152.804 141.568C153.433 141.216 154.143 141.04 154.932 141.04C156.052 141.04 156.948 141.365 157.62 142.016C158.303 142.656 158.644 143.557 158.644 144.72C158.644 145.157 158.612 145.488 158.548 145.712C158.484 145.925 158.372 146.069 158.212 146.144C158.063 146.219 157.839 146.256 157.54 146.256H152.82C152.671 146.256 152.601 146.32 152.612 146.448C152.697 147.099 152.991 147.621 153.492 148.016C154.004 148.411 154.665 148.608 155.476 148.608C156.436 148.608 157.289 148.256 158.036 147.552C158.079 147.509 158.127 147.488 158.18 147.488C158.255 147.488 158.292 147.536 158.292 147.632V148.8C158.292 148.939 158.26 149.067 158.196 149.184C158.132 149.291 158.02 149.403 157.86 149.52C157.615 149.691 157.273 149.84 156.836 149.968C156.409 150.096 155.908 150.16 155.332 150.16ZM156.692 144.896C156.863 144.896 156.953 144.811 156.964 144.64L156.98 144.416C156.98 143.883 156.799 143.435 156.436 143.072C156.073 142.709 155.567 142.528 154.916 142.528C154.169 142.528 153.609 142.741 153.236 143.168C152.863 143.584 152.66 144.075 152.628 144.64V144.672C152.628 144.736 152.655 144.789 152.708 144.832C152.772 144.875 152.841 144.896 152.916 144.896H156.692ZM164.748 150C164.641 150 164.588 149.947 164.588 149.84V141.968C164.588 141.883 164.561 141.84 164.508 141.84C164.465 141.84 164.423 141.861 164.38 141.904C163.964 142.363 163.537 142.688 163.1 142.88C162.673 143.061 162.3 143.152 161.98 143.152C161.863 143.152 161.804 143.093 161.804 142.976V141.792C161.804 141.685 161.852 141.627 161.948 141.616C162.577 141.445 163.132 141.152 163.612 140.736C164.103 140.32 164.471 139.797 164.716 139.168C164.748 139.083 164.812 139.04 164.908 139.04H166.188C166.295 139.04 166.348 139.093 166.348 139.2V149.84C166.348 149.947 166.295 150 166.188 150H164.748ZM168.148 151.568C167.935 151.568 167.769 151.531 167.652 151.456C167.535 151.392 167.476 151.296 167.476 151.168V150.704C167.476 150.661 167.487 150.635 167.508 150.624C167.54 150.613 167.577 150.624 167.62 150.656C167.759 150.763 167.945 150.816 168.18 150.816C168.415 150.816 168.591 150.757 168.708 150.64C168.825 150.523 168.884 150.384 168.884 150.224C168.884 150.139 168.836 150.096 168.74 150.096H168.5C168.18 150.096 167.929 150.016 167.748 149.856C167.577 149.685 167.492 149.461 167.492 149.184C167.492 148.896 167.588 148.661 167.78 148.48C167.972 148.288 168.233 148.192 168.564 148.192C168.927 148.192 169.209 148.325 169.412 148.592C169.625 148.848 169.732 149.205 169.732 149.664C169.732 150.272 169.593 150.741 169.316 151.072C169.049 151.403 168.66 151.568 168.148 151.568ZM176.48 150.16C175.552 150.16 174.747 150 174.064 149.68C173.382 149.349 173.04 148.848 173.04 148.176V146.816C173.04 146.699 173.078 146.64 173.152 146.64C173.195 146.64 173.238 146.677 173.28 146.752C173.622 147.339 174.059 147.797 174.592 148.128C175.126 148.448 175.792 148.608 176.592 148.608C177.328 148.608 177.894 148.459 178.288 148.16C178.694 147.851 178.896 147.424 178.896 146.88C178.896 146.411 178.763 146.059 178.496 145.824C178.24 145.579 177.803 145.413 177.184 145.328L175.92 145.152C174.992 145.024 174.288 144.709 173.808 144.208C173.339 143.696 173.104 143.013 173.104 142.16C173.104 141.147 173.462 140.347 174.176 139.76C174.891 139.173 175.867 138.88 177.104 138.88C177.947 138.88 178.683 139.035 179.312 139.344C179.942 139.643 180.256 140.096 180.256 140.704V142.176C180.256 142.229 180.246 142.277 180.224 142.32C180.203 142.352 180.176 142.368 180.144 142.368C180.091 142.368 180.038 142.325 179.984 142.24C179.611 141.632 179.19 141.179 178.72 140.88C178.251 140.581 177.696 140.432 177.056 140.432C176.363 140.432 175.819 140.571 175.424 140.848C175.04 141.125 174.848 141.525 174.848 142.048C174.848 142.464 174.966 142.8 175.2 143.056C175.446 143.301 175.798 143.456 176.256 143.52L177.888 143.744C178.784 143.872 179.467 144.192 179.936 144.704C180.406 145.205 180.64 145.867 180.64 146.688C180.64 147.776 180.267 148.629 179.52 149.248C178.784 149.856 177.771 150.16 176.48 150.16ZM185.816 150.16C184.92 150.16 184.13 149.979 183.448 149.616C182.765 149.243 182.232 148.715 181.848 148.032C181.474 147.339 181.288 146.528 181.288 145.6C181.288 144.672 181.474 143.867 181.848 143.184C182.232 142.491 182.765 141.963 183.448 141.6C184.13 141.227 184.92 141.04 185.816 141.04C186.488 141.04 187.032 141.131 187.448 141.312C187.874 141.493 188.088 141.733 188.088 142.032V143.472C188.088 143.568 188.056 143.616 187.992 143.616C187.938 143.616 187.88 143.579 187.816 143.504C187.346 142.939 186.685 142.656 185.832 142.656C184.968 142.656 184.29 142.923 183.8 143.456C183.309 143.979 183.064 144.693 183.064 145.6C183.064 146.507 183.309 147.227 183.8 147.76C184.301 148.283 184.984 148.544 185.848 148.544C186.669 148.544 187.325 148.336 187.816 147.92C187.901 147.856 187.965 147.824 188.008 147.824C188.061 147.824 188.088 147.872 188.088 147.968V149.104C188.088 149.403 187.874 149.653 187.448 149.856C187.032 150.059 186.488 150.16 185.816 150.16ZM192.858 150.16C191.994 150.16 191.232 149.973 190.57 149.6C189.92 149.216 189.413 148.683 189.05 148C188.688 147.307 188.506 146.507 188.506 145.6C188.506 144.693 188.688 143.899 189.05 143.216C189.413 142.523 189.92 141.989 190.57 141.616C191.232 141.232 191.994 141.04 192.858 141.04C193.722 141.04 194.48 141.232 195.13 141.616C195.792 141.989 196.298 142.523 196.65 143.216C197.013 143.899 197.194 144.693 197.194 145.6C197.194 146.507 197.013 147.307 196.65 148C196.298 148.683 195.792 149.216 195.13 149.6C194.48 149.973 193.722 150.16 192.858 150.16ZM192.858 148.56C193.637 148.56 194.256 148.293 194.714 147.76C195.184 147.216 195.418 146.496 195.418 145.6C195.418 144.704 195.184 143.989 194.714 143.456C194.256 142.912 193.637 142.64 192.858 142.64C192.08 142.64 191.456 142.912 190.986 143.456C190.517 143.989 190.282 144.704 190.282 145.6C190.282 146.496 190.517 147.216 190.986 147.76C191.456 148.293 192.08 148.56 192.858 148.56ZM198.221 151.76C198.178 151.76 198.141 151.744 198.109 151.712C198.077 151.68 198.061 151.643 198.061 151.6V143.312C198.061 142.789 198.039 142.411 197.997 142.176C197.965 141.941 197.895 141.68 197.789 141.392C197.778 141.371 197.773 141.344 197.773 141.312C197.773 141.237 197.815 141.2 197.901 141.2H199.629C199.682 141.2 199.725 141.216 199.757 141.248C199.789 141.28 199.805 141.317 199.805 141.36V142.384C199.805 142.448 199.826 142.485 199.869 142.496C199.922 142.507 199.965 142.485 199.997 142.432C200.21 142.069 200.546 141.749 201.005 141.472C201.463 141.184 202.05 141.04 202.765 141.04C203.533 141.04 204.205 141.232 204.781 141.616C205.367 141.989 205.815 142.523 206.125 143.216C206.445 143.899 206.605 144.693 206.605 145.6C206.605 146.507 206.445 147.307 206.125 148C205.815 148.683 205.367 149.216 204.781 149.6C204.205 149.973 203.533 150.16 202.765 150.16C202.05 150.16 201.458 150.021 200.989 149.744C200.53 149.456 200.199 149.131 199.997 148.768C199.965 148.725 199.933 148.704 199.901 148.704C199.837 148.704 199.805 148.741 199.805 148.816V151.6C199.805 151.643 199.789 151.68 199.757 151.712C199.725 151.744 199.682 151.76 199.629 151.76H198.221ZM202.301 148.656C203.058 148.656 203.661 148.379 204.109 147.824C204.567 147.269 204.797 146.528 204.797 145.6C204.797 144.672 204.567 143.931 204.109 143.376C203.661 142.821 203.058 142.544 202.301 142.544C201.522 142.544 200.898 142.821 200.429 143.376C199.959 143.931 199.725 144.672 199.725 145.6C199.725 146.528 199.959 147.269 200.429 147.824C200.898 148.379 201.522 148.656 202.301 148.656ZM211.863 150.16C210.967 150.16 210.173 149.989 209.479 149.648C208.797 149.296 208.263 148.779 207.879 148.096C207.495 147.403 207.303 146.56 207.303 145.568C207.303 144.619 207.485 143.803 207.847 143.12C208.21 142.437 208.706 141.92 209.335 141.568C209.965 141.216 210.674 141.04 211.463 141.04C212.583 141.04 213.479 141.365 214.151 142.016C214.834 142.656 215.175 143.557 215.175 144.72C215.175 145.157 215.143 145.488 215.079 145.712C215.015 145.925 214.903 146.069 214.743 146.144C214.594 146.219 214.37 146.256 214.071 146.256H209.351C209.202 146.256 209.133 146.32 209.143 146.448C209.229 147.099 209.522 147.621 210.023 148.016C210.535 148.411 211.197 148.608 212.007 148.608C212.967 148.608 213.821 148.256 214.567 147.552C214.61 147.509 214.658 147.488 214.711 147.488C214.786 147.488 214.823 147.536 214.823 147.632V148.8C214.823 148.939 214.791 149.067 214.727 149.184C214.663 149.291 214.551 149.403 214.391 149.52C214.146 149.691 213.805 149.84 213.367 149.968C212.941 150.096 212.439 150.16 211.863 150.16ZM213.223 144.896C213.394 144.896 213.485 144.811 213.495 144.64L213.511 144.416C213.511 143.883 213.33 143.435 212.967 143.072C212.605 142.709 212.098 142.528 211.447 142.528C210.701 142.528 210.141 142.741 209.767 143.168C209.394 143.584 209.191 144.075 209.159 144.64V144.672C209.159 144.736 209.186 144.789 209.239 144.832C209.303 144.875 209.373 144.896 209.447 144.896H213.223ZM218.735 150C218.629 150 218.575 149.947 218.575 149.84V148.88C218.575 148.773 218.613 148.683 218.687 148.608L221.071 146.16C221.978 145.232 222.618 144.485 222.991 143.92C223.375 143.355 223.567 142.789 223.567 142.224C223.567 141.669 223.407 141.243 223.087 140.944C222.778 140.635 222.319 140.48 221.711 140.48C221.082 140.48 220.549 140.645 220.111 140.976C219.674 141.307 219.237 141.819 218.799 142.512C218.757 142.587 218.709 142.624 218.655 142.624C218.581 142.624 218.543 142.565 218.543 142.448V141.008C218.543 140.805 218.559 140.64 218.591 140.512C218.634 140.384 218.703 140.256 218.799 140.128C219.066 139.776 219.455 139.483 219.967 139.248C220.49 139.003 221.066 138.88 221.695 138.88C222.421 138.88 223.061 139.019 223.615 139.296C224.17 139.563 224.597 139.941 224.895 140.432C225.205 140.912 225.359 141.461 225.359 142.08C225.359 142.795 225.151 143.488 224.735 144.16C224.319 144.821 223.679 145.605 222.815 146.512L221.263 148.16C221.221 148.203 221.199 148.245 221.199 148.288C221.199 148.363 221.258 148.4 221.375 148.4H225.471C225.578 148.4 225.631 148.453 225.631 148.56V149.84C225.631 149.947 225.578 150 225.471 150H218.735ZM226.194 150.96C226.141 150.96 226.104 150.944 226.082 150.912C226.072 150.88 226.082 150.843 226.114 150.8C226.616 149.947 227.01 148.971 227.298 147.872C227.597 146.773 227.746 145.664 227.746 144.544C227.746 143.403 227.602 142.288 227.314 141.2C227.026 140.101 226.626 139.125 226.114 138.272L226.082 138.192C226.082 138.139 226.12 138.112 226.194 138.112H227.314C227.368 138.112 227.41 138.128 227.442 138.16C227.485 138.181 227.533 138.235 227.586 138.32C228.066 139.109 228.45 140.059 228.738 141.168C229.026 142.267 229.17 143.392 229.17 144.544C229.17 145.685 229.026 146.811 228.738 147.92C228.45 149.019 228.066 149.963 227.586 150.752C227.533 150.837 227.485 150.891 227.442 150.912C227.41 150.944 227.368 150.96 227.314 150.96H226.194Z" fill="white"/>
</svg>
