<svg width="375" height="946" viewBox="0 0 375 946" fill="none" xmlns="http://www.w3.org/2000/svg">
<g clip-path="url(#clip0_349_15234)">
<text fill="#3459FF" xml:space="preserve" style="white-space: pre" font-family="VNM Sans Display" font-size="48" font-weight="bold" letter-spacing="0em"><tspan x="38.4922" y="66.56">PRODUCT SAFETY AND </tspan><tspan x="128.867" y="116.56">QUALITY</tspan></text>
<rect y="354" width="16.2214" height="23" fill="#38C0FF"/>
<rect x="16.2214" y="354" width="8.77865" height="23" fill="#3459FF"/>
<rect x="25" y="354" width="16.2214" height="23" fill="#38C0FF"/>
<rect x="41.2215" y="354" width="8.77865" height="23" fill="#3459FF"/>
<rect x="50" y="354" width="16.2214" height="23" fill="#38C0FF"/>
<rect x="66.2215" y="354" width="8.77865" height="23" fill="#3459FF"/>
<rect x="75" y="354" width="16.2214" height="23" fill="#38C0FF"/>
<rect x="91.2216" y="354" width="8.77865" height="23" fill="#3459FF"/>
<rect x="100" y="354" width="16.2214" height="23" fill="#38C0FF"/>
<rect x="116.221" y="354" width="8.77865" height="23" fill="#3459FF"/>
<rect x="125" y="354" width="16.2214" height="23" fill="#38C0FF"/>
<rect x="141.221" y="354" width="8.77865" height="23" fill="#3459FF"/>
<rect x="150" y="354" width="16.2214" height="23" fill="#38C0FF"/>
<rect x="166.221" y="354" width="8.77865" height="23" fill="#3459FF"/>
<rect x="175" y="354" width="16.2214" height="23" fill="#38C0FF"/>
<rect x="191.221" y="354" width="8.77865" height="23" fill="#3459FF"/>
<rect x="200" y="354" width="16.2214" height="23" fill="#38C0FF"/>
<rect x="216.221" y="354" width="8.77865" height="23" fill="#3459FF"/>
<rect x="225" y="354" width="16.2214" height="23" fill="#38C0FF"/>
<rect x="241.221" y="354" width="8.77865" height="23" fill="#3459FF"/>
<rect x="250" y="354" width="16.2214" height="23" fill="#38C0FF"/>
<rect x="266.221" y="354" width="8.77865" height="23" fill="#3459FF"/>
<rect x="275" y="354" width="16.2214" height="23" fill="#38C0FF"/>
<rect x="291.221" y="354" width="8.77865" height="23" fill="#3459FF"/>
<rect x="300" y="354" width="16.2214" height="23" fill="#38C0FF"/>
<rect x="316.221" y="354" width="8.77865" height="23" fill="#3459FF"/>
<rect x="325" y="354" width="16.2214" height="23" fill="#38C0FF"/>
<rect x="341.221" y="354" width="8.77865" height="23" fill="#3459FF"/>
<rect x="350" y="354" width="16.2214" height="23" fill="#38C0FF"/>
<rect x="366.221" y="354" width="8.77865" height="23" fill="#3459FF"/>
<path d="M221.353 298.204H181V338.204H221.353V298.204Z" fill="#D19F2A"/>
<path d="M197.073 332.255V332.819C197.073 332.819 197.073 332.819 197.073 332.831C197.073 332.831 197.073 332.831 197.073 332.843C197.073 332.984 197.19 333.089 197.332 333.101H204.022C204.163 333.101 204.28 332.984 204.28 332.831V332.196C208.043 330.973 210.865 327.951 211.488 324.259C211.488 324.259 211.488 324.248 211.488 324.236C211.488 324.224 211.488 324.212 211.488 324.201C211.488 324.048 211.37 323.93 211.218 323.93H189.948C189.795 323.93 189.677 324.048 189.677 324.201V324.318C190.347 328.034 193.24 331.079 197.085 332.255" fill="white"/>
<path d="M204.304 314.912C204.21 315.041 202.152 317.969 204.351 320.344C205.362 321.437 205.268 322.402 204.986 323.048H206.397C206.679 322.084 206.561 320.885 205.421 319.65C203.798 317.898 205.444 315.535 205.468 315.5C205.656 315.229 205.562 314.888 205.245 314.724C204.927 314.559 204.516 314.653 204.316 314.912" fill="white"/>
<path d="M200.741 323.06H202.152C202.434 322.096 202.317 320.897 201.176 319.662C199.554 317.91 201.2 315.547 201.223 315.512C201.412 315.241 201.317 314.9 200.988 314.736C200.671 314.571 200.259 314.665 200.059 314.924C199.965 315.041 197.908 317.981 200.106 320.356C201.118 321.449 201.024 322.402 200.741 323.06Z" fill="white"/>
<path d="M195.827 314.912C195.733 315.041 193.675 317.969 195.874 320.344C196.885 321.437 196.791 322.402 196.509 323.048H197.919C198.202 322.084 198.084 320.885 196.944 319.65C195.321 317.898 196.967 315.535 196.991 315.5C197.179 315.229 197.085 314.888 196.755 314.724C196.438 314.559 196.026 314.653 195.827 314.912Z" fill="white"/>
<path d="M188.69 308.469H186.432V308.081C186.432 307.446 186.655 307.211 187.008 306.834L187.89 305.917C188.607 305.165 188.76 304.683 188.76 303.871V303.084C188.76 301.92 188.196 301.379 186.961 301.379C185.727 301.379 185.139 302.014 185.139 303.142V304.118H186.397V303.107C186.397 302.613 186.632 302.472 186.926 302.472C187.185 302.472 187.42 302.578 187.42 303.084V303.754C187.42 304.424 187.361 304.683 186.914 305.153L186.138 305.964C185.397 306.752 185.115 307.281 185.115 308.081V309.574H188.69V308.469Z" fill="white"/>
<path d="M193.252 304.495H194.122V304.953H192.652V304.495L193.546 302.037H192.734V301.567H194.157V302.037L193.252 304.495Z" fill="white"/>
<path d="M194.451 301.567H195.827V302.037H195.027V303.001H195.603V303.46H195.027V304.495H195.827V304.965H194.451V301.567Z" fill="white"/>
<path d="M196.708 303.401V304.953H196.132V301.567H196.967C197.543 301.567 197.755 301.849 197.755 302.331V302.766C197.755 303.131 197.626 303.342 197.296 303.425L197.849 304.965H197.249L196.708 303.413V303.401ZM196.708 302.037V303.095H196.897C197.096 303.095 197.179 303.001 197.179 302.813V302.319C197.179 302.131 197.096 302.049 196.897 302.049H196.708V302.037Z" fill="white"/>
<path d="M198.072 304.083V302.449C198.072 301.92 198.331 301.532 198.942 301.532C199.554 301.532 199.812 301.92 199.812 302.449V304.083C199.812 304.612 199.554 305 198.942 305C198.331 305 198.072 304.612 198.072 304.083ZM199.236 304.177V302.355C199.236 302.143 199.142 302.002 198.942 302.002C198.743 302.002 198.648 302.143 198.648 302.355V304.177C198.648 304.377 198.743 304.53 198.942 304.53C199.142 304.53 199.236 304.389 199.236 304.177Z" fill="white"/>
<path d="M193.816 308.21H193.263V309.703H192.687V306.317H193.263V307.751H193.816V306.317H194.392V309.703H193.816V308.21Z" fill="white"/>
<path d="M196.391 306.317V308.88C196.391 309.409 196.168 309.75 195.58 309.75C194.992 309.75 194.721 309.409 194.721 308.88V306.317H195.297V308.939C195.297 309.139 195.38 309.268 195.58 309.268C195.78 309.268 195.862 309.139 195.862 308.939V306.317H196.391Z" fill="white"/>
<path d="M197.202 307.575V309.703H196.72V306.317H197.285L197.896 308.257V306.317H198.378V309.703H197.872L197.202 307.575Z" fill="white"/>
<path d="M199.577 307.893H200.389V309.703H199.977V309.339C199.907 309.597 199.742 309.75 199.424 309.75C198.931 309.75 198.707 309.362 198.707 308.833V307.199C198.707 306.67 198.966 306.282 199.566 306.282C200.165 306.282 200.389 306.634 200.389 307.128V307.434H199.859V307.093C199.859 306.881 199.777 306.764 199.566 306.764C199.354 306.764 199.272 306.905 199.272 307.117V308.939C199.272 309.139 199.354 309.292 199.554 309.292C199.742 309.292 199.836 309.186 199.836 308.962V308.363H199.566V307.916L199.577 307.893Z" fill="white"/>
<path d="M200.718 306.317H202.093V306.776H201.294V307.751H201.858V308.21H201.294V309.233H202.093V309.703H200.718V306.317Z" fill="white"/>
<path d="M202.975 308.151V309.703H202.399V306.317H203.234C203.81 306.317 204.022 306.599 204.022 307.081V307.516C204.022 307.881 203.892 308.092 203.563 308.175L204.116 309.715H203.516L202.975 308.163V308.151ZM202.975 306.776V307.834H203.163C203.363 307.834 203.446 307.74 203.446 307.552V307.058C203.446 306.87 203.363 306.787 203.163 306.787H202.975V306.776Z" fill="white"/>
<path d="M267.372 298.204H227.336V338.204H267.372V298.204Z" fill="#2D9A47"/>
<path d="M260.858 323.225C260.858 322.096 260.129 321.179 259.035 321.179C258.483 321.179 257.824 321.778 257.46 322.155C257.095 321.79 256.484 321.179 255.931 321.179C254.838 321.179 254.062 322.096 254.062 323.225C254.062 323.789 254.285 324.306 254.65 324.671L257.472 327.493L260.282 324.671C260.646 324.295 260.87 323.789 260.87 323.225" fill="white"/>
<path d="M248.853 332.102H248.83C248.618 332.09 248.442 331.925 248.406 331.714L246.972 323.378L244.797 327.399C244.703 327.575 244.503 327.669 244.303 327.634C244.103 327.599 243.95 327.446 243.927 327.246L243.009 320.814L241.328 324.6C241.258 324.765 241.093 324.871 240.905 324.871H234.356C234.097 324.871 233.897 324.659 233.897 324.412C233.897 324.165 234.109 323.954 234.356 323.954H240.599L242.821 318.98C242.904 318.792 243.103 318.686 243.303 318.71C243.503 318.733 243.668 318.898 243.703 319.098L244.656 325.729L246.795 321.767C246.889 321.59 247.078 321.496 247.277 321.532C247.477 321.567 247.63 321.72 247.654 321.908L248.982 329.621L253.815 313.583C253.874 313.407 254.038 313.278 254.226 313.254C254.414 313.242 254.591 313.336 254.685 313.513L257.225 318.78C257.33 319.015 257.236 319.286 257.013 319.392C256.778 319.497 256.507 319.403 256.39 319.18L254.367 314.982L249.312 331.761C249.253 331.961 249.076 332.09 248.865 332.09" fill="white"/>
<path d="M233.345 309.691C234.72 309.691 235.32 308.962 235.32 307.834V306.634C235.32 305.894 234.991 305.412 234.32 305.259C234.885 305.082 235.249 304.624 235.249 303.942V303.236C235.249 302.084 234.697 301.39 233.439 301.39C232.028 301.39 231.534 302.225 231.534 303.425V304.142H232.78V303.319C232.78 302.813 232.933 302.531 233.368 302.531C233.803 302.531 233.956 302.813 233.956 303.26V304.13C233.956 304.565 233.674 304.788 233.227 304.788H232.71V305.835H233.286C233.768 305.835 233.956 306.058 233.956 306.493V307.834C233.956 308.257 233.768 308.563 233.345 308.563C232.874 308.563 232.71 308.257 232.71 307.775V306.611H231.463V307.669C231.463 308.904 231.957 309.691 233.345 309.691Z" fill="white"/>
<path d="M240.035 303.154H240.846V304.965H240.434V304.6C240.364 304.859 240.199 305.012 239.894 305.012C239.4 305.012 239.176 304.624 239.176 304.095V302.46C239.176 301.931 239.435 301.543 240.035 301.543C240.67 301.543 240.846 301.896 240.846 302.39V302.696H240.329V302.355C240.329 302.143 240.246 302.025 240.046 302.025C239.847 302.025 239.753 302.166 239.753 302.378V304.201C239.753 304.4 239.835 304.553 240.035 304.553C240.223 304.553 240.317 304.447 240.317 304.224V303.624H240.046V303.178L240.035 303.154Z" fill="white"/>
<path d="M241.163 304.083V302.449C241.163 301.92 241.422 301.532 242.022 301.532C242.621 301.532 242.892 301.92 242.892 302.449V304.083C242.892 304.612 242.633 305 242.022 305C241.41 305 241.163 304.612 241.163 304.083ZM242.327 304.177V302.355C242.327 302.143 242.233 302.002 242.034 302.002C241.834 302.002 241.74 302.143 241.74 302.355V304.177C241.74 304.377 241.834 304.53 242.034 304.53C242.233 304.53 242.327 304.389 242.327 304.177Z" fill="white"/>
<path d="M243.221 304.083V302.449C243.221 301.92 243.48 301.532 244.079 301.532C244.679 301.532 244.949 301.92 244.949 302.449V304.083C244.949 304.612 244.691 305 244.079 305C243.468 305 243.221 304.612 243.221 304.083ZM244.373 304.177V302.355C244.373 302.143 244.279 302.002 244.079 302.002C243.879 302.002 243.785 302.143 243.785 302.355V304.177C243.785 304.377 243.879 304.53 244.079 304.53C244.279 304.53 244.373 304.389 244.373 304.177Z" fill="white"/>
<path d="M246.972 302.484V304.048C246.972 304.565 246.76 304.953 246.149 304.953H245.267V301.567H246.149C246.76 301.567 246.972 301.955 246.972 302.472M246.078 304.495C246.313 304.495 246.407 304.353 246.407 304.154V302.378C246.407 302.178 246.313 302.037 246.078 302.037H245.843V304.495H246.078Z" fill="white"/>
<path d="M249.276 303.472H248.724V304.965H248.148V301.579H248.724V303.001H249.276V301.579H249.852V304.965H249.276V303.472Z" fill="white"/>
<path d="M250.17 301.579H251.534V302.037H250.746V303.001H251.31V303.472H250.746V304.495H251.534V304.965H250.17V301.579Z" fill="white"/>
<path d="M251.745 304.965L252.38 301.579H253.027L253.674 304.965H253.086L252.98 304.342H252.38L252.286 304.965H251.745ZM252.463 303.883H252.921L252.698 302.519L252.474 303.883H252.463Z" fill="white"/>
<path d="M253.921 301.579H254.485V304.495H255.167V304.965H253.921V301.579Z" fill="white"/>
<path d="M255.038 301.579H256.554V302.037H256.084V304.965H255.508V302.037H255.038V301.579Z" fill="white"/>
<path d="M257.93 303.472H257.389V304.965H256.813V301.579H257.389V303.001H257.93V301.579H258.506V304.965H257.93V303.472Z" fill="white"/>
<path d="M239.082 309.703L239.717 306.317H240.364L241.011 309.703H240.423L240.317 309.08H239.717L239.623 309.703H239.082ZM239.8 308.633H240.258L240.035 307.269L239.811 308.633H239.8Z" fill="white"/>
<path d="M241.728 307.575V309.703H241.258V306.317H241.81L242.422 308.257V306.317H242.904V309.703H242.398L241.728 307.575Z" fill="white"/>
<path d="M244.938 307.222V308.786C244.938 309.303 244.726 309.691 244.115 309.691H243.233V306.305H244.115C244.726 306.305 244.938 306.693 244.938 307.211M244.032 309.245C244.268 309.245 244.362 309.104 244.362 308.904V307.128C244.362 306.928 244.268 306.787 244.032 306.787H243.797V309.245H244.032Z" fill="white"/>
<path d="M247.348 307.61L247.019 309.703H246.49L246.031 306.317H246.584L246.854 308.469L247.136 306.317H247.607L247.924 308.469L248.183 306.317H248.665L248.218 309.703H247.689L247.348 307.61Z" fill="white"/>
<path d="M248.912 306.317H250.264V306.787H249.476V307.751H250.041V308.21H249.476V309.245H250.264V309.703H248.912V306.317Z" fill="white"/>
<path d="M250.57 306.317H251.146V309.245H251.828V309.703H250.57V306.317Z" fill="white"/>
<path d="M252.086 306.317H252.651V309.245H253.333V309.703H252.086V306.317Z" fill="white"/>
<path d="M254.05 307.904H253.25V308.363H254.05V307.904Z" fill="white"/>
<path d="M254.344 306.317H255.167C255.731 306.317 255.931 306.587 255.931 307.058V307.399C255.931 307.681 255.825 307.857 255.59 307.94C255.872 307.998 256.014 308.198 256.014 308.504V308.951C256.014 309.433 255.802 309.691 255.226 309.691H254.344V306.305V306.317ZM254.92 307.751H255.12C255.308 307.751 255.39 307.657 255.39 307.469V307.058C255.39 306.87 255.308 306.787 255.12 306.787H254.92V307.751ZM254.92 308.175V309.233H255.167C255.355 309.233 255.449 309.139 255.449 308.962V308.457C255.449 308.281 255.367 308.186 255.167 308.186H254.92V308.175Z" fill="white"/>
<path d="M256.296 306.317H257.66V306.787H256.872V307.751H257.436V308.21H256.872V309.245H257.66V309.703H256.296V306.317Z" fill="white"/>
<path d="M258.541 306.317H257.965V309.703H258.541V306.317Z" fill="white"/>
<path d="M259.341 307.575V309.703H258.871V306.317H259.423L260.035 308.257V306.317H260.517V309.703H260.011L259.341 307.575Z" fill="white"/>
<path d="M261.704 307.893H262.516V309.703H262.104V309.339C262.034 309.597 261.869 309.75 261.563 309.75C261.069 309.75 260.846 309.362 260.846 308.833V307.199C260.846 306.67 261.105 306.282 261.704 306.282C262.339 306.282 262.516 306.634 262.516 307.128V307.434H261.998V307.093C261.998 306.881 261.916 306.764 261.716 306.764C261.516 306.764 261.422 306.905 261.422 307.117V308.939C261.422 309.139 261.504 309.292 261.704 309.292C261.892 309.292 261.986 309.186 261.986 308.962V308.363H261.716V307.916L261.704 307.893Z" fill="white"/>
<path d="M313.014 298.204H273.355V338.204H313.014V298.204Z" fill="#CD8B2A"/>
<path d="M303.29 318.957C301.527 317.557 299.199 317.522 298.34 317.734L298.246 317.757C297.259 317.992 295.695 318.38 293.861 320.673C293.861 320.685 293.837 320.697 293.825 320.709L293.802 320.732C293.802 320.732 293.767 320.791 293.767 320.826C293.767 320.85 293.767 320.885 293.79 320.897L293.825 320.967C294.061 321.355 294.343 321.849 294.59 322.319C294.59 322.319 294.59 322.319 294.59 322.331C294.613 322.378 294.672 322.413 294.731 322.413C294.778 322.413 294.813 322.39 294.837 322.366C294.837 322.355 294.86 322.331 294.872 322.319C296.494 320.05 297.776 319.733 298.646 319.533L298.752 319.509C299.199 319.403 300.904 319.403 302.138 320.391C303.102 321.155 303.584 322.378 303.584 324.012C303.584 326.764 302.256 327.834 301.151 328.257C299.434 328.904 297.776 328.034 297.764 328.034L297.694 327.998C296.753 327.587 295.342 326.717 294.002 324.024C291.321 318.592 289.075 318.075 287.594 317.746L287.511 317.722C286.841 317.569 284.49 317.463 282.644 318.945C281.68 319.721 280.527 321.226 280.527 324.001C280.527 325.694 280.868 326.811 281.762 327.987C281.962 328.257 283.937 330.832 287.782 330.079C288.393 329.962 289.228 329.668 290.145 328.974L290.992 329.738C290.992 329.738 291.133 329.786 291.18 329.738C291.203 329.715 291.215 329.68 291.215 329.644L291.827 325.847V325.8C291.827 325.8 291.815 325.729 291.78 325.694C291.756 325.67 291.721 325.659 291.685 325.659H291.627L288.029 326.67H287.958C287.958 326.67 287.911 326.693 287.888 326.717C287.841 326.776 287.841 326.858 287.888 326.917L287.935 326.952L288.734 327.681C288.217 328.022 287.758 328.175 287.417 328.245C284.643 328.774 283.267 326.94 283.208 326.87L283.185 326.846C282.538 325.988 282.315 325.259 282.315 323.965C282.315 322.319 282.797 321.097 283.737 320.344C284.937 319.38 286.594 319.368 287.065 319.474H287.147C288.37 319.768 290.028 320.144 292.32 324.8C293.508 327.211 295.013 328.798 296.882 329.621C297.118 329.75 298.27 330.291 299.74 330.291C300.363 330.291 301.033 330.197 301.727 329.938C302.82 329.527 305.348 328.128 305.348 323.977C305.348 321.202 304.184 319.686 303.208 318.91" fill="white"/>
<path d="M277.235 303.389H277.247V309.597H278.599V301.496H277.517L276.283 302.966V304.389L277.235 303.389Z" fill="white"/>
<path d="M279.41 303.166V304.142H280.645V303.131C280.645 302.637 280.88 302.496 281.162 302.496C281.421 302.496 281.644 302.602 281.644 303.107V303.777C281.644 304.447 281.586 304.706 281.151 305.176L280.398 305.988C279.669 306.776 279.387 307.305 279.387 308.104V309.597H282.891V308.48H280.68V308.104C280.68 307.469 280.904 307.234 281.245 306.858L282.115 305.941C282.808 305.188 282.973 304.706 282.973 303.895V303.107C282.973 301.943 282.42 301.402 281.209 301.402C279.998 301.402 279.422 302.037 279.422 303.166" fill="white"/>
<path d="M286.618 303.319V304.871H286.054V301.485H286.877C287.441 301.485 287.653 301.767 287.653 302.249V302.684C287.653 303.048 287.523 303.26 287.206 303.342L287.747 304.883H287.147L286.618 303.33V303.319ZM286.618 301.955V303.013H286.806C286.994 303.013 287.088 302.919 287.088 302.731V302.237C287.088 302.049 287.006 301.967 286.806 301.967H286.618V301.955Z" fill="white"/>
<path d="M287.899 301.485H289.24V301.955H288.464V302.919H289.016V303.378H288.464V304.412H289.24V304.871H287.899V301.485Z" fill="white"/>
<path d="M289.416 304.142V303.683H289.945V304.142C289.945 304.33 290.028 304.447 290.228 304.447C290.404 304.447 290.486 304.33 290.486 304.142V304.012C290.486 303.813 290.404 303.695 290.228 303.53L289.898 303.201C289.581 302.884 289.428 302.684 289.428 302.296V302.178C289.428 301.755 289.675 301.437 290.216 301.437C290.757 301.437 291.004 301.72 291.004 302.214V302.484H290.486V302.19C290.486 301.99 290.392 301.896 290.216 301.896C290.051 301.896 289.945 301.99 289.945 302.178V302.249C289.945 302.437 290.051 302.543 290.216 302.707L290.58 303.072C290.886 303.389 291.039 303.577 291.039 303.954V304.118C291.039 304.589 290.792 304.906 290.216 304.906C289.64 304.906 289.416 304.577 289.416 304.142Z" fill="white"/>
<path d="M291.262 301.485H292.097C292.673 301.485 292.873 301.767 292.873 302.249V302.966C292.873 303.436 292.661 303.73 292.097 303.73H291.827V304.883H291.262V301.485ZM291.827 301.955V303.283H292.038C292.226 303.283 292.32 303.189 292.32 303.001V302.225C292.32 302.037 292.238 301.955 292.038 301.955H291.827Z" fill="white"/>
<path d="M293.108 304.001V302.366C293.108 301.837 293.367 301.449 293.955 301.449C294.543 301.449 294.813 301.837 294.813 302.366V304.001C294.813 304.53 294.554 304.918 293.955 304.918C293.355 304.918 293.108 304.53 293.108 304.001ZM294.249 304.095V302.272C294.249 302.061 294.166 301.92 293.955 301.92C293.743 301.92 293.673 302.061 293.673 302.272V304.095C293.673 304.295 293.767 304.447 293.955 304.447C294.143 304.447 294.249 304.306 294.249 304.095Z" fill="white"/>
<path d="M295.542 302.743V304.871H295.072V301.485H295.624L296.224 303.425V301.485H296.694V304.871H296.2L295.542 302.743Z" fill="white"/>
<path d="M296.918 304.142V303.683H297.447V304.142C297.447 304.33 297.529 304.447 297.729 304.447C297.905 304.447 297.988 304.33 297.988 304.142V304.012C297.988 303.813 297.905 303.695 297.729 303.53L297.4 303.201C297.082 302.884 296.929 302.684 296.929 302.296V302.178C296.929 301.755 297.176 301.437 297.717 301.437C298.258 301.437 298.505 301.72 298.505 302.214V302.484H297.988V302.19C297.988 301.99 297.894 301.896 297.717 301.896C297.553 301.896 297.447 301.99 297.447 302.178V302.249C297.447 302.437 297.553 302.543 297.717 302.707L298.082 303.072C298.387 303.389 298.54 303.577 298.54 303.954V304.118C298.54 304.589 298.293 304.906 297.717 304.906C297.141 304.906 296.918 304.577 296.918 304.142Z" fill="white"/>
<path d="M299.34 301.485H298.775V304.871H299.34V301.485Z" fill="white"/>
<path d="M299.587 301.485H300.398C300.962 301.485 301.151 301.755 301.151 302.225V302.566C301.151 302.848 301.045 303.025 300.81 303.107C301.092 303.166 301.233 303.366 301.233 303.671V304.118C301.233 304.6 301.021 304.859 300.457 304.859H299.575V301.473L299.587 301.485ZM300.151 302.919H300.351C300.539 302.919 300.621 302.825 300.621 302.637V302.225C300.621 302.037 300.539 301.955 300.351 301.955H300.151V302.919ZM300.151 303.354V304.412H300.398C300.586 304.412 300.68 304.318 300.68 304.142V303.636C300.68 303.46 300.598 303.366 300.398 303.366H300.151V303.354Z" fill="white"/>
<path d="M301.456 301.485H302.021V304.412H302.691V304.871H301.456V301.485Z" fill="white"/>
<path d="M302.879 301.485H304.231V301.955H303.443V302.919H304.008V303.378H303.443V304.412H304.231V304.871H302.879V301.485Z" fill="white"/>
<path d="M286.054 308.739V307.105C286.054 306.576 286.3 306.188 286.9 306.188C287.523 306.188 287.7 306.54 287.7 307.034V307.434H287.182V306.987C287.182 306.776 287.112 306.658 286.912 306.658C286.712 306.658 286.63 306.799 286.63 307.011V308.833C286.63 309.033 286.712 309.186 286.912 309.186C287.112 309.186 287.182 309.057 287.182 308.857V308.233H287.7V308.821C287.7 309.303 287.5 309.668 286.9 309.668C286.3 309.668 286.054 309.28 286.054 308.751" fill="white"/>
<path d="M287.935 308.739V307.105C287.935 306.576 288.193 306.188 288.781 306.188C289.369 306.188 289.64 306.576 289.64 307.105V308.739C289.64 309.268 289.381 309.656 288.781 309.656C288.182 309.656 287.935 309.268 287.935 308.739ZM289.075 308.833V307.011C289.075 306.799 288.993 306.658 288.781 306.658C288.57 306.658 288.499 306.799 288.499 307.011V308.833C288.499 309.033 288.593 309.186 288.781 309.186C288.969 309.186 289.075 309.045 289.075 308.833Z" fill="white"/>
<path d="M290.369 307.493V309.621H289.898V306.235H290.451L291.062 308.175V306.235H291.533V309.621H291.039L290.369 307.493Z" fill="white"/>
<path d="M291.756 308.892V308.433H292.285V308.892C292.285 309.08 292.367 309.198 292.567 309.198C292.744 309.198 292.826 309.08 292.826 308.892V308.763C292.826 308.563 292.744 308.445 292.567 308.281L292.238 307.951C291.921 307.634 291.768 307.434 291.768 307.046V306.928C291.768 306.505 292.015 306.188 292.556 306.188C293.096 306.188 293.343 306.47 293.343 306.964V307.234H292.826V306.94C292.826 306.74 292.732 306.646 292.556 306.646C292.391 306.646 292.285 306.74 292.285 306.928V306.999C292.285 307.187 292.391 307.293 292.556 307.457L292.92 307.822C293.226 308.139 293.379 308.328 293.379 308.704V308.868C293.379 309.339 293.132 309.656 292.556 309.656C291.979 309.656 291.756 309.327 291.756 308.892Z" fill="white"/>
<path d="M295.236 306.235V308.798C295.236 309.327 295.013 309.668 294.437 309.668C293.861 309.668 293.59 309.327 293.59 308.798V306.235H294.155V308.857C294.155 309.057 294.237 309.186 294.437 309.186C294.637 309.186 294.719 309.057 294.719 308.857V306.235H295.236Z" fill="white"/>
<path d="M297.047 307.422H297.035L296.647 309.621H296.389L295.965 307.422H295.954V309.621H295.495V306.235H296.153L296.518 308.139L296.847 306.235H297.564V309.621H297.047V307.422Z" fill="white"/>
<path d="M297.811 306.235H298.646C299.222 306.235 299.422 306.517 299.422 306.999V307.716C299.422 308.186 299.21 308.48 298.646 308.48H298.376V309.633H297.811V306.235ZM298.376 306.693V308.022H298.587C298.775 308.022 298.87 307.928 298.87 307.74V306.964C298.87 306.776 298.787 306.693 298.587 306.693H298.376Z" fill="white"/>
<path d="M299.563 306.235H301.056V306.693H300.598V309.621H300.022V306.693H299.563V306.235Z" fill="white"/>
<path d="M301.821 306.235H301.256V309.621H301.821V306.235Z" fill="white"/>
<path d="M302.079 308.739V307.105C302.079 306.576 302.338 306.188 302.926 306.188C303.514 306.188 303.784 306.576 303.784 307.105V308.739C303.784 309.268 303.526 309.656 302.926 309.656C302.326 309.656 302.079 309.268 302.079 308.739ZM303.22 308.833V307.011C303.22 306.799 303.138 306.658 302.926 306.658C302.714 306.658 302.644 306.799 302.644 307.011V308.833C302.644 309.033 302.738 309.186 302.926 309.186C303.114 309.186 303.22 309.045 303.22 308.833Z" fill="white"/>
<path d="M304.513 307.493V309.621H304.043V306.235H304.596L305.207 308.175V306.235H305.677V309.621H305.183L304.513 307.493Z" fill="white"/>
<path d="M285.971 314.359L286.606 310.973H287.253L287.888 314.359H287.312L287.206 313.736H286.606L286.512 314.359H285.971ZM286.677 313.289H287.123L286.9 311.925L286.677 313.289Z" fill="white"/>
<path d="M288.523 312.231V314.359H288.052V310.973H288.605L289.216 312.913V310.973H289.687V314.359H289.193L288.523 312.231Z" fill="white"/>
<path d="M291.627 311.878V313.442C291.627 313.96 291.415 314.348 290.815 314.348H289.945V310.961H290.815C291.415 310.961 291.627 311.349 291.627 311.867M290.733 313.901C290.968 313.901 291.051 313.76 291.051 313.56V311.784C291.051 311.584 290.957 311.443 290.733 311.443H290.498V313.901H290.733Z" fill="white"/>
<path d="M292.661 310.973H293.496C294.072 310.973 294.272 311.255 294.272 311.737V312.455C294.272 312.925 294.061 313.219 293.496 313.219H293.226V314.371H292.661V310.973ZM293.226 311.443V312.772H293.437C293.637 312.772 293.72 312.678 293.72 312.49V311.714C293.72 311.526 293.637 311.443 293.437 311.443H293.226Z" fill="white"/>
<path d="M295.06 312.807V314.359H294.496V310.973H295.319C295.883 310.973 296.095 311.255 296.095 311.737V312.172C296.095 312.537 295.965 312.748 295.648 312.831L296.189 314.371H295.589L295.06 312.819V312.807ZM295.06 311.443V312.502H295.248C295.436 312.502 295.53 312.408 295.53 312.219V311.714C295.53 311.526 295.448 311.443 295.248 311.443H295.06Z" fill="white"/>
<path d="M296.33 313.489V311.855C296.33 311.326 296.588 310.938 297.176 310.938C297.764 310.938 298.035 311.326 298.035 311.855V313.489C298.035 314.018 297.776 314.406 297.176 314.406C296.577 314.406 296.33 314.018 296.33 313.489ZM297.47 313.572V311.749C297.47 311.549 297.388 311.396 297.176 311.396C296.965 311.396 296.894 311.537 296.894 311.749V313.572C296.894 313.771 296.988 313.924 297.176 313.924C297.365 313.924 297.47 313.783 297.47 313.572Z" fill="white"/>
<path d="M299.986 311.878V313.442C299.986 313.96 299.775 314.348 299.163 314.348H298.293V310.961H299.163C299.763 310.961 299.986 311.349 299.986 311.867M299.093 313.901C299.328 313.901 299.41 313.76 299.41 313.56V311.784C299.41 311.584 299.316 311.443 299.093 311.443H298.858V313.901H299.093Z" fill="white"/>
<path d="M301.868 310.973V313.536C301.868 314.065 301.644 314.406 301.068 314.406C300.492 314.406 300.222 314.065 300.222 313.536V310.973H300.786V313.595C300.786 313.795 300.868 313.924 301.068 313.924C301.268 313.924 301.35 313.795 301.35 313.595V310.973H301.868Z" fill="white"/>
<path d="M302.126 313.489V311.855C302.126 311.326 302.373 310.938 302.973 310.938C303.596 310.938 303.773 311.291 303.773 311.784V312.184H303.255V311.737C303.255 311.526 303.185 311.408 302.985 311.408C302.785 311.408 302.703 311.549 302.703 311.761V313.583C302.703 313.783 302.785 313.936 302.985 313.936C303.185 313.936 303.255 313.807 303.255 313.607V312.984H303.773V313.572C303.773 314.054 303.573 314.418 302.973 314.418C302.373 314.418 302.126 314.03 302.126 313.501" fill="white"/>
<path d="M303.89 310.973H305.383V311.443H304.925V314.359H304.349V311.443H303.89V310.973Z" fill="white"/>
<path d="M306.148 310.973H305.583V314.359H306.148V310.973Z" fill="white"/>
<path d="M306.406 313.489V311.855C306.406 311.326 306.665 310.938 307.253 310.938C307.841 310.938 308.111 311.326 308.111 311.855V313.489C308.111 314.018 307.852 314.406 307.253 314.406C306.653 314.406 306.406 314.018 306.406 313.489ZM307.547 313.572V311.749C307.547 311.549 307.464 311.396 307.253 311.396C307.041 311.396 306.971 311.537 306.971 311.749V313.572C306.971 313.771 307.065 313.924 307.253 313.924C307.441 313.924 307.547 313.783 307.547 313.572Z" fill="white"/>
<path d="M308.84 312.231V314.359H308.37V310.973H308.922L309.522 312.913V310.973H309.992V314.359H309.499L308.84 312.231Z" fill="white"/>
<path d="M319.053 298.204L318.998 338.148L358.942 338.204L358.998 298.26L319.053 298.204Z" fill="#48773C"/>
<path d="M354.032 323.285C352.973 321.804 348.199 315.865 339.298 315.854C330.397 315.842 325.599 321.768 324.541 323.25C324.494 323.309 324.458 323.367 324.423 323.415C324.458 323.462 324.494 323.52 324.541 323.579C325.599 325.061 330.373 330.999 339.286 331.011C348.187 331.022 352.985 325.096 354.043 323.614C354.09 323.556 354.126 323.497 354.161 323.45C354.126 323.403 354.09 323.344 354.043 323.285M334.324 319.593C334.406 319.475 334.665 319.134 334.7 319.099C334.771 319.005 334.9 318.993 334.994 318.981C335.088 318.958 335.218 319.017 335.229 319.087C335.241 319.158 335.194 319.44 335.147 319.487C335.018 319.616 334.677 319.816 334.489 319.781C334.348 319.758 334.289 319.652 334.312 319.605M334.007 320.228C334.007 320.228 334.03 320.193 334.042 320.193C334.159 320.063 334.371 320.04 334.536 320.016C334.689 319.993 334.9 320.063 334.924 320.169C334.947 320.275 334.536 320.463 334.465 320.534C334.253 320.734 333.912 321.133 333.724 321.18C333.654 321.192 333.607 321.18 333.56 321.169C333.689 320.851 333.842 320.534 334.018 320.251M337.334 327.071C337.217 327.542 337.076 327.718 336.958 327.859C336.84 328.012 336.394 328.2 336.111 328.177C335.829 328.153 335.794 327.401 335.794 327.013C335.794 326.883 335.606 327.271 335.512 326.472C335.453 325.954 335.112 326.531 335.088 326.178C335.065 325.837 334.9 325.907 334.724 325.684C334.547 325.472 334.336 325.707 334.089 325.813C333.842 325.919 333.948 325.978 333.607 325.872C333.607 325.872 333.595 325.872 333.583 325.872C333.266 325.131 333.101 324.308 333.101 323.462C333.101 323.25 333.101 323.05 333.136 322.838C333.148 322.815 333.16 322.803 333.172 322.78C333.501 322.392 333.489 322.297 333.489 322.297L333.854 322.168C333.854 322.168 334.43 322.262 334.865 322.427C335.218 322.556 335.794 322.874 336.123 322.733C336.358 322.638 336.546 322.509 336.523 322.309C336.499 322.062 336.299 322.003 336.064 322.168C335.97 322.227 335.794 321.792 335.641 321.815C335.5 321.839 335.817 322.333 335.7 322.344C335.57 322.368 335.323 321.827 335.288 321.745C335.241 321.662 335.053 321.439 334.877 321.604C334.512 321.956 333.912 321.933 333.795 322.015C333.43 322.286 333.336 321.921 333.348 321.71C333.36 321.662 333.383 321.615 333.395 321.557C333.513 321.427 333.936 321.38 334.089 321.486C334.253 321.592 334.359 321.463 334.43 321.392C334.489 321.333 334.477 321.227 334.43 321.145C334.395 321.063 334.512 320.992 334.594 320.969C334.677 320.945 334.959 320.757 335.065 320.687C335.182 320.628 335.747 320.557 336.005 320.687C336.264 320.816 336.499 320.71 336.629 320.557C336.793 320.369 336.993 320.228 337.076 320.181C337.17 320.134 336.852 319.852 336.593 320.169C336.335 320.487 336.205 320.51 336.088 320.51C335.97 320.51 335.253 320.334 335.159 320.11C335.077 319.887 335.382 319.711 335.653 319.593C335.911 319.464 336.64 319.475 336.829 319.428C337.205 319.346 337.687 319.158 337.922 319.322C338.169 319.487 336.911 319.769 337.322 319.993C337.464 320.075 338.134 319.616 338.357 319.499C338.886 319.228 337.84 319.134 337.981 318.57C338.134 317.935 336.688 318.182 335.97 318.229C336.934 317.617 338.075 317.253 339.31 317.253C342.238 317.253 344.683 319.287 345.33 322.015C345.33 322.145 345.318 322.25 345.295 322.297C345.236 322.521 344.813 322.709 344.566 322.356C344.507 322.262 344.237 322.015 344.248 322.439C344.248 322.874 344.672 322.909 344.272 323.168C343.872 323.426 343.802 323.367 343.625 323.426C343.437 323.497 343.261 323.932 343.308 324.167C343.355 324.402 343.919 325.049 343.496 325.025C343.402 325.025 342.661 324.508 342.532 324.179C342.402 323.838 342.261 323.497 342.167 323.238C342.061 322.979 341.803 322.921 341.579 323.062C341.356 323.215 341.638 323.367 341.485 323.685C341.32 324.002 341.215 324.296 340.979 324.026C340.38 323.332 339.498 323.673 339.357 322.897C339.286 322.474 338.922 322.521 338.628 322.286C338.322 322.051 338.157 321.921 338.11 322.098C338.063 322.25 339.051 323.038 339.122 323.238C339.227 323.544 338.828 323.803 338.534 323.873C338.24 323.944 338.11 323.708 337.828 323.403C337.546 323.097 337.417 322.885 337.393 323.121C337.369 323.462 337.663 323.967 337.957 324.155C338.204 324.32 338.487 324.39 338.404 324.649C338.322 324.908 338.404 324.767 338.122 325.037C337.84 325.319 337.781 325.402 337.805 325.79C337.828 326.178 337.722 326.201 337.663 326.519C337.605 326.836 337.464 326.566 337.346 327.036M343.99 324.602C344.201 324.59 344.507 324.873 344.389 324.99C344.272 325.096 343.954 325.061 343.801 324.931C343.649 324.814 343.896 324.614 343.99 324.602ZM343.719 324.414C343.649 324.39 343.59 324.32 343.543 324.179C343.496 324.026 343.625 323.944 343.743 324.002C343.872 324.073 344.037 324.261 344.037 324.355C344.037 324.449 343.79 324.449 343.719 324.414ZM340.991 324.402C340.874 324.508 340.556 324.473 340.391 324.343C340.239 324.226 340.497 324.026 340.58 324.014C340.791 323.991 341.097 324.285 340.979 324.402M338.451 325.625C338.369 325.766 338.134 326.813 337.981 326.683C337.828 326.566 338.052 325.472 338.087 325.39C338.334 324.943 338.863 324.967 338.451 325.625ZM339.286 329.67C338.675 329.67 338.099 329.576 337.546 329.411C337.464 329.353 337.417 329.235 337.475 329.106C337.663 328.612 338.24 328.412 338.686 328.365C339.686 328.271 341.015 329.023 341.226 328.894C341.438 328.776 341.861 328.224 342.485 328.247C342.908 328.259 342.908 328.341 343.049 328.388C342.002 329.176 340.697 329.658 339.286 329.647M343.66 327.871C343.602 327.859 343.531 327.836 343.461 327.801C343.12 327.624 343.167 327.906 342.99 327.848C342.826 327.789 343.178 327.401 342.684 327.73C342.191 328.059 342.32 327.683 342.108 327.13C341.885 326.578 342.355 325.943 342.755 325.802C343.296 325.613 343.625 325.566 343.884 325.508C344.625 325.319 344.789 324.884 344.919 325.155C344.942 325.202 344.966 325.249 344.989 325.296C345.036 325.378 345.083 325.543 345.083 325.696C344.766 326.519 344.272 327.271 343.66 327.883M345.365 324.743C345.201 324.696 344.507 323.732 345.06 323.097C345.154 322.991 344.872 322.685 344.954 322.685C345.26 322.662 345.412 322.85 345.495 323.121C345.495 323.238 345.495 323.356 345.495 323.485C345.495 323.92 345.448 324.343 345.365 324.755" fill="white"/>
<path d="M324 301.461L323.988 309.563H322.624L322.636 303.354H322.624L321.672 304.354H321.648L321.66 302.931L322.906 301.461H324Z" fill="white"/>
<path d="M328.492 303.225V303.93C328.492 304.612 328.115 305.059 327.563 305.247C328.245 305.4 328.562 305.882 328.562 306.623V307.823C328.562 308.94 327.963 309.669 326.587 309.669C325.199 309.669 324.705 308.881 324.717 307.646V306.588H325.964V307.752C325.964 308.234 326.128 308.54 326.599 308.54C327.022 308.54 327.21 308.246 327.21 307.811V306.47C327.21 306.035 327.022 305.812 326.54 305.812H325.964V304.765H326.481C326.928 304.765 327.21 304.542 327.21 304.107V303.237C327.21 302.79 327.057 302.508 326.622 302.508C326.199 302.508 326.034 302.79 326.034 303.295V304.119H324.788V303.401C324.788 302.202 325.282 301.367 326.693 301.367C327.951 301.367 328.492 302.073 328.492 303.225Z" fill="white"/>
<path d="M331.314 303.954V302.319C331.314 301.79 331.572 301.402 332.172 301.402C332.795 301.402 332.972 301.755 332.972 302.249V302.649H332.454V302.202C332.454 301.99 332.384 301.873 332.184 301.873C331.984 301.873 331.89 302.014 331.89 302.225V304.048C331.89 304.248 331.972 304.401 332.172 304.401C332.372 304.401 332.443 304.271 332.443 304.071V303.448H332.96V304.036C332.96 304.518 332.76 304.883 332.149 304.883C331.549 304.883 331.302 304.495 331.302 303.966" fill="white"/>
<path d="M333.289 301.438H333.854V304.365H334.536L334.524 304.824H333.277L333.289 301.438Z" fill="white"/>
<path d="M334.791 301.444L334.786 304.831L335.362 304.831L335.367 301.445L334.791 301.444Z" fill="white"/>
<path d="M337.264 302.637H337.24L336.852 304.824H336.593L336.17 302.637H336.158V304.824H335.688V301.438H336.358L336.723 303.354H336.735L337.064 301.449H337.781V304.836H337.252L337.264 302.637Z" fill="white"/>
<path d="M338.004 304.836L338.651 301.449H339.298L339.933 304.836H339.345L339.239 304.213H338.639L338.534 304.836H337.993H338.004ZM338.722 303.754H339.18L338.957 302.39L338.734 303.754H338.722Z" fill="white"/>
<path d="M339.862 301.449H341.379V301.92L340.909 301.908V304.836H340.333V301.908H339.862V301.449Z" fill="white"/>
<path d="M341.65 301.449H343.002V301.92H342.214V302.884H342.778V303.342H342.214V304.377H343.002V304.836H341.638L341.65 301.449Z" fill="white"/>
<path d="M331.22 309.563L331.866 306.176H332.513L333.148 309.563H332.56L332.454 308.94H331.855L331.749 309.563H331.208H331.22ZM331.937 308.493H332.396L332.172 307.129L331.949 308.493H331.937Z" fill="white"/>
<path d="M333.313 308.693V307.058C333.313 306.529 333.571 306.141 334.171 306.141C334.794 306.141 334.971 306.494 334.971 306.988V307.387H334.453V306.941C334.453 306.729 334.383 306.611 334.183 306.611C333.983 306.611 333.889 306.752 333.889 306.964V308.787C333.889 308.987 333.971 309.139 334.171 309.139C334.371 309.139 334.442 309.01 334.442 308.81V308.187H334.959V308.775C334.959 309.257 334.759 309.622 334.148 309.622C333.548 309.622 333.301 309.234 333.301 308.704" fill="white"/>
<path d="M335.171 306.188H336.676V306.658H336.205V309.575H335.629L335.641 306.647H335.171V306.188Z" fill="white"/>
<path d="M336.951 306.185L336.944 309.571L337.509 309.572L337.516 306.186L336.951 306.185Z" fill="white"/>
<path d="M337.84 308.704V307.07C337.84 306.541 338.099 306.153 338.698 306.153C339.298 306.153 339.557 306.541 339.557 307.07V308.704C339.557 309.234 339.298 309.622 338.686 309.622C338.087 309.622 337.828 309.234 337.828 308.704M338.992 308.798V306.976C338.992 306.776 338.91 306.623 338.698 306.623C338.498 306.623 338.404 306.764 338.404 306.976V308.798C338.404 308.998 338.487 309.151 338.686 309.151C338.886 309.151 338.98 309.01 338.98 308.798" fill="white"/>
<path d="M340.368 307.446V309.575H339.886V306.188L340.45 306.2L341.062 308.14V306.2H341.544L341.532 309.586L341.038 309.575L340.368 307.446Z" fill="white"/>
<text fill="#0213B0" xml:space="preserve" style="white-space: pre" font-family="VNM Sans Std" font-size="16" letter-spacing="0em"><tspan x="16" y="429.536">Vinamilk </tspan><tspan x="75.5558" y="429.536">believes </tspan><tspan x="134.424" y="429.536">that </tspan><tspan x="168.089" y="429.536">the </tspan><tspan x="195.864" y="429.536">foundation </tspan><tspan x="276.717" y="429.536">of </tspan><tspan x="296.538" y="429.536">a </tspan><tspan x="308.281" y="429.536">healthy </tspan><tspan x="16" y="447.536">and </tspan><tspan x="46.1806" y="447.536">fulfilling </tspan><tspan x="104.486" y="447.536">life </tspan><tspan x="129.667" y="447.536">lies </tspan><tspan x="155.566" y="447.536">in </tspan><tspan x="171.528" y="447.536">nourishing </tspan><tspan x="246.599" y="447.536">the </tspan><tspan x="274.873" y="447.536">body </tspan><tspan x="315.929" y="447.536">with </tspan><tspan x="351.266" y="447.536">a </tspan><tspan x="16" y="465.536">well-balanced </tspan><tspan x="120.828" y="465.536">diet. </tspan><tspan x="161.984" y="465.536">Recognizing </tspan><tspan x="254.984" y="465.536">that </tspan><tspan x="295.688" y="465.536">individual </tspan><tspan x="16" y="483.536">nutritional </tspan><tspan x="97.8187" y="483.536">needs </tspan><tspan x="151.262" y="483.536">vary, </tspan><tspan x="193.972" y="483.536">Vinamilk </tspan><tspan x="261.103" y="483.536">goes </tspan><tspan x="306.703" y="483.536">beyond </tspan><tspan x="16" y="501.536">providing </tspan><tspan x="83.2879" y="501.536">high-quality, </tspan><tspan x="169.982" y="501.536">safe </tspan><tspan x="202.676" y="501.536">products </tspan><tspan x="268.605" y="501.536">for </tspan><tspan x="293.049" y="501.536">all. </tspan><tspan x="312.603" y="501.536">We </tspan><tspan x="337.922" y="501.536">are </tspan><tspan x="16" y="519.536">committed </tspan><tspan x="107.516" y="519.536">to </tspan><tspan x="139.297" y="519.536">developing </tspan><tspan x="230.781" y="519.536">tailored </tspan><tspan x="299.422" y="519.536">nutrition </tspan><tspan x="16" y="537.536">solutions </tspan><tspan x="81.1062" y="537.536">for </tspan><tspan x="105.634" y="537.536">vulnerable </tspan><tspan x="178.678" y="537.536">groups, </tspan><tspan x="232.816" y="537.536">actively </tspan><tspan x="288.172" y="537.536">minimizing </tspan><tspan x="16" y="555.536">food </tspan><tspan x="54.5089" y="555.536">loss </tspan><tspan x="84.5647" y="555.536">and </tspan><tspan x="114.089" y="555.536">waste, </tspan><tspan x="162.098" y="555.536">and </tspan><tspan x="191.623" y="555.536">ensuring </tspan><tspan x="253.694" y="555.536">transparency </tspan><tspan x="347.547" y="555.536">in </tspan><tspan x="16" y="573.536">our </tspan><tspan x="41.7031" y="573.536">communication </tspan><tspan x="149" y="573.536">and </tspan><tspan x="177.328" y="573.536">business </tspan><tspan x="238.688" y="573.536">practices.</tspan></text>
<rect x="16" y="610" width="342" height="112" rx="8" fill="#38C0FF"/>
<text fill="#FFFFF1" xml:space="preserve" style="white-space: pre" font-family="VNM Sans Display" font-size="54" font-weight="bold" letter-spacing="0em"><tspan x="53.2188" y="679.195" data-counter data-from="0" data-to="250" data-ori="250+">250+</tspan></text>
<text fill="#FFFFF1" xml:space="preserve" style="white-space: pre" font-family="VNM Sans Display" font-size="20" letter-spacing="0em"><tspan x="72.3281" y="699.189">SKUs</tspan></text>
<text fill="#FFFFF1" xml:space="preserve" style="white-space: pre" font-family="VNM Sans Display" font-size="54" font-weight="bold" letter-spacing="0em"><tspan x="172.152" y="678.8" data-counter data-from="0" data-to="13" data-ori="13">13</tspan></text>
<text fill="#FFFFF1" xml:space="preserve" style="white-space: pre" font-family="VNM Sans Display" font-size="20" letter-spacing="0em"><tspan x="157.475" y="700.795">new products</tspan></text>
<text fill="#FFFFF1" xml:space="preserve" style="white-space: pre" font-family="VNM Sans Std" font-size="12" letter-spacing="0em"><tspan x="260.359" y="635.152">improved</tspan></text>
<text fill="#FFFFF1" xml:space="preserve" style="white-space: pre" font-family="VNM Sans Display" font-size="54" font-weight="bold" letter-spacing="0em"><tspan x="265.779" y="679.195" data-counter data-from="0" data-to="24" data-ori="24">24</tspan></text>
<text fill="#FFFFF1" xml:space="preserve" style="white-space: pre" font-family="VNM Sans Display" font-size="20" letter-spacing="0em"><tspan x="264.568" y="701.189">products</tspan></text>
<rect x="16" y="738" width="164" height="183" rx="5.39645" fill="#38C0FF"/>
<text fill="#FFFFF1" xml:space="preserve" style="white-space: pre" font-family="VNM Sans Std" font-size="13" letter-spacing="0em"><tspan x="51.3765" y="770.498">100% of Vinamilk </tspan><tspan x="59.1841" y="785.498">factories have </tspan><tspan x="45.562" y="800.498">implemented Food </tspan><tspan x="41.4551" y="815.498">Safety Management </tspan><tspan x="42.3247" y="830.498">Systems certified to </tspan><tspan x="87.2661" y="845.498">the&#xa0;</tspan></text>
<text fill="#FFFFF1" xml:space="preserve" style="white-space: pre" font-family="VNM Sans Display" font-size="28.7211" font-weight="bold" letter-spacing="0em"><tspan x="51.3844" y="878.605">FSSC 22000</tspan></text>
<text fill="#FFFFF1" xml:space="preserve" style="white-space: pre" font-family="VNM Sans Display" font-size="19.1474" letter-spacing="0em"><tspan x="75.1971" y="896.106">STANDARD</tspan></text>
<rect x="196" y="738" width="162" height="183" rx="5.39645" fill="#38C0FF"/>
<text fill="#FFFFF1" xml:space="preserve" style="white-space: pre" font-family="VNM Sans Std" font-size="13" letter-spacing="0em"><tspan x="241.872" y="800.498">Laboratories </tspan><tspan x="219.389" y="815.498">accredited under the</tspan></text>
<text fill="#FFFFF1" xml:space="preserve" style="white-space: pre" font-family="VNM Sans Display" font-size="28.7211" font-weight="bold" letter-spacing="0em"><tspan x="238.084" y="848.605">ISO 17025</tspan></text>
<text fill="#FFFFF1" xml:space="preserve" style="white-space: pre" font-family="VNM Sans Display" font-size="19.1474" letter-spacing="0em"><tspan x="254.197" y="866.106">STANDARD</tspan></text>
</g>
<defs>
<clipPath id="clip0_349_15234">
<rect width="375" height="946" fill="white"/>
</clipPath>
</defs>
</svg>
