<svg width="375" height="1210" viewBox="0 0 375 1210" fill="none" xmlns="http://www.w3.org/2000/svg">
<text fill="#4DD75A" xml:space="preserve" style="white-space: pre" font-family="VNM Sans Display" font-size="48" font-weight="bold" letter-spacing="0em"><tspan x="113.117" y="66.56">PH&#xc1;T TH&#x1ea2;I &#x2028;</tspan><tspan x="95.0469" y="116.56">KH&#xcd; NH&#xc0; K&#xcd;NH</tspan></text>
<text fill="#2BC81F" xml:space="preserve" style="white-space: pre" font-family="VNM Sans Std" font-size="15" letter-spacing="0em"><tspan x="133.265" y="138.69">TI&#xca;N PHONG TR&#xca;N &#x2028;</tspan><tspan x="100.284" y="155.69"> H&#xc0;NH TR&#xcc;NH NET-ZERO 2050</tspan></text>
<rect y="354" width="16.2214" height="23" fill="#2BC81F"/>
<rect x="16.2214" y="354" width="8.77865" height="23" fill="#006D5A"/>
<rect x="25" y="354" width="16.2214" height="23" fill="#2BC81F"/>
<rect x="41.2214" y="354" width="8.77865" height="23" fill="#006D5A"/>
<rect x="50" y="354" width="16.2214" height="23" fill="#2BC81F"/>
<rect x="66.2214" y="354" width="8.77865" height="23" fill="#006D5A"/>
<rect x="75" y="354" width="16.2214" height="23" fill="#2BC81F"/>
<rect x="91.2217" y="354" width="8.77865" height="23" fill="#006D5A"/>
<rect x="100" y="354" width="16.2214" height="23" fill="#2BC81F"/>
<rect x="116.221" y="354" width="8.77865" height="23" fill="#006D5A"/>
<rect x="125" y="354" width="16.2214" height="23" fill="#2BC81F"/>
<rect x="141.221" y="354" width="8.77865" height="23" fill="#006D5A"/>
<rect x="150" y="354" width="16.2214" height="23" fill="#2BC81F"/>
<rect x="166.221" y="354" width="8.77865" height="23" fill="#006D5A"/>
<rect x="175" y="354" width="16.2214" height="23" fill="#2BC81F"/>
<rect x="191.221" y="354" width="8.77865" height="23" fill="#006D5A"/>
<rect x="200" y="354" width="16.2214" height="23" fill="#2BC81F"/>
<rect x="216.221" y="354" width="8.77865" height="23" fill="#006D5A"/>
<rect x="225" y="354" width="16.2214" height="23" fill="#2BC81F"/>
<rect x="241.221" y="354" width="8.77865" height="23" fill="#006D5A"/>
<rect x="250" y="354" width="16.2214" height="23" fill="#2BC81F"/>
<rect x="266.221" y="354" width="8.77865" height="23" fill="#006D5A"/>
<rect x="275" y="354" width="16.2214" height="23" fill="#2BC81F"/>
<rect x="291.221" y="354" width="8.77865" height="23" fill="#006D5A"/>
<rect x="300" y="354" width="16.2214" height="23" fill="#2BC81F"/>
<rect x="316.221" y="354" width="8.77865" height="23" fill="#006D5A"/>
<rect x="325" y="354" width="16.2214" height="23" fill="#2BC81F"/>
<rect x="341.221" y="354" width="8.77865" height="23" fill="#006D5A"/>
<rect x="350" y="354" width="16.2214" height="23" fill="#2BC81F"/>
<rect x="366.221" y="354" width="8.77865" height="23" fill="#006D5A"/>
<path d="M312 298H272V338H312V298Z" fill="#FBC311"/>
<path d="M276.106 302.459H278.193L276.384 309.421H277.733L279.504 302.6V301.349H276.106V302.459Z" fill="white"/>
<path d="M292.014 317.379C288.779 317.379 286.156 320.004 286.156 323.24C286.156 326.476 288.779 329.101 292.014 329.101C295.25 329.101 297.872 326.476 297.872 323.24C297.872 320.004 295.25 317.379 292.014 317.379ZM291.584 319.693C291.584 319.496 291.775 319.279 292.024 319.279C292.273 319.279 292.455 319.496 292.455 319.693V321.706C292.455 321.904 292.263 322.111 292.024 322.111C291.785 322.111 291.584 321.895 291.584 321.706V319.693ZM292.014 326.25C290.33 326.25 288.971 324.886 288.971 323.202C288.971 321.829 289.87 320.672 291.115 320.286V321.424C290.473 321.754 290.023 322.421 290.023 323.202C290.023 324.303 290.914 325.197 292.014 325.197C293.115 325.197 294.005 324.303 294.005 323.202C294.005 322.421 293.555 321.754 292.914 321.424V320.295C294.158 320.681 295.068 321.838 295.068 323.212C295.068 324.896 293.699 326.26 292.014 326.26" fill="white"/>
<path d="M285.285 323.193C285.285 322.929 285.046 322.713 284.836 322.713H282.27C282.05 322.713 281.821 322.929 281.821 323.193C281.821 323.456 282.06 323.673 282.27 323.673H284.836C285.046 323.673 285.285 323.456 285.285 323.193Z" fill="white"/>
<path d="M302.218 323.193C302.218 322.929 301.978 322.713 301.768 322.713H299.203C298.983 322.713 298.753 322.929 298.753 323.193C298.753 323.456 298.992 323.673 299.203 323.673H301.768C301.978 323.673 302.218 323.456 302.218 323.193Z" fill="white"/>
<path d="M292.014 316.457C292.282 316.457 292.493 316.222 292.493 316.006V313.437C292.493 313.221 292.273 312.986 292.014 312.986C291.756 312.986 291.536 313.221 291.536 313.437V316.006C291.536 316.222 291.756 316.457 292.014 316.457Z" fill="white"/>
<path d="M286.176 319.844C286.31 319.609 286.214 319.308 286.022 319.204L283.792 317.925C283.601 317.821 283.295 317.887 283.161 318.113C283.027 318.348 283.132 318.649 283.314 318.753L285.544 320.032C285.726 320.135 286.042 320.07 286.176 319.834" fill="white"/>
<path d="M295.355 317.351C295.585 317.483 295.891 317.389 295.996 317.2L297.269 314.971C297.374 314.783 297.307 314.472 297.078 314.341C296.848 314.209 296.542 314.303 296.436 314.491L295.163 316.721C295.058 316.909 295.125 317.219 295.355 317.351Z" fill="white"/>
<path d="M288.664 317.36C288.894 317.229 288.961 316.918 288.856 316.73L287.573 314.5C287.468 314.312 287.162 314.218 286.932 314.35C286.702 314.482 286.635 314.792 286.74 314.98L288.023 317.2C288.128 317.389 288.435 317.483 288.664 317.351" fill="white"/>
<path d="M297.853 319.834C297.987 320.07 298.293 320.135 298.485 320.023L300.705 318.743C300.897 318.63 300.993 318.329 300.859 318.103C300.725 317.868 300.409 317.802 300.227 317.915L298.006 319.195C297.824 319.298 297.719 319.609 297.853 319.834Z" fill="white"/>
<path d="M292.005 329.938C291.737 329.938 291.526 330.173 291.526 330.389V332.958C291.526 333.174 291.746 333.409 292.005 333.409C292.263 333.409 292.483 333.174 292.483 332.958V330.389C292.483 330.173 292.263 329.938 292.005 329.938Z" fill="white"/>
<path d="M297.844 326.551C297.709 326.777 297.805 327.087 297.997 327.191L300.227 328.461C300.418 328.564 300.725 328.499 300.859 328.273C300.993 328.038 300.887 327.737 300.705 327.624L298.475 326.344C298.293 326.241 297.978 326.307 297.844 326.542" fill="white"/>
<path d="M288.664 329.044C288.435 328.913 288.128 329.007 288.023 329.195L286.75 331.424C286.645 331.612 286.712 331.923 286.941 332.055C287.171 332.186 287.477 332.092 287.583 331.904L288.856 329.675C288.961 329.486 288.894 329.176 288.664 329.044Z" fill="white"/>
<path d="M295.364 329.044C295.135 329.176 295.068 329.486 295.173 329.675L296.456 331.904C296.561 332.092 296.867 332.186 297.097 332.055C297.327 331.923 297.394 331.612 297.288 331.424L296.006 329.195C295.9 329.007 295.594 328.913 295.364 329.044Z" fill="white"/>
<path d="M286.166 326.561C286.032 326.335 285.726 326.26 285.534 326.373L283.314 327.652C283.122 327.765 283.027 328.066 283.161 328.292C283.295 328.527 283.61 328.593 283.792 328.48L286.022 327.2C286.204 327.097 286.31 326.786 286.176 326.561" fill="white"/>
<path d="M283.381 304.19L283.39 304.811V305.507H282.969V303.089H283.467L283.744 304.294V303.588L283.735 303.089H284.156V305.507H283.687L283.381 304.19Z" fill="white"/>
<path d="M284.998 304.736L284.893 303.682L284.788 304.736H284.998ZM284.836 302.694V302.76C284.836 302.76 284.855 302.826 284.893 302.826H284.931C284.931 302.826 284.998 302.807 284.998 302.76V302.694H285.199V302.779C285.199 302.939 285.132 303.005 284.989 303.005H284.855C284.711 303.005 284.644 302.939 284.644 302.779V302.694H284.845H284.836ZM285.037 305.159H284.73L284.702 305.516H284.261L284.577 303.089H285.238L285.553 305.516H285.075L285.037 305.159Z" fill="white"/>
<path d="M286.061 304.19L286.07 304.811L286.08 305.507H285.659V303.089H286.156L286.434 304.294L286.425 303.588V303.089H286.846V305.507H286.377L286.061 304.19Z" fill="white"/>
<path d="M288.214 304.143V305.084C288.214 305.385 288.071 305.535 287.765 305.535H287.449C287.152 305.535 286.999 305.385 286.999 305.084V303.522C286.999 303.221 287.142 303.071 287.449 303.071H287.755C288.061 303.071 288.205 303.221 288.205 303.522V303.983H287.726V303.569C287.726 303.513 287.698 303.484 287.64 303.484H287.573C287.516 303.484 287.487 303.513 287.487 303.569V305.027C287.487 305.084 287.516 305.112 287.573 305.112H287.65C287.707 305.112 287.736 305.084 287.736 305.027V304.548H287.583V304.143H288.214Z" fill="white"/>
<path d="M288.856 303.089V305.516H289.688V305.084H289.344V303.089H288.856Z" fill="white"/>
<path d="M291.249 303.024C291.249 303.221 291.172 303.315 291 303.325V305.074C291 305.375 290.847 305.526 290.55 305.526H290.253C289.947 305.526 289.803 305.375 289.803 305.074V303.08H290.291V305.018C290.291 305.074 290.32 305.103 290.378 305.103H290.425C290.483 305.103 290.512 305.074 290.512 305.018V303.08H290.885C290.942 303.08 290.971 303.052 290.971 302.995V302.911H291.249V303.024Z" fill="white"/>
<path d="M291.89 303.569C291.89 303.513 291.861 303.484 291.804 303.484H291.737C291.679 303.484 291.651 303.513 291.651 303.569V305.027C291.651 305.084 291.679 305.112 291.737 305.112H291.804C291.861 305.112 291.89 305.084 291.89 305.027V303.569ZM291.574 305.733H291.957V306.128H291.574V305.733ZM292.617 302.92V303.024C292.617 303.23 292.531 303.325 292.349 303.325C292.369 303.381 292.369 303.437 292.369 303.513V305.074C292.369 305.375 292.215 305.526 291.919 305.526H291.603C291.306 305.526 291.153 305.375 291.153 305.074V303.513C291.153 303.212 291.296 303.061 291.603 303.061H291.919C292.034 303.061 292.129 303.08 292.196 303.127V303.08H292.254C292.311 303.08 292.34 303.052 292.34 302.995V302.911H292.608L292.617 302.92Z" fill="white"/>
<path d="M292.943 304.19L292.952 304.811V305.507H292.541V303.089H293.029L293.316 304.294L293.307 303.588L293.297 303.089H293.718V305.507H293.249L292.943 304.19Z" fill="white"/>
<path d="M295.096 304.143V305.084C295.096 305.385 294.953 305.535 294.647 305.535H294.331C294.034 305.535 293.881 305.385 293.881 305.084V303.522C293.881 303.221 294.034 303.071 294.331 303.071H294.637C294.943 303.071 295.087 303.221 295.087 303.522V303.983H294.608V303.569C294.608 303.513 294.58 303.484 294.522 303.484H294.455C294.398 303.484 294.369 303.513 294.369 303.569V305.027C294.369 305.084 294.398 305.112 294.455 305.112H294.532C294.589 305.112 294.618 305.084 294.618 305.027V304.548H294.465V304.143H295.096Z" fill="white"/>
<path d="M296.886 304.632V305.074C296.886 305.375 296.733 305.526 296.436 305.526H296.168C295.872 305.526 295.719 305.375 295.719 305.074V304.557H296.197V305.027C296.197 305.084 296.226 305.112 296.283 305.112H296.331C296.389 305.112 296.417 305.084 296.417 305.027V304.736C296.417 304.66 296.398 304.623 296.331 304.576L295.92 304.265C295.776 304.162 295.728 304.058 295.728 303.889V303.503C295.728 303.202 295.881 303.052 296.178 303.052H296.446C296.743 303.052 296.896 303.202 296.896 303.503V303.945H296.417V303.55C296.417 303.494 296.389 303.466 296.331 303.466H296.293C296.235 303.466 296.207 303.494 296.207 303.55V303.776C296.207 303.851 296.226 303.889 296.293 303.927L296.704 304.237C296.858 304.341 296.896 304.435 296.896 304.613" fill="white"/>
<path d="M297.681 304.736L297.575 303.682L297.47 304.736H297.681ZM297.403 305.733H297.796V306.128H297.403V305.733ZM297.729 305.159H297.422L297.394 305.516H296.953L297.269 303.089H297.93L298.246 305.516H297.767L297.729 305.159Z" fill="white"/>
<path d="M299.519 305.084C299.519 305.385 299.365 305.535 299.069 305.535H298.772C298.475 305.535 298.322 305.385 298.322 305.084V303.522C298.322 303.221 298.475 303.071 298.772 303.071H299.059C299.356 303.071 299.509 303.221 299.509 303.522V304.087H299.03V303.569C299.03 303.513 299.002 303.484 298.944 303.484H298.887C298.829 303.484 298.801 303.513 298.801 303.569V305.027C298.801 305.084 298.829 305.112 298.887 305.112H298.944C299.002 305.112 299.03 305.084 299.03 305.027V304.435H299.509V305.074L299.519 305.084Z" fill="white"/>
<path d="M300.409 303.089H300.897V305.516H300.409V304.5H300.169V305.516H299.681V303.089H300.169V304.068H300.409V303.089Z" fill="white"/>
<path d="M283.639 309.204L283.687 309.072L283.457 308.649C283.457 308.649 283.4 308.734 283.4 308.809V309.204C283.4 309.261 283.429 309.279 283.476 309.279H283.543C283.591 309.279 283.62 309.261 283.639 309.204ZM283.543 309.684H283.362C283.084 309.684 282.94 309.543 282.94 309.261V308.771C282.94 308.602 282.979 308.47 283.103 308.367L283.237 308.245L283.161 308.103C283.084 307.972 283.074 307.887 283.074 307.746V307.671C283.074 307.37 283.228 307.219 283.524 307.219H283.735C284.041 307.219 284.185 307.37 284.185 307.671V307.991H283.735V307.718C283.735 307.661 283.706 307.633 283.649 307.633H283.61C283.553 307.633 283.524 307.661 283.524 307.718V307.765C283.524 307.849 283.543 307.915 283.591 308L283.888 308.555L283.993 308.226H284.462L284.175 309.025L284.52 309.665H284.022L283.907 309.468C283.831 309.618 283.735 309.684 283.524 309.684" fill="white"/>
<path d="M285.649 309.251C285.707 309.251 285.735 309.223 285.735 309.167V308.724C285.735 308.668 285.707 308.64 285.649 308.64H285.525V309.251H285.649ZM285.64 307.652H285.525V308.226H285.64C285.697 308.226 285.726 308.198 285.726 308.141V307.737C285.726 307.68 285.697 307.652 285.64 307.652ZM286.214 308.724V309.214C286.214 309.515 286.07 309.665 285.764 309.665H285.046V307.238H285.754C286.061 307.238 286.204 307.389 286.204 307.69V308.047C286.204 308.254 286.128 308.357 286.003 308.405C286.147 308.442 286.214 308.536 286.214 308.715" fill="white"/>
<path d="M287.133 306.965L286.941 306.664H287.276L287.372 306.965H287.123H287.133ZM286.913 307.153L286.817 307.04L286.721 307.153H286.511L286.683 306.852H286.941L287.114 307.153H286.903H286.913ZM287.276 307.671H286.865V308.216H287.267V308.649H286.865V309.232H287.286V309.665H286.377V307.247H287.276V307.68V307.671Z" fill="white"/>
<path d="M287.841 308.348L287.851 308.96V309.665H287.439V307.238H287.927L288.214 308.442L288.205 307.746L288.195 307.238H288.616V309.665H288.147L287.841 308.348Z" fill="white"/>
<path d="M289.191 307.238H289.679L289.851 308.96L290.033 307.238H290.483L290.157 309.665H289.516L289.191 307.238Z" fill="white"/>
<path d="M291.038 307.153H290.856V306.993C290.856 306.89 290.904 306.852 290.99 306.852H291.028C291.086 306.852 291.105 306.852 291.153 306.881L291.229 306.937C291.229 306.937 291.268 306.956 291.287 306.956C291.306 306.956 291.316 306.946 291.316 306.928V306.852H291.497V307.012C291.497 307.116 291.45 307.153 291.363 307.153H291.325C291.268 307.153 291.249 307.153 291.21 307.125L291.124 307.069C291.124 307.069 291.086 307.04 291.067 307.04C291.048 307.04 291.038 307.05 291.038 307.069V307.153ZM292.014 307.182C292.014 307.379 291.938 307.473 291.765 307.483V309.232C291.765 309.533 291.612 309.684 291.316 309.684H291.019C290.713 309.684 290.569 309.533 290.569 309.232V307.238H291.057V309.176C291.057 309.232 291.086 309.261 291.143 309.261H291.191C291.249 309.261 291.277 309.232 291.277 309.176V307.238H291.651C291.708 307.238 291.737 307.21 291.737 307.153V307.069H292.014V307.182Z" fill="white"/>
<path d="M292.349 308.348L292.359 308.96V309.665H291.938V307.238H292.436L292.713 308.442V307.746L292.704 307.238H293.125V309.665H292.656L292.349 308.348Z" fill="white"/>
<path d="M294.493 308.292V309.232C294.493 309.533 294.35 309.684 294.044 309.684H293.728C293.431 309.684 293.278 309.533 293.278 309.232V307.671C293.278 307.37 293.431 307.219 293.728 307.219H294.034C294.34 307.219 294.484 307.37 294.484 307.671V308.132H294.005V307.718C294.005 307.661 293.977 307.633 293.919 307.633H293.852C293.795 307.633 293.766 307.661 293.766 307.718V309.176C293.766 309.232 293.795 309.261 293.852 309.261H293.929C293.986 309.261 294.015 309.232 294.015 309.176V308.696H293.862V308.292H294.493Z" fill="white"/>
<path d="M359.06 298H319.06V338H359.06V298Z" fill="#417E45"/>
<path d="M324.113 301.358V309.421H322.754V303.249H322.745L321.797 304.237H321.778V302.817L323.032 301.358H324.113Z" fill="white"/>
<path d="M328.583 303.108V303.804C328.583 304.482 328.22 304.933 327.655 305.112C328.335 305.262 328.65 305.742 328.65 306.476V307.661C328.65 308.781 328.057 309.505 326.688 309.505C325.319 309.505 324.822 308.724 324.822 307.492V306.438H326.056V307.595C326.056 308.075 326.219 308.376 326.688 308.376C327.1 308.376 327.291 308.075 327.291 307.652V306.316C327.291 305.883 327.1 305.667 326.631 305.667H326.056V304.632H326.564C327.004 304.632 327.291 304.406 327.291 303.974V303.108C327.291 302.666 327.138 302.384 326.707 302.384C326.277 302.384 326.123 302.666 326.123 303.165V303.983H324.889V303.268C324.889 302.083 325.377 301.246 326.784 301.246C328.028 301.246 328.583 301.951 328.583 303.089" fill="white"/>
<path d="M354.044 326.053C352.991 324.576 348.224 318.677 339.361 318.677C330.498 318.677 325.731 324.576 324.678 326.053C324.63 326.119 324.592 326.175 324.563 326.213C324.592 326.26 324.63 326.316 324.678 326.382C325.731 327.859 330.498 333.757 339.361 333.757C348.224 333.757 352.991 327.859 354.044 326.382C354.092 326.316 354.13 326.26 354.159 326.213C354.13 326.166 354.092 326.109 354.044 326.053ZM334.413 322.403C334.489 322.29 334.757 321.951 334.786 321.913C334.853 321.829 334.987 321.81 335.083 321.791C335.178 321.772 335.303 321.829 335.322 321.895C335.341 321.97 335.284 322.243 335.236 322.29C335.102 322.421 334.767 322.619 334.585 322.581C334.441 322.563 334.384 322.45 334.413 322.403ZM334.097 323.033C334.097 323.033 334.125 323.005 334.125 322.995C334.24 322.864 334.46 322.845 334.614 322.817C334.767 322.788 334.977 322.864 334.996 322.967C335.025 323.071 334.614 323.259 334.537 323.325C334.326 323.522 333.991 323.917 333.8 323.964C333.733 323.983 333.685 323.964 333.637 323.945C333.762 323.626 333.915 323.315 334.097 323.024M337.418 329.834C337.294 330.305 337.16 330.474 337.035 330.625C336.92 330.775 336.47 330.963 336.193 330.944C335.915 330.926 335.877 330.173 335.877 329.787C335.877 329.656 335.686 330.051 335.59 329.251C335.523 328.734 335.197 329.308 335.178 328.96C335.159 328.621 334.987 328.687 334.815 328.47C334.642 328.254 334.432 328.489 334.183 328.602C333.944 328.706 334.039 328.762 333.704 328.659C333.704 328.659 333.695 328.659 333.685 328.659C333.369 327.925 333.197 327.106 333.197 326.26C333.197 326.053 333.206 325.846 333.226 325.639C333.235 325.62 333.254 325.601 333.264 325.582C333.589 325.197 333.58 325.103 333.58 325.103L333.944 324.98C333.944 324.98 334.518 325.065 334.958 325.234C335.312 325.366 335.877 325.676 336.202 325.535C336.442 325.441 336.624 325.31 336.604 325.112C336.576 324.867 336.384 324.811 336.145 324.971C336.059 325.037 335.877 324.595 335.724 324.623C335.58 324.642 335.906 325.131 335.781 325.159C335.657 325.178 335.408 324.651 335.37 324.566C335.331 324.482 335.14 324.265 334.968 324.425C334.604 324.773 334.011 324.754 333.896 324.839C333.532 325.112 333.436 324.754 333.446 324.529C333.455 324.482 333.475 324.425 333.494 324.378C333.609 324.246 334.03 324.209 334.183 324.303C334.346 324.406 334.46 324.275 334.518 324.209C334.585 324.143 334.556 324.04 334.518 323.955C334.48 323.87 334.594 323.804 334.681 323.786C334.767 323.767 335.035 323.569 335.15 323.503C335.264 323.437 335.829 323.372 336.088 323.503C336.346 323.635 336.576 323.532 336.7 323.381C336.863 323.193 337.064 323.052 337.15 323.005C337.236 322.967 336.93 322.675 336.671 322.986C336.413 323.296 336.289 323.325 336.164 323.325C336.04 323.325 335.331 323.146 335.245 322.92C335.159 322.694 335.465 322.525 335.733 322.403C335.992 322.28 336.719 322.28 336.901 322.233C337.274 322.149 337.753 321.96 337.992 322.13C338.232 322.29 336.987 322.572 337.399 322.798C337.542 322.882 338.203 322.421 338.433 322.299C338.959 322.026 337.916 321.932 338.05 321.377C338.203 320.747 336.767 320.992 336.049 321.048C337.006 320.437 338.145 320.079 339.371 320.079C342.28 320.079 344.721 322.092 345.372 324.811C345.372 324.943 345.353 325.046 345.343 325.093C345.286 325.319 344.865 325.507 344.616 325.15C344.549 325.056 344.29 324.811 344.3 325.234C344.3 325.658 344.721 325.705 344.319 325.959C343.927 326.213 343.85 326.156 343.668 326.222C343.486 326.288 343.305 326.73 343.352 326.965C343.4 327.2 343.955 327.84 343.544 327.821C343.448 327.821 342.711 327.313 342.587 326.984C342.462 326.645 342.319 326.307 342.213 326.053C342.108 325.799 341.85 325.733 341.63 325.883C341.409 326.034 341.687 326.184 341.534 326.504C341.381 326.824 341.266 327.116 341.027 326.843C340.424 326.156 339.553 326.495 339.409 325.723C339.332 325.31 338.978 325.347 338.672 325.112C338.375 324.877 338.203 324.745 338.155 324.924C338.107 325.074 339.103 325.855 339.17 326.053C339.275 326.354 338.873 326.617 338.576 326.683C338.279 326.749 338.155 326.514 337.868 326.222C337.581 325.921 337.456 325.705 337.437 325.94C337.408 326.278 337.705 326.777 338.002 326.965C338.251 327.125 338.528 327.191 338.452 327.454C338.375 327.708 338.452 327.567 338.174 327.84C337.897 328.122 337.839 328.207 337.858 328.593C337.877 328.978 337.782 328.997 337.715 329.317C337.657 329.637 337.514 329.364 337.399 329.834M344.042 327.37C344.252 327.351 344.558 327.643 344.444 327.746C344.319 327.859 344.013 327.812 343.86 327.699C343.707 327.577 343.955 327.379 344.051 327.37M343.774 327.182C343.707 327.153 343.649 327.097 343.601 326.946C343.553 326.796 343.678 326.711 343.802 326.768C343.927 326.833 344.089 327.022 344.089 327.125C344.089 327.229 343.841 327.21 343.774 327.191M341.055 327.172C340.931 327.285 340.625 327.238 340.462 327.116C340.309 326.993 340.558 326.796 340.653 326.786C340.864 326.768 341.17 327.059 341.055 327.163M338.528 328.395C338.442 328.536 338.212 329.571 338.059 329.449C337.906 329.326 338.117 328.245 338.165 328.16C338.404 327.708 338.94 327.737 338.528 328.386M339.371 332.421C338.768 332.421 338.184 332.337 337.638 332.177C337.562 332.111 337.514 332.008 337.562 331.876C337.753 331.377 338.318 331.18 338.768 331.142C339.763 331.048 341.084 331.791 341.295 331.669C341.505 331.547 341.926 331.001 342.548 331.02C342.97 331.039 342.97 331.104 343.113 331.161C342.079 331.951 340.778 332.421 339.371 332.421ZM343.726 330.625C343.659 330.606 343.601 330.587 343.534 330.549C343.199 330.38 343.238 330.653 343.075 330.587C342.912 330.521 343.266 330.145 342.769 330.465C342.271 330.785 342.405 330.418 342.194 329.863C341.974 329.308 342.443 328.687 342.836 328.546C343.372 328.348 343.707 328.31 343.955 328.254C344.702 328.066 344.855 327.633 344.989 327.897C345.018 327.944 345.037 327.991 345.066 328.038C345.104 328.122 345.162 328.282 345.162 328.442C344.846 329.27 344.357 330.004 343.745 330.615M345.41 327.511C345.248 327.464 344.549 326.504 345.104 325.874C345.19 325.77 344.922 325.469 344.999 325.46C345.296 325.441 345.458 325.62 345.535 325.893C345.535 326.006 345.544 326.128 345.544 326.25C345.544 326.683 345.497 327.106 345.41 327.511Z" fill="white"/>
<path d="M332.642 302.967H333.12V305.385H332.642V304.369H332.393V305.385H331.914V302.967H332.393V303.936H332.642V302.967Z" fill="white"/>
<path d="M333.963 304.613L333.857 303.56L333.752 304.613H333.963ZM333.752 302.873L333.561 302.572H333.896L333.991 302.873H333.743H333.752ZM334.001 305.037H333.695L333.666 305.394H333.226L333.542 302.967H334.202L334.518 305.394H334.039L334.001 305.037Z" fill="white"/>
<path d="M335.035 304.068L335.044 304.689V305.385H334.623V302.967H335.121L335.398 304.162V303.466L335.389 302.967H335.81V305.385H335.341L335.035 304.068Z" fill="white"/>
<path d="M336.71 302.967H337.198V305.385H336.71V304.369H336.47V305.385H335.982V302.967H336.47V303.936H336.71V302.967Z" fill="white"/>
<path d="M338.5 303.974V304.341H338.366V304.971H338.461C338.557 304.971 338.595 304.933 338.595 304.839V303.513C338.595 303.419 338.557 303.381 338.461 303.381H338.366V303.974H338.5ZM337.753 304.341V303.974H337.877V302.967H338.557C338.911 302.967 339.074 303.136 339.074 303.484V304.867C339.074 305.215 338.902 305.385 338.557 305.385H337.877V304.341H337.753Z" fill="white"/>
<path d="M339.868 303.362H339.801C339.744 303.362 339.715 303.39 339.715 303.447V304.905C339.715 304.961 339.744 304.99 339.801 304.99H339.868C339.926 304.99 339.955 304.961 339.955 304.905V303.447C339.955 303.39 339.926 303.362 339.868 303.362ZM339.648 305.601H340.031V305.996H339.648V305.601ZM339.935 302.873L339.84 302.76L339.744 302.873H339.533L339.706 302.572H339.974L340.146 302.873H339.935ZM339.993 305.404H339.677C339.38 305.404 339.227 305.253 339.227 304.952V303.39C339.227 303.089 339.38 302.939 339.677 302.939H339.993C340.299 302.939 340.443 303.089 340.443 303.39V304.952C340.443 305.253 340.299 305.404 339.993 305.404Z" fill="white"/>
<path d="M341.017 304.068V304.689L341.027 305.385H340.605V302.967H341.103L341.381 304.162V303.466L341.371 302.967H341.792V305.385H341.323L341.017 304.068Z" fill="white"/>
<path d="M343.161 304.021V304.961C343.161 305.262 343.017 305.413 342.711 305.413H342.395C342.089 305.413 341.945 305.262 341.945 304.961V303.4C341.945 303.099 342.089 302.948 342.395 302.948H342.702C342.998 302.948 343.151 303.099 343.151 303.4V303.861H342.673V303.447C342.673 303.39 342.644 303.362 342.587 303.362H342.52C342.462 303.362 342.434 303.39 342.434 303.447V304.905C342.434 304.961 342.462 304.99 342.52 304.99H342.596C342.654 304.99 342.682 304.961 342.682 304.905V304.425H342.529V304.021H343.161Z" fill="white"/>
<path d="M344.52 302.873H344.271L344.367 302.572H344.702L344.511 302.873H344.52ZM345.238 302.901C345.238 303.099 345.162 303.193 344.989 303.202V304.952C344.989 305.253 344.846 305.404 344.539 305.404H344.243C343.936 305.404 343.793 305.253 343.793 304.952V302.958H344.281V304.896C344.281 304.952 344.31 304.98 344.367 304.98H344.415C344.472 304.98 344.501 304.952 344.501 304.896V302.958H344.874C344.932 302.958 344.961 302.929 344.961 302.873V302.788H345.238V302.901Z" fill="white"/>
<path d="M345.564 304.068L345.573 304.689L345.583 305.385H345.162V302.967H345.659L345.937 304.162L345.927 303.466V302.967H346.348V305.385H345.879L345.564 304.068Z" fill="white"/>
<path d="M347.717 304.021V304.961C347.717 305.262 347.574 305.413 347.267 305.413H346.951C346.645 305.413 346.502 305.262 346.502 304.961V303.4C346.502 303.099 346.645 302.948 346.951 302.948H347.258C347.554 302.948 347.708 303.099 347.708 303.4V303.861H347.229V303.447C347.229 303.39 347.2 303.362 347.143 303.362H347.076C347.018 303.362 346.99 303.39 346.99 303.447V304.905C346.99 304.961 347.018 304.99 347.076 304.99H347.152C347.21 304.99 347.239 304.961 347.239 304.905V304.425H347.085V304.021H347.717Z" fill="white"/>
<path d="M332.498 307.53H332.393V308.282H332.498C332.556 308.282 332.584 308.254 332.584 308.198V307.624C332.584 307.567 332.556 307.539 332.498 307.539M331.914 309.533V307.106H332.623C332.919 307.106 333.072 307.257 333.072 307.558V308.245C333.072 308.546 332.929 308.696 332.623 308.696H332.393V309.533H331.905H331.914Z" fill="white"/>
<path d="M333.934 307.116H334.413V309.533H333.934V308.527H333.695V309.533H333.206V307.116H333.695V308.094H333.934V307.116Z" fill="white"/>
<path d="M335.226 307.511H335.159C335.102 307.511 335.073 307.539 335.073 307.595V309.054C335.073 309.11 335.102 309.138 335.159 309.138H335.226C335.284 309.138 335.312 309.11 335.312 309.054V307.595C335.312 307.539 335.284 307.511 335.226 307.511ZM335.504 306.73L335.312 307.031H335.063L335.159 306.73H335.504ZM335.341 309.562H335.025C334.728 309.562 334.575 309.411 334.575 309.11V307.548C334.575 307.247 334.728 307.097 335.025 307.097H335.341C335.647 307.097 335.791 307.247 335.791 307.548V309.11C335.791 309.411 335.647 309.562 335.341 309.562Z" fill="white"/>
<path d="M336.365 307.116H336.853L337.026 308.837L337.198 307.116H337.648L337.322 309.533H336.691L336.365 307.116Z" fill="white"/>
<path d="M338.452 307.595C338.452 307.539 338.423 307.511 338.366 307.511H338.299C338.241 307.511 338.212 307.539 338.212 307.595V309.054C338.212 309.11 338.241 309.138 338.299 309.138H338.366C338.423 309.138 338.452 309.11 338.452 309.054V307.595ZM338.461 307.022H338.212L338.318 306.721H338.653L338.461 307.022ZM339.179 306.946V307.05C339.179 307.257 339.093 307.351 338.911 307.351C338.93 307.407 338.94 307.464 338.94 307.539V309.101C338.94 309.402 338.796 309.552 338.49 309.552H338.174C337.877 309.552 337.724 309.402 337.724 309.101V307.539C337.724 307.238 337.868 307.087 338.174 307.087H338.49C338.605 307.087 338.701 307.106 338.768 307.153V307.106H338.825C338.882 307.106 338.911 307.078 338.911 307.022V306.937H339.189L339.179 306.946Z" fill="white"/>
<path d="M339.591 307.116H339.103V309.543H339.591V307.116Z" fill="white"/>
<path d="M340.835 309.119C340.893 309.119 340.921 309.091 340.921 309.035V308.593C340.921 308.536 340.893 308.508 340.835 308.508H340.711V309.119H340.835ZM340.835 307.53H340.72V308.103H340.835C340.893 308.103 340.921 308.075 340.921 308.019V307.614C340.921 307.558 340.893 307.53 340.835 307.53ZM341.409 308.593V309.082C341.409 309.383 341.266 309.533 340.96 309.533H340.242V307.116H340.96C341.256 307.116 341.409 307.266 341.409 307.567V307.925C341.409 308.132 341.333 308.235 341.208 308.282C341.352 308.32 341.419 308.414 341.419 308.593" fill="white"/>
<path d="M342.051 307.116H341.563V309.543H342.051V307.116Z" fill="white"/>
<path d="M343.4 306.561L343.209 306.862H342.96L343.056 306.561H343.4ZM342.769 307.022L342.673 306.909L342.577 307.022H342.367L342.539 306.721H342.807L342.979 307.022H342.769ZM343.123 307.548H342.711V308.094H343.113V308.527H342.711V309.11H343.132V309.543H342.223V307.125H343.123V307.558V307.548Z" fill="white"/>
<path d="M343.697 308.216V308.837L343.707 309.533H343.285V307.116H343.783L344.061 308.32V307.614L344.051 307.116H344.472V309.533H344.003L343.697 308.216Z" fill="white"/>
<path d="M345.774 308.122V308.489H345.64V309.119H345.736C345.832 309.119 345.87 309.082 345.87 308.988V307.661C345.87 307.567 345.832 307.53 345.736 307.53H345.64V308.122H345.774ZM345.028 308.489V308.122H345.152V307.116H345.832C346.186 307.116 346.348 307.285 346.348 307.633V309.016C346.348 309.364 346.176 309.533 345.832 309.533H345.152V308.489H345.028Z" fill="white"/>
<path d="M347.497 306.617V306.589C347.497 306.589 347.497 306.579 347.487 306.579H347.478C347.478 306.579 347.468 306.579 347.468 306.589V306.636H347.306V306.589C347.306 306.476 347.363 306.42 347.468 306.42H347.516C347.621 306.42 347.679 306.476 347.679 306.589V306.608C347.679 306.674 347.669 306.711 347.621 306.758L347.574 306.815C347.574 306.815 347.545 306.843 347.545 306.89H347.401V306.833C347.401 306.768 347.401 306.749 347.44 306.702L347.468 306.674C347.468 306.674 347.497 306.636 347.497 306.608M347.152 307.511H347.085C347.028 307.511 346.999 307.539 346.999 307.595V309.054C346.999 309.11 347.028 309.138 347.085 309.138H347.152C347.21 309.138 347.239 309.11 347.239 309.054V307.595C347.239 307.539 347.21 307.511 347.152 307.511ZM347.21 307.022L347.114 306.909L347.018 307.022H346.808L346.98 306.721H347.248L347.42 307.022H347.21ZM347.267 309.562H346.951C346.655 309.562 346.502 309.411 346.502 309.11V307.548C346.502 307.247 346.655 307.097 346.951 307.097H347.267C347.574 307.097 347.717 307.247 347.717 307.548V309.11C347.717 309.411 347.574 309.562 347.267 309.562Z" fill="white"/>
<path d="M348.378 307.116H347.889V309.543H348.378V307.116Z" fill="white"/>
<path d="M332.393 312.544V313.691H331.914V311.264H332.393V312.403L332.67 311.264H333.168L332.852 312.459L333.159 313.691H332.642L332.393 312.544Z" fill="white"/>
<path d="M333.972 311.264H334.46V313.691H333.972V312.675H333.733V313.691H333.245V311.264H333.733V312.243H333.972V311.264Z" fill="white"/>
<path d="M334.633 313.691H335.121V311.274H334.633V313.691ZM334.853 310.879L334.757 311.18H335.006L335.197 310.879H334.853Z" fill="white"/>
<path d="M336.49 311.264H336.978V313.691H336.49V312.675H336.25V313.691H335.762V311.264H336.25V312.243H336.49V311.264Z" fill="white"/>
<path d="M337.81 312.911L337.705 311.857L337.6 312.911H337.81ZM337.533 313.908H337.916V314.303H337.533V313.908ZM337.83 311.18L337.734 311.067L337.638 311.18H337.428L337.6 310.879H337.858L338.031 311.18H337.82H337.83ZM337.858 313.334H337.552L337.523 313.691H337.083L337.399 311.264H338.059L338.375 313.691H337.897L337.858 313.334Z" fill="white"/>
<path d="M339.208 313.71H338.911C338.614 313.71 338.461 313.56 338.461 313.259V311.264H338.949V313.202C338.949 313.259 338.978 313.287 339.036 313.287H339.084C339.141 313.287 339.17 313.259 339.17 313.202V311.264H339.658V313.259C339.658 313.56 339.514 313.71 339.208 313.71Z" fill="white"/>
<g clip-path="url(#clip0_254_17440)">
<rect x="16" y="410" width="343" height="292.775" rx="4.9" fill="#2BC81F"/>
<rect x="17.5312" y="411.531" width="339.938" height="319.112" stroke="#0ADC91" stroke-width="3.0625" stroke-linecap="square"/>
<text fill="#FFFFF1" xml:space="preserve" style="white-space: pre" font-family="VNM Sans Std" font-size="12" letter-spacing="0em"><tspan x="73.9468" y="445.214">Tr&#x1ed3;ng h&#x1a1;n</tspan></text>
<text fill="#FFFFF1" xml:space="preserve" style="white-space: pre" font-family="VNM Sans Display" font-size="36" font-weight="bold" letter-spacing="0em"><tspan x="80.2456" y="478.162"> TRI&#x1ec6;U&#x2028;</tspan><tspan x="47.7612" y="516.162"> C&#xc2;Y XANH</tspan></text>
<text fill="#FFFFF1" xml:space="preserve" style="white-space: pre" font-family="VNM Sans Display" font-size="36" font-weight="bold" letter-spacing="0em"><tspan x="56.3359" y="478.2" data-counter data-from="0" data-to="11" data-ori="1,1">1,1</tspan></text>
<text fill="#FFFFF1" xml:space="preserve" style="white-space: pre" font-family="VNM Sans Std" font-size="12" letter-spacing="0em"><tspan x="58.7417" y="532.014">cho Vi&#x1ec7;t Nam t&#x1eeb; &#x2028;</tspan><tspan x="70.2788" y="546.014">(2012 -2023)</tspan></text>
<text fill="#FFFFF1" xml:space="preserve" style="white-space: pre" font-family="VNM Sans Std" font-size="12" letter-spacing="0em"><tspan x="235.13" y="471.214">Ti&#x1ebf;t ki&#x1ec7;m h&#x1a1;n</tspan></text>
<text fill="#FFFFF1" xml:space="preserve" style="white-space: pre" font-family="VNM Sans Display" font-size="36" font-weight="bold" letter-spacing="0em"><tspan x="216.136" y="504.162" data-counter data-from="0" data-to="877125" data-ori="877.125">877.125</tspan></text>
<text fill="#FFFFF1" xml:space="preserve" style="white-space: pre" font-family="VNM Sans Display" font-size="20" font-weight="bold" letter-spacing="0em"><tspan x="294.039" y="503.962">KWH</tspan></text>
<text fill="#FFFFF1" xml:space="preserve" style="white-space: pre" font-family="VNM Sans Std" font-size="12" letter-spacing="0em"><tspan x="217.318" y="520.014">&#x111;i&#x1ec7;n trong n&#x103;m 2023</tspan></text>
<text fill="#FFFFF1" xml:space="preserve" style="white-space: pre" font-family="VNM Sans Std" font-size="12" letter-spacing="0em"><tspan x="76.5601" y="590.064">Gi&#x1ea3;m h&#x1a1;n</tspan></text>
<text fill="#FFFFF1" xml:space="preserve" style="white-space: pre" font-family="VNM Sans Display" font-size="52" font-weight="bold" letter-spacing="0em"><tspan x="68.6633" y="639.713">%</tspan></text>
<text fill="#FFFFF1" xml:space="preserve" style="white-space: pre" font-family="VNM Sans Display" font-size="52" font-weight="bold" letter-spacing="0em"><tspan x="51.1641" y="639.713" data-counter data-from="0" data-to="3" data-ori="3">3</tspan></text>
<text fill="#FFFFF1" xml:space="preserve" style="white-space: pre" font-family="VNM Sans Display" font-size="12" font-weight="bold" letter-spacing="0em"><tspan x="101.706" y="606.212">T&#x1ea4;N CO</tspan><tspan x="101.706" y="619.212">T&#x1af;&#x1a0;NG </tspan><tspan x="101.706" y="632.213">&#x110;&#x1af;&#x1a0;NG/T&#x1ea4;N </tspan><tspan x="101.706" y="645.213">S&#x1ea2;N PH&#x1ea8;M</tspan></text>
<text fill="#FFFFF1" xml:space="preserve" style="white-space: pre" font-family="VNM Sans Display" font-size="12" font-weight="bold" letter-spacing="0em"><tspan x="125.624" y="606.212">&#x2082;&#10;</tspan></text>
<text fill="#FFFFF1" xml:space="preserve" style="white-space: pre" font-family="VNM Sans Std" font-size="12" letter-spacing="0em"><tspan x="49.5835" y="660.864">&#xa0;(scope 1 v&#xe0; scope 2).</tspan></text>
<text fill="#FFFFF1" xml:space="preserve" style="white-space: pre" font-family="VNM Sans Display" font-size="36" font-weight="bold" letter-spacing="0em"><tspan x="284.178" y="603.563">%</tspan></text>
<text fill="#FFFFF1" xml:space="preserve" style="white-space: pre" font-family="VNM Sans Display" font-size="36" font-weight="bold" letter-spacing="0em"><tspan x="236.146" y="603.563" data-counter data-from="0" data-to="86" data-ori="86,2">86,2</tspan></text>
<text fill="#FFFFF1" xml:space="preserve" style="white-space: pre" font-family="VNM Sans Std" font-size="12" letter-spacing="0em"><tspan x="214.793" y="619.414">n&#x103;ng l&#x1b0;&#x1ee3;ng xanh thay </tspan><tspan x="220.242" y="633.414">th&#x1ebf; cho n&#x103;ng l&#x1b0;&#x1ee3;ng </tspan><tspan x="218.806" y="647.414">h&#xf3;a th&#x1ea1;ch trong s&#x1ea3;n </tspan><tspan x="257.871" y="661.414">xu&#x1ea5;t</tspan></text>
<line x1="187.806" y1="424.087" x2="187.806" y2="688.687" stroke="#FFFFF1" stroke-width="1.8375"/>
<line x1="338.175" y1="557.306" x2="35.6" y2="557.306" stroke="#FFFFF1" stroke-width="1.8375"/>
</g>
<rect x="17.5312" y="411.531" width="339.938" height="289.712" rx="3.36875" stroke="#006D5A" stroke-width="3.0625" stroke-linecap="square" stroke-dasharray="16.54 16.54"/>
<rect x="16.3445" y="725.344" width="108.311" height="119.311" rx="5.1672" fill="#FFFFF1"/>
<rect x="16.3445" y="725.344" width="108.311" height="119.311" rx="5.1672" stroke="#006D5A" stroke-width="0.68896"/>
<text fill="#006D5A" xml:space="preserve" style="white-space: pre" font-family="VNM Sans Std" font-size="12" letter-spacing="0em"><tspan x="29.4434" y="761.152">&#x110;&#x1ed3;ng h&#xe0;nh c&#xf9;ng </tspan><tspan x="34.7227" y="775.152">ch&#xed;nh ph&#x1ee7; Vi&#x1ec7;t </tspan><tspan x="31.3887" y="789.152">Nam trong Cam </tspan><tspan x="29.4258" y="803.152">k&#x1ebf;t Net Zero v&#xe0;o </tspan><tspan x="45.3105" y="817.152">n&#x103;m 2050</tspan></text>
<rect x="133.344" y="725.344" width="108.311" height="119.311" rx="5.1672" fill="#FFFFF1"/>
<rect x="133.344" y="725.344" width="108.311" height="119.311" rx="5.1672" stroke="#006D5A" stroke-width="0.68896"/>
<text fill="#006D5A" xml:space="preserve" style="white-space: pre" font-family="VNM Sans Std" font-size="12" letter-spacing="0em"><tspan x="153.926" y="761.152">Ch&#x1b0;&#x1a1;ng tr&#xec;nh </tspan><tspan x="160.354" y="775.152">h&#xe0;nh &#x111;&#x1ed9;ng </tspan><tspan x="164.531" y="789.152">&#x201c;Vinamilk </tspan><tspan x="142.277" y="803.152">Pathways to Dairy </tspan><tspan x="149.514" y="817.152">Net Zero 2050&#x201d;</tspan></text>
<rect x="250.344" y="725.344" width="108.311" height="119.311" rx="5.1672" fill="#FFFFF1"/>
<rect x="250.344" y="725.344" width="108.311" height="119.311" rx="5.1672" stroke="#006D5A" stroke-width="0.68896"/>
<text fill="#006D5A" xml:space="preserve" style="white-space: pre" font-family="VNM Sans Std" font-size="12" letter-spacing="0em"><tspan x="268.09" y="768.152">Tham gia S&#xe1;ng </tspan><tspan x="271.395" y="782.152">ki&#x1ebf;n to&#xe0;n c&#x1ea7;u </tspan><tspan x="261.275" y="796.152">ng&#xe0;nh s&#x1eef;a v&#x1ec1; Net </tspan><tspan x="293.186" y="810.152">Zero</tspan></text>
<rect x="16.3445" y="854.344" width="108.311" height="119.311" rx="5.1672" fill="#FFFFF1"/>
<rect x="16.3445" y="854.344" width="108.311" height="119.311" rx="5.1672" stroke="#006D5A" stroke-width="0.68896"/>
<text fill="#006D5A" xml:space="preserve" style="white-space: pre" font-family="VNM Sans Std" font-size="12" letter-spacing="0em"><tspan x="26.8301" y="890.152">100% Nh&#xe0; m&#xe1;y v&#xe0; </tspan><tspan x="31.6816" y="904.152">Trang tr&#x1ea1;i &#x111;&#x1b0;&#x1ee3;c </tspan><tspan x="33.4219" y="918.152">ki&#x1ec3;m k&#xea; kh&#xed; nh&#xe0; </tspan><tspan x="30.498" y="932.152">k&#xed;nh theo chu&#x1ea9;n </tspan><tspan x="39.9609" y="946.152">ISO 14064(*)</tspan></text>
<rect x="133.344" y="854.344" width="108.311" height="119.311" rx="5.1672" fill="#FFFFF1"/>
<rect x="133.344" y="854.344" width="108.311" height="119.311" rx="5.1672" stroke="#006D5A" stroke-width="0.68896"/>
<text fill="#006D5A" xml:space="preserve" style="white-space: pre" font-family="VNM Sans Std" font-size="12" letter-spacing="0em"><tspan x="144.867" y="897.152">H&#x1ec7; th&#x1ed1;ng qu&#x1ea3;n l&#xfd; </tspan><tspan x="148.664" y="911.152">M&#xf4;i tr&#x1b0;&#x1edd;ng &#x111;&#x1ea1;t </tspan><tspan x="162.756" y="925.152">chu&#x1ea9;n ISO </tspan><tspan x="159.727" y="939.152">14001:2015</tspan></text>
<rect x="250.344" y="854.344" width="108.311" height="119.311" rx="5.1672" fill="#FFFFF1"/>
<rect x="250.344" y="854.344" width="108.311" height="119.311" rx="5.1672" stroke="#006D5A" stroke-width="0.68896"/>
<text fill="#006D5A" xml:space="preserve" style="white-space: pre" font-family="VNM Sans Std" font-size="12" letter-spacing="0em"><tspan x="261.867" y="897.152">H&#x1ec7; th&#x1ed1;ng qu&#x1ea3;n l&#xfd; </tspan><tspan x="265.365" y="911.152">N&#x103;ng l&#x1b0;&#x1ee3;ng &#x111;&#x1ea1;t </tspan><tspan x="279.756" y="925.152">chu&#x1ea9;n ISO </tspan><tspan x="275.338" y="939.152">50001:2018</tspan></text>
<rect x="75.3445" y="982.344" width="108.311" height="119.311" rx="5.1672" fill="#FFFFF1"/>
<rect x="75.3445" y="982.344" width="108.311" height="119.311" rx="5.1672" stroke="#006D5A" stroke-width="0.68896"/>
<text fill="#006D5A" xml:space="preserve" style="white-space: pre" font-family="VNM Sans Std" font-size="12" letter-spacing="0em"><tspan x="90.084" y="1011.15">100% Trang tr&#x1ea1;i </tspan><tspan x="87.0195" y="1025.15">Vinamilk &#xe1;p d&#x1ee5;ng </tspan><tspan x="88.4082" y="1039.15">h&#x1ec7; th&#x1ed1;ng Biogas </tspan><tspan x="85.5547" y="1053.15">bi&#x1ebf;n ch&#x1ea5;t th&#x1ea3;i c&#x1ee7;a </tspan><tspan x="88.1504" y="1067.15">&#x111;&#xe0;n b&#xf2; th&#xe0;nh t&#xe0;i </tspan><tspan x="110.639" y="1081.15">nguy&#xea;n</tspan></text>
<rect x="192.344" y="982.344" width="108.311" height="119.311" rx="5.1672" fill="#FFFFF1"/>
<rect x="192.344" y="982.344" width="108.311" height="119.311" rx="5.1672" stroke="#006D5A" stroke-width="0.68896"/>
<text fill="#006D5A" xml:space="preserve" style="white-space: pre" font-family="VNM Sans Std" font-size="12" letter-spacing="0em"><tspan x="207.629" y="1004.15">Nh&#xe0; m&#xe1;y S&#x1eef;a v&#xe0; </tspan><tspan x="209.223" y="1018.15">Trang tr&#x1ea1;i ch&#x103;n </tspan><tspan x="207.096" y="1032.15">nu&#xf4;i b&#xf2; s&#x1eef;a &#x111;&#x1ea7;u </tspan><tspan x="204.969" y="1046.15">ti&#xea;n t&#x1ea1;i Vi&#x1ec7;t Nam </tspan><tspan x="211.678" y="1060.15">&#x111;&#x1ea1;t trung h&#xf2;a </tspan><tspan x="214.637" y="1074.15">Carbon theo </tspan><tspan x="206.146" y="1088.15">chu&#x1ea9;n PAS 2060</tspan></text>
<text fill="#251A11" xml:space="preserve" style="white-space: pre" font-family="Inter" font-size="10" font-style="italic" font-weight="300" letter-spacing="0em"><tspan x="110.391" y="1127.64">(*)Ph&#x1ea1;m vi bao g&#x1ed3;m c&#xe1;c nh&#xe0; m&#xe1;y </tspan><tspan x="147.231" y="1139.64">s&#x1eef;a c&#x1ee7;a Vinamilk.</tspan></text>
<defs>
<clipPath id="clip0_254_17440">
<rect x="16" y="410" width="343" height="292.775" rx="4.9" fill="white"/>
</clipPath>
</defs>
</svg>
