<svg width="1440" height="769" viewBox="0 0 1440 769" fill="none" xmlns="http://www.w3.org/2000/svg">
<text fill="#FF2876" xml:space="preserve" style="white-space: pre" font-family="VNM Sans Display" font-size="80" font-weight="bold" letter-spacing="0em"><tspan x="100" y="154.6">LAN T&#x1ece;A Y&#xca;U TH&#x1af;&#x1a0;NG V&#xcc; &#x2028;</tspan><tspan x="100" y="238.6">M&#x1ed8;T C&#x1ed8;NG &#x110;&#x1ed2;NG H&#x1ea0;NH PH&#xda;C</tspan></text>
<rect x="103" y="298" width="553" height="369" rx="5" fill="#FF2876"/>
<rect x="103" y="298" width="553" height="369" rx="5" stroke="#F2ABC4" stroke-width="6" stroke-dasharray="12 12"/>
<text fill="#FFFFF1" xml:space="preserve" style="white-space: pre" font-family="VNM Sans Display" font-size="80" font-weight="bold" letter-spacing="0em"><tspan x="140" y="400" data-counter data-delay="600" data-from="0" data-to="815" data-ori="81,5">81,5</tspan></text>
<text fill="white" xml:space="preserve" style="white-space: pre" font-family="VNM Sans Std" font-size="16" letter-spacing="0em"><tspan x="139.781" y="423.96">&#x110;&#xf3;ng g&#xf3;p cho &#x2028;</tspan><tspan x="152.43" y="440.96">c&#x1ed9;ng &#x111;&#x1ed3;ng</tspan></text>
<text fill="#FFFFF1" xml:space="preserve" style="white-space: pre" font-family="VNM Sans Display" font-size="80" font-weight="bold" letter-spacing="0em"><tspan x="143" y="544" data-counter data-delay="600" data-from="0" data-to="500" data-ori="500">500</tspan></text>
<text fill="white" xml:space="preserve" style="white-space: pre" font-family="VNM Sans Std" font-size="16" letter-spacing="0em"><tspan x="127.055" y="567.96">Ho&#x1ea1;t &#x111;&#x1ed9;ng m&#x1ed5; tim</tspan></text>
<text fill="#FFFFF1" xml:space="preserve" style="white-space: pre" font-family="VNM Sans Display" font-size="80" font-weight="bold" letter-spacing="0em"><tspan x="346.633" y="544" data-counter data-delay="600" data-from="0" data-to="10" data-ori="10">10</tspan></text>
<text fill="white" xml:space="preserve" style="white-space: pre" font-family="VNM Sans Std" font-size="16" letter-spacing="0em"><tspan x="310.477" y="567.96">Qu&#x1ef9; s&#x1eef;a V&#x1b0;&#x1a1;n cao &#x2028;</tspan><tspan x="340.57" y="584.96"> Vi&#x1ec7;t Nam</tspan></text>
<text fill="white" xml:space="preserve" style="white-space: pre" font-family="Inter" font-size="12" font-style="italic" font-weight="300" letter-spacing="0em"><tspan x="319.244" y="609.864">Xu&#x1ea5;t s&#x1eaf;c &#x111;&#x1b0;&#x1ee3;c vinh </tspan><tspan x="324.049" y="624.864">danh &#x1edf; h&#x1ea1;ng m&#x1ee5;c </tspan><tspan x="332.768" y="639.864">&#x201c;D&#x1ef1; &#xe1;n b&#x1ec1;n b&#x1ec9;&#x201d;</tspan></text>
<text fill="white" xml:space="preserve" style="white-space: pre" font-family="VNM Sans Display" font-size="14" letter-spacing="0em"><tspan x="239" y="376.52">T&#x1ef6; &#x110;&#x1ed2;NG</tspan></text>
<text fill="white" xml:space="preserve" style="white-space: pre" font-family="VNM Sans Display" font-size="14" letter-spacing="0em"><tspan x="237" y="518.52">TRI&#x1ec6;U &#x110;&#x1ed2;NG</tspan></text>
<text fill="white" xml:space="preserve" style="white-space: pre" font-family="VNM Sans Display" font-size="14" letter-spacing="0em"><tspan x="409" y="518.52">T&#x1ef6; &#x110;&#x1ed2;NG</tspan></text>
<text fill="#FFFFF1" xml:space="preserve" style="white-space: pre" font-family="VNM Sans Display" font-size="80" font-weight="bold" letter-spacing="0em"><tspan x="521.906" y="400" data-counter data-delay="600" data-from="0" data-to="11" data-ori="11">11</tspan></text>
<text fill="#FFFFF1" xml:space="preserve" style="white-space: pre" font-family="VNM Sans Display" font-size="80" font-weight="bold" letter-spacing="0em"><tspan x="529.172" y="544" data-counter data-delay="600" data-from="0" data-to="5" data-ori="5">5</tspan></text>
<text fill="#FFFFF1" xml:space="preserve" style="white-space: pre" font-family="VNM Sans Display" font-size="80" font-weight="bold" letter-spacing="0em"><tspan x="345.344" y="400" data-counter data-delay="600" data-from="0" data-to="55" data-ori="55">55</tspan></text>
<text fill="white" xml:space="preserve" style="white-space: pre" font-family="VNM Sans Std" font-size="16" letter-spacing="0em"><tspan x="323.133" y="423.96">H&#x1ed7; tr&#x1ee3; ch&#x1b0;&#x1a1;ng </tspan><tspan x="328.727" y="440.96">tr&#xec;nh S&#x1eef;a h&#x1ecd;c </tspan><tspan x="349.625" y="457.96">&#x111;&#x1b0;&#x1edd;ng</tspan></text>
<text fill="white" xml:space="preserve" style="white-space: pre" font-family="VNM Sans Std" font-size="16" letter-spacing="0em"><tspan x="504.055" y="423.96">T&#xe0;i tr&#x1ee3; ho&#x1ea1;t </tspan><tspan x="506.43" y="440.96">&#x111;&#x1ed9;ng c&#x1ed9;ng </tspan><tspan x="507.734" y="457.96">&#x111;&#x1ed3;ng kh&#xe1;c</tspan></text>
<text fill="white" xml:space="preserve" style="white-space: pre" font-family="VNM Sans Std" font-size="16" letter-spacing="0em"><tspan x="490.008" y="567.96">C&#xe1;c d&#x1ef1; &#xe1;n tr&#x1ed3;ng </tspan><tspan x="487.891" y="584.96">c&#xe2;y, t&#xe1;i sinh r&#x1eeb;ng</tspan></text>
<text fill="white" xml:space="preserve" style="white-space: pre" font-family="VNM Sans Display" font-size="14" letter-spacing="0em"><tspan x="409" y="376.52">T&#x1ef6; &#x110;&#x1ed2;NG</tspan></text>
<text fill="white" xml:space="preserve" style="white-space: pre" font-family="VNM Sans Display" font-size="14" letter-spacing="0em"><tspan x="579" y="376.52">T&#x1ef6; &#x110;&#x1ed2;NG</tspan></text>
<text fill="white" xml:space="preserve" style="white-space: pre" font-family="VNM Sans Display" font-size="14" letter-spacing="0em"><tspan x="579" y="520.52">T&#x1ef6; &#x110;&#x1ed2;NG</tspan></text>
<path d="M1140 57H1100V97H1140V57Z" fill="#EA1D2D"/>
<path d="M1130.92 76.1304C1130.92 75.51 1131.42 75.0118 1132.04 75.0118C1132.66 75.0118 1133.16 75.51 1133.16 76.1304C1133.16 76.7509 1132.66 77.2491 1132.04 77.2491C1131.42 77.2491 1130.92 76.7509 1130.92 76.1304Z" fill="white"/>
<path d="M1133.34 77.6816C1134.11 77.7474 1134.7 78.3866 1134.7 79.1669V82.2691C1134.7 82.5041 1134.5 82.7015 1134.27 82.7015C1134.03 82.7015 1133.83 82.5041 1133.83 82.2691V79.6087C1133.83 79.5053 1133.8 79.3737 1133.62 79.3737C1133.49 79.3737 1133.47 79.5053 1133.46 79.5899V87.5711C1133.46 87.9095 1133.18 88.1915 1132.84 88.1915C1132.5 88.1915 1132.22 87.9095 1132.22 87.5711V82.9741C1132.22 82.9271 1132.2 82.7955 1132.04 82.7955C1131.88 82.7955 1131.86 82.9271 1131.86 82.9741V87.5711C1131.86 87.9095 1131.59 88.1915 1131.24 88.1915C1130.89 88.1915 1130.62 87.9095 1130.62 87.5711V79.5899C1130.62 79.5053 1130.59 79.3737 1130.46 79.3737C1130.28 79.3737 1130.25 79.5053 1130.25 79.6087V82.2691C1130.25 82.5041 1130.05 82.7015 1129.82 82.7015C1129.58 82.7015 1129.39 82.5041 1129.39 82.2691V79.1669C1129.39 78.3866 1129.98 77.7474 1130.74 77.6816C1130.77 77.6816 1130.8 77.6816 1130.82 77.6816H1133.27C1133.27 77.6816 1133.33 77.6816 1133.35 77.6816" fill="white"/>
<path d="M1124.26 76.7133C1124.26 76.1304 1123.79 75.651 1123.2 75.651C1122.61 75.651 1122.14 76.1304 1122.14 76.7133C1122.14 77.2961 1122.61 77.7756 1123.2 77.7756C1123.79 77.7756 1124.26 77.3055 1124.26 76.7133Z" fill="white"/>
<path d="M1121.08 79.1199L1120.19 81.9871C1120.19 81.9871 1120.03 82.5135 1120.48 82.6451C1120.93 82.7767 1121.06 82.2597 1121.06 82.2597L1121.76 79.8719C1121.76 79.8719 1121.8 79.6839 1121.94 79.7309C1122.08 79.7685 1122.03 79.9659 1122.03 79.9659L1120.79 84.4501H1121.94V87.6651C1121.94 87.9659 1122.19 88.2197 1122.5 88.2197C1122.81 88.2197 1123.05 87.9753 1123.05 87.6651V84.4501H1123.36V87.6651C1123.36 87.9659 1123.61 88.2197 1123.92 88.2197C1124.23 88.2197 1124.47 87.9753 1124.47 87.6651V84.4501H1125.62L1124.39 79.9659C1124.39 79.9659 1124.33 79.7685 1124.47 79.7309C1124.61 79.6933 1124.65 79.8719 1124.65 79.8719L1125.36 82.2597C1125.36 82.2597 1125.49 82.7767 1125.94 82.6451C1126.39 82.5135 1126.23 81.9871 1126.23 81.9871L1125.34 79.1199C1125.34 79.1199 1125.02 78.2926 1124.33 78.2926H1122.08C1121.39 78.2926 1121.07 79.1199 1121.07 79.1199" fill="white"/>
<path d="M1117.92 76.7133C1117.92 76.1304 1117.45 75.651 1116.86 75.651C1116.26 75.651 1115.79 76.1304 1115.79 76.7133C1115.79 77.2961 1116.26 77.7756 1116.86 77.7756C1117.45 77.7756 1117.92 77.3055 1117.92 76.7133Z" fill="white"/>
<path d="M1114.73 79.1199L1113.85 81.9871C1113.85 81.9871 1113.69 82.5135 1114.14 82.6451C1114.58 82.7767 1114.71 82.2597 1114.71 82.2597L1115.43 79.8719C1115.43 79.8719 1115.46 79.6839 1115.61 79.7309C1115.75 79.7685 1115.69 79.9659 1115.69 79.9659L1114.46 84.4501H1115.61V87.6651C1115.61 87.9659 1115.85 88.2197 1116.16 88.2197C1116.47 88.2197 1116.71 87.9753 1116.71 87.6651V84.4501H1117.02V87.6651C1117.02 87.9659 1117.27 88.2197 1117.58 88.2197C1117.89 88.2197 1118.13 87.9753 1118.13 87.6651V84.4501H1119.28L1118.05 79.9659C1118.05 79.9659 1117.99 79.7685 1118.13 79.7309C1118.27 79.6933 1118.31 79.8719 1118.31 79.8719L1119.02 82.2597C1119.02 82.2597 1119.15 82.7767 1119.6 82.6451C1120.04 82.5135 1119.89 81.9871 1119.89 81.9871L1119.01 79.1199C1119.01 79.1199 1118.7 78.2926 1117.99 78.2926H1115.75C1115.05 78.2926 1114.73 79.1199 1114.73 79.1199Z" fill="white"/>
<path d="M1127.83 82.6451C1128.31 82.6451 1128.71 82.2503 1128.71 81.7615C1128.71 81.2726 1128.31 80.8778 1127.83 80.8778C1127.34 80.8778 1126.94 81.2726 1126.94 81.7615C1126.94 82.2503 1127.34 82.6451 1127.83 82.6451Z" fill="white"/>
<path d="M1125.71 85.3807C1125.66 85.4841 1125.64 85.7004 1125.84 85.7944C1126.09 85.9072 1126.22 85.6721 1126.22 85.6721L1126.7 84.1492C1126.7 84.1492 1126.78 84.0458 1126.78 84.1492V87.7497C1126.78 88.0035 1126.98 88.2009 1127.23 88.2009C1127.49 88.2009 1127.69 88.0035 1127.69 87.7497V86.3302C1127.69 86.3302 1127.66 86.1328 1127.82 86.1328C1127.98 86.1328 1127.96 86.3302 1127.96 86.3302V87.7497C1127.96 88.0035 1128.16 88.2009 1128.41 88.2009C1128.65 88.2009 1128.86 88.0035 1128.86 87.7497V84.1492C1128.86 84.0458 1128.92 84.121 1128.92 84.121L1129.29 85.1645C1129.29 85.1645 1129.45 85.6345 1129.51 85.6533C1129.68 85.7286 1129.88 85.6439 1129.95 85.4747C1130 85.3619 1129.98 85.2397 1129.91 85.1551C1129.91 85.1551 1129.35 83.7638 1129.28 83.5758C1129.09 82.993 1128.72 83.0023 1128.37 82.9929C1128.02 82.9929 1127.82 82.9929 1127.82 82.9929C1127.82 82.9929 1127.59 82.9835 1127.13 82.9929C1126.67 83.0118 1126.53 83.2468 1126.02 84.5441C1125.95 84.7321 1125.7 85.3431 1125.7 85.3713L1125.71 85.3807Z" fill="white"/>
<path d="M1108.46 76.1304C1108.46 75.51 1107.96 75.0118 1107.34 75.0118C1106.72 75.0118 1106.22 75.51 1106.22 76.1304C1106.22 76.7509 1106.72 77.2491 1107.34 77.2491C1107.96 77.2491 1108.46 76.7509 1108.46 76.1304Z" fill="white"/>
<path d="M1106.04 77.6816C1105.27 77.7474 1104.68 78.3866 1104.68 79.1669V82.2691C1104.68 82.5041 1104.88 82.7015 1105.11 82.7015C1105.35 82.7015 1105.55 82.5041 1105.55 82.2691V79.6087C1105.55 79.5053 1105.57 79.3737 1105.76 79.3737C1105.88 79.3737 1105.91 79.5053 1105.92 79.5899V87.5711C1105.92 87.9095 1106.2 88.1915 1106.54 88.1915C1106.88 88.1915 1107.16 87.9095 1107.16 87.5711V82.9741C1107.16 82.9271 1107.18 82.7955 1107.34 82.7955C1107.5 82.7955 1107.52 82.9271 1107.52 82.9741V87.5711C1107.52 87.9095 1107.8 88.1915 1108.14 88.1915C1108.48 88.1915 1108.76 87.9095 1108.76 87.5711V79.5899C1108.76 79.5053 1108.79 79.3737 1108.92 79.3737C1109.11 79.3737 1109.14 79.5053 1109.14 79.6087V82.2691C1109.14 82.5041 1109.33 82.7015 1109.57 82.7015C1109.8 82.7015 1110 82.5041 1110 82.2691V79.1669C1110 78.3866 1109.41 77.7474 1108.65 77.6816C1108.62 77.6816 1108.6 77.6816 1108.56 77.6816H1106.12C1106.12 77.6816 1106.06 77.6816 1106.04 77.6816Z" fill="white"/>
<path d="M1104.07 88.2197C1104.07 88.2197 1104.04 88.2197 1104.02 88.2197C1103.89 88.2009 1103.81 88.0693 1103.84 87.9377L1104.83 82.6733C1104.86 82.5417 1104.98 82.4571 1105.11 82.4853C1105.25 82.5135 1105.33 82.6357 1105.3 82.7673L1104.31 88.0317C1104.29 88.1445 1104.18 88.2291 1104.07 88.2291" fill="white"/>
<path d="M1110.54 82.1845C1110.48 82.0905 1110.38 82.0341 1110.27 82.0341C1110.09 82.0341 1109.95 82.1751 1109.95 82.3537C1109.95 82.4007 1109.97 82.4947 1109.97 82.4947L1110.86 84.1022C1110.86 84.1022 1110.91 84.215 1110.91 84.3184V87.7685C1110.91 88.0129 1111.11 88.2009 1111.35 88.2009C1111.58 88.2009 1111.78 88.0035 1111.78 87.7685V86.4054C1111.78 86.4054 1111.75 86.2174 1111.91 86.2174C1112.07 86.2174 1112.04 86.4054 1112.04 86.4054V87.7685C1112.04 88.0129 1112.24 88.2009 1112.47 88.2009C1112.71 88.2009 1112.91 88.0035 1112.91 87.7685V84.3184C1112.91 84.215 1112.96 84.1022 1112.96 84.1022L1113.79 82.6169C1113.79 82.6169 1113.89 82.4007 1113.89 82.3537C1113.89 82.1751 1113.75 82.0341 1113.57 82.0341C1113.46 82.0341 1113.36 82.0905 1113.3 82.1845C1113.3 82.1845 1112.86 82.9365 1112.73 83.0682C1112.59 83.2186 1112.46 83.1998 1112.46 83.1998H1111.38C1111.38 83.1998 1111.25 83.2186 1111.11 83.0682C1110.97 82.9365 1110.57 82.2033 1110.54 82.1751V82.1845Z" fill="white"/>
<path d="M1111.92 82.6451C1112.41 82.6451 1112.8 82.2503 1112.8 81.7615C1112.8 81.2726 1112.41 80.8778 1111.92 80.8778C1111.43 80.8778 1111.04 81.2726 1111.04 81.7615C1111.04 82.2503 1111.43 82.6451 1111.92 82.6451Z" fill="white"/>
<path d="M1111.92 83.886L1112.92 84.6099L1113.39 86.349H1110.44L1110.92 84.6099L1111.92 83.886Z" fill="white"/>
<path d="M1105.44 62.1704H1105.45V68.4031H1106.82V60.2526H1105.73L1104.47 61.738V63.1669H1104.47L1105.44 62.1704Z" fill="white"/>
<path d="M1111.84 61.5969V63.7403H1111.36V60.3278H1111.92L1112.54 62.2832V60.3278H1113.02V63.7403H1112.51L1111.84 61.5969Z" fill="white"/>
<path d="M1113.34 62.8566V61.2115C1113.34 60.6757 1113.6 60.2902 1114.2 60.2902C1114.81 60.2902 1115.07 60.6757 1115.07 61.2115V62.8566C1115.07 63.3831 1114.81 63.7779 1114.2 63.7779C1113.6 63.7779 1113.34 63.3831 1113.34 62.8566ZM1114.51 62.9506V61.1269C1114.51 60.9201 1114.41 60.7791 1114.21 60.7791C1114.02 60.7791 1113.92 60.9201 1113.92 61.1269V62.9506C1113.92 63.1575 1114.02 63.2985 1114.21 63.2985C1114.41 63.2985 1114.51 63.1575 1114.51 62.9506Z" fill="white"/>
<path d="M1111.36 65.1034H1112.2C1112.78 65.1034 1112.99 65.3948 1112.99 65.8649V66.5793C1112.99 67.0588 1112.78 67.3502 1112.2 67.3502H1111.93V68.5065H1111.36V65.1034ZM1111.93 65.5734V66.9177H1112.15C1112.34 66.9177 1112.43 66.8237 1112.43 66.6357V65.8555C1112.43 65.6674 1112.34 65.5828 1112.15 65.5828H1111.93V65.5734Z" fill="white"/>
<path d="M1113.29 67.6322V65.9871C1113.29 65.4512 1113.56 65.0658 1114.16 65.0658C1114.76 65.0658 1115.03 65.4512 1115.03 65.9871V67.6322C1115.03 68.1586 1114.77 68.5535 1114.16 68.5535C1113.55 68.5535 1113.29 68.1586 1113.29 67.6322ZM1114.45 67.7168V65.8931C1114.45 65.6863 1114.35 65.5452 1114.15 65.5452C1113.94 65.5452 1113.86 65.6863 1113.86 65.8931V67.7168C1113.86 67.9236 1113.95 68.0646 1114.15 68.0646C1114.35 68.0646 1114.45 67.9142 1114.45 67.7168Z" fill="white"/>
<path d="M1117.08 65.1034L1116.43 68.5065H1115.81L1115.16 65.1034H1115.75L1116.14 67.4818L1116.55 65.1034H1117.08Z" fill="white"/>
<path d="M1117.32 65.1034H1118.69V65.5734H1117.89V66.5417H1118.46V67.0024H1117.89V68.0458H1118.69V68.5065H1117.32V65.1034Z" fill="white"/>
<path d="M1119.56 66.9459V68.5065H1118.99V65.1034H1119.83C1120.4 65.1034 1120.62 65.3948 1120.62 65.8649V66.3067C1120.62 66.6733 1120.48 66.8895 1120.16 66.9647L1120.7 68.5159H1120.1L1119.56 66.9553V66.9459ZM1119.56 65.5734V66.6357H1119.75C1119.95 66.6357 1120.03 66.5323 1120.03 66.3537V65.8555C1120.03 65.6674 1119.95 65.5828 1119.75 65.5828H1119.56V65.5734Z" fill="white"/>
<path d="M1120.81 65.1034H1122.33V65.5734H1121.86V68.5065H1121.28V65.5734H1120.81V65.1034Z" fill="white"/>
<path d="M1123.71 67.2092V68.5065H1123.14V67.2092L1122.51 65.1034H1123.1L1123.45 66.3913H1123.45L1123.79 65.1034H1124.35L1123.71 67.2092Z" fill="white"/>
<path d="M1190 57H1150V97H1190V57Z" fill="#D19F2A"/>
<path d="M1165.94 91.0588V91.6228C1165.94 91.6228 1165.94 91.6228 1165.94 91.6322C1165.94 91.6416 1165.94 91.6416 1165.94 91.6416C1165.94 91.7826 1166.07 91.8954 1166.21 91.8954H1172.83C1172.98 91.8954 1173.1 91.7732 1173.1 91.6322V90.993C1176.83 89.7709 1179.62 86.7438 1180.24 83.0588C1180.24 83.0588 1180.24 83.0494 1180.24 83.04C1180.24 83.0306 1180.24 83.0212 1180.24 83.0023C1180.24 82.8519 1180.12 82.7391 1179.97 82.7391H1158.85C1158.7 82.7391 1158.57 82.8613 1158.57 83.0023V83.1246C1159.23 86.8472 1162.11 89.8837 1165.92 91.0588" fill="white"/>
<path d="M1173.11 73.7145C1173.02 73.8367 1170.98 76.7791 1173.15 79.1575C1174.15 80.2479 1174.07 81.2068 1173.78 81.8649H1175.18C1175.46 80.906 1175.34 79.7027 1174.21 78.4618C1172.61 76.7133 1174.23 74.3443 1174.25 74.3067C1174.44 74.0341 1174.34 73.6863 1174.03 73.5264C1173.71 73.3666 1173.3 73.4512 1173.11 73.7145Z" fill="white"/>
<path d="M1169.57 81.8555H1170.96C1171.25 80.8966 1171.12 79.6933 1170 78.4524C1168.39 76.7039 1170.01 74.3349 1170.04 74.2973C1170.23 74.0247 1170.14 73.6769 1169.82 73.517C1169.51 73.3572 1169.09 73.4418 1168.9 73.7145C1168.82 73.8367 1166.77 76.7791 1168.95 79.1575C1169.95 80.2479 1169.86 81.2068 1169.58 81.8649" fill="white"/>
<path d="M1164.7 73.7145C1164.62 73.8367 1162.58 76.7791 1164.75 79.1575C1165.75 80.2479 1165.66 81.2068 1165.38 81.8649H1166.77C1167.05 80.906 1166.94 79.7027 1165.8 78.4618C1164.2 76.7133 1165.82 74.3443 1165.85 74.3067C1166.04 74.0341 1165.93 73.6863 1165.62 73.5264C1165.31 73.3666 1164.9 73.4512 1164.71 73.7145" fill="white"/>
<path d="M1155.39 67.2656V66.8801C1155.39 66.2503 1155.61 66.0059 1155.96 65.6392L1156.83 64.718C1157.54 63.9659 1157.7 63.4865 1157.7 62.678V61.8884C1157.7 60.7321 1157.14 60.1774 1155.92 60.1774C1154.71 60.1774 1154.12 60.8073 1154.12 61.9448V62.9224H1155.36V61.9072C1155.36 61.4183 1155.59 61.2773 1155.88 61.2773C1156.15 61.2773 1156.37 61.3807 1156.37 61.8884V62.5558C1156.37 63.2233 1156.32 63.4865 1155.88 63.9565L1155.11 64.765C1154.37 65.5546 1154.1 66.0811 1154.1 66.8801V68.3749H1157.63V67.2656H1155.39Z" fill="white"/>
<path d="M1162.15 63.2891H1163.01V63.7591H1161.54V63.2891L1162.44 60.8355H1161.64V60.3655H1163.04V60.8355L1162.15 63.2891Z" fill="white"/>
<path d="M1163.34 60.3655H1164.7V60.8355H1163.91V61.8038H1164.48V62.2644H1163.91V63.2891H1164.7V63.7591H1163.34V60.3655Z" fill="white"/>
<path d="M1165.58 62.1986V63.7497H1165V60.3655H1165.83C1166.4 60.3655 1166.61 60.6475 1166.61 61.1269V61.5593C1166.61 61.926 1166.48 62.1422 1166.16 62.2174L1166.71 63.7591H1166.1L1165.57 62.208L1165.58 62.1986ZM1165.58 60.8355V61.8884H1165.76C1165.96 61.8884 1166.05 61.785 1166.05 61.6063V61.1081C1166.05 60.9201 1165.96 60.8355 1165.76 60.8355H1165.58Z" fill="white"/>
<path d="M1166.93 62.8848V61.2491C1166.93 60.7227 1167.19 60.3373 1167.79 60.3373C1168.38 60.3373 1168.65 60.7227 1168.65 61.2491V62.8848C1168.65 63.4113 1168.39 63.7967 1167.79 63.7967C1167.18 63.7967 1166.93 63.4113 1166.93 62.8848ZM1168.08 62.9694V61.1551C1168.08 60.9483 1167.98 60.8073 1167.79 60.8073C1167.59 60.8073 1167.49 60.9483 1167.49 61.1551V62.9694C1167.49 63.1763 1167.59 63.3173 1167.79 63.3173C1167.98 63.3173 1168.08 63.1669 1168.08 62.9694Z" fill="white"/>
<path d="M1162.71 67.0024H1162.16V68.4971H1161.59V65.1128H1162.16V66.5511H1162.71V65.1128H1163.28V68.4971H1162.71V67.0024Z" fill="white"/>
<path d="M1165.26 65.1128V67.6792C1165.26 68.2056 1165.03 68.5441 1164.45 68.5441C1163.87 68.5441 1163.6 68.2056 1163.6 67.6792V65.1128H1164.18V67.7262C1164.18 67.9236 1164.25 68.0646 1164.46 68.0646C1164.67 68.0646 1164.74 67.933 1164.74 67.7262V65.1128H1165.27H1165.26Z" fill="white"/>
<path d="M1166.07 66.3725V68.4971H1165.59V65.1128H1166.14L1166.75 67.0588V65.1128H1167.23V68.4971H1166.73L1166.07 66.3725Z" fill="white"/>
<path d="M1168.42 66.6921H1169.22V68.4971H1168.81V68.1304C1168.74 68.3843 1168.58 68.5347 1168.27 68.5347C1167.78 68.5347 1167.55 68.1492 1167.55 67.6228V65.9871C1167.55 65.4606 1167.8 65.0752 1168.41 65.0752C1169.04 65.0752 1169.22 65.423 1169.22 65.9213V66.2221H1168.71V65.8743C1168.71 65.6674 1168.63 65.5452 1168.43 65.5452C1168.22 65.5452 1168.13 65.6863 1168.13 65.8931V67.7168C1168.13 67.9236 1168.22 68.0646 1168.42 68.0646C1168.6 68.0646 1168.7 67.9612 1168.7 67.7356V67.134H1168.43V66.6827L1168.42 66.6921Z" fill="white"/>
<path d="M1169.54 65.1128H1170.91V65.5734H1170.12V66.5511H1170.68V67.0024H1170.12V68.0364H1170.91V68.4971H1169.54V65.1128Z" fill="white"/>
<path d="M1171.78 66.9459V68.4971H1171.21V65.1128H1172.04C1172.61 65.1128 1172.82 65.3948 1172.82 65.8743V66.3067C1172.82 66.6733 1172.68 66.8895 1172.36 66.9647L1172.91 68.5065H1172.31L1171.77 66.9553L1171.78 66.9459ZM1171.78 65.5828V66.6357H1171.97C1172.17 66.6357 1172.25 66.5323 1172.25 66.3537V65.8555C1172.25 65.6674 1172.17 65.5828 1171.97 65.5828H1171.78Z" fill="white"/>
<path d="M1240 57H1200V97H1240V57Z" fill="#2D9A47"/>
<path d="M1233.49 82.0247C1233.49 80.8966 1232.77 79.9753 1231.67 79.9753C1231.13 79.9753 1230.46 80.577 1230.1 80.9436C1229.74 80.577 1229.12 79.9753 1228.57 79.9753C1227.47 79.9753 1226.7 80.8966 1226.7 82.0247C1226.7 82.5887 1226.92 83.1058 1227.28 83.4724L1230.1 86.2926L1232.91 83.4724C1233.27 83.0964 1233.49 82.5887 1233.49 82.0247Z" fill="white"/>
<path d="M1221.5 90.8989C1221.5 90.8989 1221.48 90.8989 1221.47 90.8989C1221.25 90.8895 1221.08 90.7297 1221.04 90.5135L1219.61 82.1845L1217.44 86.1986C1217.34 86.3772 1217.15 86.4712 1216.95 86.4336C1216.75 86.396 1216.6 86.2456 1216.57 86.0482L1215.65 79.6181L1213.97 83.3972C1213.89 83.5664 1213.73 83.6698 1213.55 83.6698H1207C1206.75 83.6698 1206.54 83.463 1206.54 83.2092C1206.54 82.9553 1206.75 82.7485 1207 82.7485H1213.25L1215.46 77.7756C1215.55 77.5875 1215.75 77.4747 1215.95 77.5029C1216.16 77.5311 1216.32 77.691 1216.35 77.8978L1217.3 84.5253L1219.43 80.5582C1219.53 80.3796 1219.72 80.2855 1219.91 80.3231C1220.11 80.3514 1220.26 80.5112 1220.3 80.6992L1221.62 88.4172L1226.45 72.3702C1226.51 72.1915 1226.67 72.0599 1226.86 72.0411C1227.05 72.0317 1227.22 72.1257 1227.31 72.3043L1229.85 77.5687C1229.96 77.8038 1229.86 78.0764 1229.63 78.1892C1229.41 78.302 1229.12 78.1986 1229.01 77.973L1226.99 73.7803L1221.93 90.5605C1221.88 90.7579 1221.7 90.8895 1221.49 90.8895" fill="white"/>
<path d="M1206 68.4877C1207.37 68.4877 1207.97 67.7638 1207.97 66.6357V65.4418C1207.97 64.6992 1207.65 64.2197 1206.97 64.0693C1207.53 63.8907 1207.9 63.4395 1207.9 62.7532V62.0482C1207.9 60.9013 1207.35 60.1962 1206.09 60.1962C1204.68 60.1962 1204.19 61.0329 1204.19 62.2268V62.9412H1205.43V62.114C1205.43 61.6157 1205.59 61.3243 1206.02 61.3243C1206.44 61.3243 1206.6 61.6063 1206.6 62.0576V62.9318C1206.6 63.3643 1206.31 63.5899 1205.87 63.5899H1205.35V64.6334H1205.92C1206.4 64.6334 1206.59 64.859 1206.59 65.2914V66.6263C1206.59 67.0588 1206.4 67.3596 1205.98 67.3596C1205.51 67.3596 1205.35 67.0494 1205.35 66.5699V65.4136H1204.11V66.4759C1204.11 67.7074 1204.6 68.4971 1205.99 68.4971" fill="white"/>
<path d="M1212.68 61.9448H1213.49V63.7497H1213.08V63.3831C1213 63.6369 1212.84 63.7967 1212.53 63.7967C1212.04 63.7967 1211.82 63.4113 1211.82 62.8848V61.2491C1211.82 60.7227 1212.07 60.3373 1212.67 60.3373C1213.3 60.3373 1213.49 60.6851 1213.49 61.1833V61.4841H1212.97V61.1363C1212.97 60.9295 1212.9 60.8073 1212.69 60.8073C1212.48 60.8073 1212.4 60.9483 1212.4 61.1551V62.9788C1212.4 63.1857 1212.48 63.3267 1212.68 63.3267C1212.87 63.3267 1212.96 63.2233 1212.96 63.0071V62.4054H1212.69V61.9542L1212.68 61.9448Z" fill="white"/>
<path d="M1213.82 62.8848V61.2491C1213.82 60.7227 1214.08 60.3373 1214.67 60.3373C1215.27 60.3373 1215.54 60.7227 1215.54 61.2491V62.8848C1215.54 63.4113 1215.28 63.7967 1214.67 63.7967C1214.07 63.7967 1213.82 63.4113 1213.82 62.8848ZM1214.98 62.9694V61.1551C1214.98 60.9483 1214.88 60.8073 1214.68 60.8073C1214.49 60.8073 1214.39 60.9483 1214.39 61.1551V62.9694C1214.39 63.1763 1214.49 63.3173 1214.68 63.3173C1214.88 63.3173 1214.98 63.1669 1214.98 62.9694Z" fill="white"/>
<path d="M1215.87 62.8848V61.2491C1215.87 60.7227 1216.13 60.3373 1216.72 60.3373C1217.32 60.3373 1217.59 60.7227 1217.59 61.2491V62.8848C1217.59 63.4113 1217.33 63.7967 1216.72 63.7967C1216.12 63.7967 1215.87 63.4113 1215.87 62.8848ZM1217.02 62.9694V61.1551C1217.02 60.9483 1216.93 60.8073 1216.73 60.8073C1216.54 60.8073 1216.44 60.9483 1216.44 61.1551V62.9694C1216.44 63.1763 1216.54 63.3173 1216.73 63.3173C1216.93 63.3173 1217.02 63.1669 1217.02 62.9694Z" fill="white"/>
<path d="M1219.62 61.2773V62.8472C1219.62 63.3643 1219.4 63.7591 1218.79 63.7591H1217.92V60.3749H1218.79C1219.4 60.3749 1219.62 60.7603 1219.62 61.2867M1218.73 63.2891C1218.96 63.2891 1219.06 63.1481 1219.06 62.9412V61.1645C1219.06 60.9671 1218.96 60.8261 1218.73 60.8261H1218.49V63.2891H1218.73Z" fill="white"/>
<path d="M1221.92 62.2644H1221.37V63.7591H1220.8V60.3655H1221.37V61.8038H1221.92V60.3655H1222.5V63.7591H1221.92V62.2644Z" fill="white"/>
<path d="M1222.82 60.3655H1224.18V60.8355H1223.39V61.8038H1223.95V62.2644H1223.39V63.2891H1224.18V63.7591H1222.82V60.3655Z" fill="white"/>
<path d="M1224.39 63.7591L1225.03 60.3749H1225.68L1226.33 63.7591H1225.75L1225.65 63.1387H1225.04L1224.94 63.7591H1224.39ZM1225.11 62.6874H1225.56L1225.33 61.3337L1225.11 62.6874Z" fill="white"/>
<path d="M1226.56 60.3655H1227.13V63.2891H1227.81V63.7591H1226.56V60.3655Z" fill="white"/>
<path d="M1227.68 60.3655H1229.19V60.8355H1228.72V63.7591H1228.15V60.8355H1227.68V60.3655Z" fill="white"/>
<path d="M1230.57 62.2644H1230.03V63.7591H1229.45V60.3655H1230.03V61.8038H1230.57V60.3655H1231.14V63.7591H1230.57V62.2644Z" fill="white"/>
<path d="M1211.74 68.4971L1212.38 65.1128H1213.03L1213.68 68.4971H1213.1L1212.99 67.8766H1212.39L1212.29 68.4971H1211.74ZM1212.46 67.4254H1212.91L1212.68 66.0717L1212.46 67.4254Z" fill="white"/>
<path d="M1214.38 66.3725V68.4971H1213.9V65.1128H1214.47L1215.08 67.0588V65.1128H1215.56V68.4971H1215.05L1214.38 66.3725Z" fill="white"/>
<path d="M1217.58 66.0247V67.5946C1217.58 68.1116 1217.36 68.5065 1216.75 68.5065H1215.88V65.1222H1216.75C1217.36 65.1222 1217.58 65.5076 1217.58 66.0341M1216.69 68.0364C1216.92 68.0364 1217.02 67.8954 1217.02 67.6886V65.9119C1217.02 65.7145 1216.92 65.5734 1216.69 65.5734H1216.45V68.0364H1216.69Z" fill="white"/>
<path d="M1220 66.4101L1219.68 68.4971H1219.14L1218.68 65.1128H1219.23L1219.5 67.2656L1219.79 65.1128H1220.25L1220.57 67.2656L1220.83 65.1128H1221.31L1220.87 68.4971H1220.33L1220 66.4101Z" fill="white"/>
<path d="M1221.56 65.1128H1222.91V65.5828H1222.12V66.5511H1222.68V67.0118H1222.12V68.0364H1222.91V68.5065H1221.56V65.1128Z" fill="white"/>
<path d="M1223.22 65.1128H1223.78V68.0364H1224.47V68.5065H1223.22V65.1128Z" fill="white"/>
<path d="M1224.72 65.1128H1225.3V68.0364H1225.97V68.5065H1224.72V65.1128Z" fill="white"/>
<path d="M1226.7 66.7015H1225.9V67.1622H1226.7V66.7015Z" fill="white"/>
<path d="M1226.99 65.1128H1227.82C1228.39 65.1128 1228.58 65.376 1228.58 65.8555V66.2033C1228.58 66.4853 1228.47 66.6639 1228.24 66.7391C1228.52 66.8049 1228.66 66.9929 1228.66 67.3032V67.7544C1228.66 68.2338 1228.45 68.4971 1227.88 68.4971H1227V65.1128H1226.99ZM1227.55 66.5417H1227.75C1227.94 66.5417 1228.02 66.4477 1228.02 66.2691V65.8555C1228.02 65.6674 1227.94 65.5828 1227.75 65.5828H1227.55V66.5511V66.5417ZM1227.55 66.9741V68.0364H1227.8C1227.99 68.0364 1228.08 67.9424 1228.08 67.7638V67.2562C1228.08 67.0776 1228 66.9835 1227.8 66.9835H1227.55V66.9741Z" fill="white"/>
<path d="M1228.94 65.1128H1230.3V65.5828H1229.51V66.5511H1230.07V67.0118H1229.51V68.0364H1230.3V68.5065H1228.94V65.1128Z" fill="white"/>
<path d="M1231.17 65.1128H1230.6V68.4971H1231.17V65.1128Z" fill="white"/>
<path d="M1231.98 66.3725V68.4971H1231.5V65.1128H1232.07L1232.68 67.0588V65.1128H1233.15V68.4971H1232.65L1231.98 66.3725Z" fill="white"/>
<path d="M1234.33 66.6921H1235.14V68.4971H1234.73V68.1304C1234.65 68.3843 1234.49 68.5347 1234.18 68.5347C1233.69 68.5347 1233.47 68.1492 1233.47 67.6228V65.9871C1233.47 65.4606 1233.72 65.0752 1234.32 65.0752C1234.95 65.0752 1235.14 65.423 1235.14 65.9213V66.2221H1234.62V65.8743C1234.62 65.6674 1234.54 65.5452 1234.34 65.5452C1234.14 65.5452 1234.05 65.6863 1234.05 65.8931V67.7168C1234.05 67.9236 1234.13 68.0646 1234.33 68.0646C1234.52 68.0646 1234.61 67.9612 1234.61 67.7356V67.134H1234.34V66.6827L1234.33 66.6921Z" fill="white"/>
<path d="M1290 57H1250V97H1290V57Z" fill="#8F1838"/>
<path d="M1277.63 76.6757L1273.54 80.5582C1273.39 80.7086 1273.3 80.8214 1273.3 81.141V92.027C1273.3 92.1586 1273.41 92.262 1273.54 92.262H1277.76C1277.89 92.262 1278 92.1586 1278 92.027V76.7697C1278 76.6381 1277.89 76.4031 1277.63 76.6757Z" fill="white"/>
<path d="M1265.86 81.7427L1261.77 85.6251C1261.62 85.7756 1261.53 85.8884 1261.53 86.208V92.0364C1261.53 92.1586 1261.64 92.2714 1261.77 92.2714H1265.99C1266.12 92.2714 1266.23 92.168 1266.23 92.0364V81.8367C1266.23 81.7051 1266.12 81.47 1265.86 81.7427Z" fill="white"/>
<path d="M1279.48 71.9659C1279.48 71.9659 1279.48 71.9001 1279.44 71.8813C1279.42 71.8625 1279.4 71.8531 1279.37 71.8531H1279.31L1276.18 72.5582H1276.12C1276.12 72.5582 1276.08 72.577 1276.06 72.5958C1276.01 72.6428 1276.01 72.718 1276.06 72.765L1276.81 73.517L1269.72 80.6052L1266.45 77.3337C1266.45 77.3337 1266.36 77.2961 1266.32 77.3337L1260.19 83.463C1260.19 83.463 1260.15 83.557 1260.19 83.5946L1261.08 84.4877C1261.08 84.4877 1261.18 84.5253 1261.22 84.4877L1266.39 79.3079L1268.77 81.6863C1268.77 81.6863 1268.77 81.6863 1268.77 81.6957L1269.67 82.5793C1269.67 82.5793 1269.76 82.6169 1269.8 82.5793L1277.84 74.5323L1278.6 75.2844C1278.6 75.2844 1278.72 75.3314 1278.77 75.2844C1278.78 75.2656 1278.8 75.2374 1278.8 75.2092L1279.49 72.0035V71.9659H1279.48Z" fill="white"/>
<path d="M1271.76 82.4195L1269.79 84.4125C1269.79 84.4125 1269.69 84.4407 1269.66 84.4125L1267.87 82.5887C1267.54 82.2597 1267.47 82.5229 1267.47 82.6545V92.0364C1267.47 92.168 1267.57 92.2714 1267.7 92.2714H1271.92C1272.05 92.2714 1272.16 92.168 1272.16 92.0364V82.4947C1272.16 82.3631 1272.05 82.1281 1271.76 82.4195Z" fill="white"/>
<path d="M1257.72 66.4007V65.517C1257.72 64.7368 1257.45 64.1821 1256.81 63.8907C1257.34 63.6275 1257.6 63.1481 1257.6 62.4806V62.1422C1257.6 60.8731 1256.94 60.1962 1255.69 60.1962C1254.44 60.1962 1253.8 60.8731 1253.8 62.1422V62.4806C1253.8 63.1387 1254.03 63.6275 1254.56 63.8907C1253.93 64.1821 1253.67 64.7368 1253.67 65.517V66.4007C1253.67 67.6322 1254.25 68.4877 1255.69 68.4877C1257.13 68.4877 1257.72 67.6228 1257.72 66.4007ZM1255.08 62.0576C1255.08 61.5687 1255.25 61.2773 1255.69 61.2773C1256.13 61.2773 1256.31 61.5593 1256.31 62.0576V62.6028C1256.31 63.0917 1256.14 63.3831 1255.69 63.3831C1255.24 63.3831 1255.08 63.0917 1255.08 62.6028V62.0576ZM1256.35 66.5417C1256.35 67.0306 1256.18 67.3784 1255.69 67.3784C1255.2 67.3784 1255.03 67.0306 1255.03 66.5417V65.2256C1255.03 64.7368 1255.21 64.389 1255.69 64.389C1256.17 64.389 1256.35 64.7368 1256.35 65.2256V66.5417Z" fill="white"/>
<path d="M1262.33 61.1927V62.7626C1262.33 63.2797 1262.12 63.6745 1261.51 63.6745H1260.63V60.2902H1261.51C1262.12 60.2902 1262.33 60.6757 1262.33 61.2021M1261.44 63.2045C1261.68 63.2045 1261.77 63.0635 1261.77 62.8566V61.0799C1261.77 60.8825 1261.68 60.7415 1261.44 60.7415H1261.2V63.2045H1261.44Z" fill="white"/>
<path d="M1262.66 60.2808H1264.02V60.7509H1263.23V61.7192H1263.79V62.1798H1263.23V63.2045H1264.02V63.6745H1262.66V60.2808Z" fill="white"/>
<path d="M1264.27 62.8002V61.1645C1264.27 60.6381 1264.52 60.2526 1265.12 60.2526C1265.71 60.2526 1265.92 60.6005 1265.92 61.0987V61.5029H1265.4V61.0611C1265.4 60.8543 1265.33 60.7321 1265.13 60.7321C1264.92 60.7321 1264.83 60.8731 1264.83 61.0799V62.8942C1264.83 63.1011 1264.92 63.2421 1265.13 63.2421C1265.33 63.2421 1265.4 63.1105 1265.4 62.913V62.2926H1265.92V62.8754C1265.92 63.3549 1265.72 63.7215 1265.12 63.7215C1264.51 63.7215 1264.27 63.3361 1264.27 62.8096" fill="white"/>
<path d="M1266.24 60.2808H1267.6V60.7509H1266.81V61.7192H1267.37V62.1798H1266.81V63.2045H1267.6V63.6745H1266.24V60.2808Z" fill="white"/>
<path d="M1268.38 61.5405V63.6745H1267.9V60.2808H1268.46L1269.07 62.2268V60.2808H1269.55V63.6745H1269.05L1268.38 61.5405Z" fill="white"/>
<path d="M1269.81 60.2808H1271.32V60.7509H1270.85V63.6745H1270.28V60.7509H1269.81V60.2808Z" fill="white"/>
<path d="M1273.67 61.5781L1273.35 63.6745H1272.82L1272.36 60.2808H1272.91L1273.17 62.4336H1273.18L1273.46 60.2808H1273.93L1274.24 62.4336H1274.25L1274.51 60.2808H1274.99L1274.55 63.6745H1274.01L1273.68 61.5781H1273.67Z" fill="white"/>
<path d="M1275.18 62.8002V61.1645C1275.18 60.6381 1275.45 60.2526 1276.04 60.2526C1276.63 60.2526 1276.9 60.6381 1276.9 61.1645V62.8002C1276.9 63.3267 1276.64 63.7121 1276.04 63.7121C1275.44 63.7121 1275.18 63.3267 1275.18 62.8002ZM1276.34 62.8848V61.0705C1276.34 60.8637 1276.25 60.7227 1276.05 60.7227C1275.85 60.7227 1275.76 60.8637 1275.76 61.0705V62.8848C1275.76 63.0917 1275.85 63.2327 1276.05 63.2327C1276.25 63.2327 1276.34 63.0823 1276.34 62.8848Z" fill="white"/>
<path d="M1277.8 62.114V63.6651H1277.22V60.2808H1278.05C1278.63 60.2808 1278.83 60.5629 1278.83 61.0423V61.4747C1278.83 61.8414 1278.7 62.0576 1278.38 62.1328L1278.93 63.6745H1278.32L1277.79 62.1234L1277.8 62.114ZM1277.8 60.7509V61.8038H1277.99C1278.18 61.8038 1278.27 61.7004 1278.27 61.5217V61.0235C1278.27 60.8355 1278.18 60.7509 1277.99 60.7509H1277.8Z" fill="white"/>
<path d="M1279.73 62.02V63.6745H1279.15V60.2808H1279.73V61.7756L1280.35 60.2808H1280.9L1280.24 61.8038L1280.92 63.6745H1280.32L1279.73 62.02Z" fill="white"/>
<path d="M1281.9 63.6745L1282.54 60.2902H1283.18L1283.83 63.6745H1283.25L1283.15 63.0541H1282.55L1282.44 63.6745H1281.9ZM1282.61 62.5934H1283.06L1282.84 61.2397L1282.61 62.5934Z" fill="white"/>
<path d="M1284.55 61.5405V63.6745H1284.07V60.2808H1284.62L1285.24 62.2268V60.2808H1285.71V63.6745H1285.22L1284.55 61.5405Z" fill="white"/>
<path d="M1287.74 61.1927V62.7626C1287.74 63.2797 1287.53 63.6745 1286.92 63.6745H1286.04V60.2902H1286.92C1287.53 60.2902 1287.74 60.6757 1287.74 61.2021M1286.85 63.2045C1287.09 63.2045 1287.18 63.0635 1287.18 62.8566V61.0799C1287.18 60.8825 1287.09 60.7415 1286.85 60.7415H1286.61V63.2045H1286.85Z" fill="white"/>
<path d="M1260.63 65.0282H1262V65.4888H1261.21V66.4571H1261.77V66.9177H1261.21V67.9518H1262V68.4125H1260.63V65.0282Z" fill="white"/>
<path d="M1262.25 67.5382V65.9025C1262.25 65.376 1262.5 64.9906 1263.1 64.9906C1263.69 64.9906 1263.89 65.3384 1263.89 65.8367V66.2315H1263.38V65.7897C1263.38 65.5828 1263.31 65.4606 1263.1 65.4606C1262.9 65.4606 1262.81 65.6016 1262.81 65.8085V67.6228C1262.81 67.8296 1262.9 67.9706 1263.1 67.9706C1263.31 67.9706 1263.38 67.839 1263.38 67.6416V67.0212H1263.89V67.604C1263.89 68.0834 1263.7 68.4501 1263.1 68.4501C1262.49 68.4501 1262.25 68.0646 1262.25 67.5382Z" fill="white"/>
<path d="M1264.2 67.5382V65.9025C1264.2 65.376 1264.47 64.9906 1265.06 64.9906C1265.65 64.9906 1265.92 65.376 1265.92 65.9025V67.5382C1265.92 68.0646 1265.66 68.4501 1265.06 68.4501C1264.46 68.4501 1264.2 68.0646 1264.2 67.5382ZM1265.36 67.6322V65.8179C1265.36 65.611 1265.27 65.47 1265.07 65.47C1264.87 65.47 1264.78 65.6204 1264.78 65.8179V67.6322C1264.78 67.839 1264.87 67.98 1265.07 67.98C1265.27 67.98 1265.36 67.8296 1265.36 67.6322Z" fill="white"/>
<path d="M1266.73 66.2879V68.4125H1266.25V65.0282H1266.82L1267.43 66.9741V65.0282H1267.91V68.4125H1267.41L1266.73 66.2879Z" fill="white"/>
<path d="M1268.23 67.5382V65.9025C1268.23 65.376 1268.49 64.9906 1269.08 64.9906C1269.68 64.9906 1269.95 65.376 1269.95 65.9025V67.5382C1269.95 68.0646 1269.69 68.4501 1269.08 68.4501C1268.48 68.4501 1268.23 68.0646 1268.23 67.5382ZM1269.38 67.6322V65.8179C1269.38 65.611 1269.29 65.47 1269.09 65.47C1268.9 65.47 1268.8 65.6204 1268.8 65.8179V67.6322C1268.8 67.839 1268.9 67.98 1269.09 67.98C1269.29 67.98 1269.38 67.8296 1269.38 67.6322Z" fill="white"/>
<path d="M1271.85 66.2127H1271.83L1271.44 68.4125H1271.18L1270.76 66.2127H1270.75V68.4125H1270.28V65.0282H1270.94L1271.31 66.9365L1271.65 65.0282H1272.36V68.4125H1271.85V66.2127Z" fill="white"/>
<path d="M1273.27 65.0282H1272.69V68.4125H1273.27V65.0282Z" fill="white"/>
<path d="M1273.59 67.5382V65.9025C1273.59 65.376 1273.84 64.9906 1274.43 64.9906C1275.02 64.9906 1275.23 65.3384 1275.23 65.8367V66.2315H1274.71V65.7897C1274.71 65.5828 1274.65 65.4606 1274.44 65.4606C1274.24 65.4606 1274.15 65.6016 1274.15 65.8085V67.6228C1274.15 67.8296 1274.24 67.9706 1274.44 67.9706C1274.65 67.9706 1274.71 67.839 1274.71 67.6416V67.0212H1275.23V67.604C1275.23 68.0834 1275.03 68.4501 1274.43 68.4501C1273.83 68.4501 1273.59 68.0646 1273.59 67.5382Z" fill="white"/>
<path d="M1277.27 66.6075H1278.08V68.4125H1277.67V68.0458C1277.59 68.2996 1277.43 68.4501 1277.12 68.4501C1276.63 68.4501 1276.41 68.0646 1276.41 67.5382V65.9025C1276.41 65.376 1276.66 64.9906 1277.26 64.9906C1277.89 64.9906 1278.08 65.3384 1278.08 65.8367V66.1375H1277.56V65.7897C1277.56 65.5828 1277.48 65.4606 1277.28 65.4606C1277.08 65.4606 1276.99 65.6016 1276.99 65.8085V67.6322C1276.99 67.839 1277.07 67.98 1277.27 67.98C1277.46 67.98 1277.55 67.8766 1277.55 67.651V67.0494H1277.28V66.5981L1277.27 66.6075Z" fill="white"/>
<path d="M1278.97 66.8613V68.4125H1278.4V65.0282H1279.23C1279.8 65.0282 1280.01 65.3102 1280.01 65.7897V66.2221C1280.01 66.5887 1279.88 66.8049 1279.56 66.8801L1280.1 68.4219H1279.5L1278.96 66.8707L1278.97 66.8613ZM1278.97 65.4888V66.5417H1279.16C1279.36 66.5417 1279.44 66.4383 1279.44 66.2597V65.7615C1279.44 65.5734 1279.36 65.4888 1279.16 65.4888H1278.97Z" fill="white"/>
<path d="M1280.33 67.5382V65.9025C1280.33 65.376 1280.59 64.9906 1281.18 64.9906C1281.77 64.9906 1282.05 65.376 1282.05 65.9025V67.5382C1282.05 68.0646 1281.78 68.4501 1281.18 68.4501C1280.58 68.4501 1280.33 68.0646 1280.33 67.5382ZM1281.47 67.6322V65.8179C1281.47 65.611 1281.38 65.47 1281.18 65.47C1280.98 65.47 1280.89 65.6204 1280.89 65.8179V67.6322C1280.89 67.839 1280.98 67.98 1281.18 67.98C1281.38 67.98 1281.47 67.8296 1281.47 67.6322Z" fill="white"/>
<path d="M1283.55 66.3255L1283.23 68.4125H1282.7L1282.24 65.0282H1282.79L1283.05 67.181H1283.06L1283.34 65.0282H1283.81L1284.12 67.181H1284.13L1284.39 65.0282H1284.87L1284.43 68.4125H1283.89L1283.56 66.3255H1283.55Z" fill="white"/>
<path d="M1285.05 65.0282H1286.56V65.4888H1286.09V68.4125H1285.52V65.4888H1285.05V65.0282Z" fill="white"/>
<path d="M1287.94 66.9177H1287.4V68.4125H1286.82V65.0282H1287.4V66.4665H1287.94V65.0282H1288.52V68.4125H1287.94V66.9177Z" fill="white"/>
<path d="M1340 57H1300V97H1340V57Z" fill="#F99D25"/>
<path d="M1306.82 87.5053H1312.87C1312.95 87.5053 1313.02 87.4395 1313.02 87.3549C1313.02 87.3173 1313 87.2797 1312.98 87.2515L1309.97 83.3502L1309.95 83.322C1309.95 83.322 1309.88 83.275 1309.83 83.275C1309.8 83.275 1309.77 83.2938 1309.74 83.3126L1309.69 83.3596L1306.76 87.2139L1306.71 87.2703C1306.71 87.2703 1306.68 87.3267 1306.68 87.3549C1306.68 87.4395 1306.75 87.5053 1306.83 87.5053" fill="white"/>
<path d="M1312.85 88.0505H1306.8C1306.71 88.0505 1306.65 88.1163 1306.65 88.2009V92.9389C1306.65 93.0235 1306.71 93.0893 1306.8 93.0893H1308.74V90.1093C1308.74 90.0247 1308.81 89.9589 1308.89 89.9589H1310.71C1310.79 89.9589 1310.86 90.0247 1310.86 90.1093V93.0893H1312.86C1312.94 93.0893 1313.01 93.0235 1313.01 92.9389V88.2009C1313.01 88.1163 1312.94 88.0505 1312.86 88.0505" fill="white"/>
<path d="M1333.79 86.8096H1327.79C1327.71 86.8096 1327.65 86.8754 1327.65 86.9506V93.0047C1327.65 93.0799 1327.71 93.1457 1327.79 93.1457H1333.79C1333.87 93.1457 1333.94 93.0799 1333.94 93.0047V86.9506C1333.94 86.866 1333.87 86.8096 1333.79 86.8096ZM1330.51 90.7579C1330.51 90.8331 1330.44 90.8989 1330.35 90.8989H1328.57C1328.48 90.8989 1328.42 90.8331 1328.42 90.7579V89.6674C1328.42 89.5828 1328.48 89.5264 1328.57 89.5264H1330.35C1330.44 89.5264 1330.51 89.5922 1330.51 89.6674V90.7579ZM1330.51 88.7462C1330.51 88.8214 1330.44 88.8872 1330.35 88.8872H1328.57C1328.48 88.8872 1328.42 88.8214 1328.42 88.7462V87.6557C1328.42 87.5805 1328.48 87.5147 1328.57 87.5147H1330.35C1330.44 87.5147 1330.51 87.5805 1330.51 87.6557V88.7462ZM1333.24 90.7579C1333.24 90.8331 1333.18 90.8989 1333.09 90.8989H1331.3C1331.22 90.8989 1331.15 90.8331 1331.15 90.7579V89.6674C1331.15 89.5828 1331.22 89.5264 1331.3 89.5264H1333.09C1333.18 89.5264 1333.24 89.5922 1333.24 89.6674V90.7579ZM1333.24 88.7462C1333.24 88.8214 1333.18 88.8872 1333.09 88.8872H1331.3C1331.22 88.8872 1331.15 88.8214 1331.15 88.7462V87.6557C1331.15 87.5805 1331.22 87.5147 1331.3 87.5147H1333.09C1333.18 87.5147 1333.24 87.5805 1333.24 87.6557V88.7462Z" fill="white"/>
<path d="M1319.84 72.7556H1313.98C1313.9 72.7556 1313.84 72.8214 1313.84 72.8966V92.9483C1313.84 93.0235 1313.9 93.0893 1313.98 93.0893H1319.84C1319.92 93.0893 1319.99 93.0235 1319.99 92.9483V72.8966C1319.99 72.8214 1319.92 72.7556 1319.84 72.7556ZM1316.36 90.8143C1316.36 90.8143 1316.32 90.8895 1316.28 90.8895H1314.94C1314.94 90.8895 1314.86 90.8519 1314.86 90.8143V89.3196C1314.86 89.3196 1314.9 89.2444 1314.94 89.2444H1316.28C1316.28 89.2444 1316.36 89.282 1316.36 89.3196V90.8143ZM1316.36 87.3737C1316.36 87.3737 1316.32 87.4489 1316.28 87.4489H1314.94C1314.94 87.4489 1314.86 87.4207 1314.86 87.3737V85.879C1314.86 85.879 1314.9 85.8038 1314.94 85.8038H1316.28C1316.28 85.8038 1316.36 85.8414 1316.36 85.879V87.3737ZM1316.36 83.933C1316.36 83.933 1316.32 84.0082 1316.28 84.0082H1314.94C1314.94 84.0082 1314.86 83.9706 1314.86 83.933V82.4383C1314.86 82.4383 1314.9 82.3631 1314.94 82.3631H1316.28C1316.28 82.3631 1316.36 82.4007 1316.36 82.4383V83.933ZM1316.36 80.5018C1316.36 80.5018 1316.32 80.577 1316.28 80.577H1314.94C1314.94 80.577 1314.86 80.5394 1314.86 80.5018V79.007C1314.86 79.007 1314.9 78.9318 1314.94 78.9318H1316.28C1316.28 78.9318 1316.36 78.9694 1316.36 79.007V80.5018ZM1316.36 77.0611C1316.36 77.0611 1316.32 77.1363 1316.28 77.1363H1314.94C1314.94 77.1363 1314.86 77.0987 1314.86 77.0611V75.5664C1314.86 75.5664 1314.9 75.4912 1314.94 75.4912H1316.28C1316.28 75.4912 1316.36 75.5288 1316.36 75.5664V77.0611ZM1318.99 90.8143C1318.99 90.8143 1318.95 90.8895 1318.91 90.8895H1317.57C1317.57 90.8895 1317.49 90.8519 1317.49 90.8143V89.3196C1317.49 89.3196 1317.53 89.2444 1317.57 89.2444H1318.91C1318.91 89.2444 1318.99 89.282 1318.99 89.3196V90.8143ZM1318.99 87.3737C1318.99 87.3737 1318.95 87.4489 1318.91 87.4489H1317.57C1317.57 87.4489 1317.49 87.4207 1317.49 87.3737V85.879C1317.49 85.879 1317.53 85.8038 1317.57 85.8038H1318.91C1318.91 85.8038 1318.99 85.8414 1318.99 85.879V87.3737ZM1318.99 83.933C1318.99 83.933 1318.95 84.0082 1318.91 84.0082H1317.57C1317.57 84.0082 1317.49 83.9706 1317.49 83.933V82.4383C1317.49 82.4383 1317.53 82.3631 1317.57 82.3631H1318.91C1318.91 82.3631 1318.99 82.4007 1318.99 82.4383V83.933ZM1318.99 80.5018C1318.99 80.5018 1318.95 80.577 1318.91 80.577H1317.57C1317.57 80.577 1317.49 80.5394 1317.49 80.5018V79.007C1317.49 79.007 1317.53 78.9318 1317.57 78.9318H1318.91C1318.91 78.9318 1318.99 78.9694 1318.99 79.007V80.5018ZM1318.99 77.0611C1318.99 77.0611 1318.95 77.1363 1318.91 77.1363H1317.57C1317.57 77.1363 1317.49 77.0987 1317.49 77.0611V75.5664C1317.49 75.5664 1317.53 75.4912 1317.57 75.4912H1318.91C1318.91 75.4912 1318.99 75.5288 1318.99 75.5664V77.0611Z" fill="white"/>
<path d="M1327.77 84.8731H1333.8C1333.87 84.8731 1333.93 84.9295 1333.93 84.9953V86.1986C1333.93 86.2644 1333.87 86.3208 1333.8 86.3208H1327.77C1327.7 86.3208 1327.65 86.2644 1327.65 86.1986V84.9953C1327.65 84.9295 1327.7 84.8731 1327.77 84.8731Z" fill="white"/>
<path d="M1326.93 76.5441C1326.91 76.4783 1326.86 76.4313 1326.78 76.4313C1326.75 76.4313 1326.73 76.4407 1326.7 76.4595C1326.7 76.4595 1326.7 76.4595 1326.69 76.4595L1326.64 76.5253L1320.88 83.839L1320.85 83.8766C1320.85 83.8766 1320.8 83.9424 1320.8 83.9894V92.9765C1320.8 93.0517 1320.87 93.1175 1320.94 93.1175H1326.81C1326.89 93.1175 1326.95 93.0517 1326.95 92.9765V76.6005C1326.95 76.6005 1326.95 76.5629 1326.94 76.5441M1324.51 80.5206L1324.55 80.4642C1324.94 79.9565 1325.61 79.1387 1325.93 78.7438L1325.97 78.6968C1325.97 78.6968 1326.05 78.631 1326.11 78.631C1326.19 78.631 1326.25 78.6874 1326.27 78.7626V80.6146C1326.27 80.6992 1326.2 80.7744 1326.11 80.7838H1324.67C1324.58 80.7838 1324.51 80.7086 1324.51 80.6146C1324.51 80.577 1324.52 80.5394 1324.55 80.5206M1323.6 90.7579C1323.6 90.8425 1323.53 90.8989 1323.45 90.8989H1321.71C1321.63 90.8989 1321.57 90.8331 1321.57 90.7579V89.6674C1321.57 89.5922 1321.63 89.5264 1321.71 89.5264H1323.45C1323.53 89.5264 1323.6 89.5922 1323.6 89.6674V90.7579ZM1323.6 88.7368C1323.6 88.8214 1323.53 88.8778 1323.45 88.8778H1321.71C1321.63 88.8778 1321.57 88.812 1321.57 88.7368V87.6463C1321.57 87.5617 1321.63 87.5053 1321.71 87.5053H1323.45C1323.53 87.5053 1323.6 87.5711 1323.6 87.6463V88.7368ZM1323.6 86.7156C1323.6 86.7908 1323.53 86.8566 1323.45 86.8566H1321.71C1321.63 86.8566 1321.57 86.7908 1321.57 86.7156V85.6251C1321.57 85.5405 1321.63 85.4841 1321.71 85.4841H1323.45C1323.53 85.4841 1323.6 85.5499 1323.6 85.6251V86.7156ZM1323.6 82.2879V84.6945C1323.6 84.7791 1323.53 84.8355 1323.45 84.8355H1321.71C1321.63 84.8355 1321.57 84.7697 1321.57 84.6945V84.4031C1321.57 84.4031 1321.57 84.3561 1321.57 84.3372C1321.57 84.3372 1321.57 84.3372 1321.57 84.3184C1321.57 84.3184 1321.57 84.309 1321.58 84.2996C1321.58 84.2996 1321.59 84.2808 1321.6 84.2714C1321.83 83.9518 1322.83 82.7109 1323.26 82.1939L1323.29 82.1469C1323.29 82.1469 1323.37 82.0811 1323.43 82.0811C1323.51 82.0811 1323.57 82.1375 1323.59 82.2127V82.2785L1323.6 82.2879ZM1326.27 90.7579C1326.27 90.8425 1326.2 90.8989 1326.12 90.8989H1324.38C1324.29 90.8989 1324.24 90.8331 1324.24 90.7579V89.6674C1324.24 89.5922 1324.3 89.5264 1324.38 89.5264H1326.12C1326.21 89.5264 1326.27 89.5922 1326.27 89.6674V90.7579ZM1326.27 88.7368C1326.27 88.8214 1326.2 88.8778 1326.12 88.8778H1324.38C1324.29 88.8778 1324.24 88.812 1324.24 88.7368V87.6463C1324.24 87.5617 1324.3 87.5053 1324.38 87.5053H1326.12C1326.21 87.5053 1326.27 87.5711 1326.27 87.6463V88.7368ZM1326.27 86.7156C1326.27 86.7908 1326.2 86.8566 1326.12 86.8566H1324.38C1324.29 86.8566 1324.24 86.7908 1324.24 86.7156V85.6251C1324.24 85.5405 1324.3 85.4841 1324.38 85.4841H1326.12C1326.21 85.4841 1326.27 85.5499 1326.27 85.6251V86.7156ZM1326.27 84.6945C1326.27 84.7697 1326.2 84.8355 1326.12 84.8355H1324.38C1324.29 84.8355 1324.24 84.7697 1324.24 84.6945V83.604C1324.24 83.5288 1324.3 83.463 1324.38 83.463H1326.12C1326.21 83.463 1326.27 83.5288 1326.27 83.604V84.6945ZM1326.27 82.6733C1326.27 82.7485 1326.2 82.8143 1326.12 82.8143H1324.38C1324.29 82.8143 1324.24 82.7485 1324.24 82.6733V81.5828C1324.24 81.4982 1324.3 81.4418 1324.38 81.4418H1326.12C1326.21 81.4418 1326.27 81.5076 1326.27 81.5828V82.6733Z" fill="white"/>
<path d="M1302.79 61.7474V63.1669H1302.8L1303.76 62.1798H1303.77V68.3749H1305.13V60.2714H1304.04L1302.79 61.7474Z" fill="white"/>
<path d="M1305.89 61.7474V63.1669H1305.9L1306.86 62.1798H1306.87V68.3749H1308.24V60.2714H1307.15L1305.89 61.7474Z" fill="white"/>
<path d="M1310.72 62.9412V62.49H1311.24V62.9506C1311.24 63.1387 1311.33 63.2515 1311.53 63.2515C1311.7 63.2515 1311.79 63.1293 1311.79 62.9506V62.819C1311.79 62.6216 1311.7 62.5088 1311.53 62.3396L1311.2 62.0012C1310.87 61.6816 1310.73 61.4841 1310.73 61.0987V60.9859C1310.73 60.5629 1310.97 60.2432 1311.53 60.2432C1312.08 60.2432 1312.32 60.5253 1312.32 61.0141V61.2867H1311.81V60.9953C1311.81 60.7979 1311.71 60.7039 1311.53 60.7039C1311.37 60.7039 1311.26 60.7979 1311.26 60.9859V61.0611C1311.26 61.2491 1311.37 61.3619 1311.53 61.5217L1311.9 61.879C1312.21 62.1986 1312.36 62.3866 1312.36 62.7626V62.9224C1312.36 63.3831 1312.11 63.7215 1311.53 63.7215C1310.96 63.7215 1310.73 63.3925 1310.73 62.9506" fill="white"/>
<path d="M1314.24 60.2808V62.8472C1314.24 63.3737 1314.02 63.7121 1313.43 63.7121C1312.85 63.7121 1312.59 63.3737 1312.59 62.8472V60.2808H1313.15V62.8942C1313.15 63.0917 1313.24 63.2327 1313.43 63.2327C1313.63 63.2327 1313.72 63.1011 1313.72 62.8942V60.2808H1314.24Z" fill="white"/>
<path d="M1314.49 62.9412V62.49H1315.01V62.9506C1315.01 63.1387 1315.1 63.2515 1315.29 63.2515C1315.47 63.2515 1315.56 63.1293 1315.56 62.9506V62.819C1315.56 62.6216 1315.47 62.5088 1315.3 62.3396L1314.97 62.0012C1314.64 61.6816 1314.5 61.4841 1314.5 61.0987V60.9859C1314.5 60.5629 1314.74 60.2432 1315.29 60.2432C1315.85 60.2432 1316.09 60.5253 1316.09 61.0141V61.2867H1315.58V60.9953C1315.58 60.7979 1315.48 60.7039 1315.3 60.7039C1315.14 60.7039 1315.03 60.7979 1315.03 60.9859V61.0611C1315.03 61.2491 1315.14 61.3619 1315.3 61.5217L1315.67 61.879C1315.98 62.1986 1316.13 62.3866 1316.13 62.7626V62.9224C1316.13 63.3831 1315.88 63.7215 1315.3 63.7215C1314.73 63.7215 1314.5 63.3925 1314.5 62.9506" fill="white"/>
<path d="M1316.23 60.2808H1317.74V60.7509H1317.27V63.6745H1316.7V60.7509H1316.23V60.2808Z" fill="white"/>
<path d="M1317.61 63.6745L1318.25 60.2902H1318.9L1319.54 63.6745H1318.96L1318.86 63.0541H1318.26L1318.15 63.6745H1317.61ZM1318.32 62.5934H1318.77L1318.55 61.2397L1318.32 62.5934Z" fill="white"/>
<path d="M1320.29 60.2808H1319.71V63.6651H1320.29V60.2808Z" fill="white"/>
<path d="M1321.04 61.5405V63.6745H1320.56V60.2808H1321.12L1321.73 62.2268V60.2808H1322.21V63.6745H1321.72L1321.04 61.5405Z" fill="white"/>
<path d="M1322.39 63.6745L1323.03 60.2902H1323.68L1324.33 63.6745H1323.75L1323.64 63.0541H1323.04L1322.94 63.6745H1322.39ZM1323.11 62.5934H1323.56L1323.33 61.2397L1323.11 62.5934Z" fill="white"/>
<path d="M1324.5 60.2808H1325.33C1325.89 60.2808 1326.09 60.5441 1326.09 61.0235V61.3713C1326.09 61.6533 1325.98 61.832 1325.75 61.9072C1326.03 61.973 1326.17 62.161 1326.17 62.4712V62.9224C1326.17 63.4019 1325.96 63.6651 1325.39 63.6651H1324.51V60.2808H1324.5ZM1325.07 61.7098H1325.27C1325.46 61.7098 1325.54 61.6157 1325.54 61.4371V61.0235C1325.54 60.8355 1325.46 60.7509 1325.27 60.7509H1325.07V61.7192V61.7098ZM1325.07 62.1516V63.2139H1325.33C1325.51 63.2139 1325.61 63.1199 1325.61 62.9412V62.4336C1325.61 62.255 1325.52 62.161 1325.33 62.161H1325.08L1325.07 62.1516Z" fill="white"/>
<path d="M1326.4 60.2808H1326.97V63.2045H1327.65V63.6745H1326.4V60.2808Z" fill="white"/>
<path d="M1327.85 60.2808H1329.21V60.7509H1328.42V61.7192H1328.99V62.1798H1328.42V63.2045H1329.21V63.6745H1327.85V60.2808Z" fill="white"/>
<path d="M1330.26 62.8002V61.1645C1330.26 60.6381 1330.51 60.2526 1331.11 60.2526C1331.74 60.2526 1331.92 60.6005 1331.92 61.0987V61.5029H1331.4V61.0611C1331.4 60.8543 1331.33 60.7321 1331.13 60.7321C1330.92 60.7321 1330.83 60.8731 1330.83 61.0799V62.8942C1330.83 63.1011 1330.92 63.2421 1331.13 63.2421C1331.33 63.2421 1331.4 63.1105 1331.4 62.913V62.2926H1331.92V62.8754C1331.92 63.3549 1331.72 63.7215 1331.11 63.7215C1330.5 63.7215 1330.26 63.3361 1330.26 62.8096" fill="white"/>
<path d="M1332.74 60.2808H1332.17V63.6651H1332.74V60.2808Z" fill="white"/>
<path d="M1332.95 60.2808H1334.46V60.7509H1333.99V63.6745H1333.42V60.7509H1332.95V60.2808Z" fill="white"/>
<path d="M1335.23 60.2808H1334.67V63.6651H1335.23V60.2808Z" fill="white"/>
<path d="M1335.52 60.2808H1336.88V60.7509H1336.09V61.7192H1336.65V62.1798H1336.09V63.2045H1336.88V63.6745H1335.52V60.2808Z" fill="white"/>
<path d="M1337.08 62.9412V62.49H1337.6V62.9506C1337.6 63.1387 1337.69 63.2515 1337.88 63.2515C1338.06 63.2515 1338.15 63.1293 1338.15 62.9506V62.819C1338.15 62.6216 1338.06 62.5088 1337.89 62.3396L1337.56 62.0012C1337.23 61.6816 1337.09 61.4841 1337.09 61.0987V60.9859C1337.09 60.5629 1337.33 60.2432 1337.88 60.2432C1338.44 60.2432 1338.68 60.5253 1338.68 61.0141V61.2867H1338.17V60.9953C1338.17 60.7979 1338.07 60.7039 1337.89 60.7039C1337.73 60.7039 1337.62 60.7979 1337.62 60.9859V61.0611C1337.62 61.2491 1337.73 61.3619 1337.89 61.5217L1338.26 61.879C1338.57 62.1986 1338.72 62.3866 1338.72 62.7626V62.9224C1338.72 63.3831 1338.47 63.7215 1337.89 63.7215C1337.32 63.7215 1337.09 63.3925 1337.09 62.9506" fill="white"/>
<path d="M1310.65 68.4125L1311.29 65.0282H1311.94L1312.59 68.4125H1312L1311.9 67.792H1311.3L1311.2 68.4125H1310.65ZM1311.37 67.3408H1311.82L1311.59 65.9777L1311.37 67.3408Z" fill="white"/>
<path d="M1313.25 66.2879V68.4125H1312.77V65.0282H1313.32L1313.94 66.9741V65.0282H1314.41V68.4125H1313.91L1313.25 66.2879Z" fill="white"/>
<path d="M1316.39 65.9401V67.51C1316.39 68.027 1316.17 68.4219 1315.56 68.4219H1314.68V65.0376H1315.56C1316.17 65.0376 1316.39 65.423 1316.39 65.9495M1315.49 67.9518C1315.73 67.9518 1315.82 67.8108 1315.82 67.604V65.8273C1315.82 65.6298 1315.73 65.4888 1315.49 65.4888H1315.25V67.9518H1315.49Z" fill="white"/>
<path d="M1317.46 67.5382V65.9025C1317.46 65.376 1317.7 64.9906 1318.3 64.9906C1318.93 64.9906 1319.11 65.3384 1319.11 65.8367V66.2315H1318.59V65.7897C1318.59 65.5828 1318.53 65.4606 1318.32 65.4606C1318.12 65.4606 1318.03 65.6016 1318.03 65.8085V67.6228C1318.03 67.8296 1318.12 67.9706 1318.32 67.9706C1318.53 67.9706 1318.59 67.839 1318.59 67.6416V67.0212H1319.11V67.604C1319.11 68.0834 1318.91 68.4501 1318.3 68.4501C1317.69 68.4501 1317.46 68.0646 1317.46 67.5382Z" fill="white"/>
<path d="M1319.37 67.5382V65.9025C1319.37 65.376 1319.63 64.9906 1320.22 64.9906C1320.81 64.9906 1321.09 65.376 1321.09 65.9025V67.5382C1321.09 68.0646 1320.82 68.4501 1320.22 68.4501C1319.62 68.4501 1319.37 68.0646 1319.37 67.5382ZM1320.52 67.6322V65.8179C1320.52 65.611 1320.43 65.47 1320.23 65.47C1320.03 65.47 1319.94 65.611 1319.94 65.8179V67.6322C1319.94 67.839 1320.03 67.98 1320.23 67.98C1320.43 67.98 1320.52 67.8296 1320.52 67.6322Z" fill="white"/>
<path d="M1322.93 66.2127H1322.91L1322.52 68.4125H1322.26L1321.84 66.2127H1321.83V68.4125H1321.36V65.0282H1322.03L1322.39 66.9365H1322.4L1322.73 65.0282H1323.45V68.4125H1322.93V66.2127Z" fill="white"/>
<path d="M1325.29 66.2127H1325.27L1324.88 68.4125H1324.62L1324.2 66.2127H1324.19V68.4125H1323.72V65.0282H1324.38L1324.75 66.9365L1325.08 65.0282H1325.8V68.4125H1325.29V66.2127Z" fill="white"/>
<path d="M1327.73 65.0282V67.5946C1327.73 68.121 1327.51 68.4595 1326.92 68.4595C1326.34 68.4595 1326.08 68.121 1326.08 67.5946V65.0282H1326.64V67.6416C1326.64 67.839 1326.73 67.98 1326.92 67.98C1327.12 67.98 1327.21 67.8484 1327.21 67.6416V65.0282H1327.73Z" fill="white"/>
<path d="M1328.47 66.2879V68.4125H1328V65.0282H1328.56L1329.17 66.9741V65.0282H1329.64V68.4125H1329.14L1328.47 66.2879Z" fill="white"/>
<path d="M1330.49 65.0282H1329.91V68.4125H1330.49V65.0282Z" fill="white"/>
<path d="M1330.69 65.0282H1332.21V65.4888H1331.74V68.4125H1331.16V65.4888H1330.69V65.0282Z" fill="white"/>
<path d="M1332.99 65.0282H1332.41V68.4125H1332.99V65.0282Z" fill="white"/>
<path d="M1333.26 65.0282H1334.62V65.4888H1333.83V66.4571H1334.4V66.9177H1333.83V67.9518H1334.62V68.4125H1333.26V65.0282Z" fill="white"/>
<path d="M1334.81 67.6886V67.2374H1335.34V67.698C1335.34 67.886 1335.42 67.9988 1335.62 67.9988C1335.8 67.9988 1335.88 67.8766 1335.88 67.698V67.5664C1335.88 67.369 1335.8 67.2562 1335.63 67.087L1335.29 66.7579C1334.96 66.4383 1334.82 66.2409 1334.82 65.8555V65.7427C1334.82 65.3196 1335.06 65 1335.62 65C1336.17 65 1336.42 65.282 1336.42 65.7709V66.0435H1335.9V65.7521C1335.9 65.5546 1335.81 65.4606 1335.63 65.4606C1335.47 65.4606 1335.36 65.5546 1335.36 65.7427V65.8179C1335.36 66.0059 1335.46 66.1187 1335.63 66.2785L1336 66.6357C1336.31 66.9553 1336.46 67.1434 1336.46 67.5194V67.6792C1336.46 68.1492 1336.21 68.4783 1335.63 68.4783C1335.05 68.4783 1334.82 68.1492 1334.82 67.7074" fill="white"/>
</svg>
