<svg width="1440" height="774" viewBox="0 0 1440 774" fill="none" xmlns="http://www.w3.org/2000/svg">
<g clip-path="url(#clip0_316_15779)">
<path d="M1190.35 47H1150V87H1190.35V47Z" fill="#D19F2A"/>
<path d="M1166.07 81.0506V81.6149C1166.07 81.6149 1166.07 81.6149 1166.07 81.6267C1166.07 81.6267 1166.07 81.6267 1166.07 81.6384C1166.07 81.7795 1166.19 81.8854 1166.33 81.8971H1173.02C1173.16 81.8971 1173.28 81.7795 1173.28 81.6267V80.9918C1177.04 79.769 1179.86 76.7472 1180.49 73.0553C1180.49 73.0553 1180.49 73.0435 1180.49 73.0317C1180.49 73.02 1180.49 73.0082 1180.49 72.9965C1180.49 72.8436 1180.37 72.726 1180.22 72.726H1158.95C1158.79 72.726 1158.68 72.8436 1158.68 72.9965V73.114C1159.35 76.8295 1162.24 79.8748 1166.08 81.0506" fill="white"/>
<path d="M1173.3 63.7078C1173.21 63.8372 1171.15 66.7648 1173.35 69.1399C1174.36 70.2334 1174.27 71.1975 1173.99 71.8442H1175.4C1175.68 70.8801 1175.56 69.6808 1174.42 68.4462C1172.8 66.6943 1174.44 64.331 1174.47 64.2957C1174.66 64.0253 1174.56 63.6843 1174.24 63.5197C1173.93 63.3551 1173.52 63.4491 1173.32 63.7078" fill="white"/>
<path d="M1169.74 71.856H1171.15C1171.43 70.8918 1171.32 69.6925 1170.18 68.458C1168.55 66.7061 1170.2 64.3427 1170.22 64.3075C1170.41 64.037 1170.32 63.6961 1169.99 63.5315C1169.67 63.3668 1169.26 63.4609 1169.06 63.7196C1168.97 63.8372 1166.91 66.7766 1169.11 69.1517C1170.12 70.2452 1170.02 71.1975 1169.74 71.856Z" fill="white"/>
<path d="M1164.83 63.7078C1164.73 63.8372 1162.67 66.7648 1164.87 69.1399C1165.88 70.2334 1165.79 71.1975 1165.51 71.8442H1166.92C1167.2 70.8801 1167.08 69.6808 1165.94 68.4462C1164.32 66.6943 1165.97 64.331 1165.99 64.2957C1166.18 64.0253 1166.08 63.6843 1165.76 63.5197C1165.44 63.3551 1165.03 63.4491 1164.83 63.7078Z" fill="white"/>
<path d="M1157.69 57.2646H1155.43V56.8765C1155.43 56.2416 1155.66 56.0065 1156.01 55.6302L1156.89 54.7131C1157.61 53.9606 1157.76 53.4785 1157.76 52.6673V51.8795C1157.76 50.7155 1157.2 50.1746 1155.96 50.1746C1154.73 50.1746 1154.14 50.8095 1154.14 51.9383V52.9142H1155.4V51.903C1155.4 51.4092 1155.63 51.2681 1155.93 51.2681C1156.18 51.2681 1156.42 51.3739 1156.42 51.8795V52.5497C1156.42 53.2199 1156.36 53.4785 1155.91 53.9489L1155.14 54.7601C1154.4 55.5479 1154.12 56.077 1154.12 56.8765V58.3698H1157.69V57.2646Z" fill="white"/>
<path d="M1162.25 53.2904H1163.12V53.749H1161.65V53.2904L1162.55 50.833H1161.73V50.3627H1163.16V50.833L1162.25 53.2904Z" fill="white"/>
<path d="M1163.45 50.3627H1164.83V50.833H1164.03V51.7972H1164.6V52.2557H1164.03V53.2904H1164.83V53.7607H1163.45V50.3627Z" fill="white"/>
<path d="M1165.71 52.1969V53.749H1165.13V50.3627H1165.97C1166.54 50.3627 1166.75 50.6449 1166.75 51.127V51.562C1166.75 51.9265 1166.63 52.1382 1166.3 52.2205L1166.85 53.7607H1166.25L1165.71 52.2087V52.1969ZM1165.71 50.833V51.8912H1165.9C1166.1 51.8912 1166.18 51.7972 1166.18 51.6091V51.1152C1166.18 50.9271 1166.1 50.8448 1165.9 50.8448H1165.71V50.833Z" fill="white"/>
<path d="M1167.07 52.8789V51.2446C1167.07 50.7155 1167.33 50.3275 1167.94 50.3275C1168.55 50.3275 1168.81 50.7155 1168.81 51.2446V52.8789C1168.81 53.408 1168.55 53.796 1167.94 53.796C1167.33 53.796 1167.07 53.408 1167.07 52.8789ZM1168.24 52.973V51.1505C1168.24 50.9389 1168.14 50.7978 1167.94 50.7978C1167.74 50.7978 1167.65 50.9389 1167.65 51.1505V52.973C1167.65 53.1728 1167.74 53.3257 1167.94 53.3257C1168.14 53.3257 1168.24 53.1846 1168.24 52.973Z" fill="white"/>
<path d="M1162.82 57.0059H1162.26V58.4991H1161.69V55.1129H1162.26V56.5473H1162.82V55.1129H1163.39V58.4991H1162.82V57.0059Z" fill="white"/>
<path d="M1165.39 55.1129V57.6761C1165.39 58.2052 1165.17 58.5461 1164.58 58.5461C1163.99 58.5461 1163.72 58.2052 1163.72 57.6761V55.1129H1164.3V57.7349C1164.3 57.9347 1164.38 58.0641 1164.58 58.0641C1164.78 58.0641 1164.86 57.9347 1164.86 57.7349V55.1129H1165.39Z" fill="white"/>
<path d="M1166.2 56.371V58.4991H1165.72V55.1129H1166.28L1166.9 57.0529V55.1129H1167.38V58.4991H1166.87L1166.2 56.371Z" fill="white"/>
<path d="M1168.58 56.6884H1169.39V58.4991H1168.98V58.1346C1168.91 58.3933 1168.74 58.5461 1168.42 58.5461C1167.93 58.5461 1167.71 58.1581 1167.71 57.629V55.9947C1167.71 55.4656 1167.97 55.0776 1168.57 55.0776C1169.17 55.0776 1169.39 55.4303 1169.39 55.9242V56.2299H1168.86V55.8889C1168.86 55.6772 1168.78 55.5597 1168.57 55.5597C1168.35 55.5597 1168.27 55.7008 1168.27 55.9124V57.7349C1168.27 57.9347 1168.35 58.0876 1168.55 58.0876C1168.74 58.0876 1168.84 57.9818 1168.84 57.7584V57.1587H1168.57V56.7119L1168.58 56.6884Z" fill="white"/>
<path d="M1169.72 55.1129H1171.09V55.5714H1170.29V56.5473H1170.86V57.0059H1170.29V58.0288H1171.09V58.4991H1169.72V55.1129Z" fill="white"/>
<path d="M1171.98 56.9471V58.4991H1171.4V55.1129H1172.23C1172.81 55.1129 1173.02 55.3951 1173.02 55.8771V56.3122C1173.02 56.6767 1172.89 56.8883 1172.56 56.9706L1173.12 58.5109H1172.52L1171.98 56.9588V56.9471ZM1171.98 55.5714V56.6296H1172.16C1172.36 56.6296 1172.45 56.5356 1172.45 56.3474V55.8536C1172.45 55.6655 1172.36 55.5832 1172.16 55.5832H1171.98V55.5714Z" fill="white"/>
<path d="M1240.39 47H1200.35V87H1240.39V47Z" fill="#2D9A47"/>
<path d="M1233.87 72.0206C1233.87 70.8918 1233.15 69.9747 1232.05 69.9747C1231.5 69.9747 1230.84 70.5744 1230.48 70.9506C1230.11 70.5861 1229.5 69.9747 1228.95 69.9747C1227.85 69.9747 1227.08 70.8918 1227.08 72.0206C1227.08 72.585 1227.3 73.1023 1227.67 73.4668L1230.49 76.2887L1233.3 73.4668C1233.66 73.0905 1233.89 72.585 1233.89 72.0206" fill="white"/>
<path d="M1221.87 80.8977H1221.85C1221.63 80.886 1221.46 80.7213 1221.42 80.5097L1219.99 72.1734L1217.81 76.1946C1217.72 76.371 1217.52 76.465 1217.32 76.4297C1217.12 76.3945 1216.97 76.2416 1216.94 76.0417L1216.03 69.6102L1214.34 73.3962C1214.27 73.5608 1214.11 73.6667 1213.92 73.6667H1207.37C1207.11 73.6667 1206.91 73.455 1206.91 73.2081C1206.91 72.9612 1207.13 72.7496 1207.37 72.7496H1213.62L1215.84 67.776C1215.92 67.5879 1216.12 67.4821 1216.32 67.5056C1216.52 67.5291 1216.68 67.6937 1216.72 67.8936L1217.67 74.525L1219.81 70.5626C1219.91 70.3862 1220.09 70.2922 1220.29 70.3275C1220.49 70.3627 1220.65 70.5156 1220.67 70.7037L1222 78.4168L1226.83 62.3792C1226.89 62.2028 1227.05 62.0735 1227.24 62.05C1227.43 62.0382 1227.61 62.1323 1227.7 62.3086L1230.24 67.5761C1230.35 67.8113 1230.25 68.0817 1230.03 68.1875C1229.79 68.2934 1229.52 68.1993 1229.41 67.9759L1227.38 63.7784L1222.33 80.5567C1222.27 80.7566 1222.09 80.8859 1221.88 80.8859" fill="white"/>
<path d="M1206.36 58.4874C1207.74 58.4874 1208.34 57.7584 1208.34 56.6296V55.4303C1208.34 54.6896 1208.01 54.2075 1207.34 54.0547C1207.9 53.8783 1208.27 53.4198 1208.27 52.7378V52.0323C1208.27 50.8801 1207.71 50.1864 1206.45 50.1864C1205.04 50.1864 1204.55 51.0212 1204.55 52.2205V52.9377H1205.8V52.1146C1205.8 51.6091 1205.95 51.3269 1206.38 51.3269C1206.82 51.3269 1206.97 51.6091 1206.97 52.0559V52.9259C1206.97 53.361 1206.69 53.5844 1206.24 53.5844H1205.73V54.6308H1206.3C1206.78 54.6308 1206.97 54.8542 1206.97 55.2892V56.6296C1206.97 57.0529 1206.78 57.3586 1206.36 57.3586C1205.89 57.3586 1205.73 57.0529 1205.73 56.5708V55.4068H1204.48V56.465C1204.48 57.6996 1204.97 58.4874 1206.36 58.4874Z" fill="white"/>
<path d="M1213.05 51.95H1213.86V53.7607H1213.45V53.3962C1213.38 53.6549 1213.22 53.8078 1212.91 53.8078C1212.42 53.8078 1212.19 53.4198 1212.19 52.8907V51.2563C1212.19 50.7272 1212.45 50.3392 1213.05 50.3392C1213.69 50.3392 1213.86 50.6919 1213.86 51.1858V51.4915H1213.34V51.1505C1213.34 50.9389 1213.26 50.8213 1213.06 50.8213C1212.86 50.8213 1212.77 50.9624 1212.77 51.174V52.9965C1212.77 53.1964 1212.85 53.3492 1213.05 53.3492C1213.24 53.3492 1213.33 53.2434 1213.33 53.02V52.4203H1213.06V51.9735L1213.05 51.95Z" fill="white"/>
<path d="M1214.18 52.8789V51.2446C1214.18 50.7155 1214.44 50.3275 1215.04 50.3275C1215.64 50.3275 1215.91 50.7155 1215.91 51.2446V52.8789C1215.91 53.408 1215.65 53.796 1215.04 53.796C1214.43 53.796 1214.18 53.408 1214.18 52.8789ZM1215.34 52.973V51.1505C1215.34 50.9389 1215.25 50.7978 1215.05 50.7978C1214.85 50.7978 1214.76 50.9389 1214.76 51.1505V52.973C1214.76 53.1728 1214.85 53.3257 1215.05 53.3257C1215.25 53.3257 1215.34 53.1846 1215.34 52.973Z" fill="white"/>
<path d="M1216.24 52.8789V51.2446C1216.24 50.7155 1216.5 50.3275 1217.1 50.3275C1217.7 50.3275 1217.97 50.7155 1217.97 51.2446V52.8789C1217.97 53.408 1217.71 53.796 1217.1 53.796C1216.48 53.796 1216.24 53.408 1216.24 52.8789ZM1217.39 52.973V51.1505C1217.39 50.9389 1217.3 50.7978 1217.1 50.7978C1216.9 50.7978 1216.8 50.9389 1216.8 51.1505V52.973C1216.8 53.1728 1216.9 53.3257 1217.1 53.3257C1217.3 53.3257 1217.39 53.1846 1217.39 52.973Z" fill="white"/>
<path d="M1219.99 51.2798V52.8436C1219.99 53.361 1219.78 53.749 1219.17 53.749H1218.28V50.3627H1219.17C1219.78 50.3627 1219.99 50.7507 1219.99 51.2681M1219.09 53.2904C1219.33 53.2904 1219.42 53.1493 1219.42 52.9494V51.174C1219.42 50.9741 1219.33 50.833 1219.09 50.833H1218.86V53.2904H1219.09Z" fill="white"/>
<path d="M1222.29 52.2675H1221.74V53.7607H1221.16V50.3745H1221.74V51.7972H1222.29V50.3745H1222.87V53.7607H1222.29V52.2675Z" fill="white"/>
<path d="M1223.19 50.3745H1224.55V50.833H1223.76V51.7972H1224.33V52.2675H1223.76V53.2904H1224.55V53.7607H1223.19V50.3745Z" fill="white"/>
<path d="M1224.76 53.7607L1225.4 50.3745H1226.04L1226.69 53.7607H1226.1L1226 53.1376H1225.4L1225.3 53.7607H1224.76ZM1225.48 52.679H1225.94L1225.71 51.3151L1225.49 52.679H1225.48Z" fill="white"/>
<path d="M1226.94 50.3745H1227.5V53.2904H1228.18V53.7607H1226.94V50.3745Z" fill="white"/>
<path d="M1228.05 50.3745H1229.57V50.833H1229.1V53.7607H1228.52V50.833H1228.05V50.3745Z" fill="white"/>
<path d="M1230.95 52.2675H1230.41V53.7607H1229.83V50.3745H1230.41V51.7972H1230.95V50.3745H1231.52V53.7607H1230.95V52.2675Z" fill="white"/>
<path d="M1212.1 58.4991L1212.73 55.1129H1213.38L1214.03 58.4991H1213.44L1213.33 57.876H1212.73L1212.64 58.4991H1212.1ZM1212.82 57.4292H1213.27L1213.05 56.0653L1212.83 57.4292H1212.82Z" fill="white"/>
<path d="M1214.74 56.371V58.4991H1214.27V55.1129H1214.83L1215.44 57.0529V55.1129H1215.92V58.4991H1215.41L1214.74 56.371Z" fill="white"/>
<path d="M1217.95 56.0182V57.582C1217.95 58.0994 1217.74 58.4874 1217.13 58.4874H1216.25V55.1011H1217.13C1217.74 55.1011 1217.95 55.4891 1217.95 56.0065M1217.05 58.0406C1217.28 58.0406 1217.38 57.8995 1217.38 57.6996V55.9242C1217.38 55.7243 1217.28 55.5832 1217.05 55.5832H1216.81V58.0406H1217.05Z" fill="white"/>
<path d="M1220.36 56.4062L1220.04 58.4991H1219.51L1219.05 55.1129H1219.6L1219.87 57.2646L1220.15 55.1129H1220.62L1220.94 57.2646L1221.2 55.1129H1221.68L1221.23 58.4991H1220.71L1220.36 56.4062Z" fill="white"/>
<path d="M1221.93 55.1129H1223.28V55.5832H1222.49V56.5473H1223.06V57.0059H1222.49V58.0406H1223.28V58.4991H1221.93V55.1129Z" fill="white"/>
<path d="M1223.59 55.1129H1224.16V58.0406H1224.84V58.4991H1223.59V55.1129Z" fill="white"/>
<path d="M1225.1 55.1129H1225.67V58.0406H1226.35V58.4991H1225.1V55.1129Z" fill="white"/>
<path d="M1227.07 56.7002H1226.27V57.1587H1227.07V56.7002Z" fill="white"/>
<path d="M1227.36 55.1129H1228.18C1228.75 55.1129 1228.95 55.3833 1228.95 55.8536V56.1946C1228.95 56.4768 1228.84 56.6531 1228.61 56.7354C1228.89 56.7942 1229.03 56.9941 1229.03 57.2998V57.7466C1229.03 58.2287 1228.82 58.4874 1228.24 58.4874H1227.36V55.1011V55.1129ZM1227.94 56.5473H1228.14C1228.32 56.5473 1228.41 56.4533 1228.41 56.2651V55.8536C1228.41 55.6655 1228.32 55.5832 1228.14 55.5832H1227.94V56.5473ZM1227.94 56.9706V58.0288H1228.18C1228.37 58.0288 1228.47 57.9347 1228.47 57.7584V57.2528C1228.47 57.0764 1228.38 56.9824 1228.18 56.9824H1227.94V56.9706Z" fill="white"/>
<path d="M1229.31 55.1129H1230.68V55.5832H1229.89V56.5473H1230.45V57.0059H1229.89V58.0406H1230.68V58.4991H1229.31V55.1129Z" fill="white"/>
<path d="M1231.56 55.1129H1230.98V58.4991H1231.56V55.1129Z" fill="white"/>
<path d="M1232.36 56.371V58.4991H1231.89V55.1129H1232.44L1233.05 57.0529V55.1129H1233.53V58.4991H1233.03L1232.36 56.371Z" fill="white"/>
<path d="M1234.72 56.6884H1235.53V58.4991H1235.12V58.1346C1235.05 58.3933 1234.89 58.5461 1234.58 58.5461C1234.09 58.5461 1233.86 58.1581 1233.86 57.629V55.9947C1233.86 55.4656 1234.12 55.0776 1234.72 55.0776C1235.36 55.0776 1235.53 55.4303 1235.53 55.9242V56.2299H1235.01V55.8889C1235.01 55.6772 1234.93 55.5597 1234.73 55.5597C1234.53 55.5597 1234.44 55.7008 1234.44 55.9124V57.7349C1234.44 57.9347 1234.52 58.0876 1234.72 58.0876C1234.91 58.0876 1235 57.9818 1235 57.7584V57.1587H1234.73V56.7119L1234.72 56.6884Z" fill="white"/>
<path d="M1290.05 47H1250.39V87H1290.05V47Z" fill="#CD8B2A"/>
<path d="M1280.32 67.7525C1278.56 66.3533 1276.23 66.3181 1275.37 66.5297L1275.28 66.5532C1274.29 66.7884 1272.73 67.1764 1270.89 69.4691C1270.89 69.4809 1270.87 69.4927 1270.86 69.5044L1270.83 69.5279C1270.83 69.5279 1270.8 69.5867 1270.8 69.622C1270.8 69.6455 1270.8 69.6808 1270.82 69.6925L1270.86 69.7631C1271.09 70.1511 1271.38 70.6449 1271.62 71.1152C1271.62 71.1152 1271.62 71.1152 1271.62 71.127C1271.65 71.174 1271.7 71.2093 1271.76 71.2093C1271.81 71.2093 1271.85 71.1858 1271.87 71.1623C1271.87 71.1505 1271.89 71.127 1271.9 71.1152C1273.53 68.846 1274.81 68.5285 1275.68 68.3286L1275.78 68.3051C1276.23 68.1993 1277.94 68.1993 1279.17 69.187C1280.13 69.9512 1280.62 71.174 1280.62 72.8083C1280.62 75.5597 1279.29 76.6296 1278.18 77.0529C1276.47 77.6996 1274.81 76.8295 1274.8 76.8295L1274.73 76.7942C1273.79 76.3827 1272.37 75.5126 1271.03 72.8201C1268.35 67.388 1266.11 66.8707 1264.63 66.5414L1264.54 66.5179C1263.87 66.3651 1261.52 66.2593 1259.68 67.7407C1258.71 68.5168 1257.56 70.0218 1257.56 72.7966C1257.56 74.4897 1257.9 75.6067 1258.79 76.7825C1258.99 77.0529 1260.97 79.6279 1264.81 78.8754C1265.43 78.7578 1266.26 78.4638 1267.18 77.7701L1268.02 78.5344C1268.02 78.5344 1268.17 78.5814 1268.21 78.5344C1268.24 78.5109 1268.25 78.4756 1268.25 78.4403L1268.86 74.6426V74.5955C1268.86 74.5955 1268.85 74.525 1268.81 74.4897C1268.79 74.4662 1268.75 74.4544 1268.72 74.4544H1268.66L1265.06 75.4656H1264.99C1264.99 75.4656 1264.94 75.4891 1264.92 75.5126C1264.87 75.5714 1264.87 75.6537 1264.92 75.7125L1264.97 75.7478L1265.77 76.4768C1265.25 76.8178 1264.79 76.9706 1264.45 77.0412C1261.68 77.5703 1260.3 75.736 1260.24 75.6655L1260.22 75.642C1259.57 74.7837 1259.35 74.0547 1259.35 72.7613C1259.35 71.1152 1259.83 69.8924 1260.77 69.1399C1261.97 68.1758 1263.63 68.164 1264.1 68.2698H1264.18C1265.4 68.5638 1267.06 68.94 1269.35 73.5961C1270.54 76.0065 1272.05 77.5938 1273.92 78.4168C1274.15 78.5461 1275.3 79.087 1276.77 79.087C1277.4 79.087 1278.07 78.9929 1278.76 78.7343C1279.85 78.3228 1282.38 76.9236 1282.38 72.7731C1282.38 69.9982 1281.22 68.4815 1280.24 67.7055" fill="white"/>
<path d="M1254.27 52.1852H1254.28V58.3933H1255.63V50.2922H1254.55L1253.32 51.7619V53.1846L1254.27 52.1852Z" fill="white"/>
<path d="M1256.44 51.9618V52.9377H1257.68V51.9265C1257.68 51.4327 1257.91 51.2916 1258.19 51.2916C1258.45 51.2916 1258.68 51.3974 1258.68 51.903V52.5732C1258.68 53.2434 1258.62 53.5021 1258.18 53.9724L1257.43 54.7837C1256.7 55.5714 1256.42 56.1005 1256.42 56.9001V58.3933H1259.92V57.2763H1257.71V56.9001C1257.71 56.2651 1257.94 56.03 1258.28 55.6537L1259.15 54.7366C1259.84 53.9841 1260.01 53.5021 1260.01 52.6908V51.903C1260.01 50.739 1259.45 50.1981 1258.24 50.1981C1257.03 50.1981 1256.45 50.833 1256.45 51.9618" fill="white"/>
<path d="M1263.65 52.1146V53.6667H1263.09V50.2804H1263.91C1264.47 50.2804 1264.69 50.5626 1264.69 51.0447V51.4797C1264.69 51.8442 1264.56 52.0558 1264.24 52.1382L1264.78 53.6784H1264.18L1263.65 52.1264V52.1146ZM1263.65 50.7507V51.8089H1263.84C1264.03 51.8089 1264.12 51.7149 1264.12 51.5267V51.0329C1264.12 50.8448 1264.04 50.7625 1263.84 50.7625H1263.65V50.7507Z" fill="white"/>
<path d="M1264.93 50.2804H1266.27V50.7507H1265.5V51.7149H1266.05V52.1734H1265.5V53.2081H1266.27V53.6667H1264.93V50.2804Z" fill="white"/>
<path d="M1266.45 52.9377V52.4791H1266.98V52.9377C1266.98 53.1258 1267.06 53.2434 1267.26 53.2434C1267.44 53.2434 1267.52 53.1258 1267.52 52.9377V52.8083C1267.52 52.6085 1267.44 52.4909 1267.26 52.3263L1266.93 51.9971C1266.61 51.6796 1266.46 51.4797 1266.46 51.0917V50.9741C1266.46 50.5509 1266.71 50.2334 1267.25 50.2334C1267.79 50.2334 1268.04 50.5156 1268.04 51.0094V51.2798H1267.52V50.9859C1267.52 50.786 1267.42 50.6919 1267.25 50.6919C1267.08 50.6919 1266.98 50.786 1266.98 50.9741V51.0447C1266.98 51.2328 1267.08 51.3386 1267.25 51.5032L1267.61 51.8677C1267.92 52.1852 1268.07 52.3733 1268.07 52.7496V52.9142C1268.07 53.3845 1267.82 53.7019 1267.25 53.7019C1266.67 53.7019 1266.45 53.3727 1266.45 52.9377Z" fill="white"/>
<path d="M1268.29 50.2804H1269.13C1269.71 50.2804 1269.91 50.5626 1269.91 51.0447V51.7619C1269.91 52.2322 1269.69 52.5262 1269.13 52.5262H1268.86V53.6784H1268.29V50.2804ZM1268.86 50.7507V52.0794H1269.07C1269.26 52.0794 1269.35 51.9853 1269.35 51.7972V51.0212C1269.35 50.833 1269.27 50.7507 1269.07 50.7507H1268.86Z" fill="white"/>
<path d="M1270.14 52.7966V51.1623C1270.14 50.6332 1270.4 50.2452 1270.99 50.2452C1271.58 50.2452 1271.85 50.6332 1271.85 51.1623V52.7966C1271.85 53.3257 1271.59 53.7137 1270.99 53.7137C1270.39 53.7137 1270.14 53.3257 1270.14 52.7966ZM1271.28 52.8907V51.0682C1271.28 50.8566 1271.2 50.7155 1270.99 50.7155C1270.78 50.7155 1270.71 50.8566 1270.71 51.0682V52.8907C1270.71 53.0905 1270.8 53.2434 1270.99 53.2434C1271.18 53.2434 1271.28 53.1023 1271.28 52.8907Z" fill="white"/>
<path d="M1272.57 51.5385V53.6667H1272.1V50.2804H1272.66L1273.26 52.2205V50.2804H1273.73V53.6667H1273.23L1272.57 51.5385Z" fill="white"/>
<path d="M1273.95 52.9377V52.4791H1274.48V52.9377C1274.48 53.1258 1274.56 53.2434 1274.76 53.2434C1274.94 53.2434 1275.02 53.1258 1275.02 52.9377V52.8083C1275.02 52.6085 1274.94 52.4909 1274.76 52.3263L1274.43 51.9971C1274.11 51.6796 1273.96 51.4797 1273.96 51.0917V50.9741C1273.96 50.5509 1274.21 50.2334 1274.75 50.2334C1275.29 50.2334 1275.54 50.5156 1275.54 51.0094V51.2798H1275.02V50.9859C1275.02 50.786 1274.93 50.6919 1274.75 50.6919C1274.59 50.6919 1274.48 50.786 1274.48 50.9741V51.0447C1274.48 51.2328 1274.59 51.3386 1274.75 51.5032L1275.11 51.8677C1275.42 52.1852 1275.57 52.3733 1275.57 52.7496V52.9142C1275.57 53.3845 1275.33 53.7019 1274.75 53.7019C1274.17 53.7019 1273.95 53.3727 1273.95 52.9377Z" fill="white"/>
<path d="M1276.37 50.2804H1275.81V53.6667H1276.37V50.2804Z" fill="white"/>
<path d="M1276.62 50.2804H1277.43C1277.99 50.2804 1278.18 50.5509 1278.18 51.0212V51.3621C1278.18 51.6443 1278.08 51.8207 1277.84 51.903C1278.12 51.9618 1278.27 52.1617 1278.27 52.4674V52.9142C1278.27 53.3962 1278.05 53.6549 1277.49 53.6549H1276.61V50.2687L1276.62 50.2804ZM1277.18 51.7149H1277.38C1277.57 51.7149 1277.65 51.6208 1277.65 51.4327V51.0212C1277.65 50.833 1277.57 50.7507 1277.38 50.7507H1277.18V51.7149ZM1277.18 52.1499V53.2081H1277.43C1277.62 53.2081 1277.71 53.1141 1277.71 52.9377V52.4321C1277.71 52.2557 1277.63 52.1617 1277.43 52.1617H1277.18V52.1499Z" fill="white"/>
<path d="M1278.49 50.2804H1279.05V53.2081H1279.72V53.6667H1278.49V50.2804Z" fill="white"/>
<path d="M1279.91 50.2804H1281.26V50.7507H1280.48V51.7149H1281.04V52.1734H1280.48V53.2081H1281.26V53.6667H1279.91V50.2804Z" fill="white"/>
<path d="M1263.09 57.535V55.9006C1263.09 55.3715 1263.33 54.9835 1263.93 54.9835C1264.56 54.9835 1264.73 55.3363 1264.73 55.8301V56.2299H1264.21V55.7831C1264.21 55.5714 1264.14 55.4539 1263.94 55.4539C1263.74 55.4539 1263.66 55.5949 1263.66 55.8066V57.629C1263.66 57.8289 1263.74 57.9818 1263.94 57.9818C1264.14 57.9818 1264.21 57.8524 1264.21 57.6526V57.0294H1264.73V57.6173C1264.73 58.0994 1264.53 58.4638 1263.93 58.4638C1263.33 58.4638 1263.09 58.0758 1263.09 57.5467" fill="white"/>
<path d="M1264.97 57.535V55.9006C1264.97 55.3715 1265.23 54.9835 1265.81 54.9835C1266.4 54.9835 1266.67 55.3715 1266.67 55.9006V57.535C1266.67 58.0641 1266.41 58.4521 1265.81 58.4521C1265.21 58.4521 1264.97 58.0641 1264.97 57.535ZM1266.11 57.629V55.8066C1266.11 55.5949 1266.03 55.4539 1265.81 55.4539C1265.6 55.4539 1265.53 55.5949 1265.53 55.8066V57.629C1265.53 57.8289 1265.63 57.9818 1265.81 57.9818C1266 57.9818 1266.11 57.8407 1266.11 57.629Z" fill="white"/>
<path d="M1267.4 56.2887V58.4168H1266.93V55.0306H1267.48L1268.09 56.9706V55.0306H1268.57V58.4168H1268.07L1267.4 56.2887Z" fill="white"/>
<path d="M1268.79 57.6878V57.2293H1269.32V57.6878C1269.32 57.876 1269.4 57.9935 1269.6 57.9935C1269.78 57.9935 1269.86 57.876 1269.86 57.6878V57.5585C1269.86 57.3586 1269.78 57.241 1269.6 57.0764L1269.27 56.7472C1268.95 56.4297 1268.8 56.2299 1268.8 55.8419V55.7243C1268.8 55.301 1269.05 54.9835 1269.59 54.9835C1270.13 54.9835 1270.38 55.2657 1270.38 55.7596V56.03H1269.86V55.736C1269.86 55.5362 1269.76 55.4421 1269.59 55.4421C1269.42 55.4421 1269.32 55.5362 1269.32 55.7243V55.7948C1269.32 55.983 1269.42 56.0888 1269.59 56.2534L1269.95 56.6179C1270.26 56.9353 1270.41 57.1235 1270.41 57.4997V57.6643C1270.41 58.1346 1270.16 58.4521 1269.59 58.4521C1269.01 58.4521 1268.79 58.1229 1268.79 57.6878Z" fill="white"/>
<path d="M1272.27 55.0306V57.5938C1272.27 58.1229 1272.05 58.4638 1271.47 58.4638C1270.89 58.4638 1270.62 58.1229 1270.62 57.5938V55.0306H1271.19V57.6526C1271.19 57.8524 1271.27 57.9818 1271.47 57.9818C1271.67 57.9818 1271.75 57.8524 1271.75 57.6526V55.0306H1272.27Z" fill="white"/>
<path d="M1274.08 56.2181H1274.07L1273.68 58.4168H1273.42L1273 56.2181H1272.99V58.4168H1272.53V55.0306H1273.19L1273.55 56.9353L1273.88 55.0306H1274.6V58.4168H1274.08V56.2181Z" fill="white"/>
<path d="M1274.84 55.0306H1275.68C1276.25 55.0306 1276.45 55.3128 1276.45 55.7948V56.5121C1276.45 56.9824 1276.24 57.2763 1275.68 57.2763H1275.41V58.4286H1274.84V55.0306ZM1275.41 55.4891V56.8178H1275.62C1275.81 56.8178 1275.9 56.7237 1275.9 56.5356V55.7596C1275.9 55.5714 1275.82 55.4891 1275.62 55.4891H1275.41Z" fill="white"/>
<path d="M1276.6 55.0306H1278.09V55.4891H1277.63V58.4168H1277.05V55.4891H1276.6V55.0306Z" fill="white"/>
<path d="M1278.85 55.0306H1278.29V58.4168H1278.85V55.0306Z" fill="white"/>
<path d="M1279.11 57.535V55.9006C1279.11 55.3715 1279.37 54.9835 1279.96 54.9835C1280.55 54.9835 1280.82 55.3715 1280.82 55.9006V57.535C1280.82 58.0641 1280.56 58.4521 1279.96 58.4521C1279.36 58.4521 1279.11 58.0641 1279.11 57.535ZM1280.25 57.629V55.8066C1280.25 55.5949 1280.17 55.4539 1279.96 55.4539C1279.75 55.4539 1279.68 55.5949 1279.68 55.8066V57.629C1279.68 57.8289 1279.77 57.9818 1279.96 57.9818C1280.15 57.9818 1280.25 57.8407 1280.25 57.629Z" fill="white"/>
<path d="M1281.55 56.2887V58.4168H1281.08V55.0306H1281.63L1282.24 56.9706V55.0306H1282.71V58.4168H1282.22L1281.55 56.2887Z" fill="white"/>
<path d="M1263 63.1552L1263.64 59.769H1264.29L1264.92 63.1552H1264.34L1264.24 62.532H1263.64L1263.54 63.1552H1263ZM1263.71 62.0852H1264.16L1263.93 60.7213L1263.71 62.0852Z" fill="white"/>
<path d="M1265.56 61.027V63.1552H1265.08V59.769H1265.64L1266.25 61.709V59.769H1266.72V63.1552H1266.23L1265.56 61.027Z" fill="white"/>
<path d="M1268.66 60.6743V62.2381C1268.66 62.7554 1268.45 63.1434 1267.85 63.1434H1266.98V59.7572H1267.85C1268.45 59.7572 1268.66 60.1452 1268.66 60.6626M1267.77 62.6966C1268 62.6966 1268.08 62.5556 1268.08 62.3557V60.5802C1268.08 60.3804 1267.99 60.2393 1267.77 60.2393H1267.53V62.6966H1267.77Z" fill="white"/>
<path d="M1269.69 59.769H1270.53C1271.1 59.769 1271.3 60.0511 1271.3 60.5332V61.2504C1271.3 61.7208 1271.09 62.0147 1270.53 62.0147H1270.26V63.167H1269.69V59.769ZM1270.26 60.2393V61.5679H1270.47C1270.67 61.5679 1270.75 61.4738 1270.75 61.2857V60.5097C1270.75 60.3216 1270.67 60.2393 1270.47 60.2393H1270.26Z" fill="white"/>
<path d="M1272.09 61.6032V63.1552H1271.53V59.769H1272.35C1272.92 59.769 1273.13 60.0511 1273.13 60.5332V60.9683C1273.13 61.3327 1273 61.5444 1272.68 61.6267L1273.22 63.167H1272.62L1272.09 61.6149V61.6032ZM1272.09 60.2393V61.2975H1272.28C1272.47 61.2975 1272.56 61.2034 1272.56 61.0153V60.5097C1272.56 60.3216 1272.48 60.2393 1272.28 60.2393H1272.09Z" fill="white"/>
<path d="M1273.36 62.2851V60.6508C1273.36 60.1217 1273.62 59.7337 1274.21 59.7337C1274.8 59.7337 1275.07 60.1217 1275.07 60.6508V62.2851C1275.07 62.8142 1274.81 63.2022 1274.21 63.2022C1273.61 63.2022 1273.36 62.8142 1273.36 62.2851ZM1274.5 62.3674V60.545C1274.5 60.3451 1274.42 60.1922 1274.21 60.1922C1274 60.1922 1273.93 60.3333 1273.93 60.545V62.3674C1273.93 62.5673 1274.02 62.7202 1274.21 62.7202C1274.4 62.7202 1274.5 62.5791 1274.5 62.3674Z" fill="white"/>
<path d="M1277.02 60.6743V62.2381C1277.02 62.7554 1276.81 63.1434 1276.2 63.1434H1275.33V59.7572H1276.2C1276.8 59.7572 1277.02 60.1452 1277.02 60.6626M1276.13 62.6966C1276.36 62.6966 1276.44 62.5556 1276.44 62.3557V60.5802C1276.44 60.3804 1276.35 60.2393 1276.13 60.2393H1275.89V62.6966H1276.13Z" fill="white"/>
<path d="M1278.9 59.769V62.3322C1278.9 62.8613 1278.68 63.2022 1278.1 63.2022C1277.52 63.2022 1277.25 62.8613 1277.25 62.3322V59.769H1277.82V62.3909C1277.82 62.5908 1277.9 62.7202 1278.1 62.7202C1278.3 62.7202 1278.38 62.5908 1278.38 62.3909V59.769H1278.9Z" fill="white"/>
<path d="M1279.16 62.2851V60.6508C1279.16 60.1217 1279.41 59.7337 1280.01 59.7337C1280.63 59.7337 1280.81 60.0864 1280.81 60.5802V60.98H1280.29V60.5332C1280.29 60.3216 1280.22 60.204 1280.02 60.204C1279.82 60.204 1279.74 60.3451 1279.74 60.5567V62.3792C1279.74 62.5791 1279.82 62.7319 1280.02 62.7319C1280.22 62.7319 1280.29 62.6026 1280.29 62.4027V61.7795H1280.81V62.3674C1280.81 62.8495 1280.61 63.214 1280.01 63.214C1279.41 63.214 1279.16 62.826 1279.16 62.2969" fill="white"/>
<path d="M1280.92 59.769H1282.42V60.2393H1281.96V63.1552H1281.38V60.2393H1280.92V59.769Z" fill="white"/>
<path d="M1283.18 59.769H1282.62V63.1552H1283.18V59.769Z" fill="white"/>
<path d="M1283.44 62.2851V60.6508C1283.44 60.1217 1283.7 59.7337 1284.29 59.7337C1284.87 59.7337 1285.14 60.1217 1285.14 60.6508V62.2851C1285.14 62.8142 1284.89 63.2022 1284.29 63.2022C1283.69 63.2022 1283.44 62.8142 1283.44 62.2851ZM1284.58 62.3674V60.545C1284.58 60.3451 1284.5 60.1922 1284.29 60.1922C1284.07 60.1922 1284 60.3333 1284 60.545V62.3674C1284 62.5673 1284.1 62.7202 1284.29 62.7202C1284.47 62.7202 1284.58 62.5791 1284.58 62.3674Z" fill="white"/>
<path d="M1285.87 61.027V63.1552H1285.4V59.769H1285.96L1286.55 61.709V59.769H1287.02V63.1552H1286.53L1285.87 61.027Z" fill="white"/>
<path d="M1300.1 47L1300.05 86.9442L1339.99 87L1340.05 47.0558L1300.1 47Z" fill="#48773C"/>
<path d="M1335.08 72.0811C1334.02 70.5995 1329.25 64.6613 1320.35 64.6496C1311.45 64.6378 1306.65 70.5642 1305.59 72.0458C1305.54 72.1046 1305.51 72.1634 1305.47 72.2104C1305.51 72.2575 1305.54 72.3162 1305.59 72.375C1306.65 73.8566 1311.42 79.7948 1320.34 79.8065C1329.24 79.8183 1334.03 73.8919 1335.09 72.4103C1335.14 72.3515 1335.17 72.2927 1335.21 72.2457C1335.17 72.1987 1335.14 72.1399 1335.09 72.0811M1315.37 68.3888C1315.46 68.2713 1315.71 67.9303 1315.75 67.895C1315.82 67.8009 1315.95 67.7892 1316.04 67.7774C1316.14 67.7539 1316.27 67.8127 1316.28 67.8832C1316.29 67.9538 1316.24 68.236 1316.2 68.283C1316.07 68.4124 1315.73 68.6123 1315.54 68.577C1315.4 68.5535 1315.34 68.4476 1315.36 68.4006M1315.06 69.0238C1315.06 69.0238 1315.08 68.9885 1315.09 68.9885C1315.21 68.8592 1315.42 68.8357 1315.58 68.8122C1315.74 68.7886 1315.95 68.8592 1315.97 68.965C1316 69.0709 1315.58 69.259 1315.51 69.3295C1315.3 69.5294 1314.96 69.9292 1314.77 69.9763C1314.7 69.988 1314.66 69.9763 1314.61 69.9645C1314.74 69.647 1314.89 69.3295 1315.07 69.0473M1318.38 75.8674C1318.27 76.3377 1318.12 76.5141 1318.01 76.6552C1317.89 76.8081 1317.44 76.9962 1317.16 76.9727C1316.88 76.9492 1316.84 76.1966 1316.84 75.8086C1316.84 75.6792 1316.65 76.0673 1316.56 75.2677C1316.5 74.7503 1316.16 75.3265 1316.14 74.9737C1316.11 74.6327 1315.95 74.7033 1315.77 74.4799C1315.6 74.2682 1315.38 74.5034 1315.14 74.6092C1314.89 74.715 1315 74.7738 1314.66 74.668C1314.66 74.668 1314.64 74.668 1314.63 74.668C1314.31 73.9272 1314.15 73.1041 1314.15 72.2575C1314.15 72.0458 1314.15 71.8459 1314.19 71.6342C1314.2 71.6107 1314.21 71.599 1314.22 71.5755C1314.55 71.1874 1314.54 71.0933 1314.54 71.0933L1314.9 70.964C1314.9 70.964 1315.48 71.0581 1315.91 71.2227C1316.27 71.352 1316.84 71.6695 1317.17 71.5284C1317.41 71.4343 1317.6 71.305 1317.57 71.1051C1317.55 70.8582 1317.35 70.7994 1317.11 70.964C1317.02 71.0228 1316.84 70.5877 1316.69 70.6112C1316.55 70.6348 1316.87 71.1286 1316.75 71.1404C1316.62 71.1639 1316.37 70.623 1316.34 70.5407C1316.29 70.4584 1316.1 70.235 1315.93 70.3996C1315.56 70.7523 1314.96 70.7288 1314.84 70.8111C1314.48 71.0816 1314.39 70.7171 1314.4 70.5054C1314.41 70.4584 1314.43 70.4113 1314.44 70.3526C1314.56 70.2232 1314.99 70.1762 1315.14 70.282C1315.3 70.3878 1315.41 70.2585 1315.48 70.1879C1315.54 70.1291 1315.53 70.0233 1315.48 69.941C1315.44 69.8587 1315.56 69.7881 1315.64 69.7646C1315.73 69.7411 1316.01 69.553 1316.11 69.4824C1316.23 69.4236 1316.8 69.3531 1317.05 69.4824C1317.31 69.6118 1317.55 69.5059 1317.68 69.3531C1317.84 69.1649 1318.04 69.0238 1318.12 68.9768C1318.22 68.9297 1317.9 68.6475 1317.64 68.965C1317.38 69.2825 1317.25 69.306 1317.14 69.306C1317.02 69.306 1316.3 69.1296 1316.21 68.9062C1316.13 68.6828 1316.43 68.5064 1316.7 68.3888C1316.96 68.2595 1317.69 68.2713 1317.88 68.2242C1318.25 68.1419 1318.74 67.9538 1318.97 68.1184C1319.22 68.283 1317.96 68.5652 1318.37 68.7886C1318.51 68.871 1319.18 68.4124 1319.41 68.2948C1319.94 68.0243 1318.89 67.9303 1319.03 67.3658C1319.18 66.7309 1317.74 66.9778 1317.02 67.0248C1317.98 66.4134 1319.12 66.0489 1320.36 66.0489C1323.29 66.0489 1325.73 68.0831 1326.38 70.8111C1326.38 70.9405 1326.37 71.0463 1326.34 71.0933C1326.29 71.3168 1325.86 71.5049 1325.62 71.1521C1325.56 71.0581 1325.29 70.8111 1325.3 71.2345C1325.3 71.6695 1325.72 71.7048 1325.32 71.9635C1324.92 72.2222 1324.85 72.1634 1324.67 72.2222C1324.49 72.2927 1324.31 72.7278 1324.36 72.963C1324.4 73.1982 1324.97 73.8449 1324.54 73.8214C1324.45 73.8214 1323.71 73.304 1323.58 72.9747C1323.45 72.6337 1323.31 72.2927 1323.22 72.034C1323.11 71.7754 1322.85 71.7166 1322.63 71.8577C1322.4 72.0105 1322.69 72.1634 1322.53 72.4809C1322.37 72.7984 1322.26 73.0923 1322.03 72.8219C1321.43 72.1281 1320.55 72.4691 1320.41 71.693C1320.34 71.2697 1319.97 71.3168 1319.68 71.0816C1319.37 70.8464 1319.21 70.7171 1319.16 70.8934C1319.11 71.0463 1320.1 71.8341 1320.17 72.034C1320.28 72.3398 1319.88 72.5985 1319.58 72.669C1319.29 72.7396 1319.16 72.5044 1318.88 72.1987C1318.6 71.8929 1318.47 71.6813 1318.44 71.9165C1318.42 72.2575 1318.71 72.7631 1319.01 72.9512C1319.25 73.1158 1319.54 73.1864 1319.45 73.4451C1319.37 73.7038 1319.45 73.5627 1319.17 73.8331C1318.89 74.1153 1318.83 74.1976 1318.85 74.5857C1318.88 74.9737 1318.77 74.9972 1318.71 75.3147C1318.65 75.6322 1318.51 75.3618 1318.4 75.8321M1325.04 73.3981C1325.25 73.3863 1325.56 73.6685 1325.44 73.7861C1325.32 73.8919 1325 73.8566 1324.85 73.7273C1324.7 73.6097 1324.94 73.4098 1325.04 73.3981ZM1324.77 73.2099C1324.7 73.1864 1324.64 73.1158 1324.59 72.9747C1324.54 72.8219 1324.67 72.7396 1324.79 72.7984C1324.92 72.8689 1325.09 73.057 1325.09 73.1511C1325.09 73.2452 1324.84 73.2452 1324.77 73.2099ZM1322.04 73.1982C1321.92 73.304 1321.61 73.2687 1321.44 73.1394C1321.29 73.0218 1321.55 72.8219 1321.63 72.8101C1321.84 72.7866 1322.15 73.0806 1322.03 73.1982M1319.5 74.4211C1319.42 74.5622 1319.18 75.6087 1319.03 75.4793C1318.88 75.3617 1319.1 74.2682 1319.14 74.1859C1319.38 73.7391 1319.91 73.7626 1319.5 74.4211ZM1320.34 78.466C1319.72 78.466 1319.15 78.372 1318.6 78.2074C1318.51 78.1486 1318.47 78.031 1318.52 77.9016C1318.71 77.4078 1319.29 77.2079 1319.74 77.1608C1320.74 77.0668 1322.06 77.8193 1322.28 77.69C1322.49 77.5724 1322.91 77.0197 1323.53 77.0432C1323.96 77.055 1323.96 77.1373 1324.1 77.1843C1323.05 77.9722 1321.75 78.4543 1320.34 78.4425M1324.71 76.667C1324.65 76.6552 1324.58 76.6317 1324.51 76.5964C1324.17 76.42 1324.22 76.7022 1324.04 76.6434C1323.87 76.5847 1324.23 76.1966 1323.73 76.5259C1323.24 76.8551 1323.37 76.4788 1323.16 75.9262C1322.93 75.3735 1323.4 74.7385 1323.8 74.5974C1324.35 74.4093 1324.67 74.3623 1324.93 74.3035C1325.67 74.1153 1325.84 73.6803 1325.97 73.9507C1325.99 73.9977 1326.01 74.0448 1326.04 74.0918C1326.09 74.1741 1326.13 74.3387 1326.13 74.4916C1325.81 75.3147 1325.32 76.0673 1324.71 76.6787M1326.41 73.5392C1326.25 73.4921 1325.56 72.5279 1326.11 71.8929C1326.2 71.7871 1325.92 71.4814 1326 71.4814C1326.31 71.4579 1326.46 71.646 1326.54 71.9165C1326.54 72.034 1326.54 72.1516 1326.54 72.281C1326.54 72.716 1326.5 73.1394 1326.41 73.5509" fill="white"/>
<path d="M1305.05 50.257L1305.04 58.3587H1303.67L1303.69 52.1501H1303.67L1302.72 53.1496H1302.7L1302.71 51.7268L1303.96 50.257H1305.05Z" fill="white"/>
<path d="M1309.54 52.0208V52.7263C1309.54 53.4083 1309.16 53.8551 1308.61 54.0432C1309.29 54.1961 1309.61 54.6782 1309.61 55.419V56.6184C1309.61 57.7355 1309.01 58.4645 1307.64 58.4645C1306.25 58.4645 1305.75 57.6767 1305.77 56.442V55.3837H1307.01V56.5478C1307.01 57.03 1307.18 57.3357 1307.65 57.3357C1308.07 57.3357 1308.26 57.0417 1308.26 56.6066V55.2662C1308.26 54.8311 1308.07 54.6077 1307.59 54.6077H1307.01V53.5611H1307.53C1307.98 53.5611 1308.26 53.3377 1308.26 52.9027V52.0325C1308.26 51.5857 1308.11 51.3035 1307.67 51.3035C1307.25 51.3035 1307.08 51.5857 1307.08 52.0913V52.9144H1305.84V52.1971C1305.84 50.9977 1306.33 50.1629 1307.74 50.1629C1309 50.1629 1309.54 50.8684 1309.54 52.0208Z" fill="white"/>
<path d="M1312.36 52.7498V51.1153C1312.36 50.5862 1312.62 50.1982 1313.22 50.1982C1313.84 50.1982 1314.02 50.5509 1314.02 51.0448V51.4446H1313.5V50.9977C1313.5 50.7861 1313.43 50.6685 1313.23 50.6685C1313.03 50.6685 1312.94 50.8096 1312.94 51.0213V52.8439C1312.94 53.0438 1313.02 53.1966 1313.22 53.1966C1313.42 53.1966 1313.49 53.0673 1313.49 52.8674V52.2442H1314.01V52.8321C1314.01 53.3142 1313.81 53.6787 1313.2 53.6787C1312.6 53.6787 1312.35 53.2907 1312.35 52.7616" fill="white"/>
<path d="M1314.34 50.2334H1314.9V53.1613H1315.58L1315.57 53.6199H1314.33L1314.34 50.2334Z" fill="white"/>
<path d="M1315.84 50.2401L1315.84 53.6266L1316.41 53.6274L1316.42 50.2409L1315.84 50.2401Z" fill="white"/>
<path d="M1318.31 51.4328H1318.29L1317.9 53.6199H1317.64L1317.22 51.4328H1317.21V53.6199H1316.74V50.2334H1317.41L1317.77 52.1501H1317.78L1318.11 50.2452H1318.83V53.6317H1318.3L1318.31 51.4328Z" fill="white"/>
<path d="M1319.05 53.6317L1319.7 50.2452H1320.35L1320.98 53.6317H1320.39L1320.29 53.0085H1319.69L1319.58 53.6317H1319.04H1319.05ZM1319.77 52.5499H1320.23L1320.01 51.1859L1319.78 52.5499H1319.77Z" fill="white"/>
<path d="M1320.91 50.2452H1322.43V50.7155L1321.96 50.7038V53.6317H1321.38V50.7038H1320.91V50.2452Z" fill="white"/>
<path d="M1322.7 50.2452H1324.05V50.7155H1323.26V51.6798H1323.83V52.1383H1323.26V53.1731H1324.05V53.6317H1322.69L1322.7 50.2452Z" fill="white"/>
<path d="M1312.27 58.3587L1312.92 54.9722H1313.56L1314.2 58.3587H1313.61L1313.5 57.7355H1312.9L1312.8 58.3587H1312.26H1312.27ZM1312.99 57.2886H1313.44L1313.22 55.9246L1313 57.2886H1312.99Z" fill="white"/>
<path d="M1314.36 57.4885V55.8541C1314.36 55.3249 1314.62 54.9369 1315.22 54.9369C1315.84 54.9369 1316.02 55.2897 1316.02 55.7835V56.1833H1315.5V55.7365C1315.5 55.5248 1315.43 55.4073 1315.23 55.4073C1315.03 55.4073 1314.94 55.5484 1314.94 55.76V57.5826C1314.94 57.7825 1315.02 57.9354 1315.22 57.9354C1315.42 57.9354 1315.49 57.806 1315.49 57.6061V56.9829H1316.01V57.5709C1316.01 58.053 1315.81 58.4175 1315.2 58.4175C1314.6 58.4175 1314.35 58.0294 1314.35 57.5003" fill="white"/>
<path d="M1316.22 54.9839H1317.72V55.4543H1317.25V58.3704H1316.68L1316.69 55.4425H1316.22V54.9839Z" fill="white"/>
<path d="M1318 54.9805L1317.99 58.367L1318.56 58.3681L1318.56 54.9816L1318 54.9805Z" fill="white"/>
<path d="M1318.89 57.5003V55.8658C1318.89 55.3367 1319.15 54.9487 1319.75 54.9487C1320.35 54.9487 1320.61 55.3367 1320.61 55.8658V57.5003C1320.61 58.0294 1320.35 58.4175 1319.74 58.4175C1319.14 58.4175 1318.88 58.0294 1318.88 57.5003M1320.04 57.5944V55.7718C1320.04 55.5719 1319.96 55.419 1319.75 55.419C1319.55 55.419 1319.45 55.5601 1319.45 55.7718V57.5944C1319.45 57.7943 1319.54 57.9471 1319.74 57.9471C1319.94 57.9471 1320.03 57.806 1320.03 57.5944" fill="white"/>
<path d="M1321.42 56.2421V58.3704H1320.94V54.9839L1321.5 54.9957L1322.11 56.9359V54.9957H1322.59L1322.58 58.3822L1322.09 58.3704L1321.42 56.2421Z" fill="white"/>
<rect x="100" y="555" width="403" height="119" rx="8" fill="#38C0FF"/>
<text fill="#FFFFF1" xml:space="preserve" style="white-space: pre" font-family="VNM Sans Display" font-size="64" font-weight="bold" letter-spacing="0em"><tspan x="144.219" y="630.8" data-counter data-delay="800" data-from="0" data-to="250" data-ori="250">250</tspan></text>
<text fill="#FFFFF1" xml:space="preserve" style="white-space: pre" font-family="VNM Sans Display" font-size="64" font-weight="bold" letter-spacing="0em"><tspan x="213.281" y="630.8">+</tspan></text>
<text fill="#FFFFF1" xml:space="preserve" style="white-space: pre" font-family="VNM Sans Display" font-size="20" letter-spacing="0em"><tspan x="176.328" y="653.4">SKUs</tspan></text>
<text fill="#FFFFF1" xml:space="preserve" style="white-space: pre" font-family="VNM Sans Display" font-size="64" font-weight="bold" letter-spacing="0em"><tspan x="297.125" y="630.8" data-counter data-delay="800" data-from="0" data-to="13" data-ori="13">13</tspan></text>
<text fill="#FFFFF1" xml:space="preserve" style="white-space: pre" font-family="VNM Sans Display" font-size="20" letter-spacing="0em"><tspan x="280.748" y="653.4">NEW PRODUCTS</tspan></text>
<text fill="#FFFFF1" xml:space="preserve" style="white-space: pre" font-family="VNM Sans Std" font-size="14" letter-spacing="0em"><tspan x="402.336" y="578.844">improved</tspan></text>
<text fill="#FFFFF1" xml:space="preserve" style="white-space: pre" font-family="VNM Sans Display" font-size="64" font-weight="bold" letter-spacing="0em"><tspan x="408.312" y="630.8" data-counter data-delay="800" data-from="0" data-to="24" data-ori="24">24</tspan></text>
<text fill="#FFFFF1" xml:space="preserve" style="white-space: pre" font-family="VNM Sans Display" font-size="20" letter-spacing="0em"><tspan x="406.73" y="653.4">PRODUCTS</tspan></text>
<rect x="781" y="481" width="245" height="190" rx="8" fill="#38C0FF"/>
<text fill="#FFFFF1" xml:space="preserve" style="white-space: pre" font-family="VNM Sans Std" font-size="16" letter-spacing="0em"><tspan x="814.18" y="511.536">100% of Vinamilk factories </tspan><tspan x="821.797" y="529.536">have implemented Food </tspan><tspan x="803.812" y="547.536">Safety Management Systems </tspan><tspan x="850.531" y="565.536">certified to the&#xa0;</tspan></text>
<text fill="#FFFFF1" xml:space="preserve" style="white-space: pre" font-family="VNM Sans Display" font-size="48" font-weight="bold" letter-spacing="0em"><tspan x="825.5" y="617.6">FSSC </tspan></text>
<text fill="#FFFFF1" xml:space="preserve" style="white-space: pre" font-family="VNM Sans Display" font-size="48" font-weight="bold" letter-spacing="0em"><tspan x="892.914" y="617.6" data-counter data-delay="800" data-from="0" data-to="22000" data-ori="22000">22000</tspan></text>
<text fill="#FFFFF1" xml:space="preserve" style="white-space: pre" font-family="VNM Sans Display" font-size="32" letter-spacing="0em"><tspan x="865.391" y="647.54">STANDARD</tspan></text>
<rect x="1042" y="481" width="246" height="190" rx="8" fill="#38C0FF"/>
<text fill="#FFFFF1" xml:space="preserve" style="white-space: pre" font-family="VNM Sans Std" font-size="16" letter-spacing="0em"><tspan x="1121.77" y="511.536">Laboratories </tspan><tspan x="1094.09" y="529.536">accredited under the</tspan></text>
<text fill="#FFFFF1" xml:space="preserve" style="white-space: pre" font-family="VNM Sans Display" font-size="48" font-weight="bold" letter-spacing="0em"><tspan x="1099.5" y="581.6">ISO </tspan></text>
<text fill="#FFFFF1" xml:space="preserve" style="white-space: pre" font-family="VNM Sans Display" font-size="48" font-weight="bold" letter-spacing="0em"><tspan x="1150.89" y="581.6" data-counter data-delay="800" data-from="0" data-to="17025" data-ori="17025">17025</tspan></text>
<text fill="#FFFFF1" xml:space="preserve" style="white-space: pre" font-family="VNM Sans Display" font-size="32" letter-spacing="0em"><tspan x="1126.89" y="611.54">STANDARD</tspan></text>
<text fill="#38C0FF" xml:space="preserve" style="white-space: pre" font-family="VNM Sans Display" font-size="80" font-weight="bold" letter-spacing="0em"><tspan x="92.9062" y="146.6">PRODUCT SAFETY </tspan><tspan x="137.359" y="230.6">AND QUALITY</tspan></text>
<rect x="100" y="271" width="403" height="258" rx="8" fill="#FFFFF1"/>
<text fill="#0213B0" xml:space="preserve" style="white-space: pre" font-family="VNM Sans Std" font-size="16" letter-spacing="0em"><tspan x="128" y="333.536">Vinamilk </tspan><tspan x="188.127" y="333.536">believes </tspan><tspan x="247.567" y="333.536">that </tspan><tspan x="281.804" y="333.536">the </tspan><tspan x="310.15" y="333.536">foundation </tspan><tspan x="391.574" y="333.536">of </tspan><tspan x="411.967" y="333.536">a </tspan><tspan x="424.281" y="333.536">healthy </tspan><tspan x="128" y="351.536">and </tspan><tspan x="158.625" y="351.536">fulfilling </tspan><tspan x="217.375" y="351.536">life </tspan><tspan x="243" y="351.536">lies </tspan><tspan x="269.344" y="351.536">in </tspan><tspan x="285.75" y="351.536">nourishing </tspan><tspan x="361.266" y="351.536">the </tspan><tspan x="389.984" y="351.536">body </tspan><tspan x="431.484" y="351.536">with </tspan><tspan x="467.266" y="351.536">a </tspan><tspan x="128" y="369.536">well-balanced </tspan><tspan x="233.828" y="369.536">diet. </tspan><tspan x="275.984" y="369.536">Recognizing </tspan><tspan x="369.984" y="369.536">that </tspan><tspan x="411.688" y="369.536">individual </tspan><tspan x="128" y="387.536">nutritional </tspan><tspan x="210.619" y="387.536">needs </tspan><tspan x="264.863" y="387.536">vary, </tspan><tspan x="308.372" y="387.536">Vinamilk </tspan><tspan x="376.303" y="387.536">goes </tspan><tspan x="422.703" y="387.536">beyond </tspan><tspan x="128" y="405.536">providing </tspan><tspan x="195.859" y="405.536">high-quality, </tspan><tspan x="283.125" y="405.536">safe </tspan><tspan x="316.391" y="405.536">products </tspan><tspan x="382.891" y="405.536">for </tspan><tspan x="407.906" y="405.536">all. </tspan><tspan x="428.031" y="405.536">We </tspan><tspan x="453.922" y="405.536">are </tspan><tspan x="128" y="423.536">committed </tspan><tspan x="220.516" y="423.536">to </tspan><tspan x="253.297" y="423.536">developing </tspan><tspan x="345.781" y="423.536">tailored </tspan><tspan x="415.422" y="423.536">nutrition </tspan><tspan x="128" y="441.536">solutions </tspan><tspan x="193.906" y="441.536">for </tspan><tspan x="219.234" y="441.536">vulnerable </tspan><tspan x="293.078" y="441.536">groups, </tspan><tspan x="348.016" y="441.536">actively </tspan><tspan x="404.172" y="441.536">minimizing </tspan><tspan x="128" y="459.536">food </tspan><tspan x="167.08" y="459.536">loss </tspan><tspan x="197.708" y="459.536">and </tspan><tspan x="227.804" y="459.536">waste, </tspan><tspan x="276.384" y="459.536">and </tspan><tspan x="306.48" y="459.536">ensuring </tspan><tspan x="369.123" y="459.536">transparency </tspan><tspan x="463.547" y="459.536">in </tspan><tspan x="128" y="477.536">our </tspan><tspan x="153.703" y="477.536">communication </tspan><tspan x="261" y="477.536">and </tspan><tspan x="289.328" y="477.536">business </tspan><tspan x="350.688" y="477.536">practices.</tspan></text>
</g>
<defs>
<clipPath id="clip0_316_15779">
<rect width="1440" height="774" fill="white"/>
</clipPath>
</defs>
</svg>
