<svg width="454" height="161" viewBox="0 0 454 161" fill="none" xmlns="http://www.w3.org/2000/svg">
<rect x="0.5" y="0.5" width="453" height="160" rx="7.5" fill="#4DD75A"/>
<rect x="0.5" y="0.5" width="453" height="160" rx="7.5" stroke="#0B4314"/>
<path d="M118.492 41C118.385 41 118.332 40.9467 118.332 40.84V32.152C118.332 31.576 118.305 31.1493 118.252 30.872C118.209 30.5947 118.124 30.296 117.996 29.976L117.98 29.912C117.98 29.8373 118.028 29.8 118.124 29.8H121.308C121.404 29.8 121.468 29.8373 121.5 29.912L124.652 36.872C124.684 36.936 124.721 36.968 124.764 36.968C124.839 36.968 124.876 36.9147 124.876 36.808V32.152C124.876 31.576 124.849 31.1493 124.796 30.872C124.753 30.5947 124.668 30.296 124.54 29.976L124.524 29.912C124.524 29.8373 124.572 29.8 124.668 29.8H127.516C127.569 29.8 127.607 29.816 127.628 29.848C127.66 29.88 127.665 29.9227 127.644 29.976C127.516 30.296 127.425 30.5947 127.372 30.872C127.329 31.1493 127.308 31.576 127.308 32.152V40.84C127.308 40.9467 127.255 41 127.148 41H124.332C124.247 41 124.183 40.9627 124.14 40.888L120.972 33.912C120.951 33.8587 120.919 33.832 120.876 33.832C120.801 33.832 120.764 33.88 120.764 33.976V40.84C120.764 40.9467 120.711 41 120.604 41H118.492ZM129.047 41C129.005 41 128.967 40.984 128.935 40.952C128.903 40.92 128.887 40.8827 128.887 40.84V32.152C128.887 31.576 128.861 31.1493 128.807 30.872C128.765 30.5947 128.679 30.296 128.551 29.976L128.535 29.912C128.535 29.8373 128.583 29.8 128.679 29.8H131.191C131.234 29.8 131.271 29.816 131.303 29.848C131.335 29.88 131.351 29.9173 131.351 29.96V33.24C131.351 33.2827 131.357 33.32 131.367 33.352C131.378 33.3733 131.394 33.384 131.415 33.384C131.458 33.384 131.501 33.3467 131.543 33.272C131.778 32.888 132.055 32.5893 132.375 32.376C132.706 32.152 133.191 32.04 133.831 32.04C134.781 32.04 135.495 32.3173 135.975 32.872C136.455 33.4267 136.695 34.1627 136.695 35.08V40.84C136.695 40.8827 136.679 40.92 136.647 40.952C136.615 40.984 136.578 41 136.535 41H134.391C134.349 41 134.311 40.984 134.279 40.952C134.247 40.92 134.231 40.8827 134.231 40.84V35.304C134.231 34.856 134.114 34.52 133.879 34.296C133.645 34.072 133.341 33.96 132.967 33.96C132.445 33.96 132.045 34.1467 131.767 34.52C131.49 34.8933 131.351 35.4267 131.351 36.12V40.84C131.351 40.8827 131.335 40.92 131.303 40.952C131.271 40.984 131.234 41 131.191 41H129.047ZM140.148 41.16C139.316 41.16 138.65 40.9413 138.148 40.504C137.658 40.056 137.412 39.4213 137.412 38.6C137.412 37.864 137.631 37.288 138.068 36.872C138.516 36.456 139.231 36.1573 140.212 35.976L141.604 35.72C141.924 35.656 142.143 35.5707 142.26 35.464C142.388 35.3467 142.452 35.2027 142.452 35.032C142.452 34.744 142.324 34.5147 142.068 34.344C141.823 34.1627 141.46 34.072 140.98 34.072C140.362 34.072 139.828 34.2267 139.38 34.536C138.932 34.8347 138.516 35.224 138.132 35.704C138.09 35.768 138.042 35.8 137.988 35.8C137.935 35.8 137.908 35.752 137.908 35.656V33.912C137.908 33.3147 138.239 32.856 138.9 32.536C139.572 32.2053 140.388 32.04 141.348 32.04C142.575 32.04 143.46 32.3067 144.004 32.84C144.548 33.3627 144.82 34.04 144.82 34.872V40.84C144.82 40.8827 144.804 40.92 144.772 40.952C144.74 40.984 144.708 41 144.676 41H142.644C142.612 41 142.575 40.984 142.532 40.952C142.5 40.92 142.484 40.8827 142.484 40.84V40.04C142.484 39.9973 142.468 39.976 142.436 39.976C142.394 39.976 142.356 40.0027 142.324 40.056C142.079 40.4507 141.775 40.7333 141.412 40.904C141.06 41.0747 140.639 41.16 140.148 41.16ZM141.044 39.416C141.482 39.416 141.823 39.272 142.068 38.984C142.324 38.696 142.452 38.3067 142.452 37.816V37.192C142.452 37.064 142.388 37.0107 142.26 37.032L141.268 37.208C140.362 37.3787 139.908 37.7627 139.908 38.36C139.908 38.7013 140.01 38.9627 140.212 39.144C140.415 39.3253 140.692 39.416 141.044 39.416ZM143.268 31.352C142.479 31.352 141.786 31.32 141.188 31.256C140.602 31.1813 140.015 31.0693 139.428 30.92C139.29 30.888 139.22 30.808 139.22 30.68V30.088C139.22 30.024 139.263 30.0027 139.348 30.024C140.031 30.2053 140.682 30.3333 141.3 30.408C141.919 30.472 142.575 30.504 143.268 30.504C143.343 30.504 143.38 30.536 143.38 30.6V31.256C143.38 31.32 143.343 31.352 143.268 31.352ZM148.454 41C148.347 41 148.294 40.9467 148.294 40.84V34.552C148.294 33.976 148.267 33.5493 148.214 33.272C148.171 32.9947 148.086 32.696 147.958 32.376L147.942 32.312C147.942 32.2373 147.99 32.2 148.086 32.2H150.47C150.523 32.2 150.566 32.216 150.598 32.248C150.63 32.28 150.646 32.3173 150.646 32.36V33.304C150.646 33.4 150.672 33.448 150.726 33.448C150.768 33.448 150.806 33.4107 150.838 33.336C151.296 32.472 152.027 32.04 153.03 32.04C153.606 32.04 154.107 32.1787 154.534 32.456C154.96 32.7333 155.275 33.1173 155.478 33.608C155.499 33.672 155.526 33.704 155.558 33.704C155.6 33.704 155.632 33.6773 155.654 33.624C155.899 33.1333 156.192 32.7493 156.534 32.472C156.886 32.184 157.382 32.04 158.022 32.04C158.566 32.04 159.04 32.168 159.446 32.424C159.851 32.6693 160.16 33.0107 160.374 33.448C160.598 33.8853 160.71 34.376 160.71 34.92V40.84C160.71 40.9467 160.656 41 160.55 41H158.422C158.368 41 158.326 40.984 158.294 40.952C158.262 40.92 158.246 40.8827 158.246 40.84V35.16C158.246 34.36 157.904 33.96 157.222 33.96C156.784 33.96 156.427 34.1413 156.15 34.504C155.872 34.856 155.734 35.4053 155.734 36.152V40.84C155.734 40.9467 155.68 41 155.574 41H153.43C153.323 41 153.27 40.9467 153.27 40.84V35.16C153.27 34.36 152.928 33.96 152.246 33.96C151.808 33.96 151.451 34.1413 151.174 34.504C150.896 34.856 150.758 35.4053 150.758 36.152V40.84C150.758 40.8827 150.742 40.92 150.71 40.952C150.678 40.984 150.635 41 150.582 41H148.454ZM164.164 41.16C163.332 41.16 162.665 40.9413 162.164 40.504C161.673 40.056 161.428 39.4213 161.428 38.6C161.428 37.864 161.647 37.288 162.084 36.872C162.532 36.456 163.247 36.1573 164.228 35.976L165.62 35.72C165.94 35.656 166.159 35.5707 166.276 35.464C166.404 35.3467 166.468 35.2027 166.468 35.032C166.468 34.744 166.34 34.5147 166.084 34.344C165.839 34.1627 165.476 34.072 164.996 34.072C164.377 34.072 163.844 34.2267 163.396 34.536C162.948 34.8347 162.532 35.224 162.148 35.704C162.105 35.768 162.057 35.8 162.004 35.8C161.951 35.8 161.924 35.752 161.924 35.656V33.912C161.924 33.3147 162.255 32.856 162.916 32.536C163.588 32.2053 164.404 32.04 165.364 32.04C166.591 32.04 167.476 32.3067 168.02 32.84C168.564 33.3627 168.836 34.04 168.836 34.872V40.84C168.836 40.8827 168.82 40.92 168.788 40.952C168.756 40.984 168.724 41 168.692 41H166.66C166.628 41 166.591 40.984 166.548 40.952C166.516 40.92 166.5 40.8827 166.5 40.84V40.04C166.5 39.9973 166.484 39.976 166.452 39.976C166.409 39.976 166.372 40.0027 166.34 40.056C166.095 40.4507 165.791 40.7333 165.428 40.904C165.076 41.0747 164.655 41.16 164.164 41.16ZM165.06 39.416C165.497 39.416 165.839 39.272 166.084 38.984C166.34 38.696 166.468 38.3067 166.468 37.816V37.192C166.468 37.064 166.404 37.0107 166.276 37.032L165.284 37.208C164.377 37.3787 163.924 37.7627 163.924 38.36C163.924 38.7013 164.025 38.9627 164.228 39.144C164.431 39.3253 164.708 39.416 165.06 39.416ZM163.444 31.352C163.369 31.352 163.332 31.32 163.332 31.256V30.6C163.332 30.536 163.369 30.504 163.444 30.504C164.137 30.504 164.793 30.472 165.412 30.408C166.031 30.3333 166.681 30.2053 167.364 30.024C167.449 30.0027 167.492 30.024 167.492 30.088V30.68C167.492 30.808 167.423 30.888 167.284 30.92C166.697 31.0693 166.105 31.1813 165.508 31.256C164.921 31.32 164.233 31.352 163.444 31.352ZM171.537 42.84C170.79 42.84 170.273 42.7973 169.985 42.712C169.739 42.6373 169.617 42.4613 169.617 42.184V40.888C169.617 40.7387 169.691 40.6907 169.841 40.744C169.979 40.7867 170.193 40.8293 170.481 40.872C170.779 40.9147 171.078 40.936 171.377 40.936C171.665 40.936 171.809 40.8507 171.809 40.68C171.809 40.6267 171.761 40.456 171.665 40.168L169.617 34.072C169.467 33.624 169.329 33.288 169.201 33.064C169.083 32.84 168.939 32.632 168.769 32.44C168.737 32.408 168.721 32.3707 168.721 32.328C168.721 32.2427 168.769 32.2 168.865 32.2H171.953C172.049 32.2 172.113 32.2213 172.145 32.264C172.177 32.3067 172.171 32.36 172.129 32.424C172.001 32.616 171.937 32.8453 171.937 33.112C171.937 33.3467 171.985 33.64 172.081 33.992L173.185 37.944C173.217 38.0507 173.27 38.104 173.345 38.104C173.43 38.104 173.483 38.0507 173.505 37.944L174.593 33.752C174.657 33.5067 174.689 33.2987 174.689 33.128C174.689 32.8613 174.619 32.6267 174.481 32.424C174.459 32.3813 174.449 32.3493 174.449 32.328C174.449 32.2427 174.518 32.2 174.657 32.2H177.585C177.681 32.2 177.729 32.2427 177.729 32.328C177.729 32.3707 177.713 32.408 177.681 32.44C177.51 32.6427 177.361 32.8507 177.233 33.064C177.115 33.2773 176.987 33.6027 176.849 34.04L174.769 40.616C174.513 41.4373 174.134 42.0133 173.633 42.344C173.142 42.6747 172.443 42.84 171.537 42.84ZM183.674 41.16C182.586 41.16 181.775 41.0213 181.242 40.744C180.719 40.4667 180.458 40.0667 180.458 39.544V38.056C180.458 37.9493 180.495 37.896 180.57 37.896C180.613 37.896 180.661 37.9227 180.714 37.976C181.045 38.36 181.439 38.6853 181.898 38.952C182.357 39.2187 182.847 39.352 183.37 39.352C184.159 39.352 184.554 39.0533 184.554 38.456C184.554 38.232 184.479 38.0613 184.33 37.944C184.181 37.816 183.914 37.7093 183.53 37.624L182.634 37.416C181.898 37.2453 181.349 36.952 180.986 36.536C180.634 36.1093 180.458 35.5547 180.458 34.872C180.458 34.0187 180.778 33.336 181.418 32.824C182.069 32.3013 182.959 32.04 184.09 32.04C185.861 32.04 186.746 32.5893 186.746 33.688V35.016C186.746 35.1013 186.709 35.144 186.634 35.144C186.581 35.144 186.538 35.1173 186.506 35.064C186.229 34.6373 185.882 34.328 185.466 34.136C185.05 33.9333 184.613 33.832 184.154 33.832C183.759 33.832 183.455 33.912 183.242 34.072C183.029 34.2213 182.922 34.4293 182.922 34.696C182.922 34.9413 182.991 35.128 183.13 35.256C183.279 35.384 183.514 35.48 183.834 35.544L184.81 35.736C185.557 35.8853 186.117 36.168 186.49 36.584C186.874 36.9893 187.066 37.5227 187.066 38.184C187.066 39.0907 186.757 39.816 186.138 40.36C185.53 40.8933 184.709 41.16 183.674 41.16ZM190.513 41.16C189.596 41.16 188.903 40.8827 188.433 40.328C187.975 39.7733 187.745 39.0373 187.745 38.12V34.552C187.745 33.976 187.719 33.5493 187.665 33.272C187.623 32.9947 187.537 32.696 187.409 32.376L187.393 32.312C187.393 32.2373 187.441 32.2 187.537 32.2H190.049C190.156 32.2 190.209 32.2533 190.209 32.36V37.896C190.209 38.3653 190.321 38.7067 190.545 38.92C190.769 39.1333 191.063 39.24 191.425 39.24C191.916 39.24 192.289 39.0587 192.545 38.696C192.801 38.3333 192.929 37.8 192.929 37.096V34.552C192.929 33.976 192.903 33.5493 192.849 33.272C192.807 32.9947 192.721 32.696 192.593 32.376L192.577 32.312C192.577 32.2373 192.625 32.2 192.721 32.2H195.233C195.34 32.2 195.393 32.2533 195.393 32.36V34.632C195.393 34.888 195.495 35.016 195.697 35.016C195.889 35.016 196.023 34.92 196.097 34.728C196.183 34.5253 196.225 34.28 196.225 33.992C196.225 33.4907 196.151 32.952 196.001 32.376L195.985 32.328C195.985 32.2427 196.039 32.2 196.145 32.2H196.817C196.924 32.2 196.983 32.248 196.993 32.344C197.111 32.7813 197.169 33.3147 197.169 33.944C197.169 34.5413 197.041 34.9893 196.785 35.288C196.54 35.5867 196.151 35.7627 195.617 35.816C195.532 35.8267 195.473 35.848 195.441 35.88C195.409 35.912 195.393 35.9707 195.393 36.056V40.84C195.393 40.9467 195.34 41 195.233 41H193.201C193.095 41 193.041 40.9467 193.041 40.84V39.88C193.041 39.8373 193.02 39.8107 192.977 39.8C192.935 39.7893 192.897 39.816 192.865 39.88C192.705 40.2107 192.439 40.5093 192.065 40.776C191.703 41.032 191.185 41.16 190.513 41.16ZM192.513 31.448C192.279 31.448 192.076 31.4107 191.905 31.336C191.735 31.2613 191.553 31.1547 191.361 31.016C191.223 30.9093 191.1 30.8347 190.993 30.792C190.887 30.7387 190.775 30.712 190.657 30.712C190.497 30.712 190.375 30.7653 190.289 30.872C190.215 30.9787 190.172 31.0907 190.161 31.208C190.14 31.304 190.092 31.352 190.017 31.352H189.425C189.361 31.352 189.319 31.3413 189.297 31.32C189.276 31.288 189.265 31.24 189.265 31.176C189.265 30.8347 189.372 30.5307 189.585 30.264C189.809 29.9867 190.156 29.848 190.625 29.848C190.86 29.848 191.063 29.8853 191.233 29.96C191.404 30.0347 191.585 30.1413 191.777 30.28C191.916 30.3867 192.039 30.4667 192.145 30.52C192.252 30.5627 192.364 30.584 192.481 30.584C192.641 30.584 192.759 30.5307 192.833 30.424C192.919 30.3173 192.967 30.2053 192.977 30.088C192.999 29.992 193.047 29.944 193.121 29.944H193.713C193.777 29.944 193.82 29.96 193.841 29.992C193.863 30.0133 193.873 30.056 193.873 30.12C193.873 30.4613 193.761 30.7707 193.537 31.048C193.324 31.3147 192.983 31.448 192.513 31.448ZM200.008 41.16C199.176 41.16 198.509 40.9413 198.008 40.504C197.517 40.056 197.272 39.4213 197.272 38.6C197.272 37.864 197.49 37.288 197.928 36.872C198.376 36.456 199.09 36.1573 200.072 35.976L201.464 35.72C201.784 35.656 202.002 35.5707 202.12 35.464C202.248 35.3467 202.312 35.2027 202.312 35.032C202.312 34.744 202.184 34.5147 201.928 34.344C201.682 34.1627 201.32 34.072 200.84 34.072C200.221 34.072 199.688 34.2267 199.24 34.536C198.792 34.8347 198.376 35.224 197.992 35.704C197.949 35.768 197.901 35.8 197.848 35.8C197.794 35.8 197.768 35.752 197.768 35.656V33.912C197.768 33.3147 198.098 32.856 198.76 32.536C199.432 32.2053 200.248 32.04 201.208 32.04C202.434 32.04 203.32 32.3067 203.864 32.84C204.408 33.3627 204.68 34.04 204.68 34.872V40.84C204.68 40.8827 204.664 40.92 204.632 40.952C204.6 40.984 204.568 41 204.536 41H202.504C202.472 41 202.434 40.984 202.392 40.952C202.36 40.92 202.344 40.8827 202.344 40.84V40.04C202.344 39.9973 202.328 39.976 202.296 39.976C202.253 39.976 202.216 40.0027 202.184 40.056C201.938 40.4507 201.634 40.7333 201.272 40.904C200.92 41.0747 200.498 41.16 200.008 41.16ZM200.904 39.416C201.341 39.416 201.682 39.272 201.928 38.984C202.184 38.696 202.312 38.3067 202.312 37.816V37.192C202.312 37.064 202.248 37.0107 202.12 37.032L201.128 37.208C200.221 37.3787 199.768 37.7627 199.768 38.36C199.768 38.7013 199.869 38.9627 200.072 39.144C200.274 39.3253 200.552 39.416 200.904 39.416ZM211.545 41C211.385 41 211.289 40.9307 211.257 40.792L208.585 31.592C208.468 31.176 208.345 30.8667 208.217 30.664C208.1 30.4507 207.95 30.2427 207.769 30.04C207.737 30.008 207.721 29.9707 207.721 29.928C207.721 29.8427 207.769 29.8 207.865 29.8H211.113C211.209 29.8 211.273 29.8213 211.305 29.864C211.337 29.9067 211.332 29.96 211.289 30.024C211.14 30.2373 211.065 30.4773 211.065 30.744C211.065 30.8827 211.102 31.1013 211.177 31.4L213.017 38.168C213.049 38.264 213.097 38.312 213.161 38.312C213.246 38.312 213.294 38.264 213.305 38.168L215.193 31.304C215.246 31.1333 215.273 30.9467 215.273 30.744C215.273 30.4773 215.198 30.2373 215.049 30.024C215.028 29.9813 215.017 29.9493 215.017 29.928C215.017 29.8427 215.086 29.8 215.225 29.8H218.329C218.425 29.8 218.473 29.8427 218.473 29.928C218.473 29.9707 218.457 30.008 218.425 30.04C218.254 30.232 218.11 30.4293 217.993 30.632C217.876 30.8347 217.753 31.1547 217.625 31.592L214.953 40.792C214.921 40.9307 214.825 41 214.665 41H211.545ZM218.938 41C218.895 41 218.858 40.984 218.826 40.952C218.794 40.92 218.778 40.8827 218.778 40.84V34.552C218.778 33.976 218.751 33.5493 218.698 33.272C218.655 32.9947 218.57 32.696 218.442 32.376L218.426 32.312C218.426 32.2373 218.474 32.2 218.57 32.2H221.082C221.125 32.2 221.162 32.216 221.194 32.248C221.226 32.28 221.242 32.3173 221.242 32.36V40.84C221.242 40.8827 221.226 40.92 221.194 40.952C221.162 40.984 221.125 41 221.082 41H218.938ZM219.994 31.8C219.599 31.8 219.269 31.7147 219.002 31.544C218.735 31.3733 218.602 31.1227 218.602 30.792C218.602 30.4507 218.73 30.2 218.986 30.04C219.253 29.88 219.589 29.8 219.994 29.8C220.41 29.8 220.751 29.88 221.018 30.04C221.285 30.2 221.418 30.4507 221.418 30.792C221.418 31.1227 221.279 31.3733 221.002 31.544C220.735 31.7147 220.399 31.8 219.994 31.8ZM222.454 41C222.411 41 222.374 40.984 222.342 40.952C222.31 40.92 222.294 40.8827 222.294 40.84V34.552C222.294 33.976 222.267 33.5493 222.214 33.272C222.171 32.9947 222.086 32.696 221.958 32.376L221.942 32.312C221.942 32.2373 221.99 32.2 222.086 32.2H224.486C224.528 32.2 224.566 32.216 224.598 32.248C224.63 32.28 224.646 32.3173 224.646 32.36V33.304C224.646 33.4 224.672 33.448 224.726 33.448C224.768 33.448 224.806 33.4107 224.838 33.336C225.286 32.472 226.086 32.04 227.238 32.04C228.187 32.04 228.902 32.3173 229.382 32.872C229.862 33.4267 230.102 34.1627 230.102 35.08V40.84C230.102 40.8827 230.086 40.92 230.054 40.952C230.022 40.984 229.984 41 229.942 41H227.798C227.755 41 227.718 40.984 227.686 40.952C227.654 40.92 227.638 40.8827 227.638 40.84V35.304C227.638 34.856 227.52 34.52 227.286 34.296C227.051 34.072 226.747 33.96 226.374 33.96C225.851 33.96 225.451 34.1467 225.174 34.52C224.896 34.8933 224.758 35.4267 224.758 36.12V40.84C224.758 40.8827 224.742 40.92 224.71 40.952C224.678 40.984 224.64 41 224.598 41H222.454ZM233.555 41.16C232.723 41.16 232.056 40.9413 231.555 40.504C231.064 40.056 230.819 39.4213 230.819 38.6C230.819 37.864 231.037 37.288 231.475 36.872C231.923 36.456 232.637 36.1573 233.619 35.976L235.011 35.72C235.331 35.656 235.549 35.5707 235.667 35.464C235.795 35.3467 235.859 35.2027 235.859 35.032C235.859 34.744 235.731 34.5147 235.475 34.344C235.229 34.1627 234.867 34.072 234.387 34.072C233.768 34.072 233.235 34.2267 232.787 34.536C232.339 34.8347 231.923 35.224 231.539 35.704C231.496 35.768 231.448 35.8 231.395 35.8C231.341 35.8 231.315 35.752 231.315 35.656V33.912C231.315 33.3147 231.645 32.856 232.307 32.536C232.979 32.2053 233.795 32.04 234.755 32.04C235.981 32.04 236.867 32.3067 237.411 32.84C237.955 33.3627 238.227 34.04 238.227 34.872V40.84C238.227 40.8827 238.211 40.92 238.179 40.952C238.147 40.984 238.115 41 238.083 41H236.051C236.019 41 235.981 40.984 235.939 40.952C235.907 40.92 235.891 40.8827 235.891 40.84V40.04C235.891 39.9973 235.875 39.976 235.843 39.976C235.8 39.976 235.763 40.0027 235.731 40.056C235.485 40.4507 235.181 40.7333 234.819 40.904C234.467 41.0747 234.045 41.16 233.555 41.16ZM234.451 39.416C234.888 39.416 235.229 39.272 235.475 38.984C235.731 38.696 235.859 38.3067 235.859 37.816V37.192C235.859 37.064 235.795 37.0107 235.667 37.032L234.674 37.208C233.768 37.3787 233.315 37.7627 233.315 38.36C233.315 38.7013 233.416 38.9627 233.619 39.144C233.821 39.3253 234.099 39.416 234.451 39.416ZM239.422 41C239.316 41 239.262 40.9467 239.262 40.84V34.552C239.262 33.976 239.236 33.5493 239.182 33.272C239.14 32.9947 239.054 32.696 238.926 32.376L238.91 32.312C238.91 32.2373 238.958 32.2 239.054 32.2H241.438C241.492 32.2 241.534 32.216 241.566 32.248C241.598 32.28 241.614 32.3173 241.614 32.36V33.304C241.614 33.4 241.641 33.448 241.694 33.448C241.737 33.448 241.774 33.4107 241.806 33.336C242.265 32.472 242.996 32.04 243.998 32.04C244.574 32.04 245.076 32.1787 245.502 32.456C245.929 32.7333 246.244 33.1173 246.446 33.608C246.468 33.672 246.494 33.704 246.526 33.704C246.569 33.704 246.601 33.6773 246.622 33.624C246.868 33.1333 247.161 32.7493 247.502 32.472C247.854 32.184 248.35 32.04 248.99 32.04C249.534 32.04 250.009 32.168 250.414 32.424C250.82 32.6693 251.129 33.0107 251.342 33.448C251.566 33.8853 251.678 34.376 251.678 34.92V40.84C251.678 40.9467 251.625 41 251.518 41H249.39C249.337 41 249.294 40.984 249.262 40.952C249.23 40.92 249.214 40.8827 249.214 40.84V35.16C249.214 34.36 248.873 33.96 248.19 33.96C247.753 33.96 247.396 34.1413 247.118 34.504C246.841 34.856 246.702 35.4053 246.702 36.152V40.84C246.702 40.9467 246.649 41 246.542 41H244.398C244.292 41 244.238 40.9467 244.238 40.84V35.16C244.238 34.36 243.897 33.96 243.214 33.96C242.777 33.96 242.42 34.1413 242.142 34.504C241.865 34.856 241.726 35.4053 241.726 36.152V40.84C241.726 40.8827 241.71 40.92 241.678 40.952C241.646 40.984 241.604 41 241.55 41H239.422ZM252.829 41C252.786 41 252.749 40.984 252.717 40.952C252.685 40.92 252.669 40.8827 252.669 40.84V34.552C252.669 33.976 252.642 33.5493 252.589 33.272C252.546 32.9947 252.461 32.696 252.333 32.376L252.317 32.312C252.317 32.2373 252.365 32.2 252.461 32.2H254.973C255.015 32.2 255.053 32.216 255.085 32.248C255.117 32.28 255.133 32.3173 255.133 32.36V40.84C255.133 40.8827 255.117 40.92 255.085 40.952C255.053 40.984 255.015 41 254.973 41H252.829ZM253.885 31.8C253.49 31.8 253.159 31.7147 252.893 31.544C252.626 31.3733 252.493 31.1227 252.493 30.792C252.493 30.4507 252.621 30.2 252.877 30.04C253.143 29.88 253.479 29.8 253.885 29.8C254.301 29.8 254.642 29.88 254.909 30.04C255.175 30.2 255.309 30.4507 255.309 30.792C255.309 31.1227 255.17 31.3733 254.893 31.544C254.626 31.7147 254.29 31.8 253.885 31.8ZM256.344 41C256.238 41 256.184 40.9467 256.184 40.84V32.152C256.184 31.576 256.158 31.1493 256.104 30.872C256.062 30.5947 255.976 30.296 255.848 29.976L255.832 29.912C255.832 29.8373 255.88 29.8 255.976 29.8H258.488C258.595 29.8 258.648 29.8533 258.648 29.96V40.84C258.648 40.9467 258.595 41 258.488 41H256.344ZM259.86 41C259.753 41 259.7 40.9467 259.7 40.84V32.152C259.7 31.576 259.673 31.1493 259.62 30.872C259.577 30.5947 259.492 30.296 259.364 29.976L259.348 29.912C259.348 29.8373 259.396 29.8 259.492 29.8H262.004C262.111 29.8 262.164 29.8533 262.164 29.96V36.024C262.164 36.1093 262.191 36.152 262.244 36.152C262.297 36.152 262.335 36.1253 262.356 36.072L264.372 33.144C264.479 32.9733 264.532 32.8133 264.532 32.664C264.532 32.568 264.516 32.488 264.484 32.424C264.473 32.4027 264.468 32.376 264.468 32.344C264.468 32.248 264.511 32.2 264.596 32.2H267.604C267.689 32.2 267.732 32.2373 267.732 32.312C267.732 32.3653 267.705 32.408 267.652 32.44C267.417 32.6 267.204 32.8293 267.012 33.128L265.076 35.976C264.959 36.1467 264.9 36.2853 264.9 36.392C264.9 36.5093 264.953 36.6427 265.06 36.792L267.716 40.808C267.737 40.8293 267.748 40.8613 267.748 40.904C267.748 40.968 267.7 41 267.604 41H264.996C264.911 41 264.847 40.9627 264.804 40.888L262.356 36.92C262.313 36.856 262.276 36.824 262.244 36.824C262.191 36.824 262.164 36.872 262.164 36.968V40.84C262.164 40.9467 262.111 41 262.004 41H259.86ZM271.242 41C271.135 41 271.082 40.9467 271.082 40.84V32.152C271.082 31.576 271.055 31.1493 271.002 30.872C270.959 30.5947 270.874 30.296 270.746 29.976L270.73 29.912C270.73 29.8373 270.778 29.8 270.874 29.8H274.058C274.154 29.8 274.218 29.8373 274.25 29.912L277.402 36.872C277.434 36.936 277.471 36.968 277.514 36.968C277.589 36.968 277.626 36.9147 277.626 36.808V32.152C277.626 31.576 277.599 31.1493 277.546 30.872C277.503 30.5947 277.418 30.296 277.29 29.976L277.274 29.912C277.274 29.8373 277.322 29.8 277.418 29.8H280.266C280.319 29.8 280.357 29.816 280.378 29.848C280.41 29.88 280.415 29.9227 280.394 29.976C280.266 30.296 280.175 30.5947 280.122 30.872C280.079 31.1493 280.058 31.576 280.058 32.152V40.84C280.058 40.9467 280.005 41 279.898 41H277.082C276.997 41 276.933 40.9627 276.89 40.888L273.722 33.912C273.701 33.8587 273.669 33.832 273.626 33.832C273.551 33.832 273.514 33.88 273.514 33.976V40.84C273.514 40.9467 273.461 41 273.354 41H271.242ZM284.955 42.92C284.325 42.92 283.733 42.8507 283.179 42.712C282.635 42.584 282.213 42.408 281.915 42.184C281.691 42.024 281.579 41.8 281.579 41.512V40.056C281.579 39.9493 281.621 39.896 281.707 39.896C281.749 39.896 281.797 39.9227 281.851 39.976C282.235 40.328 282.661 40.6 283.131 40.792C283.6 40.9733 284.155 41.064 284.795 41.064C285.467 41.064 286.005 40.888 286.411 40.536C286.827 40.184 287.035 39.72 287.035 39.144V38.952C287.035 38.888 287.008 38.856 286.955 38.856C286.912 38.856 286.875 38.8773 286.843 38.92C286.629 39.2293 286.336 39.496 285.963 39.72C285.589 39.9333 285.125 40.04 284.571 40.04C283.888 40.04 283.275 39.88 282.731 39.56C282.197 39.24 281.776 38.7813 281.467 38.184C281.168 37.576 281.019 36.8613 281.019 36.04C281.019 35.2187 281.168 34.5093 281.467 33.912C281.776 33.304 282.197 32.84 282.731 32.52C283.275 32.2 283.888 32.04 284.571 32.04C285.573 32.04 286.336 32.408 286.859 33.144C286.891 33.1973 286.928 33.224 286.971 33.224C287.003 33.224 287.029 33.2133 287.051 33.192C287.072 33.16 287.083 33.1227 287.083 33.08V32.36C287.083 32.2533 287.136 32.2 287.243 32.2H289.371C289.424 32.2 289.467 32.216 289.499 32.248C289.531 32.28 289.547 32.3173 289.547 32.36V38.68C289.547 40.088 289.136 41.144 288.315 41.848C287.493 42.5627 286.373 42.92 284.955 42.92ZM285.275 37.928C285.819 37.928 286.245 37.7573 286.555 37.416C286.875 37.064 287.035 36.6053 287.035 36.04C287.035 35.4533 286.875 34.9787 286.555 34.616C286.245 34.2533 285.819 34.072 285.275 34.072C284.731 34.072 284.299 34.2533 283.979 34.616C283.669 34.9787 283.515 35.4533 283.515 36.04C283.515 36.6053 283.669 37.064 283.979 37.416C284.299 37.7573 284.731 37.928 285.275 37.928ZM290.766 41C290.723 41 290.686 40.984 290.654 40.952C290.622 40.92 290.606 40.8827 290.606 40.84V32.152C290.606 31.576 290.579 31.1493 290.526 30.872C290.483 30.5947 290.398 30.296 290.27 29.976L290.254 29.912C290.254 29.8373 290.302 29.8 290.398 29.8H292.91C292.953 29.8 292.99 29.816 293.022 29.848C293.054 29.88 293.07 29.9173 293.07 29.96V33.24C293.07 33.2827 293.075 33.32 293.086 33.352C293.097 33.3733 293.113 33.384 293.134 33.384C293.177 33.384 293.219 33.3467 293.262 33.272C293.497 32.888 293.774 32.5893 294.094 32.376C294.425 32.152 294.91 32.04 295.55 32.04C296.499 32.04 297.214 32.3173 297.694 32.872C298.174 33.4267 298.414 34.1627 298.414 35.08V40.84C298.414 40.8827 298.398 40.92 298.366 40.952C298.334 40.984 298.297 41 298.254 41H296.11C296.067 41 296.03 40.984 295.998 40.952C295.966 40.92 295.95 40.8827 295.95 40.84V35.304C295.95 34.856 295.833 34.52 295.598 34.296C295.363 34.072 295.059 33.96 294.686 33.96C294.163 33.96 293.763 34.1467 293.486 34.52C293.209 34.8933 293.07 35.4267 293.07 36.12V40.84C293.07 40.8827 293.054 40.92 293.022 40.952C292.99 40.984 292.953 41 292.91 41H290.766ZM303.771 41.16C302.8 41.16 301.958 40.9787 301.243 40.616C300.528 40.2533 299.974 39.7307 299.579 39.048C299.195 38.3547 299.003 37.528 299.003 36.568C299.003 35.5973 299.2 34.7707 299.595 34.088C299.99 33.4053 300.512 32.8933 301.163 32.552C301.814 32.2107 302.518 32.04 303.275 32.04C304.502 32.04 305.462 32.3867 306.155 33.08C306.848 33.7627 307.195 34.712 307.195 35.928C307.195 36.1307 307.19 36.2853 307.179 36.392C307.158 36.7227 307.11 36.9627 307.035 37.112C306.971 37.2613 306.864 37.3627 306.715 37.416C306.576 37.4587 306.347 37.48 306.027 37.48H301.755C301.68 37.48 301.632 37.496 301.611 37.528C301.59 37.5493 301.584 37.5867 301.595 37.64C301.659 38.0667 301.899 38.4133 302.315 38.68C302.742 38.936 303.318 39.064 304.043 39.064C304.491 39.064 304.923 39.0107 305.339 38.904C305.766 38.7973 306.134 38.632 306.443 38.408C306.475 38.3867 306.512 38.376 306.555 38.376C306.619 38.376 306.651 38.4133 306.651 38.488V39.992C306.651 40.2053 306.619 40.3707 306.555 40.488C306.491 40.5947 306.368 40.6907 306.187 40.776C305.675 41.032 304.87 41.16 303.771 41.16ZM304.507 35.848C304.635 35.848 304.72 35.816 304.763 35.752C304.816 35.6773 304.843 35.5653 304.843 35.416C304.843 34.968 304.699 34.6213 304.411 34.376C304.123 34.12 303.739 33.992 303.259 33.992C302.779 33.992 302.384 34.1307 302.075 34.408C301.766 34.6853 301.611 35.032 301.611 35.448C301.611 35.7147 301.723 35.848 301.947 35.848H304.507ZM301.739 42.776C301.675 42.776 301.643 42.744 301.643 42.68V42.04C301.643 41.976 301.675 41.944 301.739 41.944H304.427C304.491 41.944 304.523 41.976 304.523 42.04V42.68C304.523 42.744 304.491 42.776 304.427 42.776H301.739ZM301.067 31.544C300.96 31.5333 300.907 31.4853 300.907 31.4V30.792C300.907 30.728 300.939 30.696 301.003 30.696C301.43 30.7067 301.792 30.648 302.091 30.52C302.4 30.392 302.726 30.1307 303.067 29.736C303.12 29.6827 303.174 29.656 303.227 29.656C303.28 29.656 303.334 29.6827 303.387 29.736C303.728 30.1307 304.048 30.392 304.347 30.52C304.656 30.648 305.024 30.7067 305.451 30.696C305.515 30.696 305.547 30.728 305.547 30.792V31.4C305.547 31.4853 305.494 31.5333 305.387 31.544C305.334 31.5547 305.254 31.56 305.147 31.56C304.806 31.56 304.454 31.4907 304.091 31.352C303.728 31.2027 303.44 30.9893 303.227 30.712C302.992 31.0213 302.656 31.2507 302.219 31.4C301.792 31.5387 301.408 31.5867 301.067 31.544ZM309.96 41C309.896 41 309.848 40.984 309.816 40.952C309.784 40.9093 309.779 40.8507 309.8 40.776L313.144 30.072C313.198 29.8907 313.315 29.8 313.496 29.8H316.504C316.686 29.8 316.803 29.8907 316.856 30.072L320.216 40.776C320.227 40.7973 320.232 40.824 320.232 40.856C320.232 40.952 320.174 41 320.056 41H317.736C317.63 41 317.56 40.9467 317.528 40.84L317.08 39.256C317.059 39.1707 317 39.128 316.904 39.128H312.936C312.84 39.128 312.782 39.1707 312.76 39.256L312.312 40.84C312.28 40.9467 312.211 41 312.104 41H309.96ZM316.296 37.08C316.35 37.08 316.387 37.064 316.408 37.032C316.44 37 316.451 36.9573 316.44 36.904L315.08 32.232C315.048 32.1147 314.995 32.056 314.92 32.056C314.846 32.056 314.792 32.1147 314.76 32.232L313.4 36.904L313.384 36.952C313.384 37.0373 313.438 37.08 313.544 37.08H316.296ZM320.922 41C320.88 41 320.842 40.984 320.81 40.952C320.778 40.92 320.762 40.8827 320.762 40.84V34.552C320.762 33.976 320.736 33.5493 320.682 33.272C320.64 32.9947 320.554 32.696 320.426 32.376L320.41 32.312C320.41 32.2373 320.458 32.2 320.554 32.2H322.954C322.997 32.2 323.034 32.216 323.066 32.248C323.098 32.28 323.114 32.3173 323.114 32.36V33.304C323.114 33.4 323.141 33.448 323.194 33.448C323.237 33.448 323.274 33.4107 323.306 33.336C323.754 32.472 324.554 32.04 325.706 32.04C326.656 32.04 327.37 32.3173 327.85 32.872C328.33 33.4267 328.57 34.1627 328.57 35.08V40.84C328.57 40.8827 328.554 40.92 328.522 40.952C328.49 40.984 328.453 41 328.41 41H326.266C326.224 41 326.186 40.984 326.154 40.952C326.122 40.92 326.106 40.8827 326.106 40.84V35.304C326.106 34.856 325.989 34.52 325.754 34.296C325.52 34.072 325.216 33.96 324.842 33.96C324.32 33.96 323.92 34.1467 323.642 34.52C323.365 34.8933 323.226 35.4267 323.226 36.12V40.84C323.226 40.8827 323.21 40.92 323.178 40.952C323.146 40.984 323.109 41 323.066 41H320.922ZM330.915 34.536C330.499 34.536 330.168 34.4187 329.923 34.184C329.678 33.9493 329.555 33.6507 329.555 33.288C329.555 32.936 329.678 32.6427 329.923 32.408C330.168 32.1627 330.499 32.04 330.915 32.04C331.331 32.04 331.662 32.1627 331.907 32.408C332.152 32.6427 332.275 32.936 332.275 33.288C332.275 33.6507 332.152 33.9493 331.907 34.184C331.662 34.4187 331.331 34.536 330.915 34.536ZM330.915 41.16C330.499 41.16 330.168 41.0427 329.923 40.808C329.678 40.5733 329.555 40.2747 329.555 39.912C329.555 39.56 329.678 39.2667 329.923 39.032C330.168 38.7867 330.499 38.664 330.915 38.664C331.331 38.664 331.662 38.7867 331.907 39.032C332.152 39.2667 332.275 39.56 332.275 39.912C332.275 40.2747 332.152 40.5733 331.907 40.808C331.662 41.0427 331.331 41.16 330.915 41.16Z" fill="white"/>
<path d="M101.521 74.32C97.4566 74.32 95.0566 70.832 95.0566 62.8C95.0566 54.768 97.4566 51.28 101.521 51.28C102.545 51.28 103.601 51.536 104.337 52.112C104.977 52.624 105.105 53.264 105.105 54.032V56.688C105.105 57.168 104.913 57.392 104.625 57.392C104.273 57.392 104.049 57.104 103.761 56.752C103.441 56.368 103.025 55.952 102.321 55.952C100.721 55.952 99.9206 57.968 99.9206 62.8C99.9206 67.632 100.721 69.648 102.321 69.648C103.025 69.648 103.441 69.232 103.761 68.848C104.049 68.496 104.241 68.208 104.593 68.208C104.881 68.208 105.105 68.432 105.105 68.912V71.568C105.105 72.336 104.977 72.976 104.337 73.488C103.601 74.064 102.545 74.32 101.521 74.32ZM106.188 74C105.836 74 105.644 73.84 105.676 73.52L107.692 54.704C107.82 53.488 107.756 52.88 107.628 52.208C107.564 51.792 107.756 51.6 108.044 51.6H115.436C115.724 51.6 115.916 51.792 115.82 52.208C115.692 52.816 115.596 53.392 115.724 54.704L117.74 73.52C117.772 73.84 117.58 74 117.228 74H113.708C113.42 74 113.228 73.84 113.196 73.584L112.908 70.768C112.876 70.448 112.716 70.288 112.396 70.288H110.764C110.444 70.288 110.252 70.448 110.22 70.768L109.932 73.584C109.9 73.872 109.676 74 109.42 74H106.188ZM112.044 66C112.396 66 112.46 65.84 112.428 65.584C112.204 62.992 112.044 61.168 111.916 57.616C111.916 57.328 111.788 57.168 111.564 57.168C111.34 57.168 111.212 57.328 111.212 57.616C111.084 61.168 110.924 62.992 110.7 65.584C110.668 65.84 110.732 66 111.084 66H112.044ZM119.426 74C119.01 74 118.786 73.776 118.786 73.36V56.624C118.786 53.872 118.69 53.424 118.402 52.08C118.338 51.792 118.498 51.6 118.786 51.6H124.546C125.25 51.6 125.506 51.792 125.57 52.528L126.466 62.512C126.498 62.768 126.594 62.864 126.754 62.864C126.914 62.864 127.042 62.768 127.074 62.512L127.97 52.528C128.034 51.792 128.29 51.6 128.994 51.6H134.978C135.266 51.6 135.426 51.792 135.362 52.08C135.074 53.424 134.978 53.872 134.978 56.624V73.36C134.978 73.776 134.754 74 134.338 74H131.234C130.818 74 130.594 73.776 130.594 73.36C130.594 68.848 130.658 63.856 130.722 59.024C130.722 58.8 130.658 58.64 130.434 58.64C130.274 58.64 130.146 58.736 130.114 58.992L128.354 73.392C128.29 73.808 128.034 74 127.65 74H125.794C125.41 74 125.154 73.808 125.09 73.392L123.33 58.96C123.298 58.736 123.202 58.64 123.01 58.64C122.786 58.64 122.722 58.832 122.722 59.024C122.786 63.856 122.85 68.848 122.85 73.36C122.85 73.776 122.626 74 122.21 74H119.426ZM141.238 74C140.822 74 140.598 73.776 140.598 73.36V56.944C140.598 54.192 140.502 53.424 140.214 52.08C140.15 51.792 140.31 51.6 140.598 51.6H145.238C145.526 51.6 145.686 51.792 145.622 52.08C145.334 53.424 145.238 54.192 145.238 56.944V60.24C145.238 60.496 145.302 60.656 145.494 60.656C145.654 60.656 145.782 60.56 145.878 60.144L146.966 55.12C147.318 53.456 147.062 52.784 146.966 52.08C146.934 51.856 147.03 51.6 147.286 51.6H151.798C152.15 51.6 152.31 51.824 152.214 52.144C151.958 52.88 151.638 53.584 151.318 54.992L150.646 57.936C150.262 59.632 149.942 60.912 149.942 62.256C149.942 63.472 150.23 64.688 150.55 66.192L152.022 73.296C152.086 73.68 151.99 74 151.446 74H148.022C147.606 74 147.318 73.808 147.254 73.36L145.846 64.656C145.782 64.336 145.686 64.24 145.526 64.24C145.334 64.24 145.238 64.4 145.238 64.688V73.36C145.238 73.776 145.014 74 144.598 74H141.238ZM153.926 74C153.51 74 153.286 73.776 153.286 73.36V56.944C153.286 54.192 153.19 53.424 152.902 52.08C152.838 51.792 152.998 51.6 153.286 51.6H161.798C161.99 51.6 162.118 51.728 162.118 51.92V56.368C162.118 56.72 161.83 56.784 161.478 56.592C160.262 55.952 159.59 55.728 158.854 55.728C158.118 55.728 157.926 56.016 157.926 56.528V60.112C157.926 60.304 158.054 60.432 158.246 60.432H161.286C161.478 60.432 161.606 60.56 161.606 60.752V64.56C161.606 64.752 161.478 64.88 161.286 64.88H158.246C158.054 64.88 157.926 65.008 157.926 65.2V69.2C157.926 69.392 158.054 69.52 158.246 69.52H161.894C162.086 69.52 162.214 69.648 162.214 69.84V73.68C162.214 73.872 162.086 74 161.894 74H153.926ZM155.11 50.704C154.822 50.704 154.758 50.544 154.758 50.352V49.808C154.758 49.648 154.822 49.52 155.046 49.488C156.006 49.328 156.614 49.04 157.286 48.496C157.446 48.368 157.574 48.272 157.734 48.272C157.894 48.272 158.022 48.368 158.182 48.496C158.854 49.04 159.462 49.328 160.422 49.488C160.646 49.52 160.71 49.648 160.71 49.808V50.352C160.71 50.544 160.646 50.704 160.358 50.704C159.398 50.704 158.278 50.192 157.734 49.616C157.19 50.192 156.07 50.704 155.11 50.704ZM155.494 47.792C155.206 47.792 155.11 47.696 155.11 47.44V46.992C155.11 46.832 155.206 46.736 155.366 46.736C156.742 46.704 158.502 46.448 160.198 45.84C160.454 45.744 160.582 45.872 160.582 46.032V46.576C160.582 46.864 160.486 46.992 160.166 47.12C158.502 47.728 156.39 47.792 155.494 47.792ZM166.705 74C166.289 74 166.065 73.776 166.065 73.36V56.24C166.065 55.952 165.937 55.696 165.457 55.696C164.945 55.696 164.625 55.952 163.761 56.656C163.313 57.008 162.897 57.136 162.897 56.592V52.24C162.897 51.824 163.121 51.6 163.537 51.6H173.233C173.649 51.6 173.873 51.824 173.873 52.24V56.592C173.873 57.136 173.457 57.008 173.009 56.656C172.145 55.952 171.825 55.696 171.313 55.696C170.833 55.696 170.705 55.952 170.705 56.24V73.36C170.705 73.776 170.481 74 170.065 74H166.705ZM179.551 74C179.135 74 178.911 73.776 178.911 73.36V56.944C178.911 54.192 178.815 53.424 178.527 52.08C178.463 51.792 178.623 51.6 178.911 51.6H184.063C188.447 51.6 190.815 54.768 190.815 62.8C190.815 70.832 188.447 74 184.063 74H179.551ZM183.967 69.616C184.991 69.616 185.951 68.56 185.951 62.8C185.951 57.04 184.991 55.984 183.967 55.984H183.871C183.679 55.984 183.551 56.112 183.551 56.304V69.296C183.551 69.488 183.679 69.616 183.871 69.616H183.967ZM197.73 74.32C194.146 74.32 192.098 72.144 192.098 68.208V56.944C192.098 54.192 192.002 53.424 191.714 52.08C191.65 51.792 191.81 51.6 192.098 51.6H196.738C197.026 51.6 197.186 51.792 197.122 52.08C196.834 53.424 196.738 54.192 196.738 56.944V68.272C196.738 69.104 197.122 69.552 197.73 69.552C198.306 69.552 198.69 69.104 198.69 68.272V56.944C198.69 54.192 198.594 53.424 198.306 52.08C198.242 51.792 198.402 51.6 198.69 51.6H203.33C203.618 51.6 203.778 51.792 203.714 52.08C203.426 53.424 203.33 54.192 203.33 56.944V68.208C203.33 72.144 201.282 74.32 197.73 74.32ZM208.748 74C208.332 74 208.108 73.776 208.108 73.36V70.96C208.108 68.912 207.98 68.112 207.276 64.944L205.164 55.568C204.78 53.872 204.588 53.36 203.98 52.048C203.852 51.792 203.98 51.6 204.236 51.6H209.388C209.644 51.6 209.74 51.856 209.708 52.048C209.516 52.784 209.324 53.456 209.708 55.472C209.932 56.688 209.996 57.872 210.22 60.08C210.252 60.4 210.316 60.656 210.572 60.656C210.828 60.656 210.892 60.4 210.924 60.08C211.148 57.872 211.244 56.688 211.468 55.472C211.852 53.456 211.66 52.784 211.468 52.048C211.436 51.856 211.532 51.6 211.788 51.6H216.492C216.748 51.6 216.876 51.792 216.748 52.048C216.14 53.36 215.916 53.872 215.564 55.568L213.612 64.944C212.94 68.112 212.748 68.912 212.748 70.96V73.36C212.748 73.776 212.524 74 212.108 74H208.748ZM224.111 74C223.695 74 223.471 73.776 223.471 73.36V56.24C223.471 55.952 223.343 55.696 222.863 55.696C222.351 55.696 222.031 55.952 221.167 56.656C220.719 57.008 220.303 57.136 220.303 56.592V52.24C220.303 51.824 220.527 51.6 220.943 51.6H230.639C231.055 51.6 231.279 51.824 231.279 52.24V56.592C231.279 57.136 230.863 57.008 230.415 56.656C229.551 55.952 229.231 55.696 228.719 55.696C228.239 55.696 228.111 55.952 228.111 56.24V73.36C228.111 73.776 227.887 74 227.471 74H224.111ZM233.051 74C232.635 74 232.411 73.776 232.411 73.36V56.944C232.411 54.192 232.315 53.424 232.027 52.08C231.963 51.792 232.123 51.6 232.411 51.6H237.595C241.723 51.6 243.611 54.704 243.611 59.472C243.611 61.424 243.195 63.216 242.427 64.432C241.915 65.232 241.851 65.936 242.011 66.608L243.707 73.232C243.771 73.488 243.771 74 243.163 74H239.739C239.355 74 239.131 73.808 239.035 73.392L237.659 67.152C237.595 66.896 237.531 66.672 237.275 66.672C237.051 66.672 236.955 66.864 236.955 67.184V73.36C236.955 73.776 236.731 74 236.315 74H233.051ZM237.531 63.536C238.363 63.536 239.003 62.416 239.003 59.536C239.003 56.688 238.363 55.568 237.531 55.568H237.403C237.115 55.568 236.955 55.728 236.955 56.016V63.088C236.955 63.376 237.115 63.536 237.403 63.536H237.531ZM245.488 74C245.072 74 244.848 73.776 244.848 73.36V56.624C244.848 53.872 244.752 53.424 244.464 52.08C244.4 51.792 244.56 51.6 244.848 51.6H249.488C249.776 51.6 249.936 51.792 249.872 52.08C249.584 53.424 249.488 53.872 249.488 56.624V73.36C249.488 73.776 249.264 74 248.848 74H245.488ZM250.064 50.64C248.88 50.672 246.384 50.544 244.464 49.84C244.144 49.712 244.048 49.584 244.048 49.296V48.656C244.048 48.496 244.176 48.368 244.368 48.432C246.384 49.2 248.496 49.488 250.192 49.488C250.352 49.488 250.448 49.584 250.448 49.744V50.288C250.448 50.544 250.352 50.64 250.064 50.64ZM258.33 74C257.914 74 257.69 73.776 257.69 73.36V56.24C257.69 55.952 257.562 55.696 257.082 55.696C256.57 55.696 256.25 55.952 255.386 56.656C254.938 57.008 254.522 57.136 254.522 56.592V52.24C254.522 51.824 254.746 51.6 255.162 51.6H264.858C265.274 51.6 265.498 51.824 265.498 52.24V56.592C265.498 57.136 265.082 57.008 264.634 56.656C263.77 55.952 263.45 55.696 262.938 55.696C262.458 55.696 262.33 55.952 262.33 56.24V73.36C262.33 73.776 262.106 74 261.69 74H258.33ZM267.27 74C266.854 74 266.63 73.776 266.63 73.36V56.944C266.63 54.192 266.534 53.424 266.246 52.08C266.182 51.792 266.342 51.6 266.63 51.6H271.814C275.942 51.6 277.83 54.704 277.83 59.472C277.83 61.424 277.414 63.216 276.646 64.432C276.134 65.232 276.07 65.936 276.23 66.608L277.926 73.232C277.99 73.488 277.99 74 277.382 74H273.958C273.574 74 273.35 73.808 273.254 73.392L271.878 67.152C271.814 66.896 271.75 66.672 271.494 66.672C271.27 66.672 271.174 66.864 271.174 67.184V73.36C271.174 73.776 270.95 74 270.534 74H267.27ZM271.75 63.536C272.582 63.536 273.222 62.416 273.222 59.536C273.222 56.688 272.582 55.568 271.75 55.568H271.622C271.334 55.568 271.174 55.728 271.174 56.016V63.088C271.174 63.376 271.334 63.536 271.622 63.536H271.75ZM284.667 74.32C281.083 74.32 279.035 72.144 279.035 68.208V56.944C279.035 54.192 278.939 53.424 278.651 52.08C278.587 51.792 278.747 51.6 279.035 51.6H283.675C283.963 51.6 284.123 51.792 284.059 52.08C283.771 53.424 283.675 54.192 283.675 56.944V68.272C283.675 69.104 284.059 69.552 284.667 69.552C285.243 69.552 285.627 69.104 285.627 68.272V56.944C285.627 54.192 285.531 53.424 285.243 52.08C285.179 51.792 285.339 51.6 285.627 51.6H290.267C290.555 51.6 290.715 51.792 290.651 52.08C290.363 53.424 290.267 54.192 290.267 56.944V68.208C290.267 72.144 288.219 74.32 284.667 74.32ZM292.613 74C292.197 74 291.973 73.776 291.973 73.36V56.624C291.973 53.872 291.877 53.424 291.589 52.08C291.525 51.792 291.685 51.6 291.973 51.6H295.685C296.069 51.6 296.325 51.792 296.389 52.144L298.437 61.84C298.469 62.064 298.597 62.192 298.789 62.192C299.013 62.192 299.077 62.032 299.077 61.776C299.045 60.912 299.109 58.128 299.045 56.304C298.949 53.872 298.853 53.424 298.565 52.08C298.501 51.792 298.661 51.6 298.949 51.6H303.141C303.429 51.6 303.589 51.792 303.525 52.08C303.237 53.424 303.141 53.872 303.141 56.624V73.36C303.141 73.776 302.917 74 302.501 74H299.429C299.045 74 298.789 73.808 298.725 73.456L296.645 63.728C296.613 63.504 296.485 63.408 296.325 63.408C296.133 63.408 296.005 63.536 296.005 63.792C296.101 65.936 296.197 70.384 296.197 73.36C296.197 73.776 295.973 74 295.557 74H292.613ZM310.8 74.32C306.32 74.32 304.432 70.512 304.432 62.8C304.432 54.736 306.864 51.28 311.056 51.28C312.272 51.28 313.552 51.472 314.256 52.208C314.64 52.592 314.8 53.072 314.8 53.744V56.656C314.8 57.072 314.704 57.424 314.32 57.424C314.096 57.424 313.904 57.328 313.488 56.848C313.136 56.432 312.688 55.952 311.92 55.952C310.128 55.952 309.264 58.064 309.264 62.864C309.264 64.176 309.328 69.968 310.704 69.968C310.992 69.968 311.12 69.68 311.12 69.232V66.416C311.12 63.664 311.024 63.216 310.736 61.872C310.672 61.584 310.832 61.392 311.12 61.392H314.576C314.992 61.392 315.248 61.616 315.248 62.032V69.072C315.248 72.976 313.168 74.32 310.8 74.32ZM321.145 74C320.729 74 320.505 73.776 320.505 73.36V56.944C320.505 54.192 320.409 53.424 320.121 52.08C320.057 51.792 320.217 51.6 320.505 51.6H325.145C325.433 51.6 325.593 51.792 325.529 52.08C325.241 53.424 325.145 54.192 325.145 56.944V59.664C325.145 59.792 325.209 59.856 325.337 59.856H327.193C327.321 59.856 327.385 59.792 327.385 59.664V56.944C327.385 54.192 327.289 53.424 327.001 52.08C326.937 51.792 327.097 51.6 327.385 51.6H332.025C332.313 51.6 332.473 51.792 332.409 52.08C332.121 53.424 332.025 54.192 332.025 56.944V73.36C332.025 73.776 331.801 74 331.385 74H328.025C327.609 74 327.385 73.776 327.385 73.36V65.008C327.385 64.88 327.321 64.816 327.193 64.816H325.337C325.209 64.816 325.145 64.88 325.145 65.008V73.36C325.145 73.776 324.921 74 324.505 74H321.145ZM339.547 74.32C335.739 74.32 333.339 71.472 333.339 62.8C333.339 54.128 335.739 51.28 339.547 51.28C343.355 51.28 345.787 54.128 345.787 62.8C345.787 71.472 343.355 74.32 339.547 74.32ZM339.547 69.84C340.283 69.84 340.891 69.008 340.891 62.8C340.891 56.56 340.283 55.76 339.547 55.76C338.811 55.76 338.235 56.56 338.235 62.8C338.235 69.008 338.811 69.84 339.547 69.84ZM342.395 50.64C341.211 50.672 338.715 50.544 336.795 49.84C336.475 49.712 336.379 49.584 336.379 49.296V48.656C336.379 48.496 336.507 48.368 336.699 48.432C338.715 49.2 340.827 49.488 342.523 49.488C342.683 49.488 342.779 49.584 342.779 49.744V50.288C342.779 50.544 342.683 50.64 342.395 50.64ZM346.626 74C346.274 74 346.082 73.84 346.114 73.52L348.13 54.704C348.258 53.488 348.194 52.88 348.066 52.208C348.002 51.792 348.194 51.6 348.482 51.6H355.874C356.162 51.6 356.354 51.792 356.258 52.208C356.13 52.816 356.034 53.392 356.162 54.704L358.178 73.52C358.21 73.84 358.018 74 357.666 74H354.146C353.858 74 353.666 73.84 353.634 73.584L353.346 70.768C353.314 70.448 353.154 70.288 352.834 70.288H351.202C350.882 70.288 350.69 70.448 350.658 70.768L350.37 73.584C350.338 73.872 350.114 74 349.858 74H346.626ZM352.482 66C352.834 66 352.898 65.84 352.866 65.584C352.642 62.992 352.482 61.168 352.354 57.616C352.354 57.328 352.226 57.168 352.002 57.168C351.778 57.168 351.65 57.328 351.65 57.616C351.522 61.168 351.362 62.992 351.138 65.584C351.106 65.84 351.17 66 351.522 66H352.482ZM125.567 108C125.151 108 124.927 107.776 124.927 107.36V90.944C124.927 88.192 124.831 87.424 124.543 86.08C124.479 85.792 124.639 85.6 124.927 85.6H129.567C129.855 85.6 130.015 85.792 129.951 86.08C129.663 87.424 129.567 88.192 129.567 90.944V94.24C129.567 94.496 129.631 94.656 129.823 94.656C129.983 94.656 130.111 94.56 130.207 94.144L131.295 89.12C131.647 87.456 131.391 86.784 131.295 86.08C131.263 85.856 131.359 85.6 131.615 85.6H136.127C136.479 85.6 136.639 85.824 136.543 86.144C136.287 86.88 135.967 87.584 135.647 88.992L134.975 91.936C134.591 93.632 134.271 94.912 134.271 96.256C134.271 97.472 134.559 98.688 134.879 100.192L136.351 107.296C136.415 107.68 136.319 108 135.775 108H132.351C131.935 108 131.647 107.808 131.583 107.36L130.175 98.656C130.111 98.336 130.015 98.24 129.855 98.24C129.663 98.24 129.567 98.4 129.567 98.688V107.36C129.567 107.776 129.343 108 128.927 108H125.567ZM138.254 108C137.838 108 137.614 107.776 137.614 107.36V90.944C137.614 88.192 137.518 87.424 137.23 86.08C137.166 85.792 137.326 85.6 137.614 85.6H142.254C142.542 85.6 142.702 85.792 142.638 86.08C142.35 87.424 142.254 88.192 142.254 90.944V93.664C142.254 93.792 142.318 93.856 142.446 93.856H144.302C144.43 93.856 144.494 93.792 144.494 93.664V90.944C144.494 88.192 144.398 87.424 144.11 86.08C144.046 85.792 144.206 85.6 144.494 85.6H149.134C149.422 85.6 149.582 85.792 149.518 86.08C149.23 87.424 149.134 88.192 149.134 90.944V107.36C149.134 107.776 148.91 108 148.494 108H145.134C144.718 108 144.494 107.776 144.494 107.36V99.008C144.494 98.88 144.43 98.816 144.302 98.816H142.446C142.318 98.816 142.254 98.88 142.254 99.008V107.36C142.254 107.776 142.03 108 141.614 108H138.254ZM156.656 108.32C152.848 108.32 150.448 105.472 150.448 96.8C150.448 88.128 152.848 85.28 156.656 85.28C160.464 85.28 162.896 88.128 162.896 96.8C162.896 105.472 160.464 108.32 156.656 108.32ZM156.656 103.84C157.392 103.84 158 103.008 158 96.8C158 90.56 157.392 89.76 156.656 89.76C155.92 89.76 155.344 90.56 155.344 96.8C155.344 103.008 155.92 103.84 156.656 103.84ZM163.735 108C163.383 108 163.191 107.84 163.223 107.52L165.239 88.704C165.367 87.488 165.303 86.88 165.175 86.208C165.111 85.792 165.303 85.6 165.591 85.6H172.983C173.271 85.6 173.463 85.792 173.367 86.208C173.239 86.816 173.143 87.392 173.271 88.704L175.287 107.52C175.319 107.84 175.127 108 174.775 108H171.255C170.967 108 170.775 107.84 170.743 107.584L170.455 104.768C170.423 104.448 170.263 104.288 169.943 104.288H168.311C167.991 104.288 167.799 104.448 167.767 104.768L167.479 107.584C167.447 107.872 167.223 108 166.967 108H163.735ZM169.591 100C169.943 100 170.007 99.84 169.975 99.584C169.751 96.992 169.591 95.168 169.463 91.616C169.463 91.328 169.335 91.168 169.111 91.168C168.887 91.168 168.759 91.328 168.759 91.616C168.631 95.168 168.471 96.992 168.247 99.584C168.215 99.84 168.279 100 168.631 100H169.591ZM168.983 84.672C168.663 84.672 168.503 84.48 168.503 84.16C168.503 83.936 168.567 83.744 168.919 83.584L169.527 83.328C169.751 83.232 169.911 83.136 169.911 82.912C169.911 82.688 169.655 82.592 169.335 82.592C168.951 82.592 168.631 82.784 168.247 83.136C168.055 83.296 167.831 83.232 167.831 83.04V82.368C167.831 82.112 167.863 81.888 168.183 81.696C168.439 81.536 168.823 81.408 169.367 81.408C170.519 81.408 171.255 81.952 171.255 82.848C171.255 83.456 170.871 83.84 170.231 84.128C169.879 84.288 169.751 84.352 169.655 84.512C169.591 84.608 169.527 84.672 169.335 84.672H168.983ZM176.973 108C176.557 108 176.333 107.776 176.333 107.36V90.624C176.333 87.872 176.237 87.424 175.949 86.08C175.885 85.792 176.045 85.6 176.333 85.6H180.045C180.429 85.6 180.685 85.792 180.749 86.144L182.797 95.84C182.829 96.064 182.957 96.192 183.149 96.192C183.373 96.192 183.437 96.032 183.437 95.776C183.405 94.912 183.469 92.128 183.405 90.304C183.309 87.872 183.213 87.424 182.925 86.08C182.861 85.792 183.021 85.6 183.309 85.6H187.501C187.789 85.6 187.949 85.792 187.885 86.08C187.597 87.424 187.501 87.872 187.501 90.624V107.36C187.501 107.776 187.277 108 186.861 108H183.789C183.405 108 183.149 107.808 183.085 107.456L181.005 97.728C180.973 97.504 180.845 97.408 180.685 97.408C180.493 97.408 180.365 97.536 180.365 97.792C180.461 99.936 180.557 104.384 180.557 107.36C180.557 107.776 180.333 108 179.917 108H176.973ZM195.159 108.32C190.679 108.32 188.791 104.512 188.791 96.8C188.791 88.736 191.223 85.28 195.415 85.28C196.631 85.28 197.911 85.472 198.615 86.208C198.999 86.592 199.159 87.072 199.159 87.744V90.656C199.159 91.072 199.063 91.424 198.679 91.424C198.455 91.424 198.263 91.328 197.847 90.848C197.495 90.432 197.047 89.952 196.279 89.952C194.487 89.952 193.623 92.064 193.623 96.864C193.623 98.176 193.687 103.968 195.063 103.968C195.351 103.968 195.479 103.68 195.479 103.232V100.416C195.479 97.664 195.383 97.216 195.095 95.872C195.031 95.584 195.191 95.392 195.479 95.392H198.935C199.351 95.392 199.607 95.616 199.607 96.032V103.072C199.607 106.976 197.527 108.32 195.159 108.32ZM208.448 108.32C206.752 108.32 205.824 107.84 205.44 107.584C204.768 107.168 204.512 106.624 204.512 105.92V102.592C204.512 102.368 204.64 102.208 204.832 102.208C204.96 102.208 205.088 102.24 205.312 102.464C205.824 102.976 206.528 103.776 207.744 103.776C209.28 103.776 209.984 102.528 209.984 100.64C209.984 98.656 209.184 97.216 207.296 97.216C206.368 97.216 205.92 97.504 205.376 97.504C205.12 97.504 204.992 97.344 204.992 97.024L205.12 86.24C205.12 85.824 205.376 85.6 205.728 85.6H213.472C213.664 85.6 213.792 85.728 213.792 85.92V89.76C213.792 89.952 213.664 90.08 213.472 90.08H209.568C209.088 90.08 208.928 90.24 208.928 90.72V92.896C208.928 93.408 209.056 93.536 209.568 93.536C212.864 93.536 214.528 96.32 214.528 100.512C214.528 105.28 212.384 108.32 208.448 108.32ZM217.666 108.32C215.938 108.32 214.946 107.232 214.946 105.824C214.946 104.448 215.938 103.328 217.666 103.328C219.394 103.328 220.386 104.448 220.386 105.824C220.386 107.232 219.394 108.32 217.666 108.32ZM226.085 108.32C222.309 108.32 220.389 104.448 220.389 96.8C220.389 89.152 222.309 85.28 226.085 85.28C229.861 85.28 231.781 89.152 231.781 96.8C231.781 104.448 229.861 108.32 226.085 108.32ZM226.085 104C226.981 104 227.333 101.984 227.333 96.8C227.333 91.616 226.981 89.6 226.085 89.6C225.189 89.6 224.837 91.616 224.837 96.8C224.837 101.984 225.189 104 226.085 104ZM233.119 108C232.735 108 232.511 107.776 232.511 107.36V104.384C232.511 103.84 232.607 103.552 233.023 102.688L234.559 99.552C236.351 95.904 237.375 93.76 237.375 92.128C237.375 91.136 236.863 90.304 235.839 90.304C234.879 90.304 234.399 90.816 233.599 91.808C233.407 92.032 233.279 92.096 233.087 92.096C232.895 92.096 232.735 91.936 232.735 91.648V88.192C232.735 87.68 232.767 87.168 233.151 86.656C233.695 85.952 234.943 85.28 236.735 85.28C240.063 85.28 241.951 87.712 241.951 91.392C241.951 94.464 240.927 96.96 239.007 100.608L238.335 101.888C238.111 102.336 237.855 102.752 237.855 103.04C237.855 103.2 237.951 103.328 238.239 103.328H241.535C241.919 103.328 242.143 103.552 242.143 103.968V107.36C242.143 107.776 241.919 108 241.535 108H233.119ZM244.867 108C244.259 108 244.035 107.84 244.067 107.2C244.227 101.504 245.251 96.32 248.035 91.072C248.291 90.592 248.387 90.272 247.715 90.272H243.459C243.043 90.272 242.819 90.048 242.819 89.632V86.24C242.819 85.824 243.043 85.6 243.459 85.6H252.483C252.899 85.6 253.123 85.824 253.123 86.24V88.768C253.123 89.376 253.027 89.792 252.739 90.368C250.019 95.936 248.835 101.376 248.867 107.264C248.867 107.84 248.707 108 248.131 108H244.867ZM261.408 108C260.992 108 260.768 107.776 260.768 107.36V90.24C260.768 89.952 260.64 89.696 260.16 89.696C259.648 89.696 259.328 89.952 258.464 90.656C258.016 91.008 257.6 91.136 257.6 90.592V86.24C257.6 85.824 257.824 85.6 258.24 85.6H267.936C268.352 85.6 268.576 85.824 268.576 86.24V90.592C268.576 91.136 268.16 91.008 267.712 90.656C266.848 89.952 266.528 89.696 266.016 89.696C265.536 89.696 265.408 89.952 265.408 90.24V107.36C265.408 107.776 265.184 108 264.768 108H261.408ZM268.579 108C268.227 108 268.035 107.84 268.067 107.52L270.083 88.704C270.211 87.488 270.147 86.88 270.019 86.208C269.955 85.792 270.147 85.6 270.435 85.6H277.827C278.115 85.6 278.307 85.792 278.211 86.208C278.083 86.816 277.987 87.392 278.115 88.704L280.131 107.52C280.163 107.84 279.971 108 279.619 108H276.099C275.811 108 275.619 107.84 275.587 107.584L275.299 104.768C275.267 104.448 275.107 104.288 274.787 104.288H273.155C272.835 104.288 272.643 104.448 272.611 104.768L272.323 107.584C272.291 107.872 272.067 108 271.811 108H268.579ZM274.435 100C274.787 100 274.851 99.84 274.819 99.584C274.595 96.992 274.435 95.168 274.307 91.616C274.307 91.328 274.179 91.168 273.955 91.168C273.731 91.168 273.603 91.328 273.603 91.616C273.475 95.168 273.315 96.992 273.091 99.584C273.059 99.84 273.123 100 273.475 100H274.435ZM271.491 84.704C271.203 84.704 271.139 84.544 271.139 84.352V83.808C271.139 83.648 271.203 83.52 271.427 83.488C272.387 83.328 272.995 83.04 273.667 82.496C273.827 82.368 273.955 82.272 274.115 82.272C274.275 82.272 274.403 82.368 274.563 82.496C275.235 83.04 275.843 83.328 276.803 83.488C277.027 83.52 277.091 83.648 277.091 83.808V84.352C277.091 84.544 277.027 84.704 276.739 84.704C275.779 84.704 274.659 84.192 274.115 83.616C273.571 84.192 272.451 84.704 271.491 84.704ZM271.875 81.792C271.587 81.792 271.491 81.696 271.491 81.44V80.992C271.491 80.832 271.587 80.736 271.747 80.736C273.123 80.704 274.883 80.448 276.579 79.84C276.835 79.744 276.963 79.872 276.963 80.032V80.576C276.963 80.864 276.867 80.992 276.547 81.12C274.883 81.728 272.771 81.792 271.875 81.792ZM281.817 108C281.401 108 281.177 107.776 281.177 107.36V90.624C281.177 87.872 281.081 87.424 280.793 86.08C280.729 85.792 280.889 85.6 281.177 85.6H284.889C285.273 85.6 285.529 85.792 285.593 86.144L287.641 95.84C287.673 96.064 287.801 96.192 287.993 96.192C288.217 96.192 288.281 96.032 288.281 95.776C288.249 94.912 288.312 92.128 288.249 90.304C288.153 87.872 288.057 87.424 287.769 86.08C287.705 85.792 287.865 85.6 288.153 85.6H292.345C292.633 85.6 292.793 85.792 292.729 86.08C292.441 87.424 292.345 87.872 292.345 90.624V107.36C292.345 107.776 292.121 108 291.705 108H288.633C288.249 108 287.993 107.808 287.929 107.456L285.849 97.728C285.817 97.504 285.689 97.408 285.529 97.408C285.337 97.408 285.209 97.536 285.209 97.792C285.305 99.936 285.401 104.384 285.401 107.36C285.401 107.776 285.177 108 284.761 108H281.817ZM304.005 108.32C299.941 108.32 297.541 104.832 297.541 96.8C297.541 88.768 299.941 85.28 304.005 85.28C305.029 85.28 306.085 85.536 306.821 86.112C307.461 86.624 307.589 87.264 307.589 88.032V90.688C307.589 91.168 307.397 91.392 307.109 91.392C306.757 91.392 306.533 91.104 306.245 90.752C305.925 90.368 305.509 89.952 304.805 89.952C303.205 89.952 302.405 91.968 302.405 96.8C302.405 101.632 303.205 103.648 304.805 103.648C305.509 103.648 305.925 103.232 306.245 102.848C306.533 102.496 306.725 102.208 307.077 102.208C307.365 102.208 307.589 102.432 307.589 102.912V105.568C307.589 106.336 307.461 106.976 306.821 107.488C306.085 108.064 305.029 108.32 304.005 108.32ZM314.054 108.32C310.278 108.32 308.358 104.448 308.358 96.8C308.358 89.152 310.278 85.28 314.054 85.28C317.83 85.28 319.75 89.152 319.75 96.8C319.75 104.448 317.83 108.32 314.054 108.32ZM314.054 104C314.95 104 315.302 101.984 315.302 96.8C315.302 91.616 314.95 89.6 314.054 89.6C313.158 89.6 312.806 91.616 312.806 96.8C312.806 101.984 313.158 104 314.054 104ZM321.88 110.464C321.592 110.464 321.4 110.272 321.4 109.984V107.968C321.4 107.424 321.496 107.104 321.976 106.528L323.64 104.48C324.184 103.808 324.344 103.456 324.344 103.008C324.344 102.624 324.088 102.368 323.608 102.368C323.192 102.368 322.776 102.56 322.232 103.104C322.04 103.296 321.944 103.36 321.816 103.36C321.688 103.36 321.592 103.264 321.592 103.104V100.768C321.592 100.16 321.656 99.968 321.88 99.648C322.168 99.264 323.064 98.784 324.28 98.784C326.424 98.784 327.672 100.032 327.672 102.336C327.672 103.84 327.128 105.024 326.488 105.76L325.752 106.624C325.624 106.752 325.56 106.912 325.56 106.976C325.56 107.072 325.624 107.2 325.816 107.2H327.48C327.768 107.2 327.96 107.36 327.96 107.68V109.984C327.96 110.272 327.768 110.464 327.48 110.464H321.88Z" fill="white"/>
<path d="M169.72 131.96C169.667 131.96 169.619 131.944 169.576 131.912C169.544 131.891 169.501 131.837 169.448 131.752C168.968 130.963 168.584 130.019 168.296 128.92C168.008 127.811 167.864 126.685 167.864 125.544C167.864 124.392 168.008 123.267 168.296 122.168C168.584 121.059 168.968 120.109 169.448 119.32C169.501 119.235 169.544 119.181 169.576 119.16C169.619 119.128 169.667 119.112 169.72 119.112H170.84C170.893 119.112 170.925 119.128 170.936 119.16C170.957 119.192 170.952 119.229 170.92 119.272C170.408 120.125 170.008 121.101 169.72 122.2C169.432 123.288 169.288 124.403 169.288 125.544C169.288 126.664 169.432 127.773 169.72 128.872C170.019 129.971 170.419 130.947 170.92 131.8L170.952 131.88C170.952 131.933 170.915 131.96 170.84 131.96H169.72ZM174.949 131.16C174.021 131.16 173.216 131 172.533 130.68C171.85 130.349 171.509 129.848 171.509 129.176V127.816C171.509 127.699 171.546 127.64 171.621 127.64C171.664 127.64 171.706 127.677 171.749 127.752C172.09 128.339 172.528 128.797 173.061 129.128C173.594 129.448 174.261 129.608 175.061 129.608C175.797 129.608 176.362 129.459 176.757 129.16C177.162 128.851 177.365 128.424 177.365 127.88C177.365 127.411 177.232 127.059 176.965 126.824C176.709 126.579 176.272 126.413 175.653 126.328L174.389 126.152C173.461 126.024 172.757 125.709 172.277 125.208C171.808 124.696 171.573 124.013 171.573 123.16C171.573 122.147 171.93 121.347 172.645 120.76C173.36 120.173 174.336 119.88 175.573 119.88C176.416 119.88 177.152 120.035 177.781 120.344C178.41 120.643 178.725 121.096 178.725 121.704V123.176C178.725 123.229 178.714 123.277 178.693 123.32C178.672 123.352 178.645 123.368 178.613 123.368C178.56 123.368 178.506 123.325 178.453 123.24C178.08 122.632 177.658 122.179 177.189 121.88C176.72 121.581 176.165 121.432 175.525 121.432C174.832 121.432 174.288 121.571 173.893 121.848C173.509 122.125 173.317 122.525 173.317 123.048C173.317 123.464 173.434 123.8 173.669 124.056C173.914 124.301 174.266 124.456 174.725 124.52L176.357 124.744C177.253 124.872 177.936 125.192 178.405 125.704C178.874 126.205 179.109 126.867 179.109 127.688C179.109 128.776 178.736 129.629 177.989 130.248C177.253 130.856 176.24 131.16 174.949 131.16ZM184.284 131.16C183.388 131.16 182.599 130.979 181.916 130.616C181.234 130.243 180.7 129.715 180.316 129.032C179.943 128.339 179.756 127.528 179.756 126.6C179.756 125.672 179.943 124.867 180.316 124.184C180.7 123.491 181.234 122.963 181.916 122.6C182.599 122.227 183.388 122.04 184.284 122.04C184.956 122.04 185.5 122.131 185.916 122.312C186.343 122.493 186.556 122.733 186.556 123.032V124.472C186.556 124.568 186.524 124.616 186.46 124.616C186.407 124.616 186.348 124.579 186.284 124.504C185.815 123.939 185.154 123.656 184.3 123.656C183.436 123.656 182.759 123.923 182.268 124.456C181.778 124.979 181.532 125.693 181.532 126.6C181.532 127.507 181.778 128.227 182.268 128.76C182.77 129.283 183.452 129.544 184.316 129.544C185.138 129.544 185.794 129.336 186.284 128.92C186.37 128.856 186.434 128.824 186.476 128.824C186.53 128.824 186.556 128.872 186.556 128.968V130.104C186.556 130.403 186.343 130.653 185.916 130.856C185.5 131.059 184.956 131.16 184.284 131.16ZM191.327 131.16C190.463 131.16 189.7 130.973 189.039 130.6C188.388 130.216 187.882 129.683 187.519 129C187.156 128.307 186.975 127.507 186.975 126.6C186.975 125.693 187.156 124.899 187.519 124.216C187.882 123.523 188.388 122.989 189.039 122.616C189.7 122.232 190.463 122.04 191.327 122.04C192.191 122.04 192.948 122.232 193.599 122.616C194.26 122.989 194.767 123.523 195.119 124.216C195.482 124.899 195.663 125.693 195.663 126.6C195.663 127.507 195.482 128.307 195.119 129C194.767 129.683 194.26 130.216 193.599 130.6C192.948 130.973 192.191 131.16 191.327 131.16ZM191.327 129.56C192.106 129.56 192.724 129.293 193.183 128.76C193.652 128.216 193.887 127.496 193.887 126.6C193.887 125.704 193.652 124.989 193.183 124.456C192.724 123.912 192.106 123.64 191.327 123.64C190.548 123.64 189.924 123.912 189.455 124.456C188.986 124.989 188.751 125.704 188.751 126.6C188.751 127.496 188.986 128.216 189.455 128.76C189.924 129.293 190.548 129.56 191.327 129.56ZM196.69 132.76C196.647 132.76 196.61 132.744 196.578 132.712C196.546 132.68 196.53 132.643 196.53 132.6V124.312C196.53 123.789 196.508 123.411 196.465 123.176C196.434 122.941 196.364 122.68 196.258 122.392C196.247 122.371 196.242 122.344 196.242 122.312C196.242 122.237 196.284 122.2 196.37 122.2H198.098C198.151 122.2 198.194 122.216 198.226 122.248C198.258 122.28 198.274 122.317 198.274 122.36V123.384C198.274 123.448 198.295 123.485 198.338 123.496C198.391 123.507 198.434 123.485 198.466 123.432C198.679 123.069 199.015 122.749 199.474 122.472C199.932 122.184 200.519 122.04 201.234 122.04C202.002 122.04 202.674 122.232 203.25 122.616C203.836 122.989 204.284 123.523 204.594 124.216C204.914 124.899 205.074 125.693 205.074 126.6C205.074 127.507 204.914 128.307 204.594 129C204.284 129.683 203.836 130.216 203.25 130.6C202.674 130.973 202.002 131.16 201.234 131.16C200.519 131.16 199.927 131.021 199.458 130.744C198.999 130.456 198.668 130.131 198.466 129.768C198.434 129.725 198.402 129.704 198.37 129.704C198.306 129.704 198.274 129.741 198.274 129.816V132.6C198.274 132.643 198.258 132.68 198.226 132.712C198.194 132.744 198.151 132.76 198.098 132.76H196.69ZM200.77 129.656C201.527 129.656 202.13 129.379 202.578 128.824C203.036 128.269 203.266 127.528 203.266 126.6C203.266 125.672 203.036 124.931 202.578 124.376C202.13 123.821 201.527 123.544 200.77 123.544C199.991 123.544 199.367 123.821 198.898 124.376C198.428 124.931 198.194 125.672 198.194 126.6C198.194 127.528 198.428 128.269 198.898 128.824C199.367 129.379 199.991 129.656 200.77 129.656ZM210.332 131.16C209.436 131.16 208.641 130.989 207.948 130.648C207.265 130.296 206.732 129.779 206.348 129.096C205.964 128.403 205.772 127.56 205.772 126.568C205.772 125.619 205.953 124.803 206.316 124.12C206.679 123.437 207.175 122.92 207.804 122.568C208.433 122.216 209.143 122.04 209.932 122.04C211.052 122.04 211.948 122.365 212.62 123.016C213.303 123.656 213.644 124.557 213.644 125.72C213.644 126.157 213.612 126.488 213.548 126.712C213.484 126.925 213.372 127.069 213.212 127.144C213.063 127.219 212.839 127.256 212.54 127.256H207.82C207.671 127.256 207.601 127.32 207.612 127.448C207.697 128.099 207.991 128.621 208.492 129.016C209.004 129.411 209.665 129.608 210.476 129.608C211.436 129.608 212.289 129.256 213.036 128.552C213.079 128.509 213.127 128.488 213.18 128.488C213.255 128.488 213.292 128.536 213.292 128.632V129.8C213.292 129.939 213.26 130.067 213.196 130.184C213.132 130.291 213.02 130.403 212.86 130.52C212.615 130.691 212.273 130.84 211.836 130.968C211.409 131.096 210.908 131.16 210.332 131.16ZM211.692 125.896C211.863 125.896 211.953 125.811 211.964 125.64L211.98 125.416C211.98 124.883 211.799 124.435 211.436 124.072C211.073 123.709 210.567 123.528 209.916 123.528C209.169 123.528 208.609 123.741 208.236 124.168C207.863 124.584 207.66 125.075 207.628 125.64V125.672C207.628 125.736 207.655 125.789 207.708 125.832C207.772 125.875 207.841 125.896 207.916 125.896H211.692ZM219.748 131C219.641 131 219.588 130.947 219.588 130.84V122.968C219.588 122.883 219.561 122.84 219.508 122.84C219.465 122.84 219.423 122.861 219.38 122.904C218.964 123.363 218.537 123.688 218.1 123.88C217.673 124.061 217.3 124.152 216.98 124.152C216.863 124.152 216.804 124.093 216.804 123.976V122.792C216.804 122.685 216.852 122.627 216.948 122.616C217.577 122.445 218.132 122.152 218.612 121.736C219.103 121.32 219.471 120.797 219.716 120.168C219.748 120.083 219.812 120.04 219.908 120.04H221.188C221.295 120.04 221.348 120.093 221.348 120.2V130.84C221.348 130.947 221.295 131 221.188 131H219.748ZM223.148 132.568C222.935 132.568 222.769 132.531 222.652 132.456C222.535 132.392 222.476 132.296 222.476 132.168V131.704C222.476 131.661 222.487 131.635 222.508 131.624C222.54 131.613 222.577 131.624 222.62 131.656C222.759 131.763 222.945 131.816 223.18 131.816C223.415 131.816 223.591 131.757 223.708 131.64C223.825 131.523 223.884 131.384 223.884 131.224C223.884 131.139 223.836 131.096 223.74 131.096H223.5C223.18 131.096 222.929 131.016 222.748 130.856C222.577 130.685 222.492 130.461 222.492 130.184C222.492 129.896 222.588 129.661 222.78 129.48C222.972 129.288 223.233 129.192 223.564 129.192C223.927 129.192 224.209 129.325 224.412 129.592C224.625 129.848 224.732 130.205 224.732 130.664C224.732 131.272 224.593 131.741 224.316 132.072C224.049 132.403 223.66 132.568 223.148 132.568ZM231.48 131.16C230.552 131.16 229.747 131 229.064 130.68C228.382 130.349 228.04 129.848 228.04 129.176V127.816C228.04 127.699 228.078 127.64 228.152 127.64C228.195 127.64 228.238 127.677 228.28 127.752C228.622 128.339 229.059 128.797 229.592 129.128C230.126 129.448 230.792 129.608 231.592 129.608C232.328 129.608 232.894 129.459 233.288 129.16C233.694 128.851 233.896 128.424 233.896 127.88C233.896 127.411 233.763 127.059 233.496 126.824C233.24 126.579 232.803 126.413 232.184 126.328L230.92 126.152C229.992 126.024 229.288 125.709 228.808 125.208C228.339 124.696 228.104 124.013 228.104 123.16C228.104 122.147 228.462 121.347 229.176 120.76C229.891 120.173 230.867 119.88 232.104 119.88C232.947 119.88 233.683 120.035 234.312 120.344C234.942 120.643 235.256 121.096 235.256 121.704V123.176C235.256 123.229 235.246 123.277 235.224 123.32C235.203 123.352 235.176 123.368 235.144 123.368C235.091 123.368 235.038 123.325 234.984 123.24C234.611 122.632 234.19 122.179 233.72 121.88C233.251 121.581 232.696 121.432 232.056 121.432C231.363 121.432 230.819 121.571 230.424 121.848C230.04 122.125 229.848 122.525 229.848 123.048C229.848 123.464 229.966 123.8 230.2 124.056C230.446 124.301 230.798 124.456 231.256 124.52L232.888 124.744C233.784 124.872 234.467 125.192 234.936 125.704C235.406 126.205 235.64 126.867 235.64 127.688C235.64 128.776 235.267 129.629 234.52 130.248C233.784 130.856 232.771 131.16 231.48 131.16ZM240.816 131.16C239.92 131.16 239.13 130.979 238.448 130.616C237.765 130.243 237.232 129.715 236.848 129.032C236.474 128.339 236.288 127.528 236.288 126.6C236.288 125.672 236.474 124.867 236.848 124.184C237.232 123.491 237.765 122.963 238.448 122.6C239.13 122.227 239.92 122.04 240.816 122.04C241.488 122.04 242.032 122.131 242.448 122.312C242.874 122.493 243.088 122.733 243.088 123.032V124.472C243.088 124.568 243.056 124.616 242.992 124.616C242.938 124.616 242.88 124.579 242.816 124.504C242.346 123.939 241.685 123.656 240.832 123.656C239.968 123.656 239.29 123.923 238.8 124.456C238.309 124.979 238.064 125.693 238.064 126.6C238.064 127.507 238.309 128.227 238.8 128.76C239.301 129.283 239.984 129.544 240.848 129.544C241.669 129.544 242.325 129.336 242.816 128.92C242.901 128.856 242.965 128.824 243.008 128.824C243.061 128.824 243.088 128.872 243.088 128.968V130.104C243.088 130.403 242.874 130.653 242.448 130.856C242.032 131.059 241.488 131.16 240.816 131.16ZM247.858 131.16C246.994 131.16 246.232 130.973 245.57 130.6C244.92 130.216 244.413 129.683 244.05 129C243.688 128.307 243.506 127.507 243.506 126.6C243.506 125.693 243.688 124.899 244.05 124.216C244.413 123.523 244.92 122.989 245.57 122.616C246.232 122.232 246.994 122.04 247.858 122.04C248.722 122.04 249.48 122.232 250.13 122.616C250.792 122.989 251.298 123.523 251.65 124.216C252.013 124.899 252.194 125.693 252.194 126.6C252.194 127.507 252.013 128.307 251.65 129C251.298 129.683 250.792 130.216 250.13 130.6C249.48 130.973 248.722 131.16 247.858 131.16ZM247.858 129.56C248.637 129.56 249.256 129.293 249.714 128.76C250.184 128.216 250.418 127.496 250.418 126.6C250.418 125.704 250.184 124.989 249.714 124.456C249.256 123.912 248.637 123.64 247.858 123.64C247.08 123.64 246.456 123.912 245.986 124.456C245.517 124.989 245.282 125.704 245.282 126.6C245.282 127.496 245.517 128.216 245.986 128.76C246.456 129.293 247.08 129.56 247.858 129.56ZM253.221 132.76C253.178 132.76 253.141 132.744 253.109 132.712C253.077 132.68 253.061 132.643 253.061 132.6V124.312C253.061 123.789 253.039 123.411 252.997 123.176C252.965 122.941 252.895 122.68 252.789 122.392C252.778 122.371 252.773 122.344 252.773 122.312C252.773 122.237 252.815 122.2 252.901 122.2H254.629C254.682 122.2 254.725 122.216 254.757 122.248C254.789 122.28 254.805 122.317 254.805 122.36V123.384C254.805 123.448 254.826 123.485 254.869 123.496C254.922 123.507 254.965 123.485 254.997 123.432C255.21 123.069 255.546 122.749 256.005 122.472C256.463 122.184 257.05 122.04 257.765 122.04C258.533 122.04 259.205 122.232 259.781 122.616C260.367 122.989 260.815 123.523 261.125 124.216C261.445 124.899 261.605 125.693 261.605 126.6C261.605 127.507 261.445 128.307 261.125 129C260.815 129.683 260.367 130.216 259.781 130.6C259.205 130.973 258.533 131.16 257.765 131.16C257.05 131.16 256.458 131.021 255.989 130.744C255.53 130.456 255.199 130.131 254.997 129.768C254.965 129.725 254.933 129.704 254.901 129.704C254.837 129.704 254.805 129.741 254.805 129.816V132.6C254.805 132.643 254.789 132.68 254.757 132.712C254.725 132.744 254.682 132.76 254.629 132.76H253.221ZM257.301 129.656C258.058 129.656 258.661 129.379 259.109 128.824C259.567 128.269 259.797 127.528 259.797 126.6C259.797 125.672 259.567 124.931 259.109 124.376C258.661 123.821 258.058 123.544 257.301 123.544C256.522 123.544 255.898 123.821 255.429 124.376C254.959 124.931 254.725 125.672 254.725 126.6C254.725 127.528 254.959 128.269 255.429 128.824C255.898 129.379 256.522 129.656 257.301 129.656ZM266.863 131.16C265.967 131.16 265.173 130.989 264.479 130.648C263.797 130.296 263.263 129.779 262.879 129.096C262.495 128.403 262.303 127.56 262.303 126.568C262.303 125.619 262.485 124.803 262.847 124.12C263.21 123.437 263.706 122.92 264.335 122.568C264.965 122.216 265.674 122.04 266.463 122.04C267.583 122.04 268.479 122.365 269.151 123.016C269.834 123.656 270.175 124.557 270.175 125.72C270.175 126.157 270.143 126.488 270.079 126.712C270.015 126.925 269.903 127.069 269.743 127.144C269.594 127.219 269.37 127.256 269.071 127.256H264.351C264.202 127.256 264.133 127.32 264.143 127.448C264.229 128.099 264.522 128.621 265.023 129.016C265.535 129.411 266.197 129.608 267.007 129.608C267.967 129.608 268.821 129.256 269.567 128.552C269.61 128.509 269.658 128.488 269.711 128.488C269.786 128.488 269.823 128.536 269.823 128.632V129.8C269.823 129.939 269.791 130.067 269.727 130.184C269.663 130.291 269.551 130.403 269.391 130.52C269.146 130.691 268.805 130.84 268.367 130.968C267.941 131.096 267.439 131.16 266.863 131.16ZM268.223 125.896C268.394 125.896 268.485 125.811 268.495 125.64L268.511 125.416C268.511 124.883 268.33 124.435 267.967 124.072C267.605 123.709 267.098 123.528 266.447 123.528C265.701 123.528 265.141 123.741 264.767 124.168C264.394 124.584 264.191 125.075 264.159 125.64V125.672C264.159 125.736 264.186 125.789 264.239 125.832C264.303 125.875 264.373 125.896 264.447 125.896H268.223ZM273.735 131C273.629 131 273.575 130.947 273.575 130.84V129.88C273.575 129.773 273.613 129.683 273.687 129.608L276.071 127.16C276.978 126.232 277.618 125.485 277.991 124.92C278.375 124.355 278.567 123.789 278.567 123.224C278.567 122.669 278.407 122.243 278.087 121.944C277.778 121.635 277.319 121.48 276.711 121.48C276.082 121.48 275.549 121.645 275.111 121.976C274.674 122.307 274.237 122.819 273.799 123.512C273.757 123.587 273.709 123.624 273.655 123.624C273.581 123.624 273.543 123.565 273.543 123.448V122.008C273.543 121.805 273.559 121.64 273.591 121.512C273.634 121.384 273.703 121.256 273.799 121.128C274.066 120.776 274.455 120.483 274.967 120.248C275.49 120.003 276.066 119.88 276.695 119.88C277.421 119.88 278.061 120.019 278.615 120.296C279.17 120.563 279.597 120.941 279.895 121.432C280.205 121.912 280.359 122.461 280.359 123.08C280.359 123.795 280.151 124.488 279.735 125.16C279.319 125.821 278.679 126.605 277.815 127.512L276.263 129.16C276.221 129.203 276.199 129.245 276.199 129.288C276.199 129.363 276.258 129.4 276.375 129.4H280.471C280.578 129.4 280.631 129.453 280.631 129.56V130.84C280.631 130.947 280.578 131 280.471 131H273.735ZM281.194 131.96C281.141 131.96 281.104 131.944 281.082 131.912C281.072 131.88 281.082 131.843 281.114 131.8C281.616 130.947 282.01 129.971 282.298 128.872C282.597 127.773 282.746 126.664 282.746 125.544C282.746 124.403 282.602 123.288 282.314 122.2C282.026 121.101 281.626 120.125 281.114 119.272L281.082 119.192C281.082 119.139 281.12 119.112 281.194 119.112H282.314C282.368 119.112 282.41 119.128 282.442 119.16C282.485 119.181 282.533 119.235 282.586 119.32C283.066 120.109 283.45 121.059 283.738 122.168C284.026 123.267 284.17 124.392 284.17 125.544C284.17 126.685 284.026 127.811 283.738 128.92C283.45 130.019 283.066 130.963 282.586 131.752C282.533 131.837 282.485 131.891 282.442 131.912C282.41 131.944 282.368 131.96 282.314 131.96H281.194Z" fill="white"/>
</svg>
