<svg width="1440" height="774" viewBox="0 0 1440 774" fill="none" xmlns="http://www.w3.org/2000/svg">
<g clip-path="url(#clip0_95_6185)">
<g clip-path="url(#clip1_95_6185)">
<rect x="780" y="102" width="560" height="478" rx="8" fill="#2BC81F"/>
<rect x="782.5" y="104.5" width="555" height="521" stroke="#0ADC91" stroke-width="5" stroke-linecap="square"/>
<text fill="#FFFFF1" xml:space="preserve" style="white-space: pre" font-family="VNM Sans Std" font-size="16" letter-spacing="0em"><tspan x="901.812" y="171.036">Tr&#x1ed3;ng h&#x1a1;n</tspan></text>
<text fill="#FFFFF1" xml:space="preserve" style="white-space: pre" font-family="VNM Sans Display" font-size="60" font-weight="bold" letter-spacing="0em"><tspan x="864.93" y="224.5">      TRI&#x1ec6;U&#x2028;</tspan><tspan x="849.373" y="287.5"> C&#xc2;Y XANH</tspan></text>
<text fill="#FFFFF1" xml:space="preserve" style="white-space: pre" font-family="VNM Sans Display" font-size="60" font-weight="bold" letter-spacing="0em"><tspan x="863.432" y="224.5" data-counter data-delay="300" data-from="0" data-to="11" data-ori="1.1"  >1.1</tspan></text>
<text fill="#FFFFF1" xml:space="preserve" style="white-space: pre" font-family="VNM Sans Std" font-size="16" letter-spacing="0em"><tspan x="841.461" y="310.036">cho Vi&#x1ec7;t Nam t&#x1eeb; (2012 -2023)</tspan></text>
<text fill="#FFFFF1" xml:space="preserve" style="white-space: pre" font-family="VNM Sans Std" font-size="16" letter-spacing="0em"><tspan x="1137.39" y="202.536">Ti&#x1ebf;t ki&#x1ec7;m h&#x1a1;n</tspan></text>
<text fill="#FFFFF1" xml:space="preserve" style="white-space: pre" font-family="VNM Sans Display" font-size="60" font-weight="bold" letter-spacing="0em"><tspan x="1096.04" y="256"data-counter data-delay="300" data-from="0" data-to="877125" data-ori="877.125" >877.125</tspan></text>
<text fill="#FFFFF1" xml:space="preserve" style="white-space: pre" font-family="VNM Sans Display" font-size="32" font-weight="bold" letter-spacing="0em"><tspan x="1225.06" y="256.4">KWH</tspan></text>
<text fill="#FFFFF1" xml:space="preserve" style="white-space: pre" font-family="VNM Sans Std" font-size="16" letter-spacing="0em"><tspan x="1113.64" y="278.536">&#x111;i&#x1ec7;n trong n&#x103;m 2023</tspan></text>
<text fill="#FFFFF1" xml:space="preserve" style="white-space: pre" font-family="VNM Sans Std" font-size="16" letter-spacing="0em"><tspan x="905.297" y="402.036">Gi&#x1ea3;m h&#x1a1;n</tspan></text>
<text fill="#FFFFF1" xml:space="preserve" style="white-space: pre" font-family="VNM Sans Display" font-size="96" font-weight="bold" letter-spacing="0em"><tspan x="851.188" y="480.2" data-counter data-delay="300" data-from="0" data-to="3" data-ori="3" >3</tspan></text>
<text fill="#FFFFF1" xml:space="preserve" style="white-space: pre" font-family="VNM Sans Display" font-size="96" font-weight="bold" letter-spacing="0em"><tspan x="884.031" y="480.2">%</tspan></text>
<text fill="#FFFFF1" xml:space="preserve" style="white-space: pre" font-family="VNM Sans Display" font-size="16" font-weight="bold" letter-spacing="0em"><tspan x="943.5" y="435.7">T&#x1ea4;N CO2&#10;</tspan><tspan x="943.5" y="452.7">T&#x1af;&#x1a0;NG &#x110;&#x1af;&#x1a0;NG/</tspan><tspan x="943.5" y="469.7">T&#x1ea4;N S&#x1ea2;N PH&#x1ea8;M</tspan></text>
<text fill="#FFFFF1" xml:space="preserve" style="white-space: pre" font-family="VNM Sans Std" font-size="16" letter-spacing="0em"><tspan x="869.328" y="503.036">&#xa0;(scope 1 v&#xe0; scope 2).</tspan></text>
<text fill="#FFFFF1" xml:space="preserve" style="white-space: pre" font-family="VNM Sans Display" font-size="60" font-weight="bold" letter-spacing="0em"><tspan x="1125.74" y="437" data-counter data-delay="300" data-from="0" data-to="862" data-ori="86,2" >86,2</tspan></text>
<text fill="#FFFFF1" xml:space="preserve" style="white-space: pre" font-family="VNM Sans Display" font-size="60" font-weight="bold" letter-spacing="0em"><tspan x="1209.71" y="437">%</tspan></text>
<text fill="#FFFFF1" xml:space="preserve" style="white-space: pre" font-family="VNM Sans Std" font-size="16" letter-spacing="0em"><tspan x="1097.06" y="459.536">n&#x103;ng l&#x1b0;&#x1ee3;ng xanh thay th&#x1ebf; </tspan><tspan x="1095.7" y="477.536">cho n&#x103;ng l&#x1b0;&#x1ee3;ng h&#xf3;a th&#x1ea1;ch </tspan><tspan x="1134.05" y="495.536">trong s&#x1ea3;n xu&#x1ea5;t</tspan></text>
<line x1="1060.5" y1="125" x2="1060.5" y2="557" stroke="#FFFFF1" stroke-width="3"/>
<line x1="1306" y1="342.5" x2="812" y2="342.5" stroke="#FFFFF1" stroke-width="3"/>
</g>
<rect x="782.5" y="104.5" width="555" height="473" rx="5.5" stroke="#006D5A" stroke-width="5" stroke-linecap="square" stroke-dasharray="27 27"/>
<rect x="100.5" y="600.5" width="140" height="133" rx="7.5" fill="#FFFFF1"/>
<rect x="100.5" y="600.5" width="140" height="133" rx="7.5" stroke="#006D5A"/>
<text fill="#006D5A" xml:space="preserve" style="white-space: pre" font-family="VNM Sans Std" font-size="14" letter-spacing="0em"><tspan x="122.601" y="647.844">&#x110;&#x1ed3;ng h&#xe0;nh c&#xf9;ng </tspan><tspan x="114.145" y="663.844">ch&#xed;nh ph&#x1ee7; Vi&#x1ec7;t Nam </tspan><tspan x="116.694" y="679.844">trong Cam k&#x1ebf;t Net </tspan><tspan x="114.821" y="695.844">Zero v&#xe0;o n&#x103;m 2050</tspan></text>
<rect x="257.5" y="600.5" width="142" height="133" rx="7.5" fill="#FFFFF1"/>
<rect x="257.5" y="600.5" width="142" height="133" rx="7.5" stroke="#006D5A"/>
<text fill="#006D5A" xml:space="preserve" style="white-space: pre" font-family="VNM Sans Std" font-size="14" letter-spacing="0em"><tspan x="273.587" y="647.844">Ch&#x1b0;&#x1a1;ng tr&#xec;nh h&#xe0;nh </tspan><tspan x="284.613" y="663.844">&#x111;&#x1ed9;ng &#x201c;Vinamilk </tspan><tspan x="275.74" y="679.844">Pathways to Dairy </tspan><tspan x="284.183" y="695.844">Net Zero 2050&#x201d;</tspan></text>
<rect x="416.5" y="600.5" width="139" height="133" rx="7.5" fill="#FFFFF1"/>
<rect x="416.5" y="600.5" width="139" height="133" rx="7.5" stroke="#006D5A"/>
<text fill="#006D5A" xml:space="preserve" style="white-space: pre" font-family="VNM Sans Std" font-size="14" letter-spacing="0em"><tspan x="430.369" y="655.844">Tham gia S&#xe1;ng ki&#x1ebf;n </tspan><tspan x="429.18" y="671.844">to&#xe0;n c&#x1ea7;u ng&#xe0;nh s&#x1eef;a </tspan><tspan x="452.559" y="687.844">v&#x1ec1; Net Zero</tspan></text>
<rect x="572.5" y="600.5" width="139" height="133" rx="7.5" fill="#FFFFF1"/>
<rect x="572.5" y="600.5" width="139" height="133" rx="7.5" stroke="#006D5A"/>
<text fill="#006D5A" xml:space="preserve" style="white-space: pre" font-family="VNM Sans Std" font-size="14" letter-spacing="0em"><tspan x="591.052" y="639.844">100% Nh&#xe0; m&#xe1;y v&#xe0; </tspan><tspan x="596.712" y="655.844">Trang tr&#x1ea1;i &#x111;&#x1b0;&#x1ee3;c </tspan><tspan x="585.508" y="671.844">ki&#x1ec3;m k&#xea; kh&#xed; nh&#xe0; k&#xed;nh </tspan><tspan x="597.478" y="687.844">theo chu&#x1ea9;n ISO </tspan><tspan x="617.459" y="703.844">14064(*)</tspan></text>
<rect x="728.5" y="600.5" width="140" height="133" rx="7.5" fill="#FFFFF1"/>
<rect x="728.5" y="600.5" width="140" height="133" rx="7.5" stroke="#006D5A"/>
<text fill="#006D5A" xml:space="preserve" style="white-space: pre" font-family="VNM Sans Std" font-size="14" letter-spacing="0em"><tspan x="748.762" y="647.844">H&#x1ec7; th&#x1ed1;ng qu&#x1ea3;n l&#xfd; </tspan><tspan x="753.191" y="663.844">M&#xf4;i tr&#x1b0;&#x1edd;ng &#x111;&#x1ea1;t </tspan><tspan x="769.632" y="679.844">chu&#x1ea9;n ISO </tspan><tspan x="766.098" y="695.844">14001:2015</tspan></text>
<rect x="885.5" y="600.5" width="140" height="133" rx="7.5" fill="#FFFFF1"/>
<rect x="885.5" y="600.5" width="140" height="133" rx="7.5" stroke="#006D5A"/>
<text fill="#006D5A" xml:space="preserve" style="white-space: pre" font-family="VNM Sans Std" font-size="14" letter-spacing="0em"><tspan x="905.762" y="647.844">H&#x1ec7; th&#x1ed1;ng qu&#x1ea3;n l&#xfd; </tspan><tspan x="909.843" y="663.844">N&#x103;ng l&#x1b0;&#x1ee3;ng &#x111;&#x1ea1;t </tspan><tspan x="926.632" y="679.844">chu&#x1ea9;n ISO </tspan><tspan x="921.478" y="695.844">50001:2018</tspan></text>
<rect x="1042.5" y="600.5" width="141" height="133" rx="7.5" fill="#FFFFF1"/>
<rect x="1042.5" y="600.5" width="141" height="133" rx="7.5" stroke="#006D5A"/>
<text fill="#006D5A" xml:space="preserve" style="white-space: pre" font-family="VNM Sans Std" font-size="14" letter-spacing="0em"><tspan x="1067.01" y="639.844">100% Trang tr&#x1ea1;i </tspan><tspan x="1054.89" y="655.844">Vinamilk &#xe1;p d&#x1ee5;ng h&#x1ec7; </tspan><tspan x="1059.67" y="671.844">th&#x1ed1;ng Biogas bi&#x1ebf;n </tspan><tspan x="1053.86" y="687.844">ch&#x1ea5;t th&#x1ea3;i c&#x1ee7;a &#x111;&#xe0;n b&#xf2; </tspan><tspan x="1063.4" y="703.844">th&#xe0;nh t&#xe0;i nguy&#xea;n</tspan></text>
<rect x="1200.5" y="600.5" width="140" height="133" rx="7.5" fill="#FFFFF1"/>
<rect x="1200.5" y="600.5" width="140" height="133" rx="7.5" stroke="#006D5A"/>
<text fill="#006D5A" xml:space="preserve" style="white-space: pre" font-family="VNM Sans Std" font-size="14" letter-spacing="0em"><tspan x="1225.15" y="631.844">Nh&#xe0; m&#xe1;y S&#x1eef;a v&#xe0; </tspan><tspan x="1213.19" y="647.844">Trang tr&#x1ea1;i ch&#x103;n nu&#xf4;i </tspan><tspan x="1216.67" y="663.844">b&#xf2; s&#x1eef;a &#x111;&#x1ea7;u ti&#xea;n t&#x1ea1;i </tspan><tspan x="1214.25" y="679.844">Vi&#x1ec7;t Nam &#x111;&#x1ea1;t trung </tspan><tspan x="1221.01" y="695.844">h&#xf2;a Carbon theo </tspan><tspan x="1223.42" y="711.844">chu&#x1ea9;n PAS 2060</tspan></text>
<path d="M1293 36H1253V76H1293V36Z" fill="#FBC311"/>
<path d="M1257.11 40.4591H1259.19L1257.38 47.4205H1258.73L1260.5 40.6002V39.349H1257.11V40.4591Z" fill="white"/>
<path d="M1273.01 55.3791C1269.78 55.3791 1267.16 58.0038 1267.16 61.2399C1267.16 64.476 1269.78 67.1007 1273.01 67.1007C1276.25 67.1007 1278.87 64.476 1278.87 61.2399C1278.87 58.0038 1276.25 55.3791 1273.01 55.3791ZM1272.58 57.6933C1272.58 57.4958 1272.78 57.2794 1273.02 57.2794C1273.27 57.2794 1273.45 57.4958 1273.45 57.6933V59.7065C1273.45 59.904 1273.26 60.111 1273.02 60.111C1272.78 60.111 1272.58 59.8946 1272.58 59.7065V57.6933ZM1273.01 64.2502C1271.33 64.2502 1269.97 62.8862 1269.97 61.2023C1269.97 59.8288 1270.87 58.6717 1272.11 58.286V59.4243C1271.47 59.7535 1271.02 60.4214 1271.02 61.2023C1271.02 62.3029 1271.91 63.1966 1273.01 63.1966C1274.12 63.1966 1275.01 62.3029 1275.01 61.2023C1275.01 60.4214 1274.56 59.7535 1273.91 59.4243V58.2954C1275.16 58.6811 1276.07 59.8382 1276.07 61.2117C1276.07 62.8956 1274.7 64.2596 1273.01 64.2596" fill="white"/>
<path d="M1266.29 61.1929C1266.29 60.9294 1266.05 60.7131 1265.84 60.7131H1263.27C1263.05 60.7131 1262.82 60.9294 1262.82 61.1929C1262.82 61.4563 1263.06 61.6726 1263.27 61.6726H1265.84C1266.05 61.6726 1266.29 61.4563 1266.29 61.1929Z" fill="white"/>
<path d="M1283.22 61.1929C1283.22 60.9294 1282.98 60.7131 1282.77 60.7131H1280.2C1279.98 60.7131 1279.75 60.9294 1279.75 61.1929C1279.75 61.4563 1279.99 61.6726 1280.2 61.6726H1282.77C1282.98 61.6726 1283.22 61.4563 1283.22 61.1929Z" fill="white"/>
<path d="M1273.01 54.4572C1273.28 54.4572 1273.49 54.222 1273.49 54.0056V51.4374C1273.49 51.2211 1273.27 50.9859 1273.01 50.9859C1272.76 50.9859 1272.54 51.2211 1272.54 51.4374V54.0056C1272.54 54.222 1272.76 54.4572 1273.01 54.4572Z" fill="white"/>
<path d="M1267.18 57.8438C1267.31 57.6087 1267.21 57.3076 1267.02 57.2041L1264.79 55.9247C1264.6 55.8213 1264.29 55.8871 1264.16 56.1129C1264.03 56.3481 1264.13 56.6491 1264.31 56.7526L1266.54 58.032C1266.73 58.1355 1267.04 58.0696 1267.18 57.8344" fill="white"/>
<path d="M1276.35 55.3509C1276.58 55.4826 1276.89 55.3885 1277 55.2004L1278.27 52.9708C1278.37 52.7827 1278.31 52.4722 1278.08 52.3405C1277.85 52.2088 1277.54 52.3029 1277.44 52.4911L1276.16 54.7206C1276.06 54.9087 1276.13 55.2192 1276.35 55.3509Z" fill="white"/>
<path d="M1269.66 55.3603C1269.89 55.2286 1269.96 54.9182 1269.86 54.73L1268.57 52.5005C1268.47 52.3123 1268.16 52.2183 1267.93 52.35C1267.7 52.4817 1267.64 52.7921 1267.74 52.9802L1269.02 55.2004C1269.13 55.3885 1269.43 55.4826 1269.66 55.3509" fill="white"/>
<path d="M1278.85 57.8344C1278.99 58.0696 1279.29 58.1355 1279.48 58.0226L1281.71 56.7432C1281.9 56.6303 1281.99 56.3293 1281.86 56.1035C1281.72 55.8683 1281.41 55.8024 1281.23 55.9153L1279.01 57.1947C1278.82 57.2982 1278.72 57.6087 1278.85 57.8344Z" fill="white"/>
<path d="M1273 67.9379C1272.74 67.9379 1272.53 68.1731 1272.53 68.3895V70.9577C1272.53 71.174 1272.75 71.4092 1273 71.4092C1273.26 71.4092 1273.48 71.174 1273.48 70.9577V68.3895C1273.48 68.1731 1273.26 67.9379 1273 67.9379Z" fill="white"/>
<path d="M1278.84 64.5513C1278.71 64.777 1278.81 65.0875 1279 65.191L1281.23 66.461C1281.42 66.5644 1281.72 66.4986 1281.86 66.2728C1281.99 66.0376 1281.89 65.7366 1281.71 65.6237L1279.48 64.3443C1279.29 64.2408 1278.98 64.3067 1278.84 64.5419" fill="white"/>
<path d="M1269.66 67.0442C1269.43 66.9125 1269.13 67.0066 1269.02 67.1947L1267.75 69.4243C1267.64 69.6124 1267.71 69.9229 1267.94 70.0546C1268.17 70.1863 1268.48 70.0922 1268.58 69.904L1269.86 67.6745C1269.96 67.4864 1269.89 67.1759 1269.66 67.0442Z" fill="white"/>
<path d="M1276.36 67.0442C1276.13 67.1759 1276.07 67.4864 1276.17 67.6745L1277.46 69.904C1277.56 70.0922 1277.87 70.1863 1278.1 70.0546C1278.33 69.9229 1278.39 69.6124 1278.29 69.4243L1277.01 67.1947C1276.9 67.0066 1276.59 66.9125 1276.36 67.0442Z" fill="white"/>
<path d="M1267.17 64.5607C1267.03 64.3349 1266.73 64.2596 1266.53 64.3725L1264.31 65.6519C1264.12 65.7648 1264.03 66.0659 1264.16 66.2916C1264.29 66.5268 1264.61 66.5927 1264.79 66.4798L1267.02 65.2004C1267.2 65.0969 1267.31 64.7865 1267.18 64.5607" fill="white"/>
<path d="M1264.38 42.19L1264.39 42.8109V43.5071H1263.97V41.0894H1264.47L1264.74 42.2935V41.588L1264.73 41.0894H1265.16V43.5071H1264.69L1264.38 42.19Z" fill="white"/>
<path d="M1266 42.7357L1265.89 41.682L1265.79 42.7357H1266ZM1265.84 40.6943V40.7601C1265.84 40.7601 1265.85 40.826 1265.89 40.826H1265.93C1265.93 40.826 1266 40.8071 1266 40.7601V40.6943H1266.2V40.7789C1266.2 40.9389 1266.13 41.0047 1265.99 41.0047H1265.85C1265.71 41.0047 1265.64 40.9389 1265.64 40.7789V40.6943H1265.85H1265.84ZM1266.04 43.159H1265.73L1265.7 43.5165H1265.26L1265.58 41.0894H1266.24L1266.55 43.5165H1266.07L1266.04 43.159Z" fill="white"/>
<path d="M1267.06 42.19L1267.07 42.8109L1267.08 43.5071H1266.66V41.0894H1267.16L1267.43 42.2935L1267.42 41.588V41.0894H1267.85V43.5071H1267.38L1267.06 42.19Z" fill="white"/>
<path d="M1269.21 42.143V43.0837C1269.21 43.3848 1269.07 43.5353 1268.76 43.5353H1268.45C1268.15 43.5353 1268 43.3848 1268 43.0837V41.5221C1268 41.2211 1268.14 41.0706 1268.45 41.0706H1268.75C1269.06 41.0706 1269.2 41.2211 1269.2 41.5221V41.9831H1268.73V41.5691C1268.73 41.5127 1268.7 41.4845 1268.64 41.4845H1268.57C1268.52 41.4845 1268.49 41.5127 1268.49 41.5691V43.0273C1268.49 43.0837 1268.52 43.1119 1268.57 43.1119H1268.65C1268.71 43.1119 1268.74 43.0837 1268.74 43.0273V42.5475H1268.58V42.143H1269.21Z" fill="white"/>
<path d="M1269.86 41.0894V43.5165H1270.69V43.0837H1270.34V41.0894H1269.86Z" fill="white"/>
<path d="M1272.25 41.0235C1272.25 41.2211 1272.17 41.3151 1272 41.3246V43.0743C1272 43.3754 1271.85 43.5259 1271.55 43.5259H1271.25C1270.95 43.5259 1270.8 43.3754 1270.8 43.0743V41.08H1271.29V43.0179C1271.29 43.0743 1271.32 43.1025 1271.38 43.1025H1271.43C1271.48 43.1025 1271.51 43.0743 1271.51 43.0179V41.08H1271.88C1271.94 41.08 1271.97 41.0517 1271.97 40.9953V40.9106H1272.25V41.0235Z" fill="white"/>
<path d="M1272.89 41.5691C1272.89 41.5127 1272.86 41.4845 1272.8 41.4845H1272.74C1272.68 41.4845 1272.65 41.5127 1272.65 41.5691V43.0273C1272.65 43.0837 1272.68 43.1119 1272.74 43.1119H1272.8C1272.86 43.1119 1272.89 43.0837 1272.89 43.0273V41.5691ZM1272.57 43.7328H1272.96V44.1279H1272.57V43.7328ZM1273.62 40.92V41.0235C1273.62 41.2305 1273.53 41.3246 1273.35 41.3246C1273.37 41.381 1273.37 41.4374 1273.37 41.5127V43.0743C1273.37 43.3754 1273.22 43.5259 1272.92 43.5259H1272.6C1272.31 43.5259 1272.15 43.3754 1272.15 43.0743V41.5127C1272.15 41.2117 1272.3 41.0611 1272.6 41.0611H1272.92C1273.03 41.0611 1273.13 41.08 1273.2 41.127V41.08H1273.25C1273.31 41.08 1273.34 41.0517 1273.34 40.9953V40.9106H1273.61L1273.62 40.92Z" fill="white"/>
<path d="M1273.94 42.19L1273.95 42.8109V43.5071H1273.54V41.0894H1274.03L1274.32 42.2935L1274.31 41.588L1274.3 41.0894H1274.72V43.5071H1274.25L1273.94 42.19Z" fill="white"/>
<path d="M1276.1 42.143V43.0837C1276.1 43.3848 1275.95 43.5353 1275.65 43.5353H1275.33C1275.03 43.5353 1274.88 43.3848 1274.88 43.0837V41.5221C1274.88 41.2211 1275.03 41.0706 1275.33 41.0706H1275.64C1275.94 41.0706 1276.09 41.2211 1276.09 41.5221V41.9831H1275.61V41.5691C1275.61 41.5127 1275.58 41.4845 1275.52 41.4845H1275.46C1275.4 41.4845 1275.37 41.5127 1275.37 41.5691V43.0273C1275.37 43.0837 1275.4 43.1119 1275.46 43.1119H1275.53C1275.59 43.1119 1275.62 43.0837 1275.62 43.0273V42.5475H1275.46V42.143H1276.1Z" fill="white"/>
<path d="M1277.89 42.6322V43.0743C1277.89 43.3754 1277.73 43.5259 1277.44 43.5259H1277.17C1276.87 43.5259 1276.72 43.3754 1276.72 43.0743V42.5569H1277.2V43.0273C1277.2 43.0837 1277.23 43.1119 1277.28 43.1119H1277.33C1277.39 43.1119 1277.42 43.0837 1277.42 43.0273V42.7357C1277.42 42.6604 1277.4 42.6228 1277.33 42.5757L1276.92 42.2653C1276.78 42.1618 1276.73 42.0583 1276.73 41.889V41.5033C1276.73 41.2023 1276.88 41.0517 1277.18 41.0517H1277.45C1277.74 41.0517 1277.9 41.2023 1277.9 41.5033V41.9454H1277.42V41.5503C1277.42 41.4939 1277.39 41.4657 1277.33 41.4657H1277.29C1277.24 41.4657 1277.21 41.4939 1277.21 41.5503V41.7761C1277.21 41.8514 1277.23 41.889 1277.29 41.9266L1277.7 42.2371C1277.86 42.3405 1277.9 42.4346 1277.9 42.6134" fill="white"/>
<path d="M1278.68 42.7357L1278.58 41.682L1278.47 42.7357H1278.68ZM1278.4 43.7328H1278.8V44.1279H1278.4V43.7328ZM1278.73 43.159H1278.42L1278.39 43.5165H1277.95L1278.27 41.0894H1278.93L1279.25 43.5165H1278.77L1278.73 43.159Z" fill="white"/>
<path d="M1280.52 43.0837C1280.52 43.3848 1280.37 43.5353 1280.07 43.5353H1279.77C1279.48 43.5353 1279.32 43.3848 1279.32 43.0837V41.5221C1279.32 41.2211 1279.48 41.0706 1279.77 41.0706H1280.06C1280.36 41.0706 1280.51 41.2211 1280.51 41.5221V42.0865H1280.03V41.5691C1280.03 41.5127 1280 41.4845 1279.94 41.4845H1279.89C1279.83 41.4845 1279.8 41.5127 1279.8 41.5691V43.0273C1279.8 43.0837 1279.83 43.1119 1279.89 43.1119H1279.94C1280 43.1119 1280.03 43.0837 1280.03 43.0273V42.4346H1280.51V43.0743L1280.52 43.0837Z" fill="white"/>
<path d="M1281.41 41.0894H1281.9V43.5165H1281.41V42.5005H1281.17V43.5165H1280.68V41.0894H1281.17V42.0677H1281.41V41.0894Z" fill="white"/>
<path d="M1264.64 47.2041L1264.69 47.0724L1264.46 46.6491C1264.46 46.6491 1264.4 46.7338 1264.4 46.809V47.2041C1264.4 47.2606 1264.43 47.2794 1264.48 47.2794H1264.54C1264.59 47.2794 1264.62 47.2606 1264.64 47.2041ZM1264.54 47.6839H1264.36C1264.08 47.6839 1263.94 47.5428 1263.94 47.2606V46.7714C1263.94 46.6021 1263.98 46.4704 1264.1 46.3669L1264.24 46.2446L1264.16 46.1035C1264.08 45.9718 1264.07 45.8871 1264.07 45.746V45.6707C1264.07 45.3697 1264.23 45.2192 1264.52 45.2192H1264.73C1265.04 45.2192 1265.18 45.3697 1265.18 45.6707V45.9906H1264.73V45.7178C1264.73 45.6613 1264.71 45.6331 1264.65 45.6331H1264.61C1264.55 45.6331 1264.52 45.6613 1264.52 45.7178V45.7648C1264.52 45.8495 1264.54 45.9153 1264.59 46L1264.89 46.555L1264.99 46.2258H1265.46L1265.18 47.0254L1265.52 47.6651H1265.02L1264.91 47.4675C1264.83 47.6181 1264.73 47.6839 1264.52 47.6839" fill="white"/>
<path d="M1266.65 47.2512C1266.71 47.2512 1266.74 47.223 1266.74 47.1665V46.7244C1266.74 46.6679 1266.71 46.6397 1266.65 46.6397H1266.52V47.2512H1266.65ZM1266.64 45.6519H1266.52V46.2258H1266.64C1266.7 46.2258 1266.73 46.1976 1266.73 46.1411V45.7366C1266.73 45.6802 1266.7 45.6519 1266.64 45.6519ZM1267.21 46.7244V47.2135C1267.21 47.5146 1267.07 47.6651 1266.76 47.6651H1266.05V45.238H1266.75C1267.06 45.238 1267.2 45.3885 1267.2 45.6896V46.047C1267.2 46.254 1267.13 46.3575 1267 46.4045C1267.15 46.4421 1267.21 46.5362 1267.21 46.715" fill="white"/>
<path d="M1268.13 44.9652L1267.94 44.6642H1268.28L1268.37 44.9652H1268.12H1268.13ZM1267.91 45.1533L1267.82 45.0405L1267.72 45.1533H1267.51L1267.68 44.8523H1267.94L1268.11 45.1533H1267.9H1267.91ZM1268.28 45.6707H1267.86V46.2164H1268.27V46.6491H1267.86V47.2324H1268.29V47.6651H1267.38V45.2474H1268.28V45.6802V45.6707Z" fill="white"/>
<path d="M1268.84 46.3481L1268.85 46.9595V47.6651H1268.44V45.238H1268.93L1269.21 46.4421L1269.2 45.746L1269.2 45.238H1269.62V47.6651H1269.15L1268.84 46.3481Z" fill="white"/>
<path d="M1270.19 45.238H1270.68L1270.85 46.9595L1271.03 45.238H1271.48L1271.16 47.6651H1270.52L1270.19 45.238Z" fill="white"/>
<path d="M1272.04 45.1533H1271.86V44.9934C1271.86 44.8899 1271.9 44.8523 1271.99 44.8523H1272.03C1272.09 44.8523 1272.11 44.8523 1272.15 44.8805L1272.23 44.937C1272.23 44.937 1272.27 44.9558 1272.29 44.9558C1272.31 44.9558 1272.32 44.9464 1272.32 44.9276V44.8523H1272.5V45.0122C1272.5 45.1157 1272.45 45.1533 1272.36 45.1533H1272.33C1272.27 45.1533 1272.25 45.1533 1272.21 45.1251L1272.12 45.0687C1272.12 45.0687 1272.09 45.0405 1272.07 45.0405C1272.05 45.0405 1272.04 45.0499 1272.04 45.0687V45.1533ZM1273.01 45.1816C1273.01 45.3791 1272.94 45.4732 1272.77 45.4826V47.2324C1272.77 47.5334 1272.61 47.6839 1272.32 47.6839H1272.02C1271.71 47.6839 1271.57 47.5334 1271.57 47.2324V45.238H1272.06V47.1759C1272.06 47.2324 1272.09 47.2606 1272.14 47.2606H1272.19C1272.25 47.2606 1272.28 47.2324 1272.28 47.1759V45.238H1272.65C1272.71 45.238 1272.74 45.2098 1272.74 45.1533V45.0687H1273.01V45.1816Z" fill="white"/>
<path d="M1273.35 46.3481L1273.36 46.9595V47.6651H1272.94V45.238H1273.44L1273.71 46.4421V45.746L1273.7 45.238H1274.12V47.6651H1273.66L1273.35 46.3481Z" fill="white"/>
<path d="M1275.49 46.2916V47.2324C1275.49 47.5334 1275.35 47.6839 1275.04 47.6839H1274.73C1274.43 47.6839 1274.28 47.5334 1274.28 47.2324V45.6707C1274.28 45.3697 1274.43 45.2192 1274.73 45.2192H1275.03C1275.34 45.2192 1275.48 45.3697 1275.48 45.6707V46.1317H1275.01V45.7178C1275.01 45.6613 1274.98 45.6331 1274.92 45.6331H1274.85C1274.79 45.6331 1274.77 45.6613 1274.77 45.7178V47.1759C1274.77 47.2324 1274.79 47.2606 1274.85 47.2606H1274.93C1274.99 47.2606 1275.01 47.2324 1275.01 47.1759V46.6961H1274.86V46.2916H1275.49Z" fill="white"/>
<path d="M1340.06 36H1300.06V76H1340.06V36Z" fill="#417E45"/>
<path d="M1305.11 39.3584V47.4205H1303.75V41.2493H1303.74L1302.8 42.2371H1302.78V40.8166L1304.03 39.3584H1305.11Z" fill="white"/>
<path d="M1309.58 41.1082V41.8043C1309.58 42.4817 1309.22 42.9332 1308.65 43.1119C1309.33 43.2625 1309.65 43.7422 1309.65 44.476V45.6613C1309.65 46.7808 1309.06 47.5052 1307.69 47.5052C1306.32 47.5052 1305.82 46.7244 1305.82 45.492V44.4384H1307.06V45.5955C1307.06 46.0753 1307.22 46.3763 1307.69 46.3763C1308.1 46.3763 1308.29 46.0753 1308.29 45.6519V44.3161C1308.29 43.8833 1308.1 43.667 1307.63 43.667H1307.06V42.6322H1307.56C1308 42.6322 1308.29 42.4064 1308.29 41.9737V41.1082C1308.29 40.666 1308.14 40.3838 1307.71 40.3838C1307.28 40.3838 1307.12 40.666 1307.12 41.1646V41.9831H1305.89V41.2681C1305.89 40.0828 1306.38 39.2455 1307.78 39.2455C1309.03 39.2455 1309.58 39.9511 1309.58 41.0894" fill="white"/>
<path d="M1335.04 64.0527C1333.99 62.5757 1329.22 56.6773 1320.36 56.6773C1311.5 56.6773 1306.73 62.5757 1305.68 64.0527C1305.63 64.1185 1305.59 64.175 1305.56 64.2126C1305.59 64.2596 1305.63 64.3161 1305.68 64.3819C1306.73 65.8589 1311.5 71.7573 1320.36 71.7573C1329.22 71.7573 1333.99 65.8589 1335.04 64.3819C1335.09 64.3161 1335.13 64.2596 1335.16 64.2126C1335.13 64.1656 1335.09 64.1091 1335.04 64.0527ZM1315.41 60.4026C1315.49 60.2897 1315.76 59.9511 1315.79 59.9135C1315.85 59.8288 1315.99 59.81 1316.08 59.7912C1316.18 59.7723 1316.3 59.8288 1316.32 59.8946C1316.34 59.9699 1316.28 60.2427 1316.24 60.2897C1316.1 60.4214 1315.77 60.619 1315.58 60.5814C1315.44 60.5626 1315.38 60.4497 1315.41 60.4026ZM1315.1 61.0329C1315.1 61.0329 1315.13 61.0047 1315.13 60.9953C1315.24 60.8636 1315.46 60.8448 1315.61 60.8166C1315.77 60.7883 1315.98 60.8636 1316 60.9671C1316.03 61.0706 1315.61 61.2587 1315.54 61.3246C1315.33 61.5221 1314.99 61.9172 1314.8 61.9643C1314.73 61.9831 1314.69 61.9643 1314.64 61.9454C1314.76 61.6256 1314.91 61.3151 1315.1 61.0235M1318.42 67.8344C1318.29 68.3048 1318.16 68.4741 1318.04 68.6246C1317.92 68.7752 1317.47 68.9633 1317.19 68.9445C1316.92 68.9257 1316.88 68.1731 1316.88 67.7874C1316.88 67.6557 1316.69 68.0508 1316.59 67.2512C1316.52 66.7338 1316.2 67.3076 1316.18 66.9595C1316.16 66.6209 1315.99 66.6867 1315.81 66.4704C1315.64 66.254 1315.43 66.4892 1315.18 66.6021C1314.94 66.7055 1315.04 66.762 1314.7 66.6585C1314.7 66.6585 1314.69 66.6585 1314.69 66.6585C1314.37 65.9247 1314.2 65.1063 1314.2 64.2596C1314.2 64.0527 1314.21 63.8457 1314.23 63.6388C1314.24 63.6199 1314.25 63.6011 1314.26 63.5823C1314.59 63.1966 1314.58 63.1025 1314.58 63.1025L1314.94 62.9802C1314.94 62.9802 1315.52 63.0649 1315.96 63.2342C1316.31 63.3659 1316.88 63.6764 1317.2 63.5353C1317.44 63.4412 1317.62 63.3095 1317.6 63.1119C1317.58 62.8674 1317.38 62.8109 1317.15 62.9708C1317.06 63.0367 1316.88 62.5945 1316.72 62.6228C1316.58 62.6416 1316.91 63.1308 1316.78 63.159C1316.66 63.1778 1316.41 62.651 1316.37 62.5663C1316.33 62.4817 1316.14 62.2653 1315.97 62.4252C1315.6 62.7733 1315.01 62.7545 1314.9 62.8391C1314.53 63.1119 1314.44 62.7545 1314.45 62.5287C1314.46 62.4817 1314.47 62.4252 1314.49 62.3782C1314.61 62.2465 1315.03 62.2088 1315.18 62.3029C1315.35 62.4064 1315.46 62.2747 1315.52 62.2088C1315.58 62.143 1315.56 62.0395 1315.52 61.9548C1315.48 61.8702 1315.59 61.8043 1315.68 61.7855C1315.77 61.7667 1316.03 61.5691 1316.15 61.5033C1316.26 61.4374 1316.83 61.3716 1317.09 61.5033C1317.35 61.635 1317.58 61.5315 1317.7 61.381C1317.86 61.1929 1318.06 61.0517 1318.15 61.0047C1318.24 60.9671 1317.93 60.6754 1317.67 60.9859C1317.41 61.2963 1317.29 61.3246 1317.16 61.3246C1317.04 61.3246 1316.33 61.1458 1316.25 60.92C1316.16 60.6943 1316.47 60.5249 1316.73 60.4026C1316.99 60.2803 1317.72 60.2803 1317.9 60.2333C1318.27 60.1486 1318.75 59.9605 1318.99 60.1298C1319.23 60.2897 1317.99 60.572 1318.4 60.7977C1318.54 60.8824 1319.2 60.4214 1319.43 60.2992C1319.96 60.0263 1318.92 59.9323 1319.05 59.3772C1319.2 58.7469 1317.77 58.9915 1317.05 59.048C1318.01 58.4365 1319.15 58.079 1320.37 58.079C1323.28 58.079 1325.72 60.0922 1326.37 62.8109C1326.37 62.9426 1326.35 63.0461 1326.34 63.0931C1326.29 63.3189 1325.86 63.5071 1325.62 63.1496C1325.55 63.0555 1325.29 62.8109 1325.3 63.2342C1325.3 63.6576 1325.72 63.7046 1325.32 63.9586C1324.93 64.2126 1324.85 64.1562 1324.67 64.222C1324.49 64.2879 1324.3 64.73 1324.35 64.9652C1324.4 65.2004 1324.96 65.8401 1324.54 65.8213C1324.45 65.8213 1323.71 65.3133 1323.59 64.984C1323.46 64.6453 1323.32 64.3067 1323.21 64.0527C1323.11 63.7987 1322.85 63.7328 1322.63 63.8833C1322.41 64.0339 1322.69 64.1844 1322.53 64.5042C1322.38 64.8241 1322.27 65.1157 1322.03 64.8429C1321.42 64.1562 1320.55 64.4948 1320.41 63.7234C1320.33 63.3095 1319.98 63.3471 1319.67 63.1119C1319.38 62.8768 1319.2 62.7451 1319.16 62.9238C1319.11 63.0743 1320.1 63.8551 1320.17 64.0527C1320.27 64.3537 1319.87 64.6171 1319.58 64.683C1319.28 64.7488 1319.16 64.5136 1318.87 64.222C1318.58 63.921 1318.46 63.7046 1318.44 63.9398C1318.41 64.2785 1318.71 64.777 1319 64.9652C1319.25 65.1251 1319.53 65.191 1319.45 65.4544C1319.38 65.7084 1319.45 65.5673 1319.17 65.8401C1318.9 66.1223 1318.84 66.207 1318.86 66.5927C1318.88 66.9784 1318.78 66.9972 1318.71 67.317C1318.66 67.6369 1318.51 67.3641 1318.4 67.8344M1325.04 65.3697C1325.25 65.3509 1325.56 65.6425 1325.44 65.746C1325.32 65.8589 1325.01 65.8119 1324.86 65.699C1324.71 65.5767 1324.96 65.3791 1325.05 65.3697M1324.77 65.1816C1324.71 65.1533 1324.65 65.0969 1324.6 64.9464C1324.55 64.7959 1324.68 64.7112 1324.8 64.7676C1324.93 64.8335 1325.09 65.0216 1325.09 65.1251C1325.09 65.2286 1324.84 65.2098 1324.77 65.191M1322.06 65.1722C1321.93 65.285 1321.62 65.238 1321.46 65.1157C1321.31 64.9934 1321.56 64.7959 1321.65 64.7865C1321.86 64.7676 1322.17 65.0593 1322.06 65.1627M1319.53 66.3951C1319.44 66.5362 1319.21 67.571 1319.06 67.4487C1318.91 67.3264 1319.12 66.2446 1319.16 66.1599C1319.4 65.7084 1319.94 65.7366 1319.53 66.3857M1320.37 70.4214C1319.77 70.4214 1319.18 70.3368 1318.64 70.1769C1318.56 70.111 1318.51 70.0075 1318.56 69.8758C1318.75 69.3772 1319.32 69.1797 1319.77 69.1421C1320.76 69.048 1322.08 69.7912 1322.29 69.6689C1322.51 69.5466 1322.93 69.0009 1323.55 69.0198C1323.97 69.0386 1323.97 69.1044 1324.11 69.1609C1323.08 69.9511 1321.78 70.4214 1320.37 70.4214ZM1324.73 68.6246C1324.66 68.6058 1324.6 68.587 1324.53 68.5494C1324.2 68.3801 1324.24 68.6529 1324.07 68.587C1323.91 68.5212 1324.27 68.1449 1323.77 68.4647C1323.27 68.7846 1323.4 68.4177 1323.19 67.8627C1322.97 67.3076 1323.44 66.6867 1323.84 66.5456C1324.37 66.3481 1324.71 66.3104 1324.96 66.254C1325.7 66.0659 1325.86 65.6331 1325.99 65.8965C1326.02 65.9436 1326.04 65.9906 1326.07 66.0376C1326.1 66.1223 1326.16 66.2822 1326.16 66.4421C1325.85 67.27 1325.36 68.0038 1324.74 68.6152M1326.41 65.5108C1326.25 65.4638 1325.55 64.5042 1326.1 63.8739C1326.19 63.7705 1325.92 63.4694 1326 63.46C1326.3 63.4412 1326.46 63.6199 1326.53 63.8928C1326.53 64.0056 1326.54 64.1279 1326.54 64.2502C1326.54 64.683 1326.5 65.1063 1326.41 65.5108Z" fill="white"/>
<path d="M1313.64 40.9671H1314.12V43.3848H1313.64V42.3688H1313.39V43.3848H1312.91V40.9671H1313.39V41.936H1313.64V40.9671Z" fill="white"/>
<path d="M1314.96 42.6134L1314.86 41.5597L1314.75 42.6134H1314.96ZM1314.75 40.873L1314.56 40.572H1314.9L1314.99 40.873H1314.74H1314.75ZM1315 43.0367H1314.69L1314.67 43.3942H1314.23L1314.54 40.9671H1315.2L1315.52 43.3942H1315.04L1315 43.0367Z" fill="white"/>
<path d="M1316.03 42.0677L1316.04 42.6886V43.3848H1315.62V40.9671H1316.12L1316.4 42.1618V41.4657L1316.39 40.9671H1316.81V43.3848H1316.34L1316.03 42.0677Z" fill="white"/>
<path d="M1317.71 40.9671H1318.2V43.3848H1317.71V42.3688H1317.47V43.3848H1316.98V40.9671H1317.47V41.936H1317.71V40.9671Z" fill="white"/>
<path d="M1319.5 41.9737V42.3405H1319.37V42.9708H1319.46C1319.56 42.9708 1319.6 42.9332 1319.6 42.8391V41.5127C1319.6 41.4186 1319.56 41.381 1319.46 41.381H1319.37V41.9737H1319.5ZM1318.75 42.3405V41.9737H1318.88V40.9671H1319.56C1319.91 40.9671 1320.07 41.1364 1320.07 41.4845V42.8674C1320.07 43.2154 1319.9 43.3848 1319.56 43.3848H1318.88V42.3405H1318.75Z" fill="white"/>
<path d="M1320.87 41.3622H1320.8C1320.74 41.3622 1320.72 41.3904 1320.72 41.4468V42.905C1320.72 42.9614 1320.74 42.9897 1320.8 42.9897H1320.87C1320.93 42.9897 1320.95 42.9614 1320.95 42.905V41.4468C1320.95 41.3904 1320.93 41.3622 1320.87 41.3622ZM1320.65 43.6011H1321.03V43.9962H1320.65V43.6011ZM1320.94 40.873L1320.84 40.7601L1320.74 40.873H1320.53L1320.71 40.572H1320.97L1321.15 40.873H1320.94ZM1320.99 43.4036H1320.68C1320.38 43.4036 1320.23 43.2531 1320.23 42.952V41.3904C1320.23 41.0894 1320.38 40.9389 1320.68 40.9389H1320.99C1321.3 40.9389 1321.44 41.0894 1321.44 41.3904V42.952C1321.44 43.2531 1321.3 43.4036 1320.99 43.4036Z" fill="white"/>
<path d="M1322.02 42.0677V42.6886L1322.03 43.3848H1321.61V40.9671H1322.1L1322.38 42.1618V41.4657L1322.37 40.9671H1322.79V43.3848H1322.32L1322.02 42.0677Z" fill="white"/>
<path d="M1324.16 42.0207V42.9614C1324.16 43.2625 1324.02 43.413 1323.71 43.413H1323.4C1323.09 43.413 1322.95 43.2625 1322.95 42.9614V41.3998C1322.95 41.0988 1323.09 40.9483 1323.4 40.9483H1323.7C1324 40.9483 1324.15 41.0988 1324.15 41.3998V41.8608H1323.67V41.4468C1323.67 41.3904 1323.64 41.3622 1323.59 41.3622H1323.52C1323.46 41.3622 1323.43 41.3904 1323.43 41.4468V42.905C1323.43 42.9614 1323.46 42.9897 1323.52 42.9897H1323.6C1323.65 42.9897 1323.68 42.9614 1323.68 42.905V42.4252H1323.53V42.0207H1324.16Z" fill="white"/>
<path d="M1325.52 40.873H1325.27L1325.37 40.572H1325.7L1325.51 40.873H1325.52ZM1326.24 40.9012C1326.24 41.0988 1326.16 41.1929 1325.99 41.2023V42.952C1325.99 43.2531 1325.85 43.4036 1325.54 43.4036H1325.24C1324.94 43.4036 1324.79 43.2531 1324.79 42.952V40.9577H1325.28V42.8956C1325.28 42.952 1325.31 42.9802 1325.37 42.9802H1325.41C1325.47 42.9802 1325.5 42.952 1325.5 42.8956V40.9577H1325.87C1325.93 40.9577 1325.96 40.9294 1325.96 40.873V40.7883H1326.24V40.9012Z" fill="white"/>
<path d="M1326.56 42.0677L1326.57 42.6886L1326.58 43.3848H1326.16V40.9671H1326.66L1326.94 42.1618L1326.93 41.4657V40.9671H1327.35V43.3848H1326.88L1326.56 42.0677Z" fill="white"/>
<path d="M1328.72 42.0207V42.9614C1328.72 43.2625 1328.57 43.413 1328.27 43.413H1327.95C1327.65 43.413 1327.5 43.2625 1327.5 42.9614V41.3998C1327.5 41.0988 1327.65 40.9483 1327.95 40.9483H1328.26C1328.55 40.9483 1328.71 41.0988 1328.71 41.3998V41.8608H1328.23V41.4468C1328.23 41.3904 1328.2 41.3622 1328.14 41.3622H1328.08C1328.02 41.3622 1327.99 41.3904 1327.99 41.4468V42.905C1327.99 42.9614 1328.02 42.9897 1328.08 42.9897H1328.15C1328.21 42.9897 1328.24 42.9614 1328.24 42.905V42.4252H1328.09V42.0207H1328.72Z" fill="white"/>
<path d="M1313.5 45.5296H1313.39V46.2822H1313.5C1313.56 46.2822 1313.58 46.254 1313.58 46.1976V45.6237C1313.58 45.5673 1313.56 45.539 1313.5 45.539M1312.91 47.5334V45.1063H1313.62C1313.92 45.1063 1314.07 45.2568 1314.07 45.5579V46.2446C1314.07 46.5456 1313.93 46.6961 1313.62 46.6961H1313.39V47.5334H1312.9H1312.91Z" fill="white"/>
<path d="M1314.93 45.1157H1315.41V47.5334H1314.93V46.5268H1314.69V47.5334H1314.21V45.1157H1314.69V46.0941H1314.93V45.1157Z" fill="white"/>
<path d="M1316.23 45.5108H1316.16C1316.1 45.5108 1316.07 45.539 1316.07 45.5955V47.0536C1316.07 47.1101 1316.1 47.1383 1316.16 47.1383H1316.23C1316.28 47.1383 1316.31 47.1101 1316.31 47.0536V45.5955C1316.31 45.539 1316.28 45.5108 1316.23 45.5108ZM1316.5 44.73L1316.31 45.031H1316.06L1316.16 44.73H1316.5ZM1316.34 47.5616H1316.03C1315.73 47.5616 1315.58 47.4111 1315.58 47.1101V45.5484C1315.58 45.2474 1315.73 45.0969 1316.03 45.0969H1316.34C1316.65 45.0969 1316.79 45.2474 1316.79 45.5484V47.1101C1316.79 47.4111 1316.65 47.5616 1316.34 47.5616Z" fill="white"/>
<path d="M1317.37 45.1157H1317.85L1318.03 46.8373L1318.2 45.1157H1318.65L1318.32 47.5334H1317.69L1317.37 45.1157Z" fill="white"/>
<path d="M1319.45 45.5955C1319.45 45.539 1319.42 45.5108 1319.37 45.5108H1319.3C1319.24 45.5108 1319.21 45.539 1319.21 45.5955V47.0536C1319.21 47.1101 1319.24 47.1383 1319.3 47.1383H1319.37C1319.42 47.1383 1319.45 47.1101 1319.45 47.0536V45.5955ZM1319.46 45.0216H1319.21L1319.32 44.7206H1319.65L1319.46 45.0216ZM1320.18 44.9464V45.0499C1320.18 45.2568 1320.09 45.3509 1319.91 45.3509C1319.93 45.4073 1319.94 45.4638 1319.94 45.539V47.1007C1319.94 47.4017 1319.8 47.5522 1319.49 47.5522H1319.17C1318.88 47.5522 1318.72 47.4017 1318.72 47.1007V45.539C1318.72 45.238 1318.87 45.0875 1319.17 45.0875H1319.49C1319.6 45.0875 1319.7 45.1063 1319.77 45.1533V45.1063H1319.83C1319.88 45.1063 1319.91 45.0781 1319.91 45.0216V44.937H1320.19L1320.18 44.9464Z" fill="white"/>
<path d="M1320.59 45.1157H1320.1V47.5428H1320.59V45.1157Z" fill="white"/>
<path d="M1321.84 47.1195C1321.89 47.1195 1321.92 47.0913 1321.92 47.0348V46.5927C1321.92 46.5362 1321.89 46.508 1321.84 46.508H1321.71V47.1195H1321.84ZM1321.84 45.5296H1321.72V46.1035H1321.84C1321.89 46.1035 1321.92 46.0753 1321.92 46.0188V45.6143C1321.92 45.5579 1321.89 45.5296 1321.84 45.5296ZM1322.41 46.5927V47.0818C1322.41 47.3829 1322.27 47.5334 1321.96 47.5334H1321.24V45.1157H1321.96C1322.26 45.1157 1322.41 45.2662 1322.41 45.5673V45.9247C1322.41 46.1317 1322.33 46.2352 1322.21 46.2822C1322.35 46.3198 1322.42 46.4139 1322.42 46.5927" fill="white"/>
<path d="M1323.05 45.1157H1322.56V47.5428H1323.05V45.1157Z" fill="white"/>
<path d="M1324.4 44.5607L1324.21 44.8617H1323.96L1324.06 44.5607H1324.4ZM1323.77 45.0216L1323.67 44.9087L1323.58 45.0216H1323.37L1323.54 44.7206H1323.81L1323.98 45.0216H1323.77ZM1324.12 45.5484H1323.71V46.0941H1324.11V46.5268H1323.71V47.1101H1324.13V47.5428H1323.22V45.1251H1324.12V45.5579V45.5484Z" fill="white"/>
<path d="M1324.7 46.2164V46.8373L1324.71 47.5334H1324.29V45.1157H1324.78L1325.06 46.3198V45.6143L1325.05 45.1157H1325.47V47.5334H1325L1324.7 46.2164Z" fill="white"/>
<path d="M1326.77 46.1223V46.4892H1326.64V47.1195H1326.74C1326.83 47.1195 1326.87 47.0818 1326.87 46.9878V45.6613C1326.87 45.5673 1326.83 45.5296 1326.74 45.5296H1326.64V46.1223H1326.77ZM1326.03 46.4892V46.1223H1326.15V45.1157H1326.83C1327.19 45.1157 1327.35 45.285 1327.35 45.6331V47.016C1327.35 47.3641 1327.18 47.5334 1326.83 47.5334H1326.15V46.4892H1326.03Z" fill="white"/>
<path d="M1328.5 44.6171V44.5889C1328.5 44.5889 1328.5 44.5795 1328.49 44.5795H1328.48C1328.48 44.5795 1328.47 44.5795 1328.47 44.5889V44.6359H1328.31V44.5889C1328.31 44.476 1328.36 44.4196 1328.47 44.4196H1328.52C1328.62 44.4196 1328.68 44.476 1328.68 44.5889V44.6077C1328.68 44.6736 1328.67 44.7112 1328.62 44.7582L1328.57 44.8147C1328.57 44.8147 1328.54 44.8429 1328.54 44.8899H1328.4V44.8335C1328.4 44.7676 1328.4 44.7488 1328.44 44.7018L1328.47 44.6736C1328.47 44.6736 1328.5 44.6359 1328.5 44.6077M1328.15 45.5108H1328.09C1328.03 45.5108 1328 45.539 1328 45.5955V47.0536C1328 47.1101 1328.03 47.1383 1328.09 47.1383H1328.15C1328.21 47.1383 1328.24 47.1101 1328.24 47.0536V45.5955C1328.24 45.539 1328.21 45.5108 1328.15 45.5108ZM1328.21 45.0216L1328.11 44.9087L1328.02 45.0216H1327.81L1327.98 44.7206H1328.25L1328.42 45.0216H1328.21ZM1328.27 47.5616H1327.95C1327.65 47.5616 1327.5 47.4111 1327.5 47.1101V45.5484C1327.5 45.2474 1327.65 45.0969 1327.95 45.0969H1328.27C1328.57 45.0969 1328.72 45.2474 1328.72 45.5484V47.1101C1328.72 47.4111 1328.57 47.5616 1328.27 47.5616Z" fill="white"/>
<path d="M1329.38 45.1157H1328.89V47.5428H1329.38V45.1157Z" fill="white"/>
<path d="M1313.39 50.5437V51.6914H1312.91V49.2643H1313.39V50.4026L1313.67 49.2643H1314.17L1313.85 50.4591L1314.16 51.6914H1313.64L1313.39 50.5437Z" fill="white"/>
<path d="M1314.97 49.2643H1315.46V51.6914H1314.97V50.6754H1314.73V51.6914H1314.24V49.2643H1314.73V50.2427H1314.97V49.2643Z" fill="white"/>
<path d="M1315.63 51.6914H1316.12V49.2738H1315.63V51.6914ZM1315.85 48.8786L1315.76 49.1797H1316.01L1316.2 48.8786H1315.85Z" fill="white"/>
<path d="M1317.49 49.2643H1317.98V51.6914H1317.49V50.6754H1317.25V51.6914H1316.76V49.2643H1317.25V50.2427H1317.49V49.2643Z" fill="white"/>
<path d="M1318.81 50.9106L1318.71 49.857L1318.6 50.9106H1318.81ZM1318.53 51.9078H1318.92V52.3029H1318.53V51.9078ZM1318.83 49.1797L1318.73 49.0668L1318.64 49.1797H1318.43L1318.6 48.8786H1318.86L1319.03 49.1797H1318.82H1318.83ZM1318.86 51.334H1318.55L1318.52 51.6914H1318.08L1318.4 49.2643H1319.06L1319.38 51.6914H1318.9L1318.86 51.334Z" fill="white"/>
<path d="M1320.21 51.7103H1319.91C1319.61 51.7103 1319.46 51.5597 1319.46 51.2587V49.2643H1319.95V51.2023C1319.95 51.2587 1319.98 51.2869 1320.04 51.2869H1320.08C1320.14 51.2869 1320.17 51.2587 1320.17 51.2023V49.2643H1320.66V51.2587C1320.66 51.5597 1320.51 51.7103 1320.21 51.7103Z" fill="white"/>
<text fill="white" xml:space="preserve" style="white-space: pre" font-family="Inter" font-size="14" font-style="italic" font-weight="300" letter-spacing="0em"><tspan x="1003" y="754.591">(*) Ph&#x1ea1;m vi bao g&#x1ed3;m c&#xe1;c nh&#xe0; m&#xe1;y s&#x1eef;a c&#x1ee7;a Vinamilk.</tspan></text>
<text fill="#2BC81F" xml:space="preserve" style="white-space: pre" font-family="VNM Sans Display" font-size="80" font-weight="bold" letter-spacing="0em"><tspan x="85" y="156.6">PH&#xc1;T TH&#x1ea2;I KH&#xcd; NH&#xc0; K&#xcd;NH</tspan></text>
<text fill="#2BC81F" xml:space="preserve" style="white-space: pre" font-family="VNM Sans Std" font-size="32" letter-spacing="0em"><tspan x="234.766" y="217.572">TI&#xca;N PHONG TR&#xca;N &#x2028;</tspan><tspan x="164.406" y="254.572"> H&#xc0;NH TR&#xcc;NH NET-ZERO 2050</tspan></text>
</g>
<defs>
<clipPath id="clip0_95_6185">
<rect width="1440" height="774" fill="white"/>
</clipPath>
<clipPath id="clip1_95_6185">
<rect x="780" y="102" width="560" height="478" rx="8" fill="white"/>
</clipPath>
</defs>
</svg>
