<svg width="1440" height="769" viewBox="0 0 1440 769" fill="none" xmlns="http://www.w3.org/2000/svg">
<path d="M1140 57H1100V97H1140V57Z" fill="#E7253C"/>
<path d="M1105.59 62.2587H1105.6V68.4393H1106.95V60.3678H1105.87L1104.62 61.8354V63.2465H1104.63L1105.59 62.2587Z" fill="#FFFFF1"/>
<path d="M1130.8 76.0875C1130.8 75.476 1131.29 74.9774 1131.91 74.9774C1132.52 74.9774 1133.01 75.476 1133.01 76.0875C1133.01 76.699 1132.52 77.1976 1131.91 77.1976C1131.29 77.1976 1130.8 76.699 1130.8 76.0875Z" fill="#FFFFF1"/>
<path d="M1133.2 77.6209C1133.96 77.6867 1134.54 78.317 1134.54 79.0884V82.1552C1134.54 82.3904 1134.35 82.588 1134.11 82.588C1133.88 82.588 1133.69 82.3998 1133.69 82.1552V79.5212C1133.69 79.4271 1133.66 79.286 1133.47 79.286C1133.35 79.286 1133.33 79.4177 1133.32 79.5024V87.4045C1133.32 87.7432 1133.04 88.0254 1132.7 88.0254C1132.37 88.0254 1132.08 87.7526 1132.08 87.4045V82.8514C1132.08 82.8043 1132.06 82.6726 1131.91 82.6726C1131.75 82.6726 1131.73 82.8043 1131.73 82.8514V87.4045C1131.73 87.7432 1131.45 88.0254 1131.12 88.0254C1130.78 88.0254 1130.49 87.7526 1130.49 87.4045V79.5024C1130.49 79.4177 1130.47 79.286 1130.34 79.286C1130.15 79.286 1130.12 79.4177 1130.12 79.5212V82.1552C1130.12 82.3904 1129.93 82.588 1129.7 82.588C1129.46 82.588 1129.27 82.3998 1129.27 82.1552V79.0884C1129.27 78.317 1129.85 77.6867 1130.61 77.6209C1130.63 77.6209 1130.66 77.6209 1130.69 77.6209H1133.11C1133.11 77.6209 1133.17 77.6209 1133.2 77.6209" fill="#FFFFF1"/>
<path d="M1124.22 76.6613C1124.22 76.0781 1123.75 75.6077 1123.17 75.6077C1122.59 75.6077 1122.12 76.0781 1122.12 76.6613C1122.12 77.2446 1122.59 77.7056 1123.17 77.7056C1123.75 77.7056 1124.22 77.2352 1124.22 76.6613Z" fill="#FFFFF1"/>
<path d="M1121.05 79.0414L1120.18 81.8824C1120.18 81.8824 1120.02 82.3998 1120.47 82.5315C1120.91 82.6632 1121.04 82.1552 1121.04 82.1552L1121.75 79.7846C1121.75 79.7846 1121.79 79.6058 1121.93 79.6435C1122.07 79.6811 1122.01 79.8786 1122.01 79.8786L1120.78 84.3189H1121.93V87.4986C1121.93 87.7996 1122.17 88.0442 1122.47 88.0442C1122.78 88.0442 1123.02 87.7996 1123.02 87.4986V84.3189H1123.33V87.4986C1123.33 87.7996 1123.57 88.0442 1123.88 88.0442C1124.18 88.0442 1124.42 87.7996 1124.42 87.4986V84.3189H1125.56L1124.33 79.8786C1124.33 79.8786 1124.27 79.6811 1124.41 79.6435C1124.55 79.6058 1124.59 79.7846 1124.59 79.7846L1125.3 82.1552C1125.3 82.1552 1125.44 82.6632 1125.87 82.5315C1126.32 82.3998 1126.16 81.8824 1126.16 81.8824L1125.29 79.0414C1125.29 79.0414 1124.97 78.223 1124.28 78.223H1122.07C1121.38 78.223 1121.06 79.0414 1121.06 79.0414" fill="#FFFFF1"/>
<path d="M1117.93 76.6613C1117.93 76.0781 1117.47 75.6077 1116.89 75.6077C1116.3 75.6077 1115.84 76.0781 1115.84 76.6613C1115.84 77.2446 1116.3 77.7056 1116.89 77.7056C1117.47 77.7056 1117.93 77.2352 1117.93 76.6613Z" fill="#FFFFF1"/>
<path d="M1114.78 79.0414L1113.91 81.8824C1113.91 81.8824 1113.75 82.3998 1114.19 82.5315C1114.63 82.6632 1114.77 82.1552 1114.77 82.1552L1115.47 79.7846C1115.47 79.7846 1115.51 79.6058 1115.65 79.6435C1115.79 79.6811 1115.73 79.8786 1115.73 79.8786L1114.51 84.3189H1115.65V87.4986C1115.65 87.7996 1115.89 88.0442 1116.2 88.0442C1116.5 88.0442 1116.75 87.7996 1116.75 87.4986V84.3189H1117.06V87.4986C1117.06 87.7996 1117.3 88.0442 1117.61 88.0442C1117.92 88.0442 1118.16 87.7996 1118.16 87.4986V84.3189H1119.3L1118.07 79.8786C1118.07 79.8786 1118.02 79.6811 1118.16 79.6435C1118.3 79.6058 1118.33 79.7846 1118.33 79.7846L1119.04 82.1552C1119.04 82.1552 1119.17 82.6632 1119.61 82.5315C1120.06 82.3998 1119.9 81.8824 1119.9 81.8824L1119.03 79.0414C1119.03 79.0414 1118.71 78.223 1118.03 78.223H1115.81C1115.12 78.223 1114.81 79.0414 1114.81 79.0414" fill="#FFFFF1"/>
<path d="M1127.74 82.5315C1128.22 82.5315 1128.61 82.1364 1128.61 81.6566C1128.61 81.1769 1128.22 80.7818 1127.74 80.7818C1127.25 80.7818 1126.86 81.1674 1126.86 81.6566C1126.86 82.1458 1127.25 82.5315 1127.74 82.5315Z" fill="#FFFFF1"/>
<path d="M1125.65 85.2408C1125.6 85.3443 1125.57 85.5607 1125.78 85.6548C1126.02 85.7676 1126.15 85.5325 1126.15 85.5325L1126.62 84.0179C1126.62 84.0179 1126.71 83.9144 1126.71 84.0179V87.5833C1126.71 87.8278 1126.91 88.0348 1127.15 88.0348C1127.39 88.0348 1127.6 87.8373 1127.6 87.5833V86.1816C1127.6 86.1816 1127.57 85.984 1127.73 85.984C1127.89 85.984 1127.87 86.1816 1127.87 86.1816V87.5833C1127.87 87.8278 1128.07 88.0348 1128.31 88.0348C1128.55 88.0348 1128.76 87.8373 1128.76 87.5833V84.0179C1128.76 83.9144 1128.81 83.9897 1128.81 83.9897L1129.19 85.0245C1129.19 85.0245 1129.34 85.4854 1129.4 85.5042C1129.57 85.5701 1129.76 85.4948 1129.84 85.3255C1129.88 85.2126 1129.86 85.0997 1129.8 85.0056C1129.8 85.0056 1129.24 83.6322 1129.18 83.444C1128.98 82.8702 1128.62 82.8796 1128.28 82.8702C1127.93 82.8702 1127.73 82.8702 1127.73 82.8702C1127.73 82.8702 1127.51 82.8608 1127.05 82.8702C1126.6 82.889 1126.46 83.1148 1125.95 84.413C1125.87 84.6011 1125.63 85.2032 1125.63 85.2408H1125.65Z" fill="#FFFFF1"/>
<path d="M1108.58 76.0875C1108.58 75.476 1108.09 74.9774 1107.47 74.9774C1106.86 74.9774 1106.37 75.476 1106.37 76.0875C1106.37 76.699 1106.86 77.1976 1107.47 77.1976C1108.09 77.1976 1108.58 76.699 1108.58 76.0875Z" fill="#FFFFF1"/>
<path d="M1106.17 77.6209C1105.42 77.6867 1104.84 78.317 1104.84 79.0884V82.1552C1104.84 82.3904 1105.03 82.588 1105.26 82.588C1105.5 82.588 1105.69 82.3998 1105.69 82.1552V79.5212C1105.69 79.4271 1105.72 79.286 1105.9 79.286C1106.02 79.286 1106.05 79.4177 1106.06 79.5024V87.4045C1106.06 87.7432 1106.34 88.0254 1106.67 88.0254C1107.01 88.0254 1107.29 87.7526 1107.29 87.4045V82.8514C1107.29 82.8043 1107.31 82.6726 1107.46 82.6726C1107.62 82.6726 1107.64 82.8043 1107.64 82.8514V87.4045C1107.64 87.7432 1107.92 88.0254 1108.25 88.0254C1108.59 88.0254 1108.87 87.7526 1108.87 87.4045V79.5024C1108.87 79.4177 1108.9 79.286 1109.03 79.286C1109.22 79.286 1109.25 79.4177 1109.25 79.5212V82.1552C1109.25 82.3904 1109.44 82.588 1109.67 82.588C1109.9 82.588 1110.1 82.3998 1110.1 82.1552V79.0884C1110.1 78.317 1109.51 77.6867 1108.75 77.6209C1108.73 77.6209 1108.7 77.6209 1108.67 77.6209H1106.25C1106.25 77.6209 1106.19 77.6209 1106.16 77.6209" fill="#FFFFF1"/>
<path d="M1110.63 82.08C1110.57 81.9859 1110.47 81.9294 1110.36 81.9294C1110.18 81.9294 1110.04 82.0706 1110.04 82.2493C1110.04 82.2963 1110.07 82.3904 1110.07 82.3904L1110.95 83.9802C1110.95 83.9802 1111.01 84.0931 1111.01 84.1872V87.6021C1111.01 87.8373 1111.2 88.0348 1111.44 88.0348C1111.67 88.0348 1111.86 87.8467 1111.86 87.6021V86.2568C1111.86 86.2568 1111.84 86.0687 1111.99 86.0687C1112.15 86.0687 1112.12 86.2568 1112.12 86.2568V87.6021C1112.12 87.8373 1112.32 88.0348 1112.55 88.0348C1112.78 88.0348 1112.98 87.8467 1112.98 87.6021V84.1872C1112.98 84.0837 1113.03 83.9802 1113.03 83.9802L1113.85 82.5127C1113.85 82.5127 1113.95 82.3057 1113.95 82.2493C1113.95 82.0706 1113.81 81.9294 1113.64 81.9294C1113.53 81.9294 1113.42 81.9859 1113.37 82.08C1113.37 82.08 1112.93 82.8231 1112.8 82.9643C1112.66 83.1054 1112.53 83.096 1112.53 83.096H1111.47C1111.47 83.096 1111.34 83.1148 1111.2 82.9643C1111.07 82.8326 1110.67 82.1082 1110.64 82.08H1110.63Z" fill="#FFFFF1"/>
<path d="M1111.99 82.5315C1112.48 82.5315 1112.87 82.1364 1112.87 81.6566C1112.87 81.1769 1112.48 80.7818 1111.99 80.7818C1111.51 80.7818 1111.12 81.1674 1111.12 81.6566C1111.12 82.1458 1111.51 82.5315 1111.99 82.5315Z" fill="#FFFFF1"/>
<path d="M1111.99 83.7545L1112.99 84.4788L1113.45 86.2004H1110.54L1111.01 84.4788L1111.99 83.7545Z" fill="#FFFFF1"/>
<path d="M1110.99 68.6181C1110.99 68.6181 1110.99 68.5992 1110.99 68.5804L1111.46 67.4233C1111.46 67.4233 1111.46 67.4139 1111.46 67.4045L1110.99 66.2568C1110.99 66.2568 1110.99 66.2474 1110.99 66.238C1110.99 66.2192 1111 66.2098 1111.03 66.2098H1111.35C1111.35 66.2098 1111.39 66.2192 1111.4 66.2474L1111.68 67C1111.68 67 1111.68 67.0094 1111.69 67.0094C1111.7 67.0094 1111.69 67.0094 1111.7 67L1111.97 66.2474C1111.97 66.2474 1111.99 66.2098 1112.02 66.2098H1112.35C1112.35 66.2098 1112.37 66.2098 1112.37 66.2192C1112.37 66.2192 1112.37 66.238 1112.37 66.2568L1111.9 67.4045C1111.9 67.4045 1111.9 67.4139 1111.9 67.4233L1112.37 68.5804C1112.37 68.5804 1112.37 68.5898 1112.37 68.5992C1112.37 68.6181 1112.36 68.6275 1112.34 68.6275H1112.01C1112.01 68.6275 1111.97 68.6181 1111.97 68.5898L1111.69 67.8467C1111.69 67.8467 1111.69 67.8373 1111.68 67.8373C1111.67 67.8373 1111.68 67.8373 1111.67 67.8467L1111.39 68.5898C1111.39 68.5898 1111.37 68.6275 1111.34 68.6275H1111.02C1111.02 68.6275 1110.99 68.6275 1110.99 68.6181Z" fill="#FFFFF1"/>
<path d="M1113.04 65.9746C1113.04 65.9746 1113.04 65.9558 1113.04 65.937L1113.25 65.5795C1113.25 65.5795 1113.27 65.5513 1113.3 65.5513H1113.55C1113.55 65.5513 1113.58 65.5513 1113.59 65.5701C1113.59 65.5795 1113.59 65.5889 1113.59 65.6077L1113.33 65.9652C1113.33 65.9652 1113.3 65.984 1113.28 65.984H1113.09C1113.09 65.984 1113.06 65.984 1113.05 65.9746M1113.42 68.2324C1113.47 68.1759 1113.5 68.1101 1113.5 68.016V66.8213C1113.5 66.7366 1113.47 66.6613 1113.42 66.6049C1113.38 66.5484 1113.31 66.5202 1113.24 66.5202C1113.16 66.5202 1113.1 66.5484 1113.05 66.6049C1113.01 66.6613 1112.98 66.7272 1112.98 66.8213V68.016C1112.98 68.1007 1113 68.1759 1113.05 68.2324C1113.1 68.2888 1113.16 68.317 1113.24 68.317C1113.31 68.317 1113.38 68.2888 1113.42 68.2324ZM1112.75 68.477C1112.63 68.3547 1112.58 68.1947 1112.58 67.9972V66.8307C1112.58 66.6331 1112.63 66.4732 1112.75 66.3509C1112.88 66.2286 1113.03 66.1722 1113.24 66.1722C1113.44 66.1722 1113.6 66.2286 1113.72 66.3509C1113.84 66.4732 1113.91 66.6331 1113.91 66.8307V67.9972C1113.91 68.1947 1113.85 68.3547 1113.72 68.477C1113.6 68.5992 1113.44 68.6557 1113.24 68.6557C1113.03 68.6557 1112.88 68.5992 1112.75 68.477Z" fill="#FFFFF1"/>
<path d="M1114.59 67.8937H1114.97C1114.97 67.8937 1114.99 67.8937 1114.99 67.8749L1114.79 66.7836C1114.79 66.7836 1114.79 66.7742 1114.78 66.7742C1114.77 66.7742 1114.78 66.7742 1114.77 66.7836L1114.57 67.8749C1114.57 67.8749 1114.57 67.8937 1114.59 67.8937ZM1115.13 68.5898L1115.07 68.223C1115.07 68.223 1115.07 68.2041 1115.05 68.2041H1114.55C1114.55 68.2041 1114.53 68.2041 1114.53 68.223L1114.46 68.5898C1114.46 68.5898 1114.44 68.6275 1114.42 68.6275H1114.1C1114.1 68.6275 1114.05 68.6087 1114.06 68.5804L1114.57 66.238C1114.57 66.238 1114.59 66.2004 1114.62 66.2004H1114.99C1114.99 66.2004 1115.03 66.2098 1115.04 66.238L1115.55 68.5804C1115.55 68.5804 1115.54 68.6275 1115.51 68.6275H1115.19C1115.19 68.6275 1115.14 68.6181 1115.14 68.5898" fill="#FFFFF1"/>
<path d="M1117.43 66.2192C1117.43 66.2192 1117.45 66.2098 1117.46 66.2098H1117.78C1117.78 66.2098 1117.8 66.2098 1117.8 66.2192C1117.8 66.2192 1117.81 66.238 1117.81 66.2474V68.5898C1117.81 68.5898 1117.81 68.6087 1117.8 68.6181C1117.8 68.6181 1117.79 68.6275 1117.78 68.6275H1117.41C1117.41 68.6275 1117.38 68.6181 1117.37 68.5898L1116.85 67.1223C1116.85 67.1223 1116.85 67.1129 1116.84 67.1223C1116.84 67.1223 1116.83 67.1223 1116.83 67.1317V68.5898C1116.83 68.5898 1116.83 68.6087 1116.83 68.6181C1116.83 68.6181 1116.81 68.6275 1116.8 68.6275H1116.49C1116.49 68.6275 1116.47 68.6275 1116.46 68.6181C1116.46 68.6181 1116.45 68.5992 1116.45 68.5898V66.2474C1116.45 66.2474 1116.45 66.2286 1116.46 66.2192C1116.46 66.2192 1116.48 66.2098 1116.49 66.2098H1116.84C1116.84 66.2098 1116.88 66.2192 1116.89 66.2474L1117.41 67.7056C1117.41 67.7056 1117.41 67.715 1117.41 67.7056C1117.41 67.7056 1117.41 67.7056 1117.41 67.6961V66.2474C1117.41 66.2474 1117.41 66.2286 1117.42 66.2192" fill="#FFFFF1"/>
<path d="M1118.32 68.4864C1118.19 68.3735 1118.14 68.223 1118.14 68.0348V66.8119C1118.14 66.6237 1118.19 66.4732 1118.32 66.3603C1118.44 66.2474 1118.59 66.191 1118.79 66.191C1118.98 66.191 1119.14 66.2474 1119.26 66.3603C1119.38 66.4732 1119.45 66.6237 1119.45 66.8213V66.953C1119.45 66.953 1119.45 66.9718 1119.44 66.9812C1119.44 66.9812 1119.42 66.9906 1119.41 66.9906H1119.09C1119.09 66.9906 1119.08 66.9906 1119.07 66.9812C1119.07 66.9812 1119.06 66.9624 1119.06 66.953V66.8119C1119.06 66.7272 1119.04 66.6613 1118.98 66.6143C1118.94 66.5673 1118.87 66.539 1118.8 66.539C1118.72 66.539 1118.66 66.5673 1118.61 66.6143C1118.57 66.6613 1118.55 66.7272 1118.55 66.8119V68.0442C1118.55 68.1289 1118.57 68.1947 1118.61 68.2418C1118.66 68.2888 1118.72 68.317 1118.8 68.317C1118.87 68.317 1118.94 68.2888 1118.98 68.2418C1119.03 68.1947 1119.06 68.1289 1119.06 68.0442V67.715C1119.06 67.715 1119.06 67.6961 1119.04 67.6961H1118.83C1118.83 67.6961 1118.81 67.6961 1118.8 67.6867C1118.8 67.6867 1118.79 67.6679 1118.79 67.6585V67.4045C1118.79 67.4045 1118.79 67.3857 1118.8 67.3763C1118.8 67.3763 1118.82 67.3669 1118.83 67.3669H1119.41C1119.41 67.3669 1119.43 67.3669 1119.44 67.3763C1119.44 67.3763 1119.45 67.3951 1119.45 67.4045V68.0442C1119.45 68.2324 1119.38 68.3829 1119.26 68.4958C1119.14 68.6087 1118.98 68.6651 1118.79 68.6651C1118.59 68.6651 1118.44 68.6087 1118.32 68.4958" fill="#FFFFF1"/>
<path d="M1120.65 66.2192C1120.65 66.2192 1120.67 66.2098 1120.68 66.2098H1121C1121 66.2098 1121.02 66.2098 1121.03 66.2192C1121.03 66.2192 1121.04 66.238 1121.04 66.2474V68.5898C1121.04 68.5898 1121.04 68.6087 1121.03 68.6181C1121.03 68.6181 1121.01 68.6275 1121 68.6275H1120.68C1120.68 68.6275 1120.66 68.6275 1120.65 68.6181C1120.65 68.6181 1120.65 68.5992 1120.65 68.5898V67.6115C1120.65 67.6115 1120.65 67.5927 1120.63 67.5927H1120.19C1120.19 67.5927 1120.17 67.5927 1120.17 67.6115V68.5898C1120.17 68.5898 1120.17 68.6087 1120.16 68.6181C1120.16 68.6181 1120.14 68.6275 1120.13 68.6275H1119.82C1119.82 68.6275 1119.8 68.6275 1119.79 68.6181C1119.79 68.6181 1119.78 68.5992 1119.78 68.5898V66.2474C1119.78 66.2474 1119.78 66.2286 1119.79 66.2192C1119.79 66.2192 1119.81 66.2098 1119.82 66.2098H1120.13C1120.13 66.2098 1120.15 66.2098 1120.16 66.2192C1120.16 66.2192 1120.17 66.238 1120.17 66.2474V67.2258C1120.17 67.2258 1120.17 67.2446 1120.19 67.2446H1120.63C1120.63 67.2446 1120.65 67.2446 1120.65 67.2258V66.2474C1120.65 66.2474 1120.65 66.2286 1120.65 66.2192Z" fill="#FFFFF1"/>
<path d="M1122.13 65.9558C1122.13 65.9558 1122.12 65.984 1122.09 65.984H1121.89C1121.89 65.984 1121.85 65.984 1121.84 65.9558L1121.59 65.5983C1121.59 65.5983 1121.58 65.5795 1121.58 65.5701C1121.58 65.5513 1121.59 65.5419 1121.62 65.5419H1121.87C1121.87 65.5419 1121.92 65.5419 1121.93 65.5701L1122.13 65.9276V65.9558ZM1122.59 66.539C1122.59 66.539 1122.58 66.5484 1122.57 66.5484H1121.81C1121.81 66.5484 1121.8 66.5484 1121.8 66.5673V67.2258C1121.8 67.2258 1121.8 67.2446 1121.81 67.2446H1122.26C1122.26 67.2446 1122.28 67.2446 1122.29 67.254C1122.29 67.254 1122.3 67.2728 1122.3 67.2822V67.5456C1122.3 67.5456 1122.3 67.5644 1122.29 67.5738C1122.29 67.5738 1122.27 67.5833 1122.26 67.5833H1121.81C1121.81 67.5833 1121.8 67.5833 1121.8 67.6021V68.2606C1121.8 68.2606 1121.8 68.2794 1121.81 68.2794H1122.57C1122.57 68.2794 1122.59 68.2794 1122.59 68.2888C1122.59 68.2888 1122.6 68.3076 1122.6 68.317V68.5804C1122.6 68.5804 1122.6 68.5992 1122.59 68.6087C1122.59 68.6087 1122.58 68.6181 1122.57 68.6181H1121.44C1121.44 68.6181 1121.42 68.6181 1121.42 68.6087C1121.42 68.6087 1121.41 68.5898 1121.41 68.5804V66.238C1121.41 66.238 1121.41 66.2192 1121.42 66.2098C1121.42 66.2098 1121.43 66.2004 1121.44 66.2004H1122.57C1122.57 66.2004 1122.59 66.2004 1122.59 66.2098C1122.59 66.2098 1122.6 66.2286 1122.6 66.238V66.5014C1122.6 66.5014 1122.6 66.5202 1122.59 66.5296" fill="#FFFFF1"/>
<path d="M1123.7 68.2324C1123.75 68.1759 1123.77 68.1101 1123.77 68.016V66.8213C1123.77 66.7366 1123.75 66.6613 1123.7 66.6049C1123.65 66.5484 1123.59 66.5202 1123.51 66.5202C1123.44 66.5202 1123.37 66.5484 1123.33 66.6049C1123.28 66.6613 1123.25 66.7272 1123.25 66.8213V68.016C1123.25 68.1007 1123.27 68.1759 1123.33 68.2324C1123.37 68.2888 1123.44 68.317 1123.51 68.317C1123.59 68.317 1123.65 68.2888 1123.7 68.2324ZM1123.03 68.477C1122.91 68.3547 1122.85 68.1947 1122.85 67.9972V66.8307C1122.85 66.6331 1122.92 66.4732 1123.03 66.3509C1123.15 66.2286 1123.31 66.1722 1123.51 66.1722C1123.72 66.1722 1123.88 66.2286 1124 66.3509C1124.12 66.4732 1124.18 66.6331 1124.18 66.8307V67.9972C1124.18 68.1947 1124.12 68.3547 1124 68.477C1123.88 68.5992 1123.72 68.6557 1123.51 68.6557C1123.31 68.6557 1123.15 68.5992 1123.03 68.477Z" fill="#FFFFF1"/>
<path d="M1190 57H1150V97H1190V57Z" fill="#DEA639"/>
<path d="M1157.48 67.3104H1155.25V66.9341C1155.25 66.3039 1155.48 66.0687 1155.82 65.6924L1156.69 64.7799C1157.39 64.0273 1157.55 63.5569 1157.55 62.7479V61.9671C1157.55 60.81 1156.99 60.2643 1155.78 60.2643C1154.56 60.2643 1153.98 60.8946 1153.98 62.0235V63.0019H1155.22V61.9859C1155.22 61.4967 1155.46 61.3556 1155.74 61.3556C1156 61.3556 1156.23 61.4591 1156.23 61.9671V62.635C1156.23 63.3029 1156.17 63.5663 1155.73 64.0273L1154.97 64.8363C1154.23 65.6171 1153.96 66.1439 1153.96 66.9436V68.4299H1157.49V67.3198L1157.48 67.3104Z" fill="#FFFFF1"/>
<path d="M1165.95 90.9887V91.5532C1165.95 91.5532 1165.95 91.5532 1165.95 91.5626C1165.95 91.5626 1165.95 91.5626 1165.95 91.572C1165.95 91.7131 1166.07 91.8166 1166.21 91.826H1172.81C1172.95 91.826 1173.07 91.7037 1173.07 91.5626V90.9229C1176.78 89.7093 1179.57 86.699 1180.18 83.0301V83.0113C1180.18 83.0019 1180.18 82.9831 1180.18 82.9737C1180.18 82.8231 1180.05 82.7103 1179.9 82.7103H1158.87C1158.72 82.7103 1158.6 82.8326 1158.6 82.9737L1158.62 83.096C1159.26 86.8024 1162.12 89.8222 1165.91 90.9981" fill="#FFFFF1"/>
<path d="M1173.08 73.7262C1173 73.8485 1170.96 76.7742 1173.13 79.1355C1174.12 80.2173 1174.03 81.1769 1173.75 81.826H1175.15C1175.43 80.8758 1175.31 79.6717 1174.18 78.4393C1172.59 76.699 1174.2 74.3377 1174.23 74.3001C1174.42 74.0367 1174.32 73.6886 1174.01 73.5193C1173.69 73.3594 1173.29 73.444 1173.09 73.7074" fill="#FFFFF1"/>
<path d="M1169.57 81.8354H1170.96C1171.24 80.8852 1171.13 79.6811 1170 78.4487C1168.4 76.7084 1170.01 74.3471 1170.04 74.3095C1170.23 74.0461 1170.14 73.698 1169.82 73.5381C1169.51 73.3782 1169.1 73.4628 1168.9 73.7262C1168.82 73.8485 1166.78 76.7742 1168.95 79.1355C1169.94 80.2267 1169.86 81.1769 1169.57 81.826" fill="#FFFFF1"/>
<path d="M1164.71 73.7262C1164.63 73.8485 1162.59 76.7742 1164.76 79.1355C1165.75 80.2267 1165.67 81.1769 1165.39 81.826H1166.77C1167.05 80.8758 1166.94 79.6717 1165.81 78.4393C1164.21 76.699 1165.83 74.3377 1165.85 74.3001C1166.04 74.0367 1165.94 73.6886 1165.63 73.5287C1165.32 73.3688 1164.91 73.4534 1164.71 73.7168" fill="#FFFFF1"/>
<path d="M1160.9 64.4694C1160.9 64.4694 1160.89 64.4506 1160.89 64.4412V62.0988C1160.89 62.0988 1160.89 62.08 1160.9 62.0706C1160.9 62.0706 1160.92 62.0611 1160.93 62.0611H1161.25C1161.25 62.0611 1161.26 62.0611 1161.27 62.0706C1161.27 62.0706 1161.28 62.0894 1161.28 62.0988V63.0489C1161.28 63.0489 1161.28 63.0583 1161.28 63.0677C1161.28 63.0677 1161.28 63.0677 1161.29 63.0677L1161.82 62.0988C1161.82 62.0988 1161.84 62.0706 1161.87 62.0706H1162.22C1162.22 62.0706 1162.25 62.0706 1162.25 62.08C1162.25 62.08 1162.25 62.0988 1162.25 62.1176L1161.72 63.0865V63.1054L1162.28 64.4412C1162.28 64.4412 1162.28 64.4506 1162.28 64.46C1162.28 64.4788 1162.27 64.4882 1162.25 64.4882H1161.9C1161.9 64.4882 1161.86 64.4788 1161.85 64.46L1161.44 63.4628C1161.44 63.4628 1161.44 63.4628 1161.43 63.4628C1161.43 63.4628 1161.43 63.4628 1161.42 63.4628L1161.28 63.698V64.4506C1161.28 64.4506 1161.28 64.4694 1161.27 64.4788C1161.27 64.4788 1161.25 64.4882 1161.25 64.4882H1160.93C1160.93 64.4882 1160.91 64.4882 1160.9 64.4788" fill="#FFFFF1"/>
<path d="M1163.41 62.0706C1163.41 62.0706 1163.43 62.0611 1163.44 62.0611H1163.76C1163.76 62.0611 1163.78 62.0611 1163.79 62.0706C1163.79 62.0706 1163.8 62.0894 1163.8 62.0988V64.4412C1163.8 64.4412 1163.8 64.46 1163.79 64.4694C1163.79 64.4694 1163.77 64.4788 1163.76 64.4788H1163.44C1163.44 64.4788 1163.42 64.4788 1163.41 64.4694C1163.41 64.4694 1163.4 64.4506 1163.4 64.4412V63.4628C1163.4 63.4628 1163.41 63.444 1163.39 63.444H1162.95C1162.95 63.444 1162.93 63.444 1162.93 63.4628V64.4412C1162.93 64.4412 1162.93 64.46 1162.92 64.4694C1162.92 64.4694 1162.9 64.4788 1162.89 64.4788H1162.57C1162.57 64.4788 1162.55 64.4788 1162.54 64.4694C1162.54 64.4694 1162.54 64.4506 1162.54 64.4412V62.0988C1162.54 62.0988 1162.54 62.08 1162.54 62.0706C1162.54 62.0706 1162.56 62.0611 1162.57 62.0611H1162.89C1162.89 62.0611 1162.91 62.0611 1162.92 62.0706C1162.92 62.0706 1162.93 62.0894 1162.93 62.0988V63.0771C1162.93 63.0771 1162.93 63.096 1162.95 63.096H1163.39C1163.39 63.096 1163.4 63.096 1163.4 63.0771V62.0988C1163.4 62.0988 1163.41 62.08 1163.41 62.0706Z" fill="#FFFFF1"/>
<path d="M1164.98 64.0837C1165.02 64.0273 1165.05 63.9614 1165.05 63.8674V62.6726C1165.05 62.588 1165.02 62.5127 1164.98 62.4563C1164.93 62.3998 1164.86 62.3716 1164.79 62.3716C1164.71 62.3716 1164.65 62.3998 1164.6 62.4563C1164.55 62.5127 1164.53 62.5786 1164.53 62.6726V63.8674C1164.53 63.952 1164.55 64.0273 1164.6 64.0837C1164.65 64.1402 1164.71 64.1684 1164.79 64.1684C1164.86 64.1684 1164.93 64.1402 1164.98 64.0837ZM1164.32 61.826C1164.32 61.826 1164.32 61.8071 1164.32 61.7883L1164.54 61.4309C1164.54 61.4309 1164.56 61.4026 1164.58 61.4026H1164.94C1164.94 61.4026 1164.98 61.4026 1164.98 61.4309L1165.21 61.7883C1165.21 61.7883 1165.21 61.8071 1165.21 61.8166C1165.21 61.8354 1165.2 61.8354 1165.17 61.8354H1164.93C1164.93 61.8354 1164.89 61.8354 1164.87 61.8071L1164.75 61.5908C1164.75 61.5908 1164.74 61.5814 1164.73 61.5908L1164.61 61.8071C1164.61 61.8071 1164.58 61.8354 1164.55 61.8354H1164.31C1164.31 61.8354 1164.28 61.8354 1164.28 61.826M1164.3 64.3283C1164.18 64.206 1164.12 64.0461 1164.12 63.8485V62.682C1164.12 62.4845 1164.18 62.3246 1164.3 62.2023C1164.42 62.08 1164.58 62.0235 1164.78 62.0235C1164.98 62.0235 1165.13 62.08 1165.26 62.2023C1165.38 62.3246 1165.44 62.4845 1165.44 62.682V63.8485C1165.44 64.0461 1165.38 64.206 1165.26 64.3283C1165.13 64.4506 1164.98 64.5071 1164.78 64.5071C1164.58 64.5071 1164.42 64.4506 1164.3 64.3283Z" fill="#FFFFF1"/>
<path d="M1166.76 62.0706C1166.76 62.0706 1166.78 62.0611 1166.79 62.0611H1167.11C1167.11 62.0611 1167.13 62.0611 1167.13 62.0706C1167.13 62.0706 1167.14 62.0894 1167.14 62.0988V64.4412C1167.14 64.4412 1167.14 64.46 1167.13 64.4694C1167.13 64.4694 1167.12 64.4788 1167.11 64.4788H1166.74C1166.74 64.4788 1166.7 64.4694 1166.7 64.4412L1166.18 62.9737C1166.18 62.9737 1166.18 62.9737 1166.17 62.9737C1166.17 62.9737 1166.17 62.9737 1166.17 62.9831V64.4412C1166.17 64.4412 1166.17 64.46 1166.16 64.4694C1166.16 64.4694 1166.14 64.4788 1166.13 64.4788H1165.82C1165.82 64.4788 1165.8 64.4788 1165.79 64.4694C1165.79 64.4694 1165.78 64.4506 1165.78 64.4412V62.0988C1165.78 62.0988 1165.78 62.08 1165.79 62.0706C1165.79 62.0706 1165.81 62.0611 1165.82 62.0611H1166.17C1166.17 62.0611 1166.21 62.0706 1166.22 62.0988L1166.73 63.5569C1166.73 63.5569 1166.73 63.5663 1166.74 63.5569C1166.74 63.5569 1166.74 63.5569 1166.74 63.5475V62.0988C1166.74 62.0988 1166.74 62.08 1166.75 62.0706" fill="#FFFFF1"/>
<path d="M1167.65 64.3377C1167.53 64.2248 1167.47 64.0743 1167.47 63.8862V62.6632C1167.47 62.4751 1167.53 62.3246 1167.65 62.2117C1167.77 62.0988 1167.92 62.0423 1168.12 62.0423C1168.31 62.0423 1168.47 62.0988 1168.59 62.2117C1168.71 62.3246 1168.77 62.4751 1168.77 62.6726V62.8043C1168.77 62.8043 1168.77 62.8231 1168.76 62.8325C1168.76 62.8325 1168.74 62.842 1168.73 62.842H1168.42C1168.42 62.842 1168.4 62.842 1168.39 62.8325C1168.39 62.8325 1168.38 62.8137 1168.38 62.8043V62.6632C1168.38 62.5786 1168.35 62.5127 1168.3 62.4657C1168.26 62.4186 1168.19 62.3904 1168.12 62.3904C1168.04 62.3904 1167.98 62.4186 1167.93 62.4657C1167.88 62.5127 1167.86 62.5786 1167.86 62.6632V63.8956C1167.86 63.9802 1167.89 64.0461 1167.93 64.0931C1167.98 64.1402 1168.04 64.1684 1168.12 64.1684C1168.19 64.1684 1168.26 64.1402 1168.3 64.0931C1168.35 64.0461 1168.38 63.9802 1168.38 63.8956V63.5663C1168.38 63.5663 1168.38 63.5475 1168.36 63.5475H1168.15C1168.15 63.5475 1168.14 63.5475 1168.13 63.5381C1168.13 63.5381 1168.12 63.5193 1168.12 63.5099V63.2559C1168.12 63.2559 1168.12 63.2371 1168.13 63.2277C1168.13 63.2277 1168.14 63.2183 1168.15 63.2183H1168.74C1168.74 63.2183 1168.76 63.2183 1168.77 63.2277C1168.77 63.2277 1168.78 63.2465 1168.78 63.2559V63.8956C1168.78 64.0837 1168.71 64.2342 1168.6 64.3471C1168.48 64.46 1168.32 64.5165 1168.13 64.5165C1167.93 64.5165 1167.77 64.46 1167.66 64.3471" fill="#FFFFF1"/>
<path d="M1169.92 64.3283C1169.8 64.206 1169.74 64.0555 1169.74 63.8579V62.682C1169.74 62.4845 1169.8 62.3246 1169.92 62.2117C1170.04 62.0988 1170.19 62.0329 1170.39 62.0329C1170.58 62.0329 1170.74 62.0894 1170.86 62.2117C1170.99 62.3246 1171.04 62.4845 1171.04 62.682V62.7197C1171.04 62.7197 1171.04 62.7385 1171.03 62.7479C1171.03 62.7573 1171.01 62.7573 1171 62.7573L1170.69 62.7761C1170.69 62.7761 1170.65 62.7573 1170.65 62.7385V62.6538C1170.65 62.5691 1170.63 62.5033 1170.58 62.4563C1170.54 62.3998 1170.47 62.381 1170.4 62.381C1170.32 62.381 1170.27 62.4092 1170.22 62.4563C1170.17 62.5033 1170.15 62.5691 1170.15 62.6538V63.8956C1170.15 63.9802 1170.17 64.0461 1170.22 64.0931C1170.27 64.1402 1170.32 64.1684 1170.4 64.1684C1170.47 64.1684 1170.54 64.1402 1170.58 64.0931C1170.63 64.0461 1170.65 63.9802 1170.65 63.8956V63.8109C1170.65 63.8109 1170.65 63.7921 1170.66 63.7827C1170.66 63.7827 1170.68 63.7733 1170.69 63.7733H1171C1171 63.7733 1171.02 63.7921 1171.03 63.8015C1171.03 63.8015 1171.04 63.8203 1171.04 63.8297V63.8674C1171.04 64.0649 1170.98 64.2248 1170.86 64.3377C1170.74 64.46 1170.58 64.5165 1170.39 64.5165C1170.19 64.5165 1170.03 64.46 1169.92 64.3377" fill="#FFFFF1"/>
<path d="M1172.16 64.0837C1172.21 64.0273 1172.24 63.9614 1172.24 63.8674V62.6726C1172.24 62.588 1172.21 62.5127 1172.16 62.4563C1172.12 62.3998 1172.05 62.3716 1171.98 62.3716C1171.9 62.3716 1171.84 62.3998 1171.79 62.4563C1171.74 62.5127 1171.72 62.5786 1171.72 62.6726V63.8674C1171.72 63.952 1171.74 64.0273 1171.79 64.0837C1171.84 64.1402 1171.9 64.1684 1171.98 64.1684C1172.05 64.1684 1172.12 64.1402 1172.16 64.0837ZM1172.1 61.8071C1172.1 61.8071 1172.09 61.8354 1172.06 61.8354H1171.86C1171.86 61.8354 1171.82 61.8354 1171.81 61.8071L1171.56 61.4497C1171.56 61.4497 1171.55 61.4309 1171.55 61.4214C1171.55 61.4026 1171.56 61.3932 1171.58 61.3932H1171.84C1171.84 61.3932 1171.87 61.3932 1171.89 61.4214L1172.1 61.7789V61.8071ZM1171.49 64.3283C1171.37 64.206 1171.31 64.0461 1171.31 63.8485V62.682C1171.31 62.4845 1171.37 62.3246 1171.49 62.2023C1171.61 62.08 1171.77 62.0235 1171.97 62.0235C1172.16 62.0235 1172.32 62.08 1172.44 62.2023C1172.57 62.3246 1172.63 62.4845 1172.63 62.682V63.8485C1172.63 64.0461 1172.57 64.206 1172.44 64.3283C1172.32 64.4506 1172.16 64.5071 1171.97 64.5071C1171.77 64.5071 1171.61 64.4506 1171.49 64.3283Z" fill="#FFFFF1"/>
<path d="M1173.95 62.0706C1173.95 62.0706 1173.97 62.0611 1173.98 62.0611H1174.3C1174.3 62.0611 1174.31 62.0611 1174.32 62.0706C1174.32 62.0706 1174.33 62.0894 1174.33 62.0988V64.4412C1174.33 64.4412 1174.33 64.46 1174.32 64.4694C1174.32 64.4694 1174.3 64.4788 1174.3 64.4788H1173.93C1173.93 64.4788 1173.89 64.4694 1173.88 64.4412L1173.37 62.9737C1173.37 62.9737 1173.37 62.9737 1173.36 62.9737C1173.36 62.9737 1173.36 62.9737 1173.36 62.9831V64.4412C1173.36 64.4412 1173.36 64.46 1173.36 64.4694C1173.36 64.4694 1173.34 64.4788 1173.33 64.4788H1173.01C1173.01 64.4788 1173 64.4788 1172.99 64.4694C1172.99 64.4694 1172.98 64.4506 1172.98 64.4412V62.0988C1172.98 62.0988 1172.98 62.08 1172.99 62.0706C1172.99 62.0706 1173.01 62.0611 1173.01 62.0611H1173.37C1173.37 62.0611 1173.41 62.0706 1173.42 62.0988L1173.93 63.5569C1173.93 63.5569 1173.93 63.5663 1173.94 63.5569C1173.94 63.5569 1173.94 63.5569 1173.94 63.5475V62.0988C1173.94 62.0988 1173.94 62.08 1173.95 62.0706Z" fill="#FFFFF1"/>
<path d="M1161.88 66.2192C1161.88 66.2192 1161.9 66.2098 1161.91 66.2098H1162.23C1162.23 66.2098 1162.25 66.2098 1162.26 66.2192C1162.26 66.2192 1162.26 66.238 1162.26 66.2474V68.5898C1162.26 68.5898 1162.26 68.6087 1162.26 68.6181C1162.26 68.6181 1162.24 68.6275 1162.23 68.6275H1161.86C1161.86 68.6275 1161.83 68.6181 1161.82 68.5898L1161.3 67.1223C1161.3 67.1223 1161.3 67.1129 1161.29 67.1223C1161.29 67.1223 1161.29 67.1223 1161.29 67.1317V68.5898C1161.29 68.5898 1161.29 68.6087 1161.29 68.6181C1161.29 68.6181 1161.27 68.6275 1161.26 68.6275H1160.95C1160.95 68.6275 1160.93 68.6275 1160.92 68.6181C1160.92 68.6181 1160.91 68.5992 1160.91 68.5898V66.2474C1160.91 66.2474 1160.91 66.2286 1160.92 66.2192C1160.92 66.2192 1160.94 66.2098 1160.95 66.2098H1161.3C1161.3 66.2098 1161.34 66.2192 1161.35 66.2474L1161.86 67.7056C1161.86 67.7056 1161.86 67.715 1161.87 67.7056C1161.87 67.7056 1161.87 67.7056 1161.87 67.6961V66.2474C1161.87 66.2474 1161.87 66.2286 1161.88 66.2192Z" fill="#FFFFF1"/>
<path d="M1163.03 67.8937H1163.41C1163.41 67.8937 1163.43 67.8937 1163.43 67.8749L1163.23 66.7836C1163.23 66.7836 1163.23 66.7836 1163.22 66.7836C1163.21 66.7836 1163.22 66.7836 1163.21 66.7836L1163.01 67.8749C1163.01 67.8749 1163.01 67.8937 1163.03 67.8937ZM1163.06 69.333C1163.06 69.333 1162.99 69.2295 1162.99 69.1637C1162.99 69.0978 1163.01 69.0414 1163.06 68.9944C1163.11 68.9473 1163.16 68.9285 1163.23 68.9285C1163.29 68.9285 1163.35 68.9473 1163.4 68.9944C1163.44 69.0414 1163.46 69.0884 1163.46 69.1637C1163.46 69.2389 1163.44 69.286 1163.4 69.333C1163.35 69.3801 1163.29 69.3989 1163.23 69.3989C1163.16 69.3989 1163.11 69.3801 1163.06 69.333ZM1163.56 68.5898L1163.5 68.223C1163.5 68.223 1163.5 68.2041 1163.48 68.2041H1162.97C1162.97 68.2041 1162.96 68.2041 1162.96 68.223L1162.89 68.5898C1162.89 68.5898 1162.87 68.6275 1162.84 68.6275H1162.53C1162.53 68.6275 1162.48 68.6087 1162.49 68.5804L1163 66.238C1163 66.238 1163.02 66.2004 1163.05 66.2004H1163.41C1163.41 66.2004 1163.45 66.2098 1163.46 66.238L1163.98 68.5804C1163.98 68.5804 1163.97 68.6275 1163.94 68.6275H1163.62C1163.62 68.6275 1163.57 68.6181 1163.57 68.5898" fill="#FFFFF1"/>
<path d="M1165.19 66.2192C1165.19 66.2192 1165.21 66.2098 1165.22 66.2098H1165.54C1165.54 66.2098 1165.56 66.2098 1165.56 66.2192C1165.56 66.2192 1165.57 66.238 1165.57 66.2474V68.5898C1165.57 68.5898 1165.57 68.6087 1165.56 68.6181C1165.56 68.6181 1165.55 68.6275 1165.54 68.6275H1165.17C1165.17 68.6275 1165.13 68.6181 1165.13 68.5898L1164.61 67.1223C1164.61 67.1223 1164.61 67.1129 1164.6 67.1223C1164.6 67.1223 1164.6 67.1223 1164.6 67.1317V68.5898C1164.6 68.5898 1164.6 68.6087 1164.59 68.6181C1164.59 68.6181 1164.57 68.6275 1164.56 68.6275H1164.25C1164.25 68.6275 1164.23 68.6275 1164.22 68.6181C1164.22 68.6181 1164.21 68.5992 1164.21 68.5898V66.2474C1164.21 66.2474 1164.21 66.2286 1164.22 66.2192C1164.22 66.2192 1164.24 66.2098 1164.25 66.2098H1164.6C1164.6 66.2098 1164.64 66.2192 1164.65 66.2474L1165.16 67.7056C1165.16 67.7056 1165.16 67.715 1165.17 67.7056C1165.17 67.7056 1165.17 67.7056 1165.17 67.6961V66.2474C1165.17 66.2474 1165.17 66.2286 1165.18 66.2192" fill="#FFFFF1"/>
<path d="M1167.63 66.8965C1167.63 66.793 1167.6 66.7084 1167.56 66.6519C1167.51 66.5955 1167.44 66.5579 1167.36 66.5579H1167.15C1167.15 66.5579 1167.13 66.5579 1167.13 66.5767V67.2352C1167.13 67.2352 1167.13 67.254 1167.15 67.254H1167.32C1167.32 67.254 1167.34 67.254 1167.35 67.2634C1167.35 67.2634 1167.36 67.2822 1167.36 67.2916V67.4421C1167.36 67.4421 1167.36 67.461 1167.35 67.4704C1167.35 67.4704 1167.33 67.4798 1167.32 67.4798H1167.15C1167.15 67.4798 1167.13 67.4798 1167.13 67.4986V68.27C1167.13 68.27 1167.13 68.2888 1167.15 68.2888H1167.36C1167.43 68.2888 1167.5 68.2512 1167.55 68.1947C1167.59 68.1383 1167.62 68.0536 1167.62 67.9501V66.8965H1167.63ZM1167.85 66.3885C1167.97 66.5108 1168.02 66.6707 1168.02 66.8683V67.969C1168.02 68.1665 1167.97 68.3264 1167.85 68.4487C1167.72 68.571 1167.56 68.6275 1167.37 68.6275H1166.78C1166.78 68.6275 1166.76 68.6275 1166.75 68.6181C1166.75 68.6181 1166.74 68.5992 1166.74 68.5898V67.4986C1166.74 67.4986 1166.74 67.4798 1166.72 67.4798H1166.66C1166.66 67.4798 1166.64 67.4798 1166.63 67.4704C1166.63 67.4704 1166.62 67.4516 1166.62 67.4421V67.2916C1166.62 67.2916 1166.62 67.2728 1166.63 67.2634C1166.63 67.2634 1166.65 67.254 1166.66 67.254H1166.72C1166.72 67.254 1166.74 67.254 1166.74 67.2352V66.2568C1166.74 66.2568 1166.74 66.238 1166.75 66.2286C1166.75 66.2286 1166.77 66.2192 1166.78 66.2192H1167.37C1167.56 66.2192 1167.72 66.2756 1167.85 66.3979" fill="#FFFFF1"/>
<path d="M1168.79 65.9746C1168.79 65.9746 1168.79 65.9558 1168.79 65.937L1169 65.5795C1169 65.5795 1169.02 65.5513 1169.05 65.5513H1169.3C1169.3 65.5513 1169.33 65.5513 1169.34 65.5701C1169.34 65.5795 1169.34 65.5889 1169.34 65.6077L1169.09 65.9652C1169.09 65.9652 1169.06 65.984 1169.04 65.984H1168.85C1168.85 65.984 1168.82 65.984 1168.81 65.9746M1169.17 68.2324C1169.22 68.1759 1169.25 68.1101 1169.25 68.016V66.8213C1169.25 66.7366 1169.22 66.6613 1169.17 66.6049C1169.13 66.5484 1169.06 66.5202 1168.99 66.5202C1168.91 66.5202 1168.85 66.5484 1168.8 66.6049C1168.75 66.6613 1168.72 66.7272 1168.72 66.8213V68.016C1168.72 68.1007 1168.75 68.1759 1168.8 68.2324C1168.85 68.2888 1168.91 68.317 1168.99 68.317C1169.06 68.317 1169.13 68.2888 1169.17 68.2324ZM1168.5 68.477C1168.38 68.3547 1168.32 68.1947 1168.32 67.9972V66.8307C1168.32 66.6331 1168.38 66.4732 1168.5 66.3509C1168.62 66.2286 1168.78 66.1722 1168.98 66.1722C1169.17 66.1722 1169.33 66.2286 1169.45 66.3509C1169.57 66.4732 1169.64 66.6331 1169.64 66.8307V67.9972C1169.64 68.1947 1169.57 68.3547 1169.45 68.477C1169.33 68.5992 1169.17 68.6557 1168.98 68.6557C1168.78 68.6557 1168.62 68.5992 1168.5 68.477Z" fill="#FFFFF1"/>
<path d="M1169.98 68.6181C1169.98 68.6181 1169.97 68.5992 1169.97 68.5898V66.2474C1169.97 66.2474 1169.97 66.2286 1169.98 66.2192C1169.98 66.2192 1170 66.2098 1170 66.2098H1170.32C1170.32 66.2098 1170.34 66.2098 1170.35 66.2192C1170.35 66.2192 1170.36 66.238 1170.36 66.2474V68.5898C1170.36 68.5898 1170.36 68.6087 1170.35 68.6181C1170.35 68.6181 1170.33 68.6275 1170.32 68.6275H1170C1170 68.6275 1169.99 68.6275 1169.98 68.6181Z" fill="#FFFFF1"/>
<path d="M1240 57H1200V97H1240V57Z" fill="#A21C43"/>
<path d="M1207.77 66.4446V65.5654C1207.77 64.7901 1207.49 64.2323 1206.87 63.9487C1207.41 63.684 1207.65 63.2113 1207.65 62.5495V62.2186C1207.65 60.9612 1207 60.2805 1205.75 60.2805C1204.5 60.2805 1203.87 60.9612 1203.87 62.2186V62.5495C1203.87 63.2018 1204.11 63.6935 1204.63 63.9487C1204 64.2323 1203.74 64.7901 1203.74 65.5654V66.4446C1203.74 67.6736 1204.32 68.5245 1205.75 68.5245C1207.18 68.5245 1207.77 67.6641 1207.77 66.4446M1205.14 62.1241C1205.14 61.6325 1205.31 61.3489 1205.75 61.3489C1206.18 61.3489 1206.36 61.6325 1206.36 62.1241V62.6724C1206.36 63.164 1206.19 63.4476 1205.75 63.4476C1205.3 63.4476 1205.14 63.164 1205.14 62.6724V62.1241ZM1206.41 66.5864C1206.41 67.078 1206.23 67.4183 1205.75 67.4183C1205.27 67.4183 1205.09 67.078 1205.09 66.5864V65.2817C1205.09 64.7901 1205.27 64.4498 1205.75 64.4498C1206.22 64.4498 1206.41 64.7901 1206.41 65.2817V66.5864Z" fill="#FFFFF1"/>
<path d="M1226.06 80.0773L1222.88 83.1026C1222.76 83.2255 1222.7 83.3106 1222.7 83.5564V92.0272C1222.7 92.1312 1222.78 92.2068 1222.88 92.2068H1226.16C1226.27 92.2068 1226.34 92.1217 1226.34 92.0272V80.1529C1226.34 80.0489 1226.27 79.8693 1226.06 80.0773Z" fill="#FFFFF1"/>
<path d="M1216.91 84.0102L1213.73 87.0355C1213.61 87.1584 1213.55 87.2434 1213.55 87.4892V92.0272C1213.55 92.1217 1213.64 92.2068 1213.73 92.2068H1217.02C1217.12 92.2068 1217.2 92.1217 1217.2 92.0272V84.0952C1217.2 83.9913 1217.12 83.8116 1216.91 84.0196" fill="#FFFFF1"/>
<path d="M1227.51 76.4091C1227.51 76.4091 1227.51 76.3619 1227.48 76.3429C1227.46 76.324 1227.44 76.324 1227.42 76.3146H1227.38L1224.94 76.8629H1224.9C1224.9 76.8629 1224.86 76.8818 1224.85 76.8913C1224.81 76.9291 1224.81 76.9858 1224.85 77.0236L1225.44 77.6098L1219.92 83.1215L1217.38 80.5784C1217.38 80.5784 1217.3 80.55 1217.27 80.5784L1216.58 81.2685L1212.5 85.3526C1212.5 85.3526 1212.47 85.4283 1212.5 85.4566L1213.19 86.1468C1213.19 86.1468 1213.27 86.1751 1213.3 86.1468L1217.33 82.1194L1219.87 84.653C1219.87 84.653 1219.94 84.6814 1219.97 84.653L1226.23 78.3945L1226.82 78.9806C1226.82 78.9806 1226.91 79.0184 1226.95 78.9806C1226.97 78.9617 1226.98 78.9428 1226.98 78.9239L1227.51 76.428V76.3997V76.4091Z" fill="#FFFFF1"/>
<path d="M1221.51 84.5396L1219.97 86.09C1219.97 86.09 1219.9 86.109 1219.88 86.09L1218.48 84.6719C1218.23 84.4167 1218.17 84.6247 1218.17 84.7287V92.0272C1218.17 92.1312 1218.25 92.2068 1218.35 92.2068H1221.64C1221.74 92.2068 1221.82 92.1217 1221.82 92.0272V84.6058C1221.82 84.5018 1221.74 84.3221 1221.52 84.549" fill="#FFFFF1"/>
<path d="M1210.72 62.0201H1211.21L1211.37 63.7407L1211.55 62.0201H1212.01L1211.68 64.4498H1211.04L1210.72 62.0201Z" fill="#FFFFF1"/>
<path d="M1212.59 62.0201H1212.11V64.4403H1212.59V62.0201Z" fill="#FFFFF1"/>
<path d="M1213.02 65.0643H1213.41V64.6672H1213.02V65.0643ZM1212.77 64.4403H1213.68V64.0054H1213.26V63.4287H1213.66V62.9939H1213.26V62.4455H1213.67V62.0106H1212.77V64.4403ZM1213.09 61.6325L1212.91 61.9255H1213.12L1213.21 61.8121L1213.3 61.9255H1213.51L1213.33 61.6325H1213.07H1213.09Z" fill="#FFFFF1"/>
<path d="M1215.02 64.0149C1215.02 64.3174 1214.87 64.4687 1214.57 64.4687H1214.28C1213.98 64.4687 1213.84 64.3174 1213.84 64.0149V62.455C1213.84 62.1524 1213.99 62.0012 1214.28 62.0012H1214.57C1214.88 62.0012 1215.02 62.1524 1215.02 62.455V63.0222H1214.55V62.5022C1214.55 62.4455 1214.52 62.4172 1214.46 62.4172H1214.4C1214.35 62.4172 1214.32 62.4455 1214.32 62.5022V63.9582C1214.32 64.0149 1214.35 64.0433 1214.4 64.0433H1214.47C1214.53 64.0433 1214.55 64.0149 1214.55 63.9582V63.372H1215.03V64.0149H1215.02Z" fill="#FFFFF1"/>
<path d="M1215.65 62.0201V64.4498H1216.49V64.0149H1216.14V62.0201H1215.65Z" fill="#FFFFF1"/>
<path d="M1217.28 63.6745L1217.18 62.6157L1217.07 63.6745H1217.29H1217.28ZM1217.07 61.935L1216.88 61.6419H1217.23L1217.33 61.935H1217.07ZM1217.03 64.0905L1216.99 64.4403H1216.55L1216.87 62.0201H1217.54L1217.86 64.4403H1217.38L1217.34 64.0905H1217.03Z" fill="#FFFFF1"/>
<path d="M1218.33 64.4498H1217.95V62.0201H1218.65L1218.79 63.4949L1218.93 62.0201H1219.64V64.4498H1219.16V62.8615L1218.98 64.4498H1218.52L1218.33 62.8426V64.4498Z" fill="#FFFFF1"/>
<path d="M1220.94 63.0317V63.4004H1220.8V64.0338H1220.89C1220.98 64.0338 1221.02 63.996 1221.02 63.9014V62.5779C1221.02 62.4833 1220.98 62.4455 1220.89 62.4455H1220.8V63.0411H1220.94V63.0317ZM1220.19 63.4004V63.0317H1220.31V62.0201H1220.99C1221.34 62.0201 1221.52 62.1903 1221.52 62.5401V63.9203C1221.52 64.2701 1221.34 64.4403 1220.99 64.4403H1220.31V63.3909H1220.19V63.4004Z" fill="#FFFFF1"/>
<path d="M1222.33 63.6745L1222.23 62.6157L1222.12 63.6745H1222.34H1222.33ZM1222.12 61.935L1221.93 61.6419H1222.27L1222.38 61.935H1222.12ZM1222.07 64.0905L1222.04 64.4403H1221.6L1221.92 62.0201H1222.59L1222.91 64.4403H1222.42L1222.39 64.0905H1222.07Z" fill="#FFFFF1"/>
<path d="M1223.4 63.1262L1223.41 63.7407V64.4498H1222.99V62.0201H1223.49L1223.77 63.2208L1223.76 62.5212V62.0201H1224.18V64.4498H1223.71L1223.4 63.1262Z" fill="#FFFFF1"/>
<path d="M1224.92 63.0789H1225.55V64.0149C1225.55 64.3174 1225.4 64.4687 1225.1 64.4687H1224.79C1224.49 64.4687 1224.35 64.3174 1224.35 64.0149V62.455C1224.35 62.1524 1224.5 62.0012 1224.79 62.0012H1225.09C1225.4 62.0012 1225.55 62.1524 1225.55 62.455V62.9182H1225.08V62.5022C1225.08 62.4455 1225.05 62.4172 1224.99 62.4172H1224.92C1224.87 62.4172 1224.84 62.4455 1224.84 62.5022V63.9676C1224.84 64.0243 1224.87 64.0527 1224.92 64.0527H1225C1225.06 64.0527 1225.09 64.0243 1225.09 63.9676V63.4855H1224.93V63.0789H1224.92Z" fill="#FFFFF1"/>
<path d="M1211.52 66.1799H1212V68.6001H1211.52V67.5885H1211.27V68.6001H1210.79V66.1799H1211.27V67.1536H1211.52V66.1799Z" fill="#FFFFF1"/>
<path d="M1212.8 66.5675H1212.74C1212.68 66.5675 1212.65 66.5958 1212.65 66.6526V68.1085C1212.65 68.1652 1212.68 68.1936 1212.74 68.1936H1212.8C1212.86 68.1936 1212.89 68.1652 1212.89 68.1085V66.6526C1212.89 66.5958 1212.86 66.5675 1212.8 66.5675ZM1212.93 68.619H1212.61C1212.31 68.619 1212.17 68.4677 1212.17 68.1652V66.6053C1212.17 66.3028 1212.32 66.1515 1212.61 66.1515H1212.93C1213.23 66.1515 1213.37 66.3028 1213.37 66.6053V68.1652C1213.37 68.4677 1213.22 68.619 1212.93 68.619Z" fill="#FFFFF1"/>
<path d="M1214.19 67.8249L1214.08 66.766L1213.98 67.8249H1214.2H1214.19ZM1213.98 66.0853L1213.79 65.7922H1214.12L1214.22 66.0853H1213.98ZM1213.93 68.2408L1213.89 68.5906H1213.46L1213.78 66.1704H1214.44L1214.76 68.5906H1214.28L1214.24 68.2408H1213.93Z" fill="#FFFFF1"/>
<path d="M1215.26 67.2765L1215.27 67.9005L1215.27 68.6001H1214.85V66.1799H1215.35L1215.62 67.3805V66.6809L1215.62 66.1799H1216.03V68.6001H1215.57L1215.26 67.2765Z" fill="#FFFFF1"/>
<path d="M1217.41 67.2293V68.1652C1217.41 68.4677 1217.26 68.619 1216.96 68.619H1216.65C1216.34 68.619 1216.2 68.4677 1216.2 68.1652V66.6053C1216.2 66.3028 1216.35 66.1515 1216.65 66.1515H1216.95C1217.25 66.1515 1217.4 66.3028 1217.4 66.6053V67.0685H1216.92V66.6526C1216.92 66.5958 1216.89 66.5675 1216.84 66.5675H1216.77C1216.71 66.5675 1216.69 66.5958 1216.69 66.6526V68.1179C1216.69 68.1747 1216.71 68.203 1216.77 68.203H1216.85C1216.9 68.203 1216.93 68.1747 1216.93 68.1179V67.6358H1216.78V67.2293H1217.41Z" fill="#FFFFF1"/>
<path d="M1218.71 68.1368L1218.77 68.0045L1218.53 67.5791C1218.53 67.5791 1218.48 67.6547 1218.48 67.7303V68.1274C1218.48 68.1747 1218.49 68.203 1218.55 68.203H1218.62C1218.66 68.203 1218.69 68.1841 1218.72 68.1274M1218.62 68.619H1218.44C1218.15 68.619 1218.01 68.4772 1218.01 68.1936V67.702C1218.01 67.5318 1218.05 67.3994 1218.17 67.2954L1218.3 67.182L1218.23 67.0402C1218.15 66.9078 1218.14 66.8227 1218.14 66.6809V66.6053C1218.14 66.3028 1218.3 66.1515 1218.59 66.1515H1218.8C1219.1 66.1515 1219.24 66.3028 1219.24 66.6053V66.9267H1218.8V66.6526C1218.8 66.5958 1218.77 66.5675 1218.71 66.5675H1218.67C1218.62 66.5675 1218.59 66.5958 1218.59 66.6526V66.6998C1218.59 66.7944 1218.62 66.8511 1218.66 66.9362L1218.96 67.494L1219.06 67.1725H1219.54L1219.25 67.9761L1219.59 68.6095H1219.09L1218.98 68.411C1218.9 68.5623 1218.8 68.6285 1218.6 68.6285" fill="#FFFFF1"/>
<path d="M1220.37 66.6053H1220.08V66.1704H1221.15V66.6053H1220.85V68.6001H1220.37V66.6053Z" fill="#FFFFF1"/>
<path d="M1221.79 67.8249L1221.69 66.766L1221.58 67.8249H1221.8H1221.79ZM1221.63 65.7828V65.849C1221.63 65.849 1221.65 65.9151 1221.7 65.9151H1221.73C1221.73 65.9151 1221.79 65.8962 1221.79 65.849V65.7828H1222V65.8584C1222 66.0191 1221.93 66.0853 1221.78 66.0853H1221.64C1221.5 66.0853 1221.42 66.0191 1221.42 65.8584V65.7828H1221.63ZM1221.53 68.2408L1221.5 68.5906H1221.06L1221.38 66.1704H1222.05L1222.37 68.5906H1221.88L1221.85 68.2408H1221.53Z" fill="#FFFFF1"/>
<path d="M1222.86 67.2765L1222.87 67.9005L1222.88 68.6001H1222.46V66.1799H1222.95L1223.24 67.3805L1223.23 66.6809L1223.22 66.1799H1223.65V68.6001H1223.17L1222.86 67.2765Z" fill="#FFFFF1"/>
<path d="M1224.39 67.2293H1225.02V68.1652C1225.02 68.4677 1224.87 68.619 1224.57 68.619H1224.26C1223.96 68.619 1223.82 68.4677 1223.82 68.1652V66.6053C1223.82 66.3028 1223.97 66.1515 1224.26 66.1515H1224.56C1224.87 66.1515 1225.02 66.3028 1225.02 66.6053V67.0685H1224.55V66.6526C1224.55 66.5958 1224.52 66.5675 1224.46 66.5675H1224.39C1224.34 66.5675 1224.31 66.5958 1224.31 66.6526V68.1179C1224.31 68.1747 1224.34 68.203 1224.39 68.203H1224.47C1224.53 68.203 1224.55 68.1747 1224.55 68.1179V67.6358H1224.4V67.2293H1224.39Z" fill="#FFFFF1"/>
<path d="M1211.03 70.7556H1210.73V70.3302H1211.81V70.7556H1211.52V72.7504H1211.03V70.7556Z" fill="#FFFFF1"/>
<path d="M1212.53 70.7462H1212.41V71.4174H1212.53C1212.59 71.4174 1212.61 71.389 1212.61 71.3323V70.8312C1212.61 70.7745 1212.59 70.7462 1212.53 70.7462ZM1213.11 71.9185V72.7504H1212.62V71.9185C1212.62 71.8617 1212.59 71.8334 1212.54 71.8334H1212.41V72.7504H1211.93V70.3302H1212.65C1212.95 70.3302 1213.1 70.4814 1213.1 70.784V71.2567C1213.1 71.4647 1213.02 71.5687 1212.89 71.6159C1213.04 71.6537 1213.1 71.7483 1213.1 71.9279" fill="#FFFFF1"/>
<path d="M1214.7 70.16V70.264C1214.7 70.4531 1214.62 70.5571 1214.45 70.5665V72.3155C1214.45 72.6181 1214.3 72.7693 1214.01 72.7693H1213.71C1213.41 72.7693 1213.27 72.6181 1213.27 72.3155V70.3207H1213.75V72.2588C1213.75 72.3155 1213.78 72.3439 1213.84 72.3439H1213.89C1213.95 72.3439 1213.98 72.3155 1213.98 72.2588V70.3207H1214.35C1214.4 70.3207 1214.43 70.2924 1214.43 70.2356V70.1506H1214.71L1214.7 70.16Z" fill="#FFFFF1"/>
<path d="M1215.34 70.8123C1215.34 70.7556 1215.31 70.7273 1215.26 70.7273H1215.19C1215.13 70.7273 1215.1 70.7556 1215.1 70.8123V72.2777C1215.1 72.3344 1215.13 72.3628 1215.19 72.3628H1215.26C1215.31 72.3628 1215.34 72.3344 1215.34 72.2777V70.8123ZM1215.2 69.8953H1215.04V69.848C1215.04 69.7346 1215.09 69.6779 1215.2 69.6779H1215.26C1215.37 69.6779 1215.43 69.7346 1215.43 69.848V69.8669C1215.43 69.9331 1215.42 69.9709 1215.37 70.0182L1215.32 70.0749C1215.32 70.0749 1215.29 70.1033 1215.29 70.1506H1215.15V70.0938C1215.15 70.0277 1215.15 70.0087 1215.19 69.9615L1215.22 69.9331C1215.22 69.9331 1215.25 69.8953 1215.25 69.8669V69.8386C1215.25 69.8386 1215.25 69.8291 1215.24 69.8291H1215.23C1215.23 69.8291 1215.22 69.8291 1215.22 69.8386V69.8858L1215.2 69.8953ZM1216.07 70.16V70.264C1216.07 70.472 1215.98 70.5571 1215.8 70.5665C1215.82 70.6233 1215.83 70.68 1215.83 70.7556V72.3155C1215.83 72.6181 1215.68 72.7693 1215.38 72.7693H1215.07C1214.76 72.7693 1214.61 72.6181 1214.61 72.3155V70.7556C1214.61 70.4531 1214.76 70.3018 1215.07 70.3018H1215.38C1215.49 70.3018 1215.59 70.3207 1215.66 70.368V70.3207H1215.72C1215.78 70.3207 1215.8 70.2924 1215.8 70.2356V70.1506H1216.08L1216.07 70.16Z" fill="#FFFFF1"/>
<path d="M1216.4 71.4268L1216.41 72.0508V72.7504H1215.99V70.3302H1216.49L1216.77 71.5308L1216.76 70.8312V70.3302H1217.18V72.7504H1216.7L1216.4 71.4268Z" fill="#FFFFF1"/>
<path d="M1217.93 71.3796H1218.55V72.3155C1218.55 72.6181 1218.4 72.7693 1218.11 72.7693H1217.79C1217.49 72.7693 1217.35 72.6181 1217.35 72.3155V70.7462C1217.35 70.4436 1217.5 70.2924 1217.79 70.2924H1218.1C1218.4 70.2924 1218.55 70.4436 1218.55 70.7462V71.2094H1218.08V70.7934C1218.08 70.7367 1218.05 70.7083 1217.99 70.7083H1217.93C1217.87 70.7083 1217.84 70.7367 1217.84 70.7934V72.2588C1217.84 72.3155 1217.87 72.3439 1217.93 72.3439H1218C1218.06 72.3439 1218.09 72.3155 1218.09 72.2588V71.7766H1217.94V71.3701L1217.93 71.3796Z" fill="#FFFFF1"/>
<path d="M1219.68 71.6065V72.7504H1219.19V70.3302H1219.68V71.4647L1219.94 70.3302H1220.45L1220.13 71.5214L1220.44 72.7504H1219.92L1219.68 71.6065Z" fill="#FFFFF1"/>
<path d="M1221.01 70.3302H1220.53V72.7504H1221.01V70.3302Z" fill="#FFFFF1"/>
<path d="M1221.59 71.4268L1221.6 72.0508L1221.61 72.7504H1221.19V70.3302H1221.69L1221.96 71.5308V70.8312L1221.95 70.3302H1222.38V72.7504H1221.9L1221.59 71.4268Z" fill="#FFFFF1"/>
<path d="M1223.28 70.3302H1223.76V72.7504H1223.28V71.7388H1223.03V72.7504H1222.55V70.3302H1223.03V71.3039H1223.28V70.3302Z" fill="#FFFFF1"/>
<path d="M1224.64 70.7556H1224.35V70.3302H1225.42V70.7556H1225.12V72.7504H1224.64V70.7556Z" fill="#FFFFF1"/>
<path d="M1226.71 69.7724L1226.52 70.0655H1226.28L1226.38 69.7724H1226.71ZM1226.08 70.2356L1225.98 70.1222L1225.89 70.2356H1225.68L1225.86 69.9331H1226.13L1226.31 70.2356H1226.08ZM1226.44 70.7556H1226.02V71.3039H1226.42V71.7388H1226.02V72.325H1226.45V72.7599H1225.54V70.3396H1226.44V70.7745V70.7556Z" fill="#FFFFF1"/>
<path d="M1290 57H1250V97H1290V57Z" fill="#F26A2B"/>
<path d="M1257.33 62.3888C1257.33 61.1409 1256.78 60.2333 1255.35 60.2333C1253.92 60.2333 1253.35 61.018 1253.35 62.2659V63.4571C1253.35 64.7807 1253.87 65.4424 1254.85 65.4424C1255.42 65.4424 1255.77 65.1777 1255.97 64.7901H1255.98V66.5202C1255.98 67.0118 1255.79 67.3522 1255.3 67.3522C1254.82 67.3522 1254.64 67.0685 1254.64 66.5675V66.0286H1253.4V66.454C1253.4 67.6452 1253.83 68.4772 1255.33 68.4772C1256.84 68.4772 1257.33 67.5602 1257.33 66.3028V62.3793V62.3888ZM1255.98 63.6178C1255.97 64.0716 1255.77 64.3552 1255.34 64.3552C1254.88 64.3552 1254.7 64.0716 1254.7 63.5516V62.1524C1254.7 61.6419 1254.89 61.3489 1255.35 61.3489C1255.81 61.3489 1255.98 61.6608 1255.98 62.1524V63.6273V63.6178Z" fill="#FFFFF1"/>
<path d="M1277.73 85.3715L1274.05 83.2538V79.009C1274.05 78.9144 1274.01 78.8388 1273.93 78.7915L1270.13 76.5982C1270.06 76.5509 1269.96 76.5509 1269.89 76.5982L1266.09 78.7915C1266.01 78.8388 1265.97 78.9239 1265.97 79.009V83.2538L1262.29 85.3715C1262.22 85.4188 1262.17 85.5039 1262.17 85.589V89.9757C1262.17 90.0702 1262.22 90.1458 1262.29 90.1931L1266.09 92.3864C1266.09 92.3864 1266.17 92.4148 1266.21 92.4148C1266.25 92.4148 1266.3 92.4053 1266.34 92.3864L1270.01 90.2687L1273.68 92.3864C1273.68 92.3864 1273.77 92.4148 1273.81 92.4148C1273.84 92.4148 1273.89 92.4053 1273.93 92.3864L1277.73 90.1931C1277.8 90.1458 1277.85 90.0702 1277.85 89.9757V85.589C1277.85 85.5039 1277.8 85.4188 1277.73 85.3715ZM1269.75 89.5408L1266.7 87.7823L1269.75 86.0239V89.5408ZM1273.3 83.3957L1270.25 85.1541V81.6372L1273.3 83.3957ZM1269.75 85.1541L1266.7 83.3957L1269.75 81.6372V85.1541ZM1270.5 85.589L1273.8 83.6887L1277.09 85.589L1273.8 87.4987L1270.5 85.589ZM1273.55 82.9608L1270.5 81.2023L1273.55 79.4439V82.9608ZM1269.5 81.2023L1266.45 82.9608V79.4439L1269.5 81.2023ZM1265.96 91.7341L1262.66 89.8338V86.0239L1265.96 87.9336V91.7436V91.7341ZM1266.45 91.7341V88.2172L1269.5 89.9757L1266.45 91.7341ZM1277.35 89.8338L1274.05 91.7341V87.9241L1277.35 86.0144V89.8338Z" fill="#FFFFF1"/>
<path d="M1262.83 63.8258C1262.83 64.1283 1262.68 64.2796 1262.38 64.2796H1262.08C1261.78 64.2796 1261.63 64.1283 1261.63 63.8258V62.2659C1261.63 61.9634 1261.78 61.8121 1262.08 61.8121H1262.38C1262.68 61.8121 1262.82 61.9634 1262.82 62.2659V62.8331H1262.35V62.3226C1262.35 62.2659 1262.32 62.2375 1262.26 62.2375H1262.21C1262.15 62.2375 1262.12 62.2659 1262.12 62.3226V63.7785C1262.12 63.8353 1262.15 63.8636 1262.21 63.8636H1262.27C1262.33 63.8636 1262.36 63.8353 1262.36 63.7785V63.1924H1262.83V63.8353V63.8258Z" fill="#FFFFF1"/>
<path d="M1263.63 62.2281H1263.56C1263.5 62.2281 1263.48 62.2564 1263.48 62.3132V63.7785C1263.48 63.8353 1263.5 63.8636 1263.56 63.8636H1263.63C1263.68 63.8636 1263.71 63.8353 1263.71 63.7785V62.3132C1263.71 62.2564 1263.68 62.2281 1263.63 62.2281ZM1263.68 61.7459L1263.59 61.6325L1263.49 61.7459H1263.29L1263.47 61.4528H1263.73L1263.91 61.7459H1263.68ZM1263.74 64.2796H1263.43C1263.13 64.2796 1262.97 64.1283 1262.97 63.8258V62.2659C1262.97 61.9634 1263.13 61.8121 1263.43 61.8121H1263.74C1264.04 61.8121 1264.2 61.9634 1264.2 62.2659V63.8258C1264.2 64.1283 1264.04 64.2796 1263.74 64.2796Z" fill="#FFFFF1"/>
<path d="M1264.76 62.9371L1264.77 63.5516L1264.78 64.2607H1264.36V61.831H1264.86L1265.13 63.0317L1265.12 62.3415V61.831H1265.54V64.2607H1265.08L1264.76 62.9371Z" fill="#FFFFF1"/>
<path d="M1266.3 62.8899H1266.92V63.8258C1266.92 64.1283 1266.77 64.2796 1266.48 64.2796H1266.16C1265.86 64.2796 1265.72 64.1283 1265.72 63.8258V62.2659C1265.72 61.9634 1265.87 61.8121 1266.16 61.8121H1266.47C1266.77 61.8121 1266.92 61.9634 1266.92 62.2659V62.7291H1266.45V62.3132C1266.45 62.2564 1266.42 62.2281 1266.36 62.2281H1266.3C1266.24 62.2281 1266.21 62.2564 1266.21 62.3132V63.7785C1266.21 63.8353 1266.24 63.8636 1266.3 63.8636H1266.37C1266.43 63.8636 1266.46 63.8353 1266.46 63.7785V63.2964H1266.31V62.8899H1266.3Z" fill="#FFFFF1"/>
<path d="M1267.95 62.9371L1267.96 63.5516L1267.97 64.2607H1267.56V61.831H1268.05L1268.33 63.0317L1268.32 62.3415L1268.31 61.831H1268.74V64.2607H1268.27L1267.95 62.9371Z" fill="#FFFFF1"/>
<path d="M1269.49 62.8899H1270.11V63.8258C1270.11 64.1283 1269.96 64.2796 1269.67 64.2796H1269.36C1269.05 64.2796 1268.91 64.1283 1268.91 63.8258V62.2659C1268.91 61.9634 1269.06 61.8121 1269.36 61.8121H1269.66C1269.96 61.8121 1270.11 61.9634 1270.11 62.2659V62.7291H1269.64V62.3132C1269.64 62.2564 1269.61 62.2281 1269.55 62.2281H1269.49C1269.43 62.2281 1269.4 62.2564 1269.4 62.3132V63.7785C1269.4 63.8353 1269.43 63.8636 1269.49 63.8636H1269.56C1269.62 63.8636 1269.65 63.8353 1269.65 63.7785V63.2964H1269.5V62.8899H1269.49Z" fill="#FFFFF1"/>
<path d="M1271 61.831H1271.5V64.2607H1271V63.2397H1270.77V64.2607H1270.28V61.831H1270.77V62.8142H1271V61.831Z" fill="#FFFFF1"/>
<path d="M1272.15 61.831H1271.67V64.2512H1272.15V61.831Z" fill="#FFFFF1"/>
<path d="M1272.58 64.8752H1272.96V64.4781H1272.58V64.8752ZM1272.33 64.2512H1273.24V63.8164H1272.81V63.2397H1273.21V62.8048H1272.81V62.2564H1273.23V61.8216H1272.33V64.2512ZM1272.64 61.4434L1272.46 61.7365H1272.67L1272.77 61.623L1272.86 61.7365H1273.07L1272.89 61.4434H1272.62H1272.64Z" fill="#FFFFF1"/>
<path d="M1273.98 62.247H1273.87V63.0033H1273.98C1274.03 63.0033 1274.06 62.9749 1274.06 62.9182V62.3415C1274.06 62.2848 1274.03 62.2564 1273.98 62.2564M1273.39 61.8405H1274.1C1274.4 61.8405 1274.55 61.9917 1274.55 62.2943V62.9749C1274.55 63.2775 1274.39 63.4287 1274.1 63.4287H1273.87V64.2701H1273.39V61.8405Z" fill="#FFFFF1"/>
<path d="M1274.62 64.5443L1274.53 64.6672L1274.35 64.6199L1274.39 64.516C1274.45 64.3931 1274.49 64.3269 1274.5 64.2607H1274.35V63.7313H1274.8V64.0433C1274.8 64.2891 1274.77 64.3458 1274.62 64.5538" fill="#FFFFF1"/>
<path d="M1262.29 66.9929V67.3616H1262.15V67.995H1262.24C1262.34 67.995 1262.38 67.9572 1262.38 67.8627V66.5391C1262.38 66.4446 1262.34 66.4068 1262.24 66.4068H1262.15V67.0024H1262.29V66.9929ZM1261.55 67.3616V66.9929H1261.68V65.9813H1262.36C1262.71 65.9813 1262.88 66.1515 1262.88 66.5013V67.8816C1262.88 68.2314 1262.71 68.4016 1262.36 68.4016H1261.68V67.3522H1261.55V67.3616Z" fill="#FFFFF1"/>
<path d="M1264.02 65.4803V65.4519C1264.02 65.4519 1264.02 65.4424 1264.02 65.4424C1264.02 65.4424 1264.01 65.4424 1264.01 65.4519V65.4992H1263.84V65.4519C1263.84 65.3385 1263.89 65.2817 1264.01 65.2817H1264.05C1264.17 65.2817 1264.22 65.3385 1264.22 65.4519V65.4708C1264.22 65.5275 1264.21 65.5748 1264.17 65.6221L1264.12 65.6788C1264.12 65.6788 1264.09 65.7072 1264.09 65.7544H1263.95V65.6977C1263.95 65.6315 1263.95 65.6126 1263.99 65.5654L1264.02 65.537C1264.02 65.537 1264.04 65.4992 1264.04 65.4708M1263.67 66.3784H1263.61C1263.55 66.3784 1263.52 66.4068 1263.52 66.4635V67.9194C1263.52 67.9761 1263.55 68.0045 1263.61 68.0045H1263.67C1263.73 68.0045 1263.76 67.9761 1263.76 67.9194V66.4635C1263.76 66.4068 1263.73 66.3784 1263.67 66.3784ZM1263.73 65.8962L1263.64 65.7828L1263.54 65.8962H1263.33L1263.51 65.5937H1263.78L1263.96 65.8962H1263.73ZM1263.79 68.4299H1263.48C1263.17 68.4299 1263.02 68.2787 1263.02 67.9761V66.4162C1263.02 66.1137 1263.17 65.9624 1263.48 65.9624H1263.79C1264.09 65.9624 1264.24 66.1137 1264.24 66.4162V67.9761C1264.24 68.2787 1264.09 68.4299 1263.79 68.4299Z" fill="#FFFFF1"/>
<path d="M1264.9 65.9813H1264.41V68.4016H1264.9V65.9813Z" fill="#FFFFF1"/>
<path d="M1265.93 68.411H1265.54V65.9908H1266.24L1266.38 67.4562L1266.52 65.9908H1267.23V68.411H1266.75V66.8227L1266.57 68.411H1266.12L1265.93 66.8038V68.411Z" fill="#FFFFF1"/>
<path d="M1268.12 66.4635C1268.12 66.4068 1268.1 66.3784 1268.04 66.3784H1267.97C1267.92 66.3784 1267.89 66.4068 1267.89 66.4635V67.9194C1267.89 67.9761 1267.92 68.0045 1267.97 68.0045H1268.04C1268.1 68.0045 1268.12 67.9761 1268.12 67.9194V66.4635ZM1267.88 65.8962L1267.98 65.5937H1268.32L1268.13 65.8962H1267.88ZM1268.84 65.8206V65.9246C1268.84 66.1326 1268.76 66.2177 1268.58 66.2271C1268.6 66.2839 1268.61 66.3406 1268.61 66.4162V67.9761C1268.61 68.2787 1268.46 68.4299 1268.15 68.4299H1267.84C1267.54 68.4299 1267.39 68.2787 1267.39 67.9761V66.4162C1267.39 66.1137 1267.54 65.9624 1267.84 65.9624H1268.15C1268.27 65.9624 1268.36 65.9813 1268.44 66.0286V65.9813H1268.49C1268.55 65.9813 1268.58 65.953 1268.58 65.8962V65.8112H1268.85L1268.84 65.8206Z" fill="#FFFFF1"/>
<path d="M1269.26 65.9813H1268.78V68.4016H1269.26V65.9813Z" fill="#FFFFF1"/>
<path d="M1270.57 67.9572L1270.62 67.8249L1270.39 67.3994C1270.39 67.3994 1270.33 67.4751 1270.33 67.5507V67.9478C1270.33 67.995 1270.35 68.0234 1270.41 68.0234H1270.47C1270.52 68.0234 1270.55 68.0045 1270.58 67.9478M1270.47 68.4299H1270.29C1270.01 68.4299 1269.87 68.2881 1269.87 68.0045V67.5129C1269.87 67.3427 1269.91 67.2104 1270.03 67.1064L1270.16 66.9929L1270.09 66.8511C1270.01 66.7187 1270 66.6337 1270 66.4918V66.4162C1270 66.1137 1270.15 65.9624 1270.45 65.9624H1270.65C1270.96 65.9624 1271.1 66.1137 1271.1 66.4162V66.7377H1270.65V66.4635C1270.65 66.4068 1270.62 66.3784 1270.57 66.3784H1270.53C1270.47 66.3784 1270.45 66.4068 1270.45 66.4635V66.5108C1270.45 66.6053 1270.47 66.662 1270.51 66.7471L1270.81 67.3049L1270.92 66.9835H1271.39L1271.11 67.787L1271.46 68.4205H1270.96L1270.84 68.2219C1270.77 68.3732 1270.66 68.4394 1270.46 68.4394" fill="#FFFFF1"/>
<path d="M1273.17 67.9761C1273.17 68.2787 1273.02 68.4299 1272.72 68.4299H1272.42C1272.12 68.4299 1271.97 68.2787 1271.97 67.9761V66.4162C1271.97 66.1137 1272.12 65.9624 1272.42 65.9624H1272.72C1273.02 65.9624 1273.16 66.1137 1273.16 66.4162V66.9835H1272.69V66.4729C1272.69 66.4162 1272.66 66.3879 1272.6 66.3879H1272.55C1272.49 66.3879 1272.46 66.4162 1272.46 66.4729V67.9289C1272.46 67.9856 1272.49 68.0139 1272.55 68.0139H1272.61C1272.67 68.0139 1272.7 67.9856 1272.7 67.9289V67.3427H1273.17V67.9856V67.9761Z" fill="#FFFFF1"/>
<path d="M1274.05 66.4635C1274.05 66.4068 1274.02 66.3784 1273.97 66.3784H1273.9C1273.84 66.3784 1273.82 66.4068 1273.82 66.4635V67.9194C1273.82 67.9761 1273.84 68.0045 1273.9 68.0045H1273.97C1274.02 68.0045 1274.05 67.9761 1274.05 67.9194V66.4635ZM1274.78 65.8206V65.9246C1274.78 66.1326 1274.7 66.2177 1274.52 66.2271C1274.54 66.2839 1274.55 66.3406 1274.55 66.4162V67.9761C1274.55 68.2787 1274.39 68.4299 1274.09 68.4299H1273.78C1273.48 68.4299 1273.32 68.2787 1273.32 67.9761V66.4162C1273.32 66.1137 1273.48 65.9624 1273.78 65.9624H1274.09C1274.2 65.9624 1274.3 65.9813 1274.38 66.0286V65.9813H1274.43C1274.49 65.9813 1274.52 65.953 1274.52 65.8962V65.8112H1274.79L1274.78 65.8206Z" fill="#FFFFF1"/>
<path d="M1276.33 67.5318V67.9761C1276.33 68.2787 1276.17 68.4299 1275.87 68.4299H1275.61C1275.3 68.4299 1275.15 68.2787 1275.15 67.9761V67.4562H1275.62V67.9289C1275.62 67.9856 1275.65 68.0139 1275.71 68.0139H1275.76C1275.81 68.0139 1275.84 67.9856 1275.84 67.9289V67.6358C1275.84 67.5602 1275.82 67.5223 1275.76 67.4751L1275.34 67.1631C1275.19 67.0591 1275.15 66.9551 1275.15 66.7849V66.3973C1275.15 66.0948 1275.3 65.9435 1275.61 65.9435H1275.87C1276.17 65.9435 1276.33 66.0948 1276.33 66.3973V66.8416H1275.85V66.4446C1275.85 66.3879 1275.82 66.3595 1275.77 66.3595H1275.73C1275.67 66.3595 1275.64 66.3879 1275.64 66.4446V66.6715C1275.64 66.7471 1275.67 66.7849 1275.73 66.8227L1276.15 67.1347C1276.3 67.2387 1276.34 67.3333 1276.34 67.5129" fill="#FFFFF1"/>
<path d="M1277.2 66.4635C1277.2 66.4068 1277.17 66.3784 1277.11 66.3784H1277.05C1276.99 66.3784 1276.96 66.4068 1276.96 66.4635V67.9194C1276.96 67.9761 1276.99 68.0045 1277.05 68.0045H1277.11C1277.17 68.0045 1277.2 67.9761 1277.2 67.9194V66.4635ZM1277.05 65.5559H1276.88V65.5086C1276.88 65.3952 1276.93 65.3479 1277.05 65.3479H1277.09C1277.21 65.3479 1277.26 65.3952 1277.26 65.5086V65.5275C1277.26 65.5937 1277.25 65.6315 1277.21 65.6788L1277.16 65.7355C1277.16 65.7355 1277.13 65.7639 1277.13 65.8112H1276.99V65.7544C1276.99 65.6883 1276.99 65.6693 1277.03 65.6221L1277.05 65.5937C1277.05 65.5937 1277.08 65.5559 1277.08 65.5275V65.4992C1277.08 65.4992 1277.08 65.4803 1277.07 65.4803H1277.06C1277.06 65.4803 1277.05 65.4803 1277.05 65.4992V65.5464L1277.05 65.5559ZM1277.92 65.8206V65.9246C1277.92 66.1326 1277.83 66.2177 1277.65 66.2271C1277.67 66.2839 1277.68 66.3406 1277.68 66.4162V67.9761C1277.68 68.2787 1277.53 68.4299 1277.23 68.4299H1276.91C1276.61 68.4299 1276.46 68.2787 1276.46 67.9761V66.4162C1276.46 66.1137 1276.61 65.9624 1276.91 65.9624H1277.23C1277.34 65.9624 1277.43 65.9813 1277.51 66.0286V65.9813H1277.57C1277.62 65.9813 1277.65 65.953 1277.65 65.8962V65.8112H1277.93L1277.92 65.8206Z" fill="#FFFFF1"/>
<path d="M1262.37 70.1411H1262.85V72.5613H1262.37V71.5498H1262.12V72.5613H1261.64V70.1411H1262.12V71.1149H1262.37V70.1411Z" fill="#FFFFF1"/>
<path d="M1263.68 71.7861L1263.58 70.7273L1263.48 71.7861H1263.69H1263.68ZM1263.41 72.7788H1263.8V73.1758H1263.41V72.7788ZM1263.43 72.2115L1263.39 72.5613H1262.95L1263.28 70.1411H1263.94L1264.26 72.5613H1263.78L1263.74 72.2115H1263.43Z" fill="#FFFFF1"/>
<path d="M1265.07 70.5665H1264.77V70.1411H1265.84V70.5665H1265.55V72.5613H1265.07V70.5665Z" fill="#FFFFF1"/>
<path d="M1266.71 69.8669L1266.52 69.5739H1266.86L1266.96 69.8669H1266.71ZM1266.49 71.7861L1266.38 70.7273L1266.28 71.7861H1266.5H1266.49ZM1266.51 70.0466L1266.41 69.9331L1266.32 70.0466H1266.11L1266.29 69.744H1266.55L1266.72 70.0466H1266.51ZM1266.23 72.2115L1266.19 72.5613H1265.76L1266.08 70.1411H1266.74L1267.06 72.5613H1266.58L1266.54 72.2115H1266.23Z" fill="#FFFFF1"/>
<path d="M1267.57 71.2378V71.8617L1267.58 72.5613H1267.16V70.1411H1267.65L1267.94 71.3418L1267.93 70.6422V70.1411H1268.34V72.5613H1267.87L1267.57 71.2378Z" fill="#FFFFF1"/>
<path d="M1269.09 71.1905H1269.72V72.1264C1269.72 72.429 1269.56 72.5802 1269.27 72.5802H1268.96C1268.66 72.5802 1268.51 72.429 1268.51 72.1264V70.5571C1268.51 70.2546 1268.66 70.1033 1268.96 70.1033H1269.26C1269.56 70.1033 1269.72 70.2546 1269.72 70.5571V71.0203H1269.24V70.6138C1269.24 70.5571 1269.21 70.5287 1269.16 70.5287H1269.09C1269.03 70.5287 1269.01 70.5571 1269.01 70.6138V72.0697C1269.01 72.1264 1269.03 72.1548 1269.09 72.1548H1269.17C1269.22 72.1548 1269.25 72.1264 1269.25 72.0697V71.5876H1269.1V71.181L1269.09 71.1905Z" fill="#FFFFF1"/>
<path d="M1340 57H1300V97H1340V57Z" fill="#18476B"/>
<path d="M1305.98 60.3554V68.4178H1304.63V62.2457H1304.62L1303.66 63.2287H1303.66V61.8204L1304.91 60.3554H1305.98Z" fill="#FFFFF1"/>
<path d="M1306.6 60.3554H1310.01V61.603L1308.23 68.4178H1306.88L1308.69 61.4612H1306.6V60.3554Z" fill="#FFFFF1"/>
<path d="M1328.4 82.9168C1328.4 80.5444 1326.51 78.5974 1324.16 78.5123C1323.55 76.8015 1321.91 75.5728 1320 75.5728C1318.09 75.5728 1316.45 76.8015 1315.84 78.5123C1313.48 78.5974 1311.6 80.535 1311.6 82.9168C1311.6 84.3251 1312.26 85.5822 1313.3 86.3951C1313.19 86.7826 1313.13 87.1985 1313.13 87.6144C1313.13 90.0435 1315.11 92.0189 1317.54 92.0189C1318.46 92.0189 1319.32 91.7353 1320.03 91.2439C1320.73 91.7164 1321.57 91.9905 1322.47 91.9905C1324.91 91.9905 1326.87 90.0151 1326.87 87.586C1326.87 87.1701 1326.82 86.7732 1326.7 86.3856C1327.74 85.5822 1328.4 84.3251 1328.4 82.9168ZM1323.51 79.9773C1323.51 81.7448 1322.21 83.2004 1320.51 83.4556C1320.48 83.276 1320.46 83.0964 1320.46 82.9168C1320.46 81.1493 1321.77 79.6938 1323.47 79.4386C1323.49 79.6181 1323.51 79.7977 1323.51 79.9773ZM1320.02 90.1096C1319.36 89.4669 1318.95 88.5785 1318.95 87.586C1318.95 86.5936 1319.35 85.7335 1319.99 85.0907C1320.65 85.7335 1321.06 86.6219 1321.06 87.6144C1321.06 88.6068 1320.66 89.4669 1320.02 90.1096ZM1316.52 79.4386C1318.22 79.6938 1319.53 81.1493 1319.53 82.9168C1319.53 83.0964 1319.51 83.2854 1319.48 83.4556C1317.78 83.2004 1316.48 81.7448 1316.48 79.9773C1316.48 79.7883 1316.5 79.6087 1316.52 79.4386ZM1319.15 84.4953C1318.57 85.6484 1317.38 86.4423 1316 86.4423C1315.42 86.4423 1314.87 86.3006 1314.38 86.0454C1314.96 84.8922 1316.16 84.0983 1317.53 84.0983C1318.12 84.0983 1318.66 84.2401 1319.15 84.4953ZM1320.83 84.4669C1321.32 84.2117 1321.87 84.0605 1322.46 84.0605C1323.84 84.0605 1325.05 84.8639 1325.62 86.0265C1325.13 86.2817 1324.57 86.4329 1323.99 86.4329C1322.6 86.4329 1321.41 85.6295 1320.83 84.4669ZM1320 76.4612C1321.44 76.4612 1322.68 77.3308 1323.23 78.5784C1321.8 78.8336 1320.61 79.7788 1320 81.0548C1319.4 79.7788 1318.2 78.8336 1316.77 78.5784C1317.31 77.3308 1318.55 76.4612 1320 76.4612ZM1312.48 82.9168C1312.48 81.1021 1313.86 79.6087 1315.63 79.4197C1315.61 79.5992 1315.59 79.7883 1315.59 79.9868C1315.59 81.2722 1316.15 82.4348 1317.03 83.2382C1315.57 83.4083 1314.32 84.2873 1313.65 85.5255C1312.94 84.8828 1312.48 83.9471 1312.48 82.9168ZM1314.02 87.6144C1314.02 87.3686 1314.04 87.1229 1314.09 86.8866C1314.67 87.1701 1315.32 87.3308 1316 87.3308C1316.78 87.3308 1317.5 87.1323 1318.13 86.7826C1318.09 87.0473 1318.06 87.3119 1318.06 87.5955C1318.06 88.7864 1318.53 89.8639 1319.31 90.6578C1318.79 90.9603 1318.18 91.1399 1317.54 91.1399C1315.6 91.1399 1314.02 89.5614 1314.02 87.6238M1325.98 87.586C1325.98 89.5236 1324.4 91.1021 1322.46 91.1021C1321.83 91.1021 1321.24 90.9319 1320.73 90.6389C1321.48 89.845 1321.94 88.7864 1321.94 87.6144C1321.94 87.3214 1321.91 87.0473 1321.86 86.7732C1322.49 87.1229 1323.22 87.3308 1323.99 87.3308C1324.68 87.3308 1325.33 87.1701 1325.91 86.8866C1325.96 87.1134 1325.98 87.3497 1325.98 87.586M1322.99 83.2098C1323.86 82.4064 1324.4 81.2533 1324.4 79.9773C1324.4 79.7883 1324.39 79.5992 1324.37 79.4102C1326.13 79.5992 1327.51 81.0926 1327.51 82.9074C1327.51 83.9376 1327.06 84.8639 1326.35 85.5066C1325.69 84.2684 1324.45 83.3705 1322.99 83.2004" fill="#FFFFF1"/>
<path d="M1313.58 61.8015H1314.07V64.2212H1313.58V63.2098H1313.34V64.2212H1312.86V61.8015H1313.34V62.775H1313.58V61.8015Z" fill="#FFFFF1"/>
<path d="M1314.96 62.2836C1314.96 62.2268 1314.93 62.1985 1314.88 62.1985H1314.81C1314.75 62.1985 1314.73 62.2268 1314.73 62.2836V63.7391C1314.73 63.7958 1314.75 63.8242 1314.81 63.8242H1314.88C1314.93 63.8242 1314.96 63.7958 1314.96 63.7391V62.2836ZM1314.64 64.4386H1315.03V64.8355H1314.64V64.4386ZM1315.68 61.6408V61.7448C1315.68 61.9527 1315.6 62.0378 1315.42 62.0473C1315.44 62.104 1315.45 62.1607 1315.45 62.2363V63.7958C1315.45 64.0983 1315.29 64.2495 1314.99 64.2495H1314.68C1314.38 64.2495 1314.22 64.0983 1314.22 63.7958V62.2363C1314.22 61.9338 1314.38 61.7826 1314.68 61.7826H1314.99C1315.1 61.7826 1315.2 61.8015 1315.27 61.8488V61.8015H1315.33C1315.39 61.8015 1315.42 61.7732 1315.42 61.7164V61.6314H1315.69L1315.68 61.6408Z" fill="#FFFFF1"/>
<path d="M1316.19 62.2174H1316.09V62.9641H1316.19C1316.25 62.9641 1316.28 62.9357 1316.28 62.879V62.3025C1316.28 62.2457 1316.25 62.2174 1316.19 62.2174ZM1315.61 61.8015H1316.32C1316.62 61.8015 1316.77 61.9527 1316.77 62.2552V62.9357C1316.77 63.2382 1316.62 63.3894 1316.32 63.3894H1316.09V64.2306H1315.61V61.8015Z" fill="#FFFFF1"/>
<path d="M1317.61 62.2363H1317.32V61.8015H1318.39V62.2363H1318.1V64.2212H1317.61V62.2363Z" fill="#FFFFF1"/>
<path d="M1319.27 61.414L1319.08 61.707H1318.84L1318.94 61.414H1319.27ZM1319.04 63.4461L1318.94 62.3875L1318.84 63.4461H1319.05H1319.04ZM1318.78 63.8715L1318.74 64.2212H1318.3L1318.63 61.8015H1319.29L1319.61 64.2212H1319.13L1319.09 63.8715H1318.78Z" fill="#FFFFF1"/>
<path d="M1320.88 63.7958C1320.88 64.0983 1320.73 64.2495 1320.43 64.2495H1320.13C1319.83 64.2495 1319.68 64.0983 1319.68 63.7958V62.2363C1319.68 61.9338 1319.83 61.7826 1320.13 61.7826H1320.43C1320.73 61.7826 1320.87 61.9338 1320.87 62.2363V62.8034H1320.4V62.2836C1320.4 62.2268 1320.37 62.1985 1320.31 62.1985H1320.26C1320.2 62.1985 1320.17 62.2268 1320.17 62.2836V63.7391C1320.17 63.7958 1320.2 63.8242 1320.26 63.8242H1320.32C1320.38 63.8242 1320.41 63.7958 1320.41 63.7391V63.1531H1320.88V63.7958Z" fill="#FFFFF1"/>
<path d="M1322.17 62.8129V63.1815H1322.03V63.8147H1322.12C1322.22 63.8147 1322.25 63.7769 1322.25 63.6824V62.3592C1322.25 62.2647 1322.22 62.2268 1322.12 62.2268H1322.03V62.8223H1322.17V62.8129ZM1321.43 63.1815V62.8129H1321.55V61.8015H1322.23C1322.59 61.8015 1322.76 61.9716 1322.76 62.3214V63.7013C1322.76 64.051 1322.59 64.2212 1322.23 64.2212H1321.55V63.172H1321.43V63.1815Z" fill="#FFFFF1"/>
<path d="M1323.74 61.3006V61.2722C1323.74 61.2722 1323.74 61.2628 1323.73 61.2628H1323.72C1323.72 61.2628 1323.71 61.2628 1323.71 61.2722V61.3195H1323.54V61.2722C1323.54 61.1588 1323.6 61.1021 1323.71 61.1021H1323.76C1323.87 61.1021 1323.93 61.1588 1323.93 61.2722V61.2911C1323.93 61.3573 1323.92 61.3951 1323.87 61.4423L1323.83 61.4991C1323.83 61.4991 1323.8 61.5274 1323.8 61.5747H1323.66V61.518C1323.66 61.4518 1323.66 61.4329 1323.69 61.3856L1323.72 61.3573C1323.72 61.3573 1323.75 61.3195 1323.75 61.2911M1323.46 61.7164L1323.36 61.603L1323.27 61.7164H1323.06L1323.24 61.4234H1323.5L1323.68 61.7164H1323.46ZM1323.82 62.2363H1323.4V62.7845H1323.8V63.2193H1323.4V63.7958H1323.83V64.2306H1322.92V61.811H1323.82V62.2457V62.2363Z" fill="#FFFFF1"/>
<path d="M1313.58 65.9509H1314.07V68.38H1313.58V67.3592H1313.34V68.38H1312.86V65.9509H1313.34V66.9338H1313.58V65.9509Z" fill="#FFFFF1"/>
<path d="M1314.73 65.9509H1314.24V68.3705H1314.73V65.9509Z" fill="#FFFFF1"/>
<path d="M1315.15 68.9943H1315.54V68.5974H1315.15V68.9943ZM1314.91 68.3705H1315.81V67.9357H1315.39V67.3497H1315.79V66.9149H1315.39V66.3667H1315.8V65.9319H1314.91V68.3705ZM1315.22 65.5633L1315.04 65.8563H1315.25L1315.34 65.7429L1315.44 65.8563H1315.64L1315.46 65.5633H1315.2H1315.22Z" fill="#FFFFF1"/>
<path d="M1316.37 67.0567V67.6711L1316.38 68.38H1315.97V65.9509H1316.46L1316.74 67.1512L1316.73 66.4518V65.9509H1317.15V68.38H1316.68L1316.37 67.0567Z" fill="#FFFFF1"/>
<path d="M1318.03 66.3856H1317.74V65.9509H1318.82V66.3856H1318.52V68.38H1318.03V66.3856Z" fill="#FFFFF1"/>
<path d="M1319.66 65.9509H1320.14V68.38H1319.66V67.3592H1319.41V68.38H1318.93V65.9509H1319.41V66.9338H1319.66V65.9509Z" fill="#FFFFF1"/>
<path d="M1320.72 68.5974H1321.11V68.9943H1320.72V68.5974ZM1321.75 65.7902V65.8941C1321.75 66.0832 1321.68 66.1871 1321.51 66.1966V67.9452C1321.51 68.2476 1321.35 68.3989 1321.05 68.3989H1320.76C1320.45 68.3989 1320.31 68.2476 1320.31 67.9452V65.9509H1320.8V67.8885C1320.8 67.9452 1320.82 67.9735 1320.88 67.9735H1320.93C1320.98 67.9735 1321.01 67.9452 1321.01 67.8885V65.9509H1321.38C1321.44 65.9509 1321.47 65.9225 1321.47 65.8658V65.7807H1321.74L1321.75 65.7902Z" fill="#FFFFF1"/>
<path d="M1322.87 67.9452C1322.87 68.2476 1322.72 68.3989 1322.41 68.3989H1322.12C1321.82 68.3989 1321.67 68.2476 1321.67 67.9452V66.3856C1321.67 66.0832 1321.82 65.9319 1322.12 65.9319H1322.41C1322.72 65.9319 1322.86 66.0832 1322.86 66.3856V66.9527H1322.39V66.4329C1322.39 66.3762 1322.36 66.3478 1322.3 66.3478H1322.24C1322.19 66.3478 1322.16 66.3762 1322.16 66.4329V67.8885C1322.16 67.9452 1322.19 67.9735 1322.24 67.9735H1322.31C1322.37 67.9735 1322.4 67.9452 1322.4 67.8885V67.3025H1322.87V67.9452Z" fill="#FFFFF1"/>
<path d="M1324.22 65.9509H1324.71V68.38H1324.22V67.3592H1323.99V68.38H1323.49V65.9509H1323.99V66.9338H1324.22V65.9509Z" fill="#FFFFF1"/>
<path d="M1325.51 66.3478H1325.45C1325.39 66.3478 1325.36 66.3762 1325.36 66.4329V67.8885C1325.36 67.9452 1325.39 67.9735 1325.45 67.9735H1325.51C1325.57 67.9735 1325.6 67.9452 1325.6 67.8885V66.4329C1325.6 66.3762 1325.57 66.3478 1325.51 66.3478ZM1325.8 65.5633L1325.61 65.8658H1325.36L1325.46 65.5633H1325.8ZM1325.63 68.3989H1325.32C1325.02 68.3989 1324.87 68.2476 1324.87 67.9452V66.3856C1324.87 66.0832 1325.02 65.9319 1325.32 65.9319H1325.63C1325.94 65.9319 1326.09 66.0832 1326.09 66.3856V67.9452C1326.09 68.2476 1325.94 68.3989 1325.63 68.3989Z" fill="#FFFFF1"/>
<path d="M1326.89 67.5955L1326.79 66.5369L1326.69 67.5955H1326.9H1326.89ZM1326.64 68.0208L1326.6 68.3705H1326.16L1326.49 65.9509H1327.15L1327.47 68.3705H1326.99L1326.95 68.0208H1326.64Z" fill="#FFFFF1"/>
<path d="M1314.04 72.0945C1314.04 72.397 1313.89 72.5482 1313.59 72.5482H1313.3C1312.99 72.5482 1312.84 72.397 1312.84 72.0945V70.5255C1312.84 70.2231 1312.99 70.0718 1313.3 70.0718H1313.59C1313.89 70.0718 1314.04 70.2231 1314.04 70.5255V71.0926H1313.57V70.5728C1313.57 70.5161 1313.54 70.4877 1313.48 70.4877H1313.43C1313.37 70.4877 1313.34 70.5161 1313.34 70.5728V72.0378C1313.34 72.0945 1313.37 72.1229 1313.43 72.1229H1313.49C1313.55 72.1229 1313.58 72.0945 1313.58 72.0378V71.4518H1314.06V72.0945H1314.04Z" fill="#FFFFF1"/>
<path d="M1315.09 69.7127L1314.9 70.0057H1314.65L1314.75 69.7127H1315.09ZM1314.86 71.7543L1314.75 70.6957L1314.65 71.7543H1314.87H1314.86ZM1314.59 72.1701L1314.55 72.5199H1314.12L1314.44 70.1002H1315.1L1315.43 72.5199H1314.94L1314.91 72.1701H1314.59Z" fill="#FFFFF1"/>
<path d="M1316.7 72.0945C1316.7 72.397 1316.54 72.5482 1316.24 72.5482H1315.95C1315.64 72.5482 1315.49 72.397 1315.49 72.0945V70.5255C1315.49 70.2231 1315.64 70.0718 1315.95 70.0718H1316.24C1316.54 70.0718 1316.7 70.2231 1316.7 70.5255V71.0926H1316.22V70.5728C1316.22 70.5161 1316.19 70.4877 1316.14 70.4877H1316.08C1316.02 70.4877 1315.99 70.5161 1315.99 70.5728V72.0378C1315.99 72.0945 1316.02 72.1229 1316.08 72.1229H1316.15C1316.2 72.1229 1316.23 72.0945 1316.23 72.0378V71.4518H1316.7V72.0945H1316.7Z" fill="#FFFFF1"/>
<path d="M1317.72 72.5293H1317.33V70.1002H1318.03L1318.16 71.5747L1318.31 70.1002H1319.02V72.5293H1318.54V70.9414L1318.35 72.5293H1317.9L1317.72 70.9225V72.5293Z" fill="#FFFFF1"/>
<path d="M1319.59 72.7467H1319.98V73.1437H1319.59V72.7467ZM1319.93 72.5482H1319.64C1319.34 72.5482 1319.2 72.397 1319.2 72.0945V70.1002H1319.68V72.0378C1319.68 72.0945 1319.71 72.1229 1319.76 72.1229H1319.81C1319.87 72.1229 1319.9 72.0945 1319.9 72.0378V70.1002H1320.38V72.0945C1320.38 72.397 1320.23 72.5482 1319.92 72.5482" fill="#FFFFF1"/>
<path d="M1321.74 72.0945C1321.74 72.397 1321.59 72.5482 1321.29 72.5482H1320.99C1320.69 72.5482 1320.54 72.397 1320.54 72.0945V70.5255C1320.54 70.2231 1320.69 70.0718 1320.99 70.0718H1321.29C1321.59 70.0718 1321.73 70.2231 1321.73 70.5255V71.0926H1321.26V70.5728C1321.26 70.5161 1321.23 70.4877 1321.17 70.4877H1321.12C1321.06 70.4877 1321.03 70.5161 1321.03 70.5728V72.0378C1321.03 72.0945 1321.06 72.1229 1321.12 72.1229H1321.18C1321.24 72.1229 1321.27 72.0945 1321.27 72.0378V71.4518H1321.74V72.0945Z" fill="#FFFFF1"/>
<path d="M1322.61 70.535H1322.32V70.1002H1323.39V70.535H1323.1V72.5293H1322.61V70.535Z" fill="#FFFFF1"/>
<path d="M1324 70.1002H1323.51V72.5199H1324V70.1002Z" fill="#FFFFF1"/>
<path d="M1324.18 72.5199H1325.09V72.0851H1324.66V71.4991H1325.06V71.0643H1324.66V70.5161H1325.08V70.0813H1324.18V72.5199ZM1324.49 69.7127L1324.31 70.0151H1324.52L1324.61 69.9017L1324.71 70.0151H1324.91L1324.73 69.7127H1324.47H1324.49Z" fill="#FFFFF1"/>
<path d="M1325.98 72.5482H1325.68C1325.38 72.5482 1325.24 72.397 1325.24 72.0945V70.1002H1325.72V72.0378C1325.72 72.0945 1325.75 72.1229 1325.8 72.1229H1325.85C1325.91 72.1229 1325.94 72.0945 1325.94 72.0378V70.1002H1326.42V72.0945C1326.42 72.397 1326.27 72.5482 1325.97 72.5482" fill="#FFFFF1"/>
<text fill="white" xml:space="preserve" style="white-space: pre" font-family="VNM Sans Display" font-size="80" font-weight="bold" letter-spacing="0em"><tspan x="107.727" y="126.6">PH&#xc1;T TRI&#x1ec2;N TH&#x1eca; TR&#x1af;&#x1edc;NG</tspan></text>
<rect x="908" y="202" width="358" height="34" rx="8" fill="#D3E1FF"/>
<text fill="#3459FF" xml:space="preserve" style="white-space: pre" font-family="VNM Sans Std" font-size="20" font-weight="bold" letter-spacing="0em"><tspan x="928.279" y="226">G&#xf3;p ph&#x1ea7;n v&#xe0;o s&#x1ef1; ph&#xe1;t tri&#x1ec3;n qu&#x1ed1;c gia</tspan></text>
<g clip-path="url(#clip0_201_2681)">
<rect x="833" y="265" width="507" height="358" rx="8" fill="#3459FF"/>
<rect x="836" y="268" width="501" height="352" rx="5" stroke="#0213B0" stroke-width="6"/>
<text fill="#FFFFF1" xml:space="preserve" style="white-space: pre" font-family="VNM Sans Display" font-size="60" font-weight="bold" letter-spacing="0em"><tspan x="911" y="353">TOP </tspan></text>
<text fill="#FFFFF1" xml:space="preserve" style="white-space: pre" font-family="VNM Sans Display" font-size="60" font-weight="bold" letter-spacing="0em"><tspan x="987.307" y="353" data-counter data-delay="600" data-from="0" data-to="17" data-ori="17">17</tspan></text>
<text fill="#FFFFF1" xml:space="preserve" style="white-space: pre" font-family="VNM Sans Std" font-size="16" letter-spacing="0em"><tspan x="886.969" y="375.536">Doanh nghi&#x1ec7;p n&#x1ed9;p thu&#x1ebf; &#x2028;</tspan><tspan x="885.703" y="393.536"> Thu nh&#x1ead;p doanh nghi&#x1ec7;p &#x2028;</tspan><tspan x="872.695" y="411.536"> l&#x1edb;n nh&#x1ea5;t Vi&#x1ec7;t Nam n&#x103;m 2022</tspan></text>
<text fill="#FFFFF1" xml:space="preserve" style="white-space: pre" font-family="VNM Sans Display" font-size="24" font-weight="bold" letter-spacing="0em"><tspan x="880.793" y="495.8">KH&#xd4;NG PH&#xc1;T SINH KHO&#x1ea2;N </tspan><tspan x="876.973" y="520.8">TI&#x1ec0;N PH&#x1ea0;T LI&#xca;N QUAN LU&#x1eac;T </tspan><tspan x="872.426" y="545.8">PH&#xc1;P TRONG L&#x128;NH V&#x1ef0;C KINH </tspan><tspan x="924.012" y="570.8">T&#x1ebe; V&#xc0; X&#xc3; H&#x1ed8;I</tspan></text>
<line x1="1310" y1="445.5" x2="856" y2="445.5" stroke="#FFFFF1" stroke-width="3"/>
<line x1="1087.5" y1="294" x2="1087.5" y2="594" stroke="#FFFFF1" stroke-width="3"/>
<text fill="#FFFFF1" xml:space="preserve" style="white-space: pre" font-family="VNM Sans Display" font-size="60" font-weight="bold" letter-spacing="0em"><tspan x="1144.47" y="345.5" data-counter data-delay="600" data-from="0" data-to="24286" data-ori="24.286">24.286</tspan></text>
<text fill="#FFFFF1" xml:space="preserve" style="white-space: pre" font-family="VNM Sans Display" font-size="32" letter-spacing="0em"><tspan x="1173" y="379.04">T&#x1ef6; &#x110;&#x1ed2;NG</tspan></text>
<text fill="#FFFFF1" xml:space="preserve" style="white-space: pre" font-family="VNM Sans Std" font-size="16" letter-spacing="0em"><tspan x="1129.48" y="401.036">doanh s&#x1ed1; giao d&#x1ecb;ch v&#x1edb;i &#x2028;</tspan><tspan x="1117.67" y="419.036"> Nh&#xe0; cung c&#x1ea5;p trong n&#x1b0;&#x1edb;c&#xa0;</tspan></text>
<text fill="#FFFFF1" xml:space="preserve" style="white-space: pre" font-family="VNM Sans Display" font-size="24" font-weight="bold" letter-spacing="0em"><tspan x="1111.41" y="495.8">KH&#xd4;NG PH&#xc1;T SINH VI PH&#x1ea0;M &#x2028;</tspan><tspan x="1127.39" y="520.8">V&#x1ec0; &#x110;&#x1ed8;C QUY&#x1ec0;N, CH&#x1ed0;NG &#x2028;</tspan><tspan x="1121.74" y="545.8">&#x110;&#x1ed8;C QUY&#x1ec0;N V&#xc0;  C&#x1ea2;N TR&#x1ede; &#x2028;</tspan><tspan x="1161.49" y="570.8">C&#x1ea0;NH TRANH</tspan></text>
</g>
<rect x="836" y="268" width="501" height="352" rx="5" stroke="#D3E1FF" stroke-width="6" stroke-linecap="square" stroke-dasharray="28 28"/>
<defs>
<clipPath id="clip0_201_2681">
<rect x="833" y="265" width="507" height="358" rx="8" fill="white"/>
</clipPath>
</defs>
</svg>
