<svg width="1440" height="774" viewBox="0 0 1440 774" fill="none" xmlns="http://www.w3.org/2000/svg">
<g clip-path="url(#clip0_316_15063)">
<g clip-path="url(#clip1_316_15063)">
<rect x="780" y="102" width="560" height="478" rx="8" fill="#2BC81F"/>
<rect x="782.5" y="104.5" width="555" height="521" stroke="#0ADC91" stroke-width="5" stroke-linecap="square"/>
<text fill="#FFFFF1" xml:space="preserve" style="white-space: pre" font-family="VNM Sans Std" font-size="16" letter-spacing="0em"><tspan x="920.828" y="162.036">Over</tspan></text>
<text fill="#FFFFF1" xml:space="preserve" style="white-space: pre" font-family="VNM Sans Display" font-size="60" font-weight="bold" letter-spacing="0em"><tspan x="841.432" y="215.5" data-counter data-delay="300" data-from="0" data-to="11" data-ori="1.1" >1.1 </tspan></text>
<text fill="#FFFFF1" xml:space="preserve" style="white-space: pre" font-family="VNM Sans Display" font-size="60" font-weight="bold" letter-spacing="0em"><tspan x="843.486" y="215.5">      MILLION&#10;</tspan><tspan x="886.26" y="278.5">TREES</tspan></text>
<text fill="#FFFFF1" xml:space="preserve" style="white-space: pre" font-family="VNM Sans Std" font-size="16" letter-spacing="0em"><tspan x="873.805" y="301.036">planted in Vietnam&#10;</tspan><tspan x="875.93" y="319.036">from (2012 - 2023).</tspan></text>
<text fill="#FFFFF1" xml:space="preserve" style="white-space: pre" font-family="VNM Sans Std" font-size="16" letter-spacing="0em"><tspan x="1166.83" y="202.536">Over</tspan></text>
<text fill="#FFFFF1" xml:space="preserve" style="white-space: pre" font-family="VNM Sans Display" font-size="60" font-weight="bold" letter-spacing="0em"><tspan x="1095.83" y="256" data-counter data-delay="300" data-from="0" data-to="877125" data-ori="877,125" >877,125</tspan></text>
<text fill="#FFFFF1" xml:space="preserve" style="white-space: pre" font-family="VNM Sans Display" font-size="32" font-weight="bold" letter-spacing="0em"><tspan x="1225.56" y="256.4">KWH</tspan></text>
<text fill="#FFFFF1" xml:space="preserve" style="white-space: pre" font-family="VNM Sans Std" font-size="16" letter-spacing="0em"><tspan x="1113.41" y="278.536">power saved in 2023.</tspan></text>
<text fill="#FFFFF1" xml:space="preserve" style="white-space: pre" font-family="VNM Sans Std" font-size="16" letter-spacing="0em"><tspan x="895.375" y="402.036">Reduce over</tspan></text>
<text fill="#FFFFF1" xml:space="preserve" style="white-space: pre" font-family="VNM Sans Display" font-size="96" font-weight="bold" letter-spacing="0em"><tspan x="852.188" y="480.7" data-counter data-delay="300" data-from="0" data-to="3" data-ori="3">3</tspan></text>
<text fill="#FFFFF1" xml:space="preserve" style="white-space: pre" font-family="VNM Sans Display" font-size="96" font-weight="bold" letter-spacing="0em"><tspan x="885.031" y="480.7">%</tspan></text>
<text fill="#FFFFF1" xml:space="preserve" style="white-space: pre" font-family="VNM Sans Display" font-size="16" font-weight="bold" letter-spacing="0em"><tspan x="943.5" y="427.2">TONS CO&#x2082;&#10;</tspan><tspan x="943.5" y="444.2">EQUIVALENT/&#10;</tspan><tspan x="943.5" y="461.2">TON OF </tspan><tspan x="943.5" y="478.2">PRODUCTS</tspan></text>
<text fill="#FFFFF1" xml:space="preserve" style="white-space: pre" font-family="VNM Sans Std" font-size="16" letter-spacing="0em"><tspan x="868.297" y="503.036">&#xa0;(scope and scope 2).</tspan></text>
<text fill="#FFFFF1" xml:space="preserve" style="white-space: pre" font-family="VNM Sans Display" font-size="60" font-weight="bold" letter-spacing="0em"><tspan x="1125.95" y="436.5" data-counter data-delay="300" data-from="0" data-to="862" data-ori="86.2" >86.2</tspan></text>
<text fill="#FFFFF1" xml:space="preserve" style="white-space: pre" font-family="VNM Sans Display" font-size="60" font-weight="bold" letter-spacing="0em"><tspan x="1209.71" y="436.5">%</tspan></text>
<text fill="#FFFFF1" xml:space="preserve" style="white-space: pre" font-family="VNM Sans Std" font-size="16" letter-spacing="0em"><tspan x="1090.6" y="468.536">renewable energy replacing&#10;</tspan><tspan x="1092.02" y="486.536">fossil energy in production.</tspan></text>
<line x1="1060.5" y1="125" x2="1060.5" y2="557" stroke="#FFFFF1" stroke-width="3"/>
<line x1="1306" y1="342.5" x2="812" y2="342.5" stroke="#FFFFF1" stroke-width="3"/>
</g>
<rect x="782.5" y="104.5" width="555" height="473" rx="5.5" stroke="#006D5A" stroke-width="5" stroke-linecap="square" stroke-dasharray="27 27"/>
<rect x="100.5" y="600.5" width="140" height="133" rx="7.5" fill="#FFFFF1"/>
<rect x="100.5" y="600.5" width="140" height="133" rx="7.5" stroke="#006D5A"/>
<text fill="#006D5A" xml:space="preserve" style="white-space: pre" font-family="VNM Sans Std" font-size="14" letter-spacing="0em"><tspan x="125.854" y="631.844">Support to the </tspan><tspan x="125.267" y="647.844">Government of </tspan><tspan x="110.398" y="663.844">Vietnam in achieving </tspan><tspan x="133.647" y="679.844">the Net Zero </tspan><tspan x="123.154" y="695.844">commitment by </tspan><tspan x="155.071" y="711.844">2050</tspan></text>
<rect x="257.5" y="600.5" width="142" height="133" rx="7.5" fill="#FFFFF1"/>
<rect x="257.5" y="600.5" width="142" height="133" rx="7.5" stroke="#006D5A"/>
<text fill="#006D5A" xml:space="preserve" style="white-space: pre" font-family="VNM Sans Std" font-size="14" letter-spacing="0em"><tspan x="270.456" y="647.844">The action program </tspan><tspan x="272.213" y="663.844">&#x201c;Vinamilk Pathways </tspan><tspan x="278.775" y="679.844">to Dairy Net Zero </tspan><tspan x="310.638" y="695.844">2050&#x201d;</tspan></text>
<rect x="416.5" y="600.5" width="139" height="133" rx="7.5" fill="#FFFFF1"/>
<rect x="416.5" y="600.5" width="139" height="133" rx="7.5" stroke="#006D5A"/>
<text fill="#006D5A" xml:space="preserve" style="white-space: pre" font-family="VNM Sans Std" font-size="14" letter-spacing="0em"><tspan x="430.526" y="647.844">Participation in the </tspan><tspan x="430.034" y="663.844">Global Pathways to </tspan><tspan x="444.314" y="679.844">Dairy Net Zero </tspan><tspan x="460.96" y="695.844">initiative</tspan></text>
<rect x="572.5" y="600.5" width="139" height="133" rx="7.5" fill="#FFFFF1"/>
<rect x="572.5" y="600.5" width="139" height="133" rx="7.5" stroke="#006D5A"/>
<text fill="#006D5A" xml:space="preserve" style="white-space: pre" font-family="VNM Sans Std" font-size="14" letter-spacing="0em"><tspan x="588.83" y="631.844">100% of Factories </tspan><tspan x="583.061" y="647.844">and Farms with GHG </tspan><tspan x="609.085" y="663.844">accounting </tspan><tspan x="609.413" y="679.844">conducted </tspan><tspan x="593.827" y="695.844">according to ISO </tspan><tspan x="589.295" y="711.844">14064 standard(*)</tspan></text>
<rect x="728.5" y="600.5" width="140" height="133" rx="7.5" fill="#FFFFF1"/>
<rect x="728.5" y="600.5" width="140" height="133" rx="7.5" stroke="#006D5A"/>
<text fill="#006D5A" xml:space="preserve" style="white-space: pre" font-family="VNM Sans Std" font-size="14" letter-spacing="0em"><tspan x="756.015" y="647.844">Environmental </tspan><tspan x="758.817" y="663.844">Management </tspan><tspan x="741.598" y="679.844">System certified to </tspan><tspan x="755.01" y="695.844">ISO 14001:2015</tspan></text>
<rect x="885.5" y="600.5" width="140" height="133" rx="7.5" fill="#FFFFF1"/>
<rect x="885.5" y="600.5" width="140" height="133" rx="7.5" stroke="#006D5A"/>
<text fill="#006D5A" xml:space="preserve" style="white-space: pre" font-family="VNM Sans Std" font-size="14" letter-spacing="0em"><tspan x="934.76" y="647.844">Energy </tspan><tspan x="915.817" y="663.844">Management </tspan><tspan x="898.598" y="679.844">System certified to </tspan><tspan x="910.39" y="695.844">ISO 50001:2018</tspan></text>
<rect x="1042.5" y="600.5" width="141" height="133" rx="7.5" fill="#FFFFF1"/>
<rect x="1042.5" y="600.5" width="141" height="133" rx="7.5" stroke="#006D5A"/>
<text fill="#006D5A" xml:space="preserve" style="white-space: pre" font-family="VNM Sans Std" font-size="14" letter-spacing="0em"><tspan x="1062.79" y="639.844">100% of Vinamilk </tspan><tspan x="1057.99" y="655.844">farms using Biogas </tspan><tspan x="1077.85" y="671.844">technology, </tspan><tspan x="1067.27" y="687.844">converting cow </tspan><tspan x="1052.09" y="703.844">waste into resources</tspan></text>
<rect x="1200.5" y="600.5" width="140" height="133" rx="7.5" fill="#FFFFF1"/>
<rect x="1200.5" y="600.5" width="140" height="133" rx="7.5" stroke="#006D5A"/>
<text fill="#006D5A" xml:space="preserve" style="white-space: pre" font-family="VNM Sans Std" font-size="14" letter-spacing="0em"><tspan x="1211.77" y="623.844">Vietnam&#x2019;s first dairy </tspan><tspan x="1223.76" y="639.844">company with a </tspan><tspan x="1215.83" y="655.844">factory and a farm </tspan><tspan x="1222.74" y="671.844">certified carbon </tspan><tspan x="1211.51" y="687.844">neutrality according </tspan><tspan x="1222.76" y="703.844">to the PAS 2060 </tspan><tspan x="1243.6" y="719.844">standard</tspan></text>
<path d="M1293 35.9994H1253V75.9994H1293V35.9994Z" fill="#FBC311"/>
<path d="M1273.01 55.3811C1269.76 55.3811 1267.12 58.021 1267.12 61.2693C1267.12 64.5175 1269.76 67.1574 1273.01 67.1574C1276.26 67.1574 1278.9 64.5175 1278.9 61.2693C1278.9 58.021 1276.26 55.3811 1273.01 55.3811ZM1272.57 57.7069C1272.57 57.5107 1272.77 57.2948 1273.01 57.2948C1273.25 57.2948 1273.45 57.5107 1273.45 57.7069V59.7285C1273.45 59.9248 1273.26 60.1407 1273.01 60.1407C1272.76 60.1407 1272.57 59.9248 1272.57 59.7285V57.7069ZM1273.01 64.282C1271.32 64.282 1269.95 62.9081 1269.95 61.2202C1269.95 59.8463 1270.86 58.6785 1272.11 58.2958V59.4341C1271.45 59.7678 1271.01 60.4351 1271.01 61.2202C1271.01 62.3291 1271.9 63.2222 1273.01 63.2222C1274.12 63.2222 1275.02 62.3291 1275.02 61.2202C1275.02 60.4351 1274.57 59.7678 1273.92 59.4341V58.2958C1275.17 58.6785 1276.08 59.8463 1276.08 61.2202C1276.08 62.9081 1274.72 64.282 1273.02 64.282" fill="white"/>
<path d="M1266.25 61.2202C1266.25 60.9552 1266.01 60.7393 1265.8 60.7393H1263.22C1263 60.7393 1262.76 60.9552 1262.76 61.2202C1262.76 61.4852 1263 61.7011 1263.22 61.7011H1265.8C1266.02 61.7011 1266.25 61.4852 1266.25 61.2202Z" fill="white"/>
<path d="M1283.27 61.2202C1283.27 60.9552 1283.03 60.7393 1282.82 60.7393H1280.23C1280.01 60.7393 1279.78 60.9552 1279.78 61.2202C1279.78 61.4852 1280.01 61.7011 1280.23 61.7011H1282.82C1283.04 61.7011 1283.27 61.4852 1283.27 61.2202Z" fill="white"/>
<path d="M1273.01 71.4656C1273.28 71.4656 1273.49 71.23 1273.49 71.0141V68.4332C1273.49 68.2173 1273.27 67.9818 1273.01 67.9818C1272.76 67.9818 1272.53 68.2173 1272.53 68.4332V71.0141C1272.53 71.23 1272.75 71.4656 1273.01 71.4656Z" fill="white"/>
<path d="M1281.91 66.3036C1282.04 66.0779 1281.95 65.7639 1281.76 65.656L1279.52 64.3704C1279.33 64.2624 1279.01 64.3311 1278.88 64.5666C1278.74 64.8022 1278.85 65.1064 1279.03 65.2143L1281.27 66.4901C1281.46 66.5981 1281.76 66.5294 1281.9 66.2938" fill="white"/>
<path d="M1267.93 70.1113C1268.16 70.2487 1268.46 70.1407 1268.57 69.9543L1269.85 67.7168C1269.95 67.5303 1269.89 67.2163 1269.66 67.0789C1269.43 66.9415 1269.11 67.0495 1269.01 67.2359L1267.73 69.4734C1267.62 69.6599 1267.69 69.9739 1267.92 70.1113" fill="white"/>
<path d="M1278.12 70.1014C1278.35 69.964 1278.43 69.6598 1278.31 69.4734L1277.03 67.2359C1276.93 67.0494 1276.62 66.9513 1276.38 67.0788C1276.15 67.2162 1276.07 67.5303 1276.19 67.7167L1277.47 69.9542C1277.58 70.1407 1277.88 70.2388 1278.12 70.1014Z" fill="white"/>
<path d="M1264.13 66.3232C1264.26 66.5489 1264.58 66.6274 1264.76 66.5195L1267 65.2339C1267.19 65.126 1267.29 64.8217 1267.15 64.5862C1267.02 64.3507 1266.7 64.282 1266.51 64.3899L1264.27 65.6755C1264.09 65.7835 1263.99 66.0877 1264.12 66.3232" fill="white"/>
<path d="M1273.01 54.4587C1273.28 54.4587 1273.49 54.2231 1273.49 54.0072V51.4263C1273.49 51.2104 1273.27 50.9749 1273.01 50.9749C1272.76 50.9749 1272.53 51.2104 1272.53 51.4263V54.0072C1272.53 54.2231 1272.75 54.4587 1273.01 54.4587Z" fill="white"/>
<path d="M1267.14 57.8541C1267.28 57.6186 1267.18 57.3144 1266.99 57.2064L1264.75 55.9209C1264.56 55.8129 1264.25 55.8816 1264.12 56.1171C1263.99 56.3527 1264.08 56.6569 1264.27 56.7648L1266.51 58.0504C1266.69 58.1583 1267.01 58.0896 1267.14 57.8541Z" fill="white"/>
<path d="M1276.37 55.3517C1276.6 55.4891 1276.91 55.3811 1277.01 55.1946L1278.29 52.9572C1278.4 52.7707 1278.33 52.4567 1278.1 52.3193C1277.87 52.1819 1277.57 52.2898 1277.45 52.4763L1276.17 54.7138C1276.07 54.9002 1276.13 55.2143 1276.36 55.3517" fill="white"/>
<path d="M1269.65 55.3517C1269.88 55.2143 1269.95 54.9101 1269.84 54.7138L1268.56 52.4763C1268.45 52.2899 1268.15 52.1917 1267.91 52.3193C1267.68 52.4567 1267.6 52.7707 1267.72 52.9572L1269 55.1947C1269.1 55.3811 1269.41 55.4793 1269.65 55.3419" fill="white"/>
<path d="M1278.88 57.8444C1279.01 58.0799 1279.33 58.1486 1279.51 58.0406L1281.74 56.7551C1281.94 56.6471 1282.03 56.3429 1281.9 56.1074C1281.76 55.8718 1281.45 55.8031 1281.26 55.9111L1279.02 57.1967C1278.84 57.3046 1278.73 57.6088 1278.87 57.8444" fill="white"/>
<path d="M1257.03 40.3861H1259.13L1257.31 47.3831H1258.67L1260.45 40.5333V39.2771H1257.03V40.3861Z" fill="white"/>
<path d="M1264.26 42.6726L1264.91 39.2869H1265.56L1266.2 42.6726H1265.61L1265.51 42.0543H1264.91L1264.81 42.6726H1264.27H1264.26ZM1264.97 41.5931H1265.43L1265.21 40.2388L1264.99 41.5931H1264.97Z" fill="white"/>
<path d="M1266.43 39.2869H1267.76V39.7481H1267V40.7197H1267.56V41.1809H1267V42.6726H1266.43V39.2869Z" fill="white"/>
<path d="M1268.01 39.2869H1269.34V39.7481H1268.58V40.7197H1269.15V41.1809H1268.58V42.6726H1268.01V39.2869Z" fill="white"/>
<path d="M1269.54 41.7992V40.1603C1269.54 39.6304 1269.8 39.2477 1270.4 39.2477C1271.01 39.2477 1271.26 39.6304 1271.26 40.1603V41.7992C1271.26 42.3193 1271.01 42.7119 1270.4 42.7119C1269.8 42.7119 1269.54 42.3193 1269.54 41.7992ZM1270.7 41.8875V40.072C1270.7 39.8659 1270.61 39.7187 1270.4 39.7187C1270.19 39.7187 1270.12 39.8659 1270.12 40.072V41.8875C1270.12 42.0936 1270.2 42.2408 1270.4 42.2408C1270.6 42.2408 1270.7 42.0936 1270.7 41.8875Z" fill="white"/>
<path d="M1272.16 41.1123V42.6628H1271.59V39.2771H1272.42C1273 39.2771 1273.21 39.5617 1273.21 40.0328V40.4646C1273.21 40.8277 1273.07 41.0436 1272.75 41.1221L1273.29 42.6628H1272.69L1272.15 41.1123H1272.16ZM1272.16 39.7482V40.7982H1272.35C1272.55 40.7982 1272.63 40.7001 1272.63 40.5235V40.023C1272.63 39.8365 1272.55 39.7482 1272.35 39.7482H1272.16Z" fill="white"/>
<path d="M1275.21 40.1897V41.7599C1275.21 42.28 1274.99 42.6726 1274.39 42.6726H1273.51V39.2869H1274.39C1275 39.2869 1275.21 39.6696 1275.21 40.1996M1274.32 42.2015C1274.56 42.2015 1274.65 42.0641 1274.65 41.858V40.0818C1274.65 39.8855 1274.56 39.7383 1274.32 39.7383H1274.09V42.2015H1274.32Z" fill="white"/>
<path d="M1275.38 42.6726L1276.02 39.2869H1276.67L1277.31 42.6726H1276.73L1276.62 42.0543H1276.02L1275.91 42.6726H1275.38ZM1276.09 41.5931H1276.55L1276.33 40.2388L1276.1 41.5931H1276.09Z" fill="white"/>
<path d="M1277.55 39.2869H1278.37C1278.93 39.2869 1279.12 39.5519 1279.12 40.0327V40.3762C1279.12 40.6608 1279.02 40.8374 1278.79 40.9159C1279.08 40.9748 1279.21 41.1711 1279.21 41.4753V41.9267C1279.21 42.4076 1278.99 42.6726 1278.43 42.6726H1277.54V39.2869H1277.55ZM1278.11 40.7099H1278.31C1278.49 40.7099 1278.58 40.6117 1278.58 40.4351V40.0229C1278.58 39.8365 1278.49 39.7481 1278.3 39.7481H1278.11V40.7099ZM1278.11 41.1515V42.2113H1278.36C1278.55 42.2113 1278.64 42.1132 1278.64 41.9366V41.4262C1278.64 41.2496 1278.55 41.1515 1278.35 41.1515H1278.11Z" fill="white"/>
<path d="M1279.5 39.2869H1280.07V42.2015H1280.75V42.6726H1279.5V39.2869Z" fill="white"/>
<path d="M1281.01 39.2869H1282.37V39.7481H1281.57V40.7197H1282.14V41.1809H1281.57V42.2015H1282.37V42.6726H1281.01V39.2869Z" fill="white"/>
<path d="M1283.44 42.6726L1284.08 39.2869H1284.73L1285.37 42.6726H1284.79L1284.68 42.0543H1284.08L1283.98 42.6726H1283.45H1283.44ZM1284.15 41.5931H1284.59L1284.37 40.2388L1284.15 41.5931Z" fill="white"/>
<path d="M1286.08 40.543V42.6726H1285.6V39.2869H1286.16L1286.77 41.23V39.2869H1287.25V42.6726H1286.75L1286.08 40.543Z" fill="white"/>
<path d="M1289.28 40.1897V41.7599C1289.28 42.28 1289.06 42.6726 1288.46 42.6726H1287.58V39.2869H1288.46C1289.07 39.2869 1289.28 39.6696 1289.28 40.1996M1288.38 42.2015C1288.61 42.2015 1288.71 42.0641 1288.71 41.858V40.0818C1288.71 39.8855 1288.61 39.7383 1288.38 39.7383H1288.14V42.2015H1288.38Z" fill="white"/>
<path d="M1264.35 46.5392V44.9003C1264.35 44.3704 1264.6 43.9876 1265.2 43.9876C1265.83 43.9876 1266 44.3409 1266 44.8414V45.2438H1265.49V44.8022C1265.49 44.5863 1265.42 44.4685 1265.21 44.4685C1265 44.4685 1264.92 44.6157 1264.92 44.8218V46.6373C1264.92 46.8434 1265.01 46.9906 1265.21 46.9906C1265.41 46.9906 1265.49 46.863 1265.49 46.6569V46.0289H1266V46.6177C1266 47.0985 1265.8 47.4616 1265.2 47.4616C1264.6 47.4616 1264.35 47.0691 1264.35 46.549" fill="white"/>
<path d="M1266.31 44.0269H1266.88V46.9513H1267.56V47.4125H1266.31V44.0269Z" fill="white"/>
<path d="M1267.82 44.0269H1269.18V44.4881H1268.4V45.4596H1268.96V45.9209H1268.4V46.9513H1269.18V47.4125H1267.82V44.0269Z" fill="white"/>
<path d="M1269.39 47.4125L1270.03 44.0269H1270.68L1271.32 47.4125H1270.74L1270.63 46.7943H1270.03L1269.93 47.4125H1269.39ZM1270.11 46.3429H1270.57L1270.35 44.9788L1270.12 46.3429H1270.11Z" fill="white"/>
<path d="M1272.04 45.283V47.4125H1271.56V44.0269H1272.12L1272.74 45.9699V44.0269H1273.21V47.4125H1272.71L1272.04 45.283Z" fill="white"/>
<path d="M1274.39 44.0269H1275.75V44.4881H1274.97V45.4596H1275.53V45.9209H1274.97V46.9513H1275.75V47.4125H1274.39V44.0269Z" fill="white"/>
<path d="M1276.53 45.283V47.4125H1276.06V44.0269H1276.61L1277.23 45.9699V44.0269H1277.7V47.4125H1277.2L1276.53 45.283Z" fill="white"/>
<path d="M1278.03 44.0269H1279.38V44.4881H1278.6V45.4596H1279.16V45.9209H1278.6V46.9513H1279.38V47.4125H1278.03V44.0269Z" fill="white"/>
<path d="M1280.26 45.862V47.4125H1279.69V44.0269H1280.52C1281.1 44.0269 1281.31 44.3114 1281.31 44.7825V45.2143C1281.31 45.5774 1281.17 45.7933 1280.85 45.8718L1281.39 47.4125H1280.79L1280.25 45.862H1280.26ZM1280.26 44.4881V45.5381H1280.45C1280.65 45.5381 1280.73 45.44 1280.73 45.2634V44.7629C1280.73 44.5764 1280.65 44.4881 1280.45 44.4881H1280.26Z" fill="white"/>
<path d="M1282.47 45.6069H1283.28V47.4126H1282.87V47.0397C1282.8 47.2948 1282.64 47.4518 1282.33 47.4518C1281.84 47.4518 1281.61 47.0593 1281.61 46.5392V44.9003C1281.61 44.3704 1281.87 43.9876 1282.46 43.9876C1283.09 43.9876 1283.28 44.3409 1283.28 44.8316V45.1358H1282.76V44.7924C1282.76 44.5863 1282.68 44.4587 1282.47 44.4587C1282.26 44.4587 1282.18 44.6059 1282.18 44.812V46.6275C1282.18 46.8336 1282.26 46.9808 1282.45 46.9808C1282.63 46.9808 1282.73 46.8728 1282.73 46.6569V46.0583H1282.46V45.6069H1282.47Z" fill="white"/>
<path d="M1284.58 46.127V47.4125H1284.02V46.127L1283.38 44.0269H1283.98L1284.33 45.3124L1284.67 44.0269H1285.22L1284.58 46.127Z" fill="white"/>
<path d="M1300.06 35.9994L1300 75.9447L1339.95 75.9994L1340 36.0541L1300.06 35.9994Z" fill="#417E45"/>
<path d="M1335.04 61.0799C1333.98 59.5884 1329.21 53.6619 1320.31 53.6423C1311.4 53.6324 1306.6 59.5492 1305.54 61.0308C1305.49 61.0995 1305.45 61.1486 1305.43 61.1976C1305.45 61.2467 1305.49 61.3056 1305.54 61.3644C1306.6 62.8461 1311.37 68.7824 1320.28 68.7922C1329.18 68.802 1333.97 62.8853 1335.03 61.4037C1335.08 61.335 1335.12 61.2859 1335.15 61.2369C1335.12 61.1878 1335.08 61.1387 1335.03 61.0701M1315.33 57.3905C1315.41 57.2728 1315.68 56.9391 1315.72 56.8901C1315.78 56.8018 1315.92 56.7821 1316.01 56.7723C1316.11 56.7527 1316.23 56.8116 1316.25 56.8803C1316.27 56.949 1316.21 57.2237 1316.17 57.2728C1316.03 57.4101 1315.7 57.5966 1315.51 57.5671C1315.36 57.5475 1315.3 57.4297 1315.33 57.3905ZM1315.01 58.0283C1315.01 58.0283 1315.04 57.9989 1315.04 57.989C1315.15 57.8615 1315.37 57.832 1315.52 57.8124C1315.68 57.783 1315.89 57.8615 1315.91 57.9694C1315.94 58.0675 1315.52 58.254 1315.44 58.3227C1315.23 58.5189 1314.88 58.9212 1314.69 58.9604C1314.63 58.9703 1314.58 58.9604 1314.53 58.9408C1314.65 58.617 1314.82 58.3128 1314.99 58.0185M1318.34 64.8674C1318.21 65.3384 1318.08 65.515 1317.95 65.6622C1317.84 65.8093 1317.39 66.0056 1317.11 65.986C1316.83 65.9663 1316.8 65.2108 1316.8 64.8281C1316.8 64.6908 1316.61 65.093 1316.51 64.2885C1316.44 63.7684 1316.12 64.3473 1316.09 63.9941C1316.07 63.6507 1315.9 63.7193 1315.73 63.5035C1315.55 63.2876 1315.33 63.5231 1315.09 63.631C1314.86 63.739 1314.95 63.788 1314.61 63.6801C1314.61 63.6801 1314.6 63.6801 1314.59 63.6801C1314.27 62.9344 1314.1 62.12 1314.1 61.2663C1314.1 61.0603 1314.11 60.8542 1314.13 60.6481C1314.14 60.6285 1314.15 60.6089 1314.17 60.5893C1314.49 60.1968 1314.49 60.1085 1314.49 60.1085L1314.86 59.9809C1314.86 59.9809 1315.44 60.0692 1315.87 60.236C1316.23 60.3734 1316.8 60.6776 1317.12 60.5402C1317.36 60.4421 1317.54 60.3145 1317.52 60.1183C1317.49 59.873 1317.3 59.8141 1317.06 59.9809C1316.98 60.0398 1316.79 59.6081 1316.64 59.6277C1316.5 59.6473 1316.83 60.1379 1316.7 60.1575C1316.58 60.1772 1316.33 59.6473 1316.29 59.559C1316.25 59.4707 1316.05 59.2548 1315.88 59.4216C1315.52 59.765 1314.92 59.7454 1314.8 59.8337C1314.43 60.1085 1314.34 59.7454 1314.35 59.5197C1314.36 59.4707 1314.38 59.4216 1314.4 59.3726C1314.51 59.245 1314.94 59.1959 1315.08 59.2941C1315.25 59.402 1315.36 59.2646 1315.42 59.2058C1315.49 59.1469 1315.46 59.0389 1315.42 58.9506C1315.38 58.8623 1315.5 58.8035 1315.58 58.774C1315.67 58.7544 1315.95 58.5581 1316.05 58.4993C1316.17 58.4404 1316.74 58.3717 1316.99 58.4993C1317.25 58.6268 1317.48 58.5189 1317.61 58.3717C1317.77 58.1853 1317.97 58.0381 1318.06 57.9989C1318.14 57.9596 1317.84 57.6652 1317.58 57.9792C1317.32 58.2932 1317.2 58.3227 1317.07 58.3227C1316.95 58.3227 1316.23 58.146 1316.15 57.9204C1316.06 57.6947 1316.37 57.5279 1316.63 57.4003C1316.9 57.2728 1317.62 57.2826 1317.8 57.2335C1318.17 57.155 1318.66 56.9588 1318.9 57.1256C1319.14 57.2924 1317.89 57.5671 1318.3 57.7928C1318.44 57.8713 1319.11 57.4101 1319.33 57.2924C1319.87 57.0176 1318.81 56.9293 1318.95 56.37C1319.1 55.7421 1317.66 55.9776 1316.94 56.0364C1317.91 55.4183 1319.05 55.065 1320.28 55.065C1323.2 55.065 1325.65 57.0961 1326.3 59.8239C1326.3 59.9613 1326.28 60.0594 1326.27 60.1085C1326.22 60.3341 1325.8 60.5206 1325.55 60.1673C1325.48 60.079 1325.22 59.8239 1325.23 60.2557C1325.23 60.6874 1325.65 60.7266 1325.25 60.9818C1324.85 61.2369 1324.78 61.178 1324.6 61.2467C1324.42 61.3154 1324.24 61.7569 1324.28 61.9924C1324.32 62.2279 1324.89 62.8755 1324.48 62.8461C1324.38 62.8461 1323.63 62.326 1323.52 62.0022C1323.39 61.6588 1323.25 61.3252 1323.15 61.0701C1323.04 60.8149 1322.78 60.7463 1322.56 60.8934C1322.34 61.0406 1322.62 61.1976 1322.47 61.5214C1322.3 61.8452 1322.2 62.1298 1321.96 61.8648C1321.36 61.1682 1320.48 61.5116 1320.34 60.7364C1320.27 60.3145 1319.91 60.3538 1319.61 60.1183C1319.3 59.8828 1319.14 59.7552 1319.08 59.922C1319.03 60.0692 1320.03 60.8542 1320.1 61.0603C1320.2 61.3644 1319.8 61.6195 1319.5 61.698C1319.21 61.7667 1319.08 61.5312 1318.8 61.2271C1318.51 60.9229 1318.38 60.7168 1318.36 60.9523C1318.34 61.2957 1318.64 61.7962 1318.93 61.9826C1319.18 62.1396 1319.46 62.2181 1319.38 62.4732C1319.29 62.7283 1319.38 62.5811 1319.09 62.8657C1318.8 63.1404 1318.76 63.2386 1318.78 63.6212C1318.8 64.0039 1318.7 64.0333 1318.63 64.3473C1318.57 64.6613 1318.43 64.3866 1318.31 64.8674M1324.99 62.3947C1325.2 62.3751 1325.51 62.6694 1325.39 62.7774C1325.27 62.8853 1324.95 62.8461 1324.8 62.7185C1324.65 62.6008 1324.9 62.3947 1324.99 62.3849M1324.72 62.2083C1324.66 62.1886 1324.6 62.12 1324.55 61.9728C1324.5 61.8158 1324.63 61.7373 1324.75 61.7962C1324.88 61.8648 1325.05 62.0513 1325.05 62.1494C1325.05 62.2475 1324.8 62.2377 1324.73 62.2083M1321.99 62.1886C1321.86 62.2966 1321.55 62.2573 1321.4 62.1396C1321.24 62.0218 1321.5 61.8158 1321.59 61.806C1321.8 61.7863 1322.11 62.0807 1321.99 62.1886ZM1319.46 63.425C1319.37 63.5624 1319.14 64.6024 1318.98 64.4847C1318.82 64.367 1319.04 63.2778 1319.09 63.1895C1319.34 62.7381 1319.87 62.7578 1319.46 63.4152M1320.29 67.4676C1319.68 67.4676 1319.1 67.3793 1318.55 67.2125C1318.47 67.1438 1318.42 67.0359 1318.47 66.9083C1318.66 66.4079 1319.24 66.2116 1319.68 66.1724C1320.69 66.0743 1322.01 66.8298 1322.22 66.7121C1322.43 66.5943 1322.86 66.035 1323.48 66.0645C1323.9 66.0841 1323.9 66.1528 1324.05 66.2018C1323 66.9966 1321.7 67.4676 1320.29 67.4676ZM1324.67 65.6622C1324.61 65.6425 1324.54 65.6229 1324.48 65.5935C1324.14 65.4169 1324.18 65.6916 1324.01 65.6327C1323.84 65.5738 1324.2 65.1814 1323.69 65.515C1323.19 65.8388 1323.33 65.4659 1323.11 64.9164C1322.89 64.3669 1323.36 63.739 1323.75 63.5918C1324.28 63.3955 1324.62 63.3563 1324.88 63.2974C1325.62 63.111 1325.78 62.6694 1325.92 62.9442C1325.95 62.9932 1325.97 63.0423 1326 63.0914C1326.04 63.1699 1326.09 63.3367 1326.09 63.4937C1325.78 64.3179 1325.29 65.0636 1324.67 65.6818M1326.37 62.5321C1326.21 62.483 1325.51 61.5214 1326.06 60.8934C1326.16 60.7855 1325.88 60.4813 1325.95 60.4813C1326.25 60.4617 1326.41 60.6481 1326.49 60.9131C1326.49 61.0308 1326.5 61.1486 1326.5 61.2761C1326.5 61.7079 1326.46 62.1298 1326.37 62.5419" fill="white"/>
<path d="M1305 39.2576L1304.99 47.3527H1303.63L1303.64 41.1514H1303.63L1302.67 42.1424H1302.65V40.7196L1303.91 39.2576H1305Z" fill="white"/>
<path d="M1309.49 41.0238V41.7303C1309.49 42.4073 1309.12 42.8685 1308.55 43.0451C1309.23 43.2021 1309.56 43.6829 1309.56 44.4188V45.6159C1309.56 46.7345 1308.95 47.4704 1307.59 47.4606C1306.2 47.4606 1305.71 46.6658 1305.71 45.4393V44.3796H1306.96V45.5374C1306.96 46.0182 1307.12 46.3224 1307.59 46.3224C1308.01 46.3224 1308.2 46.028 1308.2 45.5963V44.2618C1308.2 43.8301 1308.01 43.6044 1307.53 43.6044H1306.96V42.5643H1307.47C1307.91 42.5643 1308.2 42.3386 1308.2 41.9069V41.0336C1308.2 40.5921 1308.05 40.3075 1307.62 40.3075C1307.19 40.3075 1307.03 40.5921 1307.03 41.0925V41.9167H1305.79V41.2004C1305.79 40.0033 1306.29 39.1693 1307.69 39.1693C1308.95 39.1693 1309.5 39.8758 1309.49 41.0238Z" fill="white"/>
<path d="M1312.32 41.7401V40.1015C1312.32 39.5716 1312.57 39.1889 1313.17 39.1889C1313.8 39.1889 1313.98 39.5422 1313.98 40.0426V40.4449H1313.46V40.0033C1313.46 39.7973 1313.39 39.6697 1313.18 39.6697C1312.98 39.6697 1312.9 39.8169 1312.9 40.023V41.8382C1312.9 42.0443 1312.98 42.1915 1313.18 42.1915C1313.38 42.1915 1313.46 42.0639 1313.46 41.8578V41.2299H1313.98V41.8186C1313.98 42.2994 1313.77 42.6624 1313.17 42.6624C1312.57 42.6624 1312.32 42.27 1312.32 41.7499" fill="white"/>
<path d="M1314.29 39.238H1314.86V42.162H1315.53V42.6232H1314.28L1314.29 39.238Z" fill="white"/>
<path d="M1315.81 39.2364L1315.8 42.6216L1316.37 42.6226L1316.38 39.2374L1315.81 39.2364Z" fill="white"/>
<path d="M1318.26 40.4252H1318.25L1317.86 42.6232H1317.59L1317.17 40.4252H1317.16V42.6232H1316.69V39.238H1317.36L1317.72 41.1513H1317.73L1318.06 39.238H1318.78L1318.78 42.633L1318.26 42.6232V40.4252Z" fill="white"/>
<path d="M1319.02 42.6232L1319.66 39.238H1320.31L1320.95 42.6232H1320.36L1320.26 42.005H1319.66L1319.56 42.6232H1319.02ZM1319.72 41.5536H1320.17L1319.95 40.1996L1319.72 41.5536Z" fill="white"/>
<path d="M1320.87 39.2478H1322.38V39.709H1321.91L1321.9 42.633H1321.33L1321.34 39.709H1320.87V39.2478Z" fill="white"/>
<path d="M1322.65 39.2478H1324.01V39.709H1323.21V40.6804H1323.78V41.1415H1323.21V42.1718H1324V42.633H1322.64L1322.65 39.2478Z" fill="white"/>
<path d="M1312.22 47.3625L1312.87 43.9773H1313.52L1314.16 47.3625H1313.57L1313.47 46.7443H1312.87L1312.77 47.3625H1312.22ZM1312.94 46.293H1313.39L1313.17 44.9291L1312.94 46.293Z" fill="white"/>
<path d="M1314.32 46.4892V44.8506C1314.32 44.3207 1314.57 43.938 1315.17 43.938C1315.8 43.938 1315.97 44.2913 1315.97 44.7917V45.194H1315.46V44.7525C1315.46 44.5464 1315.39 44.4188 1315.18 44.4188C1314.98 44.4188 1314.89 44.566 1314.89 44.7721V46.5873C1314.89 46.7934 1314.98 46.9406 1315.18 46.9406C1315.39 46.9406 1315.46 46.813 1315.46 46.607V45.979H1315.97V46.5579C1315.97 47.0485 1315.77 47.4017 1315.17 47.4017C1314.57 47.4017 1314.32 47.0093 1314.32 46.4892Z" fill="white"/>
<path d="M1316.17 43.9773L1317.68 43.9871V44.4483H1317.21V47.3723H1316.63V44.4483H1316.17V43.9773Z" fill="white"/>
<path d="M1317.95 43.984L1317.95 47.3691L1318.52 47.3702L1318.53 43.985L1317.95 43.984Z" fill="white"/>
<path d="M1318.84 46.499V44.8603C1318.84 44.3305 1319.11 43.9478 1319.7 43.9478C1320.31 43.9478 1320.56 44.3305 1320.56 44.8603V46.499C1320.56 47.019 1320.3 47.4115 1319.69 47.4115C1319.09 47.4115 1318.83 47.019 1318.83 46.499M1319.99 46.5873V44.772C1319.99 44.566 1319.9 44.4188 1319.69 44.4188C1319.49 44.4188 1319.41 44.566 1319.41 44.772V46.5873C1319.41 46.7933 1319.49 46.9405 1319.69 46.9405C1319.89 46.9405 1319.99 46.7933 1319.99 46.5873Z" fill="white"/>
<path d="M1321.37 45.243V47.3723H1320.89V43.9871H1321.45L1322.07 45.9299V43.9871H1322.54L1322.53 47.3723H1322.04L1321.37 45.243Z" fill="white"/>
<text fill="white" xml:space="preserve" style="white-space: pre" font-family="Inter" font-size="14" font-style="italic" font-weight="300" letter-spacing="0em"><tspan x="1003" y="754.591">(*) The scope includes Vinamilk&#39;s dairy factories.</tspan></text>
<text fill="#2BC81F" xml:space="preserve" style="white-space: pre" font-family="VNM Sans Display" font-size="80" font-weight="bold" letter-spacing="0em"><tspan x="100" y="156.6">GREENHOUSE GAS EMISSIONS</tspan></text>
<text fill="#2BC81F" xml:space="preserve" style="white-space: pre" font-family="VNM Sans Std" font-size="32" letter-spacing="0em"><tspan x="337.844" y="217.572">PIONEERING &#x2028;</tspan><tspan x="244.906" y="254.572">NET ZERO 2050 ROADMAP</tspan></text>
</g>
<defs>
<filter id="filter0_f_316_15063" x="-494" y="-658" width="1633" height="1531" filterUnits="userSpaceOnUse" color-interpolation-filters="sRGB">
<feFlood flood-opacity="0" result="BackgroundImageFix"/>
<feBlend mode="normal" in="SourceGraphic" in2="BackgroundImageFix" result="shape"/>
<feGaussianBlur stdDeviation="178.5" result="effect1_foregroundBlur_316_15063"/>
</filter>
<clipPath id="clip0_316_15063">
<rect width="1440" height="774" fill="white"/>
</clipPath>
<clipPath id="clip1_316_15063">
<rect x="780" y="102" width="560" height="478" rx="8" fill="white"/>
</clipPath>
</defs>
</svg>
