<svg width="454" height="161" viewBox="0 0 454 161" fill="none" xmlns="http://www.w3.org/2000/svg">
<rect x="0.5" y="0.5" width="453" height="160" rx="7.5" fill="#4DD75A"/>
<rect x="0.5" y="0.5" width="453" height="160" rx="7.5" stroke="#0B4314"/>
<path d="M112.92 41C112.76 41 112.664 40.9307 112.632 40.792L109.96 31.592C109.843 31.176 109.72 30.8667 109.592 30.664C109.475 30.4507 109.325 30.2427 109.144 30.04C109.112 30.008 109.096 29.9707 109.096 29.928C109.096 29.8427 109.144 29.8 109.24 29.8H112.488C112.584 29.8 112.648 29.8213 112.68 29.864C112.712 29.9067 112.707 29.96 112.664 30.024C112.515 30.2373 112.44 30.4773 112.44 30.744C112.44 30.8827 112.477 31.1013 112.552 31.4L114.392 38.168C114.424 38.264 114.472 38.312 114.536 38.312C114.621 38.312 114.669 38.264 114.68 38.168L116.568 31.304C116.621 31.1333 116.648 30.9467 116.648 30.744C116.648 30.4773 116.573 30.2373 116.424 30.024C116.403 29.9813 116.392 29.9493 116.392 29.928C116.392 29.8427 116.461 29.8 116.6 29.8H119.704C119.8 29.8 119.848 29.8427 119.848 29.928C119.848 29.9707 119.832 30.008 119.8 30.04C119.629 30.232 119.485 30.4293 119.368 30.632C119.251 30.8347 119.128 31.1547 119 31.592L116.328 40.792C116.296 40.9307 116.2 41 116.04 41H112.92ZM120.313 41C120.27 41 120.233 40.984 120.201 40.952C120.169 40.92 120.153 40.8827 120.153 40.84V34.552C120.153 33.976 120.126 33.5493 120.073 33.272C120.03 32.9947 119.945 32.696 119.817 32.376L119.801 32.312C119.801 32.2373 119.849 32.2 119.945 32.2H122.457C122.5 32.2 122.537 32.216 122.569 32.248C122.601 32.28 122.617 32.3173 122.617 32.36V40.84C122.617 40.8827 122.601 40.92 122.569 40.952C122.537 40.984 122.5 41 122.457 41H120.313ZM121.369 31.8C120.974 31.8 120.644 31.7147 120.377 31.544C120.11 31.3733 119.977 31.1227 119.977 30.792C119.977 30.4507 120.105 30.2 120.361 30.04C120.628 29.88 120.964 29.8 121.369 29.8C121.785 29.8 122.126 29.88 122.393 30.04C122.66 30.2 122.793 30.4507 122.793 30.792C122.793 31.1227 122.654 31.3733 122.377 31.544C122.11 31.7147 121.774 31.8 121.369 31.8ZM123.829 41C123.786 41 123.749 40.984 123.717 40.952C123.685 40.92 123.669 40.8827 123.669 40.84V34.552C123.669 33.976 123.642 33.5493 123.589 33.272C123.546 32.9947 123.461 32.696 123.333 32.376L123.317 32.312C123.317 32.2373 123.365 32.2 123.461 32.2H125.861C125.903 32.2 125.941 32.216 125.973 32.248C126.005 32.28 126.021 32.3173 126.021 32.36V33.304C126.021 33.4 126.047 33.448 126.101 33.448C126.143 33.448 126.181 33.4107 126.213 33.336C126.661 32.472 127.461 32.04 128.613 32.04C129.562 32.04 130.277 32.3173 130.757 32.872C131.237 33.4267 131.477 34.1627 131.477 35.08V40.84C131.477 40.8827 131.461 40.92 131.429 40.952C131.397 40.984 131.359 41 131.317 41H129.173C129.13 41 129.093 40.984 129.061 40.952C129.029 40.92 129.013 40.8827 129.013 40.84V35.304C129.013 34.856 128.895 34.52 128.661 34.296C128.426 34.072 128.122 33.96 127.749 33.96C127.226 33.96 126.826 34.1467 126.549 34.52C126.271 34.8933 126.133 35.4267 126.133 36.12V40.84C126.133 40.8827 126.117 40.92 126.085 40.952C126.053 40.984 126.015 41 125.973 41H123.829ZM134.93 41.16C134.098 41.16 133.431 40.9413 132.93 40.504C132.439 40.056 132.194 39.4213 132.194 38.6C132.194 37.864 132.412 37.288 132.85 36.872C133.298 36.456 134.012 36.1573 134.994 35.976L136.386 35.72C136.706 35.656 136.924 35.5707 137.042 35.464C137.17 35.3467 137.234 35.2027 137.234 35.032C137.234 34.744 137.106 34.5147 136.85 34.344C136.604 34.1627 136.242 34.072 135.762 34.072C135.143 34.072 134.61 34.2267 134.162 34.536C133.714 34.8347 133.298 35.224 132.914 35.704C132.871 35.768 132.823 35.8 132.77 35.8C132.716 35.8 132.69 35.752 132.69 35.656V33.912C132.69 33.3147 133.02 32.856 133.682 32.536C134.354 32.2053 135.17 32.04 136.13 32.04C137.356 32.04 138.242 32.3067 138.786 32.84C139.33 33.3627 139.602 34.04 139.602 34.872V40.84C139.602 40.8827 139.586 40.92 139.554 40.952C139.522 40.984 139.49 41 139.458 41H137.426C137.394 41 137.356 40.984 137.314 40.952C137.282 40.92 137.266 40.8827 137.266 40.84V40.04C137.266 39.9973 137.25 39.976 137.218 39.976C137.175 39.976 137.138 40.0027 137.106 40.056C136.86 40.4507 136.556 40.7333 136.194 40.904C135.842 41.0747 135.42 41.16 134.93 41.16ZM135.826 39.416C136.263 39.416 136.604 39.272 136.85 38.984C137.106 38.696 137.234 38.3067 137.234 37.816V37.192C137.234 37.064 137.17 37.0107 137.042 37.032L136.049 37.208C135.143 37.3787 134.69 37.7627 134.69 38.36C134.69 38.7013 134.791 38.9627 134.994 39.144C135.196 39.3253 135.474 39.416 135.826 39.416ZM140.797 41C140.691 41 140.637 40.9467 140.637 40.84V34.552C140.637 33.976 140.611 33.5493 140.557 33.272C140.515 32.9947 140.429 32.696 140.301 32.376L140.285 32.312C140.285 32.2373 140.333 32.2 140.429 32.2H142.813C142.867 32.2 142.909 32.216 142.941 32.248C142.973 32.28 142.989 32.3173 142.989 32.36V33.304C142.989 33.4 143.016 33.448 143.069 33.448C143.112 33.448 143.149 33.4107 143.181 33.336C143.64 32.472 144.371 32.04 145.373 32.04C145.949 32.04 146.451 32.1787 146.877 32.456C147.304 32.7333 147.619 33.1173 147.821 33.608C147.843 33.672 147.869 33.704 147.901 33.704C147.944 33.704 147.976 33.6773 147.997 33.624C148.243 33.1333 148.536 32.7493 148.877 32.472C149.229 32.184 149.725 32.04 150.365 32.04C150.909 32.04 151.384 32.168 151.789 32.424C152.195 32.6693 152.504 33.0107 152.717 33.448C152.941 33.8853 153.053 34.376 153.053 34.92V40.84C153.053 40.9467 153 41 152.893 41H150.765C150.712 41 150.669 40.984 150.637 40.952C150.605 40.92 150.589 40.8827 150.589 40.84V35.16C150.589 34.36 150.248 33.96 149.565 33.96C149.128 33.96 148.771 34.1413 148.493 34.504C148.216 34.856 148.077 35.4053 148.077 36.152V40.84C148.077 40.9467 148.024 41 147.917 41H145.773C145.667 41 145.613 40.9467 145.613 40.84V35.16C145.613 34.36 145.272 33.96 144.589 33.96C144.152 33.96 143.795 34.1413 143.517 34.504C143.24 34.856 143.101 35.4053 143.101 36.152V40.84C143.101 40.8827 143.085 40.92 143.053 40.952C143.021 40.984 142.979 41 142.925 41H140.797ZM154.204 41C154.161 41 154.124 40.984 154.092 40.952C154.06 40.92 154.044 40.8827 154.044 40.84V34.552C154.044 33.976 154.017 33.5493 153.964 33.272C153.921 32.9947 153.836 32.696 153.708 32.376L153.692 32.312C153.692 32.2373 153.74 32.2 153.836 32.2H156.348C156.39 32.2 156.428 32.216 156.46 32.248C156.492 32.28 156.508 32.3173 156.508 32.36V40.84C156.508 40.8827 156.492 40.92 156.46 40.952C156.428 40.984 156.39 41 156.348 41H154.204ZM155.26 31.8C154.865 31.8 154.534 31.7147 154.268 31.544C154.001 31.3733 153.868 31.1227 153.868 30.792C153.868 30.4507 153.996 30.2 154.252 30.04C154.518 29.88 154.854 29.8 155.26 29.8C155.676 29.8 156.017 29.88 156.284 30.04C156.55 30.2 156.684 30.4507 156.684 30.792C156.684 31.1227 156.545 31.3733 156.268 31.544C156.001 31.7147 155.665 31.8 155.26 31.8ZM157.719 41C157.613 41 157.559 40.9467 157.559 40.84V32.152C157.559 31.576 157.533 31.1493 157.479 30.872C157.437 30.5947 157.351 30.296 157.223 29.976L157.207 29.912C157.207 29.8373 157.255 29.8 157.351 29.8H159.863C159.97 29.8 160.023 29.8533 160.023 29.96V40.84C160.023 40.9467 159.97 41 159.863 41H157.719ZM161.235 41C161.128 41 161.075 40.9467 161.075 40.84V32.152C161.075 31.576 161.048 31.1493 160.995 30.872C160.952 30.5947 160.867 30.296 160.739 29.976L160.723 29.912C160.723 29.8373 160.771 29.8 160.867 29.8H163.379C163.486 29.8 163.539 29.8533 163.539 29.96V36.024C163.539 36.1093 163.566 36.152 163.619 36.152C163.672 36.152 163.71 36.1253 163.731 36.072L165.747 33.144C165.854 32.9733 165.907 32.8133 165.907 32.664C165.907 32.568 165.891 32.488 165.859 32.424C165.848 32.4027 165.843 32.376 165.843 32.344C165.843 32.248 165.886 32.2 165.971 32.2H168.979C169.064 32.2 169.107 32.2373 169.107 32.312C169.107 32.3653 169.08 32.408 169.027 32.44C168.792 32.6 168.579 32.8293 168.387 33.128L166.451 35.976C166.334 36.1467 166.275 36.2853 166.275 36.392C166.275 36.5093 166.328 36.6427 166.435 36.792L169.091 40.808C169.112 40.8293 169.123 40.8613 169.123 40.904C169.123 40.968 169.075 41 168.979 41H166.371C166.286 41 166.222 40.9627 166.179 40.888L163.731 36.92C163.688 36.856 163.651 36.824 163.619 36.824C163.566 36.824 163.539 36.872 163.539 36.968V40.84C163.539 40.9467 163.486 41 163.379 41H161.235ZM170.42 33.736C170.164 33.736 169.961 33.6987 169.812 33.624C169.662 33.5387 169.588 33.4213 169.588 33.272V32.648C169.588 32.6053 169.598 32.5787 169.62 32.568C169.652 32.5467 169.684 32.5467 169.715 32.568C169.833 32.6533 169.945 32.7173 170.052 32.76C170.169 32.8027 170.318 32.824 170.5 32.824C170.745 32.824 170.942 32.7653 171.092 32.648C171.241 32.52 171.316 32.3653 171.316 32.184C171.316 32.12 171.3 32.0773 171.268 32.056C171.236 32.024 171.188 32.008 171.124 32.008H170.82C170.436 32.008 170.132 31.912 169.908 31.72C169.684 31.5173 169.572 31.2347 169.572 30.872C169.572 30.5307 169.678 30.2427 169.892 30.008C170.116 29.7627 170.436 29.64 170.852 29.64C171.342 29.64 171.716 29.8 171.972 30.12C172.228 30.44 172.356 30.8933 172.356 31.48C172.356 32.1947 172.18 32.7493 171.828 33.144C171.476 33.5387 171.006 33.736 170.42 33.736ZM175.83 41.16C174.742 41.16 173.932 41.0213 173.398 40.744C172.876 40.4667 172.614 40.0667 172.614 39.544V38.056C172.614 37.9493 172.652 37.896 172.726 37.896C172.769 37.896 172.817 37.9227 172.87 37.976C173.201 38.36 173.596 38.6853 174.054 38.952C174.513 39.2187 175.004 39.352 175.526 39.352C176.316 39.352 176.71 39.0533 176.71 38.456C176.71 38.232 176.636 38.0613 176.486 37.944C176.337 37.816 176.07 37.7093 175.686 37.624L174.79 37.416C174.054 37.2453 173.505 36.952 173.142 36.536C172.79 36.1093 172.614 35.5547 172.614 34.872C172.614 34.0187 172.934 33.336 173.574 32.824C174.225 32.3013 175.116 32.04 176.246 32.04C178.017 32.04 178.902 32.5893 178.902 33.688V35.016C178.902 35.1013 178.865 35.144 178.79 35.144C178.737 35.144 178.694 35.1173 178.662 35.064C178.385 34.6373 178.038 34.328 177.622 34.136C177.206 33.9333 176.769 33.832 176.31 33.832C175.916 33.832 175.612 33.912 175.398 34.072C175.185 34.2213 175.078 34.4293 175.078 34.696C175.078 34.9413 175.148 35.128 175.286 35.256C175.436 35.384 175.67 35.48 175.99 35.544L176.966 35.736C177.713 35.8853 178.273 36.168 178.646 36.584C179.03 36.9893 179.222 37.5227 179.222 38.184C179.222 39.0907 178.913 39.816 178.294 40.36C177.686 40.8933 176.865 41.16 175.83 41.16ZM182.867 41C182.76 41 182.707 40.9467 182.707 40.84V32.152C182.707 31.576 182.68 31.1493 182.627 30.872C182.584 30.5947 182.499 30.296 182.371 29.976L182.355 29.912C182.355 29.8373 182.403 29.8 182.499 29.8H185.683C185.779 29.8 185.843 29.8373 185.875 29.912L189.027 36.872C189.059 36.936 189.096 36.968 189.139 36.968C189.214 36.968 189.251 36.9147 189.251 36.808V32.152C189.251 31.576 189.224 31.1493 189.171 30.872C189.128 30.5947 189.043 30.296 188.915 29.976L188.899 29.912C188.899 29.8373 188.947 29.8 189.043 29.8H191.891C191.944 29.8 191.982 29.816 192.003 29.848C192.035 29.88 192.04 29.9227 192.019 29.976C191.891 30.296 191.8 30.5947 191.747 30.872C191.704 31.1493 191.683 31.576 191.683 32.152V40.84C191.683 40.9467 191.63 41 191.523 41H188.707C188.622 41 188.558 40.9627 188.515 40.888L185.347 33.912C185.326 33.8587 185.294 33.832 185.251 33.832C185.176 33.832 185.139 33.88 185.139 33.976V40.84C185.139 40.9467 185.086 41 184.979 41H182.867ZM196.58 42.92C195.95 42.92 195.358 42.8507 194.804 42.712C194.26 42.584 193.838 42.408 193.54 42.184C193.316 42.024 193.204 41.8 193.204 41.512V40.056C193.204 39.9493 193.246 39.896 193.332 39.896C193.374 39.896 193.422 39.9227 193.476 39.976C193.86 40.328 194.286 40.6 194.756 40.792C195.225 40.9733 195.78 41.064 196.42 41.064C197.092 41.064 197.63 40.888 198.036 40.536C198.452 40.184 198.66 39.72 198.66 39.144V38.952C198.66 38.888 198.633 38.856 198.58 38.856C198.537 38.856 198.5 38.8773 198.468 38.92C198.254 39.2293 197.961 39.496 197.588 39.72C197.214 39.9333 196.75 40.04 196.196 40.04C195.513 40.04 194.9 39.88 194.356 39.56C193.822 39.24 193.401 38.7813 193.092 38.184C192.793 37.576 192.644 36.8613 192.644 36.04C192.644 35.2187 192.793 34.5093 193.092 33.912C193.401 33.304 193.822 32.84 194.356 32.52C194.9 32.2 195.513 32.04 196.196 32.04C197.198 32.04 197.961 32.408 198.484 33.144C198.516 33.1973 198.553 33.224 198.596 33.224C198.628 33.224 198.654 33.2133 198.676 33.192C198.697 33.16 198.708 33.1227 198.708 33.08V32.36C198.708 32.2533 198.761 32.2 198.868 32.2H200.996C201.049 32.2 201.092 32.216 201.124 32.248C201.156 32.28 201.172 32.3173 201.172 32.36V38.68C201.172 40.088 200.761 41.144 199.94 41.848C199.118 42.5627 197.998 42.92 196.58 42.92ZM196.9 37.928C197.444 37.928 197.87 37.7573 198.18 37.416C198.5 37.064 198.66 36.6053 198.66 36.04C198.66 35.4533 198.5 34.9787 198.18 34.616C197.87 34.2533 197.444 34.072 196.9 34.072C196.356 34.072 195.924 34.2533 195.604 34.616C195.294 34.9787 195.14 35.4533 195.14 36.04C195.14 36.6053 195.294 37.064 195.604 37.416C195.924 37.7573 196.356 37.928 196.9 37.928ZM202.391 41C202.348 41 202.311 40.984 202.279 40.952C202.247 40.92 202.231 40.8827 202.231 40.84V32.152C202.231 31.576 202.204 31.1493 202.151 30.872C202.108 30.5947 202.023 30.296 201.895 29.976L201.879 29.912C201.879 29.8373 201.927 29.8 202.023 29.8H204.535C204.578 29.8 204.615 29.816 204.647 29.848C204.679 29.88 204.695 29.9173 204.695 29.96V33.24C204.695 33.2827 204.7 33.32 204.711 33.352C204.722 33.3733 204.738 33.384 204.759 33.384C204.802 33.384 204.844 33.3467 204.887 33.272C205.122 32.888 205.399 32.5893 205.719 32.376C206.05 32.152 206.535 32.04 207.175 32.04C208.124 32.04 208.839 32.3173 209.319 32.872C209.799 33.4267 210.039 34.1627 210.039 35.08V40.84C210.039 40.8827 210.023 40.92 209.991 40.952C209.959 40.984 209.922 41 209.879 41H207.735C207.692 41 207.655 40.984 207.623 40.952C207.591 40.92 207.575 40.8827 207.575 40.84V35.304C207.575 34.856 207.458 34.52 207.223 34.296C206.988 34.072 206.684 33.96 206.311 33.96C205.788 33.96 205.388 34.1467 205.111 34.52C204.834 34.8933 204.695 35.4267 204.695 36.12V40.84C204.695 40.8827 204.679 40.92 204.647 40.952C204.615 40.984 204.578 41 204.535 41H202.391ZM215.396 41.16C214.425 41.16 213.583 40.9787 212.868 40.616C212.153 40.2533 211.599 39.7307 211.204 39.048C210.82 38.3547 210.628 37.528 210.628 36.568C210.628 35.5973 210.825 34.7707 211.22 34.088C211.615 33.4053 212.137 32.8933 212.788 32.552C213.439 32.2107 214.143 32.04 214.9 32.04C216.127 32.04 217.087 32.3867 217.78 33.08C218.473 33.7627 218.82 34.712 218.82 35.928C218.82 36.1307 218.815 36.2853 218.804 36.392C218.783 36.7227 218.735 36.9627 218.66 37.112C218.596 37.2613 218.489 37.3627 218.34 37.416C218.201 37.4587 217.972 37.48 217.652 37.48H213.38C213.305 37.48 213.257 37.496 213.236 37.528C213.215 37.5493 213.209 37.5867 213.22 37.64C213.284 38.0667 213.524 38.4133 213.94 38.68C214.367 38.936 214.943 39.064 215.668 39.064C216.116 39.064 216.548 39.0107 216.964 38.904C217.391 38.7973 217.759 38.632 218.068 38.408C218.1 38.3867 218.137 38.376 218.18 38.376C218.244 38.376 218.276 38.4133 218.276 38.488V39.992C218.276 40.2053 218.244 40.3707 218.18 40.488C218.116 40.5947 217.993 40.6907 217.812 40.776C217.3 41.032 216.495 41.16 215.396 41.16ZM216.132 35.848C216.26 35.848 216.345 35.816 216.388 35.752C216.441 35.6773 216.468 35.5653 216.468 35.416C216.468 34.968 216.324 34.6213 216.036 34.376C215.748 34.12 215.364 33.992 214.884 33.992C214.404 33.992 214.009 34.1307 213.7 34.408C213.391 34.6853 213.236 35.032 213.236 35.448C213.236 35.7147 213.348 35.848 213.572 35.848H216.132ZM221.585 41C221.521 41 221.473 40.984 221.441 40.952C221.409 40.9093 221.404 40.8507 221.425 40.776L224.769 30.072C224.823 29.8907 224.94 29.8 225.121 29.8H228.129C228.311 29.8 228.428 29.8907 228.481 30.072L231.841 40.776C231.852 40.7973 231.857 40.824 231.857 40.856C231.857 40.952 231.799 41 231.681 41H229.361C229.255 41 229.185 40.9467 229.153 40.84L228.705 39.256C228.684 39.1707 228.625 39.128 228.529 39.128H224.561C224.465 39.128 224.407 39.1707 224.385 39.256L223.937 40.84C223.905 40.9467 223.836 41 223.729 41H221.585ZM227.921 37.08C227.975 37.08 228.012 37.064 228.033 37.032C228.065 37 228.076 36.9573 228.065 36.904L226.705 32.232C226.673 32.1147 226.62 32.056 226.545 32.056C226.471 32.056 226.417 32.1147 226.385 32.232L225.025 36.904L225.009 36.952C225.009 37.0373 225.063 37.08 225.169 37.08H227.921ZM232.547 41C232.505 41 232.467 40.984 232.435 40.952C232.403 40.92 232.387 40.8827 232.387 40.84V34.552C232.387 33.976 232.361 33.5493 232.307 33.272C232.265 32.9947 232.179 32.696 232.051 32.376L232.035 32.312C232.035 32.2373 232.083 32.2 232.179 32.2H234.579C234.622 32.2 234.659 32.216 234.691 32.248C234.723 32.28 234.739 32.3173 234.739 32.36V33.304C234.739 33.4 234.766 33.448 234.819 33.448C234.862 33.448 234.899 33.4107 234.931 33.336C235.379 32.472 236.179 32.04 237.331 32.04C238.281 32.04 238.995 32.3173 239.475 32.872C239.955 33.4267 240.195 34.1627 240.195 35.08V40.84C240.195 40.8827 240.179 40.92 240.147 40.952C240.115 40.984 240.078 41 240.035 41H237.891C237.849 41 237.811 40.984 237.779 40.952C237.747 40.92 237.731 40.8827 237.731 40.84V35.304C237.731 34.856 237.614 34.52 237.379 34.296C237.145 34.072 236.841 33.96 236.467 33.96C235.945 33.96 235.545 34.1467 235.267 34.52C234.99 34.8933 234.851 35.4267 234.851 36.12V40.84C234.851 40.8827 234.835 40.92 234.803 40.952C234.771 40.984 234.734 41 234.691 41H232.547ZM244.086 41C243.979 41 243.926 40.9467 243.926 40.84V32.152C243.926 31.576 243.899 31.1493 243.846 30.872C243.803 30.5947 243.718 30.296 243.59 29.976L243.574 29.912C243.574 29.8373 243.622 29.8 243.718 29.8H248.086C249.334 29.8 250.39 30.0453 251.254 30.536C252.118 31.0267 252.768 31.6933 253.206 32.536C253.643 33.3787 253.867 34.3333 253.878 35.4C253.867 36.4667 253.643 37.4213 253.206 38.264C252.768 39.1067 252.118 39.7733 251.254 40.264C250.39 40.7547 249.334 41 248.086 41H244.086ZM247.926 38.808C248.651 38.808 249.264 38.6587 249.766 38.36C250.267 38.0507 250.646 37.64 250.902 37.128C251.158 36.6053 251.286 36.0293 251.286 35.4C251.286 34.7707 251.158 34.2 250.902 33.688C250.646 33.1653 250.267 32.7547 249.766 32.456C249.264 32.1467 248.651 31.992 247.926 31.992H246.614C246.507 31.992 246.454 32.0453 246.454 32.152V38.648C246.454 38.7547 246.507 38.808 246.614 38.808H247.926ZM257.133 41.16C256.301 41.16 255.634 40.9413 255.133 40.504C254.642 40.056 254.397 39.4213 254.397 38.6C254.397 37.864 254.615 37.288 255.053 36.872C255.501 36.456 256.215 36.1573 257.197 35.976L258.589 35.72C258.909 35.656 259.127 35.5707 259.245 35.464C259.373 35.3467 259.437 35.2027 259.437 35.032C259.437 34.744 259.309 34.5147 259.053 34.344C258.807 34.1627 258.445 34.072 257.965 34.072C257.346 34.072 256.813 34.2267 256.365 34.536C255.917 34.8347 255.501 35.224 255.117 35.704C255.074 35.768 255.026 35.8 254.973 35.8C254.919 35.8 254.893 35.752 254.893 35.656V33.912C254.893 33.3147 255.223 32.856 255.885 32.536C256.557 32.2053 257.373 32.04 258.333 32.04C259.559 32.04 260.445 32.3067 260.989 32.84C261.533 33.3627 261.805 34.04 261.805 34.872V40.84C261.805 40.8827 261.789 40.92 261.757 40.952C261.725 40.984 261.693 41 261.661 41H259.629C259.597 41 259.559 40.984 259.517 40.952C259.485 40.92 259.469 40.8827 259.469 40.84V40.04C259.469 39.9973 259.453 39.976 259.421 39.976C259.378 39.976 259.341 40.0027 259.309 40.056C259.063 40.4507 258.759 40.7333 258.397 40.904C258.045 41.0747 257.623 41.16 257.133 41.16ZM258.029 39.416C258.466 39.416 258.807 39.272 259.053 38.984C259.309 38.696 259.437 38.3067 259.437 37.816V37.192C259.437 37.064 259.373 37.0107 259.245 37.032L258.253 37.208C257.346 37.3787 256.893 37.7627 256.893 38.36C256.893 38.7013 256.994 38.9627 257.197 39.144C257.399 39.3253 257.677 39.416 258.029 39.416ZM263.001 41C262.958 41 262.921 40.984 262.889 40.952C262.857 40.92 262.84 40.8827 262.84 40.84V34.552C262.84 33.976 262.814 33.5493 262.761 33.272C262.718 32.9947 262.633 32.696 262.505 32.376L262.489 32.312C262.489 32.2373 262.537 32.2 262.633 32.2H265.145C265.187 32.2 265.225 32.216 265.257 32.248C265.289 32.28 265.305 32.3173 265.305 32.36V40.84C265.305 40.8827 265.289 40.92 265.257 40.952C265.225 40.984 265.187 41 265.145 41H263.001ZM264.057 31.8C263.662 31.8 263.331 31.7147 263.065 31.544C262.798 31.3733 262.665 31.1227 262.665 30.792C262.665 30.4507 262.793 30.2 263.049 30.04C263.315 29.88 263.651 29.8 264.057 29.8C264.473 29.8 264.814 29.88 265.081 30.04C265.347 30.2 265.481 30.4507 265.481 30.792C265.481 31.1227 265.342 31.3733 265.065 31.544C264.798 31.7147 264.462 31.8 264.057 31.8ZM266.516 41C266.473 41 266.436 40.984 266.404 40.952C266.372 40.92 266.356 40.8827 266.356 40.84V34.552C266.356 33.976 266.329 33.5493 266.276 33.272C266.233 32.9947 266.148 32.696 266.02 32.376L266.004 32.312C266.004 32.2373 266.052 32.2 266.148 32.2H268.532C268.585 32.2 268.628 32.216 268.66 32.248C268.692 32.28 268.708 32.3173 268.708 32.36V33.672C268.708 33.7253 268.724 33.752 268.756 33.752C268.799 33.752 268.825 33.7253 268.836 33.672C269.156 32.584 269.823 32.04 270.836 32.04C271.263 32.04 271.476 32.1147 271.476 32.264V34.568C271.476 34.664 271.423 34.696 271.316 34.664C271.124 34.6 270.905 34.568 270.66 34.568C270.041 34.568 269.577 34.7227 269.268 35.032C268.969 35.3413 268.82 35.8107 268.82 36.44V40.84C268.82 40.9467 268.767 41 268.66 41H266.516ZM274.693 42.84C273.946 42.84 273.429 42.7973 273.141 42.712C272.896 42.6373 272.773 42.4613 272.773 42.184V40.888C272.773 40.7387 272.848 40.6907 272.997 40.744C273.136 40.7867 273.349 40.8293 273.637 40.872C273.936 40.9147 274.234 40.936 274.533 40.936C274.821 40.936 274.965 40.8507 274.965 40.68C274.965 40.6267 274.917 40.456 274.821 40.168L272.773 34.072C272.624 33.624 272.485 33.288 272.357 33.064C272.24 32.84 272.096 32.632 271.925 32.44C271.893 32.408 271.877 32.3707 271.877 32.328C271.877 32.2427 271.925 32.2 272.021 32.2H275.109C275.205 32.2 275.269 32.2213 275.301 32.264C275.333 32.3067 275.328 32.36 275.285 32.424C275.157 32.616 275.093 32.8453 275.093 33.112C275.093 33.3467 275.141 33.64 275.237 33.992L276.341 37.944C276.373 38.0507 276.426 38.104 276.501 38.104C276.586 38.104 276.64 38.0507 276.661 37.944L277.749 33.752C277.813 33.5067 277.845 33.2987 277.845 33.128C277.845 32.8613 277.776 32.6267 277.637 32.424C277.616 32.3813 277.605 32.3493 277.605 32.328C277.605 32.2427 277.674 32.2 277.813 32.2H280.741C280.837 32.2 280.885 32.2427 280.885 32.328C280.885 32.3707 280.869 32.408 280.837 32.44C280.666 32.6427 280.517 32.8507 280.389 33.064C280.272 33.2773 280.144 33.6027 280.005 34.04L277.925 40.616C277.669 41.4373 277.29 42.0133 276.789 42.344C276.298 42.6747 275.6 42.84 274.693 42.84ZM284.398 41C284.292 41 284.238 40.9467 284.238 40.84V32.152C284.238 31.576 284.212 31.1493 284.158 30.872C284.116 30.5947 284.03 30.296 283.902 29.976L283.886 29.912C283.886 29.8373 283.934 29.8 284.03 29.8H291.31C291.417 29.8 291.47 29.8533 291.47 29.96V32.104C291.47 32.2213 291.401 32.2587 291.262 32.216C290.868 32.0987 290.51 32.0187 290.19 31.976C289.87 31.9333 289.422 31.912 288.846 31.912H286.926C286.82 31.912 286.766 31.9653 286.766 32.072V34.376C286.766 34.4827 286.82 34.536 286.926 34.536H290.686C290.793 34.536 290.846 34.5893 290.846 34.696V36.6C290.846 36.7067 290.793 36.76 290.686 36.76H286.926C286.82 36.76 286.766 36.8133 286.766 36.92V40.84C286.766 40.9467 286.713 41 286.606 41H284.398ZM294.289 41.16C293.457 41.16 292.79 40.9413 292.289 40.504C291.798 40.056 291.553 39.4213 291.553 38.6C291.553 37.864 291.772 37.288 292.209 36.872C292.657 36.456 293.372 36.1573 294.353 35.976L295.745 35.72C296.065 35.656 296.284 35.5707 296.401 35.464C296.529 35.3467 296.593 35.2027 296.593 35.032C296.593 34.744 296.465 34.5147 296.209 34.344C295.964 34.1627 295.601 34.072 295.121 34.072C294.502 34.072 293.969 34.2267 293.521 34.536C293.073 34.8347 292.657 35.224 292.273 35.704C292.23 35.768 292.182 35.8 292.129 35.8C292.076 35.8 292.049 35.752 292.049 35.656V33.912C292.049 33.3147 292.38 32.856 293.041 32.536C293.713 32.2053 294.529 32.04 295.489 32.04C296.716 32.04 297.601 32.3067 298.145 32.84C298.689 33.3627 298.961 34.04 298.961 34.872V40.84C298.961 40.8827 298.945 40.92 298.913 40.952C298.881 40.984 298.849 41 298.817 41H296.785C296.753 41 296.716 40.984 296.673 40.952C296.641 40.92 296.625 40.8827 296.625 40.84V40.04C296.625 39.9973 296.609 39.976 296.577 39.976C296.534 39.976 296.497 40.0027 296.465 40.056C296.22 40.4507 295.916 40.7333 295.553 40.904C295.201 41.0747 294.78 41.16 294.289 41.16ZM295.185 39.416C295.622 39.416 295.964 39.272 296.209 38.984C296.465 38.696 296.593 38.3067 296.593 37.816V37.192C296.593 37.064 296.529 37.0107 296.401 37.032L295.409 37.208C294.502 37.3787 294.049 37.7627 294.049 38.36C294.049 38.7013 294.15 38.9627 294.353 39.144C294.556 39.3253 294.833 39.416 295.185 39.416ZM304.397 41.16C303.522 41.16 302.717 40.984 301.981 40.632C301.255 40.28 300.674 39.7627 300.237 39.08C299.81 38.3973 299.597 37.5707 299.597 36.6C299.597 35.6293 299.81 34.8027 300.237 34.12C300.674 33.4373 301.255 32.92 301.981 32.568C302.717 32.216 303.522 32.04 304.397 32.04C305.047 32.04 305.581 32.12 305.997 32.28C306.413 32.44 306.621 32.648 306.621 32.904V34.808C306.621 34.9147 306.573 34.968 306.477 34.968C306.434 34.968 306.391 34.9467 306.349 34.904C306.157 34.6907 305.901 34.5253 305.581 34.408C305.271 34.28 304.93 34.216 304.557 34.216C303.767 34.216 303.159 34.4347 302.733 34.872C302.306 35.3093 302.093 35.8853 302.093 36.6C302.093 37.3147 302.317 37.8907 302.765 38.328C303.213 38.7653 303.837 38.984 304.637 38.984C304.967 38.984 305.287 38.9413 305.597 38.856C305.917 38.76 306.183 38.648 306.397 38.52C306.418 38.4987 306.455 38.488 306.509 38.488C306.583 38.488 306.621 38.5307 306.621 38.616V40.296C306.621 40.552 306.413 40.76 305.997 40.92C305.581 41.08 305.047 41.16 304.397 41.16ZM311.496 41.16C310.525 41.16 309.805 40.8987 309.336 40.376C308.866 39.8427 308.632 39.1067 308.632 38.168V34.264C308.632 34.2 308.6 34.168 308.536 34.168H307.368C307.282 34.168 307.24 34.1253 307.24 34.04V32.328C307.24 32.2427 307.282 32.2 307.368 32.2H308.536C308.6 32.2 308.632 32.168 308.632 32.104V30.136C308.632 30.0293 308.685 29.976 308.792 29.976H310.888C310.984 29.976 311.032 30.0293 311.032 30.136L310.936 32.104C310.936 32.168 310.968 32.2 311.032 32.2H313.448C313.533 32.2 313.576 32.2427 313.576 32.328V34.04C313.576 34.1253 313.533 34.168 313.448 34.168H311.08C311.016 34.168 310.984 34.2 310.984 34.264V37.768C310.984 38.6107 311.362 39.032 312.12 39.032C312.333 39.032 312.525 38.9947 312.696 38.92C312.877 38.8347 313.096 38.6853 313.352 38.472C313.384 38.44 313.416 38.424 313.448 38.424C313.501 38.424 313.528 38.4613 313.528 38.536V40.2C313.528 40.5413 313.325 40.7867 312.92 40.936C312.514 41.0853 312.04 41.16 311.496 41.16ZM318.216 41.16C317.373 41.16 316.616 40.968 315.944 40.584C315.272 40.1893 314.744 39.6453 314.36 38.952C313.987 38.2587 313.8 37.4747 313.8 36.6C313.8 35.7253 313.987 34.9413 314.36 34.248C314.744 33.5547 315.272 33.016 315.944 32.632C316.616 32.2373 317.373 32.04 318.216 32.04C319.059 32.04 319.816 32.2373 320.488 32.632C321.16 33.016 321.683 33.5547 322.056 34.248C322.44 34.9413 322.632 35.7253 322.632 36.6C322.632 37.4747 322.44 38.2587 322.056 38.952C321.683 39.6453 321.16 40.1893 320.488 40.584C319.816 40.968 319.059 41.16 318.216 41.16ZM318.216 38.984C318.792 38.984 319.256 38.7653 319.608 38.328C319.96 37.8907 320.136 37.3147 320.136 36.6C320.136 35.8853 319.96 35.3093 319.608 34.872C319.256 34.4347 318.792 34.216 318.216 34.216C317.64 34.216 317.176 34.4347 316.824 34.872C316.472 35.3093 316.296 35.8853 316.296 36.6C316.296 37.3147 316.472 37.8907 316.824 38.328C317.176 38.7653 317.64 38.984 318.216 38.984ZM323.454 41C323.411 41 323.374 40.984 323.342 40.952C323.31 40.92 323.294 40.8827 323.294 40.84V34.552C323.294 33.976 323.267 33.5493 323.214 33.272C323.171 32.9947 323.086 32.696 322.958 32.376L322.942 32.312C322.942 32.2373 322.99 32.2 323.086 32.2H325.47C325.523 32.2 325.566 32.216 325.598 32.248C325.63 32.28 325.646 32.3173 325.646 32.36V33.672C325.646 33.7253 325.662 33.752 325.694 33.752C325.736 33.752 325.763 33.7253 325.774 33.672C326.094 32.584 326.76 32.04 327.774 32.04C328.2 32.04 328.414 32.1147 328.414 32.264V34.568C328.414 34.664 328.36 34.696 328.254 34.664C328.062 34.6 327.843 34.568 327.598 34.568C326.979 34.568 326.515 34.7227 326.206 35.032C325.907 35.3413 325.758 35.8107 325.758 36.44V40.84C325.758 40.9467 325.704 41 325.598 41H323.454ZM331.63 42.84C330.884 42.84 330.366 42.7973 330.078 42.712C329.833 42.6373 329.71 42.4613 329.71 42.184V40.888C329.71 40.7387 329.785 40.6907 329.934 40.744C330.073 40.7867 330.286 40.8293 330.574 40.872C330.873 40.9147 331.172 40.936 331.47 40.936C331.758 40.936 331.902 40.8507 331.902 40.68C331.902 40.6267 331.854 40.456 331.758 40.168L329.71 34.072C329.561 33.624 329.422 33.288 329.294 33.064C329.177 32.84 329.033 32.632 328.862 32.44C328.83 32.408 328.814 32.3707 328.814 32.328C328.814 32.2427 328.862 32.2 328.958 32.2H332.046C332.142 32.2 332.206 32.2213 332.238 32.264C332.27 32.3067 332.265 32.36 332.222 32.424C332.094 32.616 332.03 32.8453 332.03 33.112C332.03 33.3467 332.078 33.64 332.174 33.992L333.278 37.944C333.31 38.0507 333.364 38.104 333.438 38.104C333.524 38.104 333.577 38.0507 333.598 37.944L334.686 33.752C334.75 33.5067 334.782 33.2987 334.782 33.128C334.782 32.8613 334.713 32.6267 334.574 32.424C334.553 32.3813 334.542 32.3493 334.542 32.328C334.542 32.2427 334.612 32.2 334.75 32.2H337.678C337.774 32.2 337.822 32.2427 337.822 32.328C337.822 32.3707 337.806 32.408 337.774 32.44C337.604 32.6427 337.454 32.8507 337.326 33.064C337.209 33.2773 337.081 33.6027 336.942 34.04L334.862 40.616C334.606 41.4373 334.228 42.0133 333.726 42.344C333.236 42.6747 332.537 42.84 331.63 42.84ZM339.478 34.536C339.062 34.536 338.731 34.4187 338.486 34.184C338.24 33.9493 338.118 33.6507 338.118 33.288C338.118 32.936 338.24 32.6427 338.486 32.408C338.731 32.1627 339.062 32.04 339.478 32.04C339.894 32.04 340.224 32.1627 340.47 32.408C340.715 32.6427 340.838 32.936 340.838 33.288C340.838 33.6507 340.715 33.9493 340.47 34.184C340.224 34.4187 339.894 34.536 339.478 34.536ZM339.478 41.16C339.062 41.16 338.731 41.0427 338.486 40.808C338.24 40.5733 338.118 40.2747 338.118 39.912C338.118 39.56 338.24 39.2667 338.486 39.032C338.731 38.7867 339.062 38.664 339.478 38.664C339.894 38.664 340.224 38.7867 340.47 39.032C340.715 39.2667 340.838 39.56 340.838 39.912C340.838 40.2747 340.715 40.5733 340.47 40.808C340.224 41.0427 339.894 41.16 339.478 41.16Z" fill="white"/>
<path d="M113.684 70.28C110.128 70.28 108.028 67.228 108.028 60.2C108.028 53.172 110.128 50.12 113.684 50.12C114.58 50.12 115.504 50.344 116.148 50.848C116.708 51.296 116.82 51.856 116.82 52.528V54.852C116.82 55.272 116.652 55.468 116.4 55.468C116.092 55.468 115.896 55.216 115.644 54.908C115.364 54.572 115 54.208 114.384 54.208C112.984 54.208 112.284 55.972 112.284 60.2C112.284 64.428 112.984 66.192 114.384 66.192C115 66.192 115.364 65.828 115.644 65.492C115.896 65.184 116.064 64.932 116.372 64.932C116.624 64.932 116.82 65.128 116.82 65.548V67.872C116.82 68.544 116.708 69.104 116.148 69.552C115.504 70.056 114.58 70.28 113.684 70.28ZM122.812 70.28C119.48 70.28 117.38 67.788 117.38 60.2C117.38 52.612 119.48 50.12 122.812 50.12C126.144 50.12 128.272 52.612 128.272 60.2C128.272 67.788 126.144 70.28 122.812 70.28ZM122.812 66.36C123.456 66.36 123.988 65.632 123.988 60.2C123.988 54.74 123.456 54.04 122.812 54.04C122.168 54.04 121.664 54.74 121.664 60.2C121.664 65.632 122.168 66.36 122.812 66.36ZM129.98 70C129.616 70 129.42 69.804 129.42 69.44V54.796C129.42 52.388 129.336 51.996 129.084 50.82C129.028 50.568 129.168 50.4 129.42 50.4H134.46C135.076 50.4 135.3 50.568 135.356 51.212L136.14 59.948C136.168 60.172 136.252 60.256 136.392 60.256C136.532 60.256 136.644 60.172 136.672 59.948L137.456 51.212C137.512 50.568 137.736 50.4 138.352 50.4H143.588C143.84 50.4 143.98 50.568 143.924 50.82C143.672 51.996 143.588 52.388 143.588 54.796V69.44C143.588 69.804 143.392 70 143.028 70H140.312C139.948 70 139.752 69.804 139.752 69.44C139.752 65.492 139.808 61.124 139.864 56.896C139.864 56.7 139.808 56.56 139.612 56.56C139.472 56.56 139.36 56.644 139.332 56.868L137.792 69.468C137.736 69.832 137.512 70 137.176 70H135.552C135.216 70 134.992 69.832 134.936 69.468L133.396 56.84C133.368 56.644 133.284 56.56 133.116 56.56C132.92 56.56 132.864 56.728 132.864 56.896C132.92 61.124 132.976 65.492 132.976 69.44C132.976 69.804 132.78 70 132.416 70H129.98ZM145.648 70C145.284 70 145.088 69.804 145.088 69.44V54.796C145.088 52.388 145.004 51.996 144.752 50.82C144.696 50.568 144.836 50.4 145.088 50.4H150.128C150.744 50.4 150.968 50.568 151.024 51.212L151.808 59.948C151.836 60.172 151.92 60.256 152.06 60.256C152.2 60.256 152.312 60.172 152.34 59.948L153.124 51.212C153.18 50.568 153.404 50.4 154.02 50.4H159.256C159.508 50.4 159.648 50.568 159.592 50.82C159.34 51.996 159.256 52.388 159.256 54.796V69.44C159.256 69.804 159.06 70 158.696 70H155.98C155.616 70 155.42 69.804 155.42 69.44C155.42 65.492 155.476 61.124 155.532 56.896C155.532 56.7 155.476 56.56 155.28 56.56C155.14 56.56 155.028 56.644 155 56.868L153.46 69.468C153.404 69.832 153.18 70 152.844 70H151.22C150.884 70 150.66 69.832 150.604 69.468L149.064 56.84C149.036 56.644 148.952 56.56 148.784 56.56C148.588 56.56 148.532 56.728 148.532 56.896C148.588 61.124 148.644 65.492 148.644 69.44C148.644 69.804 148.448 70 148.084 70H145.648ZM161.316 70C160.952 70 160.756 69.804 160.756 69.44V54.796C160.756 52.388 160.672 51.996 160.42 50.82C160.364 50.568 160.504 50.4 160.756 50.4H164.816C165.068 50.4 165.208 50.568 165.152 50.82C164.9 51.996 164.816 52.388 164.816 54.796V69.44C164.816 69.804 164.62 70 164.256 70H161.316ZM169.134 70C168.77 70 168.574 69.804 168.574 69.44V54.46C168.574 54.208 168.462 53.984 168.042 53.984C167.594 53.984 167.314 54.208 166.558 54.824C166.166 55.132 165.802 55.244 165.802 54.768V50.96C165.802 50.596 165.998 50.4 166.362 50.4H174.846C175.21 50.4 175.406 50.596 175.406 50.96V54.768C175.406 55.244 175.042 55.132 174.65 54.824C173.894 54.208 173.614 53.984 173.166 53.984C172.746 53.984 172.634 54.208 172.634 54.46V69.44C172.634 69.804 172.438 70 172.074 70H169.134ZM179.197 70C178.833 70 178.637 69.804 178.637 69.44V54.46C178.637 54.208 178.525 53.984 178.105 53.984C177.657 53.984 177.377 54.208 176.621 54.824C176.229 55.132 175.865 55.244 175.865 54.768V50.96C175.865 50.596 176.061 50.4 176.425 50.4H184.909C185.273 50.4 185.469 50.596 185.469 50.96V54.768C185.469 55.244 185.105 55.132 184.713 54.824C183.957 54.208 183.677 53.984 183.229 53.984C182.809 53.984 182.697 54.208 182.697 54.46V69.44C182.697 69.804 182.501 70 182.137 70H179.197ZM187.019 70C186.655 70 186.459 69.804 186.459 69.44V55.076C186.459 52.668 186.375 51.996 186.123 50.82C186.067 50.568 186.207 50.4 186.459 50.4H193.907C194.075 50.4 194.187 50.512 194.187 50.68V54.572C194.187 54.88 193.935 54.936 193.627 54.768C192.563 54.208 191.975 54.012 191.331 54.012C190.687 54.012 190.519 54.264 190.519 54.712V57.848C190.519 58.016 190.631 58.128 190.799 58.128H193.459C193.627 58.128 193.739 58.24 193.739 58.408V61.74C193.739 61.908 193.627 62.02 193.459 62.02H190.799C190.631 62.02 190.519 62.132 190.519 62.3V65.8C190.519 65.968 190.631 66.08 190.799 66.08H193.991C194.159 66.08 194.271 66.192 194.271 66.36V69.72C194.271 69.888 194.159 70 193.991 70H187.019ZM195.961 70C195.597 70 195.401 69.804 195.401 69.44V55.076C195.401 52.668 195.317 51.996 195.065 50.82C195.009 50.568 195.149 50.4 195.401 50.4H199.909C203.745 50.4 205.817 53.172 205.817 60.2C205.817 67.228 203.745 70 199.909 70H195.961ZM199.825 66.164C200.721 66.164 201.561 65.24 201.561 60.2C201.561 55.16 200.721 54.236 199.825 54.236H199.741C199.573 54.236 199.461 54.348 199.461 54.516V65.884C199.461 66.052 199.573 66.164 199.741 66.164H199.825ZM213.185 70C212.821 70 212.625 69.804 212.625 69.44V54.46C212.625 54.208 212.513 53.984 212.093 53.984C211.645 53.984 211.365 54.208 210.609 54.824C210.217 55.132 209.853 55.244 209.853 54.768V50.96C209.853 50.596 210.049 50.4 210.413 50.4H218.897C219.261 50.4 219.457 50.596 219.457 50.96V54.768C219.457 55.244 219.093 55.132 218.701 54.824C217.945 54.208 217.665 53.984 217.217 53.984C216.797 53.984 216.685 54.208 216.685 54.46V69.44C216.685 69.804 216.489 70 216.125 70H213.185ZM225.133 70.28C221.801 70.28 219.701 67.788 219.701 60.2C219.701 52.612 221.801 50.12 225.133 50.12C228.465 50.12 230.593 52.612 230.593 60.2C230.593 67.788 228.465 70.28 225.133 70.28ZM225.133 66.36C225.777 66.36 226.309 65.632 226.309 60.2C226.309 54.74 225.777 54.04 225.133 54.04C224.489 54.04 223.985 54.74 223.985 60.2C223.985 65.632 224.489 66.36 225.133 66.36ZM235.718 70C235.354 70 235.158 69.804 235.158 69.44V54.796C235.158 52.388 235.074 51.996 234.822 50.82C234.766 50.568 234.906 50.4 235.158 50.4H240.198C240.814 50.4 241.038 50.568 241.094 51.212L241.878 59.948C241.906 60.172 241.99 60.256 242.13 60.256C242.27 60.256 242.382 60.172 242.41 59.948L243.194 51.212C243.25 50.568 243.474 50.4 244.09 50.4H249.326C249.578 50.4 249.718 50.568 249.662 50.82C249.41 51.996 249.326 52.388 249.326 54.796V69.44C249.326 69.804 249.13 70 248.766 70H246.05C245.686 70 245.49 69.804 245.49 69.44C245.49 65.492 245.546 61.124 245.602 56.896C245.602 56.7 245.546 56.56 245.35 56.56C245.21 56.56 245.098 56.644 245.07 56.868L243.53 69.468C243.474 69.832 243.25 70 242.914 70H241.29C240.954 70 240.73 69.832 240.674 69.468L239.134 56.84C239.106 56.644 239.022 56.56 238.854 56.56C238.658 56.56 238.602 56.728 238.602 56.896C238.658 61.124 238.714 65.492 238.714 69.44C238.714 69.804 238.518 70 238.154 70H235.718ZM250.686 70C250.378 70 250.21 69.86 250.238 69.58L252.002 53.116C252.114 52.052 252.058 51.52 251.946 50.932C251.89 50.568 252.058 50.4 252.31 50.4H258.778C259.03 50.4 259.198 50.568 259.114 50.932C259.002 51.464 258.918 51.968 259.03 53.116L260.794 69.58C260.822 69.86 260.654 70 260.346 70H257.266C257.014 70 256.846 69.86 256.818 69.636L256.566 67.172C256.538 66.892 256.398 66.752 256.118 66.752H254.69C254.41 66.752 254.242 66.892 254.214 67.172L253.962 69.636C253.934 69.888 253.738 70 253.514 70H250.686ZM255.81 63C256.118 63 256.174 62.86 256.146 62.636C255.95 60.368 255.81 58.772 255.698 55.664C255.698 55.412 255.586 55.272 255.39 55.272C255.194 55.272 255.082 55.412 255.082 55.664C254.97 58.772 254.83 60.368 254.634 62.636C254.606 62.86 254.662 63 254.97 63H255.81ZM262.269 70C261.905 70 261.709 69.804 261.709 69.44V54.796C261.709 52.388 261.625 51.996 261.373 50.82C261.317 50.568 261.457 50.4 261.709 50.4H265.769C266.021 50.4 266.161 50.568 266.105 50.82C265.853 51.996 265.769 52.388 265.769 54.796V69.44C265.769 69.804 265.573 70 265.209 70H262.269ZM267.847 70C267.483 70 267.287 69.804 267.287 69.44V54.796C267.287 52.388 267.203 51.996 266.951 50.82C266.895 50.568 267.035 50.4 267.287 50.4H270.535C270.871 50.4 271.095 50.568 271.151 50.876L272.943 59.36C272.971 59.556 273.083 59.668 273.251 59.668C273.447 59.668 273.503 59.528 273.503 59.304C273.475 58.548 273.531 56.112 273.475 54.516C273.391 52.388 273.307 51.996 273.055 50.82C272.999 50.568 273.139 50.4 273.391 50.4H277.059C277.311 50.4 277.451 50.568 277.395 50.82C277.143 51.996 277.059 52.388 277.059 54.796V69.44C277.059 69.804 276.863 70 276.499 70H273.811C273.475 70 273.251 69.832 273.195 69.524L271.375 61.012C271.347 60.816 271.235 60.732 271.095 60.732C270.927 60.732 270.815 60.844 270.815 61.068C270.899 62.944 270.983 66.836 270.983 69.44C270.983 69.804 270.787 70 270.423 70H267.847ZM281.38 70C281.016 70 280.82 69.804 280.82 69.44V54.46C280.82 54.208 280.708 53.984 280.288 53.984C279.84 53.984 279.56 54.208 278.804 54.824C278.412 55.132 278.048 55.244 278.048 54.768V50.96C278.048 50.596 278.244 50.4 278.608 50.4H287.092C287.456 50.4 287.652 50.596 287.652 50.96V54.768C287.652 55.244 287.288 55.132 286.896 54.824C286.14 54.208 285.86 53.984 285.412 53.984C284.992 53.984 284.88 54.208 284.88 54.46V69.44C284.88 69.804 284.684 70 284.32 70H281.38ZM287.655 70C287.347 70 287.179 69.86 287.207 69.58L288.971 53.116C289.083 52.052 289.027 51.52 288.915 50.932C288.859 50.568 289.027 50.4 289.279 50.4H295.747C295.999 50.4 296.167 50.568 296.083 50.932C295.971 51.464 295.887 51.968 295.999 53.116L297.763 69.58C297.791 69.86 297.623 70 297.315 70H294.235C293.983 70 293.815 69.86 293.787 69.636L293.535 67.172C293.507 66.892 293.367 66.752 293.087 66.752H291.659C291.379 66.752 291.211 66.892 291.183 67.172L290.931 69.636C290.903 69.888 290.707 70 290.483 70H287.655ZM292.779 63C293.087 63 293.143 62.86 293.115 62.636C292.919 60.368 292.779 58.772 292.667 55.664C292.667 55.412 292.555 55.272 292.359 55.272C292.163 55.272 292.051 55.412 292.051 55.664C291.939 58.772 291.799 60.368 291.603 62.636C291.575 62.86 291.631 63 291.939 63H292.779ZM299.238 70C298.874 70 298.678 69.804 298.678 69.44V54.796C298.678 52.388 298.594 51.996 298.342 50.82C298.286 50.568 298.426 50.4 298.678 50.4H302.738C302.99 50.4 303.13 50.568 303.074 50.82C302.822 51.996 302.738 52.388 302.738 54.796V69.44C302.738 69.804 302.542 70 302.178 70H299.238ZM304.816 70C304.452 70 304.256 69.804 304.256 69.44V54.796C304.256 52.388 304.172 51.996 303.92 50.82C303.864 50.568 304.004 50.4 304.256 50.4H307.504C307.84 50.4 308.064 50.568 308.12 50.876L309.912 59.36C309.94 59.556 310.052 59.668 310.22 59.668C310.416 59.668 310.472 59.528 310.472 59.304C310.444 58.548 310.5 56.112 310.444 54.516C310.36 52.388 310.276 51.996 310.024 50.82C309.968 50.568 310.108 50.4 310.36 50.4H314.028C314.28 50.4 314.42 50.568 314.364 50.82C314.112 51.996 314.028 52.388 314.028 54.796V69.44C314.028 69.804 313.832 70 313.468 70H310.78C310.444 70 310.22 69.832 310.164 69.524L308.344 61.012C308.316 60.816 308.204 60.732 308.064 60.732C307.896 60.732 307.784 60.844 307.784 61.068C307.868 62.944 307.952 66.836 307.952 69.44C307.952 69.804 307.756 70 307.392 70H304.816ZM316.109 70C315.745 70 315.549 69.804 315.549 69.44V54.796C315.549 52.388 315.465 51.996 315.213 50.82C315.157 50.568 315.297 50.4 315.549 50.4H319.609C319.861 50.4 320.001 50.568 319.945 50.82C319.693 51.996 319.609 52.388 319.609 54.796V69.44C319.609 69.804 319.413 70 319.049 70H316.109ZM321.687 70C321.323 70 321.127 69.804 321.127 69.44V54.796C321.127 52.388 321.043 51.996 320.791 50.82C320.735 50.568 320.875 50.4 321.127 50.4H324.375C324.711 50.4 324.935 50.568 324.991 50.876L326.783 59.36C326.811 59.556 326.923 59.668 327.091 59.668C327.287 59.668 327.343 59.528 327.343 59.304C327.315 58.548 327.371 56.112 327.315 54.516C327.231 52.388 327.147 51.996 326.895 50.82C326.839 50.568 326.979 50.4 327.231 50.4H330.899C331.151 50.4 331.291 50.568 331.235 50.82C330.983 51.996 330.899 52.388 330.899 54.796V69.44C330.899 69.804 330.703 70 330.339 70H327.651C327.315 70 327.091 69.832 327.035 69.524L325.215 61.012C325.187 60.816 325.075 60.732 324.935 60.732C324.767 60.732 324.655 60.844 324.655 61.068C324.739 62.944 324.823 66.836 324.823 69.44C324.823 69.804 324.627 70 324.263 70H321.687ZM337.6 70.28C333.68 70.28 332.028 66.948 332.028 60.2C332.028 53.144 334.156 50.12 337.824 50.12C338.888 50.12 340.008 50.288 340.624 50.932C340.96 51.268 341.1 51.688 341.1 52.276V54.824C341.1 55.188 341.016 55.496 340.68 55.496C340.484 55.496 340.316 55.412 339.952 54.992C339.644 54.628 339.252 54.208 338.58 54.208C337.012 54.208 336.256 56.056 336.256 60.256C336.256 61.404 336.312 66.472 337.516 66.472C337.768 66.472 337.88 66.22 337.88 65.828V63.364C337.88 60.956 337.796 60.564 337.544 59.388C337.488 59.136 337.628 58.968 337.88 58.968H340.904C341.268 58.968 341.492 59.164 341.492 59.528V65.688C341.492 69.104 339.672 70.28 337.6 70.28ZM98.2613 99C97.8973 99 97.7013 98.804 97.7013 98.44V83.796C97.7013 81.388 97.6173 80.996 97.3653 79.82C97.3093 79.568 97.4493 79.4 97.7013 79.4H100.949C101.285 79.4 101.509 79.568 101.565 79.876L103.357 88.36C103.385 88.556 103.497 88.668 103.665 88.668C103.861 88.668 103.917 88.528 103.917 88.304C103.889 87.548 103.945 85.112 103.889 83.516C103.805 81.388 103.721 80.996 103.469 79.82C103.413 79.568 103.553 79.4 103.805 79.4H107.473C107.725 79.4 107.865 79.568 107.809 79.82C107.557 80.996 107.473 81.388 107.473 83.796V98.44C107.473 98.804 107.277 99 106.913 99H104.225C103.889 99 103.665 98.832 103.609 98.524L101.789 90.012C101.761 89.816 101.649 89.732 101.509 89.732C101.341 89.732 101.229 89.844 101.229 90.068C101.313 91.944 101.397 95.836 101.397 98.44C101.397 98.804 101.201 99 100.837 99H98.2613ZM109.554 99C109.19 99 108.994 98.804 108.994 98.44V84.076C108.994 81.668 108.91 80.996 108.658 79.82C108.602 79.568 108.742 79.4 108.994 79.4H116.442C116.61 79.4 116.722 79.512 116.722 79.68V83.572C116.722 83.88 116.47 83.936 116.162 83.768C115.098 83.208 114.51 83.012 113.866 83.012C113.222 83.012 113.054 83.264 113.054 83.712V86.848C113.054 87.016 113.166 87.128 113.334 87.128H115.994C116.162 87.128 116.274 87.24 116.274 87.408V90.74C116.274 90.908 116.162 91.02 115.994 91.02H113.334C113.166 91.02 113.054 91.132 113.054 91.3V94.8C113.054 94.968 113.166 95.08 113.334 95.08H116.526C116.694 95.08 116.806 95.192 116.806 95.36V98.72C116.806 98.888 116.694 99 116.526 99H109.554ZM122.836 99.28C119.7 99.28 117.908 97.376 117.908 93.932V84.076C117.908 81.668 117.824 80.996 117.572 79.82C117.516 79.568 117.656 79.4 117.908 79.4H121.968C122.22 79.4 122.36 79.568 122.304 79.82C122.052 80.996 121.968 81.668 121.968 84.076V93.988C121.968 94.716 122.304 95.108 122.836 95.108C123.34 95.108 123.676 94.716 123.676 93.988V84.076C123.676 81.668 123.592 80.996 123.34 79.82C123.284 79.568 123.424 79.4 123.676 79.4H127.736C127.988 79.4 128.128 79.568 128.072 79.82C127.82 80.996 127.736 81.668 127.736 84.076V93.932C127.736 97.376 125.944 99.28 122.836 99.28ZM132.029 99C131.665 99 131.469 98.804 131.469 98.44V83.46C131.469 83.208 131.357 82.984 130.937 82.984C130.489 82.984 130.209 83.208 129.453 83.824C129.061 84.132 128.697 84.244 128.697 83.768V79.96C128.697 79.596 128.893 79.4 129.257 79.4H137.741C138.105 79.4 138.301 79.596 138.301 79.96V83.768C138.301 84.244 137.937 84.132 137.545 83.824C136.789 83.208 136.509 82.984 136.061 82.984C135.641 82.984 135.529 83.208 135.529 83.46V98.44C135.529 98.804 135.333 99 134.969 99H132.029ZM139.851 99C139.487 99 139.291 98.804 139.291 98.44V84.076C139.291 81.668 139.207 80.996 138.955 79.82C138.899 79.568 139.039 79.4 139.291 79.4H143.827C147.439 79.4 149.091 82.116 149.091 86.288C149.091 87.996 148.727 89.564 148.055 90.628C147.607 91.328 147.551 91.944 147.691 92.532L149.175 98.328C149.231 98.552 149.231 99 148.699 99H145.703C145.367 99 145.171 98.832 145.087 98.468L143.883 93.008C143.827 92.784 143.771 92.588 143.547 92.588C143.351 92.588 143.267 92.756 143.267 93.036V98.44C143.267 98.804 143.071 99 142.707 99H139.851ZM143.771 89.844C144.499 89.844 145.059 88.864 145.059 86.344C145.059 83.852 144.499 82.872 143.771 82.872H143.659C143.407 82.872 143.267 83.012 143.267 83.264V89.452C143.267 89.704 143.407 89.844 143.659 89.844H143.771ZM150.171 99C149.863 99 149.695 98.86 149.723 98.58L151.487 82.116C151.599 81.052 151.543 80.52 151.431 79.932C151.375 79.568 151.543 79.4 151.795 79.4H158.263C158.515 79.4 158.683 79.568 158.599 79.932C158.487 80.464 158.403 80.968 158.515 82.116L160.279 98.58C160.307 98.86 160.139 99 159.831 99H156.751C156.499 99 156.331 98.86 156.303 98.636L156.051 96.172C156.023 95.892 155.883 95.752 155.603 95.752H154.175C153.895 95.752 153.727 95.892 153.699 96.172L153.447 98.636C153.419 98.888 153.223 99 152.999 99H150.171ZM155.295 92C155.603 92 155.659 91.86 155.631 91.636C155.435 89.368 155.295 87.772 155.183 84.664C155.183 84.412 155.071 84.272 154.875 84.272C154.679 84.272 154.567 84.412 154.567 84.664C154.455 87.772 154.315 89.368 154.119 91.636C154.091 91.86 154.147 92 154.455 92H155.295ZM161.754 99C161.39 99 161.194 98.804 161.194 98.44V84.076C161.194 81.668 161.11 80.996 160.858 79.82C160.802 79.568 160.942 79.4 161.194 79.4H165.254C165.506 79.4 165.646 79.568 165.59 79.82C165.338 80.996 165.254 81.668 165.254 84.076V94.8C165.254 94.968 165.366 95.08 165.534 95.08H168.726C168.894 95.08 169.006 95.192 169.006 95.36V98.72C169.006 98.888 168.894 99 168.726 99H161.754ZM170.476 99C170.112 99 169.916 98.804 169.916 98.44V83.796C169.916 81.388 169.832 80.996 169.58 79.82C169.524 79.568 169.664 79.4 169.916 79.4H173.976C174.228 79.4 174.368 79.568 174.312 79.82C174.06 80.996 173.976 81.388 173.976 83.796V98.44C173.976 98.804 173.78 99 173.416 99H170.476ZM178.294 99C177.93 99 177.734 98.804 177.734 98.44V83.46C177.734 83.208 177.622 82.984 177.202 82.984C176.754 82.984 176.474 83.208 175.718 83.824C175.326 84.132 174.962 84.244 174.962 83.768V79.96C174.962 79.596 175.158 79.4 175.522 79.4H184.006C184.37 79.4 184.566 79.596 184.566 79.96V83.768C184.566 84.244 184.202 84.132 183.81 83.824C183.054 83.208 182.774 82.984 182.326 82.984C181.906 82.984 181.794 83.208 181.794 83.46V98.44C181.794 98.804 181.598 99 181.234 99H178.294ZM188.942 99C188.578 99 188.382 98.804 188.382 98.44V96.34C188.382 94.548 188.27 93.848 187.654 91.076L185.806 82.872C185.47 81.388 185.302 80.94 184.769 79.792C184.657 79.568 184.769 79.4 184.994 79.4H189.502C189.726 79.4 189.81 79.624 189.782 79.792C189.614 80.436 189.446 81.024 189.782 82.788C189.978 83.852 190.034 84.888 190.23 86.82C190.258 87.1 190.314 87.324 190.538 87.324C190.762 87.324 190.818 87.1 190.846 86.82C191.042 84.888 191.126 83.852 191.322 82.788C191.658 81.024 191.49 80.436 191.322 79.792C191.294 79.624 191.378 79.4 191.602 79.4H195.718C195.942 79.4 196.054 79.568 195.942 79.792C195.41 80.94 195.214 81.388 194.906 82.872L193.198 91.076C192.61 93.848 192.442 94.548 192.442 96.34V98.44C192.442 98.804 192.246 99 191.882 99H188.942ZM204.652 99.28C201.32 99.28 199.22 96.788 199.22 89.2C199.22 81.612 201.32 79.12 204.652 79.12C207.984 79.12 210.112 81.612 210.112 89.2C210.112 96.788 207.984 99.28 204.652 99.28ZM204.652 95.36C205.296 95.36 205.828 94.632 205.828 89.2C205.828 83.74 205.296 83.04 204.652 83.04C204.008 83.04 203.504 83.74 203.504 89.2C203.504 94.632 204.008 95.36 204.652 95.36ZM211.82 99C211.456 99 211.26 98.804 211.26 98.44V84.076C211.26 81.668 211.176 80.996 210.924 79.82C210.868 79.568 211.008 79.4 211.26 79.4H218.708C218.876 79.4 218.988 79.512 218.988 79.68V83.572C218.988 83.88 218.736 83.936 218.428 83.768C217.364 83.208 216.776 83.012 216.132 83.012C215.488 83.012 215.32 83.264 215.32 83.712V86.848C215.32 87.016 215.432 87.128 215.6 87.128H218.26C218.428 87.128 218.54 87.24 218.54 87.408V90.74C218.54 90.908 218.428 91.02 218.26 91.02H215.6C215.432 91.02 215.32 91.132 215.32 91.3V98.44C215.32 98.804 215.124 99 214.76 99H211.82ZM223.261 99C222.953 99 222.785 98.86 222.813 98.58L224.577 82.116C224.689 81.052 224.633 80.52 224.521 79.932C224.465 79.568 224.633 79.4 224.885 79.4H231.353C231.605 79.4 231.773 79.568 231.689 79.932C231.577 80.464 231.493 80.968 231.605 82.116L233.369 98.58C233.397 98.86 233.229 99 232.921 99H229.841C229.589 99 229.421 98.86 229.393 98.636L229.141 96.172C229.113 95.892 228.973 95.752 228.693 95.752H227.265C226.985 95.752 226.817 95.892 226.789 96.172L226.537 98.636C226.509 98.888 226.313 99 226.089 99H223.261ZM228.385 92C228.693 92 228.749 91.86 228.721 91.636C228.525 89.368 228.385 87.772 228.273 84.664C228.273 84.412 228.161 84.272 227.965 84.272C227.769 84.272 227.657 84.412 227.657 84.664C227.545 87.772 227.405 89.368 227.209 91.636C227.181 91.86 227.237 92 227.545 92H228.385ZM234.843 99C234.479 99 234.283 98.804 234.283 98.44V84.076C234.283 81.668 234.199 80.996 233.947 79.82C233.891 79.568 234.031 79.4 234.283 79.4H238.651C242.599 79.4 244.083 82.172 244.083 86.484C244.083 90.628 242.711 93.4 238.819 93.4H238.595C238.371 93.4 238.259 93.512 238.259 93.736V98.44C238.259 98.804 238.063 99 237.699 99H234.843ZM238.763 90.04C239.547 90.04 240.051 89.06 240.051 86.484C240.051 83.936 239.547 82.956 238.763 82.956H238.595C238.399 82.956 238.259 83.096 238.259 83.32V89.676C238.259 89.872 238.371 90.04 238.595 90.04H238.763ZM245.562 99C245.198 99 245.002 98.804 245.002 98.44V84.076C245.002 81.668 244.918 80.996 244.666 79.82C244.61 79.568 244.75 79.4 245.002 79.4H249.37C253.318 79.4 254.802 82.172 254.802 86.484C254.802 90.628 253.43 93.4 249.538 93.4H249.314C249.09 93.4 248.978 93.512 248.978 93.736V98.44C248.978 98.804 248.782 99 248.418 99H245.562ZM249.482 90.04C250.266 90.04 250.77 89.06 250.77 86.484C250.77 83.936 250.266 82.956 249.482 82.956H249.314C249.118 82.956 248.978 83.096 248.978 83.32V89.676C248.978 89.872 249.09 90.04 249.314 90.04H249.482ZM256.281 99C255.917 99 255.721 98.804 255.721 98.44V84.076C255.721 81.668 255.637 80.996 255.385 79.82C255.329 79.568 255.469 79.4 255.721 79.4H260.257C263.869 79.4 265.521 82.116 265.521 86.288C265.521 87.996 265.157 89.564 264.485 90.628C264.037 91.328 263.981 91.944 264.121 92.532L265.605 98.328C265.661 98.552 265.661 99 265.129 99H262.133C261.797 99 261.601 98.832 261.517 98.468L260.313 93.008C260.257 92.784 260.201 92.588 259.977 92.588C259.781 92.588 259.697 92.756 259.697 93.036V98.44C259.697 98.804 259.501 99 259.137 99H256.281ZM260.201 89.844C260.929 89.844 261.489 88.864 261.489 86.344C261.489 83.852 260.929 82.872 260.201 82.872H260.089C259.837 82.872 259.697 83.012 259.697 83.264V89.452C259.697 89.704 259.837 89.844 260.089 89.844H260.201ZM271.672 99.28C268.34 99.28 266.24 96.788 266.24 89.2C266.24 81.612 268.34 79.12 271.672 79.12C275.004 79.12 277.132 81.612 277.132 89.2C277.132 96.788 275.004 99.28 271.672 99.28ZM271.672 95.36C272.316 95.36 272.848 94.632 272.848 89.2C272.848 83.74 272.316 83.04 271.672 83.04C271.028 83.04 270.524 83.74 270.524 89.2C270.524 94.632 271.028 95.36 271.672 95.36ZM278.01 99C277.73 99 277.562 98.804 277.59 98.524L278.374 91.776C278.542 90.348 278.598 89.368 278.598 88.388C278.598 87.576 278.57 86.764 278.402 85.56L278.066 83.236C277.842 81.668 277.646 80.856 277.226 79.82C277.142 79.596 277.198 79.4 277.45 79.4H281.734C282.042 79.4 282.07 79.624 282.042 79.848C281.986 80.24 281.93 80.604 281.93 81.192C281.93 82.424 282.182 83.964 282.462 86.568C282.49 86.848 282.574 86.96 282.742 86.96C282.91 86.96 282.994 86.848 283.022 86.568C283.246 84.048 283.554 82.368 283.554 81.192C283.554 80.604 283.498 80.24 283.442 79.848C283.414 79.624 283.442 79.4 283.75 79.4H288.034C288.286 79.4 288.342 79.596 288.258 79.82C287.838 80.856 287.642 81.668 287.418 83.236L287.082 85.56C286.914 86.764 286.886 87.576 286.886 88.388C286.886 89.368 286.942 90.348 287.11 91.776L287.894 98.524C287.922 98.804 287.754 99 287.474 99H284.282C283.946 99 283.722 98.804 283.694 98.356C283.47 95.948 283.274 93.512 283.05 90.824C283.022 90.544 282.938 90.404 282.742 90.404C282.546 90.404 282.462 90.544 282.434 90.824C282.21 93.512 282.014 95.948 281.79 98.356C281.762 98.804 281.538 99 281.202 99H278.01ZM289.722 99C289.358 99 289.162 98.804 289.162 98.44V83.796C289.162 81.388 289.078 80.996 288.826 79.82C288.77 79.568 288.91 79.4 289.162 79.4H293.222C293.474 79.4 293.614 79.568 293.558 79.82C293.306 80.996 293.222 81.388 293.222 83.796V98.44C293.222 98.804 293.026 99 292.662 99H289.722ZM295.3 99C294.936 99 294.74 98.804 294.74 98.44V83.796C294.74 81.388 294.656 80.996 294.404 79.82C294.348 79.568 294.488 79.4 294.74 79.4H299.78C300.396 79.4 300.62 79.568 300.676 80.212L301.46 88.948C301.488 89.172 301.572 89.256 301.712 89.256C301.852 89.256 301.964 89.172 301.992 88.948L302.776 80.212C302.832 79.568 303.056 79.4 303.672 79.4H308.908C309.16 79.4 309.3 79.568 309.244 79.82C308.992 80.996 308.908 81.388 308.908 83.796V98.44C308.908 98.804 308.712 99 308.348 99H305.632C305.268 99 305.072 98.804 305.072 98.44C305.072 94.492 305.128 90.124 305.184 85.896C305.184 85.7 305.128 85.56 304.932 85.56C304.792 85.56 304.68 85.644 304.652 85.868L303.112 98.468C303.056 98.832 302.832 99 302.496 99H300.872C300.536 99 300.312 98.832 300.256 98.468L298.716 85.84C298.688 85.644 298.604 85.56 298.436 85.56C298.24 85.56 298.184 85.728 298.184 85.896C298.24 90.124 298.296 94.492 298.296 98.44C298.296 98.804 298.1 99 297.736 99H295.3ZM310.268 99C309.96 99 309.792 98.86 309.82 98.58L311.584 82.116C311.696 81.052 311.64 80.52 311.528 79.932C311.472 79.568 311.64 79.4 311.892 79.4H318.36C318.612 79.4 318.78 79.568 318.696 79.932C318.584 80.464 318.5 80.968 318.612 82.116L320.376 98.58C320.404 98.86 320.236 99 319.928 99H316.848C316.596 99 316.428 98.86 316.4 98.636L316.148 96.172C316.12 95.892 315.98 95.752 315.7 95.752H314.272C313.992 95.752 313.824 95.892 313.796 96.172L313.544 98.636C313.516 98.888 313.32 99 313.096 99H310.268ZM315.392 92C315.7 92 315.756 91.86 315.728 91.636C315.532 89.368 315.392 87.772 315.28 84.664C315.28 84.412 315.168 84.272 314.972 84.272C314.776 84.272 314.664 84.412 314.664 84.664C314.552 87.772 314.412 89.368 314.216 91.636C314.188 91.86 314.244 92 314.552 92H315.392ZM323.244 99C322.88 99 322.684 98.804 322.684 98.44V83.46C322.684 83.208 322.572 82.984 322.152 82.984C321.704 82.984 321.424 83.208 320.668 83.824C320.276 84.132 319.912 84.244 319.912 83.768V79.96C319.912 79.596 320.108 79.4 320.472 79.4H328.956C329.32 79.4 329.516 79.596 329.516 79.96V83.768C329.516 84.244 329.152 84.132 328.76 83.824C328.004 83.208 327.724 82.984 327.276 82.984C326.856 82.984 326.744 83.208 326.744 83.46V98.44C326.744 98.804 326.548 99 326.184 99H323.244ZM331.066 99C330.702 99 330.506 98.804 330.506 98.44V84.076C330.506 81.668 330.422 80.996 330.17 79.82C330.114 79.568 330.254 79.4 330.506 79.4H337.954C338.122 79.4 338.234 79.512 338.234 79.68V83.572C338.234 83.88 337.982 83.936 337.674 83.768C336.61 83.208 336.022 83.012 335.378 83.012C334.734 83.012 334.566 83.264 334.566 83.712V86.848C334.566 87.016 334.678 87.128 334.846 87.128H337.506C337.674 87.128 337.786 87.24 337.786 87.408V90.74C337.786 90.908 337.674 91.02 337.506 91.02H334.846C334.678 91.02 334.566 91.132 334.566 91.3V94.8C334.566 94.968 334.678 95.08 334.846 95.08H338.038C338.206 95.08 338.318 95.192 338.318 95.36V98.72C338.318 98.888 338.206 99 338.038 99H331.066ZM340.007 99C339.643 99 339.447 98.804 339.447 98.44V84.076C339.447 81.668 339.363 80.996 339.111 79.82C339.055 79.568 339.195 79.4 339.447 79.4H343.507C343.759 79.4 343.899 79.568 343.843 79.82C343.591 80.996 343.507 81.668 343.507 84.076V94.8C343.507 94.968 343.619 95.08 343.787 95.08H346.979C347.147 95.08 347.259 95.192 347.259 95.36V98.72C347.259 98.888 347.147 99 346.979 99H340.007ZM349.586 99C349.222 99 349.026 98.804 349.026 98.44V96.34C349.026 94.548 348.914 93.848 348.298 91.076L346.45 82.872C346.114 81.388 345.946 80.94 345.414 79.792C345.302 79.568 345.414 79.4 345.638 79.4H350.146C350.37 79.4 350.454 79.624 350.426 79.792C350.258 80.436 350.09 81.024 350.426 82.788C350.622 83.852 350.678 84.888 350.874 86.82C350.902 87.1 350.958 87.324 351.182 87.324C351.406 87.324 351.462 87.1 351.49 86.82C351.686 84.888 351.77 83.852 351.966 82.788C352.302 81.024 352.134 80.436 351.966 79.792C351.938 79.624 352.022 79.4 352.246 79.4H356.362C356.586 79.4 356.698 79.568 356.586 79.792C356.054 80.94 355.858 81.388 355.55 82.872L353.842 91.076C353.254 93.848 353.086 94.548 353.086 96.34V98.44C353.086 98.804 352.89 99 352.526 99H349.586ZM159.968 128.28C158.484 128.28 157.672 127.86 157.336 127.636C156.748 127.272 156.524 126.796 156.524 126.18V123.268C156.524 123.072 156.636 122.932 156.804 122.932C156.916 122.932 157.028 122.96 157.224 123.156C157.672 123.604 158.288 124.304 159.352 124.304C160.696 124.304 161.312 123.212 161.312 121.56C161.312 119.824 160.612 118.564 158.96 118.564C158.148 118.564 157.756 118.816 157.28 118.816C157.056 118.816 156.944 118.676 156.944 118.396L157.056 108.96C157.056 108.596 157.28 108.4 157.588 108.4H164.364C164.532 108.4 164.644 108.512 164.644 108.68V112.04C164.644 112.208 164.532 112.32 164.364 112.32H160.948C160.528 112.32 160.388 112.46 160.388 112.88V114.784C160.388 115.232 160.5 115.344 160.948 115.344C163.832 115.344 165.288 117.78 165.288 121.448C165.288 125.62 163.412 128.28 159.968 128.28ZM167.334 130.772C166.522 130.772 165.878 130.492 165.878 129.96V129.036C165.878 128.784 166.046 128.756 166.27 128.896C166.494 129.036 166.802 129.204 167.334 129.204C168.09 129.204 168.51 128.728 168.51 128.308C168.51 128.028 168.342 127.972 168.006 127.972H167.838C166.41 127.972 165.654 127.16 165.654 126.068C165.654 124.976 166.41 123.94 167.95 123.94C169.602 123.94 170.554 125.172 170.554 127.076C170.554 128.868 169.742 130.772 167.334 130.772ZM175.592 128.28C172.288 128.28 170.608 124.892 170.608 118.2C170.608 111.508 172.288 108.12 175.592 108.12C178.896 108.12 180.576 111.508 180.576 118.2C180.576 124.892 178.896 128.28 175.592 128.28ZM175.592 124.5C176.376 124.5 176.684 122.736 176.684 118.2C176.684 113.664 176.376 111.9 175.592 111.9C174.808 111.9 174.5 113.664 174.5 118.2C174.5 122.736 174.808 124.5 175.592 124.5ZM181.747 128C181.411 128 181.215 127.804 181.215 127.44V124.836C181.215 124.36 181.299 124.108 181.663 123.352L183.007 120.608C184.575 117.416 185.471 115.54 185.471 114.112C185.471 113.244 185.023 112.516 184.127 112.516C183.287 112.516 182.867 112.964 182.167 113.832C181.999 114.028 181.887 114.084 181.719 114.084C181.551 114.084 181.411 113.944 181.411 113.692V110.668C181.411 110.22 181.439 109.772 181.775 109.324C182.251 108.708 183.343 108.12 184.911 108.12C187.823 108.12 189.475 110.248 189.475 113.468C189.475 116.156 188.579 118.34 186.899 121.532L186.311 122.652C186.115 123.044 185.891 123.408 185.891 123.66C185.891 123.8 185.975 123.912 186.227 123.912H189.111C189.447 123.912 189.643 124.108 189.643 124.472V127.44C189.643 127.804 189.447 128 189.111 128H181.747ZM192.026 128C191.494 128 191.298 127.86 191.326 127.3C191.466 122.316 192.362 117.78 194.798 113.188C195.022 112.768 195.106 112.488 194.518 112.488H190.794C190.43 112.488 190.234 112.292 190.234 111.928V108.96C190.234 108.596 190.43 108.4 190.794 108.4H198.69C199.054 108.4 199.25 108.596 199.25 108.96V111.172C199.25 111.704 199.166 112.068 198.914 112.572C196.534 117.444 195.498 122.204 195.526 127.356C195.526 127.86 195.386 128 194.882 128H192.026ZM206.499 128C206.135 128 205.939 127.804 205.939 127.44V112.46C205.939 112.208 205.827 111.984 205.407 111.984C204.959 111.984 204.679 112.208 203.923 112.824C203.531 113.132 203.167 113.244 203.167 112.768V108.96C203.167 108.596 203.363 108.4 203.727 108.4H212.211C212.575 108.4 212.771 108.596 212.771 108.96V112.768C212.771 113.244 212.407 113.132 212.015 112.824C211.259 112.208 210.979 111.984 210.531 111.984C210.111 111.984 209.999 112.208 209.999 112.46V127.44C209.999 127.804 209.803 128 209.439 128H206.499ZM218.447 128.28C215.115 128.28 213.015 125.788 213.015 118.2C213.015 110.612 215.115 108.12 218.447 108.12C221.779 108.12 223.907 110.612 223.907 118.2C223.907 125.788 221.779 128.28 218.447 128.28ZM218.447 124.36C219.091 124.36 219.623 123.632 219.623 118.2C219.623 112.74 219.091 112.04 218.447 112.04C217.803 112.04 217.299 112.74 217.299 118.2C217.299 123.632 217.803 124.36 218.447 124.36ZM225.615 128C225.251 128 225.055 127.804 225.055 127.44V112.796C225.055 110.388 224.971 109.996 224.719 108.82C224.663 108.568 224.803 108.4 225.055 108.4H228.303C228.639 108.4 228.863 108.568 228.919 108.876L230.711 117.36C230.739 117.556 230.851 117.668 231.019 117.668C231.215 117.668 231.271 117.528 231.271 117.304C231.243 116.548 231.299 114.112 231.243 112.516C231.159 110.388 231.075 109.996 230.823 108.82C230.767 108.568 230.907 108.4 231.159 108.4H234.827C235.079 108.4 235.219 108.568 235.163 108.82C234.911 109.996 234.827 110.388 234.827 112.796V127.44C234.827 127.804 234.631 128 234.267 128H231.579C231.243 128 231.019 127.832 230.963 127.524L229.143 119.012C229.115 118.816 229.003 118.732 228.863 118.732C228.695 118.732 228.583 118.844 228.583 119.068C228.667 120.944 228.751 124.836 228.751 127.44C228.751 127.804 228.555 128 228.191 128H225.615ZM239.4 128.28C238.14 128.28 236.964 127.916 236.46 127.356C236.096 126.964 236.012 126.516 236.012 126.012V122.54C236.012 122.26 236.124 121.98 236.404 121.98C236.656 121.98 236.768 122.148 237.132 122.68C237.636 123.436 238.112 124.052 239.008 124.052C239.876 124.052 240.184 123.24 240.184 122.596C240.184 121.504 239.456 120.72 238.308 119.404C237.16 118.088 235.984 116.464 235.984 113.972C235.984 110.612 237.748 108.12 240.884 108.12C242.088 108.12 243.012 108.484 243.516 109.016C243.908 109.408 243.964 109.884 243.964 110.388V113.384C243.964 113.692 243.852 113.944 243.572 113.944C243.32 113.944 243.208 113.832 242.788 113.3C242.34 112.712 241.976 112.348 241.388 112.348C240.492 112.348 240.128 113.048 240.128 113.72C240.128 114.868 240.912 115.764 242.116 117.136C243.32 118.536 244.356 120.02 244.356 122.484C244.356 125.816 242.536 128.28 239.4 128.28ZM253.83 128.28C250.498 128.28 248.398 125.788 248.398 118.2C248.398 110.612 250.498 108.12 253.83 108.12C257.162 108.12 259.29 110.612 259.29 118.2C259.29 125.788 257.162 128.28 253.83 128.28ZM253.83 124.36C254.474 124.36 255.006 123.632 255.006 118.2C255.006 112.74 254.474 112.04 253.83 112.04C253.186 112.04 252.682 112.74 252.682 118.2C252.682 123.632 253.186 124.36 253.83 124.36ZM260.998 128C260.634 128 260.438 127.804 260.438 127.44V113.076C260.438 110.668 260.354 109.996 260.102 108.82C260.046 108.568 260.186 108.4 260.438 108.4H267.886C268.054 108.4 268.166 108.512 268.166 108.68V112.572C268.166 112.88 267.914 112.936 267.606 112.768C266.542 112.208 265.954 112.012 265.31 112.012C264.666 112.012 264.498 112.264 264.498 112.712V115.848C264.498 116.016 264.61 116.128 264.778 116.128H267.438C267.606 116.128 267.718 116.24 267.718 116.408V119.74C267.718 119.908 267.606 120.02 267.438 120.02H264.778C264.61 120.02 264.498 120.132 264.498 120.3V127.44C264.498 127.804 264.302 128 263.938 128H260.998ZM277.842 128.28C274.286 128.28 272.186 125.228 272.186 118.2C272.186 111.172 274.286 108.12 277.842 108.12C278.738 108.12 279.662 108.344 280.306 108.848C280.866 109.296 280.978 109.856 280.978 110.528V112.852C280.978 113.272 280.81 113.468 280.558 113.468C280.25 113.468 280.054 113.216 279.802 112.908C279.522 112.572 279.158 112.208 278.542 112.208C277.142 112.208 276.442 113.972 276.442 118.2C276.442 122.428 277.142 124.192 278.542 124.192C279.158 124.192 279.522 123.828 279.802 123.492C280.054 123.184 280.222 122.932 280.53 122.932C280.782 122.932 280.978 123.128 280.978 123.548V125.872C280.978 126.544 280.866 127.104 280.306 127.552C279.662 128.056 278.738 128.28 277.842 128.28ZM286.97 128.28C283.638 128.28 281.538 125.788 281.538 118.2C281.538 110.612 283.638 108.12 286.97 108.12C290.302 108.12 292.43 110.612 292.43 118.2C292.43 125.788 290.302 128.28 286.97 128.28ZM286.97 124.36C287.614 124.36 288.146 123.632 288.146 118.2C288.146 112.74 287.614 112.04 286.97 112.04C286.326 112.04 285.822 112.74 285.822 118.2C285.822 123.632 286.326 124.36 286.97 124.36ZM294.166 130.156C293.914 130.156 293.746 129.988 293.746 129.736V127.972C293.746 127.496 293.83 127.216 294.25 126.712L295.706 124.92C296.182 124.332 296.322 124.024 296.322 123.632C296.322 123.296 296.098 123.072 295.678 123.072C295.314 123.072 294.95 123.24 294.474 123.716C294.306 123.884 294.222 123.94 294.11 123.94C293.998 123.94 293.914 123.856 293.914 123.716V121.672C293.914 121.14 293.97 120.972 294.166 120.692C294.418 120.356 295.202 119.936 296.266 119.936C298.142 119.936 299.234 121.028 299.234 123.044C299.234 124.36 298.758 125.396 298.198 126.04L297.554 126.796C297.442 126.908 297.386 127.048 297.386 127.104C297.386 127.188 297.442 127.3 297.61 127.3H299.066C299.318 127.3 299.486 127.44 299.486 127.72V129.736C299.486 129.988 299.318 130.156 299.066 130.156H294.166Z" fill="white"/>
<path d="M169.72 150.96C169.667 150.96 169.619 150.944 169.576 150.912C169.544 150.891 169.501 150.837 169.448 150.752C168.968 149.963 168.584 149.019 168.296 147.92C168.008 146.811 167.864 145.685 167.864 144.544C167.864 143.392 168.008 142.267 168.296 141.168C168.584 140.059 168.968 139.109 169.448 138.32C169.501 138.235 169.544 138.181 169.576 138.16C169.619 138.128 169.667 138.112 169.72 138.112H170.84C170.893 138.112 170.925 138.128 170.936 138.16C170.957 138.192 170.952 138.229 170.92 138.272C170.408 139.125 170.008 140.101 169.72 141.2C169.432 142.288 169.288 143.403 169.288 144.544C169.288 145.664 169.432 146.773 169.72 147.872C170.019 148.971 170.419 149.947 170.92 150.8L170.952 150.88C170.952 150.933 170.915 150.96 170.84 150.96H169.72ZM174.949 150.16C174.021 150.16 173.216 150 172.533 149.68C171.85 149.349 171.509 148.848 171.509 148.176V146.816C171.509 146.699 171.546 146.64 171.621 146.64C171.664 146.64 171.706 146.677 171.749 146.752C172.09 147.339 172.528 147.797 173.061 148.128C173.594 148.448 174.261 148.608 175.061 148.608C175.797 148.608 176.362 148.459 176.757 148.16C177.162 147.851 177.365 147.424 177.365 146.88C177.365 146.411 177.232 146.059 176.965 145.824C176.709 145.579 176.272 145.413 175.653 145.328L174.389 145.152C173.461 145.024 172.757 144.709 172.277 144.208C171.808 143.696 171.573 143.013 171.573 142.16C171.573 141.147 171.93 140.347 172.645 139.76C173.36 139.173 174.336 138.88 175.573 138.88C176.416 138.88 177.152 139.035 177.781 139.344C178.41 139.643 178.725 140.096 178.725 140.704V142.176C178.725 142.229 178.714 142.277 178.693 142.32C178.672 142.352 178.645 142.368 178.613 142.368C178.56 142.368 178.506 142.325 178.453 142.24C178.08 141.632 177.658 141.179 177.189 140.88C176.72 140.581 176.165 140.432 175.525 140.432C174.832 140.432 174.288 140.571 173.893 140.848C173.509 141.125 173.317 141.525 173.317 142.048C173.317 142.464 173.434 142.8 173.669 143.056C173.914 143.301 174.266 143.456 174.725 143.52L176.357 143.744C177.253 143.872 177.936 144.192 178.405 144.704C178.874 145.205 179.109 145.867 179.109 146.688C179.109 147.776 178.736 148.629 177.989 149.248C177.253 149.856 176.24 150.16 174.949 150.16ZM184.284 150.16C183.388 150.16 182.599 149.979 181.916 149.616C181.234 149.243 180.7 148.715 180.316 148.032C179.943 147.339 179.756 146.528 179.756 145.6C179.756 144.672 179.943 143.867 180.316 143.184C180.7 142.491 181.234 141.963 181.916 141.6C182.599 141.227 183.388 141.04 184.284 141.04C184.956 141.04 185.5 141.131 185.916 141.312C186.343 141.493 186.556 141.733 186.556 142.032V143.472C186.556 143.568 186.524 143.616 186.46 143.616C186.407 143.616 186.348 143.579 186.284 143.504C185.815 142.939 185.154 142.656 184.3 142.656C183.436 142.656 182.759 142.923 182.268 143.456C181.778 143.979 181.532 144.693 181.532 145.6C181.532 146.507 181.778 147.227 182.268 147.76C182.77 148.283 183.452 148.544 184.316 148.544C185.138 148.544 185.794 148.336 186.284 147.92C186.37 147.856 186.434 147.824 186.476 147.824C186.53 147.824 186.556 147.872 186.556 147.968V149.104C186.556 149.403 186.343 149.653 185.916 149.856C185.5 150.059 184.956 150.16 184.284 150.16ZM191.327 150.16C190.463 150.16 189.7 149.973 189.039 149.6C188.388 149.216 187.882 148.683 187.519 148C187.156 147.307 186.975 146.507 186.975 145.6C186.975 144.693 187.156 143.899 187.519 143.216C187.882 142.523 188.388 141.989 189.039 141.616C189.7 141.232 190.463 141.04 191.327 141.04C192.191 141.04 192.948 141.232 193.599 141.616C194.26 141.989 194.767 142.523 195.119 143.216C195.482 143.899 195.663 144.693 195.663 145.6C195.663 146.507 195.482 147.307 195.119 148C194.767 148.683 194.26 149.216 193.599 149.6C192.948 149.973 192.191 150.16 191.327 150.16ZM191.327 148.56C192.106 148.56 192.724 148.293 193.183 147.76C193.652 147.216 193.887 146.496 193.887 145.6C193.887 144.704 193.652 143.989 193.183 143.456C192.724 142.912 192.106 142.64 191.327 142.64C190.548 142.64 189.924 142.912 189.455 143.456C188.986 143.989 188.751 144.704 188.751 145.6C188.751 146.496 188.986 147.216 189.455 147.76C189.924 148.293 190.548 148.56 191.327 148.56ZM196.69 151.76C196.647 151.76 196.61 151.744 196.578 151.712C196.546 151.68 196.53 151.643 196.53 151.6V143.312C196.53 142.789 196.508 142.411 196.465 142.176C196.434 141.941 196.364 141.68 196.258 141.392C196.247 141.371 196.242 141.344 196.242 141.312C196.242 141.237 196.284 141.2 196.37 141.2H198.098C198.151 141.2 198.194 141.216 198.226 141.248C198.258 141.28 198.274 141.317 198.274 141.36V142.384C198.274 142.448 198.295 142.485 198.338 142.496C198.391 142.507 198.434 142.485 198.466 142.432C198.679 142.069 199.015 141.749 199.474 141.472C199.932 141.184 200.519 141.04 201.234 141.04C202.002 141.04 202.674 141.232 203.25 141.616C203.836 141.989 204.284 142.523 204.594 143.216C204.914 143.899 205.074 144.693 205.074 145.6C205.074 146.507 204.914 147.307 204.594 148C204.284 148.683 203.836 149.216 203.25 149.6C202.674 149.973 202.002 150.16 201.234 150.16C200.519 150.16 199.927 150.021 199.458 149.744C198.999 149.456 198.668 149.131 198.466 148.768C198.434 148.725 198.402 148.704 198.37 148.704C198.306 148.704 198.274 148.741 198.274 148.816V151.6C198.274 151.643 198.258 151.68 198.226 151.712C198.194 151.744 198.151 151.76 198.098 151.76H196.69ZM200.77 148.656C201.527 148.656 202.13 148.379 202.578 147.824C203.036 147.269 203.266 146.528 203.266 145.6C203.266 144.672 203.036 143.931 202.578 143.376C202.13 142.821 201.527 142.544 200.77 142.544C199.991 142.544 199.367 142.821 198.898 143.376C198.428 143.931 198.194 144.672 198.194 145.6C198.194 146.528 198.428 147.269 198.898 147.824C199.367 148.379 199.991 148.656 200.77 148.656ZM210.332 150.16C209.436 150.16 208.641 149.989 207.948 149.648C207.265 149.296 206.732 148.779 206.348 148.096C205.964 147.403 205.772 146.56 205.772 145.568C205.772 144.619 205.953 143.803 206.316 143.12C206.679 142.437 207.175 141.92 207.804 141.568C208.433 141.216 209.143 141.04 209.932 141.04C211.052 141.04 211.948 141.365 212.62 142.016C213.303 142.656 213.644 143.557 213.644 144.72C213.644 145.157 213.612 145.488 213.548 145.712C213.484 145.925 213.372 146.069 213.212 146.144C213.063 146.219 212.839 146.256 212.54 146.256H207.82C207.671 146.256 207.601 146.32 207.612 146.448C207.697 147.099 207.991 147.621 208.492 148.016C209.004 148.411 209.665 148.608 210.476 148.608C211.436 148.608 212.289 148.256 213.036 147.552C213.079 147.509 213.127 147.488 213.18 147.488C213.255 147.488 213.292 147.536 213.292 147.632V148.8C213.292 148.939 213.26 149.067 213.196 149.184C213.132 149.291 213.02 149.403 212.86 149.52C212.615 149.691 212.273 149.84 211.836 149.968C211.409 150.096 210.908 150.16 210.332 150.16ZM211.692 144.896C211.863 144.896 211.953 144.811 211.964 144.64L211.98 144.416C211.98 143.883 211.799 143.435 211.436 143.072C211.073 142.709 210.567 142.528 209.916 142.528C209.169 142.528 208.609 142.741 208.236 143.168C207.863 143.584 207.66 144.075 207.628 144.64V144.672C207.628 144.736 207.655 144.789 207.708 144.832C207.772 144.875 207.841 144.896 207.916 144.896H211.692ZM219.748 150C219.641 150 219.588 149.947 219.588 149.84V141.968C219.588 141.883 219.561 141.84 219.508 141.84C219.465 141.84 219.423 141.861 219.38 141.904C218.964 142.363 218.537 142.688 218.1 142.88C217.673 143.061 217.3 143.152 216.98 143.152C216.863 143.152 216.804 143.093 216.804 142.976V141.792C216.804 141.685 216.852 141.627 216.948 141.616C217.577 141.445 218.132 141.152 218.612 140.736C219.103 140.32 219.471 139.797 219.716 139.168C219.748 139.083 219.812 139.04 219.908 139.04H221.188C221.295 139.04 221.348 139.093 221.348 139.2V149.84C221.348 149.947 221.295 150 221.188 150H219.748ZM223.148 151.568C222.935 151.568 222.769 151.531 222.652 151.456C222.535 151.392 222.476 151.296 222.476 151.168V150.704C222.476 150.661 222.487 150.635 222.508 150.624C222.54 150.613 222.577 150.624 222.62 150.656C222.759 150.763 222.945 150.816 223.18 150.816C223.415 150.816 223.591 150.757 223.708 150.64C223.825 150.523 223.884 150.384 223.884 150.224C223.884 150.139 223.836 150.096 223.74 150.096H223.5C223.18 150.096 222.929 150.016 222.748 149.856C222.577 149.685 222.492 149.461 222.492 149.184C222.492 148.896 222.588 148.661 222.78 148.48C222.972 148.288 223.233 148.192 223.564 148.192C223.927 148.192 224.209 148.325 224.412 148.592C224.625 148.848 224.732 149.205 224.732 149.664C224.732 150.272 224.593 150.741 224.316 151.072C224.049 151.403 223.66 151.568 223.148 151.568ZM231.48 150.16C230.552 150.16 229.747 150 229.064 149.68C228.382 149.349 228.04 148.848 228.04 148.176V146.816C228.04 146.699 228.078 146.64 228.152 146.64C228.195 146.64 228.238 146.677 228.28 146.752C228.622 147.339 229.059 147.797 229.592 148.128C230.126 148.448 230.792 148.608 231.592 148.608C232.328 148.608 232.894 148.459 233.288 148.16C233.694 147.851 233.896 147.424 233.896 146.88C233.896 146.411 233.763 146.059 233.496 145.824C233.24 145.579 232.803 145.413 232.184 145.328L230.92 145.152C229.992 145.024 229.288 144.709 228.808 144.208C228.339 143.696 228.104 143.013 228.104 142.16C228.104 141.147 228.462 140.347 229.176 139.76C229.891 139.173 230.867 138.88 232.104 138.88C232.947 138.88 233.683 139.035 234.312 139.344C234.942 139.643 235.256 140.096 235.256 140.704V142.176C235.256 142.229 235.246 142.277 235.224 142.32C235.203 142.352 235.176 142.368 235.144 142.368C235.091 142.368 235.038 142.325 234.984 142.24C234.611 141.632 234.19 141.179 233.72 140.88C233.251 140.581 232.696 140.432 232.056 140.432C231.363 140.432 230.819 140.571 230.424 140.848C230.04 141.125 229.848 141.525 229.848 142.048C229.848 142.464 229.966 142.8 230.2 143.056C230.446 143.301 230.798 143.456 231.256 143.52L232.888 143.744C233.784 143.872 234.467 144.192 234.936 144.704C235.406 145.205 235.64 145.867 235.64 146.688C235.64 147.776 235.267 148.629 234.52 149.248C233.784 149.856 232.771 150.16 231.48 150.16ZM240.816 150.16C239.92 150.16 239.13 149.979 238.448 149.616C237.765 149.243 237.232 148.715 236.848 148.032C236.474 147.339 236.288 146.528 236.288 145.6C236.288 144.672 236.474 143.867 236.848 143.184C237.232 142.491 237.765 141.963 238.448 141.6C239.13 141.227 239.92 141.04 240.816 141.04C241.488 141.04 242.032 141.131 242.448 141.312C242.874 141.493 243.088 141.733 243.088 142.032V143.472C243.088 143.568 243.056 143.616 242.992 143.616C242.938 143.616 242.88 143.579 242.816 143.504C242.346 142.939 241.685 142.656 240.832 142.656C239.968 142.656 239.29 142.923 238.8 143.456C238.309 143.979 238.064 144.693 238.064 145.6C238.064 146.507 238.309 147.227 238.8 147.76C239.301 148.283 239.984 148.544 240.848 148.544C241.669 148.544 242.325 148.336 242.816 147.92C242.901 147.856 242.965 147.824 243.008 147.824C243.061 147.824 243.088 147.872 243.088 147.968V149.104C243.088 149.403 242.874 149.653 242.448 149.856C242.032 150.059 241.488 150.16 240.816 150.16ZM247.858 150.16C246.994 150.16 246.232 149.973 245.57 149.6C244.92 149.216 244.413 148.683 244.05 148C243.688 147.307 243.506 146.507 243.506 145.6C243.506 144.693 243.688 143.899 244.05 143.216C244.413 142.523 244.92 141.989 245.57 141.616C246.232 141.232 246.994 141.04 247.858 141.04C248.722 141.04 249.48 141.232 250.13 141.616C250.792 141.989 251.298 142.523 251.65 143.216C252.013 143.899 252.194 144.693 252.194 145.6C252.194 146.507 252.013 147.307 251.65 148C251.298 148.683 250.792 149.216 250.13 149.6C249.48 149.973 248.722 150.16 247.858 150.16ZM247.858 148.56C248.637 148.56 249.256 148.293 249.714 147.76C250.184 147.216 250.418 146.496 250.418 145.6C250.418 144.704 250.184 143.989 249.714 143.456C249.256 142.912 248.637 142.64 247.858 142.64C247.08 142.64 246.456 142.912 245.986 143.456C245.517 143.989 245.282 144.704 245.282 145.6C245.282 146.496 245.517 147.216 245.986 147.76C246.456 148.293 247.08 148.56 247.858 148.56ZM253.221 151.76C253.178 151.76 253.141 151.744 253.109 151.712C253.077 151.68 253.061 151.643 253.061 151.6V143.312C253.061 142.789 253.039 142.411 252.997 142.176C252.965 141.941 252.895 141.68 252.789 141.392C252.778 141.371 252.773 141.344 252.773 141.312C252.773 141.237 252.815 141.2 252.901 141.2H254.629C254.682 141.2 254.725 141.216 254.757 141.248C254.789 141.28 254.805 141.317 254.805 141.36V142.384C254.805 142.448 254.826 142.485 254.869 142.496C254.922 142.507 254.965 142.485 254.997 142.432C255.21 142.069 255.546 141.749 256.005 141.472C256.463 141.184 257.05 141.04 257.765 141.04C258.533 141.04 259.205 141.232 259.781 141.616C260.367 141.989 260.815 142.523 261.125 143.216C261.445 143.899 261.605 144.693 261.605 145.6C261.605 146.507 261.445 147.307 261.125 148C260.815 148.683 260.367 149.216 259.781 149.6C259.205 149.973 258.533 150.16 257.765 150.16C257.05 150.16 256.458 150.021 255.989 149.744C255.53 149.456 255.199 149.131 254.997 148.768C254.965 148.725 254.933 148.704 254.901 148.704C254.837 148.704 254.805 148.741 254.805 148.816V151.6C254.805 151.643 254.789 151.68 254.757 151.712C254.725 151.744 254.682 151.76 254.629 151.76H253.221ZM257.301 148.656C258.058 148.656 258.661 148.379 259.109 147.824C259.567 147.269 259.797 146.528 259.797 145.6C259.797 144.672 259.567 143.931 259.109 143.376C258.661 142.821 258.058 142.544 257.301 142.544C256.522 142.544 255.898 142.821 255.429 143.376C254.959 143.931 254.725 144.672 254.725 145.6C254.725 146.528 254.959 147.269 255.429 147.824C255.898 148.379 256.522 148.656 257.301 148.656ZM266.863 150.16C265.967 150.16 265.173 149.989 264.479 149.648C263.797 149.296 263.263 148.779 262.879 148.096C262.495 147.403 262.303 146.56 262.303 145.568C262.303 144.619 262.485 143.803 262.847 143.12C263.21 142.437 263.706 141.92 264.335 141.568C264.965 141.216 265.674 141.04 266.463 141.04C267.583 141.04 268.479 141.365 269.151 142.016C269.834 142.656 270.175 143.557 270.175 144.72C270.175 145.157 270.143 145.488 270.079 145.712C270.015 145.925 269.903 146.069 269.743 146.144C269.594 146.219 269.37 146.256 269.071 146.256H264.351C264.202 146.256 264.133 146.32 264.143 146.448C264.229 147.099 264.522 147.621 265.023 148.016C265.535 148.411 266.197 148.608 267.007 148.608C267.967 148.608 268.821 148.256 269.567 147.552C269.61 147.509 269.658 147.488 269.711 147.488C269.786 147.488 269.823 147.536 269.823 147.632V148.8C269.823 148.939 269.791 149.067 269.727 149.184C269.663 149.291 269.551 149.403 269.391 149.52C269.146 149.691 268.805 149.84 268.367 149.968C267.941 150.096 267.439 150.16 266.863 150.16ZM268.223 144.896C268.394 144.896 268.485 144.811 268.495 144.64L268.511 144.416C268.511 143.883 268.33 143.435 267.967 143.072C267.605 142.709 267.098 142.528 266.447 142.528C265.701 142.528 265.141 142.741 264.767 143.168C264.394 143.584 264.191 144.075 264.159 144.64V144.672C264.159 144.736 264.186 144.789 264.239 144.832C264.303 144.875 264.373 144.896 264.447 144.896H268.223ZM273.735 150C273.629 150 273.575 149.947 273.575 149.84V148.88C273.575 148.773 273.613 148.683 273.687 148.608L276.071 146.16C276.978 145.232 277.618 144.485 277.991 143.92C278.375 143.355 278.567 142.789 278.567 142.224C278.567 141.669 278.407 141.243 278.087 140.944C277.778 140.635 277.319 140.48 276.711 140.48C276.082 140.48 275.549 140.645 275.111 140.976C274.674 141.307 274.237 141.819 273.799 142.512C273.757 142.587 273.709 142.624 273.655 142.624C273.581 142.624 273.543 142.565 273.543 142.448V141.008C273.543 140.805 273.559 140.64 273.591 140.512C273.634 140.384 273.703 140.256 273.799 140.128C274.066 139.776 274.455 139.483 274.967 139.248C275.49 139.003 276.066 138.88 276.695 138.88C277.421 138.88 278.061 139.019 278.615 139.296C279.17 139.563 279.597 139.941 279.895 140.432C280.205 140.912 280.359 141.461 280.359 142.08C280.359 142.795 280.151 143.488 279.735 144.16C279.319 144.821 278.679 145.605 277.815 146.512L276.263 148.16C276.221 148.203 276.199 148.245 276.199 148.288C276.199 148.363 276.258 148.4 276.375 148.4H280.471C280.578 148.4 280.631 148.453 280.631 148.56V149.84C280.631 149.947 280.578 150 280.471 150H273.735ZM281.194 150.96C281.141 150.96 281.104 150.944 281.082 150.912C281.072 150.88 281.082 150.843 281.114 150.8C281.616 149.947 282.01 148.971 282.298 147.872C282.597 146.773 282.746 145.664 282.746 144.544C282.746 143.403 282.602 142.288 282.314 141.2C282.026 140.101 281.626 139.125 281.114 138.272L281.082 138.192C281.082 138.139 281.12 138.112 281.194 138.112H282.314C282.368 138.112 282.41 138.128 282.442 138.16C282.485 138.181 282.533 138.235 282.586 138.32C283.066 139.109 283.45 140.059 283.738 141.168C284.026 142.267 284.17 143.392 284.17 144.544C284.17 145.685 284.026 146.811 283.738 147.92C283.45 149.019 283.066 149.963 282.586 150.752C282.533 150.837 282.485 150.891 282.442 150.912C282.41 150.944 282.368 150.96 282.314 150.96H281.194Z" fill="white"/>
</svg>
