<svg width="1440" height="774" viewBox="0 0 1440 774" fill="none" xmlns="http://www.w3.org/2000/svg">
<g clip-path="url(#clip0_109_1122)">
<path d="M1202 47H1162V87H1202V47Z" fill="#DEA639"/>
<path d="M1169.48 57.3056H1167.25V56.9221C1167.25 56.287 1167.48 56.0473 1167.82 55.6878L1168.69 54.7771C1169.39 54.0342 1169.55 53.5548 1169.55 52.74V51.9611C1169.55 50.8107 1168.99 50.2594 1167.78 50.2594C1166.57 50.2594 1165.98 50.8946 1165.98 52.021V52.9916H1167.21V51.985C1167.21 51.4937 1167.45 51.3619 1167.74 51.3619C1168 51.3619 1168.23 51.4697 1168.23 51.973V52.6441C1168.23 53.3152 1168.17 53.5668 1167.73 54.0342L1166.96 54.849C1166.23 55.6279 1165.95 56.1552 1165.95 56.9581V58.444H1169.48V57.3056Z" fill="white"/>
<path d="M1177.95 80.9844V81.5476C1177.95 81.5476 1177.95 81.5476 1177.95 81.5596C1177.95 81.5716 1177.95 81.5596 1177.95 81.5716C1177.95 81.7154 1178.07 81.8232 1178.21 81.8232H1184.82C1184.96 81.8232 1185.08 81.7034 1185.08 81.5596V80.9245C1188.79 79.7022 1191.58 76.6944 1192.19 73.0276C1192.19 73.0276 1192.19 73.0156 1192.19 73.0036C1192.19 72.9916 1192.19 72.9796 1192.19 72.9676C1192.19 72.8238 1192.07 72.704 1191.92 72.704H1170.92C1170.77 72.704 1170.65 72.8238 1170.65 72.9676V73.0875C1171.31 76.7903 1174.16 79.8221 1177.96 80.9844" fill="white"/>
<path d="M1185.09 63.7286C1185.01 63.8484 1182.97 66.7723 1185.14 69.145C1186.13 70.2355 1186.05 71.1821 1185.76 71.8292H1187.15C1187.43 70.8706 1187.32 69.6723 1186.19 68.45C1184.6 66.7124 1186.22 64.3517 1186.24 64.3158C1186.43 64.0521 1186.33 63.7046 1186.01 63.5368C1185.7 63.3691 1185.3 63.4649 1185.1 63.7286" fill="white"/>
<path d="M1181.57 71.8292H1182.96C1183.23 70.8706 1183.13 69.6723 1182 68.45C1180.41 66.7124 1182.01 64.3517 1182.05 64.3158C1182.24 64.0521 1182.13 63.7046 1181.82 63.5368C1181.51 63.3811 1181.1 63.4649 1180.91 63.7286C1180.83 63.8484 1178.79 66.7723 1180.96 69.145C1181.95 70.2355 1181.87 71.1941 1181.58 71.8292" fill="white"/>
<path d="M1176.72 63.7286C1176.63 63.8484 1174.59 66.7723 1176.76 69.145C1177.76 70.2355 1177.67 71.1821 1177.39 71.8292H1178.78C1179.05 70.8706 1178.94 69.6723 1177.82 68.45C1176.22 66.7124 1177.84 64.3517 1177.87 64.3158C1178.06 64.0521 1177.95 63.7046 1177.64 63.5368C1177.33 63.3691 1176.92 63.4649 1176.73 63.7286" fill="white"/>
<path d="M1172.91 54.4656C1172.91 54.4656 1172.89 54.4536 1172.89 54.4416V52.1049C1172.89 52.1049 1172.89 52.0809 1172.91 52.0809L1172.93 52.0689H1173.25C1173.25 52.0689 1173.28 52.0689 1173.28 52.0809C1173.28 52.0809 1173.29 52.0929 1173.29 52.1049V53.0755C1173.29 53.0755 1173.29 53.0755 1173.3 53.0755L1173.82 52.1049C1173.82 52.1049 1173.84 52.0689 1173.86 52.0689H1174.21C1174.21 52.0689 1174.24 52.0689 1174.25 52.0809C1174.25 52.0809 1174.25 52.1049 1174.25 52.1168L1173.73 53.0875C1173.73 53.0875 1173.73 53.0995 1173.73 53.1114L1174.3 54.4416C1174.3 54.4416 1174.3 54.4416 1174.3 54.4656C1174.3 54.4895 1174.28 54.4895 1174.26 54.4895H1173.91C1173.91 54.4895 1173.88 54.4895 1173.86 54.4536L1173.46 53.459C1173.46 53.459 1173.46 53.459 1173.44 53.459L1173.31 53.6866C1173.31 53.6866 1173.31 53.6986 1173.31 53.7106V54.4416C1173.31 54.4416 1173.31 54.4656 1173.3 54.4656C1173.3 54.4656 1173.29 54.4775 1173.28 54.4775H1172.95C1172.95 54.4775 1172.93 54.4775 1172.93 54.4656" fill="white"/>
<path d="M1175.41 52.0689L1175.43 52.0569H1175.76C1175.76 52.0569 1175.78 52.0569 1175.78 52.0689C1175.78 52.0689 1175.79 52.0809 1175.79 52.0929V54.4296C1175.79 54.4296 1175.79 54.4536 1175.78 54.4536C1175.78 54.4536 1175.77 54.4655 1175.76 54.4655H1175.43C1175.43 54.4655 1175.41 54.4655 1175.41 54.4536C1175.41 54.4536 1175.4 54.4416 1175.4 54.4296V53.447C1175.4 53.447 1175.4 53.435 1175.39 53.435H1174.94C1174.94 53.435 1174.93 53.435 1174.93 53.447V54.4296C1174.93 54.4296 1174.93 54.4536 1174.92 54.4536C1174.92 54.4536 1174.91 54.4655 1174.89 54.4655H1174.57C1174.57 54.4655 1174.55 54.4655 1174.55 54.4536C1174.55 54.4536 1174.53 54.4416 1174.53 54.4296V52.0929C1174.53 52.0929 1174.53 52.0689 1174.55 52.0689C1174.55 52.0689 1174.56 52.0569 1174.57 52.0569H1174.89C1174.89 52.0569 1174.92 52.0569 1174.92 52.0689C1174.92 52.0689 1174.93 52.0809 1174.93 52.0929V53.0635C1174.93 53.0635 1174.93 53.0755 1174.94 53.0755H1175.39C1175.39 53.0755 1175.4 53.0755 1175.4 53.0635V52.0929C1175.4 52.0929 1175.4 52.0689 1175.41 52.0689Z" fill="white"/>
<path d="M1176.98 54.0821C1176.98 54.0821 1177.05 53.9622 1177.05 53.8664V52.6681C1177.05 52.5842 1177.03 52.5123 1176.98 52.4524C1176.93 52.3924 1176.87 52.3685 1176.79 52.3685C1176.7 52.3685 1176.64 52.3924 1176.6 52.4524C1176.55 52.5123 1176.52 52.5722 1176.52 52.6681V53.8664C1176.52 53.9503 1176.55 54.0222 1176.6 54.0821C1176.64 54.142 1176.7 54.166 1176.79 54.166C1176.87 54.166 1176.93 54.142 1176.98 54.0821ZM1176.33 51.8292C1176.33 51.8292 1176.33 51.8053 1176.33 51.7933L1176.55 51.4338C1176.55 51.4338 1176.57 51.4098 1176.6 51.4098H1176.96C1176.96 51.4098 1176.99 51.4098 1177 51.4338L1177.23 51.7933V51.8172C1177.23 51.8292 1177.22 51.8412 1177.2 51.8412H1176.96C1176.96 51.8412 1176.92 51.8412 1176.91 51.8172L1176.79 51.6015C1176.79 51.6015 1176.78 51.5896 1176.76 51.6015L1176.64 51.8172C1176.64 51.8172 1176.62 51.8412 1176.6 51.8412H1176.36C1176.36 51.8412 1176.33 51.8412 1176.32 51.8412M1176.31 54.3217C1176.19 54.2019 1176.13 54.0461 1176.13 53.8424V52.68C1176.13 52.4763 1176.19 52.3205 1176.31 52.2007C1176.43 52.0809 1176.58 52.021 1176.79 52.021C1176.99 52.021 1177.15 52.0809 1177.27 52.2007C1177.39 52.3205 1177.45 52.4763 1177.45 52.68V53.8424C1177.45 54.0461 1177.39 54.2019 1177.27 54.3217C1177.15 54.4416 1176.98 54.5015 1176.79 54.5015C1176.6 54.5015 1176.43 54.4416 1176.31 54.3217Z" fill="white"/>
<path d="M1178.76 52.0689L1178.79 52.0569H1179.1C1179.1 52.0569 1179.12 52.0569 1179.14 52.0689C1179.14 52.0689 1179.14 52.0809 1179.14 52.0929V54.4536C1179.14 54.4536 1179.11 54.4655 1179.1 54.4655H1178.74C1178.74 54.4655 1178.7 54.4655 1178.69 54.4296L1178.18 52.9676C1178.18 52.9676 1178.18 52.9676 1178.17 52.9676C1178.17 52.9676 1178.17 52.9676 1178.17 52.9796V54.4655C1178.17 54.4655 1178.15 54.4775 1178.14 54.4775H1177.83C1177.83 54.4775 1177.81 54.4775 1177.81 54.4655C1177.81 54.4655 1177.79 54.4536 1177.79 54.4416V52.1048C1177.79 52.1048 1177.79 52.0809 1177.81 52.0809C1177.81 52.0809 1177.82 52.0689 1177.83 52.0689H1178.19C1178.19 52.0689 1178.23 52.0809 1178.24 52.1048L1178.75 53.5668C1178.75 53.5668 1178.75 53.5668 1178.76 53.5668V52.1168C1178.76 52.1168 1178.76 52.0929 1178.78 52.0929" fill="white"/>
<path d="M1179.65 54.3337C1179.53 54.2259 1179.47 54.0701 1179.47 53.8784V52.6561C1179.47 52.4644 1179.53 52.3206 1179.65 52.2007C1179.77 52.0809 1179.93 52.033 1180.12 52.033C1180.31 52.033 1180.48 52.0929 1180.6 52.2007C1180.72 52.3086 1180.78 52.4644 1180.78 52.6561V52.7879C1180.78 52.7879 1180.78 52.8119 1180.77 52.8119L1180.74 52.8239H1180.42C1180.42 52.8239 1180.39 52.8239 1180.39 52.8119C1180.39 52.8119 1180.38 52.7999 1180.38 52.7879V52.6441C1180.38 52.5602 1180.36 52.5003 1180.31 52.4404C1180.26 52.3925 1180.2 52.3685 1180.13 52.3685C1180.06 52.3685 1180 52.3925 1179.95 52.4404C1179.9 52.4883 1179.88 52.5602 1179.88 52.6441V53.8784C1179.88 53.9623 1179.9 54.0222 1179.95 54.0821C1180 54.13 1180.06 54.154 1180.13 54.154C1180.2 54.154 1180.26 54.13 1180.31 54.0821C1180.36 54.0342 1180.38 53.9623 1180.38 53.8784V53.5428C1180.38 53.5428 1180.38 53.5309 1180.37 53.5309H1180.15C1180.15 53.5309 1180.13 53.5309 1180.13 53.5189V53.2193C1180.13 53.2193 1180.14 53.2073 1180.15 53.2073H1180.74C1180.74 53.2073 1180.77 53.2073 1180.77 53.2193C1180.77 53.2193 1180.78 53.2313 1180.78 53.2433V53.8784C1180.78 54.0701 1180.72 54.2139 1180.6 54.3337C1180.48 54.4416 1180.32 54.5015 1180.12 54.5015C1179.91 54.5015 1179.76 54.4416 1179.65 54.3337Z" fill="white"/>
<path d="M1181.92 54.3218C1181.8 54.2019 1181.74 54.0461 1181.74 53.8544V52.6801C1181.74 52.4883 1181.8 52.3206 1181.92 52.2127C1182.04 52.1049 1182.19 52.033 1182.38 52.033C1182.58 52.033 1182.74 52.0929 1182.86 52.2127C1182.98 52.3325 1183.04 52.4883 1183.04 52.6801V52.716C1183.04 52.716 1183.04 52.74 1183.03 52.752C1183.03 52.752 1183.02 52.7639 1183.01 52.7639H1182.68C1182.68 52.7639 1182.65 52.7639 1182.65 52.74V52.6561C1182.65 52.5722 1182.62 52.5123 1182.58 52.4644C1182.53 52.4164 1182.47 52.3925 1182.4 52.3925C1182.32 52.3925 1182.26 52.4164 1182.22 52.4644C1182.17 52.5123 1182.14 52.5842 1182.14 52.6561V53.8904C1182.14 53.9742 1182.17 54.0342 1182.22 54.0941C1182.26 54.142 1182.32 54.166 1182.4 54.166C1182.47 54.166 1182.54 54.142 1182.58 54.0941C1182.62 54.0461 1182.65 53.9742 1182.65 53.8904V53.8065C1182.65 53.8065 1182.65 53.7825 1182.66 53.7825C1182.66 53.7825 1182.67 53.7705 1182.68 53.7705H1183.01L1183.03 53.7945C1183.03 53.7945 1183.04 53.8065 1183.04 53.8185V53.8544C1183.04 54.0461 1182.98 54.2019 1182.86 54.3218C1182.74 54.4416 1182.59 54.5015 1182.38 54.5015C1182.18 54.5015 1182.04 54.4416 1181.92 54.3218Z" fill="white"/>
<path d="M1184.16 54.0821C1184.16 54.0821 1184.23 53.9622 1184.23 53.8664V52.6681C1184.23 52.5842 1184.21 52.5123 1184.16 52.4524C1184.11 52.3924 1184.05 52.3685 1183.97 52.3685C1183.88 52.3685 1183.82 52.3924 1183.77 52.4524C1183.73 52.5123 1183.7 52.5722 1183.7 52.6681V53.8664C1183.7 53.9503 1183.73 54.0222 1183.77 54.0821C1183.82 54.142 1183.88 54.166 1183.97 54.166C1184.05 54.166 1184.11 54.142 1184.16 54.0821ZM1184.1 51.8053C1184.1 51.8053 1184.09 51.8292 1184.06 51.8292H1183.86C1183.86 51.8292 1183.82 51.8292 1183.81 51.8053L1183.56 51.4578V51.4338C1183.56 51.4218 1183.57 51.4098 1183.59 51.4098H1183.85C1183.85 51.4098 1183.88 51.4098 1183.89 51.4338L1184.1 51.7933V51.8172V51.8053ZM1183.5 54.3217C1183.38 54.2019 1183.32 54.0461 1183.32 53.8424V52.68C1183.32 52.4763 1183.38 52.3205 1183.5 52.2007C1183.62 52.0809 1183.77 52.021 1183.98 52.021C1184.18 52.021 1184.34 52.0809 1184.46 52.2007C1184.58 52.3205 1184.64 52.4763 1184.64 52.68V53.8424C1184.64 54.0461 1184.58 54.2019 1184.46 54.3217C1184.34 54.4416 1184.17 54.5015 1183.98 54.5015C1183.79 54.5015 1183.62 54.4416 1183.5 54.3217Z" fill="white"/>
<path d="M1185.95 52.0689C1185.95 52.0689 1185.97 52.0569 1185.98 52.0569H1186.29C1186.29 52.0569 1186.31 52.0569 1186.31 52.0689C1186.31 52.0689 1186.33 52.0809 1186.33 52.0929V54.4296C1186.33 54.4296 1186.33 54.4536 1186.31 54.4536C1186.31 54.4536 1186.3 54.4655 1186.29 54.4655H1185.93C1185.93 54.4655 1185.89 54.4655 1185.88 54.4296L1185.37 52.9676C1185.37 52.9676 1185.37 52.9676 1185.36 52.9676C1185.36 52.9676 1185.36 52.9676 1185.36 52.9796V54.4655L1185.33 54.4775H1185.02C1185.02 54.4775 1185 54.4775 1185 54.4655C1185 54.4655 1184.98 54.4536 1184.98 54.4416V52.1048C1184.98 52.1048 1184.98 52.0809 1185 52.0809C1185 52.0809 1185.01 52.0689 1185.02 52.0689H1185.38C1185.38 52.0689 1185.42 52.0809 1185.43 52.1048L1185.94 53.5668C1185.94 53.5668 1185.94 53.5668 1185.95 53.5668V52.1168C1185.95 52.1168 1185.95 52.0929 1185.97 52.0929" fill="white"/>
<path d="M1173.89 56.2151L1173.91 56.2031H1174.22C1174.22 56.2031 1174.25 56.2031 1174.26 56.2151C1174.26 56.2151 1174.26 56.2271 1174.26 56.2391V58.5997C1174.26 58.5997 1174.23 58.6117 1174.22 58.6117H1173.86C1173.86 58.6117 1173.83 58.6117 1173.82 58.5758L1173.3 57.1138C1173.3 57.1138 1173.3 57.1138 1173.29 57.1138C1173.29 57.1138 1173.29 57.1138 1173.29 57.1258V58.6117C1173.29 58.6117 1173.28 58.6237 1173.26 58.6237H1172.95C1172.95 58.6237 1172.93 58.6237 1172.93 58.6117C1172.93 58.6117 1172.92 58.5997 1172.92 58.5878V56.251C1172.92 56.251 1172.92 56.2271 1172.93 56.2271C1172.93 56.2271 1172.94 56.2151 1172.95 56.2151H1173.31C1173.31 56.2151 1173.35 56.2271 1173.36 56.251L1173.88 57.713C1173.88 57.713 1173.88 57.713 1173.89 57.713V56.263C1173.89 56.263 1173.89 56.2391 1173.9 56.2391" fill="white"/>
<path d="M1175.04 57.8927H1175.42C1175.42 57.8927 1175.44 57.8927 1175.43 57.8808L1175.23 56.7903L1175.04 57.8808C1175.04 57.8808 1175.04 57.8927 1175.05 57.8927M1175.06 59.3307C1175.06 59.3307 1175 59.2349 1175 59.163C1175 59.0911 1175.03 59.0431 1175.06 58.9952C1175.11 58.9473 1175.16 58.9233 1175.23 58.9233C1175.3 58.9233 1175.35 58.9473 1175.4 58.9952C1175.44 59.0431 1175.46 59.0911 1175.46 59.163C1175.46 59.2349 1175.43 59.2828 1175.4 59.3307C1175.35 59.3787 1175.3 59.4026 1175.23 59.4026C1175.16 59.4026 1175.11 59.3787 1175.06 59.3307ZM1175.56 58.5878L1175.49 58.2283C1175.49 58.2283 1175.49 58.2163 1175.47 58.2163H1174.97C1174.97 58.2163 1174.94 58.2163 1174.94 58.2283L1174.87 58.5878C1174.87 58.5878 1174.86 58.6237 1174.82 58.6237H1174.51C1174.51 58.6237 1174.46 58.6117 1174.47 58.5758L1174.99 56.2391C1174.99 56.2391 1175.01 56.2031 1175.04 56.2031H1175.41C1175.41 56.2031 1175.44 56.2151 1175.46 56.2391L1175.97 58.5758C1175.97 58.5758 1175.96 58.6237 1175.94 58.6237H1175.61C1175.61 58.6237 1175.58 58.6117 1175.56 58.5878Z" fill="white"/>
<path d="M1177.2 56.2151L1177.22 56.2031H1177.53C1177.53 56.2031 1177.55 56.2031 1177.57 56.2151C1177.57 56.2151 1177.57 56.2271 1177.57 56.2391V58.5997C1177.57 58.5997 1177.54 58.6117 1177.53 58.6117H1177.17C1177.17 58.6117 1177.14 58.6117 1177.12 58.5758L1176.61 57.1138C1176.61 57.1138 1176.61 57.1138 1176.6 57.1138C1176.6 57.1138 1176.6 57.1138 1176.6 57.1258V58.6117C1176.6 58.6117 1176.58 58.6237 1176.57 58.6237H1176.26C1176.26 58.6237 1176.24 58.6237 1176.24 58.6117C1176.24 58.6117 1176.22 58.5997 1176.22 58.5878V56.251C1176.22 56.251 1176.22 56.2271 1176.24 56.2271C1176.24 56.2271 1176.25 56.2151 1176.26 56.2151H1176.62C1176.62 56.2151 1176.66 56.2271 1176.67 56.251L1177.18 57.713C1177.18 57.713 1177.18 57.713 1177.2 57.713V56.263C1177.2 56.263 1177.2 56.2391 1177.21 56.2391" fill="white"/>
<path d="M1179.63 56.8981C1179.63 56.7903 1179.6 56.7064 1179.56 56.6465C1179.51 56.5866 1179.45 56.5506 1179.36 56.5506H1179.16C1179.16 56.5506 1179.15 56.5506 1179.15 56.5626V57.2217C1179.15 57.2217 1179.15 57.2337 1179.16 57.2337H1179.34C1179.34 57.2337 1179.36 57.2337 1179.36 57.2457C1179.36 57.2457 1179.36 57.2576 1179.36 57.2696V57.4494L1179.34 57.4614H1179.16C1179.16 57.4614 1179.15 57.4614 1179.15 57.4733V58.2403C1179.15 58.2403 1179.15 58.2642 1179.16 58.2642H1179.36C1179.44 58.2642 1179.51 58.2283 1179.54 58.1684C1179.59 58.1085 1179.62 58.0246 1179.62 57.9287V56.8742L1179.63 56.8981ZM1179.86 56.3829C1179.98 56.5027 1180.04 56.6585 1180.04 56.8622V57.9647C1180.04 58.1684 1179.98 58.3242 1179.86 58.444C1179.74 58.5638 1179.58 58.6237 1179.38 58.6237H1178.79C1178.79 58.6237 1178.76 58.6237 1178.76 58.6117C1178.76 58.5998 1178.75 58.5878 1178.75 58.5878V57.4973C1178.75 57.4973 1178.75 57.4853 1178.74 57.4853H1178.68C1178.68 57.4853 1178.66 57.4853 1178.66 57.4733C1178.66 57.4614 1178.64 57.4494 1178.64 57.4494V57.2936C1178.64 57.2936 1178.64 57.2696 1178.66 57.2696C1178.67 57.2696 1178.67 57.2576 1178.68 57.2576H1178.74C1178.74 57.2576 1178.75 57.2576 1178.75 57.2457V56.263C1178.75 56.263 1178.75 56.2391 1178.76 56.2391C1178.78 56.2391 1178.79 56.2271 1178.79 56.2271H1179.38C1179.58 56.2271 1179.74 56.287 1179.86 56.4068" fill="white"/>
<path d="M1180.79 55.9754C1180.79 55.9754 1180.79 55.9515 1180.79 55.9395L1180.99 55.58C1180.99 55.58 1181.02 55.556 1181.04 55.556H1181.29C1181.29 55.556 1181.32 55.556 1181.33 55.568C1181.33 55.568 1181.33 55.592 1181.33 55.604L1181.08 55.9635C1181.08 55.9635 1181.05 55.9874 1181.03 55.9874H1180.84C1180.84 55.9874 1180.81 55.9874 1180.8 55.9754M1181.17 58.2283C1181.17 58.2283 1181.24 58.1085 1181.24 58.0126V56.8143C1181.24 56.7304 1181.22 56.6585 1181.17 56.5986C1181.12 56.5387 1181.06 56.5147 1180.98 56.5147C1180.9 56.5147 1180.84 56.5387 1180.79 56.5986C1180.74 56.6585 1180.72 56.7184 1180.72 56.8143V58.0126C1180.72 58.0965 1180.74 58.1684 1180.79 58.2283C1180.84 58.2882 1180.9 58.3122 1180.98 58.3122C1181.06 58.3122 1181.12 58.2882 1181.17 58.2283ZM1180.5 58.4799C1180.38 58.3601 1180.32 58.2043 1180.32 58.0006V56.8382C1180.32 56.6345 1180.38 56.4787 1180.5 56.3589C1180.62 56.2391 1180.78 56.1792 1180.98 56.1792C1181.18 56.1792 1181.34 56.2391 1181.46 56.3589C1181.58 56.4787 1181.64 56.6345 1181.64 56.8382V58.0006C1181.64 58.2043 1181.58 58.3601 1181.46 58.4799C1181.34 58.5998 1181.17 58.6597 1180.98 58.6597C1180.79 58.6597 1180.62 58.5998 1180.5 58.4799Z" fill="white"/>
<path d="M1181.98 58.6117C1181.98 58.6117 1181.96 58.5998 1181.96 58.5878V56.251C1181.96 56.251 1181.96 56.2271 1181.98 56.2271C1181.98 56.2271 1181.99 56.2151 1182 56.2151H1182.32C1182.32 56.2151 1182.35 56.2151 1182.35 56.2271C1182.35 56.2271 1182.36 56.2391 1182.36 56.251V58.5878C1182.36 58.5878 1182.36 58.6117 1182.35 58.6117C1182.35 58.6117 1182.34 58.6237 1182.32 58.6237H1182C1182 58.6237 1181.98 58.6237 1181.98 58.6117Z" fill="white"/>
<path d="M1248 47H1208V87H1248V47Z" fill="#4C9E45"/>
<path d="M1213.71 58.5193C1215.07 58.5193 1215.67 57.7881 1215.67 56.6733V55.4867C1215.67 54.7555 1215.35 54.276 1214.68 54.1202C1215.24 53.9404 1215.6 53.4849 1215.6 52.8136V52.1184C1215.6 50.9796 1215.05 50.2724 1213.8 50.2724C1212.4 50.2724 1211.91 51.0995 1211.91 52.2982V53.0174H1213.14V52.1903C1213.14 51.6868 1213.3 51.4111 1213.73 51.4111C1214.16 51.4111 1214.32 51.6988 1214.32 52.1423V53.0054C1214.32 53.4369 1214.03 53.6647 1213.6 53.6647H1213.08V54.6955H1213.66C1214.14 54.6955 1214.33 54.9233 1214.33 55.3548V56.6853C1214.33 57.1169 1214.14 57.4165 1213.72 57.4165C1213.25 57.4165 1213.08 57.1049 1213.08 56.6254V55.4747H1211.85V56.5295C1211.85 57.7522 1212.34 58.5433 1213.72 58.5433" fill="white"/>
<path d="M1241.43 71.9925C1241.43 70.8658 1240.71 69.9548 1239.62 69.9548C1239.07 69.9548 1238.41 70.5541 1238.05 70.9257C1237.69 70.5541 1237.08 69.9548 1236.53 69.9548C1235.44 69.9548 1234.67 70.8658 1234.67 71.9925C1234.67 72.5559 1234.9 73.0593 1235.25 73.4309L1238.05 76.2358L1240.86 73.4309C1241.22 73.0593 1241.43 72.5559 1241.43 71.9925Z" fill="white"/>
<path d="M1229.49 80.8388H1229.47C1229.25 80.8268 1229.09 80.671 1229.04 80.4552L1227.61 72.1603L1225.45 76.1639C1225.36 76.3437 1225.17 76.4396 1224.97 76.4036C1224.78 76.3677 1224.63 76.2119 1224.6 76.0201L1223.69 69.6191L1222.01 73.383C1221.94 73.5508 1221.77 73.6587 1221.59 73.6587H1215.08C1214.83 73.6587 1214.63 73.4549 1214.63 73.1912C1214.63 72.9275 1214.83 72.7357 1215.08 72.7357H1221.29L1223.5 67.7851C1223.58 67.5933 1223.78 67.4855 1223.98 67.5094C1224.18 67.5334 1224.34 67.7012 1224.37 67.905L1225.32 74.5097L1227.46 70.5661C1227.55 70.3863 1227.74 70.3024 1227.93 70.3263C1228.13 70.3623 1228.28 70.5061 1228.32 70.6979L1229.64 78.3815L1234.44 62.415C1234.5 62.2352 1234.66 62.1034 1234.85 62.0914C1235.04 62.0794 1235.22 62.1753 1235.31 62.3551L1237.84 67.6053C1237.94 67.8331 1237.85 68.1088 1237.62 68.2167C1237.39 68.3245 1237.12 68.2286 1237.01 68.0009L1234.99 63.8295L1229.96 80.5391C1229.9 80.7309 1229.72 80.8627 1229.52 80.8627" fill="white"/>
<path d="M1219.87 54.252C1219.75 54.1322 1219.69 53.9763 1219.69 53.7845V52.6098C1219.69 52.4061 1219.75 52.2502 1219.87 52.1424C1219.99 52.0345 1220.14 51.9625 1220.33 51.9625C1220.53 51.9625 1220.69 52.0225 1220.81 52.1424C1220.93 52.2622 1220.99 52.418 1220.99 52.6098V52.6458C1220.99 52.6458 1220.99 52.6698 1220.98 52.6818C1220.98 52.6818 1220.97 52.6937 1220.96 52.6937H1220.63C1220.63 52.6937 1220.6 52.6937 1220.6 52.6698V52.5859C1220.6 52.502 1220.57 52.442 1220.53 52.3821C1220.48 52.3341 1220.42 52.3102 1220.35 52.3102C1220.27 52.3102 1220.21 52.3341 1220.17 52.3821C1220.12 52.43 1220.09 52.502 1220.09 52.5859V53.8205C1220.09 53.9044 1220.12 53.9643 1220.17 54.0243C1220.21 54.0722 1220.27 54.0962 1220.35 54.0962C1220.42 54.0962 1220.48 54.0722 1220.53 54.0243C1220.57 53.9763 1220.6 53.9044 1220.6 53.8205V53.7366C1220.6 53.7366 1220.6 53.7126 1220.61 53.7126C1220.61 53.7126 1220.62 53.7006 1220.63 53.7006H1220.96L1220.98 53.7246C1220.98 53.7246 1220.99 53.7366 1220.99 53.7486V53.7965C1220.99 53.9883 1220.93 54.1441 1220.81 54.264C1220.69 54.3839 1220.54 54.4438 1220.33 54.4438C1220.13 54.4438 1219.97 54.3839 1219.87 54.264" fill="white"/>
<path d="M1221.47 54.24C1221.35 54.1082 1221.29 53.9404 1221.29 53.7366V51.9985C1221.29 51.9985 1221.31 51.9865 1221.33 51.9865H1221.64C1221.64 51.9865 1221.66 51.9865 1221.66 51.9985C1221.66 51.9985 1221.68 52.0105 1221.68 52.0225V53.7725C1221.68 53.8684 1221.7 53.9404 1221.75 54.0003C1221.8 54.0602 1221.86 54.0842 1221.93 54.0842C1222 54.0842 1222.06 54.0602 1222.11 54.0003C1222.16 53.9404 1222.18 53.8684 1222.18 53.7725V52.0225C1222.18 52.0225 1222.18 51.9985 1222.19 51.9985C1222.19 51.9985 1222.2 51.9865 1222.22 51.9865H1222.54C1222.54 51.9865 1222.56 51.9865 1222.56 51.9985C1222.56 52.0105 1222.58 52.0105 1222.58 52.0225V53.7366C1222.58 53.9523 1222.52 54.1202 1222.4 54.24C1222.28 54.3599 1222.12 54.4318 1221.92 54.4318C1221.71 54.4318 1221.56 54.3719 1221.44 54.24" fill="white"/>
<path d="M1223.39 55.1151C1223.39 55.1151 1223.33 55.0192 1223.33 54.9473C1223.33 54.8753 1223.36 54.8274 1223.39 54.7794C1223.44 54.7315 1223.49 54.7075 1223.56 54.7075C1223.63 54.7075 1223.68 54.7315 1223.73 54.7794C1223.77 54.8274 1223.8 54.8753 1223.8 54.9473C1223.8 55.0192 1223.77 55.0671 1223.73 55.1151C1223.68 55.163 1223.63 55.187 1223.56 55.187C1223.49 55.187 1223.44 55.163 1223.39 55.1151ZM1223.74 54.0123C1223.74 54.0123 1223.81 53.8804 1223.81 53.7965V52.5978C1223.81 52.5139 1223.79 52.442 1223.74 52.3821C1223.69 52.3221 1223.63 52.2982 1223.55 52.2982C1223.46 52.2982 1223.4 52.3221 1223.36 52.3821C1223.31 52.442 1223.28 52.5019 1223.28 52.5978V53.7965C1223.28 53.8804 1223.31 53.9523 1223.36 54.0123C1223.4 54.0722 1223.46 54.0962 1223.55 54.0962C1223.63 54.0962 1223.69 54.0722 1223.74 54.0123ZM1223.09 51.7588C1223.09 51.7588 1223.09 51.7348 1223.09 51.7228L1223.31 51.3632C1223.31 51.3632 1223.33 51.3392 1223.36 51.3392H1223.71C1223.71 51.3392 1223.75 51.3392 1223.76 51.3632L1223.99 51.7228V51.7468C1223.99 51.7588 1223.99 51.7707 1223.95 51.7707H1223.71C1223.71 51.7707 1223.68 51.7707 1223.67 51.7468L1223.55 51.531C1223.55 51.531 1223.54 51.531 1223.52 51.531L1223.4 51.7468C1223.4 51.7468 1223.38 51.7707 1223.36 51.7707H1223.12C1223.12 51.7707 1223.09 51.7707 1223.08 51.7588M1223.07 54.252C1222.95 54.1321 1222.89 53.9763 1222.89 53.7725V52.6098C1222.89 52.406 1222.95 52.2502 1223.07 52.1304C1223.19 52.0105 1223.34 51.9505 1223.55 51.9505C1223.75 51.9505 1223.91 52.0105 1224.03 52.1304C1224.15 52.2502 1224.21 52.406 1224.21 52.6098V53.7725C1224.21 53.9763 1224.15 54.1321 1224.03 54.252C1223.91 54.3719 1223.74 54.4318 1223.55 54.4318C1223.36 54.4318 1223.19 54.3719 1223.07 54.252Z" fill="white"/>
<path d="M1224.67 54.252C1224.55 54.1322 1224.49 53.9763 1224.49 53.7845V52.6098C1224.49 52.4061 1224.55 52.2502 1224.67 52.1424C1224.79 52.0345 1224.95 51.9625 1225.14 51.9625C1225.33 51.9625 1225.5 52.0225 1225.62 52.1424C1225.74 52.2622 1225.8 52.418 1225.8 52.6098V52.6458C1225.8 52.6458 1225.8 52.6698 1225.79 52.6818C1225.79 52.6818 1225.78 52.6937 1225.76 52.6937H1225.44C1225.44 52.6937 1225.4 52.6937 1225.4 52.6698V52.5859C1225.4 52.502 1225.38 52.442 1225.33 52.3821C1225.28 52.3341 1225.22 52.3102 1225.15 52.3102C1225.08 52.3102 1225.02 52.3341 1224.97 52.3821C1224.93 52.43 1224.9 52.502 1224.9 52.5859V53.8205C1224.9 53.9044 1224.93 53.9643 1224.97 54.0243C1225.02 54.0722 1225.08 54.0962 1225.15 54.0962C1225.22 54.0962 1225.28 54.0722 1225.33 54.0243C1225.38 53.9763 1225.4 53.9044 1225.4 53.8205V53.7366C1225.4 53.7366 1225.4 53.7126 1225.42 53.7126C1225.42 53.7126 1225.43 53.7006 1225.44 53.7006H1225.76L1225.79 53.7246C1225.79 53.7246 1225.8 53.7366 1225.8 53.7486V53.7965C1225.8 53.9883 1225.74 54.1441 1225.62 54.264C1225.5 54.3839 1225.34 54.4438 1225.14 54.4438C1224.94 54.4438 1224.78 54.3839 1224.67 54.264" fill="white"/>
<path d="M1226.9 54.264C1226.78 54.1441 1226.72 54.0003 1226.72 53.8085V53.7246C1226.72 53.7246 1226.72 53.7006 1226.72 53.6886C1226.72 53.6886 1226.74 53.6767 1226.76 53.6767H1227.07C1227.07 53.6767 1227.1 53.6767 1227.1 53.6886C1227.1 53.6886 1227.11 53.7126 1227.11 53.7246V53.7965C1227.11 53.8924 1227.13 53.9643 1227.18 54.0123C1227.23 54.0722 1227.29 54.0962 1227.36 54.0962C1227.43 54.0962 1227.49 54.0722 1227.54 54.0123C1227.59 53.9643 1227.61 53.8924 1227.61 53.8085C1227.61 53.7486 1227.6 53.7006 1227.57 53.6527C1227.55 53.6047 1227.51 53.5688 1227.47 53.5328C1227.42 53.4969 1227.35 53.4369 1227.24 53.365C1227.12 53.2811 1227.04 53.2092 1226.96 53.1492C1226.89 53.0893 1226.83 53.0054 1226.78 52.9215C1226.74 52.8256 1226.71 52.7297 1226.71 52.6098C1226.71 52.418 1226.77 52.2622 1226.89 52.1543C1227.01 52.0464 1227.16 51.9865 1227.35 51.9865C1227.54 51.9865 1227.69 52.0464 1227.81 52.1663C1227.93 52.2862 1227.99 52.442 1227.99 52.6338V52.7417C1227.99 52.7417 1227.98 52.7417 1227.97 52.7417H1227.63L1227.62 52.7177V52.6218C1227.62 52.5379 1227.6 52.454 1227.55 52.4061C1227.5 52.3581 1227.44 52.3221 1227.37 52.3221C1227.3 52.3221 1227.24 52.3461 1227.2 52.3941C1227.16 52.442 1227.13 52.5139 1227.13 52.5978C1227.13 52.6817 1227.16 52.7537 1227.2 52.8136C1227.25 52.8735 1227.35 52.9455 1227.48 53.0533C1227.62 53.1612 1227.73 53.2451 1227.8 53.3051C1227.87 53.377 1227.93 53.4489 1227.97 53.5208C1228.01 53.6047 1228.03 53.6886 1228.03 53.7965C1228.03 53.9883 1227.97 54.1441 1227.85 54.264C1227.73 54.3839 1227.57 54.4438 1227.38 54.4438C1227.19 54.4438 1227.04 54.3839 1226.92 54.276" fill="white"/>
<path d="M1229.34 51.4831C1229.34 51.4831 1229.34 51.4591 1229.34 51.4471L1229.54 51.0875C1229.54 51.0875 1229.56 51.0635 1229.59 51.0635H1229.84C1229.84 51.0635 1229.86 51.0635 1229.88 51.0755C1229.88 51.0755 1229.88 51.0995 1229.88 51.1115L1229.62 51.4711C1229.62 51.4711 1229.6 51.4951 1229.58 51.4951H1229.37C1229.37 51.4951 1229.35 51.4951 1229.34 51.4831ZM1229.1 54.0123C1229.1 54.0123 1229.17 53.8804 1229.17 53.7965V52.5979C1229.17 52.5139 1229.15 52.442 1229.1 52.3821C1229.05 52.3222 1228.99 52.2982 1228.91 52.2982C1228.82 52.2982 1228.76 52.3222 1228.71 52.3821C1228.67 52.442 1228.64 52.502 1228.64 52.5979V53.7965C1228.64 53.8804 1228.67 53.9524 1228.71 54.0123C1228.76 54.0722 1228.82 54.0962 1228.91 54.0962C1228.99 54.0962 1229.05 54.0722 1229.1 54.0123ZM1228.44 51.7588C1228.44 51.7588 1228.44 51.7348 1228.44 51.7228L1228.65 51.3632C1228.65 51.3632 1228.68 51.3392 1228.7 51.3392H1229.06C1229.06 51.3392 1229.1 51.3392 1229.11 51.3632L1229.34 51.7228V51.7468C1229.34 51.7588 1229.34 51.7708 1229.3 51.7708H1229.06C1229.06 51.7708 1229.03 51.7708 1229.01 51.7468L1228.89 51.531C1228.89 51.531 1228.88 51.531 1228.87 51.531L1228.75 51.7468C1228.75 51.7468 1228.73 51.7708 1228.7 51.7708H1228.46C1228.46 51.7708 1228.44 51.7708 1228.43 51.7588M1228.43 54.252C1228.31 54.1322 1228.25 53.9763 1228.25 53.7726V52.6098C1228.25 52.4061 1228.31 52.2502 1228.43 52.1304C1228.55 52.0105 1228.7 51.9506 1228.91 51.9506C1229.11 51.9506 1229.26 52.0105 1229.38 52.1304C1229.5 52.2502 1229.56 52.4061 1229.56 52.6098V53.7726C1229.56 53.9763 1229.5 54.1322 1229.38 54.252C1229.26 54.3719 1229.1 54.4318 1228.91 54.4318C1228.71 54.4318 1228.55 54.3719 1228.43 54.252Z" fill="white"/>
<path d="M1230.88 51.9985C1230.88 51.9985 1230.9 51.9865 1230.92 51.9865H1231.23C1231.23 51.9865 1231.25 51.9865 1231.27 51.9985C1231.28 52.0105 1231.27 52.0105 1231.27 52.0225V54.3839C1231.27 54.3839 1231.25 54.3959 1231.23 54.3959H1230.87C1230.87 54.3959 1230.84 54.3959 1230.82 54.3599L1230.31 52.8975C1230.31 52.8975 1230.31 52.8975 1230.31 52.9095V54.3959C1230.31 54.3959 1230.3 54.4078 1230.27 54.4078H1229.96C1229.96 54.4078 1229.94 54.4078 1229.92 54.3959C1229.91 54.3839 1229.91 54.3839 1229.91 54.3719V52.0345C1229.91 52.0345 1229.91 52.0105 1229.92 52.0105C1229.94 52.0105 1229.94 51.9985 1229.96 51.9985H1230.32C1230.32 51.9985 1230.36 52.0105 1230.37 52.0345L1230.88 53.4969C1230.88 53.4969 1230.88 53.4969 1230.9 53.4969C1230.9 53.4969 1230.9 53.4969 1230.9 53.4849V52.0105" fill="white"/>
<path d="M1231.77 54.264C1231.65 54.1561 1231.59 54.0003 1231.59 53.8085V52.5859C1231.59 52.3941 1231.65 52.2502 1231.77 52.1304C1231.89 52.0225 1232.05 51.9625 1232.24 51.9625C1232.43 51.9625 1232.6 52.0225 1232.72 52.1304C1232.84 52.2502 1232.9 52.3941 1232.9 52.5859V52.7177C1232.9 52.7177 1232.9 52.7417 1232.88 52.7417C1232.88 52.7417 1232.87 52.7537 1232.86 52.7537H1232.54C1232.54 52.7537 1232.51 52.7537 1232.51 52.7417C1232.51 52.7297 1232.51 52.7177 1232.51 52.7177V52.5739C1232.51 52.49 1232.49 52.43 1232.44 52.3701C1232.39 52.3222 1232.33 52.2982 1232.26 52.2982C1232.19 52.2982 1232.12 52.3222 1232.08 52.3701C1232.03 52.418 1232.01 52.49 1232.01 52.5739V53.8085C1232.01 53.8924 1232.03 53.9643 1232.08 54.0123C1232.13 54.0602 1232.19 54.0842 1232.26 54.0842C1232.33 54.0842 1232.39 54.0602 1232.44 54.0123C1232.49 53.9643 1232.51 53.8924 1232.51 53.8085V53.4729C1232.51 53.4729 1232.51 53.4609 1232.49 53.4609H1232.27C1232.27 53.4609 1232.25 53.4609 1232.25 53.4489L1232.24 53.4249V53.1732C1232.24 53.1732 1232.24 53.1492 1232.25 53.1492C1232.25 53.1492 1232.26 53.1373 1232.27 53.1373H1232.86C1232.86 53.1373 1232.88 53.1373 1232.88 53.1492C1232.88 53.1492 1232.9 53.1612 1232.9 53.1732V53.8085C1232.9 54.0003 1232.84 54.1441 1232.72 54.264C1232.6 54.3719 1232.44 54.4318 1232.24 54.4318C1232.03 54.4318 1231.88 54.3719 1231.77 54.264Z" fill="white"/>
<path d="M1219.75 58.5433C1219.75 58.5433 1219.75 58.5313 1219.75 58.5193V56.1579C1219.75 56.1579 1219.76 56.1459 1219.78 56.1459H1220.09C1220.09 56.1459 1220.12 56.1459 1220.12 56.1579C1220.12 56.1579 1220.13 56.1699 1220.13 56.1819V57.1528C1220.13 57.1528 1220.13 57.1528 1220.14 57.1528L1220.66 56.1819C1220.66 56.1819 1220.68 56.1459 1220.71 56.1459H1221.05C1221.05 56.1459 1221.08 56.1459 1221.09 56.1579C1221.09 56.1579 1221.09 56.1819 1221.09 56.1939L1220.57 57.1648C1220.57 57.1648 1220.57 57.1768 1220.57 57.1888L1221.14 58.5193C1221.14 58.5193 1221.14 58.5193 1221.14 58.5433C1221.14 58.5673 1221.14 58.5673 1221.1 58.5673H1220.75C1220.75 58.5673 1220.72 58.5673 1220.71 58.5313L1220.3 57.5364C1220.3 57.5364 1220.3 57.5364 1220.29 57.5364L1220.15 57.7642C1220.15 57.7642 1220.15 57.7761 1220.15 57.7881V58.5193C1220.15 58.5193 1220.15 58.5433 1220.14 58.5433C1220.14 58.5433 1220.13 58.5553 1220.12 58.5553H1219.81C1219.81 58.5553 1219.78 58.5553 1219.77 58.5433" fill="white"/>
<path d="M1222.26 56.1459C1222.26 56.1459 1222.28 56.1339 1222.3 56.1339H1222.61C1222.61 56.1339 1222.64 56.1339 1222.64 56.1459C1222.64 56.1459 1222.65 56.1579 1222.65 56.1699V58.5073C1222.65 58.5073 1222.65 58.5313 1222.64 58.5313C1222.64 58.5313 1222.62 58.5433 1222.61 58.5433H1222.3C1222.3 58.5433 1222.28 58.5433 1222.26 58.5313C1222.26 58.5313 1222.26 58.5193 1222.26 58.5073V57.5244C1222.26 57.5244 1222.26 57.5004 1222.24 57.5004H1221.8C1221.8 57.5004 1221.78 57.5004 1221.78 57.5244V58.5073C1221.78 58.5073 1221.78 58.5313 1221.77 58.5313C1221.77 58.5313 1221.76 58.5433 1221.75 58.5433H1221.43C1221.43 58.5433 1221.4 58.5433 1221.4 58.5313C1221.4 58.5313 1221.39 58.5193 1221.39 58.5073V56.1699C1221.39 56.1699 1221.39 56.1459 1221.4 56.1459C1221.4 56.1459 1221.41 56.1339 1221.43 56.1339H1221.75C1221.75 56.1339 1221.77 56.1339 1221.77 56.1459C1221.77 56.1459 1221.78 56.1579 1221.78 56.1699V57.1408C1221.78 57.1408 1221.78 57.1528 1221.8 57.1528H1222.24C1222.24 57.1528 1222.26 57.1528 1222.26 57.1408V56.1459Z" fill="white"/>
<path d="M1223.82 58.1597C1223.82 58.1597 1223.89 58.0279 1223.89 57.944V56.7453C1223.89 56.6614 1223.87 56.5895 1223.82 56.5295C1223.77 56.4696 1223.71 56.4456 1223.63 56.4456C1223.55 56.4456 1223.49 56.4696 1223.44 56.5295C1223.39 56.5895 1223.37 56.6494 1223.37 56.7453V57.944C1223.37 58.0279 1223.39 58.0998 1223.44 58.1597C1223.49 58.2197 1223.55 58.2436 1223.63 58.2436C1223.71 58.2436 1223.77 58.2197 1223.82 58.1597ZM1223.57 55.9422C1223.57 55.9422 1223.63 55.8343 1223.68 55.7744C1223.7 55.7504 1223.73 55.7264 1223.74 55.7024C1223.74 55.6785 1223.75 55.6545 1223.75 55.6185C1223.75 55.5946 1223.75 55.5706 1223.71 55.5466C1223.69 55.5226 1223.67 55.5226 1223.64 55.5226C1223.61 55.5226 1223.58 55.5226 1223.56 55.5466C1223.53 55.5586 1223.51 55.5946 1223.47 55.6305C1223.47 55.6425 1223.45 55.6545 1223.44 55.6545C1223.44 55.6545 1223.43 55.6545 1223.42 55.6545L1223.33 55.5826C1223.33 55.5826 1223.31 55.5466 1223.33 55.5226C1223.38 55.4507 1223.43 55.4028 1223.47 55.3788C1223.52 55.3548 1223.58 55.3308 1223.67 55.3308C1223.76 55.3308 1223.85 55.3548 1223.91 55.4148C1223.97 55.4747 1223.99 55.5346 1223.99 55.6305C1223.99 55.6785 1223.98 55.7264 1223.95 55.7624C1223.93 55.7983 1223.89 55.8343 1223.86 55.8822C1223.81 55.9302 1223.79 55.9661 1223.76 55.9901C1223.76 56.0141 1223.74 56.0261 1223.7 56.0141L1223.61 55.9901C1223.61 55.9901 1223.57 55.9661 1223.58 55.9422M1223.15 58.4115C1223.03 58.2916 1222.97 58.1358 1222.97 57.932V56.7693C1222.97 56.5655 1223.03 56.4097 1223.15 56.2898C1223.27 56.1699 1223.43 56.11 1223.63 56.11C1223.83 56.11 1223.99 56.1699 1224.11 56.2898C1224.23 56.4097 1224.29 56.5655 1224.29 56.7693V57.932C1224.29 58.1358 1224.23 58.2916 1224.11 58.4115C1223.99 58.5313 1223.82 58.5913 1223.63 58.5913C1223.44 58.5913 1223.27 58.5313 1223.15 58.4115Z" fill="white"/>
<path d="M1225.81 56.4696C1225.81 56.4696 1225.8 56.4816 1225.78 56.4816H1225.03C1225.03 56.4816 1225.02 56.4816 1225.02 56.4936V57.1528C1225.02 57.1528 1225.02 57.1648 1225.03 57.1648H1225.48C1225.48 57.1648 1225.5 57.1648 1225.5 57.1768L1225.51 57.2008V57.4645C1225.51 57.4645 1225.51 57.4885 1225.5 57.4885C1225.49 57.4885 1225.49 57.5005 1225.48 57.5005H1225.03C1225.03 57.5005 1225.02 57.5005 1225.02 57.5124V58.1717C1225.02 58.1717 1225.02 58.1837 1225.03 58.1837H1225.78C1225.78 58.1837 1225.8 58.1837 1225.81 58.1957C1225.81 58.1957 1225.81 58.2197 1225.81 58.2317V58.5193C1225.81 58.5193 1225.8 58.5313 1225.78 58.5313H1224.65C1224.65 58.5313 1224.63 58.5313 1224.63 58.5193C1224.63 58.5193 1224.61 58.5073 1224.61 58.4954V56.1579C1224.61 56.1579 1224.61 56.134 1224.63 56.134C1224.63 56.134 1224.64 56.122 1224.65 56.122H1225.78C1225.78 56.122 1225.8 56.122 1225.81 56.134C1225.81 56.134 1225.81 56.1459 1225.81 56.1579V56.4456" fill="white"/>
<path d="M1227.93 56.1339H1228.26C1228.26 56.1339 1228.28 56.1339 1228.28 56.1459C1228.28 56.1579 1228.28 56.1579 1228.28 56.1699V58.5313C1228.28 58.5313 1228.27 58.5433 1228.26 58.5433H1227.93C1227.93 58.5433 1227.91 58.5433 1227.9 58.5313C1227.9 58.5313 1227.9 58.5193 1227.9 58.5073V56.8651C1227.9 56.8651 1227.9 56.8651 1227.89 56.8651L1227.59 57.4045C1227.59 57.4045 1227.56 57.4285 1227.55 57.4285C1227.54 57.4285 1227.53 57.4285 1227.51 57.4045L1227.22 56.8651C1227.22 56.8651 1227.22 56.8651 1227.2 56.8651C1227.2 56.8651 1227.2 56.8651 1227.2 56.8771V58.5313C1227.2 58.5313 1227.19 58.5433 1227.17 58.5433H1226.86C1226.86 58.5433 1226.83 58.5433 1226.82 58.5313C1226.81 58.5193 1226.82 58.5193 1226.82 58.5073V56.1459C1226.82 56.1459 1226.84 56.1339 1226.86 56.1339H1227.17C1227.17 56.1339 1227.2 56.1339 1227.22 56.1579L1227.55 56.7453C1227.55 56.7453 1227.56 56.7453 1227.57 56.7453L1227.9 56.1579C1227.9 56.1579 1227.92 56.1339 1227.95 56.1339" fill="white"/>
<path d="M1229.05 57.8241H1229.43C1229.43 57.8241 1229.46 57.8241 1229.44 57.8121L1229.24 56.7213L1229.05 57.8121C1229.05 57.8121 1229.05 57.8241 1229.06 57.8241M1229.08 59.2625C1229.08 59.2625 1229.01 59.1666 1229.01 59.0947C1229.01 59.0228 1229.04 58.9748 1229.08 58.9269C1229.13 58.8789 1229.18 58.8549 1229.25 58.8549C1229.32 58.8549 1229.37 58.8789 1229.42 58.9269C1229.47 58.9748 1229.48 59.0228 1229.48 59.0947C1229.48 59.1666 1229.46 59.2146 1229.42 59.2625C1229.37 59.3104 1229.32 59.3344 1229.25 59.3344C1229.18 59.3344 1229.13 59.3104 1229.08 59.2625ZM1229.59 58.5193L1229.52 58.1597C1229.52 58.1597 1229.52 58.1357 1229.49 58.1357H1228.99C1228.99 58.1357 1228.97 58.1357 1228.97 58.1597L1228.91 58.5193C1228.91 58.5193 1228.89 58.5553 1228.86 58.5553H1228.55C1228.55 58.5553 1228.5 58.5433 1228.51 58.5073L1229.03 56.1699C1229.03 56.1699 1229.05 56.1339 1229.07 56.1339H1229.44C1229.44 56.1339 1229.48 56.1459 1229.49 56.1699L1230.01 58.5073C1230.01 58.5073 1230 58.5553 1229.97 58.5553H1229.65C1229.65 58.5553 1229.61 58.5433 1229.6 58.5193" fill="white"/>
<path d="M1231.21 56.1459C1231.21 56.1459 1231.22 56.1339 1231.24 56.1339H1231.55C1231.55 56.1339 1231.58 56.1339 1231.59 56.1459C1231.6 56.1579 1231.59 56.1579 1231.59 56.1699V58.5313C1231.59 58.5313 1231.58 58.5433 1231.55 58.5433H1231.19C1231.19 58.5433 1231.16 58.5433 1231.15 58.5073L1230.63 57.0449C1230.63 57.0449 1230.63 57.0449 1230.63 57.0569V58.5433C1230.63 58.5433 1230.62 58.5553 1230.59 58.5553H1230.28C1230.28 58.5553 1230.26 58.5553 1230.25 58.5433C1230.24 58.5313 1230.24 58.5313 1230.24 58.5193V56.1819C1230.24 56.1819 1230.24 56.1579 1230.25 56.1579C1230.26 56.1579 1230.26 56.1459 1230.28 56.1459H1230.64C1230.64 56.1459 1230.68 56.1579 1230.69 56.1819L1231.21 57.6443C1231.21 57.6443 1231.21 57.6443 1231.22 57.6443V56.1699" fill="white"/>
<path d="M1232.85 56.1459C1232.85 56.1459 1232.86 56.1339 1232.88 56.1339H1233.2C1233.2 56.1339 1233.22 56.1339 1233.22 56.1459C1233.22 56.1459 1233.23 56.1579 1233.23 56.1699V58.5073C1233.23 58.5073 1233.23 58.5313 1233.22 58.5313C1233.22 58.5313 1233.21 58.5433 1233.2 58.5433H1232.88C1232.88 58.5433 1232.86 58.5433 1232.85 58.5313C1232.85 58.5313 1232.85 58.5193 1232.85 58.5073V57.5244C1232.85 57.5244 1232.85 57.5004 1232.82 57.5004H1232.38C1232.38 57.5004 1232.37 57.5004 1232.37 57.5244V58.5073C1232.37 58.5073 1232.37 58.5313 1232.36 58.5313C1232.36 58.5313 1232.35 58.5433 1232.33 58.5433H1232.01C1232.01 58.5433 1231.99 58.5433 1231.99 58.5313C1231.99 58.5313 1231.97 58.5193 1231.97 58.5073V56.1699C1231.97 56.1699 1231.97 56.1459 1231.99 56.1459C1231.99 56.1459 1232 56.1339 1232.01 56.1339H1232.33C1232.33 56.1339 1232.36 56.1339 1232.36 56.1459C1232.36 56.1459 1232.37 56.1579 1232.37 56.1699V57.1408C1232.37 57.1408 1232.37 57.1528 1232.38 57.1528H1232.82C1232.82 57.1528 1232.85 57.1528 1232.85 57.1408V56.1459Z" fill="white"/>
<path d="M1294 47H1254V87H1294V47Z" fill="#BF8D2C"/>
<path d="M1257.99 52.2486H1258V58.42H1259.37V50.3553H1258.28L1257.03 51.8172V53.2433H1257.05L1257.99 52.2486Z" fill="white"/>
<path d="M1260.17 52.021V52.9916H1261.41V51.985C1261.41 51.4937 1261.65 51.3499 1261.94 51.3499C1262.2 51.3499 1262.43 51.4577 1262.43 51.961V52.6321C1262.43 53.3032 1262.37 53.5548 1261.92 54.0222L1261.16 54.837C1260.42 55.6279 1260.15 56.1432 1260.15 56.9461V58.432H1263.67V57.3295H1261.44V56.9461C1261.44 56.311 1261.67 56.0833 1262.02 55.7118L1262.88 54.8011C1263.58 54.0461 1263.73 53.5788 1263.73 52.7639V51.973C1263.73 50.8226 1263.17 50.2714 1261.96 50.2714C1260.75 50.2714 1260.16 50.9065 1260.16 52.0329" fill="white"/>
<path d="M1284.96 68.414C1283.33 67.1318 1281.38 66.988 1280.61 66.988C1280.2 66.988 1279.83 67.024 1279.56 67.0839L1279.45 67.1078C1278.42 67.3475 1276.68 67.7549 1274.67 70.2594L1274.61 70.3313C1274.61 70.3313 1274.56 70.4272 1274.56 70.4871C1274.56 70.535 1274.57 70.571 1274.59 70.6189L1274.64 70.6908C1274.98 71.2421 1275.25 71.7334 1275.47 72.1408C1275.55 72.2966 1275.76 72.3445 1275.9 72.2007C1275.91 72.1887 1275.92 72.1648 1275.94 72.1528C1277.67 69.7442 1279.04 69.4326 1279.94 69.2169L1280.05 69.1929C1280.17 69.169 1280.37 69.145 1280.6 69.145C1281.02 69.145 1282.48 69.2169 1283.61 70.1156C1284.61 70.9185 1285.13 72.1887 1285.13 73.9023C1285.13 76.7783 1283.74 77.9047 1282.56 78.3361C1282.12 78.5039 1281.64 78.5878 1281.14 78.5878C1279.94 78.5878 1279 78.1084 1278.99 78.0965L1278.91 78.0605C1277.9 77.6291 1276.4 76.7184 1274.99 73.8664C1272.09 68.0306 1269.64 67.4793 1268.02 67.1078L1267.94 67.0839C1267.82 67.0599 1267.47 66.988 1266.9 66.988C1265.96 66.988 1264.17 67.1678 1262.62 68.402C1261.56 69.2409 1260.31 70.8706 1260.31 73.8784C1260.31 75.7118 1260.68 76.9221 1261.65 78.1923C1261.83 78.444 1263.52 80.6129 1266.75 80.6129C1267.23 80.6129 1267.73 80.565 1268.23 80.4691C1268.82 80.3613 1269.73 80.0617 1270.75 79.3188L1271.6 80.0857C1271.69 80.1696 1271.86 80.1576 1271.94 80.0737C1271.99 80.0258 1272 79.9658 1272 79.9179L1272.66 75.8676V75.8197C1272.66 75.7478 1272.63 75.6878 1272.58 75.6399C1272.53 75.604 1272.48 75.58 1272.41 75.58L1268.47 76.6705H1268.4C1268.4 76.6705 1268.3 76.7184 1268.28 76.7543C1268.23 76.8023 1268.2 76.8622 1268.22 76.9341C1268.22 76.994 1268.25 77.0659 1268.3 77.1019L1269.12 77.8448C1268.68 78.1084 1268.25 78.2882 1267.83 78.3601C1267.47 78.432 1267.13 78.4679 1266.79 78.4679C1264.56 78.4679 1263.46 77.006 1263.41 76.9341L1263.39 76.8981C1262.7 76.0114 1262.47 75.2445 1262.47 73.8904C1262.47 72.1648 1262.98 70.8945 1263.97 70.1037C1265.08 69.2289 1266.5 69.157 1266.91 69.157C1267.14 69.157 1267.34 69.169 1267.47 69.2049L1267.56 69.2289C1268.85 69.5165 1270.61 69.9239 1273.07 74.837C1274.37 77.4374 1275.98 79.139 1278.03 80.0258C1278.27 80.1456 1279.53 80.7448 1281.16 80.7448C1281.92 80.7448 1282.65 80.6129 1283.34 80.3613C1284.53 79.9179 1287.31 78.396 1287.31 73.9023C1287.31 70.8945 1286.04 69.2648 1284.96 68.426" fill="white"/>
<path d="M1265.59 51.6974V52.1288H1265.88V54.118H1266.37V52.1288H1266.66V51.6974H1265.59Z" fill="white"/>
<path d="M1267.26 51.6974H1266.78V54.118H1267.26V51.6974Z" fill="white"/>
<path d="M1267.45 51.6974V54.118H1268.36V53.6866H1267.94V53.1114H1268.34V52.6801H1267.94V52.1408H1268.36V51.7094H1267.46L1267.45 51.6974ZM1267.76 51.314L1267.58 51.6135H1267.8L1267.89 51.5057L1267.99 51.6135H1268.2L1268.02 51.314H1267.76Z" fill="white"/>
<path d="M1269.25 54.142H1268.95C1268.65 54.142 1268.49 53.9982 1268.49 53.6866V51.6974H1268.97V53.6387C1268.97 53.6387 1269 53.7226 1269.06 53.7226H1269.1C1269.1 53.7226 1269.19 53.6986 1269.19 53.6387V51.6974H1269.67V53.6866C1269.67 53.9862 1269.52 54.142 1269.21 54.142" fill="white"/>
<path d="M1270.91 53.7106C1271.01 53.7106 1271.05 53.6747 1271.05 53.5788V52.2606C1271.05 52.1648 1271.01 52.1288 1270.91 52.1288H1270.82V53.7226H1270.91V53.7106ZM1271.02 51.6974C1271.37 51.6974 1271.54 51.8652 1271.54 52.2127V53.5908C1271.54 53.9383 1271.37 54.1061 1271.02 54.1061H1270.34V51.6854H1271.02V51.6974Z" fill="white"/>
<path d="M1272.17 51.6135L1271.98 51.314H1272.32L1272.41 51.6135H1272.16H1272.17ZM1272.45 54.142H1272.15C1271.85 54.142 1271.69 53.9982 1271.69 53.6866V51.6974H1272.17V53.6387C1272.17 53.6387 1272.2 53.7226 1272.26 53.7226H1272.3C1272.3 53.7226 1272.39 53.6986 1272.39 53.6387V51.6974H1272.87V53.6866C1272.87 53.9862 1272.72 54.142 1272.41 54.142" fill="white"/>
<path d="M1273.83 51.6974V52.2007L1273.84 52.9077L1273.56 51.6974H1273.06V54.118H1273.48V53.423L1273.47 52.7999L1273.78 54.118H1274.25V51.6974H1273.83Z" fill="white"/>
<path d="M1275.62 52.752V53.6866C1275.62 53.9862 1275.48 54.142 1275.17 54.142H1274.86C1274.56 54.142 1274.4 53.9982 1274.4 53.6866V52.1168C1274.4 51.8173 1274.55 51.6615 1274.86 51.6615H1275.16C1275.46 51.6615 1275.61 51.8053 1275.61 52.1168V52.5842H1275.13V52.1768C1275.13 52.1768 1275.11 52.0929 1275.05 52.0929H1274.98C1274.98 52.0929 1274.89 52.1168 1274.89 52.1768V53.6387C1274.89 53.6387 1274.92 53.7226 1274.98 53.7226H1275.06C1275.06 53.7226 1275.14 53.6986 1275.14 53.6387V53.1594H1274.99V52.752H1275.62Z" fill="white"/>
<path d="M1266.3 57.8208L1266.35 57.689L1266.12 57.2696C1266.12 57.2696 1266.06 57.3535 1266.06 57.4254V57.8208C1266.06 57.8208 1266.08 57.8927 1266.13 57.8927H1266.19C1266.19 57.8927 1266.27 57.8688 1266.29 57.8208M1266.21 58.3002H1266.04C1265.76 58.3002 1265.62 58.1564 1265.62 57.8808V57.3894C1265.62 57.2217 1265.65 57.0899 1265.77 56.982L1265.9 56.8622L1265.82 56.7184C1265.75 56.5866 1265.74 56.5027 1265.74 56.3589V56.287C1265.74 55.9874 1265.88 55.8316 1266.19 55.8316H1266.39C1266.69 55.8316 1266.85 55.9754 1266.85 56.287V56.6105H1266.41V56.3349C1266.41 56.275 1266.38 56.251 1266.32 56.251H1266.29C1266.29 56.251 1266.2 56.275 1266.2 56.3349V56.3829C1266.2 56.4787 1266.23 56.5267 1266.27 56.6105L1266.57 57.1618L1266.68 56.8382H1267.16L1266.87 57.6411L1267.22 58.2762H1266.72L1266.61 58.0845C1266.54 58.2283 1266.43 58.3002 1266.23 58.3002" fill="white"/>
<path d="M1268.88 57.4014V57.8448C1268.88 58.1444 1268.73 58.3002 1268.42 58.3002H1268.16C1267.86 58.3002 1267.7 58.1564 1267.7 57.8448V57.3295H1268.17V57.7969C1268.17 57.7969 1268.19 57.8808 1268.25 57.8808H1268.3C1268.3 57.8808 1268.38 57.8568 1268.38 57.7969V57.5093C1268.38 57.4374 1268.36 57.4014 1268.3 57.3535L1267.88 57.042C1267.74 56.9341 1267.69 56.8382 1267.69 56.6585V56.275C1267.69 55.9754 1267.83 55.8197 1268.14 55.8197H1268.41C1268.71 55.8197 1268.86 55.9635 1268.86 56.275V56.7184H1268.38V56.323C1268.38 56.323 1268.36 56.2391 1268.3 56.2391H1268.26C1268.26 56.2391 1268.18 56.263 1268.18 56.323V56.5506C1268.18 56.6225 1268.2 56.6585 1268.26 56.7064L1268.68 57.018C1268.83 57.1258 1268.88 57.2217 1268.88 57.4014Z" fill="white"/>
<path d="M1269.67 57.4973L1269.56 56.4428L1269.45 57.4973H1269.67ZM1269.59 55.4002V55.3643C1269.59 55.3643 1269.59 55.3523 1269.58 55.3523C1269.58 55.3523 1269.57 55.3523 1269.57 55.3643V55.4122H1269.4V55.3643C1269.4 55.2564 1269.46 55.1965 1269.57 55.1965H1269.62C1269.73 55.1965 1269.79 55.2445 1269.79 55.3643V55.3883C1269.79 55.4482 1269.77 55.4961 1269.73 55.544L1269.68 55.604C1269.68 55.604 1269.65 55.6399 1269.65 55.6758H1269.51V55.6159C1269.51 55.544 1269.51 55.5321 1269.55 55.4841L1269.57 55.4482C1269.57 55.4482 1269.59 55.4122 1269.59 55.3883M1269.7 57.9167H1269.4L1269.37 58.2762H1268.92L1269.25 55.8556H1269.91L1270.22 58.2762H1269.74L1269.7 57.9167Z" fill="white"/>
<path d="M1271.09 55.8556V56.3589L1271.11 57.0539L1270.83 55.8556H1270.33V58.2762H1270.75V57.5692L1270.73 56.9581L1271.05 58.2762H1271.51V55.8556H1271.09Z" fill="white"/>
<path d="M1273.36 58.2762H1272.86L1272.71 57.5213L1272.56 58.2762H1272.09L1272.39 57.1019L1272.1 55.8556H1272.6L1272.74 56.5866L1272.89 55.8556H1273.36L1273.06 57.018L1273.36 58.2762Z" fill="white"/>
<path d="M1274.21 58.3002H1273.91C1273.61 58.3002 1273.45 58.1564 1273.45 57.8448V55.8556H1273.93V57.7969C1273.93 57.7969 1273.96 57.8808 1274.02 57.8808H1274.07C1274.07 57.8808 1274.15 57.8568 1274.15 57.7969V55.8556H1274.63V57.8448C1274.63 58.1444 1274.49 58.3002 1274.17 58.3002" fill="white"/>
<path d="M1276.12 55.3044L1275.92 55.6039H1275.67L1275.77 55.3044H1276.12ZM1275.48 57.4973L1275.37 56.4428L1275.27 57.4973H1275.48ZM1275.49 55.7597L1275.4 55.6519L1275.3 55.7597H1275.09L1275.27 55.4601H1275.53L1275.71 55.7597H1275.49ZM1275.23 57.9167L1275.19 58.2762H1274.75L1275.07 55.8556H1275.73L1276.06 58.2762H1275.58L1275.54 57.9167H1275.23Z" fill="white"/>
<path d="M1275.96 55.8556V56.287H1276.25V58.2762H1276.73V56.287H1277.03V55.8556H1275.96Z" fill="white"/>
<path d="M1266.83 61.991C1266.83 62.2906 1266.68 62.4464 1266.37 62.4464H1266.07C1265.77 62.4464 1265.62 62.3026 1265.62 61.991V60.4212C1265.62 60.1216 1265.76 59.9659 1266.07 59.9659H1266.36C1266.66 59.9659 1266.81 60.1096 1266.81 60.4212V60.9844H1266.33V60.4691C1266.33 60.4691 1266.31 60.3853 1266.25 60.3853H1266.19C1266.19 60.3853 1266.11 60.4092 1266.11 60.4691V61.9311C1266.11 61.991 1266.13 62.015 1266.19 62.015H1266.25C1266.25 62.015 1266.33 61.991 1266.33 61.9311V61.3439H1266.81V61.979L1266.83 61.991Z" fill="white"/>
<path d="M1267.63 60.3972H1267.56C1267.56 60.3972 1267.47 60.4212 1267.47 60.4811V61.9431C1267.47 61.9431 1267.5 62.027 1267.56 62.027H1267.63C1267.63 62.027 1267.71 62.003 1267.71 61.9431V60.4811C1267.71 60.4811 1267.69 60.3972 1267.63 60.3972ZM1267.9 59.6183L1267.71 59.9179H1267.46L1267.56 59.6183H1267.9ZM1267.75 62.4464H1267.44C1267.14 62.4464 1266.98 62.3026 1266.98 61.991V60.4212C1266.98 60.1216 1267.13 59.9658 1267.44 59.9658H1267.75C1268.05 59.9658 1268.2 60.1096 1268.2 60.4212V61.991C1268.2 62.2906 1268.06 62.4464 1267.75 62.4464Z" fill="white"/>
<path d="M1268.78 60.0018V60.4332H1269.07V62.4224H1269.56V60.4332H1269.85V60.0018H1268.78Z" fill="white"/>
<path d="M1270.58 60.4212H1270.46V61.0923H1270.58C1270.64 61.0923 1270.66 61.0683 1270.66 61.0084V60.5051C1270.66 60.5051 1270.64 60.4212 1270.58 60.4212ZM1271.15 61.5956V62.4344H1270.67V61.6075C1270.67 61.6075 1270.65 61.5237 1270.59 61.5237H1270.47V62.4464H1269.99V60.0258H1270.71C1271.01 60.0258 1271.16 60.1696 1271.16 60.4811V60.9485C1271.16 61.1522 1271.09 61.26 1270.96 61.308C1271.1 61.3439 1271.18 61.4398 1271.18 61.6195" fill="white"/>
<path d="M1272.21 59.6183L1272.02 59.9179H1271.76L1271.86 59.6183H1272.21ZM1271.98 61.6555L1271.87 60.601L1271.76 61.6555H1271.98ZM1271.72 62.0749L1271.68 62.4344H1271.24L1271.56 60.0138H1272.22L1272.54 62.4344H1272.06L1272.03 62.0749H1271.72Z" fill="white"/>
<path d="M1273.81 61.991C1273.81 62.2906 1273.67 62.4464 1273.36 62.4464H1273.06C1272.76 62.4464 1272.6 62.3026 1272.6 61.991V60.4212C1272.6 60.1216 1272.75 59.9659 1273.06 59.9659H1273.35C1273.65 59.9659 1273.8 60.1096 1273.8 60.4212V60.9844H1273.32V60.4691C1273.32 60.4691 1273.3 60.3853 1273.24 60.3853H1273.18C1273.18 60.3853 1273.09 60.4092 1273.09 60.4691V61.9311C1273.09 61.991 1273.12 62.015 1273.18 62.015H1273.24C1273.24 62.015 1273.32 61.991 1273.32 61.9311V61.3439H1273.8V61.979L1273.81 61.991Z" fill="white"/>
<path d="M1274.7 60.0018H1275.19V62.4224H1274.7V61.4158H1274.46V62.4224H1273.98V60.0018H1274.46V60.9724H1274.7V60.0018Z" fill="white"/>
<path d="M1276.6 60.0018L1276.61 60.5051V61.2001L1276.33 60.0018H1275.83V62.4224H1276.25V61.7274L1276.24 61.1043L1276.55 62.4224H1277.02V60.0018H1276.6Z" fill="white"/>
<path d="M1277.91 60.0018H1278.41V62.4224H1277.91V61.4158H1277.67V62.4224H1277.19V60.0018H1277.67V60.9724H1277.91V60.0018Z" fill="white"/>
<path d="M1279.05 60.0018H1278.57V62.4224H1279.05V60.0018Z" fill="white"/>
<path d="M1279.5 63.0455H1279.88V62.6501H1279.5V63.0455ZM1279.23 60.0018V62.4224H1280.14V61.991H1279.72V61.4158H1280.12V60.9844H1279.72V60.4452H1280.14V60.0138H1279.24L1279.23 60.0018ZM1279.56 59.6183L1279.38 59.9179H1279.59L1279.69 59.8101L1279.78 59.9179H1280L1279.82 59.6183H1279.56Z" fill="white"/>
<path d="M1280.68 62.4224H1280.3V60.0018H1280.99L1281.14 61.4638L1281.28 60.0018H1281.99V62.4224H1281.51V60.8406L1281.33 62.4224H1280.87L1280.68 60.8167V62.4224Z" fill="white"/>
<path d="M1340.06 47H1300.06V87H1340.06V47Z" fill="#417E45"/>
<path d="M1305.11 50.3584V58.4205H1303.75V52.2493H1303.74L1302.8 53.2371H1302.78V51.8166L1304.03 50.3584H1305.11Z" fill="white"/>
<path d="M1309.58 52.1082V52.8043C1309.58 53.4817 1309.22 53.9332 1308.65 54.1119C1309.33 54.2625 1309.65 54.7422 1309.65 55.476V56.6613C1309.65 57.7808 1309.06 58.5052 1307.69 58.5052C1306.32 58.5052 1305.82 57.7244 1305.82 56.492V55.4384H1307.06V56.5955C1307.06 57.0753 1307.22 57.3763 1307.69 57.3763C1308.1 57.3763 1308.29 57.0753 1308.29 56.6519V55.3161C1308.29 54.8833 1308.1 54.667 1307.63 54.667H1307.06V53.6322H1307.56C1308 53.6322 1308.29 53.4064 1308.29 52.9737V52.1082C1308.29 51.666 1308.14 51.3838 1307.71 51.3838C1307.28 51.3838 1307.12 51.666 1307.12 52.1646V52.9831H1305.89V52.2681C1305.89 51.0828 1306.38 50.2455 1307.78 50.2455C1309.03 50.2455 1309.58 50.9511 1309.58 52.0894" fill="white"/>
<path d="M1335.04 75.0527C1333.99 73.5757 1329.22 67.6773 1320.36 67.6773C1311.5 67.6773 1306.73 73.5757 1305.68 75.0527C1305.63 75.1185 1305.59 75.175 1305.56 75.2126C1305.59 75.2596 1305.63 75.3161 1305.68 75.3819C1306.73 76.8589 1311.5 82.7573 1320.36 82.7573C1329.22 82.7573 1333.99 76.8589 1335.04 75.3819C1335.09 75.3161 1335.13 75.2596 1335.16 75.2126C1335.13 75.1656 1335.09 75.1091 1335.04 75.0527ZM1315.41 71.4026C1315.49 71.2897 1315.76 70.9511 1315.79 70.9135C1315.85 70.8288 1315.99 70.81 1316.08 70.7912C1316.18 70.7723 1316.3 70.8288 1316.32 70.8946C1316.34 70.9699 1316.28 71.2427 1316.24 71.2897C1316.1 71.4214 1315.77 71.619 1315.58 71.5814C1315.44 71.5626 1315.38 71.4497 1315.41 71.4026ZM1315.1 72.0329C1315.1 72.0329 1315.13 72.0047 1315.13 71.9953C1315.24 71.8636 1315.46 71.8448 1315.61 71.8166C1315.77 71.7883 1315.98 71.8636 1316 71.9671C1316.03 72.0706 1315.61 72.2587 1315.54 72.3246C1315.33 72.5221 1314.99 72.9172 1314.8 72.9643C1314.73 72.9831 1314.69 72.9643 1314.64 72.9454C1314.76 72.6256 1314.91 72.3151 1315.1 72.0235M1318.42 78.8344C1318.29 79.3048 1318.16 79.4741 1318.04 79.6246C1317.92 79.7752 1317.47 79.9633 1317.19 79.9445C1316.92 79.9257 1316.88 79.1731 1316.88 78.7874C1316.88 78.6557 1316.69 79.0508 1316.59 78.2512C1316.52 77.7338 1316.2 78.3076 1316.18 77.9595C1316.16 77.6209 1315.99 77.6867 1315.81 77.4704C1315.64 77.254 1315.43 77.4892 1315.18 77.6021C1314.94 77.7055 1315.04 77.762 1314.7 77.6585C1314.7 77.6585 1314.69 77.6585 1314.69 77.6585C1314.37 76.9247 1314.2 76.1063 1314.2 75.2596C1314.2 75.0527 1314.21 74.8457 1314.23 74.6388C1314.24 74.6199 1314.25 74.6011 1314.26 74.5823C1314.59 74.1966 1314.58 74.1025 1314.58 74.1025L1314.94 73.9802C1314.94 73.9802 1315.52 74.0649 1315.96 74.2342C1316.31 74.3659 1316.88 74.6764 1317.2 74.5353C1317.44 74.4412 1317.62 74.3095 1317.6 74.1119C1317.58 73.8674 1317.38 73.8109 1317.15 73.9708C1317.06 74.0367 1316.88 73.5945 1316.72 73.6228C1316.58 73.6416 1316.91 74.1308 1316.78 74.159C1316.66 74.1778 1316.41 73.651 1316.37 73.5663C1316.33 73.4817 1316.14 73.2653 1315.97 73.4252C1315.6 73.7733 1315.01 73.7545 1314.9 73.8391C1314.53 74.1119 1314.44 73.7545 1314.45 73.5287C1314.46 73.4817 1314.47 73.4252 1314.49 73.3782C1314.61 73.2465 1315.03 73.2088 1315.18 73.3029C1315.35 73.4064 1315.46 73.2747 1315.52 73.2088C1315.58 73.143 1315.56 73.0395 1315.52 72.9548C1315.48 72.8702 1315.59 72.8043 1315.68 72.7855C1315.77 72.7667 1316.03 72.5691 1316.15 72.5033C1316.26 72.4374 1316.83 72.3716 1317.09 72.5033C1317.35 72.635 1317.58 72.5315 1317.7 72.381C1317.86 72.1929 1318.06 72.0517 1318.15 72.0047C1318.24 71.9671 1317.93 71.6754 1317.67 71.9859C1317.41 72.2963 1317.29 72.3246 1317.16 72.3246C1317.04 72.3246 1316.33 72.1458 1316.25 71.92C1316.16 71.6943 1316.47 71.5249 1316.73 71.4026C1316.99 71.2803 1317.72 71.2803 1317.9 71.2333C1318.27 71.1486 1318.75 70.9605 1318.99 71.1298C1319.23 71.2897 1317.99 71.572 1318.4 71.7977C1318.54 71.8824 1319.2 71.4214 1319.43 71.2992C1319.96 71.0263 1318.92 70.9323 1319.05 70.3772C1319.2 69.7469 1317.77 69.9915 1317.05 70.048C1318.01 69.4365 1319.15 69.079 1320.37 69.079C1323.28 69.079 1325.72 71.0922 1326.37 73.8109C1326.37 73.9426 1326.35 74.0461 1326.34 74.0931C1326.29 74.3189 1325.86 74.5071 1325.62 74.1496C1325.55 74.0555 1325.29 73.8109 1325.3 74.2342C1325.3 74.6576 1325.72 74.7046 1325.32 74.9586C1324.93 75.2126 1324.85 75.1562 1324.67 75.222C1324.49 75.2879 1324.3 75.73 1324.35 75.9652C1324.4 76.2004 1324.96 76.8401 1324.54 76.8213C1324.45 76.8213 1323.71 76.3133 1323.59 75.984C1323.46 75.6453 1323.32 75.3067 1323.21 75.0527C1323.11 74.7987 1322.85 74.7328 1322.63 74.8833C1322.41 75.0339 1322.69 75.1844 1322.53 75.5042C1322.38 75.8241 1322.27 76.1157 1322.03 75.8429C1321.42 75.1562 1320.55 75.4948 1320.41 74.7234C1320.33 74.3095 1319.98 74.3471 1319.67 74.1119C1319.38 73.8768 1319.2 73.7451 1319.16 73.9238C1319.11 74.0743 1320.1 74.8551 1320.17 75.0527C1320.27 75.3537 1319.87 75.6171 1319.58 75.683C1319.28 75.7488 1319.16 75.5136 1318.87 75.222C1318.58 74.921 1318.46 74.7046 1318.44 74.9398C1318.41 75.2785 1318.71 75.777 1319 75.9652C1319.25 76.1251 1319.53 76.191 1319.45 76.4544C1319.38 76.7084 1319.45 76.5673 1319.17 76.8401C1318.9 77.1223 1318.84 77.207 1318.86 77.5927C1318.88 77.9784 1318.78 77.9972 1318.71 78.317C1318.66 78.6369 1318.51 78.3641 1318.4 78.8344M1325.04 76.3697C1325.25 76.3509 1325.56 76.6425 1325.44 76.746C1325.32 76.8589 1325.01 76.8119 1324.86 76.699C1324.71 76.5767 1324.96 76.3791 1325.05 76.3697M1324.77 76.1816C1324.71 76.1533 1324.65 76.0969 1324.6 75.9464C1324.55 75.7959 1324.68 75.7112 1324.8 75.7676C1324.93 75.8335 1325.09 76.0216 1325.09 76.1251C1325.09 76.2286 1324.84 76.2098 1324.77 76.191M1322.06 76.1722C1321.93 76.285 1321.62 76.238 1321.46 76.1157C1321.31 75.9934 1321.56 75.7959 1321.65 75.7865C1321.86 75.7676 1322.17 76.0593 1322.06 76.1627M1319.53 77.3951C1319.44 77.5362 1319.21 78.571 1319.06 78.4487C1318.91 78.3264 1319.12 77.2446 1319.16 77.1599C1319.4 76.7084 1319.94 76.7366 1319.53 77.3857M1320.37 81.4214C1319.77 81.4214 1319.18 81.3368 1318.64 81.1769C1318.56 81.111 1318.51 81.0075 1318.56 80.8758C1318.75 80.3772 1319.32 80.1797 1319.77 80.1421C1320.76 80.048 1322.08 80.7912 1322.29 80.6689C1322.51 80.5466 1322.93 80.0009 1323.55 80.0198C1323.97 80.0386 1323.97 80.1044 1324.11 80.1609C1323.08 80.9511 1321.78 81.4214 1320.37 81.4214ZM1324.73 79.6246C1324.66 79.6058 1324.6 79.587 1324.53 79.5494C1324.2 79.3801 1324.24 79.6529 1324.07 79.587C1323.91 79.5212 1324.27 79.1449 1323.77 79.4647C1323.27 79.7846 1323.4 79.4177 1323.19 78.8627C1322.97 78.3076 1323.44 77.6867 1323.84 77.5456C1324.37 77.3481 1324.71 77.3104 1324.96 77.254C1325.7 77.0659 1325.86 76.6331 1325.99 76.8965C1326.02 76.9436 1326.04 76.9906 1326.07 77.0376C1326.1 77.1223 1326.16 77.2822 1326.16 77.4421C1325.85 78.27 1325.36 79.0038 1324.74 79.6152M1326.41 76.5108C1326.25 76.4638 1325.55 75.5042 1326.1 74.8739C1326.19 74.7705 1325.92 74.4694 1326 74.46C1326.3 74.4412 1326.46 74.6199 1326.53 74.8928C1326.53 75.0056 1326.54 75.1279 1326.54 75.2502C1326.54 75.683 1326.5 76.1063 1326.41 76.5108Z" fill="white"/>
<path d="M1313.64 51.9671H1314.12V54.3848H1313.64V53.3688H1313.39V54.3848H1312.91V51.9671H1313.39V52.936H1313.64V51.9671Z" fill="white"/>
<path d="M1314.96 53.6134L1314.86 52.5597L1314.75 53.6134H1314.96ZM1314.75 51.873L1314.56 51.572H1314.9L1314.99 51.873H1314.74H1314.75ZM1315 54.0367H1314.69L1314.67 54.3942H1314.23L1314.54 51.9671H1315.2L1315.52 54.3942H1315.04L1315 54.0367Z" fill="white"/>
<path d="M1316.03 53.0677L1316.04 53.6886V54.3848H1315.62V51.9671H1316.12L1316.4 53.1618V52.4657L1316.39 51.9671H1316.81V54.3848H1316.34L1316.03 53.0677Z" fill="white"/>
<path d="M1317.71 51.9671H1318.2V54.3848H1317.71V53.3688H1317.47V54.3848H1316.98V51.9671H1317.47V52.936H1317.71V51.9671Z" fill="white"/>
<path d="M1319.5 52.9737V53.3405H1319.37V53.9708H1319.46C1319.56 53.9708 1319.6 53.9332 1319.6 53.8391V52.5127C1319.6 52.4186 1319.56 52.381 1319.46 52.381H1319.37V52.9737H1319.5ZM1318.75 53.3405V52.9737H1318.88V51.9671H1319.56C1319.91 51.9671 1320.07 52.1364 1320.07 52.4845V53.8674C1320.07 54.2154 1319.9 54.3848 1319.56 54.3848H1318.88V53.3405H1318.75Z" fill="white"/>
<path d="M1320.87 52.3622H1320.8C1320.74 52.3622 1320.72 52.3904 1320.72 52.4468V53.905C1320.72 53.9614 1320.74 53.9897 1320.8 53.9897H1320.87C1320.93 53.9897 1320.95 53.9614 1320.95 53.905V52.4468C1320.95 52.3904 1320.93 52.3622 1320.87 52.3622ZM1320.65 54.6011H1321.03V54.9962H1320.65V54.6011ZM1320.94 51.873L1320.84 51.7601L1320.74 51.873H1320.53L1320.71 51.572H1320.97L1321.15 51.873H1320.94ZM1320.99 54.4036H1320.68C1320.38 54.4036 1320.23 54.2531 1320.23 53.952V52.3904C1320.23 52.0894 1320.38 51.9389 1320.68 51.9389H1320.99C1321.3 51.9389 1321.44 52.0894 1321.44 52.3904V53.952C1321.44 54.2531 1321.3 54.4036 1320.99 54.4036Z" fill="white"/>
<path d="M1322.02 53.0677V53.6886L1322.03 54.3848H1321.61V51.9671H1322.1L1322.38 53.1618V52.4657L1322.37 51.9671H1322.79V54.3848H1322.32L1322.02 53.0677Z" fill="white"/>
<path d="M1324.16 53.0207V53.9614C1324.16 54.2625 1324.02 54.413 1323.71 54.413H1323.4C1323.09 54.413 1322.95 54.2625 1322.95 53.9614V52.3998C1322.95 52.0988 1323.09 51.9483 1323.4 51.9483H1323.7C1324 51.9483 1324.15 52.0988 1324.15 52.3998V52.8608H1323.67V52.4468C1323.67 52.3904 1323.64 52.3622 1323.59 52.3622H1323.52C1323.46 52.3622 1323.43 52.3904 1323.43 52.4468V53.905C1323.43 53.9614 1323.46 53.9897 1323.52 53.9897H1323.6C1323.65 53.9897 1323.68 53.9614 1323.68 53.905V53.4252H1323.53V53.0207H1324.16Z" fill="white"/>
<path d="M1325.52 51.873H1325.27L1325.37 51.572H1325.7L1325.51 51.873H1325.52ZM1326.24 51.9012C1326.24 52.0988 1326.16 52.1929 1325.99 52.2023V53.952C1325.99 54.2531 1325.85 54.4036 1325.54 54.4036H1325.24C1324.94 54.4036 1324.79 54.2531 1324.79 53.952V51.9577H1325.28V53.8956C1325.28 53.952 1325.31 53.9802 1325.37 53.9802H1325.41C1325.47 53.9802 1325.5 53.952 1325.5 53.8956V51.9577H1325.87C1325.93 51.9577 1325.96 51.9294 1325.96 51.873V51.7883H1326.24V51.9012Z" fill="white"/>
<path d="M1326.56 53.0677L1326.57 53.6886L1326.58 54.3848H1326.16V51.9671H1326.66L1326.94 53.1618L1326.93 52.4657V51.9671H1327.35V54.3848H1326.88L1326.56 53.0677Z" fill="white"/>
<path d="M1328.72 53.0207V53.9614C1328.72 54.2625 1328.57 54.413 1328.27 54.413H1327.95C1327.65 54.413 1327.5 54.2625 1327.5 53.9614V52.3998C1327.5 52.0988 1327.65 51.9483 1327.95 51.9483H1328.26C1328.55 51.9483 1328.71 52.0988 1328.71 52.3998V52.8608H1328.23V52.4468C1328.23 52.3904 1328.2 52.3622 1328.14 52.3622H1328.08C1328.02 52.3622 1327.99 52.3904 1327.99 52.4468V53.905C1327.99 53.9614 1328.02 53.9897 1328.08 53.9897H1328.15C1328.21 53.9897 1328.24 53.9614 1328.24 53.905V53.4252H1328.09V53.0207H1328.72Z" fill="white"/>
<path d="M1313.5 56.5296H1313.39V57.2822H1313.5C1313.56 57.2822 1313.58 57.254 1313.58 57.1976V56.6237C1313.58 56.5673 1313.56 56.539 1313.5 56.539M1312.91 58.5334V56.1063H1313.62C1313.92 56.1063 1314.07 56.2568 1314.07 56.5579V57.2446C1314.07 57.5456 1313.93 57.6961 1313.62 57.6961H1313.39V58.5334H1312.9H1312.91Z" fill="white"/>
<path d="M1314.93 56.1157H1315.41V58.5334H1314.93V57.5268H1314.69V58.5334H1314.21V56.1157H1314.69V57.0941H1314.93V56.1157Z" fill="white"/>
<path d="M1316.23 56.5108H1316.16C1316.1 56.5108 1316.07 56.539 1316.07 56.5955V58.0536C1316.07 58.1101 1316.1 58.1383 1316.16 58.1383H1316.23C1316.28 58.1383 1316.31 58.1101 1316.31 58.0536V56.5955C1316.31 56.539 1316.28 56.5108 1316.23 56.5108ZM1316.5 55.73L1316.31 56.031H1316.06L1316.16 55.73H1316.5ZM1316.34 58.5616H1316.03C1315.73 58.5616 1315.58 58.4111 1315.58 58.1101V56.5484C1315.58 56.2474 1315.73 56.0969 1316.03 56.0969H1316.34C1316.65 56.0969 1316.79 56.2474 1316.79 56.5484V58.1101C1316.79 58.4111 1316.65 58.5616 1316.34 58.5616Z" fill="white"/>
<path d="M1317.37 56.1157H1317.85L1318.03 57.8373L1318.2 56.1157H1318.65L1318.32 58.5334H1317.69L1317.37 56.1157Z" fill="white"/>
<path d="M1319.45 56.5955C1319.45 56.539 1319.42 56.5108 1319.37 56.5108H1319.3C1319.24 56.5108 1319.21 56.539 1319.21 56.5955V58.0536C1319.21 58.1101 1319.24 58.1383 1319.3 58.1383H1319.37C1319.42 58.1383 1319.45 58.1101 1319.45 58.0536V56.5955ZM1319.46 56.0216H1319.21L1319.32 55.7206H1319.65L1319.46 56.0216ZM1320.18 55.9464V56.0499C1320.18 56.2568 1320.09 56.3509 1319.91 56.3509C1319.93 56.4073 1319.94 56.4638 1319.94 56.539V58.1007C1319.94 58.4017 1319.8 58.5522 1319.49 58.5522H1319.17C1318.88 58.5522 1318.72 58.4017 1318.72 58.1007V56.539C1318.72 56.238 1318.87 56.0875 1319.17 56.0875H1319.49C1319.6 56.0875 1319.7 56.1063 1319.77 56.1533V56.1063H1319.83C1319.88 56.1063 1319.91 56.0781 1319.91 56.0216V55.937H1320.19L1320.18 55.9464Z" fill="white"/>
<path d="M1320.59 56.1157H1320.1V58.5428H1320.59V56.1157Z" fill="white"/>
<path d="M1321.84 58.1195C1321.89 58.1195 1321.92 58.0913 1321.92 58.0348V57.5927C1321.92 57.5362 1321.89 57.508 1321.84 57.508H1321.71V58.1195H1321.84ZM1321.84 56.5296H1321.72V57.1035H1321.84C1321.89 57.1035 1321.92 57.0753 1321.92 57.0188V56.6143C1321.92 56.5579 1321.89 56.5296 1321.84 56.5296ZM1322.41 57.5927V58.0818C1322.41 58.3829 1322.27 58.5334 1321.96 58.5334H1321.24V56.1157H1321.96C1322.26 56.1157 1322.41 56.2662 1322.41 56.5673V56.9247C1322.41 57.1317 1322.33 57.2352 1322.21 57.2822C1322.35 57.3198 1322.42 57.4139 1322.42 57.5927" fill="white"/>
<path d="M1323.05 56.1157H1322.56V58.5428H1323.05V56.1157Z" fill="white"/>
<path d="M1324.4 55.5607L1324.21 55.8617H1323.96L1324.06 55.5607H1324.4ZM1323.77 56.0216L1323.67 55.9087L1323.58 56.0216H1323.37L1323.54 55.7206H1323.81L1323.98 56.0216H1323.77ZM1324.12 56.5484H1323.71V57.0941H1324.11V57.5268H1323.71V58.1101H1324.13V58.5428H1323.22V56.1251H1324.12V56.5579V56.5484Z" fill="white"/>
<path d="M1324.7 57.2164V57.8373L1324.71 58.5334H1324.29V56.1157H1324.78L1325.06 57.3198V56.6143L1325.05 56.1157H1325.47V58.5334H1325L1324.7 57.2164Z" fill="white"/>
<path d="M1326.77 57.1223V57.4892H1326.64V58.1195H1326.74C1326.83 58.1195 1326.87 58.0818 1326.87 57.9878V56.6613C1326.87 56.5673 1326.83 56.5296 1326.74 56.5296H1326.64V57.1223H1326.77ZM1326.03 57.4892V57.1223H1326.15V56.1157H1326.83C1327.19 56.1157 1327.35 56.285 1327.35 56.6331V58.016C1327.35 58.3641 1327.18 58.5334 1326.83 58.5334H1326.15V57.4892H1326.03Z" fill="white"/>
<path d="M1328.5 55.6171V55.5889C1328.5 55.5889 1328.5 55.5795 1328.49 55.5795H1328.48C1328.48 55.5795 1328.47 55.5795 1328.47 55.5889V55.6359H1328.31V55.5889C1328.31 55.476 1328.36 55.4196 1328.47 55.4196H1328.52C1328.62 55.4196 1328.68 55.476 1328.68 55.5889V55.6077C1328.68 55.6736 1328.67 55.7112 1328.62 55.7582L1328.57 55.8147C1328.57 55.8147 1328.54 55.8429 1328.54 55.8899H1328.4V55.8335C1328.4 55.7676 1328.4 55.7488 1328.44 55.7018L1328.47 55.6736C1328.47 55.6736 1328.5 55.6359 1328.5 55.6077M1328.15 56.5108H1328.09C1328.03 56.5108 1328 56.539 1328 56.5955V58.0536C1328 58.1101 1328.03 58.1383 1328.09 58.1383H1328.15C1328.21 58.1383 1328.24 58.1101 1328.24 58.0536V56.5955C1328.24 56.539 1328.21 56.5108 1328.15 56.5108ZM1328.21 56.0216L1328.11 55.9087L1328.02 56.0216H1327.81L1327.98 55.7206H1328.25L1328.42 56.0216H1328.21ZM1328.27 58.5616H1327.95C1327.65 58.5616 1327.5 58.4111 1327.5 58.1101V56.5484C1327.5 56.2474 1327.65 56.0969 1327.95 56.0969H1328.27C1328.57 56.0969 1328.72 56.2474 1328.72 56.5484V58.1101C1328.72 58.4111 1328.57 58.5616 1328.27 58.5616Z" fill="white"/>
<path d="M1329.38 56.1157H1328.89V58.5428H1329.38V56.1157Z" fill="white"/>
<path d="M1313.39 61.5437V62.6914H1312.91V60.2643H1313.39V61.4026L1313.67 60.2643H1314.17L1313.85 61.4591L1314.16 62.6914H1313.64L1313.39 61.5437Z" fill="white"/>
<path d="M1314.97 60.2643H1315.46V62.6914H1314.97V61.6754H1314.73V62.6914H1314.24V60.2643H1314.73V61.2427H1314.97V60.2643Z" fill="white"/>
<path d="M1315.63 62.6914H1316.12V60.2738H1315.63V62.6914ZM1315.85 59.8786L1315.76 60.1797H1316.01L1316.2 59.8786H1315.85Z" fill="white"/>
<path d="M1317.49 60.2643H1317.98V62.6914H1317.49V61.6754H1317.25V62.6914H1316.76V60.2643H1317.25V61.2427H1317.49V60.2643Z" fill="white"/>
<path d="M1318.81 61.9106L1318.71 60.857L1318.6 61.9106H1318.81ZM1318.53 62.9078H1318.92V63.3029H1318.53V62.9078ZM1318.83 60.1797L1318.73 60.0668L1318.64 60.1797H1318.43L1318.6 59.8786H1318.86L1319.03 60.1797H1318.82H1318.83ZM1318.86 62.334H1318.55L1318.52 62.6914H1318.08L1318.4 60.2643H1319.06L1319.38 62.6914H1318.9L1318.86 62.334Z" fill="white"/>
<path d="M1320.21 62.7103H1319.91C1319.61 62.7103 1319.46 62.5597 1319.46 62.2587V60.2643H1319.95V62.2023C1319.95 62.2587 1319.98 62.2869 1320.04 62.2869H1320.08C1320.14 62.2869 1320.17 62.2587 1320.17 62.2023V60.2643H1320.66V62.2587C1320.66 62.5597 1320.51 62.7103 1320.21 62.7103Z" fill="white"/>
<rect x="100" y="591" width="403" height="119" rx="8" fill="#3459FF"/>
<text fill="#FFFFF1" xml:space="preserve" style="white-space: pre" font-family="VNM Sans Display" font-size="64" font-weight="bold" letter-spacing="0em"><tspan x="144.219" y="666.8" data-counter data-delay="800" data-from="0" data-to="250" data-ori="250">250</tspan></text>
<text fill="#FFFFF1" xml:space="preserve" style="white-space: pre" font-family="VNM Sans Display" font-size="64" font-weight="bold" letter-spacing="0em"><tspan x="213.281" y="666.8">+</tspan></text>
<text fill="#FFFFF1" xml:space="preserve" style="white-space: pre" font-family="VNM Sans Display" font-size="20" letter-spacing="0em"><tspan x="165.332" y="689.4">S&#x1ea3;n ph&#x1ea9;m</tspan></text>
<text fill="#FFFFF1" xml:space="preserve" style="white-space: pre" font-family="VNM Sans Display" font-size="64" font-weight="bold" letter-spacing="0em"><tspan x="303.125" y="666.8" data-counter data-delay="800" data-from="0" data-to="13" data-ori="13">13</tspan></text>
<text fill="#FFFFF1" xml:space="preserve" style="white-space: pre" font-family="VNM Sans Display" font-size="20" letter-spacing="0em"><tspan x="290.293" y="689.4">S&#x1ea3;n ph&#x1ea9;m m&#x1edb;i</tspan></text>
<text fill="#FFFFF1" xml:space="preserve" style="white-space: pre" font-family="VNM Sans Std" font-size="14" letter-spacing="0em"><tspan x="415.165" y="614.844">C&#x1ea3;i ti&#x1ebf;n</tspan></text>
<text fill="#FFFFF1" xml:space="preserve" style="white-space: pre" font-family="VNM Sans Display" font-size="64" font-weight="bold" letter-spacing="0em"><tspan x="414.312" y="666.8" data-counter data-delay="800" data-from="0" data-to="24" data-ori="24">24</tspan></text>
<text fill="#FFFFF1" xml:space="preserve" style="white-space: pre" font-family="VNM Sans Display" font-size="20" letter-spacing="0em"><tspan x="414.332" y="689.4">S&#x1ea3;n ph&#x1ea9;m</tspan></text>
<rect x="833" y="557" width="245" height="153" rx="8" fill="#3459FF"/>
<text fill="#FFFFF1" xml:space="preserve" style="white-space: pre" font-family="VNM Sans Std" font-size="16" letter-spacing="0em"><tspan x="887.547" y="587.536">100% nh&#xe0; m&#xe1;y &#x111;&#x1b0;&#x1ee3;c </tspan><tspan x="882.898" y="605.536">ch&#x1ee9;ng nh&#x1ead;n H&#x1ec7; th&#x1ed1;ng </tspan><tspan x="886.367" y="623.536">qu&#x1ea3;n l&#xfd; An to&#xe0;n th&#x1ef1;c </tspan><tspan x="882.055" y="641.536">ph&#x1ea9;m theo ti&#xea;u chu&#x1ea9;n</tspan></text>
<text fill="#FFFFF1" xml:space="preserve" style="white-space: pre" font-family="VNM Sans Display" font-size="48" font-weight="bold" letter-spacing="0em"><tspan x="877" y="693.6">FSSC </tspan></text>
<text fill="#FFFFF1" xml:space="preserve" style="white-space: pre" font-family="VNM Sans Display" font-size="48" font-weight="bold" letter-spacing="0em"><tspan x="945.414" y="693.6" data-counter data-delay="800" data-from="0" data-to="22000" data-ori="22000">22000</tspan></text>
<rect x="1094" y="557" width="246" height="153" rx="8" fill="#3459FF"/>
<text fill="#FFFFF1" xml:space="preserve" style="white-space: pre" font-family="VNM Sans Std" font-size="16" letter-spacing="0em"><tspan x="1156.57" y="587.536">Ph&#xf2;ng th&#xed; nghi&#x1ec7;m &#x2028;</tspan><tspan x="1183.49" y="605.536">&#x111;&#x1ea1;t chu&#x1ea9;n</tspan></text>
<text fill="#FFFFF1" xml:space="preserve" style="white-space: pre" font-family="VNM Sans Display" font-size="48" font-weight="bold" letter-spacing="0em"><tspan x="1151.5" y="657.6">ISO </tspan></text>
<text fill="#FFFFF1" xml:space="preserve" style="white-space: pre" font-family="VNM Sans Display" font-size="48" font-weight="bold" letter-spacing="0em"><tspan x="1202.89" y="657.6" data-counter data-delay="800" data-from="0" data-to="17025" data-ori="17025">17025</tspan></text>
<text fill="#3459FF" xml:space="preserve" style="white-space: pre" font-family="VNM Sans Display" font-size="80" font-weight="bold" letter-spacing="0em"><tspan x="66.6953" y="182.6">S&#x1ea2;N PH&#x1ea8;M AN TO&#xc0;N </tspan><tspan x="110.523" y="266.6">V&#xc0; CH&#x1ea4;T L&#x1af;&#x1ee2;NG</tspan></text>
<rect x="100" y="307" width="403" height="258" rx="8" fill="#FFFFF1"/>
<text fill="#0213B0" xml:space="preserve" style="white-space: pre" font-family="VNM Sans Std" font-size="16" letter-spacing="0em"><tspan x="128" y="351.536">Vinamilk </tspan><tspan x="186.825" y="351.536">tin </tspan><tspan x="208.446" y="351.536">r&#x1eb1;ng, </tspan><tspan x="244.974" y="351.536">n&#x1ec1;n </tspan><tspan x="273.658" y="351.536">t&#x1ea3;ng </tspan><tspan x="309.186" y="351.536">c&#x1ee7;a </tspan><tspan x="336.042" y="351.536">m&#x1ed9;t </tspan><tspan x="367.929" y="351.536">cu&#x1ed9;c </tspan><tspan x="404.019" y="351.536">s&#x1ed1;ng </tspan><tspan x="441.141" y="351.536">kh&#x1ecf;e </tspan><tspan x="128" y="369.536">m&#x1ea1;nh, </tspan><tspan x="172.693" y="369.536">h&#x1ea1;nh </tspan><tspan x="209.964" y="369.536">ph&#xfa;c </tspan><tspan x="247.688" y="369.536">b&#x1eaf;t </tspan><tspan x="275.271" y="369.536">ngu&#x1ed3;n </tspan><tspan x="322.854" y="369.536">t&#x1eeb; </tspan><tspan x="343.188" y="369.536">vi&#x1ec7;c </tspan><tspan x="374.411" y="369.536">nu&#xf4;i </tspan><tspan x="407.292" y="369.536">d&#x1b0;&#x1ee1;ng </tspan><tspan x="457.656" y="369.536">c&#x1a1; </tspan><tspan x="128" y="387.536">th&#x1ec3; </tspan><tspan x="157.33" y="387.536">b&#x1eb1;ng </tspan><tspan x="197.66" y="387.536">th&#x1ef1;c </tspan><tspan x="235.505" y="387.536">ph&#x1ea9;m </tspan><tspan x="279.726" y="387.536">v&#x1edb;i </tspan><tspan x="305.962" y="387.536">ch&#x1ebf; </tspan><tspan x="335.995" y="387.536">&#x111;&#x1ed9; </tspan><tspan x="360.34" y="387.536">dinh </tspan><tspan x="395.295" y="387.536">d&#x1b0;&#x1ee1;ng </tspan><tspan x="447.281" y="387.536">l&#xe0;nh </tspan><tspan x="128" y="405.536">m&#x1ea1;nh. </tspan><tspan x="174.875" y="405.536">Nhu </tspan><tspan x="208.125" y="405.536">c&#x1ea7;u </tspan><tspan x="237.969" y="405.536">dinh </tspan><tspan x="273.625" y="405.536">d&#x1b0;&#x1ee1;ng </tspan><tspan x="326.312" y="405.536">c&#x1ee7;a </tspan><tspan x="356.156" y="405.536">m&#x1ed7;i </tspan><tspan x="387.562" y="405.536">c&#xe1; </tspan><tspan x="409.156" y="405.536">nh&#xe2;n </tspan><tspan x="448.75" y="405.536">&#x111;&#x1ec1;u </tspan><tspan x="128" y="423.536">mang </tspan><tspan x="170.364" y="423.536">d&#x1ea5;u </tspan><tspan x="199.775" y="423.536">&#x1ea5;n </tspan><tspan x="220.061" y="423.536">ri&#xea;ng </tspan><tspan x="258.534" y="423.536">&#x111;&#x1ed9;c </tspan><tspan x="289.07" y="423.536">&#x111;&#xe1;o. </tspan><tspan x="322.137" y="423.536">Do </tspan><tspan x="345.783" y="423.536">&#x111;&#xf3;, </tspan><tspan x="371.209" y="423.536">Vinamilk </tspan><tspan x="430.777" y="423.536">&#x111;&#x1eb7;t </tspan><tspan x="458.516" y="423.536">s&#x1ee9; </tspan><tspan x="128" y="441.536">m&#x1ec7;nh </tspan><tspan x="172.875" y="441.536">c&#x1ee7;a </tspan><tspan x="202.938" y="441.536">m&#xec;nh </tspan><tspan x="242.391" y="441.536">kh&#xf4;ng </tspan><tspan x="291.875" y="441.536">ch&#x1ec9; </tspan><tspan x="317.406" y="441.536">vi&#x1ec7;c </tspan><tspan x="351.172" y="441.536">cung </tspan><tspan x="391.125" y="441.536">c&#x1ea5;p </tspan><tspan x="422.344" y="441.536">c&#xe1;c </tspan><tspan x="451.75" y="441.536">s&#x1ea3;n </tspan><tspan x="128" y="459.536">ph&#x1ea9;m </tspan><tspan x="172.059" y="459.536">ch&#x1ea5;t </tspan><tspan x="207.821" y="459.536">l&#x1b0;&#x1ee3;ng </tspan><tspan x="253.161" y="459.536">cao, </tspan><tspan x="285.752" y="459.536">an </tspan><tspan x="307.42" y="459.536">to&#xe0;n </tspan><tspan x="344.807" y="459.536">cho </tspan><tspan x="375.569" y="459.536">m&#x1ecd;i </tspan><tspan x="406.113" y="459.536">ng&#x1b0;&#x1edd;i, </tspan><tspan x="454.281" y="459.536">m&#xe0; </tspan><tspan x="128" y="477.536">c&#xf2;n </tspan><tspan x="155.797" y="477.536">l&#xe0; </tspan><tspan x="169.266" y="477.536">dinh </tspan><tspan x="201.469" y="477.536">d&#x1b0;&#x1ee1;ng </tspan><tspan x="250.703" y="477.536">ph&#xf9; </tspan><tspan x="279.703" y="477.536">h&#x1ee3;p </tspan><tspan x="310.578" y="477.536">cho </tspan><tspan x="338.75" y="477.536">c&#xe1;c </tspan><tspan x="364.484" y="477.536">nh&#xf3;m </tspan><tspan x="406.578" y="477.536">&#x111;&#x1ed1;i </tspan><tspan x="431.094" y="477.536">t&#x1b0;&#x1ee3;ng </tspan><tspan x="128" y="495.536">d&#x1ec5; </tspan><tspan x="150.229" y="495.536">b&#x1ecb; </tspan><tspan x="167.036" y="495.536">t&#x1ed5;n </tspan><tspan x="195.766" y="495.536">th&#x1b0;&#x1a1;ng, </tspan><tspan x="255.51" y="495.536">ch&#x1ee7; </tspan><tspan x="284.365" y="495.536">&#x111;&#x1ed9;ng </tspan><tspan x="325.25" y="495.536">gi&#x1ea3;m </tspan><tspan x="362.464" y="495.536">thi&#x1ec3;u </tspan><tspan x="401.974" y="495.536">th&#x1ea5;t </tspan><tspan x="436.109" y="495.536">tho&#xe1;t </tspan><tspan x="128" y="513.536">v&#xe0; </tspan><tspan x="146.408" y="513.536">l&#xe3;ng </tspan><tspan x="177.722" y="513.536">ph&#xed; </tspan><tspan x="201.614" y="513.536">th&#x1ef1;c </tspan><tspan x="236.928" y="513.536">ph&#x1ea9;m </tspan><tspan x="278.617" y="513.536">&#x111;&#x1ed3;ng </tspan><tspan x="318.056" y="513.536">th&#x1edd;i </tspan><tspan x="349.558" y="513.536">cam </tspan><tspan x="380.903" y="513.536">k&#x1ebf;t </tspan><tspan x="405.733" y="513.536">minh </tspan><tspan x="441.734" y="513.536">b&#x1ea1;ch </tspan><tspan x="128" y="531.536">trong </tspan><tspan x="169.406" y="531.536">th&#xf4;ng </tspan><tspan x="214.344" y="531.536">tin </tspan><tspan x="235.344" y="531.536">truy&#x1ec1;n </tspan><tspan x="283.125" y="531.536">th&#xf4;ng </tspan><tspan x="328.062" y="531.536">v&#xe0; </tspan><tspan x="346.094" y="531.536">kinh </tspan><tspan x="376.344" y="531.536">doanh.</tspan></text>
</g>
<defs>
<clipPath id="clip0_109_1122">
<rect width="1440" height="774" fill="white"/>
</clipPath>
</defs>
</svg>
