<svg width="454" height="161" viewBox="0 0 454 161" fill="none" xmlns="http://www.w3.org/2000/svg">
<rect x="0.5" y="0.5" width="453" height="160" rx="7.5" fill="#4DD75A"/>
<rect x="0.5" y="0.5" width="453" height="160" rx="7.5" stroke="#0B4314"/>
<path d="M123.42 41C123.26 41 123.164 40.9307 123.132 40.792L120.46 31.592C120.343 31.176 120.22 30.8667 120.092 30.664C119.975 30.4507 119.825 30.2427 119.644 30.04C119.612 30.008 119.596 29.9707 119.596 29.928C119.596 29.8427 119.644 29.8 119.74 29.8H122.988C123.084 29.8 123.148 29.8213 123.18 29.864C123.212 29.9067 123.207 29.96 123.164 30.024C123.015 30.2373 122.94 30.4773 122.94 30.744C122.94 30.8827 122.977 31.1013 123.052 31.4L124.892 38.168C124.924 38.264 124.972 38.312 125.036 38.312C125.121 38.312 125.169 38.264 125.18 38.168L127.068 31.304C127.121 31.1333 127.148 30.9467 127.148 30.744C127.148 30.4773 127.073 30.2373 126.924 30.024C126.903 29.9813 126.892 29.9493 126.892 29.928C126.892 29.8427 126.961 29.8 127.1 29.8H130.204C130.3 29.8 130.348 29.8427 130.348 29.928C130.348 29.9707 130.332 30.008 130.3 30.04C130.129 30.232 129.985 30.4293 129.868 30.632C129.751 30.8347 129.628 31.1547 129.5 31.592L126.828 40.792C126.796 40.9307 126.7 41 126.54 41H123.42ZM130.813 41C130.77 41 130.733 40.984 130.701 40.952C130.669 40.92 130.653 40.8827 130.653 40.84V34.552C130.653 33.976 130.626 33.5493 130.573 33.272C130.53 32.9947 130.445 32.696 130.317 32.376L130.301 32.312C130.301 32.2373 130.349 32.2 130.445 32.2H132.957C133 32.2 133.037 32.216 133.069 32.248C133.101 32.28 133.117 32.3173 133.117 32.36V40.84C133.117 40.8827 133.101 40.92 133.069 40.952C133.037 40.984 133 41 132.957 41H130.813ZM131.869 31.8C131.474 31.8 131.144 31.7147 130.877 31.544C130.61 31.3733 130.477 31.1227 130.477 30.792C130.477 30.4507 130.605 30.2 130.861 30.04C131.128 29.88 131.464 29.8 131.869 29.8C132.285 29.8 132.626 29.88 132.893 30.04C133.16 30.2 133.293 30.4507 133.293 30.792C133.293 31.1227 133.154 31.3733 132.877 31.544C132.61 31.7147 132.274 31.8 131.869 31.8ZM134.329 41C134.286 41 134.249 40.984 134.217 40.952C134.185 40.92 134.169 40.8827 134.169 40.84V34.552C134.169 33.976 134.142 33.5493 134.089 33.272C134.046 32.9947 133.961 32.696 133.833 32.376L133.817 32.312C133.817 32.2373 133.865 32.2 133.961 32.2H136.361C136.403 32.2 136.441 32.216 136.473 32.248C136.505 32.28 136.521 32.3173 136.521 32.36V33.304C136.521 33.4 136.547 33.448 136.601 33.448C136.643 33.448 136.681 33.4107 136.713 33.336C137.161 32.472 137.961 32.04 139.113 32.04C140.062 32.04 140.777 32.3173 141.257 32.872C141.737 33.4267 141.977 34.1627 141.977 35.08V40.84C141.977 40.8827 141.961 40.92 141.929 40.952C141.897 40.984 141.859 41 141.817 41H139.673C139.63 41 139.593 40.984 139.561 40.952C139.529 40.92 139.513 40.8827 139.513 40.84V35.304C139.513 34.856 139.395 34.52 139.161 34.296C138.926 34.072 138.622 33.96 138.249 33.96C137.726 33.96 137.326 34.1467 137.049 34.52C136.771 34.8933 136.633 35.4267 136.633 36.12V40.84C136.633 40.8827 136.617 40.92 136.585 40.952C136.553 40.984 136.515 41 136.473 41H134.329ZM145.43 41.16C144.598 41.16 143.931 40.9413 143.43 40.504C142.939 40.056 142.694 39.4213 142.694 38.6C142.694 37.864 142.912 37.288 143.35 36.872C143.798 36.456 144.512 36.1573 145.494 35.976L146.886 35.72C147.206 35.656 147.424 35.5707 147.542 35.464C147.67 35.3467 147.734 35.2027 147.734 35.032C147.734 34.744 147.606 34.5147 147.35 34.344C147.104 34.1627 146.742 34.072 146.262 34.072C145.643 34.072 145.11 34.2267 144.662 34.536C144.214 34.8347 143.798 35.224 143.414 35.704C143.371 35.768 143.323 35.8 143.27 35.8C143.216 35.8 143.19 35.752 143.19 35.656V33.912C143.19 33.3147 143.52 32.856 144.182 32.536C144.854 32.2053 145.67 32.04 146.63 32.04C147.856 32.04 148.742 32.3067 149.286 32.84C149.83 33.3627 150.102 34.04 150.102 34.872V40.84C150.102 40.8827 150.086 40.92 150.054 40.952C150.022 40.984 149.99 41 149.958 41H147.926C147.894 41 147.856 40.984 147.814 40.952C147.782 40.92 147.766 40.8827 147.766 40.84V40.04C147.766 39.9973 147.75 39.976 147.718 39.976C147.675 39.976 147.638 40.0027 147.606 40.056C147.36 40.4507 147.056 40.7333 146.694 40.904C146.342 41.0747 145.92 41.16 145.43 41.16ZM146.326 39.416C146.763 39.416 147.104 39.272 147.35 38.984C147.606 38.696 147.734 38.3067 147.734 37.816V37.192C147.734 37.064 147.67 37.0107 147.542 37.032L146.549 37.208C145.643 37.3787 145.19 37.7627 145.19 38.36C145.19 38.7013 145.291 38.9627 145.494 39.144C145.696 39.3253 145.974 39.416 146.326 39.416ZM151.297 41C151.191 41 151.137 40.9467 151.137 40.84V34.552C151.137 33.976 151.111 33.5493 151.057 33.272C151.015 32.9947 150.929 32.696 150.801 32.376L150.785 32.312C150.785 32.2373 150.833 32.2 150.929 32.2H153.313C153.367 32.2 153.409 32.216 153.441 32.248C153.473 32.28 153.489 32.3173 153.489 32.36V33.304C153.489 33.4 153.516 33.448 153.569 33.448C153.612 33.448 153.649 33.4107 153.681 33.336C154.14 32.472 154.871 32.04 155.873 32.04C156.449 32.04 156.951 32.1787 157.377 32.456C157.804 32.7333 158.119 33.1173 158.321 33.608C158.343 33.672 158.369 33.704 158.401 33.704C158.444 33.704 158.476 33.6773 158.497 33.624C158.743 33.1333 159.036 32.7493 159.377 32.472C159.729 32.184 160.225 32.04 160.865 32.04C161.409 32.04 161.884 32.168 162.289 32.424C162.695 32.6693 163.004 33.0107 163.217 33.448C163.441 33.8853 163.553 34.376 163.553 34.92V40.84C163.553 40.9467 163.5 41 163.393 41H161.265C161.212 41 161.169 40.984 161.137 40.952C161.105 40.92 161.089 40.8827 161.089 40.84V35.16C161.089 34.36 160.748 33.96 160.065 33.96C159.628 33.96 159.271 34.1413 158.993 34.504C158.716 34.856 158.577 35.4053 158.577 36.152V40.84C158.577 40.9467 158.524 41 158.417 41H156.273C156.167 41 156.113 40.9467 156.113 40.84V35.16C156.113 34.36 155.772 33.96 155.089 33.96C154.652 33.96 154.295 34.1413 154.017 34.504C153.74 34.856 153.601 35.4053 153.601 36.152V40.84C153.601 40.8827 153.585 40.92 153.553 40.952C153.521 40.984 153.479 41 153.425 41H151.297ZM164.704 41C164.661 41 164.624 40.984 164.592 40.952C164.56 40.92 164.544 40.8827 164.544 40.84V34.552C164.544 33.976 164.517 33.5493 164.464 33.272C164.421 32.9947 164.336 32.696 164.208 32.376L164.192 32.312C164.192 32.2373 164.24 32.2 164.336 32.2H166.848C166.89 32.2 166.928 32.216 166.96 32.248C166.992 32.28 167.008 32.3173 167.008 32.36V40.84C167.008 40.8827 166.992 40.92 166.96 40.952C166.928 40.984 166.89 41 166.848 41H164.704ZM165.76 31.8C165.365 31.8 165.034 31.7147 164.768 31.544C164.501 31.3733 164.368 31.1227 164.368 30.792C164.368 30.4507 164.496 30.2 164.752 30.04C165.018 29.88 165.354 29.8 165.76 29.8C166.176 29.8 166.517 29.88 166.784 30.04C167.05 30.2 167.184 30.4507 167.184 30.792C167.184 31.1227 167.045 31.3733 166.768 31.544C166.501 31.7147 166.165 31.8 165.76 31.8ZM168.219 41C168.113 41 168.059 40.9467 168.059 40.84V32.152C168.059 31.576 168.033 31.1493 167.979 30.872C167.937 30.5947 167.851 30.296 167.723 29.976L167.707 29.912C167.707 29.8373 167.755 29.8 167.851 29.8H170.363C170.47 29.8 170.523 29.8533 170.523 29.96V40.84C170.523 40.9467 170.47 41 170.363 41H168.219ZM171.735 41C171.628 41 171.575 40.9467 171.575 40.84V32.152C171.575 31.576 171.548 31.1493 171.495 30.872C171.452 30.5947 171.367 30.296 171.239 29.976L171.223 29.912C171.223 29.8373 171.271 29.8 171.367 29.8H173.879C173.986 29.8 174.039 29.8533 174.039 29.96V36.024C174.039 36.1093 174.066 36.152 174.119 36.152C174.172 36.152 174.21 36.1253 174.231 36.072L176.247 33.144C176.354 32.9733 176.407 32.8133 176.407 32.664C176.407 32.568 176.391 32.488 176.359 32.424C176.348 32.4027 176.343 32.376 176.343 32.344C176.343 32.248 176.386 32.2 176.471 32.2H179.479C179.564 32.2 179.607 32.2373 179.607 32.312C179.607 32.3653 179.58 32.408 179.527 32.44C179.292 32.6 179.079 32.8293 178.887 33.128L176.951 35.976C176.834 36.1467 176.775 36.2853 176.775 36.392C176.775 36.5093 176.828 36.6427 176.935 36.792L179.591 40.808C179.612 40.8293 179.623 40.8613 179.623 40.904C179.623 40.968 179.575 41 179.479 41H176.871C176.786 41 176.722 40.9627 176.679 40.888L174.231 36.92C174.188 36.856 174.151 36.824 174.119 36.824C174.066 36.824 174.039 36.872 174.039 36.968V40.84C174.039 40.9467 173.986 41 173.879 41H171.735ZM180.92 33.736C180.664 33.736 180.461 33.6987 180.312 33.624C180.162 33.5387 180.088 33.4213 180.088 33.272V32.648C180.088 32.6053 180.098 32.5787 180.12 32.568C180.152 32.5467 180.184 32.5467 180.215 32.568C180.333 32.6533 180.445 32.7173 180.552 32.76C180.669 32.8027 180.818 32.824 181 32.824C181.245 32.824 181.442 32.7653 181.592 32.648C181.741 32.52 181.816 32.3653 181.816 32.184C181.816 32.12 181.8 32.0773 181.768 32.056C181.736 32.024 181.688 32.008 181.624 32.008H181.32C180.936 32.008 180.632 31.912 180.408 31.72C180.184 31.5173 180.072 31.2347 180.072 30.872C180.072 30.5307 180.178 30.2427 180.392 30.008C180.616 29.7627 180.936 29.64 181.352 29.64C181.842 29.64 182.216 29.8 182.472 30.12C182.728 30.44 182.856 30.8933 182.856 31.48C182.856 32.1947 182.68 32.7493 182.328 33.144C181.976 33.5387 181.506 33.736 180.92 33.736ZM186.33 41.16C185.242 41.16 184.432 41.0213 183.898 40.744C183.376 40.4667 183.114 40.0667 183.114 39.544V38.056C183.114 37.9493 183.152 37.896 183.226 37.896C183.269 37.896 183.317 37.9227 183.37 37.976C183.701 38.36 184.096 38.6853 184.554 38.952C185.013 39.2187 185.504 39.352 186.026 39.352C186.816 39.352 187.21 39.0533 187.21 38.456C187.21 38.232 187.136 38.0613 186.986 37.944C186.837 37.816 186.57 37.7093 186.186 37.624L185.29 37.416C184.554 37.2453 184.005 36.952 183.642 36.536C183.29 36.1093 183.114 35.5547 183.114 34.872C183.114 34.0187 183.434 33.336 184.074 32.824C184.725 32.3013 185.616 32.04 186.746 32.04C188.517 32.04 189.402 32.5893 189.402 33.688V35.016C189.402 35.1013 189.365 35.144 189.29 35.144C189.237 35.144 189.194 35.1173 189.162 35.064C188.885 34.6373 188.538 34.328 188.122 34.136C187.706 33.9333 187.269 33.832 186.81 33.832C186.416 33.832 186.112 33.912 185.898 34.072C185.685 34.2213 185.578 34.4293 185.578 34.696C185.578 34.9413 185.648 35.128 185.786 35.256C185.936 35.384 186.17 35.48 186.49 35.544L187.466 35.736C188.213 35.8853 188.773 36.168 189.146 36.584C189.53 36.9893 189.722 37.5227 189.722 38.184C189.722 39.0907 189.413 39.816 188.794 40.36C188.186 40.8933 187.365 41.16 186.33 41.16ZM193.367 41C193.26 41 193.207 40.9467 193.207 40.84V32.152C193.207 31.576 193.18 31.1493 193.127 30.872C193.084 30.5947 192.999 30.296 192.871 29.976L192.855 29.912C192.855 29.8373 192.903 29.8 192.999 29.8H196.183C196.279 29.8 196.343 29.8373 196.375 29.912L199.527 36.872C199.559 36.936 199.596 36.968 199.639 36.968C199.714 36.968 199.751 36.9147 199.751 36.808V32.152C199.751 31.576 199.724 31.1493 199.671 30.872C199.628 30.5947 199.543 30.296 199.415 29.976L199.399 29.912C199.399 29.8373 199.447 29.8 199.543 29.8H202.391C202.444 29.8 202.482 29.816 202.503 29.848C202.535 29.88 202.54 29.9227 202.519 29.976C202.391 30.296 202.3 30.5947 202.247 30.872C202.204 31.1493 202.183 31.576 202.183 32.152V40.84C202.183 40.9467 202.13 41 202.023 41H199.207C199.122 41 199.058 40.9627 199.015 40.888L195.847 33.912C195.826 33.8587 195.794 33.832 195.751 33.832C195.676 33.832 195.639 33.88 195.639 33.976V40.84C195.639 40.9467 195.586 41 195.479 41H193.367ZM207.08 42.92C206.45 42.92 205.858 42.8507 205.304 42.712C204.76 42.584 204.338 42.408 204.04 42.184C203.816 42.024 203.704 41.8 203.704 41.512V40.056C203.704 39.9493 203.746 39.896 203.832 39.896C203.874 39.896 203.922 39.9227 203.976 39.976C204.36 40.328 204.786 40.6 205.256 40.792C205.725 40.9733 206.28 41.064 206.92 41.064C207.592 41.064 208.13 40.888 208.536 40.536C208.952 40.184 209.16 39.72 209.16 39.144V38.952C209.16 38.888 209.133 38.856 209.08 38.856C209.037 38.856 209 38.8773 208.968 38.92C208.754 39.2293 208.461 39.496 208.088 39.72C207.714 39.9333 207.25 40.04 206.696 40.04C206.013 40.04 205.4 39.88 204.856 39.56C204.322 39.24 203.901 38.7813 203.592 38.184C203.293 37.576 203.144 36.8613 203.144 36.04C203.144 35.2187 203.293 34.5093 203.592 33.912C203.901 33.304 204.322 32.84 204.856 32.52C205.4 32.2 206.013 32.04 206.696 32.04C207.698 32.04 208.461 32.408 208.984 33.144C209.016 33.1973 209.053 33.224 209.096 33.224C209.128 33.224 209.154 33.2133 209.176 33.192C209.197 33.16 209.208 33.1227 209.208 33.08V32.36C209.208 32.2533 209.261 32.2 209.368 32.2H211.496C211.549 32.2 211.592 32.216 211.624 32.248C211.656 32.28 211.672 32.3173 211.672 32.36V38.68C211.672 40.088 211.261 41.144 210.44 41.848C209.618 42.5627 208.498 42.92 207.08 42.92ZM207.4 37.928C207.944 37.928 208.37 37.7573 208.68 37.416C209 37.064 209.16 36.6053 209.16 36.04C209.16 35.4533 209 34.9787 208.68 34.616C208.37 34.2533 207.944 34.072 207.4 34.072C206.856 34.072 206.424 34.2533 206.104 34.616C205.794 34.9787 205.64 35.4533 205.64 36.04C205.64 36.6053 205.794 37.064 206.104 37.416C206.424 37.7573 206.856 37.928 207.4 37.928ZM212.891 41C212.848 41 212.811 40.984 212.779 40.952C212.747 40.92 212.731 40.8827 212.731 40.84V32.152C212.731 31.576 212.704 31.1493 212.651 30.872C212.608 30.5947 212.523 30.296 212.395 29.976L212.379 29.912C212.379 29.8373 212.427 29.8 212.523 29.8H215.035C215.078 29.8 215.115 29.816 215.147 29.848C215.179 29.88 215.195 29.9173 215.195 29.96V33.24C215.195 33.2827 215.2 33.32 215.211 33.352C215.222 33.3733 215.238 33.384 215.259 33.384C215.302 33.384 215.344 33.3467 215.387 33.272C215.622 32.888 215.899 32.5893 216.219 32.376C216.55 32.152 217.035 32.04 217.675 32.04C218.624 32.04 219.339 32.3173 219.819 32.872C220.299 33.4267 220.539 34.1627 220.539 35.08V40.84C220.539 40.8827 220.523 40.92 220.491 40.952C220.459 40.984 220.422 41 220.379 41H218.235C218.192 41 218.155 40.984 218.123 40.952C218.091 40.92 218.075 40.8827 218.075 40.84V35.304C218.075 34.856 217.958 34.52 217.723 34.296C217.488 34.072 217.184 33.96 216.811 33.96C216.288 33.96 215.888 34.1467 215.611 34.52C215.334 34.8933 215.195 35.4267 215.195 36.12V40.84C215.195 40.8827 215.179 40.92 215.147 40.952C215.115 40.984 215.078 41 215.035 41H212.891ZM225.896 41.16C224.925 41.16 224.083 40.9787 223.368 40.616C222.653 40.2533 222.099 39.7307 221.704 39.048C221.32 38.3547 221.128 37.528 221.128 36.568C221.128 35.5973 221.325 34.7707 221.72 34.088C222.115 33.4053 222.637 32.8933 223.288 32.552C223.939 32.2107 224.643 32.04 225.4 32.04C226.627 32.04 227.587 32.3867 228.28 33.08C228.973 33.7627 229.32 34.712 229.32 35.928C229.32 36.1307 229.315 36.2853 229.304 36.392C229.283 36.7227 229.235 36.9627 229.16 37.112C229.096 37.2613 228.989 37.3627 228.84 37.416C228.701 37.4587 228.472 37.48 228.152 37.48H223.88C223.805 37.48 223.757 37.496 223.736 37.528C223.715 37.5493 223.709 37.5867 223.72 37.64C223.784 38.0667 224.024 38.4133 224.44 38.68C224.867 38.936 225.443 39.064 226.168 39.064C226.616 39.064 227.048 39.0107 227.464 38.904C227.891 38.7973 228.259 38.632 228.568 38.408C228.6 38.3867 228.637 38.376 228.68 38.376C228.744 38.376 228.776 38.4133 228.776 38.488V39.992C228.776 40.2053 228.744 40.3707 228.68 40.488C228.616 40.5947 228.493 40.6907 228.312 40.776C227.8 41.032 226.995 41.16 225.896 41.16ZM226.632 35.848C226.76 35.848 226.845 35.816 226.888 35.752C226.941 35.6773 226.968 35.5653 226.968 35.416C226.968 34.968 226.824 34.6213 226.536 34.376C226.248 34.12 225.864 33.992 225.384 33.992C224.904 33.992 224.509 34.1307 224.2 34.408C223.891 34.6853 223.736 35.032 223.736 35.448C223.736 35.7147 223.848 35.848 224.072 35.848H226.632ZM232.085 41C232.021 41 231.973 40.984 231.941 40.952C231.909 40.9093 231.904 40.8507 231.925 40.776L235.269 30.072C235.323 29.8907 235.44 29.8 235.621 29.8H238.629C238.811 29.8 238.928 29.8907 238.981 30.072L242.341 40.776C242.352 40.7973 242.357 40.824 242.357 40.856C242.357 40.952 242.299 41 242.181 41H239.861C239.755 41 239.685 40.9467 239.653 40.84L239.205 39.256C239.184 39.1707 239.125 39.128 239.029 39.128H235.061C234.965 39.128 234.907 39.1707 234.885 39.256L234.437 40.84C234.405 40.9467 234.336 41 234.229 41H232.085ZM238.421 37.08C238.475 37.08 238.512 37.064 238.533 37.032C238.565 37 238.576 36.9573 238.565 36.904L237.205 32.232C237.173 32.1147 237.12 32.056 237.045 32.056C236.971 32.056 236.917 32.1147 236.885 32.232L235.525 36.904L235.509 36.952C235.509 37.0373 235.563 37.08 235.669 37.08H238.421ZM243.047 41C243.005 41 242.967 40.984 242.935 40.952C242.903 40.92 242.887 40.8827 242.887 40.84V34.552C242.887 33.976 242.861 33.5493 242.807 33.272C242.765 32.9947 242.679 32.696 242.551 32.376L242.535 32.312C242.535 32.2373 242.583 32.2 242.679 32.2H245.079C245.122 32.2 245.159 32.216 245.191 32.248C245.223 32.28 245.239 32.3173 245.239 32.36V33.304C245.239 33.4 245.266 33.448 245.319 33.448C245.362 33.448 245.399 33.4107 245.431 33.336C245.879 32.472 246.679 32.04 247.831 32.04C248.781 32.04 249.495 32.3173 249.975 32.872C250.455 33.4267 250.695 34.1627 250.695 35.08V40.84C250.695 40.8827 250.679 40.92 250.647 40.952C250.615 40.984 250.578 41 250.535 41H248.391C248.349 41 248.311 40.984 248.279 40.952C248.247 40.92 248.231 40.8827 248.231 40.84V35.304C248.231 34.856 248.114 34.52 247.879 34.296C247.645 34.072 247.341 33.96 246.967 33.96C246.445 33.96 246.045 34.1467 245.767 34.52C245.49 34.8933 245.351 35.4267 245.351 36.12V40.84C245.351 40.8827 245.335 40.92 245.303 40.952C245.271 40.984 245.234 41 245.191 41H243.047ZM254.586 41C254.479 41 254.426 40.9467 254.426 40.84V32.152C254.426 31.576 254.399 31.1493 254.346 30.872C254.303 30.5947 254.218 30.296 254.09 29.976L254.074 29.912C254.074 29.8373 254.122 29.8 254.218 29.8H258.586C259.834 29.8 260.89 30.0453 261.754 30.536C262.618 31.0267 263.268 31.6933 263.706 32.536C264.143 33.3787 264.367 34.3333 264.378 35.4C264.367 36.4667 264.143 37.4213 263.706 38.264C263.268 39.1067 262.618 39.7733 261.754 40.264C260.89 40.7547 259.834 41 258.586 41H254.586ZM258.426 38.808C259.151 38.808 259.764 38.6587 260.266 38.36C260.767 38.0507 261.146 37.64 261.402 37.128C261.658 36.6053 261.786 36.0293 261.786 35.4C261.786 34.7707 261.658 34.2 261.402 33.688C261.146 33.1653 260.767 32.7547 260.266 32.456C259.764 32.1467 259.151 31.992 258.426 31.992H257.114C257.007 31.992 256.954 32.0453 256.954 32.152V38.648C256.954 38.7547 257.007 38.808 257.114 38.808H258.426ZM267.633 41.16C266.801 41.16 266.134 40.9413 265.633 40.504C265.142 40.056 264.897 39.4213 264.897 38.6C264.897 37.864 265.115 37.288 265.553 36.872C266.001 36.456 266.715 36.1573 267.697 35.976L269.089 35.72C269.409 35.656 269.627 35.5707 269.745 35.464C269.873 35.3467 269.937 35.2027 269.937 35.032C269.937 34.744 269.809 34.5147 269.553 34.344C269.307 34.1627 268.945 34.072 268.465 34.072C267.846 34.072 267.313 34.2267 266.865 34.536C266.417 34.8347 266.001 35.224 265.617 35.704C265.574 35.768 265.526 35.8 265.473 35.8C265.419 35.8 265.393 35.752 265.393 35.656V33.912C265.393 33.3147 265.723 32.856 266.385 32.536C267.057 32.2053 267.873 32.04 268.833 32.04C270.059 32.04 270.945 32.3067 271.489 32.84C272.033 33.3627 272.305 34.04 272.305 34.872V40.84C272.305 40.8827 272.289 40.92 272.257 40.952C272.225 40.984 272.193 41 272.161 41H270.129C270.097 41 270.059 40.984 270.017 40.952C269.985 40.92 269.969 40.8827 269.969 40.84V40.04C269.969 39.9973 269.953 39.976 269.921 39.976C269.878 39.976 269.841 40.0027 269.809 40.056C269.563 40.4507 269.259 40.7333 268.897 40.904C268.545 41.0747 268.123 41.16 267.633 41.16ZM268.529 39.416C268.966 39.416 269.307 39.272 269.553 38.984C269.809 38.696 269.937 38.3067 269.937 37.816V37.192C269.937 37.064 269.873 37.0107 269.745 37.032L268.753 37.208C267.846 37.3787 267.393 37.7627 267.393 38.36C267.393 38.7013 267.494 38.9627 267.697 39.144C267.899 39.3253 268.177 39.416 268.529 39.416ZM273.501 41C273.458 41 273.421 40.984 273.389 40.952C273.357 40.92 273.34 40.8827 273.34 40.84V34.552C273.34 33.976 273.314 33.5493 273.261 33.272C273.218 32.9947 273.133 32.696 273.005 32.376L272.989 32.312C272.989 32.2373 273.037 32.2 273.133 32.2H275.645C275.687 32.2 275.725 32.216 275.757 32.248C275.789 32.28 275.805 32.3173 275.805 32.36V40.84C275.805 40.8827 275.789 40.92 275.757 40.952C275.725 40.984 275.687 41 275.645 41H273.501ZM274.557 31.8C274.162 31.8 273.831 31.7147 273.565 31.544C273.298 31.3733 273.165 31.1227 273.165 30.792C273.165 30.4507 273.293 30.2 273.549 30.04C273.815 29.88 274.151 29.8 274.557 29.8C274.973 29.8 275.314 29.88 275.581 30.04C275.847 30.2 275.981 30.4507 275.981 30.792C275.981 31.1227 275.842 31.3733 275.565 31.544C275.298 31.7147 274.962 31.8 274.557 31.8ZM277.016 41C276.973 41 276.936 40.984 276.904 40.952C276.872 40.92 276.856 40.8827 276.856 40.84V34.552C276.856 33.976 276.829 33.5493 276.776 33.272C276.733 32.9947 276.648 32.696 276.52 32.376L276.504 32.312C276.504 32.2373 276.552 32.2 276.648 32.2H279.032C279.085 32.2 279.128 32.216 279.16 32.248C279.192 32.28 279.208 32.3173 279.208 32.36V33.672C279.208 33.7253 279.224 33.752 279.256 33.752C279.299 33.752 279.325 33.7253 279.336 33.672C279.656 32.584 280.323 32.04 281.336 32.04C281.763 32.04 281.976 32.1147 281.976 32.264V34.568C281.976 34.664 281.923 34.696 281.816 34.664C281.624 34.6 281.405 34.568 281.16 34.568C280.541 34.568 280.077 34.7227 279.768 35.032C279.469 35.3413 279.32 35.8107 279.32 36.44V40.84C279.32 40.9467 279.267 41 279.16 41H277.016ZM285.193 42.84C284.446 42.84 283.929 42.7973 283.641 42.712C283.396 42.6373 283.273 42.4613 283.273 42.184V40.888C283.273 40.7387 283.348 40.6907 283.497 40.744C283.636 40.7867 283.849 40.8293 284.137 40.872C284.436 40.9147 284.734 40.936 285.033 40.936C285.321 40.936 285.465 40.8507 285.465 40.68C285.465 40.6267 285.417 40.456 285.321 40.168L283.273 34.072C283.124 33.624 282.985 33.288 282.857 33.064C282.74 32.84 282.596 32.632 282.425 32.44C282.393 32.408 282.377 32.3707 282.377 32.328C282.377 32.2427 282.425 32.2 282.521 32.2H285.609C285.705 32.2 285.769 32.2213 285.801 32.264C285.833 32.3067 285.828 32.36 285.785 32.424C285.657 32.616 285.593 32.8453 285.593 33.112C285.593 33.3467 285.641 33.64 285.737 33.992L286.841 37.944C286.873 38.0507 286.926 38.104 287.001 38.104C287.086 38.104 287.14 38.0507 287.161 37.944L288.249 33.752C288.313 33.5067 288.345 33.2987 288.345 33.128C288.345 32.8613 288.276 32.6267 288.137 32.424C288.116 32.3813 288.105 32.3493 288.105 32.328C288.105 32.2427 288.174 32.2 288.313 32.2H291.241C291.337 32.2 291.385 32.2427 291.385 32.328C291.385 32.3707 291.369 32.408 291.337 32.44C291.166 32.6427 291.017 32.8507 290.889 33.064C290.772 33.2773 290.644 33.6027 290.505 34.04L288.425 40.616C288.169 41.4373 287.79 42.0133 287.289 42.344C286.798 42.6747 286.1 42.84 285.193 42.84ZM294.898 41C294.792 41 294.738 40.9467 294.738 40.84V32.152C294.738 31.576 294.712 31.1493 294.658 30.872C294.616 30.5947 294.53 30.296 294.402 29.976L294.386 29.912C294.386 29.8373 294.434 29.8 294.53 29.8H301.81C301.917 29.8 301.97 29.8533 301.97 29.96V32.104C301.97 32.2213 301.901 32.2587 301.762 32.216C301.368 32.0987 301.01 32.0187 300.69 31.976C300.37 31.9333 299.922 31.912 299.346 31.912H297.426C297.32 31.912 297.266 31.9653 297.266 32.072V34.376C297.266 34.4827 297.32 34.536 297.426 34.536H301.186C301.293 34.536 301.346 34.5893 301.346 34.696V36.6C301.346 36.7067 301.293 36.76 301.186 36.76H297.426C297.32 36.76 297.266 36.8133 297.266 36.92V40.84C297.266 40.9467 297.213 41 297.106 41H294.898ZM304.789 41.16C303.957 41.16 303.29 40.9413 302.789 40.504C302.298 40.056 302.053 39.4213 302.053 38.6C302.053 37.864 302.272 37.288 302.709 36.872C303.157 36.456 303.872 36.1573 304.853 35.976L306.245 35.72C306.565 35.656 306.784 35.5707 306.901 35.464C307.029 35.3467 307.093 35.2027 307.093 35.032C307.093 34.744 306.965 34.5147 306.709 34.344C306.464 34.1627 306.101 34.072 305.621 34.072C305.002 34.072 304.469 34.2267 304.021 34.536C303.573 34.8347 303.157 35.224 302.773 35.704C302.73 35.768 302.682 35.8 302.629 35.8C302.576 35.8 302.549 35.752 302.549 35.656V33.912C302.549 33.3147 302.88 32.856 303.541 32.536C304.213 32.2053 305.029 32.04 305.989 32.04C307.216 32.04 308.101 32.3067 308.645 32.84C309.189 33.3627 309.461 34.04 309.461 34.872V40.84C309.461 40.8827 309.445 40.92 309.413 40.952C309.381 40.984 309.349 41 309.317 41H307.285C307.253 41 307.216 40.984 307.173 40.952C307.141 40.92 307.125 40.8827 307.125 40.84V40.04C307.125 39.9973 307.109 39.976 307.077 39.976C307.034 39.976 306.997 40.0027 306.965 40.056C306.72 40.4507 306.416 40.7333 306.053 40.904C305.701 41.0747 305.28 41.16 304.789 41.16ZM305.685 39.416C306.122 39.416 306.464 39.272 306.709 38.984C306.965 38.696 307.093 38.3067 307.093 37.816V37.192C307.093 37.064 307.029 37.0107 306.901 37.032L305.909 37.208C305.002 37.3787 304.549 37.7627 304.549 38.36C304.549 38.7013 304.65 38.9627 304.853 39.144C305.056 39.3253 305.333 39.416 305.685 39.416ZM310.657 41C310.614 41 310.577 40.984 310.545 40.952C310.513 40.92 310.497 40.8827 310.497 40.84V34.552C310.497 33.976 310.47 33.5493 310.417 33.272C310.374 32.9947 310.289 32.696 310.161 32.376L310.145 32.312C310.145 32.2373 310.193 32.2 310.289 32.2H312.673C312.726 32.2 312.769 32.216 312.801 32.248C312.833 32.28 312.849 32.3173 312.849 32.36V33.672C312.849 33.7253 312.865 33.752 312.897 33.752C312.939 33.752 312.966 33.7253 312.977 33.672C313.297 32.584 313.963 32.04 314.977 32.04C315.403 32.04 315.617 32.1147 315.617 32.264V34.568C315.617 34.664 315.563 34.696 315.457 34.664C315.265 34.6 315.046 34.568 314.801 34.568C314.182 34.568 313.718 34.7227 313.409 35.032C313.11 35.3413 312.961 35.8107 312.961 36.44V40.84C312.961 40.9467 312.907 41 312.801 41H310.657ZM316.626 41C316.519 41 316.465 40.9467 316.465 40.84V34.552C316.465 33.976 316.439 33.5493 316.386 33.272C316.343 32.9947 316.258 32.696 316.13 32.376L316.114 32.312C316.114 32.2373 316.162 32.2 316.258 32.2H318.642C318.695 32.2 318.738 32.216 318.77 32.248C318.802 32.28 318.818 32.3173 318.818 32.36V33.304C318.818 33.4 318.844 33.448 318.898 33.448C318.94 33.448 318.978 33.4107 319.01 33.336C319.468 32.472 320.199 32.04 321.202 32.04C321.778 32.04 322.279 32.1787 322.706 32.456C323.132 32.7333 323.447 33.1173 323.65 33.608C323.671 33.672 323.698 33.704 323.73 33.704C323.772 33.704 323.804 33.6773 323.826 33.624C324.071 33.1333 324.364 32.7493 324.706 32.472C325.058 32.184 325.554 32.04 326.194 32.04C326.738 32.04 327.212 32.168 327.618 32.424C328.023 32.6693 328.332 33.0107 328.546 33.448C328.77 33.8853 328.882 34.376 328.882 34.92V40.84C328.882 40.9467 328.828 41 328.722 41H326.594C326.54 41 326.498 40.984 326.466 40.952C326.434 40.92 326.418 40.8827 326.418 40.84V35.16C326.418 34.36 326.076 33.96 325.394 33.96C324.956 33.96 324.599 34.1413 324.322 34.504C324.044 34.856 323.906 35.4053 323.906 36.152V40.84C323.906 40.9467 323.852 41 323.746 41H321.602C321.495 41 321.442 40.9467 321.442 40.84V35.16C321.442 34.36 321.1 33.96 320.418 33.96C319.98 33.96 319.623 34.1413 319.346 34.504C319.068 34.856 318.93 35.4053 318.93 36.152V40.84C318.93 40.8827 318.914 40.92 318.882 40.952C318.85 40.984 318.807 41 318.754 41H316.626ZM331.228 34.536C330.812 34.536 330.481 34.4187 330.236 34.184C329.99 33.9493 329.868 33.6507 329.868 33.288C329.868 32.936 329.99 32.6427 330.236 32.408C330.481 32.1627 330.812 32.04 331.228 32.04C331.644 32.04 331.974 32.1627 332.22 32.408C332.465 32.6427 332.588 32.936 332.588 33.288C332.588 33.6507 332.465 33.9493 332.22 34.184C331.974 34.4187 331.644 34.536 331.228 34.536ZM331.228 41.16C330.812 41.16 330.481 41.0427 330.236 40.808C329.99 40.5733 329.868 40.2747 329.868 39.912C329.868 39.56 329.99 39.2667 330.236 39.032C330.481 38.7867 330.812 38.664 331.228 38.664C331.644 38.664 331.974 38.7867 332.22 39.032C332.465 39.2667 332.588 39.56 332.588 39.912C332.588 40.2747 332.465 40.5733 332.22 40.808C331.974 41.0427 331.644 41.16 331.228 41.16Z" fill="white"/>
<path d="M113.684 70.28C110.128 70.28 108.028 67.228 108.028 60.2C108.028 53.172 110.128 50.12 113.684 50.12C114.58 50.12 115.504 50.344 116.148 50.848C116.708 51.296 116.82 51.856 116.82 52.528V54.852C116.82 55.272 116.652 55.468 116.4 55.468C116.092 55.468 115.896 55.216 115.644 54.908C115.364 54.572 115 54.208 114.384 54.208C112.984 54.208 112.284 55.972 112.284 60.2C112.284 64.428 112.984 66.192 114.384 66.192C115 66.192 115.364 65.828 115.644 65.492C115.896 65.184 116.064 64.932 116.372 64.932C116.624 64.932 116.82 65.128 116.82 65.548V67.872C116.82 68.544 116.708 69.104 116.148 69.552C115.504 70.056 114.58 70.28 113.684 70.28ZM122.812 70.28C119.48 70.28 117.38 67.788 117.38 60.2C117.38 52.612 119.48 50.12 122.812 50.12C126.144 50.12 128.272 52.612 128.272 60.2C128.272 67.788 126.144 70.28 122.812 70.28ZM122.812 66.36C123.456 66.36 123.988 65.632 123.988 60.2C123.988 54.74 123.456 54.04 122.812 54.04C122.168 54.04 121.664 54.74 121.664 60.2C121.664 65.632 122.168 66.36 122.812 66.36ZM129.98 70C129.616 70 129.42 69.804 129.42 69.44V54.796C129.42 52.388 129.336 51.996 129.084 50.82C129.028 50.568 129.168 50.4 129.42 50.4H134.46C135.076 50.4 135.3 50.568 135.356 51.212L136.14 59.948C136.168 60.172 136.252 60.256 136.392 60.256C136.532 60.256 136.644 60.172 136.672 59.948L137.456 51.212C137.512 50.568 137.736 50.4 138.352 50.4H143.588C143.84 50.4 143.98 50.568 143.924 50.82C143.672 51.996 143.588 52.388 143.588 54.796V69.44C143.588 69.804 143.392 70 143.028 70H140.312C139.948 70 139.752 69.804 139.752 69.44C139.752 65.492 139.808 61.124 139.864 56.896C139.864 56.7 139.808 56.56 139.612 56.56C139.472 56.56 139.36 56.644 139.332 56.868L137.792 69.468C137.736 69.832 137.512 70 137.176 70H135.552C135.216 70 134.992 69.832 134.936 69.468L133.396 56.84C133.368 56.644 133.284 56.56 133.116 56.56C132.92 56.56 132.864 56.728 132.864 56.896C132.92 61.124 132.976 65.492 132.976 69.44C132.976 69.804 132.78 70 132.416 70H129.98ZM145.648 70C145.284 70 145.088 69.804 145.088 69.44V54.796C145.088 52.388 145.004 51.996 144.752 50.82C144.696 50.568 144.836 50.4 145.088 50.4H150.128C150.744 50.4 150.968 50.568 151.024 51.212L151.808 59.948C151.836 60.172 151.92 60.256 152.06 60.256C152.2 60.256 152.312 60.172 152.34 59.948L153.124 51.212C153.18 50.568 153.404 50.4 154.02 50.4H159.256C159.508 50.4 159.648 50.568 159.592 50.82C159.34 51.996 159.256 52.388 159.256 54.796V69.44C159.256 69.804 159.06 70 158.696 70H155.98C155.616 70 155.42 69.804 155.42 69.44C155.42 65.492 155.476 61.124 155.532 56.896C155.532 56.7 155.476 56.56 155.28 56.56C155.14 56.56 155.028 56.644 155 56.868L153.46 69.468C153.404 69.832 153.18 70 152.844 70H151.22C150.884 70 150.66 69.832 150.604 69.468L149.064 56.84C149.036 56.644 148.952 56.56 148.784 56.56C148.588 56.56 148.532 56.728 148.532 56.896C148.588 61.124 148.644 65.492 148.644 69.44C148.644 69.804 148.448 70 148.084 70H145.648ZM161.316 70C160.952 70 160.756 69.804 160.756 69.44V54.796C160.756 52.388 160.672 51.996 160.42 50.82C160.364 50.568 160.504 50.4 160.756 50.4H164.816C165.068 50.4 165.208 50.568 165.152 50.82C164.9 51.996 164.816 52.388 164.816 54.796V69.44C164.816 69.804 164.62 70 164.256 70H161.316ZM169.134 70C168.77 70 168.574 69.804 168.574 69.44V54.46C168.574 54.208 168.462 53.984 168.042 53.984C167.594 53.984 167.314 54.208 166.558 54.824C166.166 55.132 165.802 55.244 165.802 54.768V50.96C165.802 50.596 165.998 50.4 166.362 50.4H174.846C175.21 50.4 175.406 50.596 175.406 50.96V54.768C175.406 55.244 175.042 55.132 174.65 54.824C173.894 54.208 173.614 53.984 173.166 53.984C172.746 53.984 172.634 54.208 172.634 54.46V69.44C172.634 69.804 172.438 70 172.074 70H169.134ZM179.197 70C178.833 70 178.637 69.804 178.637 69.44V54.46C178.637 54.208 178.525 53.984 178.105 53.984C177.657 53.984 177.377 54.208 176.621 54.824C176.229 55.132 175.865 55.244 175.865 54.768V50.96C175.865 50.596 176.061 50.4 176.425 50.4H184.909C185.273 50.4 185.469 50.596 185.469 50.96V54.768C185.469 55.244 185.105 55.132 184.713 54.824C183.957 54.208 183.677 53.984 183.229 53.984C182.809 53.984 182.697 54.208 182.697 54.46V69.44C182.697 69.804 182.501 70 182.137 70H179.197ZM187.019 70C186.655 70 186.459 69.804 186.459 69.44V55.076C186.459 52.668 186.375 51.996 186.123 50.82C186.067 50.568 186.207 50.4 186.459 50.4H193.907C194.075 50.4 194.187 50.512 194.187 50.68V54.572C194.187 54.88 193.935 54.936 193.627 54.768C192.563 54.208 191.975 54.012 191.331 54.012C190.687 54.012 190.519 54.264 190.519 54.712V57.848C190.519 58.016 190.631 58.128 190.799 58.128H193.459C193.627 58.128 193.739 58.24 193.739 58.408V61.74C193.739 61.908 193.627 62.02 193.459 62.02H190.799C190.631 62.02 190.519 62.132 190.519 62.3V65.8C190.519 65.968 190.631 66.08 190.799 66.08H193.991C194.159 66.08 194.271 66.192 194.271 66.36V69.72C194.271 69.888 194.159 70 193.991 70H187.019ZM195.961 70C195.597 70 195.401 69.804 195.401 69.44V55.076C195.401 52.668 195.317 51.996 195.065 50.82C195.009 50.568 195.149 50.4 195.401 50.4H199.909C203.745 50.4 205.817 53.172 205.817 60.2C205.817 67.228 203.745 70 199.909 70H195.961ZM199.825 66.164C200.721 66.164 201.561 65.24 201.561 60.2C201.561 55.16 200.721 54.236 199.825 54.236H199.741C199.573 54.236 199.461 54.348 199.461 54.516V65.884C199.461 66.052 199.573 66.164 199.741 66.164H199.825ZM213.185 70C212.821 70 212.625 69.804 212.625 69.44V54.46C212.625 54.208 212.513 53.984 212.093 53.984C211.645 53.984 211.365 54.208 210.609 54.824C210.217 55.132 209.853 55.244 209.853 54.768V50.96C209.853 50.596 210.049 50.4 210.413 50.4H218.897C219.261 50.4 219.457 50.596 219.457 50.96V54.768C219.457 55.244 219.093 55.132 218.701 54.824C217.945 54.208 217.665 53.984 217.217 53.984C216.797 53.984 216.685 54.208 216.685 54.46V69.44C216.685 69.804 216.489 70 216.125 70H213.185ZM225.133 70.28C221.801 70.28 219.701 67.788 219.701 60.2C219.701 52.612 221.801 50.12 225.133 50.12C228.465 50.12 230.593 52.612 230.593 60.2C230.593 67.788 228.465 70.28 225.133 70.28ZM225.133 66.36C225.777 66.36 226.309 65.632 226.309 60.2C226.309 54.74 225.777 54.04 225.133 54.04C224.489 54.04 223.985 54.74 223.985 60.2C223.985 65.632 224.489 66.36 225.133 66.36ZM235.718 70C235.354 70 235.158 69.804 235.158 69.44V54.796C235.158 52.388 235.074 51.996 234.822 50.82C234.766 50.568 234.906 50.4 235.158 50.4H240.198C240.814 50.4 241.038 50.568 241.094 51.212L241.878 59.948C241.906 60.172 241.99 60.256 242.13 60.256C242.27 60.256 242.382 60.172 242.41 59.948L243.194 51.212C243.25 50.568 243.474 50.4 244.09 50.4H249.326C249.578 50.4 249.718 50.568 249.662 50.82C249.41 51.996 249.326 52.388 249.326 54.796V69.44C249.326 69.804 249.13 70 248.766 70H246.05C245.686 70 245.49 69.804 245.49 69.44C245.49 65.492 245.546 61.124 245.602 56.896C245.602 56.7 245.546 56.56 245.35 56.56C245.21 56.56 245.098 56.644 245.07 56.868L243.53 69.468C243.474 69.832 243.25 70 242.914 70H241.29C240.954 70 240.73 69.832 240.674 69.468L239.134 56.84C239.106 56.644 239.022 56.56 238.854 56.56C238.658 56.56 238.602 56.728 238.602 56.896C238.658 61.124 238.714 65.492 238.714 69.44C238.714 69.804 238.518 70 238.154 70H235.718ZM250.686 70C250.378 70 250.21 69.86 250.238 69.58L252.002 53.116C252.114 52.052 252.058 51.52 251.946 50.932C251.89 50.568 252.058 50.4 252.31 50.4H258.778C259.03 50.4 259.198 50.568 259.114 50.932C259.002 51.464 258.918 51.968 259.03 53.116L260.794 69.58C260.822 69.86 260.654 70 260.346 70H257.266C257.014 70 256.846 69.86 256.818 69.636L256.566 67.172C256.538 66.892 256.398 66.752 256.118 66.752H254.69C254.41 66.752 254.242 66.892 254.214 67.172L253.962 69.636C253.934 69.888 253.738 70 253.514 70H250.686ZM255.81 63C256.118 63 256.174 62.86 256.146 62.636C255.95 60.368 255.81 58.772 255.698 55.664C255.698 55.412 255.586 55.272 255.39 55.272C255.194 55.272 255.082 55.412 255.082 55.664C254.97 58.772 254.83 60.368 254.634 62.636C254.606 62.86 254.662 63 254.97 63H255.81ZM262.269 70C261.905 70 261.709 69.804 261.709 69.44V54.796C261.709 52.388 261.625 51.996 261.373 50.82C261.317 50.568 261.457 50.4 261.709 50.4H265.769C266.021 50.4 266.161 50.568 266.105 50.82C265.853 51.996 265.769 52.388 265.769 54.796V69.44C265.769 69.804 265.573 70 265.209 70H262.269ZM267.847 70C267.483 70 267.287 69.804 267.287 69.44V54.796C267.287 52.388 267.203 51.996 266.951 50.82C266.895 50.568 267.035 50.4 267.287 50.4H270.535C270.871 50.4 271.095 50.568 271.151 50.876L272.943 59.36C272.971 59.556 273.083 59.668 273.251 59.668C273.447 59.668 273.503 59.528 273.503 59.304C273.475 58.548 273.531 56.112 273.475 54.516C273.391 52.388 273.307 51.996 273.055 50.82C272.999 50.568 273.139 50.4 273.391 50.4H277.059C277.311 50.4 277.451 50.568 277.395 50.82C277.143 51.996 277.059 52.388 277.059 54.796V69.44C277.059 69.804 276.863 70 276.499 70H273.811C273.475 70 273.251 69.832 273.195 69.524L271.375 61.012C271.347 60.816 271.235 60.732 271.095 60.732C270.927 60.732 270.815 60.844 270.815 61.068C270.899 62.944 270.983 66.836 270.983 69.44C270.983 69.804 270.787 70 270.423 70H267.847ZM281.38 70C281.016 70 280.82 69.804 280.82 69.44V54.46C280.82 54.208 280.708 53.984 280.288 53.984C279.84 53.984 279.56 54.208 278.804 54.824C278.412 55.132 278.048 55.244 278.048 54.768V50.96C278.048 50.596 278.244 50.4 278.608 50.4H287.092C287.456 50.4 287.652 50.596 287.652 50.96V54.768C287.652 55.244 287.288 55.132 286.896 54.824C286.14 54.208 285.86 53.984 285.412 53.984C284.992 53.984 284.88 54.208 284.88 54.46V69.44C284.88 69.804 284.684 70 284.32 70H281.38ZM287.655 70C287.347 70 287.179 69.86 287.207 69.58L288.971 53.116C289.083 52.052 289.027 51.52 288.915 50.932C288.859 50.568 289.027 50.4 289.279 50.4H295.747C295.999 50.4 296.167 50.568 296.083 50.932C295.971 51.464 295.887 51.968 295.999 53.116L297.763 69.58C297.791 69.86 297.623 70 297.315 70H294.235C293.983 70 293.815 69.86 293.787 69.636L293.535 67.172C293.507 66.892 293.367 66.752 293.087 66.752H291.659C291.379 66.752 291.211 66.892 291.183 67.172L290.931 69.636C290.903 69.888 290.707 70 290.483 70H287.655ZM292.779 63C293.087 63 293.143 62.86 293.115 62.636C292.919 60.368 292.779 58.772 292.667 55.664C292.667 55.412 292.555 55.272 292.359 55.272C292.163 55.272 292.051 55.412 292.051 55.664C291.939 58.772 291.799 60.368 291.603 62.636C291.575 62.86 291.631 63 291.939 63H292.779ZM299.238 70C298.874 70 298.678 69.804 298.678 69.44V54.796C298.678 52.388 298.594 51.996 298.342 50.82C298.286 50.568 298.426 50.4 298.678 50.4H302.738C302.99 50.4 303.13 50.568 303.074 50.82C302.822 51.996 302.738 52.388 302.738 54.796V69.44C302.738 69.804 302.542 70 302.178 70H299.238ZM304.816 70C304.452 70 304.256 69.804 304.256 69.44V54.796C304.256 52.388 304.172 51.996 303.92 50.82C303.864 50.568 304.004 50.4 304.256 50.4H307.504C307.84 50.4 308.064 50.568 308.12 50.876L309.912 59.36C309.94 59.556 310.052 59.668 310.22 59.668C310.416 59.668 310.472 59.528 310.472 59.304C310.444 58.548 310.5 56.112 310.444 54.516C310.36 52.388 310.276 51.996 310.024 50.82C309.968 50.568 310.108 50.4 310.36 50.4H314.028C314.28 50.4 314.42 50.568 314.364 50.82C314.112 51.996 314.028 52.388 314.028 54.796V69.44C314.028 69.804 313.832 70 313.468 70H310.78C310.444 70 310.22 69.832 310.164 69.524L308.344 61.012C308.316 60.816 308.204 60.732 308.064 60.732C307.896 60.732 307.784 60.844 307.784 61.068C307.868 62.944 307.952 66.836 307.952 69.44C307.952 69.804 307.756 70 307.392 70H304.816ZM316.109 70C315.745 70 315.549 69.804 315.549 69.44V54.796C315.549 52.388 315.465 51.996 315.213 50.82C315.157 50.568 315.297 50.4 315.549 50.4H319.609C319.861 50.4 320.001 50.568 319.945 50.82C319.693 51.996 319.609 52.388 319.609 54.796V69.44C319.609 69.804 319.413 70 319.049 70H316.109ZM321.687 70C321.323 70 321.127 69.804 321.127 69.44V54.796C321.127 52.388 321.043 51.996 320.791 50.82C320.735 50.568 320.875 50.4 321.127 50.4H324.375C324.711 50.4 324.935 50.568 324.991 50.876L326.783 59.36C326.811 59.556 326.923 59.668 327.091 59.668C327.287 59.668 327.343 59.528 327.343 59.304C327.315 58.548 327.371 56.112 327.315 54.516C327.231 52.388 327.147 51.996 326.895 50.82C326.839 50.568 326.979 50.4 327.231 50.4H330.899C331.151 50.4 331.291 50.568 331.235 50.82C330.983 51.996 330.899 52.388 330.899 54.796V69.44C330.899 69.804 330.703 70 330.339 70H327.651C327.315 70 327.091 69.832 327.035 69.524L325.215 61.012C325.187 60.816 325.075 60.732 324.935 60.732C324.767 60.732 324.655 60.844 324.655 61.068C324.739 62.944 324.823 66.836 324.823 69.44C324.823 69.804 324.627 70 324.263 70H321.687ZM337.6 70.28C333.68 70.28 332.028 66.948 332.028 60.2C332.028 53.144 334.156 50.12 337.824 50.12C338.888 50.12 340.008 50.288 340.624 50.932C340.96 51.268 341.1 51.688 341.1 52.276V54.824C341.1 55.188 341.016 55.496 340.68 55.496C340.484 55.496 340.316 55.412 339.952 54.992C339.644 54.628 339.252 54.208 338.58 54.208C337.012 54.208 336.256 56.056 336.256 60.256C336.256 61.404 336.312 66.472 337.516 66.472C337.768 66.472 337.88 66.22 337.88 65.828V63.364C337.88 60.956 337.796 60.564 337.544 59.388C337.488 59.136 337.628 58.968 337.88 58.968H340.904C341.268 58.968 341.492 59.164 341.492 59.528V65.688C341.492 69.104 339.672 70.28 337.6 70.28ZM98.2613 99C97.8973 99 97.7013 98.804 97.7013 98.44V83.796C97.7013 81.388 97.6173 80.996 97.3653 79.82C97.3093 79.568 97.4493 79.4 97.7013 79.4H100.949C101.285 79.4 101.509 79.568 101.565 79.876L103.357 88.36C103.385 88.556 103.497 88.668 103.665 88.668C103.861 88.668 103.917 88.528 103.917 88.304C103.889 87.548 103.945 85.112 103.889 83.516C103.805 81.388 103.721 80.996 103.469 79.82C103.413 79.568 103.553 79.4 103.805 79.4H107.473C107.725 79.4 107.865 79.568 107.809 79.82C107.557 80.996 107.473 81.388 107.473 83.796V98.44C107.473 98.804 107.277 99 106.913 99H104.225C103.889 99 103.665 98.832 103.609 98.524L101.789 90.012C101.761 89.816 101.649 89.732 101.509 89.732C101.341 89.732 101.229 89.844 101.229 90.068C101.313 91.944 101.397 95.836 101.397 98.44C101.397 98.804 101.201 99 100.837 99H98.2613ZM109.554 99C109.19 99 108.994 98.804 108.994 98.44V84.076C108.994 81.668 108.91 80.996 108.658 79.82C108.602 79.568 108.742 79.4 108.994 79.4H116.442C116.61 79.4 116.722 79.512 116.722 79.68V83.572C116.722 83.88 116.47 83.936 116.162 83.768C115.098 83.208 114.51 83.012 113.866 83.012C113.222 83.012 113.054 83.264 113.054 83.712V86.848C113.054 87.016 113.166 87.128 113.334 87.128H115.994C116.162 87.128 116.274 87.24 116.274 87.408V90.74C116.274 90.908 116.162 91.02 115.994 91.02H113.334C113.166 91.02 113.054 91.132 113.054 91.3V94.8C113.054 94.968 113.166 95.08 113.334 95.08H116.526C116.694 95.08 116.806 95.192 116.806 95.36V98.72C116.806 98.888 116.694 99 116.526 99H109.554ZM122.836 99.28C119.7 99.28 117.908 97.376 117.908 93.932V84.076C117.908 81.668 117.824 80.996 117.572 79.82C117.516 79.568 117.656 79.4 117.908 79.4H121.968C122.22 79.4 122.36 79.568 122.304 79.82C122.052 80.996 121.968 81.668 121.968 84.076V93.988C121.968 94.716 122.304 95.108 122.836 95.108C123.34 95.108 123.676 94.716 123.676 93.988V84.076C123.676 81.668 123.592 80.996 123.34 79.82C123.284 79.568 123.424 79.4 123.676 79.4H127.736C127.988 79.4 128.128 79.568 128.072 79.82C127.82 80.996 127.736 81.668 127.736 84.076V93.932C127.736 97.376 125.944 99.28 122.836 99.28ZM132.029 99C131.665 99 131.469 98.804 131.469 98.44V83.46C131.469 83.208 131.357 82.984 130.937 82.984C130.489 82.984 130.209 83.208 129.453 83.824C129.061 84.132 128.697 84.244 128.697 83.768V79.96C128.697 79.596 128.893 79.4 129.257 79.4H137.741C138.105 79.4 138.301 79.596 138.301 79.96V83.768C138.301 84.244 137.937 84.132 137.545 83.824C136.789 83.208 136.509 82.984 136.061 82.984C135.641 82.984 135.529 83.208 135.529 83.46V98.44C135.529 98.804 135.333 99 134.969 99H132.029ZM139.851 99C139.487 99 139.291 98.804 139.291 98.44V84.076C139.291 81.668 139.207 80.996 138.955 79.82C138.899 79.568 139.039 79.4 139.291 79.4H143.827C147.439 79.4 149.091 82.116 149.091 86.288C149.091 87.996 148.727 89.564 148.055 90.628C147.607 91.328 147.551 91.944 147.691 92.532L149.175 98.328C149.231 98.552 149.231 99 148.699 99H145.703C145.367 99 145.171 98.832 145.087 98.468L143.883 93.008C143.827 92.784 143.771 92.588 143.547 92.588C143.351 92.588 143.267 92.756 143.267 93.036V98.44C143.267 98.804 143.071 99 142.707 99H139.851ZM143.771 89.844C144.499 89.844 145.059 88.864 145.059 86.344C145.059 83.852 144.499 82.872 143.771 82.872H143.659C143.407 82.872 143.267 83.012 143.267 83.264V89.452C143.267 89.704 143.407 89.844 143.659 89.844H143.771ZM150.171 99C149.863 99 149.695 98.86 149.723 98.58L151.487 82.116C151.599 81.052 151.543 80.52 151.431 79.932C151.375 79.568 151.543 79.4 151.795 79.4H158.263C158.515 79.4 158.683 79.568 158.599 79.932C158.487 80.464 158.403 80.968 158.515 82.116L160.279 98.58C160.307 98.86 160.139 99 159.831 99H156.751C156.499 99 156.331 98.86 156.303 98.636L156.051 96.172C156.023 95.892 155.883 95.752 155.603 95.752H154.175C153.895 95.752 153.727 95.892 153.699 96.172L153.447 98.636C153.419 98.888 153.223 99 152.999 99H150.171ZM155.295 92C155.603 92 155.659 91.86 155.631 91.636C155.435 89.368 155.295 87.772 155.183 84.664C155.183 84.412 155.071 84.272 154.875 84.272C154.679 84.272 154.567 84.412 154.567 84.664C154.455 87.772 154.315 89.368 154.119 91.636C154.091 91.86 154.147 92 154.455 92H155.295ZM161.754 99C161.39 99 161.194 98.804 161.194 98.44V84.076C161.194 81.668 161.11 80.996 160.858 79.82C160.802 79.568 160.942 79.4 161.194 79.4H165.254C165.506 79.4 165.646 79.568 165.59 79.82C165.338 80.996 165.254 81.668 165.254 84.076V94.8C165.254 94.968 165.366 95.08 165.534 95.08H168.726C168.894 95.08 169.006 95.192 169.006 95.36V98.72C169.006 98.888 168.894 99 168.726 99H161.754ZM170.476 99C170.112 99 169.916 98.804 169.916 98.44V83.796C169.916 81.388 169.832 80.996 169.58 79.82C169.524 79.568 169.664 79.4 169.916 79.4H173.976C174.228 79.4 174.368 79.568 174.312 79.82C174.06 80.996 173.976 81.388 173.976 83.796V98.44C173.976 98.804 173.78 99 173.416 99H170.476ZM178.294 99C177.93 99 177.734 98.804 177.734 98.44V83.46C177.734 83.208 177.622 82.984 177.202 82.984C176.754 82.984 176.474 83.208 175.718 83.824C175.326 84.132 174.962 84.244 174.962 83.768V79.96C174.962 79.596 175.158 79.4 175.522 79.4H184.006C184.37 79.4 184.566 79.596 184.566 79.96V83.768C184.566 84.244 184.202 84.132 183.81 83.824C183.054 83.208 182.774 82.984 182.326 82.984C181.906 82.984 181.794 83.208 181.794 83.46V98.44C181.794 98.804 181.598 99 181.234 99H178.294ZM188.942 99C188.578 99 188.382 98.804 188.382 98.44V96.34C188.382 94.548 188.27 93.848 187.654 91.076L185.806 82.872C185.47 81.388 185.302 80.94 184.769 79.792C184.657 79.568 184.769 79.4 184.994 79.4H189.502C189.726 79.4 189.81 79.624 189.782 79.792C189.614 80.436 189.446 81.024 189.782 82.788C189.978 83.852 190.034 84.888 190.23 86.82C190.258 87.1 190.314 87.324 190.538 87.324C190.762 87.324 190.818 87.1 190.846 86.82C191.042 84.888 191.126 83.852 191.322 82.788C191.658 81.024 191.49 80.436 191.322 79.792C191.294 79.624 191.378 79.4 191.602 79.4H195.718C195.942 79.4 196.054 79.568 195.942 79.792C195.41 80.94 195.214 81.388 194.906 82.872L193.198 91.076C192.61 93.848 192.442 94.548 192.442 96.34V98.44C192.442 98.804 192.246 99 191.882 99H188.942ZM204.652 99.28C201.32 99.28 199.22 96.788 199.22 89.2C199.22 81.612 201.32 79.12 204.652 79.12C207.984 79.12 210.112 81.612 210.112 89.2C210.112 96.788 207.984 99.28 204.652 99.28ZM204.652 95.36C205.296 95.36 205.828 94.632 205.828 89.2C205.828 83.74 205.296 83.04 204.652 83.04C204.008 83.04 203.504 83.74 203.504 89.2C203.504 94.632 204.008 95.36 204.652 95.36ZM211.82 99C211.456 99 211.26 98.804 211.26 98.44V84.076C211.26 81.668 211.176 80.996 210.924 79.82C210.868 79.568 211.008 79.4 211.26 79.4H218.708C218.876 79.4 218.988 79.512 218.988 79.68V83.572C218.988 83.88 218.736 83.936 218.428 83.768C217.364 83.208 216.776 83.012 216.132 83.012C215.488 83.012 215.32 83.264 215.32 83.712V86.848C215.32 87.016 215.432 87.128 215.6 87.128H218.26C218.428 87.128 218.54 87.24 218.54 87.408V90.74C218.54 90.908 218.428 91.02 218.26 91.02H215.6C215.432 91.02 215.32 91.132 215.32 91.3V98.44C215.32 98.804 215.124 99 214.76 99H211.82ZM223.261 99C222.953 99 222.785 98.86 222.813 98.58L224.577 82.116C224.689 81.052 224.633 80.52 224.521 79.932C224.465 79.568 224.633 79.4 224.885 79.4H231.353C231.605 79.4 231.773 79.568 231.689 79.932C231.577 80.464 231.493 80.968 231.605 82.116L233.369 98.58C233.397 98.86 233.229 99 232.921 99H229.841C229.589 99 229.421 98.86 229.393 98.636L229.141 96.172C229.113 95.892 228.973 95.752 228.693 95.752H227.265C226.985 95.752 226.817 95.892 226.789 96.172L226.537 98.636C226.509 98.888 226.313 99 226.089 99H223.261ZM228.385 92C228.693 92 228.749 91.86 228.721 91.636C228.525 89.368 228.385 87.772 228.273 84.664C228.273 84.412 228.161 84.272 227.965 84.272C227.769 84.272 227.657 84.412 227.657 84.664C227.545 87.772 227.405 89.368 227.209 91.636C227.181 91.86 227.237 92 227.545 92H228.385ZM234.843 99C234.479 99 234.283 98.804 234.283 98.44V84.076C234.283 81.668 234.199 80.996 233.947 79.82C233.891 79.568 234.031 79.4 234.283 79.4H238.651C242.599 79.4 244.083 82.172 244.083 86.484C244.083 90.628 242.711 93.4 238.819 93.4H238.595C238.371 93.4 238.259 93.512 238.259 93.736V98.44C238.259 98.804 238.063 99 237.699 99H234.843ZM238.763 90.04C239.547 90.04 240.051 89.06 240.051 86.484C240.051 83.936 239.547 82.956 238.763 82.956H238.595C238.399 82.956 238.259 83.096 238.259 83.32V89.676C238.259 89.872 238.371 90.04 238.595 90.04H238.763ZM245.562 99C245.198 99 245.002 98.804 245.002 98.44V84.076C245.002 81.668 244.918 80.996 244.666 79.82C244.61 79.568 244.75 79.4 245.002 79.4H249.37C253.318 79.4 254.802 82.172 254.802 86.484C254.802 90.628 253.43 93.4 249.538 93.4H249.314C249.09 93.4 248.978 93.512 248.978 93.736V98.44C248.978 98.804 248.782 99 248.418 99H245.562ZM249.482 90.04C250.266 90.04 250.77 89.06 250.77 86.484C250.77 83.936 250.266 82.956 249.482 82.956H249.314C249.118 82.956 248.978 83.096 248.978 83.32V89.676C248.978 89.872 249.09 90.04 249.314 90.04H249.482ZM256.281 99C255.917 99 255.721 98.804 255.721 98.44V84.076C255.721 81.668 255.637 80.996 255.385 79.82C255.329 79.568 255.469 79.4 255.721 79.4H260.257C263.869 79.4 265.521 82.116 265.521 86.288C265.521 87.996 265.157 89.564 264.485 90.628C264.037 91.328 263.981 91.944 264.121 92.532L265.605 98.328C265.661 98.552 265.661 99 265.129 99H262.133C261.797 99 261.601 98.832 261.517 98.468L260.313 93.008C260.257 92.784 260.201 92.588 259.977 92.588C259.781 92.588 259.697 92.756 259.697 93.036V98.44C259.697 98.804 259.501 99 259.137 99H256.281ZM260.201 89.844C260.929 89.844 261.489 88.864 261.489 86.344C261.489 83.852 260.929 82.872 260.201 82.872H260.089C259.837 82.872 259.697 83.012 259.697 83.264V89.452C259.697 89.704 259.837 89.844 260.089 89.844H260.201ZM271.672 99.28C268.34 99.28 266.24 96.788 266.24 89.2C266.24 81.612 268.34 79.12 271.672 79.12C275.004 79.12 277.132 81.612 277.132 89.2C277.132 96.788 275.004 99.28 271.672 99.28ZM271.672 95.36C272.316 95.36 272.848 94.632 272.848 89.2C272.848 83.74 272.316 83.04 271.672 83.04C271.028 83.04 270.524 83.74 270.524 89.2C270.524 94.632 271.028 95.36 271.672 95.36ZM278.01 99C277.73 99 277.562 98.804 277.59 98.524L278.374 91.776C278.542 90.348 278.598 89.368 278.598 88.388C278.598 87.576 278.57 86.764 278.402 85.56L278.066 83.236C277.842 81.668 277.646 80.856 277.226 79.82C277.142 79.596 277.198 79.4 277.45 79.4H281.734C282.042 79.4 282.07 79.624 282.042 79.848C281.986 80.24 281.93 80.604 281.93 81.192C281.93 82.424 282.182 83.964 282.462 86.568C282.49 86.848 282.574 86.96 282.742 86.96C282.91 86.96 282.994 86.848 283.022 86.568C283.246 84.048 283.554 82.368 283.554 81.192C283.554 80.604 283.498 80.24 283.442 79.848C283.414 79.624 283.442 79.4 283.75 79.4H288.034C288.286 79.4 288.342 79.596 288.258 79.82C287.838 80.856 287.642 81.668 287.418 83.236L287.082 85.56C286.914 86.764 286.886 87.576 286.886 88.388C286.886 89.368 286.942 90.348 287.11 91.776L287.894 98.524C287.922 98.804 287.754 99 287.474 99H284.282C283.946 99 283.722 98.804 283.694 98.356C283.47 95.948 283.274 93.512 283.05 90.824C283.022 90.544 282.938 90.404 282.742 90.404C282.546 90.404 282.462 90.544 282.434 90.824C282.21 93.512 282.014 95.948 281.79 98.356C281.762 98.804 281.538 99 281.202 99H278.01ZM289.722 99C289.358 99 289.162 98.804 289.162 98.44V83.796C289.162 81.388 289.078 80.996 288.826 79.82C288.77 79.568 288.91 79.4 289.162 79.4H293.222C293.474 79.4 293.614 79.568 293.558 79.82C293.306 80.996 293.222 81.388 293.222 83.796V98.44C293.222 98.804 293.026 99 292.662 99H289.722ZM295.3 99C294.936 99 294.74 98.804 294.74 98.44V83.796C294.74 81.388 294.656 80.996 294.404 79.82C294.348 79.568 294.488 79.4 294.74 79.4H299.78C300.396 79.4 300.62 79.568 300.676 80.212L301.46 88.948C301.488 89.172 301.572 89.256 301.712 89.256C301.852 89.256 301.964 89.172 301.992 88.948L302.776 80.212C302.832 79.568 303.056 79.4 303.672 79.4H308.908C309.16 79.4 309.3 79.568 309.244 79.82C308.992 80.996 308.908 81.388 308.908 83.796V98.44C308.908 98.804 308.712 99 308.348 99H305.632C305.268 99 305.072 98.804 305.072 98.44C305.072 94.492 305.128 90.124 305.184 85.896C305.184 85.7 305.128 85.56 304.932 85.56C304.792 85.56 304.68 85.644 304.652 85.868L303.112 98.468C303.056 98.832 302.832 99 302.496 99H300.872C300.536 99 300.312 98.832 300.256 98.468L298.716 85.84C298.688 85.644 298.604 85.56 298.436 85.56C298.24 85.56 298.184 85.728 298.184 85.896C298.24 90.124 298.296 94.492 298.296 98.44C298.296 98.804 298.1 99 297.736 99H295.3ZM310.268 99C309.96 99 309.792 98.86 309.82 98.58L311.584 82.116C311.696 81.052 311.64 80.52 311.528 79.932C311.472 79.568 311.64 79.4 311.892 79.4H318.36C318.612 79.4 318.78 79.568 318.696 79.932C318.584 80.464 318.5 80.968 318.612 82.116L320.376 98.58C320.404 98.86 320.236 99 319.928 99H316.848C316.596 99 316.428 98.86 316.4 98.636L316.148 96.172C316.12 95.892 315.98 95.752 315.7 95.752H314.272C313.992 95.752 313.824 95.892 313.796 96.172L313.544 98.636C313.516 98.888 313.32 99 313.096 99H310.268ZM315.392 92C315.7 92 315.756 91.86 315.728 91.636C315.532 89.368 315.392 87.772 315.28 84.664C315.28 84.412 315.168 84.272 314.972 84.272C314.776 84.272 314.664 84.412 314.664 84.664C314.552 87.772 314.412 89.368 314.216 91.636C314.188 91.86 314.244 92 314.552 92H315.392ZM323.244 99C322.88 99 322.684 98.804 322.684 98.44V83.46C322.684 83.208 322.572 82.984 322.152 82.984C321.704 82.984 321.424 83.208 320.668 83.824C320.276 84.132 319.912 84.244 319.912 83.768V79.96C319.912 79.596 320.108 79.4 320.472 79.4H328.956C329.32 79.4 329.516 79.596 329.516 79.96V83.768C329.516 84.244 329.152 84.132 328.76 83.824C328.004 83.208 327.724 82.984 327.276 82.984C326.856 82.984 326.744 83.208 326.744 83.46V98.44C326.744 98.804 326.548 99 326.184 99H323.244ZM331.066 99C330.702 99 330.506 98.804 330.506 98.44V84.076C330.506 81.668 330.422 80.996 330.17 79.82C330.114 79.568 330.254 79.4 330.506 79.4H337.954C338.122 79.4 338.234 79.512 338.234 79.68V83.572C338.234 83.88 337.982 83.936 337.674 83.768C336.61 83.208 336.022 83.012 335.378 83.012C334.734 83.012 334.566 83.264 334.566 83.712V86.848C334.566 87.016 334.678 87.128 334.846 87.128H337.506C337.674 87.128 337.786 87.24 337.786 87.408V90.74C337.786 90.908 337.674 91.02 337.506 91.02H334.846C334.678 91.02 334.566 91.132 334.566 91.3V94.8C334.566 94.968 334.678 95.08 334.846 95.08H338.038C338.206 95.08 338.318 95.192 338.318 95.36V98.72C338.318 98.888 338.206 99 338.038 99H331.066ZM340.007 99C339.643 99 339.447 98.804 339.447 98.44V84.076C339.447 81.668 339.363 80.996 339.111 79.82C339.055 79.568 339.195 79.4 339.447 79.4H343.507C343.759 79.4 343.899 79.568 343.843 79.82C343.591 80.996 343.507 81.668 343.507 84.076V94.8C343.507 94.968 343.619 95.08 343.787 95.08H346.979C347.147 95.08 347.259 95.192 347.259 95.36V98.72C347.259 98.888 347.147 99 346.979 99H340.007ZM349.586 99C349.222 99 349.026 98.804 349.026 98.44V96.34C349.026 94.548 348.914 93.848 348.298 91.076L346.45 82.872C346.114 81.388 345.946 80.94 345.414 79.792C345.302 79.568 345.414 79.4 345.638 79.4H350.146C350.37 79.4 350.454 79.624 350.426 79.792C350.258 80.436 350.09 81.024 350.426 82.788C350.622 83.852 350.678 84.888 350.874 86.82C350.902 87.1 350.958 87.324 351.182 87.324C351.406 87.324 351.462 87.1 351.49 86.82C351.686 84.888 351.77 83.852 351.966 82.788C352.302 81.024 352.134 80.436 351.966 79.792C351.938 79.624 352.022 79.4 352.246 79.4H356.362C356.586 79.4 356.698 79.568 356.586 79.792C356.054 80.94 355.858 81.388 355.55 82.872L353.842 91.076C353.254 93.848 353.086 94.548 353.086 96.34V98.44C353.086 98.804 352.89 99 352.526 99H349.586ZM110.958 128C110.594 128 110.398 127.804 110.398 127.44V115.82C110.398 115.624 110.398 115.484 110.286 115.484C110.23 115.484 110.174 115.512 110.062 115.68L109.474 116.492C108.662 117.64 108.466 117.808 108.242 117.808C108.046 117.808 107.934 117.64 107.934 117.332V113.664C107.934 113.104 107.99 112.88 108.326 112.488C109.25 111.424 109.894 110.332 110.51 109.016C110.734 108.54 110.846 108.4 111.182 108.4H113.562C113.926 108.4 114.122 108.596 114.122 108.96V127.44C114.122 127.804 113.926 128 113.562 128H110.958ZM115.903 128C115.567 128 115.371 127.804 115.371 127.44V124.836C115.371 124.36 115.455 124.108 115.819 123.352L117.163 120.608C118.731 117.416 119.627 115.54 119.627 114.112C119.627 113.244 119.179 112.516 118.283 112.516C117.443 112.516 117.023 112.964 116.323 113.832C116.155 114.028 116.043 114.084 115.875 114.084C115.707 114.084 115.567 113.944 115.567 113.692V110.668C115.567 110.22 115.595 109.772 115.931 109.324C116.407 108.708 117.499 108.12 119.067 108.12C121.979 108.12 123.631 110.248 123.631 113.468C123.631 116.156 122.735 118.34 121.055 121.532L120.467 122.652C120.271 123.044 120.047 123.408 120.047 123.66C120.047 123.8 120.131 123.912 120.383 123.912H123.267C123.603 123.912 123.799 124.108 123.799 124.472V127.44C123.799 127.804 123.603 128 123.267 128H115.903ZM126.373 130.772C125.561 130.772 124.917 130.492 124.917 129.96V129.036C124.917 128.784 125.085 128.756 125.309 128.896C125.533 129.036 125.841 129.204 126.373 129.204C127.129 129.204 127.549 128.728 127.549 128.308C127.549 128.028 127.381 127.972 127.045 127.972H126.877C125.449 127.972 124.693 127.16 124.693 126.068C124.693 124.976 125.449 123.94 126.989 123.94C128.641 123.94 129.593 125.172 129.593 127.076C129.593 128.868 128.781 130.772 126.373 130.772ZM134.128 128.28C132.644 128.28 131.832 127.86 131.496 127.636C130.908 127.272 130.684 126.796 130.684 126.18V123.268C130.684 123.072 130.796 122.932 130.964 122.932C131.076 122.932 131.188 122.96 131.384 123.156C131.832 123.604 132.448 124.304 133.512 124.304C134.856 124.304 135.472 123.212 135.472 121.56C135.472 119.824 134.772 118.564 133.12 118.564C132.308 118.564 131.916 118.816 131.44 118.816C131.216 118.816 131.104 118.676 131.104 118.396L131.216 108.96C131.216 108.596 131.44 108.4 131.748 108.4H138.524C138.692 108.4 138.804 108.512 138.804 108.68V112.04C138.804 112.208 138.692 112.32 138.524 112.32H135.108C134.688 112.32 134.548 112.46 134.548 112.88V114.784C134.548 115.232 134.66 115.344 135.108 115.344C137.992 115.344 139.448 117.78 139.448 121.448C139.448 125.62 137.572 128.28 134.128 128.28ZM144.004 128.28C142.352 128.28 141.372 127.804 141.036 127.552C140.448 127.104 140.364 126.74 140.364 125.984V123.212C140.364 122.904 140.504 122.764 140.672 122.764C140.84 122.764 140.952 122.876 141.092 123.016C141.96 123.968 142.492 124.528 143.388 124.528C144.396 124.528 144.956 123.632 144.956 122.12C144.956 120.888 144.452 119.656 143.276 119.656C142.632 119.656 142.324 119.852 142.072 119.852C141.932 119.852 141.764 119.74 141.764 119.488V116.576C141.764 116.296 141.932 116.156 142.072 116.156C142.268 116.156 142.856 116.324 143.304 116.324C144.312 116.324 144.872 115.4 144.872 114C144.872 112.712 144.312 111.788 143.304 111.788C142.52 111.788 142.072 112.264 141.232 113.132C141.036 113.328 140.952 113.44 140.756 113.44C140.532 113.44 140.448 113.244 140.448 112.992V110.752C140.448 110.08 140.616 109.632 140.84 109.324C141.372 108.624 142.632 108.12 144.088 108.12C147.28 108.12 148.68 110.5 148.68 113.216C148.68 115.26 147.896 116.632 146.888 117.388C146.72 117.528 146.636 117.612 146.636 117.724C146.636 117.836 146.72 117.892 146.916 118.032C148.092 118.872 148.988 120.272 148.988 122.456C148.988 125.564 147.42 128.28 144.004 128.28ZM153.52 128.28C151.868 128.28 150.888 127.804 150.552 127.552C149.964 127.104 149.88 126.74 149.88 125.984V123.212C149.88 122.904 150.02 122.764 150.188 122.764C150.356 122.764 150.468 122.876 150.608 123.016C151.476 123.968 152.008 124.528 152.904 124.528C153.912 124.528 154.472 123.632 154.472 122.12C154.472 120.888 153.968 119.656 152.792 119.656C152.148 119.656 151.84 119.852 151.588 119.852C151.448 119.852 151.28 119.74 151.28 119.488V116.576C151.28 116.296 151.448 116.156 151.588 116.156C151.784 116.156 152.372 116.324 152.82 116.324C153.828 116.324 154.388 115.4 154.388 114C154.388 112.712 153.828 111.788 152.82 111.788C152.036 111.788 151.588 112.264 150.748 113.132C150.552 113.328 150.468 113.44 150.272 113.44C150.048 113.44 149.964 113.244 149.964 112.992V110.752C149.964 110.08 150.132 109.632 150.356 109.324C150.888 108.624 152.148 108.12 153.604 108.12C156.796 108.12 158.196 110.5 158.196 113.216C158.196 115.26 157.412 116.632 156.404 117.388C156.236 117.528 156.152 117.612 156.152 117.724C156.152 117.836 156.236 117.892 156.432 118.032C157.608 118.872 158.504 120.272 158.504 122.456C158.504 125.564 156.936 128.28 153.52 128.28ZM165.921 128C165.557 128 165.361 127.804 165.361 127.44V112.46C165.361 112.208 165.249 111.984 164.829 111.984C164.381 111.984 164.101 112.208 163.345 112.824C162.953 113.132 162.589 113.244 162.589 112.768V108.96C162.589 108.596 162.785 108.4 163.149 108.4H171.633C171.997 108.4 172.193 108.596 172.193 108.96V112.768C172.193 113.244 171.829 113.132 171.437 112.824C170.681 112.208 170.401 111.984 169.953 111.984C169.533 111.984 169.421 112.208 169.421 112.46V127.44C169.421 127.804 169.225 128 168.861 128H165.921ZM177.869 128.28C174.537 128.28 172.437 125.788 172.437 118.2C172.437 110.612 174.537 108.12 177.869 108.12C181.201 108.12 183.329 110.612 183.329 118.2C183.329 125.788 181.201 128.28 177.869 128.28ZM177.869 124.36C178.513 124.36 179.045 123.632 179.045 118.2C179.045 112.74 178.513 112.04 177.869 112.04C177.225 112.04 176.721 112.74 176.721 118.2C176.721 123.632 177.225 124.36 177.869 124.36ZM185.037 128C184.673 128 184.477 127.804 184.477 127.44V112.796C184.477 110.388 184.393 109.996 184.141 108.82C184.085 108.568 184.225 108.4 184.477 108.4H187.725C188.061 108.4 188.285 108.568 188.341 108.876L190.133 117.36C190.161 117.556 190.273 117.668 190.441 117.668C190.637 117.668 190.693 117.528 190.693 117.304C190.665 116.548 190.721 114.112 190.665 112.516C190.581 110.388 190.497 109.996 190.245 108.82C190.189 108.568 190.329 108.4 190.581 108.4H194.249C194.501 108.4 194.641 108.568 194.585 108.82C194.333 109.996 194.249 110.388 194.249 112.796V127.44C194.249 127.804 194.053 128 193.689 128H191.001C190.665 128 190.441 127.832 190.385 127.524L188.565 119.012C188.537 118.816 188.425 118.732 188.285 118.732C188.117 118.732 188.005 118.844 188.005 119.068C188.089 120.944 188.173 124.836 188.173 127.44C188.173 127.804 187.977 128 187.613 128H185.037ZM198.822 128.28C197.562 128.28 196.386 127.916 195.882 127.356C195.518 126.964 195.434 126.516 195.434 126.012V122.54C195.434 122.26 195.546 121.98 195.826 121.98C196.078 121.98 196.19 122.148 196.554 122.68C197.058 123.436 197.534 124.052 198.43 124.052C199.298 124.052 199.606 123.24 199.606 122.596C199.606 121.504 198.878 120.72 197.73 119.404C196.582 118.088 195.406 116.464 195.406 113.972C195.406 110.612 197.17 108.12 200.306 108.12C201.51 108.12 202.434 108.484 202.938 109.016C203.33 109.408 203.386 109.884 203.386 110.388V113.384C203.386 113.692 203.274 113.944 202.994 113.944C202.742 113.944 202.63 113.832 202.21 113.3C201.762 112.712 201.398 112.348 200.81 112.348C199.914 112.348 199.55 113.048 199.55 113.72C199.55 114.868 200.334 115.764 201.538 117.136C202.742 118.536 203.778 120.02 203.778 122.484C203.778 125.816 201.958 128.28 198.822 128.28ZM213.252 128.28C209.92 128.28 207.82 125.788 207.82 118.2C207.82 110.612 209.92 108.12 213.252 108.12C216.584 108.12 218.712 110.612 218.712 118.2C218.712 125.788 216.584 128.28 213.252 128.28ZM213.252 124.36C213.896 124.36 214.428 123.632 214.428 118.2C214.428 112.74 213.896 112.04 213.252 112.04C212.608 112.04 212.104 112.74 212.104 118.2C212.104 123.632 212.608 124.36 213.252 124.36ZM220.42 128C220.056 128 219.86 127.804 219.86 127.44V113.076C219.86 110.668 219.776 109.996 219.524 108.82C219.468 108.568 219.608 108.4 219.86 108.4H227.308C227.476 108.4 227.588 108.512 227.588 108.68V112.572C227.588 112.88 227.336 112.936 227.028 112.768C225.964 112.208 225.376 112.012 224.732 112.012C224.088 112.012 223.92 112.264 223.92 112.712V115.848C223.92 116.016 224.032 116.128 224.2 116.128H226.86C227.028 116.128 227.14 116.24 227.14 116.408V119.74C227.14 119.908 227.028 120.02 226.86 120.02H224.2C224.032 120.02 223.92 120.132 223.92 120.3V127.44C223.92 127.804 223.724 128 223.36 128H220.42ZM237.264 128.28C233.708 128.28 231.608 125.228 231.608 118.2C231.608 111.172 233.708 108.12 237.264 108.12C238.16 108.12 239.084 108.344 239.728 108.848C240.288 109.296 240.4 109.856 240.4 110.528V112.852C240.4 113.272 240.232 113.468 239.98 113.468C239.672 113.468 239.476 113.216 239.224 112.908C238.944 112.572 238.58 112.208 237.964 112.208C236.564 112.208 235.864 113.972 235.864 118.2C235.864 122.428 236.564 124.192 237.964 124.192C238.58 124.192 238.944 123.828 239.224 123.492C239.476 123.184 239.644 122.932 239.952 122.932C240.204 122.932 240.4 123.128 240.4 123.548V125.872C240.4 126.544 240.288 127.104 239.728 127.552C239.084 128.056 238.16 128.28 237.264 128.28ZM246.392 128.28C243.06 128.28 240.96 125.788 240.96 118.2C240.96 110.612 243.06 108.12 246.392 108.12C249.724 108.12 251.852 110.612 251.852 118.2C251.852 125.788 249.724 128.28 246.392 128.28ZM246.392 124.36C247.036 124.36 247.568 123.632 247.568 118.2C247.568 112.74 247.036 112.04 246.392 112.04C245.748 112.04 245.244 112.74 245.244 118.2C245.244 123.632 245.748 124.36 246.392 124.36ZM253.588 130.156C253.336 130.156 253.168 129.988 253.168 129.736V127.972C253.168 127.496 253.252 127.216 253.672 126.712L255.128 124.92C255.604 124.332 255.744 124.024 255.744 123.632C255.744 123.296 255.52 123.072 255.1 123.072C254.736 123.072 254.372 123.24 253.896 123.716C253.728 123.884 253.644 123.94 253.532 123.94C253.42 123.94 253.336 123.856 253.336 123.716V121.672C253.336 121.14 253.392 120.972 253.588 120.692C253.84 120.356 254.624 119.936 255.688 119.936C257.564 119.936 258.656 121.028 258.656 123.044C258.656 124.36 258.18 125.396 257.62 126.04L256.976 126.796C256.864 126.908 256.808 127.048 256.808 127.104C256.808 127.188 256.864 127.3 257.032 127.3H258.488C258.74 127.3 258.908 127.44 258.908 127.72V129.736C258.908 129.988 258.74 130.156 258.488 130.156H253.588ZM264.498 128C264.134 128 263.938 127.804 263.938 127.44V113.076C263.938 110.668 263.854 109.996 263.602 108.82C263.546 108.568 263.686 108.4 263.938 108.4H271.386C271.554 108.4 271.666 108.512 271.666 108.68V112.572C271.666 112.88 271.414 112.936 271.106 112.768C270.042 112.208 269.454 112.012 268.81 112.012C268.166 112.012 267.998 112.264 267.998 112.712V115.848C267.998 116.016 268.11 116.128 268.278 116.128H270.938C271.106 116.128 271.218 116.24 271.218 116.408V119.74C271.218 119.908 271.106 120.02 270.938 120.02H268.278C268.11 120.02 267.998 120.132 267.998 120.3V123.8C267.998 123.968 268.11 124.08 268.278 124.08H271.47C271.638 124.08 271.75 124.192 271.75 124.36V127.72C271.75 127.888 271.638 128 271.47 128H264.498ZM273.439 128C273.075 128 272.879 127.804 272.879 127.44V112.796C272.879 110.388 272.795 109.996 272.543 108.82C272.487 108.568 272.627 108.4 272.879 108.4H277.919C278.535 108.4 278.759 108.568 278.815 109.212L279.599 117.948C279.627 118.172 279.711 118.256 279.851 118.256C279.991 118.256 280.103 118.172 280.131 117.948L280.915 109.212C280.971 108.568 281.195 108.4 281.811 108.4H287.047C287.299 108.4 287.439 108.568 287.383 108.82C287.131 109.996 287.047 110.388 287.047 112.796V127.44C287.047 127.804 286.851 128 286.487 128H283.771C283.407 128 283.211 127.804 283.211 127.44C283.211 123.492 283.267 119.124 283.323 114.896C283.323 114.7 283.267 114.56 283.071 114.56C282.931 114.56 282.819 114.644 282.791 114.868L281.251 127.468C281.195 127.832 280.971 128 280.635 128H279.011C278.675 128 278.451 127.832 278.395 127.468L276.855 114.84C276.827 114.644 276.743 114.56 276.575 114.56C276.379 114.56 276.323 114.728 276.323 114.896C276.379 119.124 276.435 123.492 276.435 127.44C276.435 127.804 276.239 128 275.875 128H273.439ZM289.107 128C288.743 128 288.547 127.804 288.547 127.44V112.796C288.547 110.388 288.463 109.996 288.211 108.82C288.155 108.568 288.295 108.4 288.547 108.4H292.607C292.859 108.4 292.999 108.568 292.943 108.82C292.691 109.996 292.607 110.388 292.607 112.796V127.44C292.607 127.804 292.411 128 292.047 128H289.107ZM297.177 128.28C295.917 128.28 294.741 127.916 294.237 127.356C293.873 126.964 293.789 126.516 293.789 126.012V122.54C293.789 122.26 293.901 121.98 294.181 121.98C294.433 121.98 294.545 122.148 294.909 122.68C295.413 123.436 295.889 124.052 296.785 124.052C297.653 124.052 297.961 123.24 297.961 122.596C297.961 121.504 297.233 120.72 296.085 119.404C294.937 118.088 293.761 116.464 293.761 113.972C293.761 110.612 295.525 108.12 298.661 108.12C299.865 108.12 300.789 108.484 301.293 109.016C301.685 109.408 301.741 109.884 301.741 110.388V113.384C301.741 113.692 301.629 113.944 301.349 113.944C301.097 113.944 300.985 113.832 300.565 113.3C300.117 112.712 299.753 112.348 299.165 112.348C298.269 112.348 297.905 113.048 297.905 113.72C297.905 114.868 298.689 115.764 299.893 117.136C301.097 118.536 302.133 120.02 302.133 122.484C302.133 125.816 300.313 128.28 297.177 128.28ZM306.173 128.28C304.913 128.28 303.737 127.916 303.233 127.356C302.869 126.964 302.785 126.516 302.785 126.012V122.54C302.785 122.26 302.897 121.98 303.177 121.98C303.429 121.98 303.541 122.148 303.905 122.68C304.409 123.436 304.885 124.052 305.781 124.052C306.649 124.052 306.957 123.24 306.957 122.596C306.957 121.504 306.229 120.72 305.081 119.404C303.933 118.088 302.757 116.464 302.757 113.972C302.757 110.612 304.521 108.12 307.657 108.12C308.861 108.12 309.785 108.484 310.289 109.016C310.681 109.408 310.737 109.884 310.737 110.388V113.384C310.737 113.692 310.625 113.944 310.345 113.944C310.093 113.944 309.981 113.832 309.561 113.3C309.113 112.712 308.749 112.348 308.161 112.348C307.265 112.348 306.901 113.048 306.901 113.72C306.901 114.868 307.685 115.764 308.889 117.136C310.093 118.536 311.129 120.02 311.129 122.484C311.129 125.816 309.309 128.28 306.173 128.28ZM312.677 128C312.313 128 312.117 127.804 312.117 127.44V112.796C312.117 110.388 312.033 109.996 311.781 108.82C311.725 108.568 311.865 108.4 312.117 108.4H316.177C316.429 108.4 316.569 108.568 316.513 108.82C316.261 109.996 316.177 110.388 316.177 112.796V127.44C316.177 127.804 315.981 128 315.617 128H312.677ZM322.763 128.28C319.431 128.28 317.331 125.788 317.331 118.2C317.331 110.612 319.431 108.12 322.763 108.12C326.095 108.12 328.223 110.612 328.223 118.2C328.223 125.788 326.095 128.28 322.763 128.28ZM322.763 124.36C323.407 124.36 323.939 123.632 323.939 118.2C323.939 112.74 323.407 112.04 322.763 112.04C322.119 112.04 321.615 112.74 321.615 118.2C321.615 123.632 322.119 124.36 322.763 124.36ZM329.931 128C329.567 128 329.371 127.804 329.371 127.44V112.796C329.371 110.388 329.287 109.996 329.035 108.82C328.979 108.568 329.119 108.4 329.371 108.4H332.619C332.955 108.4 333.179 108.568 333.235 108.876L335.027 117.36C335.055 117.556 335.167 117.668 335.335 117.668C335.531 117.668 335.587 117.528 335.587 117.304C335.559 116.548 335.615 114.112 335.559 112.516C335.475 110.388 335.391 109.996 335.139 108.82C335.083 108.568 335.223 108.4 335.475 108.4H339.143C339.395 108.4 339.535 108.568 339.479 108.82C339.227 109.996 339.143 110.388 339.143 112.796V127.44C339.143 127.804 338.947 128 338.583 128H335.895C335.559 128 335.335 127.832 335.279 127.524L333.459 119.012C333.431 118.816 333.319 118.732 333.179 118.732C333.011 118.732 332.899 118.844 332.899 119.068C332.983 120.944 333.067 124.836 333.067 127.44C333.067 127.804 332.871 128 332.507 128H329.931ZM343.716 128.28C342.456 128.28 341.28 127.916 340.776 127.356C340.412 126.964 340.328 126.516 340.328 126.012V122.54C340.328 122.26 340.44 121.98 340.72 121.98C340.972 121.98 341.084 122.148 341.448 122.68C341.952 123.436 342.428 124.052 343.324 124.052C344.192 124.052 344.5 123.24 344.5 122.596C344.5 121.504 343.772 120.72 342.624 119.404C341.476 118.088 340.3 116.464 340.3 113.972C340.3 110.612 342.064 108.12 345.2 108.12C346.404 108.12 347.328 108.484 347.832 109.016C348.224 109.408 348.28 109.884 348.28 110.388V113.384C348.28 113.692 348.168 113.944 347.888 113.944C347.636 113.944 347.524 113.832 347.104 113.3C346.656 112.712 346.292 112.348 345.704 112.348C344.808 112.348 344.444 113.048 344.444 113.72C344.444 114.868 345.228 115.764 346.432 117.136C347.636 118.536 348.672 120.02 348.672 122.484C348.672 125.816 346.852 128.28 343.716 128.28Z" fill="white"/>
<path d="M169.72 150.96C169.667 150.96 169.619 150.944 169.576 150.912C169.544 150.891 169.501 150.837 169.448 150.752C168.968 149.963 168.584 149.019 168.296 147.92C168.008 146.811 167.864 145.685 167.864 144.544C167.864 143.392 168.008 142.267 168.296 141.168C168.584 140.059 168.968 139.109 169.448 138.32C169.501 138.235 169.544 138.181 169.576 138.16C169.619 138.128 169.667 138.112 169.72 138.112H170.84C170.893 138.112 170.925 138.128 170.936 138.16C170.957 138.192 170.952 138.229 170.92 138.272C170.408 139.125 170.008 140.101 169.72 141.2C169.432 142.288 169.288 143.403 169.288 144.544C169.288 145.664 169.432 146.773 169.72 147.872C170.019 148.971 170.419 149.947 170.92 150.8L170.952 150.88C170.952 150.933 170.915 150.96 170.84 150.96H169.72ZM174.949 150.16C174.021 150.16 173.216 150 172.533 149.68C171.85 149.349 171.509 148.848 171.509 148.176V146.816C171.509 146.699 171.546 146.64 171.621 146.64C171.664 146.64 171.706 146.677 171.749 146.752C172.09 147.339 172.528 147.797 173.061 148.128C173.594 148.448 174.261 148.608 175.061 148.608C175.797 148.608 176.362 148.459 176.757 148.16C177.162 147.851 177.365 147.424 177.365 146.88C177.365 146.411 177.232 146.059 176.965 145.824C176.709 145.579 176.272 145.413 175.653 145.328L174.389 145.152C173.461 145.024 172.757 144.709 172.277 144.208C171.808 143.696 171.573 143.013 171.573 142.16C171.573 141.147 171.93 140.347 172.645 139.76C173.36 139.173 174.336 138.88 175.573 138.88C176.416 138.88 177.152 139.035 177.781 139.344C178.41 139.643 178.725 140.096 178.725 140.704V142.176C178.725 142.229 178.714 142.277 178.693 142.32C178.672 142.352 178.645 142.368 178.613 142.368C178.56 142.368 178.506 142.325 178.453 142.24C178.08 141.632 177.658 141.179 177.189 140.88C176.72 140.581 176.165 140.432 175.525 140.432C174.832 140.432 174.288 140.571 173.893 140.848C173.509 141.125 173.317 141.525 173.317 142.048C173.317 142.464 173.434 142.8 173.669 143.056C173.914 143.301 174.266 143.456 174.725 143.52L176.357 143.744C177.253 143.872 177.936 144.192 178.405 144.704C178.874 145.205 179.109 145.867 179.109 146.688C179.109 147.776 178.736 148.629 177.989 149.248C177.253 149.856 176.24 150.16 174.949 150.16ZM184.284 150.16C183.388 150.16 182.599 149.979 181.916 149.616C181.234 149.243 180.7 148.715 180.316 148.032C179.943 147.339 179.756 146.528 179.756 145.6C179.756 144.672 179.943 143.867 180.316 143.184C180.7 142.491 181.234 141.963 181.916 141.6C182.599 141.227 183.388 141.04 184.284 141.04C184.956 141.04 185.5 141.131 185.916 141.312C186.343 141.493 186.556 141.733 186.556 142.032V143.472C186.556 143.568 186.524 143.616 186.46 143.616C186.407 143.616 186.348 143.579 186.284 143.504C185.815 142.939 185.154 142.656 184.3 142.656C183.436 142.656 182.759 142.923 182.268 143.456C181.778 143.979 181.532 144.693 181.532 145.6C181.532 146.507 181.778 147.227 182.268 147.76C182.77 148.283 183.452 148.544 184.316 148.544C185.138 148.544 185.794 148.336 186.284 147.92C186.37 147.856 186.434 147.824 186.476 147.824C186.53 147.824 186.556 147.872 186.556 147.968V149.104C186.556 149.403 186.343 149.653 185.916 149.856C185.5 150.059 184.956 150.16 184.284 150.16ZM191.327 150.16C190.463 150.16 189.7 149.973 189.039 149.6C188.388 149.216 187.882 148.683 187.519 148C187.156 147.307 186.975 146.507 186.975 145.6C186.975 144.693 187.156 143.899 187.519 143.216C187.882 142.523 188.388 141.989 189.039 141.616C189.7 141.232 190.463 141.04 191.327 141.04C192.191 141.04 192.948 141.232 193.599 141.616C194.26 141.989 194.767 142.523 195.119 143.216C195.482 143.899 195.663 144.693 195.663 145.6C195.663 146.507 195.482 147.307 195.119 148C194.767 148.683 194.26 149.216 193.599 149.6C192.948 149.973 192.191 150.16 191.327 150.16ZM191.327 148.56C192.106 148.56 192.724 148.293 193.183 147.76C193.652 147.216 193.887 146.496 193.887 145.6C193.887 144.704 193.652 143.989 193.183 143.456C192.724 142.912 192.106 142.64 191.327 142.64C190.548 142.64 189.924 142.912 189.455 143.456C188.986 143.989 188.751 144.704 188.751 145.6C188.751 146.496 188.986 147.216 189.455 147.76C189.924 148.293 190.548 148.56 191.327 148.56ZM196.69 151.76C196.647 151.76 196.61 151.744 196.578 151.712C196.546 151.68 196.53 151.643 196.53 151.6V143.312C196.53 142.789 196.508 142.411 196.465 142.176C196.434 141.941 196.364 141.68 196.258 141.392C196.247 141.371 196.242 141.344 196.242 141.312C196.242 141.237 196.284 141.2 196.37 141.2H198.098C198.151 141.2 198.194 141.216 198.226 141.248C198.258 141.28 198.274 141.317 198.274 141.36V142.384C198.274 142.448 198.295 142.485 198.338 142.496C198.391 142.507 198.434 142.485 198.466 142.432C198.679 142.069 199.015 141.749 199.474 141.472C199.932 141.184 200.519 141.04 201.234 141.04C202.002 141.04 202.674 141.232 203.25 141.616C203.836 141.989 204.284 142.523 204.594 143.216C204.914 143.899 205.074 144.693 205.074 145.6C205.074 146.507 204.914 147.307 204.594 148C204.284 148.683 203.836 149.216 203.25 149.6C202.674 149.973 202.002 150.16 201.234 150.16C200.519 150.16 199.927 150.021 199.458 149.744C198.999 149.456 198.668 149.131 198.466 148.768C198.434 148.725 198.402 148.704 198.37 148.704C198.306 148.704 198.274 148.741 198.274 148.816V151.6C198.274 151.643 198.258 151.68 198.226 151.712C198.194 151.744 198.151 151.76 198.098 151.76H196.69ZM200.77 148.656C201.527 148.656 202.13 148.379 202.578 147.824C203.036 147.269 203.266 146.528 203.266 145.6C203.266 144.672 203.036 143.931 202.578 143.376C202.13 142.821 201.527 142.544 200.77 142.544C199.991 142.544 199.367 142.821 198.898 143.376C198.428 143.931 198.194 144.672 198.194 145.6C198.194 146.528 198.428 147.269 198.898 147.824C199.367 148.379 199.991 148.656 200.77 148.656ZM210.332 150.16C209.436 150.16 208.641 149.989 207.948 149.648C207.265 149.296 206.732 148.779 206.348 148.096C205.964 147.403 205.772 146.56 205.772 145.568C205.772 144.619 205.953 143.803 206.316 143.12C206.679 142.437 207.175 141.92 207.804 141.568C208.433 141.216 209.143 141.04 209.932 141.04C211.052 141.04 211.948 141.365 212.62 142.016C213.303 142.656 213.644 143.557 213.644 144.72C213.644 145.157 213.612 145.488 213.548 145.712C213.484 145.925 213.372 146.069 213.212 146.144C213.063 146.219 212.839 146.256 212.54 146.256H207.82C207.671 146.256 207.601 146.32 207.612 146.448C207.697 147.099 207.991 147.621 208.492 148.016C209.004 148.411 209.665 148.608 210.476 148.608C211.436 148.608 212.289 148.256 213.036 147.552C213.079 147.509 213.127 147.488 213.18 147.488C213.255 147.488 213.292 147.536 213.292 147.632V148.8C213.292 148.939 213.26 149.067 213.196 149.184C213.132 149.291 213.02 149.403 212.86 149.52C212.615 149.691 212.273 149.84 211.836 149.968C211.409 150.096 210.908 150.16 210.332 150.16ZM211.692 144.896C211.863 144.896 211.953 144.811 211.964 144.64L211.98 144.416C211.98 143.883 211.799 143.435 211.436 143.072C211.073 142.709 210.567 142.528 209.916 142.528C209.169 142.528 208.609 142.741 208.236 143.168C207.863 143.584 207.66 144.075 207.628 144.64V144.672C207.628 144.736 207.655 144.789 207.708 144.832C207.772 144.875 207.841 144.896 207.916 144.896H211.692ZM219.748 150C219.641 150 219.588 149.947 219.588 149.84V141.968C219.588 141.883 219.561 141.84 219.508 141.84C219.465 141.84 219.423 141.861 219.38 141.904C218.964 142.363 218.537 142.688 218.1 142.88C217.673 143.061 217.3 143.152 216.98 143.152C216.863 143.152 216.804 143.093 216.804 142.976V141.792C216.804 141.685 216.852 141.627 216.948 141.616C217.577 141.445 218.132 141.152 218.612 140.736C219.103 140.32 219.471 139.797 219.716 139.168C219.748 139.083 219.812 139.04 219.908 139.04H221.188C221.295 139.04 221.348 139.093 221.348 139.2V149.84C221.348 149.947 221.295 150 221.188 150H219.748ZM223.148 151.568C222.935 151.568 222.769 151.531 222.652 151.456C222.535 151.392 222.476 151.296 222.476 151.168V150.704C222.476 150.661 222.487 150.635 222.508 150.624C222.54 150.613 222.577 150.624 222.62 150.656C222.759 150.763 222.945 150.816 223.18 150.816C223.415 150.816 223.591 150.757 223.708 150.64C223.825 150.523 223.884 150.384 223.884 150.224C223.884 150.139 223.836 150.096 223.74 150.096H223.5C223.18 150.096 222.929 150.016 222.748 149.856C222.577 149.685 222.492 149.461 222.492 149.184C222.492 148.896 222.588 148.661 222.78 148.48C222.972 148.288 223.233 148.192 223.564 148.192C223.927 148.192 224.209 148.325 224.412 148.592C224.625 148.848 224.732 149.205 224.732 149.664C224.732 150.272 224.593 150.741 224.316 151.072C224.049 151.403 223.66 151.568 223.148 151.568ZM231.48 150.16C230.552 150.16 229.747 150 229.064 149.68C228.382 149.349 228.04 148.848 228.04 148.176V146.816C228.04 146.699 228.078 146.64 228.152 146.64C228.195 146.64 228.238 146.677 228.28 146.752C228.622 147.339 229.059 147.797 229.592 148.128C230.126 148.448 230.792 148.608 231.592 148.608C232.328 148.608 232.894 148.459 233.288 148.16C233.694 147.851 233.896 147.424 233.896 146.88C233.896 146.411 233.763 146.059 233.496 145.824C233.24 145.579 232.803 145.413 232.184 145.328L230.92 145.152C229.992 145.024 229.288 144.709 228.808 144.208C228.339 143.696 228.104 143.013 228.104 142.16C228.104 141.147 228.462 140.347 229.176 139.76C229.891 139.173 230.867 138.88 232.104 138.88C232.947 138.88 233.683 139.035 234.312 139.344C234.942 139.643 235.256 140.096 235.256 140.704V142.176C235.256 142.229 235.246 142.277 235.224 142.32C235.203 142.352 235.176 142.368 235.144 142.368C235.091 142.368 235.038 142.325 234.984 142.24C234.611 141.632 234.19 141.179 233.72 140.88C233.251 140.581 232.696 140.432 232.056 140.432C231.363 140.432 230.819 140.571 230.424 140.848C230.04 141.125 229.848 141.525 229.848 142.048C229.848 142.464 229.966 142.8 230.2 143.056C230.446 143.301 230.798 143.456 231.256 143.52L232.888 143.744C233.784 143.872 234.467 144.192 234.936 144.704C235.406 145.205 235.64 145.867 235.64 146.688C235.64 147.776 235.267 148.629 234.52 149.248C233.784 149.856 232.771 150.16 231.48 150.16ZM240.816 150.16C239.92 150.16 239.13 149.979 238.448 149.616C237.765 149.243 237.232 148.715 236.848 148.032C236.474 147.339 236.288 146.528 236.288 145.6C236.288 144.672 236.474 143.867 236.848 143.184C237.232 142.491 237.765 141.963 238.448 141.6C239.13 141.227 239.92 141.04 240.816 141.04C241.488 141.04 242.032 141.131 242.448 141.312C242.874 141.493 243.088 141.733 243.088 142.032V143.472C243.088 143.568 243.056 143.616 242.992 143.616C242.938 143.616 242.88 143.579 242.816 143.504C242.346 142.939 241.685 142.656 240.832 142.656C239.968 142.656 239.29 142.923 238.8 143.456C238.309 143.979 238.064 144.693 238.064 145.6C238.064 146.507 238.309 147.227 238.8 147.76C239.301 148.283 239.984 148.544 240.848 148.544C241.669 148.544 242.325 148.336 242.816 147.92C242.901 147.856 242.965 147.824 243.008 147.824C243.061 147.824 243.088 147.872 243.088 147.968V149.104C243.088 149.403 242.874 149.653 242.448 149.856C242.032 150.059 241.488 150.16 240.816 150.16ZM247.858 150.16C246.994 150.16 246.232 149.973 245.57 149.6C244.92 149.216 244.413 148.683 244.05 148C243.688 147.307 243.506 146.507 243.506 145.6C243.506 144.693 243.688 143.899 244.05 143.216C244.413 142.523 244.92 141.989 245.57 141.616C246.232 141.232 246.994 141.04 247.858 141.04C248.722 141.04 249.48 141.232 250.13 141.616C250.792 141.989 251.298 142.523 251.65 143.216C252.013 143.899 252.194 144.693 252.194 145.6C252.194 146.507 252.013 147.307 251.65 148C251.298 148.683 250.792 149.216 250.13 149.6C249.48 149.973 248.722 150.16 247.858 150.16ZM247.858 148.56C248.637 148.56 249.256 148.293 249.714 147.76C250.184 147.216 250.418 146.496 250.418 145.6C250.418 144.704 250.184 143.989 249.714 143.456C249.256 142.912 248.637 142.64 247.858 142.64C247.08 142.64 246.456 142.912 245.986 143.456C245.517 143.989 245.282 144.704 245.282 145.6C245.282 146.496 245.517 147.216 245.986 147.76C246.456 148.293 247.08 148.56 247.858 148.56ZM253.221 151.76C253.178 151.76 253.141 151.744 253.109 151.712C253.077 151.68 253.061 151.643 253.061 151.6V143.312C253.061 142.789 253.039 142.411 252.997 142.176C252.965 141.941 252.895 141.68 252.789 141.392C252.778 141.371 252.773 141.344 252.773 141.312C252.773 141.237 252.815 141.2 252.901 141.2H254.629C254.682 141.2 254.725 141.216 254.757 141.248C254.789 141.28 254.805 141.317 254.805 141.36V142.384C254.805 142.448 254.826 142.485 254.869 142.496C254.922 142.507 254.965 142.485 254.997 142.432C255.21 142.069 255.546 141.749 256.005 141.472C256.463 141.184 257.05 141.04 257.765 141.04C258.533 141.04 259.205 141.232 259.781 141.616C260.367 141.989 260.815 142.523 261.125 143.216C261.445 143.899 261.605 144.693 261.605 145.6C261.605 146.507 261.445 147.307 261.125 148C260.815 148.683 260.367 149.216 259.781 149.6C259.205 149.973 258.533 150.16 257.765 150.16C257.05 150.16 256.458 150.021 255.989 149.744C255.53 149.456 255.199 149.131 254.997 148.768C254.965 148.725 254.933 148.704 254.901 148.704C254.837 148.704 254.805 148.741 254.805 148.816V151.6C254.805 151.643 254.789 151.68 254.757 151.712C254.725 151.744 254.682 151.76 254.629 151.76H253.221ZM257.301 148.656C258.058 148.656 258.661 148.379 259.109 147.824C259.567 147.269 259.797 146.528 259.797 145.6C259.797 144.672 259.567 143.931 259.109 143.376C258.661 142.821 258.058 142.544 257.301 142.544C256.522 142.544 255.898 142.821 255.429 143.376C254.959 143.931 254.725 144.672 254.725 145.6C254.725 146.528 254.959 147.269 255.429 147.824C255.898 148.379 256.522 148.656 257.301 148.656ZM266.863 150.16C265.967 150.16 265.173 149.989 264.479 149.648C263.797 149.296 263.263 148.779 262.879 148.096C262.495 147.403 262.303 146.56 262.303 145.568C262.303 144.619 262.485 143.803 262.847 143.12C263.21 142.437 263.706 141.92 264.335 141.568C264.965 141.216 265.674 141.04 266.463 141.04C267.583 141.04 268.479 141.365 269.151 142.016C269.834 142.656 270.175 143.557 270.175 144.72C270.175 145.157 270.143 145.488 270.079 145.712C270.015 145.925 269.903 146.069 269.743 146.144C269.594 146.219 269.37 146.256 269.071 146.256H264.351C264.202 146.256 264.133 146.32 264.143 146.448C264.229 147.099 264.522 147.621 265.023 148.016C265.535 148.411 266.197 148.608 267.007 148.608C267.967 148.608 268.821 148.256 269.567 147.552C269.61 147.509 269.658 147.488 269.711 147.488C269.786 147.488 269.823 147.536 269.823 147.632V148.8C269.823 148.939 269.791 149.067 269.727 149.184C269.663 149.291 269.551 149.403 269.391 149.52C269.146 149.691 268.805 149.84 268.367 149.968C267.941 150.096 267.439 150.16 266.863 150.16ZM268.223 144.896C268.394 144.896 268.485 144.811 268.495 144.64L268.511 144.416C268.511 143.883 268.33 143.435 267.967 143.072C267.605 142.709 267.098 142.528 266.447 142.528C265.701 142.528 265.141 142.741 264.767 143.168C264.394 143.584 264.191 144.075 264.159 144.64V144.672C264.159 144.736 264.186 144.789 264.239 144.832C264.303 144.875 264.373 144.896 264.447 144.896H268.223ZM273.735 150C273.629 150 273.575 149.947 273.575 149.84V148.88C273.575 148.773 273.613 148.683 273.687 148.608L276.071 146.16C276.978 145.232 277.618 144.485 277.991 143.92C278.375 143.355 278.567 142.789 278.567 142.224C278.567 141.669 278.407 141.243 278.087 140.944C277.778 140.635 277.319 140.48 276.711 140.48C276.082 140.48 275.549 140.645 275.111 140.976C274.674 141.307 274.237 141.819 273.799 142.512C273.757 142.587 273.709 142.624 273.655 142.624C273.581 142.624 273.543 142.565 273.543 142.448V141.008C273.543 140.805 273.559 140.64 273.591 140.512C273.634 140.384 273.703 140.256 273.799 140.128C274.066 139.776 274.455 139.483 274.967 139.248C275.49 139.003 276.066 138.88 276.695 138.88C277.421 138.88 278.061 139.019 278.615 139.296C279.17 139.563 279.597 139.941 279.895 140.432C280.205 140.912 280.359 141.461 280.359 142.08C280.359 142.795 280.151 143.488 279.735 144.16C279.319 144.821 278.679 145.605 277.815 146.512L276.263 148.16C276.221 148.203 276.199 148.245 276.199 148.288C276.199 148.363 276.258 148.4 276.375 148.4H280.471C280.578 148.4 280.631 148.453 280.631 148.56V149.84C280.631 149.947 280.578 150 280.471 150H273.735ZM281.194 150.96C281.141 150.96 281.104 150.944 281.082 150.912C281.072 150.88 281.082 150.843 281.114 150.8C281.616 149.947 282.01 148.971 282.298 147.872C282.597 146.773 282.746 145.664 282.746 144.544C282.746 143.403 282.602 142.288 282.314 141.2C282.026 140.101 281.626 139.125 281.114 138.272L281.082 138.192C281.082 138.139 281.12 138.112 281.194 138.112H282.314C282.368 138.112 282.41 138.128 282.442 138.16C282.485 138.181 282.533 138.235 282.586 138.32C283.066 139.109 283.45 140.059 283.738 141.168C284.026 142.267 284.17 143.392 284.17 144.544C284.17 145.685 284.026 146.811 283.738 147.92C283.45 149.019 283.066 149.963 282.586 150.752C282.533 150.837 282.485 150.891 282.442 150.912C282.41 150.944 282.368 150.96 282.314 150.96H281.194Z" fill="white"/>
</svg>
