<svg width="1440" height="769" viewBox="0 0 1440 769" fill="none" xmlns="http://www.w3.org/2000/svg">
<path d="M1140 57H1100V97H1140V57Z" fill="#EA1D2D"/>
<path d="M1130.91 76.1275C1130.91 75.5111 1131.42 75.0085 1132.03 75.0085C1132.65 75.0085 1133.15 75.5111 1133.15 76.1275C1133.15 76.7439 1132.65 77.2465 1132.03 77.2465C1131.42 77.2465 1130.91 76.7439 1130.91 76.1275Z" fill="white"/>
<path d="M1133.33 77.6733C1134.09 77.7397 1134.69 78.3845 1134.69 79.1621V82.2631C1134.69 82.5002 1134.5 82.6994 1134.25 82.6994C1134.01 82.6994 1133.82 82.5097 1133.82 82.2631V79.5984C1133.82 79.5035 1133.79 79.3613 1133.61 79.3613C1133.48 79.3613 1133.46 79.494 1133.45 79.5794V87.5642C1133.45 87.9056 1133.17 88.1901 1132.82 88.1901C1132.47 88.1901 1132.19 87.9056 1132.19 87.5642V82.9649C1132.19 82.9175 1132.18 82.7847 1132.01 82.7847C1131.85 82.7847 1131.83 82.9175 1131.83 82.9649V87.5642C1131.83 87.9056 1131.56 88.1901 1131.21 88.1901C1130.86 88.1901 1130.58 87.9056 1130.58 87.5642V79.5794C1130.58 79.494 1130.55 79.3613 1130.42 79.3613C1130.24 79.3613 1130.21 79.494 1130.21 79.5984V82.2631C1130.21 82.5002 1130.01 82.6994 1129.78 82.6994C1129.54 82.6994 1129.34 82.5097 1129.34 82.2631V79.1621C1129.34 78.3845 1129.94 77.7491 1130.7 77.6733C1130.72 77.6733 1130.75 77.6733 1130.78 77.6733H1133.23C1133.23 77.6733 1133.28 77.6733 1133.31 77.6733" fill="white"/>
<path d="M1124.26 76.7155C1124.26 76.1275 1123.78 75.6534 1123.19 75.6534C1122.61 75.6534 1122.13 76.1275 1122.13 76.7155C1122.13 77.3035 1122.61 77.7776 1123.19 77.7776C1123.78 77.7776 1124.26 77.3035 1124.26 76.7155Z" fill="white"/>
<path d="M1121.07 79.1148L1120.19 81.9787C1120.19 81.9787 1120.03 82.5003 1120.47 82.633C1120.92 82.7658 1121.05 82.2537 1121.05 82.2537L1121.76 79.8639C1121.76 79.8639 1121.8 79.6743 1121.94 79.7217C1122.09 79.7596 1122.03 79.9588 1122.03 79.9588L1120.8 84.4443H1121.94V87.6496C1121.94 87.9531 1122.19 88.1996 1122.49 88.1996C1122.8 88.1996 1123.04 87.9531 1123.04 87.6496V84.4443H1123.36V87.6496C1123.36 87.9531 1123.6 88.1996 1123.91 88.1996C1124.21 88.1996 1124.46 87.9531 1124.46 87.6496V84.4443H1125.6L1124.37 79.9588C1124.37 79.9588 1124.32 79.7596 1124.46 79.7217C1124.6 79.6838 1124.64 79.8639 1124.64 79.8639L1125.35 82.2537C1125.35 82.2537 1125.48 82.7658 1125.93 82.633C1126.37 82.5003 1126.22 81.9787 1126.22 81.9787L1125.34 79.1148C1125.34 79.1148 1125.02 78.2897 1124.32 78.2897H1122.08C1121.38 78.2897 1121.06 79.1148 1121.06 79.1148" fill="white"/>
<path d="M1117.91 76.7155C1117.91 76.1275 1117.44 75.6534 1116.85 75.6534C1116.26 75.6534 1115.79 76.1275 1115.79 76.7155C1115.79 77.3035 1116.26 77.7776 1116.85 77.7776C1117.44 77.7776 1117.91 77.3035 1117.91 76.7155Z" fill="white"/>
<path d="M1114.73 79.1148L1113.84 81.9787C1113.84 81.9787 1113.68 82.5003 1114.13 82.633C1114.58 82.7658 1114.71 82.2537 1114.71 82.2537L1115.42 79.8639C1115.42 79.8639 1115.46 79.6743 1115.6 79.7217C1115.74 79.7596 1115.68 79.9588 1115.68 79.9588L1114.45 84.4443H1115.6V87.6496C1115.6 87.9531 1115.85 88.1996 1116.15 88.1996C1116.45 88.1996 1116.7 87.9531 1116.7 87.6496V84.4443H1117.01V87.6496C1117.01 87.9531 1117.26 88.1996 1117.56 88.1996C1117.87 88.1996 1118.11 87.9531 1118.11 87.6496V84.4443H1119.26L1118.03 79.9588C1118.03 79.9588 1117.97 79.7596 1118.11 79.7217C1118.25 79.6838 1118.29 79.8639 1118.29 79.8639L1119 82.2537C1119 82.2537 1119.14 82.7658 1119.58 82.633C1120.03 82.5003 1119.87 81.9787 1119.87 81.9787L1118.98 79.1148C1118.98 79.1148 1118.67 78.2897 1117.97 78.2897H1115.72C1115.03 78.2897 1114.71 79.1148 1114.71 79.1148" fill="white"/>
<path d="M1127.81 82.6425C1128.3 82.6425 1128.7 82.2442 1128.7 81.7605C1128.7 81.2769 1128.3 80.8786 1127.81 80.8786C1127.33 80.8786 1126.93 81.2674 1126.93 81.7605C1126.93 82.2537 1127.33 82.6425 1127.81 82.6425Z" fill="white"/>
<path d="M1125.71 85.3831C1125.66 85.4874 1125.63 85.7056 1125.84 85.8004C1126.09 85.9142 1126.22 85.6771 1126.22 85.6771L1126.71 84.1503C1126.71 84.1503 1126.79 84.046 1126.79 84.1503V87.7444C1126.79 88.0005 1126.99 88.1996 1127.25 88.1996C1127.5 88.1996 1127.7 88.0005 1127.7 87.7444V86.322C1127.7 86.322 1127.67 86.1228 1127.83 86.1228C1128 86.1228 1127.97 86.322 1127.97 86.322V87.7444C1127.97 88.0005 1128.17 88.1996 1128.42 88.1996C1128.68 88.1996 1128.88 88.0005 1128.88 87.7444V84.1503C1128.88 84.046 1128.93 84.1219 1128.93 84.1219L1129.31 85.165C1129.31 85.165 1129.47 85.6297 1129.53 85.6487C1129.7 85.7245 1129.9 85.6487 1129.97 85.4685C1130.02 85.3547 1130 85.2409 1129.93 85.146C1129.93 85.146 1129.37 83.7615 1129.3 83.5718C1129.1 82.9934 1128.74 82.9934 1128.39 82.9839C1128.04 82.9839 1127.83 82.9839 1127.83 82.9839C1127.83 82.9839 1127.61 82.9839 1127.15 82.9839C1126.69 83.0029 1126.54 83.2305 1126.04 84.5391C1125.97 84.7288 1125.73 85.3357 1125.72 85.3736L1125.71 85.3831Z" fill="white"/>
<path d="M1108.46 76.1275C1108.46 75.5111 1107.96 75.0085 1107.34 75.0085C1106.72 75.0085 1106.22 75.5111 1106.22 76.1275C1106.22 76.7439 1106.72 77.2465 1107.34 77.2465C1107.96 77.2465 1108.46 76.7439 1108.46 76.1275Z" fill="white"/>
<path d="M1106.03 77.6733C1105.27 77.7397 1104.68 78.3845 1104.68 79.1621V82.2631C1104.68 82.5002 1104.87 82.6994 1105.11 82.6994C1105.36 82.6994 1105.55 82.5097 1105.55 82.2631V79.5984C1105.55 79.5035 1105.58 79.3613 1105.76 79.3613C1105.88 79.3613 1105.91 79.494 1105.91 79.5794V87.5642C1105.91 87.9056 1106.18 88.1901 1106.53 88.1901C1106.89 88.1901 1107.16 87.9056 1107.16 87.5642V82.9649C1107.16 82.9175 1107.18 82.7847 1107.34 82.7847C1107.5 82.7847 1107.52 82.9175 1107.52 82.9649V87.5642C1107.52 87.9056 1107.8 88.1901 1108.15 88.1901C1108.5 88.1901 1108.77 87.9056 1108.77 87.5642V79.5794C1108.77 79.494 1108.8 79.3613 1108.93 79.3613C1109.11 79.3613 1109.14 79.494 1109.14 79.5984V82.2631C1109.14 82.5002 1109.34 82.6994 1109.58 82.6994C1109.82 82.6994 1110.01 82.5097 1110.01 82.2631V79.1621C1110.01 78.3845 1109.42 77.7491 1108.66 77.6733C1108.63 77.6733 1108.61 77.6733 1108.57 77.6733H1106.13C1106.13 77.6733 1106.07 77.6733 1106.04 77.6733" fill="white"/>
<path d="M1104.07 88.2186C1104.07 88.2186 1104.04 88.2186 1104.02 88.2186C1103.89 88.1996 1103.81 88.0668 1103.83 87.9436L1104.83 82.6804C1104.85 82.5476 1104.98 82.4623 1105.1 82.4907C1105.23 82.5192 1105.31 82.6425 1105.29 82.7657L1104.3 88.0289C1104.28 88.1427 1104.17 88.2186 1104.06 88.2186" fill="white"/>
<path d="M1110.54 82.1778C1110.48 82.083 1110.38 82.0261 1110.26 82.0261C1110.08 82.0261 1109.94 82.1683 1109.94 82.3485C1109.94 82.3959 1109.97 82.4908 1109.97 82.4908L1110.86 84.1029C1110.86 84.1029 1110.92 84.2167 1110.92 84.3115V87.7634C1110.92 88.01 1111.11 88.1996 1111.35 88.1996C1111.6 88.1996 1111.79 88.01 1111.79 87.7634V86.3978C1111.79 86.3978 1111.76 86.2082 1111.92 86.2082C1112.08 86.2082 1112.05 86.3978 1112.05 86.3978V87.7634C1112.05 88.01 1112.24 88.1996 1112.49 88.1996C1112.74 88.1996 1112.93 88.01 1112.93 87.7634V84.3115C1112.93 84.2072 1112.98 84.1029 1112.98 84.1029L1113.81 82.614C1113.81 82.614 1113.91 82.3959 1113.91 82.3485C1113.91 82.1683 1113.77 82.0261 1113.59 82.0261C1113.48 82.0261 1113.37 82.083 1113.32 82.1778C1113.32 82.1778 1112.88 82.927 1112.75 83.0692C1112.6 83.2115 1112.47 83.202 1112.47 83.202H1111.4C1111.4 83.202 1111.27 83.221 1111.12 83.0692C1110.99 82.9365 1110.57 82.1968 1110.56 82.1778H1110.54Z" fill="white"/>
<path d="M1111.91 82.6425C1112.39 82.6425 1112.79 82.2442 1112.79 81.7605C1112.79 81.2769 1112.4 80.8786 1111.91 80.8786C1111.42 80.8786 1111.03 81.2674 1111.03 81.7605C1111.03 82.2537 1111.42 82.6425 1111.91 82.6425Z" fill="white"/>
<path d="M1111.92 83.8753L1112.92 84.6055L1113.39 86.3504H1111.92H1110.44L1110.92 84.6055L1111.92 83.8753Z" fill="white"/>
<path d="M1105.44 62.1683H1105.45V68.3988H1106.82V60.2527H1105.73L1104.47 61.7321V63.164H1104.48L1105.44 62.1683Z" fill="white"/>
<path d="M1111.84 61.5994V63.7331H1111.36V60.3286H1111.92L1112.54 62.2821V60.3286H1113.01V63.7331H1112.51L1111.84 61.5994Z" fill="white"/>
<path d="M1113.34 62.8606V61.2105C1113.34 60.6794 1113.61 60.2906 1114.21 60.2906C1114.8 60.2906 1115.08 60.6794 1115.08 61.2105V62.8606C1115.08 63.3916 1114.81 63.7804 1114.21 63.7804C1113.6 63.7804 1113.34 63.3916 1113.34 62.8606ZM1114.5 62.9459V61.1157C1114.5 60.907 1114.41 60.7648 1114.21 60.7648C1114.01 60.7648 1113.91 60.907 1113.91 61.1157V62.9459C1113.91 63.1545 1114.01 63.2968 1114.21 63.2968C1114.41 63.2968 1114.5 63.1545 1114.5 62.9459Z" fill="white"/>
<path d="M1111.36 65.0986H1112.21C1112.79 65.0986 1113 65.3831 1113 65.8667V66.5875C1113 67.0616 1112.79 67.3556 1112.21 67.3556H1111.94V68.5125H1111.37V65.1081L1111.36 65.0986ZM1111.93 65.5728V66.9099H1112.14C1112.34 66.9099 1112.42 66.8151 1112.42 66.6254V65.8383C1112.42 65.6486 1112.34 65.5633 1112.14 65.5633H1111.93V65.5728Z" fill="white"/>
<path d="M1113.29 67.6306V65.9806C1113.29 65.4495 1113.55 65.0607 1114.15 65.0607C1114.75 65.0607 1115.02 65.4495 1115.02 65.9806V67.6306C1115.02 68.1617 1114.76 68.5505 1114.15 68.5505C1113.54 68.5505 1113.29 68.1617 1113.29 67.6306ZM1114.45 67.716V65.8857C1114.45 65.6771 1114.36 65.5349 1114.16 65.5349C1113.96 65.5349 1113.86 65.6771 1113.86 65.8857V67.716C1113.86 67.9246 1113.96 68.0669 1114.16 68.0669C1114.36 68.0669 1114.45 67.9246 1114.45 67.716Z" fill="white"/>
<path d="M1117.08 65.0986L1116.43 68.5031H1115.81L1115.16 65.0986H1115.74L1116.14 67.4789L1116.55 65.0986H1117.08Z" fill="white"/>
<path d="M1117.32 65.0986H1118.68V65.5728H1117.89V66.54H1118.45V67.0047H1117.89V68.0384H1118.68V68.5031H1117.32V65.0986Z" fill="white"/>
<path d="M1119.56 66.9478V68.5126H1118.99V65.1081H1119.83C1120.41 65.1081 1120.62 65.3926 1120.62 65.8762V66.3125C1120.62 66.6823 1120.48 66.9004 1120.16 66.9668L1120.71 68.5126H1120.1L1119.56 66.9478ZM1119.56 65.5728V66.6349H1119.75C1119.95 66.6349 1120.04 66.5306 1120.04 66.3504V65.8478C1120.04 65.6581 1119.95 65.5728 1119.75 65.5728H1119.56Z" fill="white"/>
<path d="M1120.8 65.0986H1122.33V65.5728H1121.86V68.5031H1121.28V65.5728H1120.8V65.0986Z" fill="white"/>
<path d="M1123.71 67.2133V68.5031H1123.14V67.2133L1122.49 65.0986H1123.09L1123.44 66.3883L1123.79 65.0986H1124.34L1123.71 67.2133Z" fill="white"/>
<path d="M1190 57H1150V97H1190V57Z" fill="#D19F2A"/>
<path d="M1165.93 91.0541V91.6136V91.6231C1165.93 91.6231 1165.93 91.6231 1165.93 91.6325C1165.93 91.7748 1166.05 91.8791 1166.2 91.8886H1172.83C1172.97 91.8886 1173.09 91.7653 1173.09 91.6231V90.9877C1176.82 89.7644 1179.62 86.7392 1180.23 83.0598V83.0408C1180.23 83.0313 1180.23 83.0123 1180.23 83.0029C1180.23 82.8511 1180.12 82.7373 1179.97 82.7373H1158.84C1158.69 82.7373 1158.57 82.8606 1158.57 83.0029V83.1261C1159.24 86.8435 1162.1 89.8876 1165.91 91.0636" fill="white"/>
<path d="M1173.1 73.7093C1173.01 73.8326 1170.98 76.7724 1173.15 79.1432C1174.14 80.2337 1174.06 81.201 1173.77 81.8459H1175.17C1175.45 80.8881 1175.33 79.6837 1174.2 78.4509C1172.6 76.6965 1174.22 74.3352 1174.25 74.2973C1174.44 74.0317 1174.33 73.6809 1174.02 73.5197C1173.71 73.3584 1173.29 73.4438 1173.1 73.7093Z" fill="white"/>
<path d="M1169.57 81.8554H1170.97C1171.25 80.8976 1171.13 79.6932 1170 78.4509C1168.4 76.6965 1170.02 74.3352 1170.05 74.2973C1170.24 74.0317 1170.14 73.6809 1169.82 73.5197C1169.51 73.3584 1169.09 73.4438 1168.9 73.7093C1168.81 73.8326 1166.77 76.7724 1168.95 79.1432C1169.94 80.2337 1169.86 81.201 1169.57 81.8459" fill="white"/>
<path d="M1164.69 73.7093C1164.61 73.8326 1162.56 76.7724 1164.74 79.1432C1165.73 80.2337 1165.65 81.201 1165.36 81.8459H1166.76C1167.04 80.8881 1166.92 79.6837 1165.79 78.4509C1164.19 76.6965 1165.81 74.3352 1165.84 74.2973C1166.03 74.0317 1165.92 73.6809 1165.61 73.5197C1165.3 73.3584 1164.89 73.4438 1164.69 73.7093Z" fill="white"/>
<path d="M1157.63 67.2608H1155.39V66.8814C1155.39 66.2461 1155.61 66.009 1155.96 65.6392L1156.83 64.7193C1157.53 63.9701 1157.69 63.4865 1157.69 62.6709V61.8838C1157.69 60.7269 1157.13 60.1768 1155.91 60.1768C1154.69 60.1768 1154.11 60.8122 1154.11 61.9502V62.927H1155.35V61.9123C1155.35 61.4286 1155.59 61.2769 1155.88 61.2769C1156.15 61.2769 1156.37 61.3812 1156.37 61.8838V62.5476C1156.37 63.2209 1156.32 63.477 1155.87 63.9417L1155.1 64.7572C1154.36 65.5443 1154.09 66.0754 1154.09 66.872V68.3703H1157.63V67.2608Z" fill="white"/>
<path d="M1162.14 63.2873H1163V63.752H1161.54V63.2873L1162.43 60.8312H1161.63V60.3665H1163.03V60.8312L1162.14 63.2873Z" fill="white"/>
<path d="M1163.33 60.3665H1164.69V60.8312H1163.9V61.7985H1164.47V62.2631H1163.9V63.2873H1164.69V63.752H1163.33V60.3665Z" fill="white"/>
<path d="M1165.56 62.2063V63.7615H1164.99V60.376H1165.83C1166.4 60.376 1166.62 60.6605 1166.62 61.1347V61.5709C1166.62 61.9312 1166.48 62.1494 1166.16 62.2252L1166.7 63.7615H1166.1L1165.57 62.2063H1165.56ZM1165.56 60.8312V61.8838H1165.75C1165.95 61.8838 1166.04 61.789 1166.04 61.5993V61.0967C1166.04 60.9071 1165.95 60.8217 1165.75 60.8217H1165.56V60.8312Z" fill="white"/>
<path d="M1166.92 62.8796V61.239C1166.92 60.7079 1167.17 60.3286 1167.78 60.3286C1168.39 60.3286 1168.64 60.7174 1168.64 61.239V62.8796C1168.64 63.4012 1168.39 63.79 1167.78 63.79C1167.17 63.79 1166.92 63.4012 1166.92 62.8796ZM1168.07 62.9744V61.1536C1168.07 60.945 1167.99 60.8028 1167.78 60.8028C1167.57 60.8028 1167.49 60.945 1167.49 61.1536V62.9744C1167.49 63.183 1167.57 63.3253 1167.78 63.3253C1167.99 63.3253 1168.07 63.183 1168.07 62.9744Z" fill="white"/>
<path d="M1162.7 67.0047H1162.15V68.5031H1161.58V65.1081H1162.15V66.5495H1162.7V65.1081H1163.28V68.5031H1162.7V67.0047Z" fill="white"/>
<path d="M1165.25 65.1081V67.6685C1165.25 68.1901 1165.02 68.5315 1164.44 68.5315C1163.87 68.5315 1163.6 68.1901 1163.6 67.6685V65.1081H1164.17V67.7254C1164.17 67.9246 1164.24 68.0574 1164.44 68.0574C1164.64 68.0574 1164.72 67.9246 1164.72 67.7254V65.1081H1165.24H1165.25Z" fill="white"/>
<path d="M1166.05 66.3694V68.4936H1165.57V65.1081H1166.13L1166.75 67.0521V65.1081H1167.22V68.4936H1166.73L1166.05 66.3694Z" fill="white"/>
<path d="M1168.41 66.6918H1169.21V68.5031H1168.8V68.1333C1168.73 68.3893 1168.57 68.541 1168.26 68.541C1167.77 68.541 1167.55 68.1522 1167.55 67.6307V65.9901C1167.55 65.459 1167.81 65.0797 1168.41 65.0797C1169.03 65.0797 1169.22 65.4306 1169.22 65.9332V66.2366H1168.7V65.8952C1168.7 65.6866 1168.62 65.5633 1168.42 65.5633C1168.21 65.5633 1168.12 65.7056 1168.12 65.9142V67.735C1168.12 67.9436 1168.21 68.0858 1168.4 68.0858C1168.58 68.0858 1168.68 67.9815 1168.68 67.7634V67.166H1168.41V66.7203V66.6918Z" fill="white"/>
<path d="M1169.54 65.1081H1170.9V65.5728H1170.11V66.5495H1170.67V67.0047H1170.11V68.0384H1170.9V68.5031H1169.54V65.1081Z" fill="white"/>
<path d="M1171.77 66.9478V68.5031H1171.2V65.1176H1172.04C1172.61 65.1176 1172.82 65.4021 1172.82 65.8762V66.3125C1172.82 66.6728 1172.69 66.8909 1172.37 66.9668L1172.91 68.5031H1172.31L1171.78 66.9478H1171.77ZM1171.77 65.5728V66.6254H1171.96C1172.16 66.6254 1172.25 66.5306 1172.25 66.3504V65.8478C1172.25 65.6676 1172.16 65.5728 1171.96 65.5728H1171.77Z" fill="white"/>
<path d="M1240 57H1200V97H1240V57Z" fill="#8F1838"/>
<path d="M1227.63 76.6776L1223.54 80.5657C1223.39 80.7174 1223.3 80.8312 1223.3 81.1441V92.0308C1223.3 92.1636 1223.41 92.2584 1223.54 92.2584H1227.76C1227.89 92.2584 1227.99 92.1541 1227.99 92.0308V76.7724C1227.99 76.6396 1227.88 76.412 1227.62 76.6776" fill="white"/>
<path d="M1215.87 81.7416L1211.78 85.6297C1211.63 85.7814 1211.54 85.8952 1211.54 86.2081V92.0403C1211.54 92.1636 1211.65 92.2679 1211.78 92.2679H1216C1216.13 92.2679 1216.24 92.1636 1216.24 92.0403V81.8459C1216.24 81.7131 1216.13 81.4855 1215.87 81.7511" fill="white"/>
<path d="M1229.48 71.9644C1229.48 71.9644 1229.48 71.898 1229.45 71.8791C1229.43 71.8601 1229.4 71.8506 1229.37 71.8506H1229.35H1229.31L1226.18 72.5524H1226.13C1226.13 72.5524 1226.08 72.5713 1226.06 72.5903C1226.01 72.6377 1226.01 72.7136 1226.06 72.761L1226.1 72.7989L1226.81 73.5102L1219.72 80.5941L1216.45 77.3224C1216.45 77.3224 1216.36 77.2845 1216.32 77.3224L1215.43 78.2138L1210.18 83.458C1210.18 83.458 1210.15 83.5528 1210.18 83.5908L1211.08 84.4822C1211.08 84.4822 1211.17 84.5201 1211.21 84.4822L1216.39 79.3044L1218.76 81.6752C1218.76 81.6752 1218.76 81.6752 1218.76 81.6847L1219.65 82.5666C1219.65 82.5666 1219.74 82.6045 1219.78 82.5666L1227.82 74.5249L1228.57 75.274C1228.57 75.274 1228.7 75.3215 1228.74 75.274C1228.76 75.2551 1228.78 75.2266 1228.78 75.1982L1229.46 71.9929V71.9549L1229.48 71.9644Z" fill="white"/>
<path d="M1221.76 82.4244L1219.79 84.4159C1219.79 84.4159 1219.7 84.4443 1219.67 84.4159L1217.87 82.5951C1217.55 82.2727 1217.48 82.5287 1217.48 82.6615V92.0498C1217.48 92.1826 1217.58 92.2869 1217.7 92.2869H1221.92C1222.05 92.2869 1222.15 92.1826 1222.15 92.0498V82.5097C1222.15 82.377 1222.05 82.1494 1221.76 82.4339" fill="white"/>
<path d="M1207.72 66.3978V65.5159C1207.72 64.7383 1207.44 64.1788 1206.81 63.8943C1207.35 63.6287 1207.6 63.1546 1207.6 62.4813V62.1494C1207.6 60.8786 1206.94 60.2053 1205.69 60.2053C1204.44 60.2053 1203.8 60.8881 1203.8 62.1494V62.4813C1203.8 63.1356 1204.04 63.6287 1204.57 63.8943C1203.94 64.1788 1203.68 64.7478 1203.68 65.5159V66.3978C1203.68 67.6306 1204.27 68.4936 1205.7 68.4936C1207.13 68.4936 1207.73 67.6306 1207.73 66.3978M1205.08 62.0545C1205.08 61.5614 1205.25 61.2769 1205.69 61.2769C1206.13 61.2769 1206.31 61.5614 1206.31 62.0545V62.6046C1206.31 63.0977 1206.14 63.3822 1205.69 63.3822C1205.24 63.3822 1205.08 63.0977 1205.08 62.6046V62.0545ZM1206.35 66.5401C1206.35 67.0332 1206.17 67.3746 1205.68 67.3746C1205.19 67.3746 1205.03 67.0332 1205.03 66.5401V65.2219C1205.03 64.7288 1205.21 64.3874 1205.68 64.3874C1206.15 64.3874 1206.35 64.7383 1206.35 65.2219V66.5401Z" fill="white"/>
<path d="M1212.34 61.1916V62.7563C1212.34 63.2779 1212.12 63.6667 1211.51 63.6667H1210.63V60.2812H1211.51C1212.12 60.2812 1212.34 60.67 1212.34 61.1916ZM1211.45 63.202C1211.68 63.202 1211.77 63.0598 1211.77 62.8606V61.0873C1211.77 60.8881 1211.67 60.7459 1211.45 60.7459H1211.21V63.202H1211.45Z" fill="white"/>
<path d="M1212.67 60.2812H1214.02V60.7459H1213.24V61.7131H1213.8V62.1778H1213.24V63.202H1214.02V63.6667H1212.67V60.2812Z" fill="white"/>
<path d="M1214.28 62.7942V61.1536C1214.28 60.6226 1214.53 60.2432 1215.13 60.2432C1215.76 60.2432 1215.94 60.5941 1215.94 61.0967V61.495H1215.42V61.0493C1215.42 60.8407 1215.35 60.7174 1215.14 60.7174C1214.94 60.7174 1214.85 60.8596 1214.85 61.0683V62.889C1214.85 63.0977 1214.94 63.2399 1215.14 63.2399C1215.35 63.2399 1215.42 63.1071 1215.42 62.908V62.2821H1215.94V62.8701C1215.94 63.3537 1215.74 63.7141 1215.13 63.7141C1214.53 63.7141 1214.28 63.3253 1214.28 62.8037" fill="white"/>
<path d="M1216.25 60.2812H1217.6V60.7459H1216.82V61.7131H1217.37V62.1778H1216.82V63.202H1217.6V63.6667H1216.25V60.2812Z" fill="white"/>
<path d="M1218.39 61.5425V63.6667H1217.9V60.2812H1218.46L1219.08 62.2252V60.2812H1219.55V63.6667H1219.05L1218.39 61.5425Z" fill="white"/>
<path d="M1219.81 60.2812H1221.33V60.7459H1220.85V63.6667H1220.28V60.7459H1219.81V60.2812Z" fill="white"/>
<path d="M1223.68 61.5804L1223.36 63.6667H1222.82L1222.36 60.2812H1222.91L1223.18 62.4339H1223.19L1223.47 60.2812H1223.94L1224.25 62.4339H1224.26L1224.51 60.2812H1225L1224.55 63.6667H1224.01L1223.68 61.5804Z" fill="white"/>
<path d="M1225.19 62.7942V61.1536C1225.19 60.6226 1225.44 60.2432 1226.04 60.2432C1226.64 60.2432 1226.9 60.632 1226.9 61.1536V62.7942C1226.9 63.3158 1226.65 63.7046 1226.04 63.7046C1225.43 63.7046 1225.19 63.3158 1225.19 62.7942ZM1226.34 62.889V61.0683C1226.34 60.8596 1226.26 60.7174 1226.05 60.7174C1225.84 60.7174 1225.77 60.8596 1225.77 61.0683V62.889C1225.77 63.0977 1225.86 63.2399 1226.05 63.2399C1226.24 63.2399 1226.34 63.0977 1226.34 62.889Z" fill="white"/>
<path d="M1227.81 62.1209V63.6761H1227.24V60.2906H1228.07C1228.64 60.2906 1228.86 60.5751 1228.86 61.0493V61.4855C1228.86 61.8459 1228.73 62.064 1228.4 62.1398L1228.94 63.6761H1228.35L1227.81 62.1209H1227.81ZM1227.81 60.7458V61.7984H1227.99C1228.19 61.7984 1228.27 61.7036 1228.27 61.5139V61.0113C1228.27 60.8312 1228.18 60.7363 1227.99 60.7363H1227.81V60.7458Z" fill="white"/>
<path d="M1229.73 62.0261V63.6667H1229.16V60.2812H1229.73V61.77L1230.35 60.2812H1230.91L1230.25 61.808L1230.92 63.6667H1230.32L1229.73 62.0261Z" fill="white"/>
<path d="M1231.9 63.6667L1232.54 60.2812H1233.18L1233.82 63.6667H1233.24L1233.13 63.0503H1232.53L1232.42 63.6667H1231.88H1231.9ZM1232.61 62.5951H1233.07L1232.84 61.239L1232.61 62.5951Z" fill="white"/>
<path d="M1234.55 61.5425V63.6667H1234.07V60.2812H1234.63L1235.24 62.2252V60.2812H1235.71V63.6667H1235.22L1234.55 61.5425Z" fill="white"/>
<path d="M1237.74 61.1916V62.7563C1237.74 63.2779 1237.52 63.6667 1236.92 63.6667H1236.04V60.2812H1236.92C1237.52 60.2812 1237.74 60.67 1237.74 61.1916ZM1236.85 63.202C1237.09 63.202 1237.17 63.0598 1237.17 62.8606V61.0873C1237.17 60.8881 1237.08 60.7459 1236.85 60.7459H1236.61V63.202H1236.85Z" fill="white"/>
<path d="M1210.64 65.0228H1212V65.4874H1211.21V66.4642H1211.77V66.9194H1211.21V67.9531H1212V68.4177H1210.64V65.0228Z" fill="white"/>
<path d="M1212.25 67.5358V65.8952C1212.25 65.3641 1212.5 64.9848 1213.11 64.9848C1213.73 64.9848 1213.91 65.3357 1213.91 65.8383V66.2366H1213.39V65.7909C1213.39 65.5822 1213.32 65.459 1213.11 65.459C1212.91 65.459 1212.82 65.6012 1212.82 65.8098V67.6306C1212.82 67.8392 1212.91 67.9815 1213.11 67.9815C1213.32 67.9815 1213.39 67.8487 1213.39 67.6496V67.0237H1213.91V67.6116C1213.91 68.0953 1213.71 68.4556 1213.11 68.4556C1212.5 68.4556 1212.25 68.0668 1212.25 67.5453" fill="white"/>
<path d="M1214.21 67.5358V65.8952C1214.21 65.3641 1214.47 64.9848 1215.08 64.9848C1215.68 64.9848 1215.94 65.3736 1215.94 65.8952V67.5358C1215.94 68.0573 1215.68 68.4462 1215.08 68.4462C1214.47 68.4462 1214.21 68.0573 1214.21 67.5358ZM1215.36 67.6306V65.8098C1215.36 65.6012 1215.28 65.459 1215.07 65.459C1214.86 65.459 1214.77 65.6012 1214.77 65.8098V67.6306C1214.77 67.8392 1214.86 67.9815 1215.07 67.9815C1215.28 67.9815 1215.36 67.8392 1215.36 67.6306Z" fill="white"/>
<path d="M1216.74 66.284V68.4083H1216.26V65.0228H1216.82L1217.43 66.9668V65.0228H1217.91V68.4083H1217.41L1216.74 66.284Z" fill="white"/>
<path d="M1218.24 67.5358V65.8952C1218.24 65.3641 1218.49 64.9848 1219.1 64.9848C1219.71 64.9848 1219.96 65.3736 1219.96 65.8952V67.5358C1219.96 68.0573 1219.71 68.4462 1219.1 68.4462C1218.49 68.4462 1218.24 68.0573 1218.24 67.5358ZM1219.38 67.6306V65.8098C1219.38 65.6012 1219.3 65.459 1219.09 65.459C1218.88 65.459 1218.8 65.6012 1218.8 65.8098V67.6306C1218.8 67.8392 1218.88 67.9815 1219.09 67.9815C1219.3 67.9815 1219.38 67.8392 1219.38 67.6306Z" fill="white"/>
<path d="M1221.85 66.2176H1221.83L1221.45 68.4177H1221.19L1220.76 66.2176H1220.75V68.4177H1220.29V65.0228H1220.95L1221.32 66.9384L1221.65 65.0228H1222.37V68.4177H1221.85V66.2176Z" fill="white"/>
<path d="M1223.26 65.0228H1222.69V68.4083H1223.26V65.0228Z" fill="white"/>
<path d="M1223.6 67.5358V65.8952C1223.6 65.3641 1223.84 64.9848 1224.45 64.9848C1225.08 64.9848 1225.26 65.3357 1225.26 65.8383V66.2366H1224.73V65.7909C1224.73 65.5822 1224.67 65.459 1224.46 65.459C1224.25 65.459 1224.16 65.6012 1224.16 65.8098V67.6306C1224.16 67.8392 1224.25 67.9815 1224.46 67.9815C1224.67 67.9815 1224.73 67.8487 1224.73 67.6496V67.0237H1225.26V67.6116C1225.26 68.0953 1225.06 68.4556 1224.45 68.4556C1223.84 68.4556 1223.6 68.0668 1223.6 67.5453" fill="white"/>
<path d="M1227.27 66.6064H1228.08V68.4177H1227.67V68.0479C1227.6 68.3039 1227.43 68.4556 1227.13 68.4556C1226.64 68.4556 1226.42 68.0668 1226.42 67.5453V65.9047C1226.42 65.3736 1226.68 64.9943 1227.27 64.9943C1227.9 64.9943 1228.09 65.3452 1228.09 65.8478V66.1512H1227.57V65.8098C1227.57 65.6012 1227.49 65.4779 1227.28 65.4779C1227.07 65.4779 1226.99 65.6202 1226.99 65.8288V67.6496C1226.99 67.8582 1227.07 68.0005 1227.26 68.0005C1227.44 68.0005 1227.54 67.8961 1227.54 67.678V67.0806H1227.26V66.6349L1227.27 66.6064Z" fill="white"/>
<path d="M1228.97 66.8625V68.4177H1228.4V65.0322H1229.23C1229.8 65.0322 1230.02 65.3167 1230.02 65.7909V66.2271C1230.02 66.5875 1229.89 66.8056 1229.57 66.8814L1230.11 68.4177H1229.51L1228.98 66.8625H1228.97ZM1228.97 65.4874V66.5401H1229.16C1229.36 66.5401 1229.43 66.4452 1229.43 66.2556V65.7529C1229.43 65.5728 1229.35 65.4779 1229.16 65.4779H1228.97V65.4874Z" fill="white"/>
<path d="M1230.33 67.5358V65.8952C1230.33 65.3641 1230.58 64.9848 1231.18 64.9848C1231.78 64.9848 1232.04 65.3736 1232.04 65.8952V67.5358C1232.04 68.0573 1231.79 68.4462 1231.18 68.4462C1230.57 68.4462 1230.33 68.0573 1230.33 67.5358ZM1231.49 67.6306V65.8098C1231.49 65.6012 1231.4 65.459 1231.19 65.459C1230.98 65.459 1230.91 65.6012 1230.91 65.8098V67.6306C1230.91 67.8392 1231 67.9815 1231.19 67.9815C1231.38 67.9815 1231.49 67.8392 1231.49 67.6306Z" fill="white"/>
<path d="M1233.55 66.322L1233.23 68.4177H1232.7L1232.24 65.0228H1232.79L1233.06 67.1754L1233.35 65.0228H1233.82L1234.13 67.1754L1234.39 65.0228H1234.87L1234.43 68.4177H1233.89L1233.56 66.322H1233.55Z" fill="white"/>
<path d="M1235.05 65.0228H1236.57V65.4874H1236.09V68.4177H1235.52V65.4874H1235.05V65.0228Z" fill="white"/>
<path d="M1237.94 66.9194H1237.4V68.4177H1236.82V65.0228H1237.4V66.4642H1237.94V65.0228H1238.52V68.4177H1237.94V66.9194Z" fill="white"/>
<path d="M1290 57H1250V97H1290V57Z" fill="#F36E24"/>
<path d="M1280.26 83.3158L1275.48 80.5562V75.0369C1275.48 74.9232 1275.42 74.8094 1275.32 74.7525L1270.38 71.898C1270.28 71.8411 1270.15 71.8411 1270.06 71.898L1265.12 74.7525C1265.01 74.8094 1264.96 74.9137 1264.96 75.0369V80.5562L1260.18 83.3158C1260.07 83.3727 1260.02 83.4865 1260.02 83.6002V89.2996C1260.02 89.4134 1260.07 89.5272 1260.18 89.5841L1265.12 92.4386C1265.16 92.467 1265.22 92.486 1265.28 92.486C1265.34 92.486 1265.39 92.467 1265.44 92.4386L1270.22 89.679L1275 92.4386C1275.05 92.467 1275.1 92.486 1275.16 92.486C1275.22 92.486 1275.27 92.467 1275.32 92.4386L1280.26 89.5841C1280.37 89.5272 1280.42 89.4229 1280.42 89.2996V83.6002C1280.42 83.4865 1280.36 83.3727 1280.26 83.3158ZM1269.9 88.7401L1265.93 86.4547L1269.9 84.1692V88.7401ZM1274.52 80.7458L1270.55 83.0313V78.4604L1274.52 80.7458ZM1269.9 83.0407L1265.93 80.7553L1269.9 78.4699V83.0407ZM1270.87 83.6002L1275.16 81.1251L1279.45 83.6002L1275.16 86.0754L1270.87 83.6002ZM1274.84 80.1863L1270.87 77.9009L1274.84 75.6154V80.1863ZM1269.57 77.9009L1265.61 80.1863V75.6154L1269.57 77.9009ZM1264.97 91.5946L1260.68 89.1195V84.1692L1264.97 86.6443V91.5946ZM1265.61 91.5946V87.0237L1269.57 89.3091L1265.61 91.5946ZM1279.78 89.1195L1275.49 91.5946V86.6443L1279.78 84.1692V89.1195Z" fill="white"/>
<path d="M1257.27 62.3106C1257.27 61.0588 1256.72 60.1484 1255.29 60.1484C1253.86 60.1484 1253.28 60.9355 1253.28 62.1873V63.3822C1253.28 64.7098 1253.8 65.3736 1254.79 65.3736C1255.36 65.3736 1255.71 65.1081 1255.91 64.7193H1255.92V66.4642C1255.92 66.9573 1255.73 67.2987 1255.23 67.2987C1254.74 67.2987 1254.56 67.0142 1254.56 66.5116V65.9711H1253.32V66.3978C1253.32 67.5927 1253.75 68.4272 1255.25 68.4272C1256.76 68.4272 1257.26 67.5073 1257.26 66.2366V62.2916L1257.27 62.3106ZM1255.92 63.5529C1255.89 64.0081 1255.7 64.2926 1255.27 64.2926C1254.81 64.2926 1254.63 64.0081 1254.63 63.477V62.064C1254.63 61.5519 1254.82 61.2485 1255.28 61.2485C1255.75 61.2485 1255.92 61.5614 1255.92 62.064V63.5434V63.5529Z" fill="white"/>
<path d="M1260.16 60.2812H1259.6V63.6667H1260.16V60.2812Z" fill="white"/>
<path d="M1260.83 61.5425V63.6667H1260.35V60.2812H1260.91L1261.52 62.2252V60.2812H1262V63.6667H1261.5L1260.83 61.5425Z" fill="white"/>
<path d="M1263.88 61.1916V62.7563C1263.88 63.2779 1263.66 63.6667 1263.06 63.6667H1262.18V60.2812H1263.06C1263.66 60.2812 1263.88 60.67 1263.88 61.1916ZM1262.99 63.202C1263.23 63.202 1263.31 63.0598 1263.31 62.8606V61.0873C1263.31 60.8881 1263.22 60.7459 1262.99 60.7459H1262.75V63.202H1262.99Z" fill="white"/>
<path d="M1265.71 60.2812V62.8416C1265.71 63.3632 1265.49 63.7046 1264.91 63.7046C1264.33 63.7046 1264.06 63.3632 1264.06 62.8416V60.2812H1264.63V62.8985C1264.63 63.0977 1264.71 63.2305 1264.91 63.2305C1265.11 63.2305 1265.19 63.0977 1265.19 62.8985V60.2812H1265.71Z" fill="white"/>
<path d="M1265.87 62.9364V62.4813H1266.4V62.9459C1266.4 63.1356 1266.48 63.2494 1266.67 63.2494C1266.85 63.2494 1266.93 63.1261 1266.93 62.9459V62.8132C1266.93 62.614 1266.85 62.5002 1266.67 62.3295L1266.34 61.9976C1266.02 61.6752 1265.87 61.4855 1265.87 61.0967V60.9829C1265.87 60.5657 1266.11 60.2432 1266.66 60.2432C1267.21 60.2432 1267.46 60.5277 1267.46 61.0114V61.2864H1266.94V60.9924C1266.94 60.7932 1266.84 60.6984 1266.66 60.6984C1266.5 60.6984 1266.4 60.7932 1266.4 60.9829V61.0493C1266.4 61.239 1266.5 61.3528 1266.66 61.514L1267.03 61.8743C1267.35 62.1873 1267.49 62.3769 1267.49 62.7563V62.9175C1267.49 63.3822 1267.24 63.7141 1266.66 63.7141C1266.09 63.7141 1265.86 63.3916 1265.86 62.9459" fill="white"/>
<path d="M1267.52 60.2812H1269.02V60.7459H1268.56V63.6667H1267.98V60.7459H1267.52V60.2812Z" fill="white"/>
<path d="M1269.72 62.1209V63.6761H1269.15V60.2906H1269.98C1270.55 60.2906 1270.77 60.5751 1270.77 61.0493V61.4855C1270.77 61.8459 1270.64 62.064 1270.31 62.1398L1270.85 63.6761H1270.26L1269.72 62.1209H1269.72ZM1269.72 60.7458V61.7984H1269.91C1270.1 61.7984 1270.18 61.7036 1270.18 61.5139V61.0113C1270.18 60.8312 1270.09 60.7363 1269.91 60.7363H1269.72V60.7458Z" fill="white"/>
<path d="M1271.95 62.377V63.6667H1271.39V62.377L1270.75 60.2812H1271.35L1271.69 61.5709H1271.7L1272.04 60.2812H1272.59L1271.95 62.377Z" fill="white"/>
<path d="M1272.39 63.1262L1272.32 63.9322H1272.64L1272.93 63.1736V63.1262H1272.39Z" fill="white"/>
<path d="M1274.06 60.2812H1273.49V63.6667H1274.06V60.2812Z" fill="white"/>
<path d="M1274.72 61.5425V63.6667H1274.24V60.2812H1274.8L1275.42 62.2252V60.2812H1275.89V63.6667H1275.4L1274.72 61.5425Z" fill="white"/>
<path d="M1276.55 61.5425V63.6667H1276.07V60.2812H1276.63L1277.25 62.2252V60.2812H1277.72V63.6667H1277.22L1276.55 61.5425Z" fill="white"/>
<path d="M1277.9 62.7942V61.1536C1277.9 60.6226 1278.15 60.2432 1278.76 60.2432C1279.37 60.2432 1279.62 60.632 1279.62 61.1536V62.7942C1279.62 63.3158 1279.37 63.7046 1278.76 63.7046C1278.15 63.7046 1277.9 63.3158 1277.9 62.7942ZM1279.05 62.889V61.0683C1279.05 60.8596 1278.96 60.7174 1278.75 60.7174C1278.54 60.7174 1278.46 60.8596 1278.46 61.0683V62.889C1278.46 63.0977 1278.55 63.2399 1278.75 63.2399C1278.95 63.2399 1279.05 63.0977 1279.05 62.889Z" fill="white"/>
<path d="M1281.52 60.2812L1280.88 63.6667H1280.26L1279.62 60.2812H1280.2L1280.58 62.6425H1280.59L1280.99 60.2812H1281.52Z" fill="white"/>
<path d="M1281.23 63.6667L1281.86 60.2812H1282.51L1283.15 63.6667H1282.57L1282.46 63.0503H1281.85L1281.75 63.6667H1281.21H1281.23ZM1281.94 62.5951H1282.39L1282.17 61.239L1281.94 62.5951Z" fill="white"/>
<path d="M1282.94 60.2812H1284.44V60.7459H1283.98V63.6667H1283.4V60.7459H1282.94V60.2812Z" fill="white"/>
<path d="M1285.13 60.2812H1284.56V63.6667H1285.13V60.2812Z" fill="white"/>
<path d="M1285.32 62.7942V61.1536C1285.32 60.6226 1285.57 60.2432 1286.17 60.2432C1286.77 60.2432 1287.03 60.632 1287.03 61.1536V62.7942C1287.03 63.3158 1286.78 63.7046 1286.17 63.7046C1285.56 63.7046 1285.32 63.3158 1285.32 62.7942ZM1286.47 62.889V61.0683C1286.47 60.8596 1286.39 60.7174 1286.18 60.7174C1285.97 60.7174 1285.89 60.8596 1285.89 61.0683V62.889C1285.89 63.0977 1285.99 63.2399 1286.18 63.2399C1286.37 63.2399 1286.47 63.0977 1286.47 62.889Z" fill="white"/>
<path d="M1287.7 61.5425V63.6667H1287.22V60.2812H1287.78L1288.4 62.2252V60.2812H1288.87V63.6667H1288.37L1287.7 61.5425Z" fill="white"/>
<path d="M1259.5 68.4177L1260.14 65.0322H1260.78L1261.43 68.4177H1260.84L1260.73 67.8013H1260.13L1260.02 68.4177H1259.48H1259.5ZM1260.22 67.3366H1260.68L1260.45 65.9805L1260.22 67.3366Z" fill="white"/>
<path d="M1262.01 66.284V68.4177H1261.53V65.0322H1262.09L1262.7 66.9668V65.0322H1263.18V68.4177H1262.68L1262.01 66.284Z" fill="white"/>
<path d="M1265.06 65.9332V67.4979C1265.06 68.0194 1264.84 68.4083 1264.23 68.4083H1263.35V65.0228H1264.23C1264.84 65.0228 1265.06 65.4116 1265.06 65.9332ZM1264.17 67.9531C1264.4 67.9531 1264.49 67.8108 1264.49 67.6117V65.8383C1264.49 65.6392 1264.39 65.4969 1264.17 65.4969H1263.93V67.9531H1264.17Z" fill="white"/>
<path d="M1266.52 65.0228H1265.95V68.4083H1266.52V65.0228Z" fill="white"/>
<path d="M1267.18 66.284V68.4177H1266.7V65.0322H1267.26L1267.88 66.9668V65.0322H1268.35V68.4177H1267.86L1267.18 66.284Z" fill="white"/>
<path d="M1268.53 65.0228H1269.87V65.4874H1269.1V66.4642H1269.67V66.9194H1269.1V68.4177H1268.53V65.0228Z" fill="white"/>
<path d="M1270.54 66.8625V68.4177H1269.97V65.0322H1270.81C1271.38 65.0322 1271.59 65.3167 1271.59 65.7909V66.2271C1271.59 66.5875 1271.46 66.8056 1271.14 66.8814L1271.68 68.4177H1271.08L1270.55 66.8625H1270.54ZM1270.54 65.4874V66.5401H1270.73C1270.93 66.5401 1271.01 66.4452 1271.01 66.265V65.7624C1271.01 65.5822 1270.92 65.4874 1270.73 65.4874H1270.54Z" fill="white"/>
<path d="M1271.66 68.4177L1272.29 65.0322H1272.94L1273.58 68.4177H1273L1272.89 67.8013H1272.29L1272.18 68.4177H1271.64H1271.66ZM1272.37 67.3366H1272.83L1272.6 65.9805L1272.37 67.3366Z" fill="white"/>
<path d="M1273.61 67.6875V67.2323H1274.14V67.697C1274.14 67.8867 1274.22 68.0005 1274.41 68.0005C1274.59 68.0005 1274.67 67.8772 1274.67 67.697V67.5642C1274.67 67.3651 1274.59 67.2513 1274.41 67.0806L1274.08 66.7487C1273.76 66.4263 1273.61 66.2366 1273.61 65.8478V65.734C1273.61 65.3167 1273.85 64.9943 1274.4 64.9943C1274.95 64.9943 1275.2 65.2693 1275.2 65.7624V66.0374H1274.68V65.7435C1274.68 65.5443 1274.58 65.4495 1274.4 65.4495C1274.24 65.4495 1274.14 65.5348 1274.14 65.7245V65.7909C1274.14 65.9805 1274.24 66.0943 1274.4 66.2461L1274.77 66.6064C1275.08 66.9194 1275.23 67.109 1275.23 67.4884V67.6496C1275.23 68.1143 1274.98 68.4462 1274.4 68.4462C1273.82 68.4462 1273.6 68.1237 1273.6 67.678" fill="white"/>
<path d="M1275.25 65.0228H1276.76V65.4874H1276.3V68.4177H1275.72V65.4874H1275.25V65.0228Z" fill="white"/>
<path d="M1277.45 66.8625V68.4177H1276.88V65.0322H1277.72C1278.29 65.0322 1278.51 65.3167 1278.51 65.7909V66.2271C1278.51 66.5875 1278.37 66.8056 1278.05 66.8814L1278.59 68.4177H1277.99L1277.46 66.8625H1277.45ZM1277.45 65.4874V66.5401H1277.64C1277.84 66.5401 1277.92 66.4452 1277.92 66.265V65.7624C1277.92 65.5822 1277.83 65.4874 1277.64 65.4874H1277.45Z" fill="white"/>
<path d="M1280.32 65.0228V67.5832C1280.32 68.1048 1280.09 68.4462 1279.51 68.4462C1278.93 68.4462 1278.67 68.1048 1278.67 67.5832V65.0228H1279.24V67.6401C1279.24 67.8393 1279.31 67.972 1279.51 67.972C1279.71 67.972 1279.8 67.8393 1279.8 67.6401V65.0228H1280.32Z" fill="white"/>
<path d="M1280.49 67.5358V65.8952C1280.49 65.3641 1280.73 64.9848 1281.34 64.9848C1281.97 64.9848 1282.15 65.3357 1282.15 65.8288V66.2271H1281.63V65.7814C1281.63 65.5728 1281.56 65.4495 1281.35 65.4495C1281.14 65.4495 1281.06 65.5917 1281.06 65.8004V67.6211C1281.06 67.8298 1281.14 67.972 1281.35 67.972C1281.56 67.972 1281.63 67.8392 1281.63 67.6401V67.0142H1282.15V67.6022C1282.15 68.0858 1281.95 68.4462 1281.34 68.4462C1280.73 68.4462 1280.49 68.0573 1280.49 67.5358Z" fill="white"/>
<path d="M1282.2 65.0228H1283.71V65.4874H1283.24V68.4177H1282.67V65.4874H1282.2V65.0228Z" fill="white"/>
<path d="M1285.49 65.0228V67.5832C1285.49 68.1048 1285.26 68.4462 1284.68 68.4462C1284.1 68.4462 1283.84 68.1048 1283.84 67.5832V65.0228H1284.4V67.6401C1284.4 67.8393 1284.48 67.972 1284.68 67.972C1284.88 67.972 1284.96 67.8393 1284.96 67.6401V65.0228H1285.49Z" fill="white"/>
<path d="M1286.23 66.8625V68.4177H1285.66V65.0322H1286.49C1287.06 65.0322 1287.28 65.3167 1287.28 65.7909V66.2271C1287.28 66.5875 1287.15 66.8056 1286.82 66.8814L1287.36 68.4177H1286.77L1286.23 66.8625H1286.23ZM1286.23 65.4874V66.5401H1286.41C1286.61 66.5401 1286.69 66.4452 1286.69 66.265V65.7624C1286.69 65.5822 1286.6 65.4874 1286.41 65.4874H1286.23Z" fill="white"/>
<path d="M1287.44 65.0228H1288.8V65.4874H1288.01V66.4642H1288.57V66.9194H1288.01V67.9531H1288.8V68.4177H1287.44V65.0228Z" fill="white"/>
<path d="M1340 57H1300V97H1340V57Z" fill="#18476B"/>
<path d="M1330.21 81.2769C1330.21 78.4509 1327.97 76.1465 1325.17 76.0517C1324.45 74.0223 1322.51 72.5619 1320.24 72.5619C1317.96 72.5619 1316.03 74.0223 1315.31 76.0517C1312.51 76.156 1310.27 78.4604 1310.27 81.2769C1310.27 82.9554 1311.06 84.4443 1312.29 85.4021C1312.16 85.8667 1312.08 86.3504 1312.08 86.853C1312.08 89.7359 1314.42 92.0877 1317.32 92.0877C1318.41 92.0877 1319.43 91.7463 1320.26 91.1773C1321.1 91.7368 1322.1 92.0593 1323.17 92.0593C1326.05 92.0593 1328.4 89.7169 1328.4 86.8245C1328.4 86.3314 1328.33 85.8573 1328.2 85.4021C1329.43 84.4443 1330.21 82.9554 1330.21 81.2864M1324.42 77.7871C1324.42 79.8829 1322.86 81.6183 1320.85 81.9123C1320.82 81.7036 1320.8 81.4855 1320.8 81.2674C1320.8 79.1716 1322.35 77.4362 1324.36 77.1422C1324.39 77.3509 1324.42 77.569 1324.42 77.7871ZM1320.26 89.8117C1319.48 89.0531 1318.98 87.991 1318.98 86.8151C1318.98 85.6391 1319.46 84.615 1320.22 83.8563C1320.99 84.615 1321.49 85.6771 1321.49 86.853C1321.49 88.0289 1321.01 89.0531 1320.26 89.8117ZM1316.11 77.1517C1318.12 77.4552 1319.68 79.1811 1319.68 81.2769C1319.68 81.495 1319.66 81.7131 1319.62 81.9217C1317.61 81.6183 1316.05 79.8923 1316.05 77.7966C1316.05 77.5785 1316.07 77.3603 1316.11 77.1517ZM1319.22 83.1451C1318.54 84.5106 1317.12 85.459 1315.49 85.459C1314.79 85.459 1314.14 85.2883 1313.57 84.9848C1314.26 83.6192 1315.67 82.6709 1317.31 82.6709C1318 82.6709 1318.65 82.8416 1319.22 83.1451ZM1321.23 83.1166C1321.81 82.8132 1322.46 82.633 1323.17 82.633C1324.81 82.633 1326.23 83.5908 1326.91 84.9753C1326.33 85.2788 1325.68 85.4495 1324.98 85.4495C1323.34 85.4495 1321.91 84.4917 1321.23 83.1071M1320.24 73.6145C1321.95 73.6145 1323.42 74.6482 1324.07 76.1275C1322.37 76.431 1320.95 77.55 1320.24 79.0673C1319.53 77.55 1318.1 76.431 1316.41 76.1275C1317.05 74.6482 1318.52 73.6145 1320.24 73.6145ZM1311.31 81.2769C1311.31 79.1242 1312.95 77.3414 1315.04 77.1233C1315.01 77.3414 1314.99 77.569 1314.99 77.7871C1314.99 79.3139 1315.66 80.6984 1316.7 81.6562C1314.96 81.8554 1313.48 82.8985 1312.69 84.3779C1311.84 83.6097 1311.3 82.5097 1311.3 81.2769M1313.12 86.853C1313.12 86.559 1313.15 86.265 1313.22 85.99C1313.91 86.3219 1314.68 86.5116 1315.49 86.5116C1316.41 86.5116 1317.27 86.2745 1318.02 85.8573C1317.96 86.1702 1317.92 86.4926 1317.92 86.8245C1317.92 88.2375 1318.49 89.5178 1319.4 90.4661C1318.79 90.8264 1318.06 91.0446 1317.3 91.0446C1314.99 91.0446 1313.11 89.1669 1313.11 86.8625M1327.34 86.8245C1327.34 89.129 1325.46 91.0066 1323.16 91.0066C1322.41 91.0066 1321.71 90.8075 1321.1 90.4566C1321.99 89.5178 1322.54 88.2565 1322.54 86.8625C1322.54 86.5211 1322.5 86.1892 1322.45 85.8573C1323.2 86.2745 1324.06 86.5116 1324.98 86.5116C1325.79 86.5116 1326.57 86.3219 1327.26 85.99C1327.32 86.265 1327.35 86.54 1327.35 86.8245M1323.79 81.6278C1324.83 80.67 1325.47 79.3044 1325.47 77.7966C1325.47 77.569 1325.45 77.3509 1325.42 77.1327C1327.52 77.3603 1329.16 79.1337 1329.16 81.2864C1329.16 82.5097 1328.63 83.6097 1327.78 84.3779C1327 82.8985 1325.53 81.8459 1323.79 81.6372" fill="white"/>
<path d="M1305.92 60.2717V68.3798H1304.56V62.1778H1304.54L1303.59 63.1641H1303.57V61.7416L1304.84 60.2717H1305.92Z" fill="white"/>
<path d="M1306.54 60.2717H1309.96V61.533L1308.18 68.3798H1306.83L1308.65 61.3907H1306.54V60.2717Z" fill="white"/>
<path d="M1312.96 60.2432H1313.81C1314.39 60.2432 1314.59 60.5277 1314.59 61.0019V61.7131C1314.59 62.1873 1314.39 62.4813 1313.81 62.4813H1313.53V63.6287H1312.96V60.2432ZM1313.53 60.7079V62.045H1313.74C1313.94 62.045 1314.02 61.9502 1314.02 61.77V60.9924C1314.02 60.8122 1313.93 60.7174 1313.74 60.7174H1313.53V60.7079Z" fill="white"/>
<path d="M1314.59 63.6287L1315.23 60.2432H1315.87L1316.52 63.6287H1315.93L1315.83 63.0123H1315.22L1315.11 63.6287H1314.57H1314.59ZM1315.3 62.5571H1315.76L1315.53 61.201L1315.3 62.5571Z" fill="white"/>
<path d="M1317.33 62.0735V63.6287H1316.77V60.2432H1317.59C1318.16 60.2432 1318.38 60.5277 1318.38 61.0019V61.4381C1318.38 61.7985 1318.25 62.0166 1317.92 62.0924L1318.46 63.6287H1317.87L1317.33 62.0735ZM1317.33 60.7079V61.7605H1317.52C1317.72 61.7605 1317.8 61.6657 1317.8 61.4855V60.9829C1317.8 60.8027 1317.71 60.7079 1317.52 60.7079H1317.33Z" fill="white"/>
<path d="M1318.57 60.2432H1320.09V60.7079H1319.61V63.6287H1319.04V60.7079H1318.57V60.2432Z" fill="white"/>
<path d="M1320.83 61.5045V63.6287H1320.35V60.2432H1320.91L1321.52 62.1873V60.2432H1321.99V63.6287H1321.5L1320.83 61.5045Z" fill="white"/>
<path d="M1322.32 60.2432H1323.68V60.7079H1322.89V61.6752H1323.45V62.1399H1322.89V63.164H1323.68V63.6287H1322.32V60.2432Z" fill="white"/>
<path d="M1324.55 62.0735V63.6287H1323.98V60.2432H1324.81C1325.38 60.2432 1325.59 60.5277 1325.59 61.0019V61.4381C1325.59 61.7985 1325.46 62.0166 1325.14 62.0924L1325.68 63.6287H1325.08L1324.55 62.0735ZM1324.55 60.7079V61.7605H1324.74C1324.94 61.7605 1325.02 61.6657 1325.02 61.4855V60.9829C1325.02 60.8027 1324.93 60.7079 1324.74 60.7079H1324.55Z" fill="white"/>
<path d="M1325.85 62.8985V62.4433H1326.38V62.908C1326.38 63.0977 1326.47 63.2115 1326.66 63.2115C1326.84 63.2115 1326.91 63.0882 1326.91 62.908V62.7753C1326.91 62.5761 1326.83 62.4623 1326.66 62.2916L1326.33 61.9597C1326 61.6373 1325.85 61.4476 1325.85 61.0588V60.945C1325.85 60.5277 1326.1 60.2053 1326.65 60.2053C1327.2 60.2053 1327.44 60.4898 1327.44 60.9735V61.2485H1326.92V60.9545C1326.92 60.7648 1326.83 60.6605 1326.66 60.6605C1326.5 60.6605 1326.38 60.7553 1326.38 60.945V61.0114C1326.38 61.2011 1326.49 61.3149 1326.66 61.4666L1327.02 61.8269C1327.33 62.1399 1327.47 62.3296 1327.47 62.7089V62.8701C1327.47 63.3348 1327.23 63.6667 1326.65 63.6667C1326.07 63.6667 1325.84 63.3443 1325.84 62.8985" fill="white"/>
<path d="M1328.91 62.1399H1328.36V63.6287H1327.79V60.2432H1328.36V61.6752H1328.91V60.2432H1329.48V63.6287H1328.91V62.1399Z" fill="white"/>
<path d="M1330.37 60.2432H1329.8V63.6287H1330.37V60.2432Z" fill="white"/>
<path d="M1330.7 60.2432H1331.54C1332.12 60.2432 1332.33 60.5277 1332.33 61.0019V61.7131C1332.33 62.1873 1332.12 62.4813 1331.54 62.4813H1331.26V63.6287H1330.7V60.2432ZM1331.26 60.7079V62.045H1331.47C1331.67 62.045 1331.75 61.9502 1331.75 61.77V60.9924C1331.75 60.8122 1331.66 60.7174 1331.47 60.7174H1331.26V60.7079Z" fill="white"/>
<path d="M1332.59 62.8985V62.4433H1333.12V62.908C1333.12 63.0977 1333.21 63.2115 1333.4 63.2115C1333.58 63.2115 1333.66 63.0882 1333.66 62.908V62.7753C1333.66 62.5761 1333.57 62.4623 1333.4 62.2916L1333.07 61.9597C1332.75 61.6373 1332.59 61.4476 1332.59 61.0588V60.945C1332.59 60.5277 1332.84 60.2053 1333.39 60.2053C1333.94 60.2053 1334.19 60.4898 1334.19 60.9735V61.2485H1333.67V60.9545C1333.67 60.7648 1333.57 60.6605 1333.4 60.6605C1333.24 60.6605 1333.12 60.7553 1333.12 60.945V61.0114C1333.12 61.2011 1333.23 61.3149 1333.4 61.4666L1333.76 61.8269C1334.07 62.1399 1334.22 62.3296 1334.22 62.7089V62.8701C1334.22 63.3348 1333.97 63.6667 1333.39 63.6667C1332.81 63.6667 1332.58 63.3443 1332.58 62.8985" fill="white"/>
<path d="M1312.96 64.9848H1314.29V65.4495H1313.53V66.4168H1314.1V66.8814H1313.53V68.3703H1312.96V64.9848Z" fill="white"/>
<path d="M1314.5 67.4979V65.8573C1314.5 65.3262 1314.75 64.9469 1315.35 64.9469C1315.95 64.9469 1316.21 65.3357 1316.21 65.8573V67.4979C1316.21 68.0194 1315.96 68.4083 1315.35 68.4083C1314.74 68.4083 1314.5 68.0194 1314.5 67.4979ZM1315.65 67.5927V65.7719C1315.65 65.5633 1315.56 65.4211 1315.35 65.4211C1315.14 65.4211 1315.07 65.5633 1315.07 65.7719V67.5927C1315.07 67.8013 1315.16 67.9436 1315.35 67.9436C1315.54 67.9436 1315.65 67.8013 1315.65 67.5927Z" fill="white"/>
<path d="M1317.11 66.8245V68.3798H1316.54V64.9943H1317.36C1317.93 64.9943 1318.15 65.2788 1318.15 65.7529V66.1892C1318.15 66.5495 1318.02 66.7676 1317.7 66.8435L1318.24 68.3798H1317.64L1317.11 66.8245ZM1317.11 65.4495V66.5021H1317.3C1317.5 66.5021 1317.57 66.4073 1317.57 66.2271V65.7245C1317.57 65.5443 1317.49 65.4495 1317.3 65.4495H1317.11Z" fill="white"/>
<path d="M1319.26 64.9848H1320.77V65.4495H1320.3V68.3703H1319.73V65.4495H1319.26V64.9848Z" fill="white"/>
<path d="M1322.15 66.8814H1321.6V68.3703H1321.03V64.9848H1321.6V66.4168H1322.15V64.9848H1322.73V68.3703H1322.15V66.8814Z" fill="white"/>
<path d="M1323.05 64.9848H1324.41V65.4495H1323.62V66.4168H1324.18V66.8814H1323.62V67.9056H1324.41V68.3703H1323.05V64.9848Z" fill="white"/>
<path d="M1326.43 66.5685H1327.24V68.3798H1326.83V68.01C1326.75 68.266 1326.59 68.4177 1326.29 68.4177C1325.79 68.4177 1325.58 68.0289 1325.58 67.5074V65.8668C1325.58 65.3357 1325.83 64.9564 1326.43 64.9564C1327.06 64.9564 1327.25 65.3073 1327.25 65.8099V66.1133H1326.72V65.7719C1326.72 65.5633 1326.65 65.44 1326.44 65.44C1326.23 65.44 1326.15 65.5823 1326.15 65.7909V67.6117C1326.15 67.8203 1326.23 67.9626 1326.42 67.9626C1326.61 67.9626 1326.7 67.8582 1326.7 67.6401V67.0427H1326.43V66.597V66.5685Z" fill="white"/>
<path d="M1327.57 67.4979V65.8573C1327.57 65.3262 1327.82 64.9469 1328.43 64.9469C1329.04 64.9469 1329.29 65.3357 1329.29 65.8573V67.4979C1329.29 68.0194 1329.04 68.4083 1328.43 68.4083C1327.82 68.4083 1327.57 68.0194 1327.57 67.4979ZM1328.72 67.5927V65.7719C1328.72 65.5633 1328.63 65.4211 1328.42 65.4211C1328.21 65.4211 1328.13 65.5633 1328.13 65.7719V67.5927C1328.13 67.8013 1328.22 67.9436 1328.42 67.9436C1328.62 67.9436 1328.72 67.8013 1328.72 67.5927Z" fill="white"/>
<path d="M1329.44 68.3703L1330.08 64.9848H1330.72L1331.37 68.3703H1330.78L1330.68 67.7539H1330.07L1329.97 68.3703H1329.43H1329.44ZM1330.16 67.2987H1330.61L1330.38 65.9426L1330.16 67.2987Z" fill="white"/>
<path d="M1331.62 64.9848H1332.19V67.9056H1332.86V68.3703H1331.62V64.9848Z" fill="white"/>
<path d="M1333.07 67.6401V67.1849H1333.6V67.6496C1333.6 67.8393 1333.68 67.9531 1333.87 67.9531C1334.05 67.9531 1334.13 67.8298 1334.13 67.6496V67.5168C1334.13 67.3177 1334.04 67.2039 1333.87 67.0332L1333.54 66.7013C1333.22 66.3789 1333.07 66.1892 1333.07 65.8004V65.6866C1333.07 65.2693 1333.31 64.9469 1333.86 64.9469C1334.41 64.9469 1334.66 65.2219 1334.66 65.715V65.99H1334.14V65.6961C1334.14 65.4969 1334.04 65.4021 1333.87 65.4021C1333.71 65.4021 1333.6 65.4874 1333.6 65.6771V65.7435C1333.6 65.9331 1333.7 66.0469 1333.87 66.1987L1334.23 66.559C1334.55 66.872 1334.69 67.0616 1334.69 67.441V67.6022C1334.69 68.0669 1334.44 68.3988 1333.86 68.3988C1333.29 68.3988 1333.06 68.0763 1333.06 67.6306" fill="white"/>
<text fill="white" xml:space="preserve" style="white-space: pre" font-family="VNM Sans Display" font-size="80" font-weight="bold" letter-spacing="0em"><tspan x="107.82" y="126.6">MARKET DEVELOPMENT</tspan></text>
<rect x="908" y="202" width="381" height="34" rx="8" fill="#D3E1FF"/>
<text fill="#3459FF" xml:space="preserve" style="white-space: pre" font-family="VNM Sans Std" font-size="20" font-weight="bold" letter-spacing="0em"><tspan x="928.168" y="226">Contributing to national development</tspan></text>
<g clip-path="url(#clip0_316_19027)">
<rect x="833" y="265" width="507" height="358" rx="8" fill="#3459FF"/>
<rect x="836" y="268" width="501" height="352" rx="5" stroke="#0213B0" stroke-width="6"/>
<text fill="#FFFFF1" xml:space="preserve" style="white-space: pre" font-family="VNM Sans Display" font-size="60" font-weight="bold" letter-spacing="0em"><tspan x="911" y="353">TOP </tspan></text>
<text fill="#FFFFF1" xml:space="preserve" style="white-space: pre" font-family="VNM Sans Display" font-size="60" font-weight="bold" letter-spacing="0em"><tspan x="987.307" y="353" data-counter data-delay="600" data-from="0" data-to="17" data-ori="17">17</tspan></text>
<text fill="#FFFFF1" xml:space="preserve" style="white-space: pre" font-family="VNM Sans Std" font-size="16" letter-spacing="0em"><tspan x="887.055" y="375.536">Highest Contributors of&#10;</tspan><tspan x="886.555" y="393.536">Corporate Income Tax in&#10;</tspan><tspan x="914.094" y="411.536">Vietnam in 2022</tspan></text>
<text fill="#FFFFF1" xml:space="preserve" style="white-space: pre" font-family="VNM Sans Display" font-size="24" font-weight="bold" letter-spacing="0em"><tspan x="879.715" y="508.3">NO LAW-RELATED FINES IN&#10;</tspan><tspan x="915.797" y="533.3">ECONOMIC AND&#10;</tspan><tspan x="924.492" y="558.3">SOCIAL AREA</tspan></text>
<line x1="1310" y1="445.5" x2="856" y2="445.5" stroke="#FFFFF1" stroke-width="3"/>
<line x1="1087.5" y1="294" x2="1087.5" y2="594" stroke="#FFFFF1" stroke-width="3"/>
<text fill="#FFFFF1" xml:space="preserve" style="white-space: pre" font-family="VNM Sans Std" font-size="16" letter-spacing="0em"><tspan x="1166.85" y="325.536">Revenue of</tspan></text>
<text fill="#FFFFF1" xml:space="preserve" style="white-space: pre" font-family="VNM Sans Display" font-size="26" letter-spacing="0em"><tspan x="1101.43" y="362.97">VND </tspan></text>
<text fill="#FFFFF1" xml:space="preserve" style="white-space: pre" font-family="VNM Sans Display" font-size="60" font-weight="bold" letter-spacing="0em"><tspan x="1134.27" y="375" data-counter data-delay="600" data-from="0" data-to="24286" data-ori="24,286">24,286</tspan></text>
<text fill="#FFFFF1" xml:space="preserve" style="white-space: pre" font-family="VNM Sans Display" font-size="26" letter-spacing="0em"><tspan x="1263.06" y="362.97">BILLION</tspan></text>
<text fill="#FFFFF1" xml:space="preserve" style="white-space: pre" font-family="VNM Sans Std" font-size="16" letter-spacing="0em"><tspan x="1127.59" y="393.536">from transactions with&#10;</tspan><tspan x="1141.21" y="411.536">domestic suppliers</tspan></text>
<text fill="#FFFFF1" xml:space="preserve" style="white-space: pre" font-family="VNM Sans Display" font-size="24" font-weight="bold" letter-spacing="0em"><tspan x="1141.7" y="495.8">NO VIOLATIONS ON&#10;</tspan><tspan x="1125.28" y="520.8">MONOPOLY, ANTITRUST&#10;</tspan><tspan x="1125.15" y="545.8">AND ANTI COMPETITIVE&#10;</tspan><tspan x="1166.32" y="570.8">BEHAVIORS</tspan></text>
</g>
<rect x="836" y="268" width="501" height="352" rx="5" stroke="#D3E1FF" stroke-width="6" stroke-linecap="square" stroke-dasharray="28 28"/>
<defs>
<clipPath id="clip0_316_19027">
<rect x="833" y="265" width="507" height="358" rx="8" fill="white"/>
</clipPath>
</defs>
</svg>
