<svg width="342" height="161" viewBox="0 0 342 161" fill="none" xmlns="http://www.w3.org/2000/svg">
<rect x="0.5" y="0.5" width="341" height="160" rx="7.5" fill="#4DD75A"/>
<rect x="0.5" y="0.5" width="341" height="160" rx="7.5" stroke="#0B4314"/>
<path d="M59.92 41C59.76 41 59.664 40.9307 59.632 40.792L56.96 31.592C56.8427 31.176 56.72 30.8667 56.592 30.664C56.4747 30.4507 56.3253 30.2427 56.144 30.04C56.112 30.008 56.096 29.9707 56.096 29.928C56.096 29.8427 56.144 29.8 56.24 29.8H59.488C59.584 29.8 59.648 29.8213 59.68 29.864C59.712 29.9067 59.7067 29.96 59.664 30.024C59.5147 30.2373 59.44 30.4773 59.44 30.744C59.44 30.8827 59.4773 31.1013 59.552 31.4L61.392 38.168C61.424 38.264 61.472 38.312 61.536 38.312C61.6213 38.312 61.6693 38.264 61.68 38.168L63.568 31.304C63.6213 31.1333 63.648 30.9467 63.648 30.744C63.648 30.4773 63.5733 30.2373 63.424 30.024C63.4027 29.9813 63.392 29.9493 63.392 29.928C63.392 29.8427 63.4613 29.8 63.6 29.8H66.704C66.8 29.8 66.848 29.8427 66.848 29.928C66.848 29.9707 66.832 30.008 66.8 30.04C66.6293 30.232 66.4853 30.4293 66.368 30.632C66.2507 30.8347 66.128 31.1547 66 31.592L63.328 40.792C63.296 40.9307 63.2 41 63.04 41H59.92ZM67.313 41C67.2703 41 67.233 40.984 67.201 40.952C67.169 40.92 67.153 40.8827 67.153 40.84V34.552C67.153 33.976 67.1263 33.5493 67.073 33.272C67.0303 32.9947 66.945 32.696 66.817 32.376L66.801 32.312C66.801 32.2373 66.849 32.2 66.945 32.2H69.457C69.4997 32.2 69.537 32.216 69.569 32.248C69.601 32.28 69.617 32.3173 69.617 32.36V40.84C69.617 40.8827 69.601 40.92 69.569 40.952C69.537 40.984 69.4997 41 69.457 41H67.313ZM68.369 31.8C67.9743 31.8 67.6437 31.7147 67.377 31.544C67.1103 31.3733 66.977 31.1227 66.977 30.792C66.977 30.4507 67.105 30.2 67.361 30.04C67.6277 29.88 67.9637 29.8 68.369 29.8C68.785 29.8 69.1263 29.88 69.393 30.04C69.6597 30.2 69.793 30.4507 69.793 30.792C69.793 31.1227 69.6543 31.3733 69.377 31.544C69.1103 31.7147 68.7743 31.8 68.369 31.8ZM70.8286 41C70.786 41 70.7486 40.984 70.7166 40.952C70.6846 40.92 70.6686 40.8827 70.6686 40.84V34.552C70.6686 33.976 70.642 33.5493 70.5886 33.272C70.546 32.9947 70.4606 32.696 70.3326 32.376L70.3166 32.312C70.3166 32.2373 70.3646 32.2 70.4606 32.2H72.8606C72.9033 32.2 72.9406 32.216 72.9726 32.248C73.0046 32.28 73.0206 32.3173 73.0206 32.36V33.304C73.0206 33.4 73.0473 33.448 73.1006 33.448C73.1433 33.448 73.1806 33.4107 73.2126 33.336C73.6606 32.472 74.4606 32.04 75.6126 32.04C76.562 32.04 77.2766 32.3173 77.7566 32.872C78.2366 33.4267 78.4766 34.1627 78.4766 35.08V40.84C78.4766 40.8827 78.4606 40.92 78.4286 40.952C78.3966 40.984 78.3593 41 78.3166 41H76.1726C76.13 41 76.0926 40.984 76.0606 40.952C76.0286 40.92 76.0126 40.8827 76.0126 40.84V35.304C76.0126 34.856 75.8953 34.52 75.6606 34.296C75.426 34.072 75.122 33.96 74.7486 33.96C74.226 33.96 73.826 34.1467 73.5486 34.52C73.2713 34.8933 73.1326 35.4267 73.1326 36.12V40.84C73.1326 40.8827 73.1166 40.92 73.0846 40.952C73.0526 40.984 73.0153 41 72.9726 41H70.8286ZM81.9295 41.16C81.0975 41.16 80.4308 40.9413 79.9295 40.504C79.4388 40.056 79.1935 39.4213 79.1935 38.6C79.1935 37.864 79.4122 37.288 79.8495 36.872C80.2975 36.456 81.0122 36.1573 81.9935 35.976L83.3855 35.72C83.7055 35.656 83.9242 35.5707 84.0415 35.464C84.1695 35.3467 84.2335 35.2027 84.2335 35.032C84.2335 34.744 84.1055 34.5147 83.8495 34.344C83.6042 34.1627 83.2415 34.072 82.7615 34.072C82.1428 34.072 81.6095 34.2267 81.1615 34.536C80.7135 34.8347 80.2975 35.224 79.9135 35.704C79.8708 35.768 79.8228 35.8 79.7695 35.8C79.7162 35.8 79.6895 35.752 79.6895 35.656V33.912C79.6895 33.3147 80.0202 32.856 80.6815 32.536C81.3535 32.2053 82.1695 32.04 83.1295 32.04C84.3562 32.04 85.2415 32.3067 85.7855 32.84C86.3295 33.3627 86.6015 34.04 86.6015 34.872V40.84C86.6015 40.8827 86.5855 40.92 86.5535 40.952C86.5215 40.984 86.4895 41 86.4575 41H84.4255C84.3935 41 84.3562 40.984 84.3135 40.952C84.2815 40.92 84.2655 40.8827 84.2655 40.84V40.04C84.2655 39.9973 84.2495 39.976 84.2175 39.976C84.1748 39.976 84.1375 40.0027 84.1055 40.056C83.8602 40.4507 83.5562 40.7333 83.1935 40.904C82.8415 41.0747 82.4202 41.16 81.9295 41.16ZM82.8255 39.416C83.2628 39.416 83.6042 39.272 83.8495 38.984C84.1055 38.696 84.2335 38.3067 84.2335 37.816V37.192C84.2335 37.064 84.1695 37.0107 84.0415 37.032L83.0495 37.208C82.1428 37.3787 81.6895 37.7627 81.6895 38.36C81.6895 38.7013 81.7908 38.9627 81.9935 39.144C82.1962 39.3253 82.4735 39.416 82.8255 39.416ZM87.7974 41C87.6907 41 87.6374 40.9467 87.6374 40.84V34.552C87.6374 33.976 87.6107 33.5493 87.5574 33.272C87.5147 32.9947 87.4294 32.696 87.3014 32.376L87.2854 32.312C87.2854 32.2373 87.3334 32.2 87.4294 32.2H89.8134C89.8667 32.2 89.9094 32.216 89.9414 32.248C89.9734 32.28 89.9894 32.3173 89.9894 32.36V33.304C89.9894 33.4 90.016 33.448 90.0694 33.448C90.112 33.448 90.1494 33.4107 90.1814 33.336C90.64 32.472 91.3707 32.04 92.3734 32.04C92.9494 32.04 93.4507 32.1787 93.8774 32.456C94.304 32.7333 94.6187 33.1173 94.8214 33.608C94.8427 33.672 94.8694 33.704 94.9014 33.704C94.944 33.704 94.976 33.6773 94.9974 33.624C95.2427 33.1333 95.536 32.7493 95.8774 32.472C96.2294 32.184 96.7254 32.04 97.3654 32.04C97.9094 32.04 98.384 32.168 98.7894 32.424C99.1947 32.6693 99.504 33.0107 99.7174 33.448C99.9414 33.8853 100.053 34.376 100.053 34.92V40.84C100.053 40.9467 100 41 99.8934 41H97.7654C97.712 41 97.6694 40.984 97.6374 40.952C97.6054 40.92 97.5894 40.8827 97.5894 40.84V35.16C97.5894 34.36 97.248 33.96 96.5654 33.96C96.128 33.96 95.7707 34.1413 95.4934 34.504C95.216 34.856 95.0774 35.4053 95.0774 36.152V40.84C95.0774 40.9467 95.024 41 94.9174 41H92.7734C92.6667 41 92.6134 40.9467 92.6134 40.84V35.16C92.6134 34.36 92.272 33.96 91.5894 33.96C91.152 33.96 90.7947 34.1413 90.5174 34.504C90.24 34.856 90.1014 35.4053 90.1014 36.152V40.84C90.1014 40.8827 90.0854 40.92 90.0534 40.952C90.0214 40.984 89.9787 41 89.9254 41H87.7974ZM101.204 41C101.161 41 101.124 40.984 101.092 40.952C101.06 40.92 101.044 40.8827 101.044 40.84V34.552C101.044 33.976 101.017 33.5493 100.964 33.272C100.921 32.9947 100.836 32.696 100.708 32.376L100.692 32.312C100.692 32.2373 100.74 32.2 100.836 32.2H103.348C103.39 32.2 103.428 32.216 103.46 32.248C103.492 32.28 103.508 32.3173 103.508 32.36V40.84C103.508 40.8827 103.492 40.92 103.46 40.952C103.428 40.984 103.39 41 103.348 41H101.204ZM102.26 31.8C101.865 31.8 101.534 31.7147 101.268 31.544C101.001 31.3733 100.868 31.1227 100.868 30.792C100.868 30.4507 100.996 30.2 101.252 30.04C101.518 29.88 101.854 29.8 102.26 29.8C102.676 29.8 103.017 29.88 103.284 30.04C103.55 30.2 103.684 30.4507 103.684 30.792C103.684 31.1227 103.545 31.3733 103.268 31.544C103.001 31.7147 102.665 31.8 102.26 31.8ZM104.719 41C104.613 41 104.559 40.9467 104.559 40.84V32.152C104.559 31.576 104.533 31.1493 104.479 30.872C104.437 30.5947 104.351 30.296 104.223 29.976L104.207 29.912C104.207 29.8373 104.255 29.8 104.351 29.8H106.863C106.97 29.8 107.023 29.8533 107.023 29.96V40.84C107.023 40.9467 106.97 41 106.863 41H104.719ZM108.235 41C108.128 41 108.075 40.9467 108.075 40.84V32.152C108.075 31.576 108.048 31.1493 107.995 30.872C107.952 30.5947 107.867 30.296 107.739 29.976L107.723 29.912C107.723 29.8373 107.771 29.8 107.867 29.8H110.379C110.486 29.8 110.539 29.8533 110.539 29.96V36.024C110.539 36.1093 110.566 36.152 110.619 36.152C110.672 36.152 110.71 36.1253 110.731 36.072L112.747 33.144C112.854 32.9733 112.907 32.8133 112.907 32.664C112.907 32.568 112.891 32.488 112.859 32.424C112.848 32.4027 112.843 32.376 112.843 32.344C112.843 32.248 112.886 32.2 112.971 32.2H115.979C116.064 32.2 116.107 32.2373 116.107 32.312C116.107 32.3653 116.08 32.408 116.027 32.44C115.792 32.6 115.579 32.8293 115.387 33.128L113.451 35.976C113.334 36.1467 113.275 36.2853 113.275 36.392C113.275 36.5093 113.328 36.6427 113.435 36.792L116.091 40.808C116.112 40.8293 116.123 40.8613 116.123 40.904C116.123 40.968 116.075 41 115.979 41H113.371C113.286 41 113.222 40.9627 113.179 40.888L110.731 36.92C110.688 36.856 110.651 36.824 110.619 36.824C110.566 36.824 110.539 36.872 110.539 36.968V40.84C110.539 40.9467 110.486 41 110.379 41H108.235ZM117.42 33.736C117.164 33.736 116.961 33.6987 116.812 33.624C116.662 33.5387 116.588 33.4213 116.588 33.272V32.648C116.588 32.6053 116.598 32.5787 116.62 32.568C116.652 32.5467 116.684 32.5467 116.715 32.568C116.833 32.6533 116.945 32.7173 117.052 32.76C117.169 32.8027 117.318 32.824 117.5 32.824C117.745 32.824 117.942 32.7653 118.092 32.648C118.241 32.52 118.316 32.3653 118.316 32.184C118.316 32.12 118.3 32.0773 118.268 32.056C118.236 32.024 118.188 32.008 118.124 32.008H117.82C117.436 32.008 117.132 31.912 116.908 31.72C116.684 31.5173 116.572 31.2347 116.572 30.872C116.572 30.5307 116.678 30.2427 116.892 30.008C117.116 29.7627 117.436 29.64 117.852 29.64C118.342 29.64 118.716 29.8 118.972 30.12C119.228 30.44 119.356 30.8933 119.356 31.48C119.356 32.1947 119.18 32.7493 118.828 33.144C118.476 33.5387 118.006 33.736 117.42 33.736ZM122.83 41.16C121.742 41.16 120.932 41.0213 120.398 40.744C119.876 40.4667 119.614 40.0667 119.614 39.544V38.056C119.614 37.9493 119.652 37.896 119.726 37.896C119.769 37.896 119.817 37.9227 119.87 37.976C120.201 38.36 120.596 38.6853 121.054 38.952C121.513 39.2187 122.004 39.352 122.526 39.352C123.316 39.352 123.71 39.0533 123.71 38.456C123.71 38.232 123.636 38.0613 123.486 37.944C123.337 37.816 123.07 37.7093 122.686 37.624L121.79 37.416C121.054 37.2453 120.505 36.952 120.142 36.536C119.79 36.1093 119.614 35.5547 119.614 34.872C119.614 34.0187 119.934 33.336 120.574 32.824C121.225 32.3013 122.116 32.04 123.246 32.04C125.017 32.04 125.902 32.5893 125.902 33.688V35.016C125.902 35.1013 125.865 35.144 125.79 35.144C125.737 35.144 125.694 35.1173 125.662 35.064C125.385 34.6373 125.038 34.328 124.622 34.136C124.206 33.9333 123.769 33.832 123.31 33.832C122.916 33.832 122.612 33.912 122.398 34.072C122.185 34.2213 122.078 34.4293 122.078 34.696C122.078 34.9413 122.148 35.128 122.286 35.256C122.436 35.384 122.67 35.48 122.99 35.544L123.966 35.736C124.713 35.8853 125.273 36.168 125.646 36.584C126.03 36.9893 126.222 37.5227 126.222 38.184C126.222 39.0907 125.913 39.816 125.294 40.36C124.686 40.8933 123.865 41.16 122.83 41.16ZM129.867 41C129.76 41 129.707 40.9467 129.707 40.84V32.152C129.707 31.576 129.68 31.1493 129.627 30.872C129.584 30.5947 129.499 30.296 129.371 29.976L129.355 29.912C129.355 29.8373 129.403 29.8 129.499 29.8H132.683C132.779 29.8 132.843 29.8373 132.875 29.912L136.027 36.872C136.059 36.936 136.096 36.968 136.139 36.968C136.214 36.968 136.251 36.9147 136.251 36.808V32.152C136.251 31.576 136.224 31.1493 136.171 30.872C136.128 30.5947 136.043 30.296 135.915 29.976L135.899 29.912C135.899 29.8373 135.947 29.8 136.043 29.8H138.891C138.944 29.8 138.982 29.816 139.003 29.848C139.035 29.88 139.04 29.9227 139.019 29.976C138.891 30.296 138.8 30.5947 138.747 30.872C138.704 31.1493 138.683 31.576 138.683 32.152V40.84C138.683 40.9467 138.63 41 138.523 41H135.707C135.622 41 135.558 40.9627 135.515 40.888L132.347 33.912C132.326 33.8587 132.294 33.832 132.251 33.832C132.176 33.832 132.139 33.88 132.139 33.976V40.84C132.139 40.9467 132.086 41 131.979 41H129.867ZM143.58 42.92C142.95 42.92 142.358 42.8507 141.804 42.712C141.26 42.584 140.838 42.408 140.54 42.184C140.316 42.024 140.204 41.8 140.204 41.512V40.056C140.204 39.9493 140.246 39.896 140.332 39.896C140.374 39.896 140.422 39.9227 140.476 39.976C140.86 40.328 141.286 40.6 141.756 40.792C142.225 40.9733 142.78 41.064 143.42 41.064C144.092 41.064 144.63 40.888 145.036 40.536C145.452 40.184 145.66 39.72 145.66 39.144V38.952C145.66 38.888 145.633 38.856 145.58 38.856C145.537 38.856 145.5 38.8773 145.468 38.92C145.254 39.2293 144.961 39.496 144.588 39.72C144.214 39.9333 143.75 40.04 143.196 40.04C142.513 40.04 141.9 39.88 141.356 39.56C140.822 39.24 140.401 38.7813 140.092 38.184C139.793 37.576 139.644 36.8613 139.644 36.04C139.644 35.2187 139.793 34.5093 140.092 33.912C140.401 33.304 140.822 32.84 141.356 32.52C141.9 32.2 142.513 32.04 143.196 32.04C144.198 32.04 144.961 32.408 145.484 33.144C145.516 33.1973 145.553 33.224 145.596 33.224C145.628 33.224 145.654 33.2133 145.676 33.192C145.697 33.16 145.708 33.1227 145.708 33.08V32.36C145.708 32.2533 145.761 32.2 145.868 32.2H147.996C148.049 32.2 148.092 32.216 148.124 32.248C148.156 32.28 148.172 32.3173 148.172 32.36V38.68C148.172 40.088 147.761 41.144 146.94 41.848C146.118 42.5627 144.998 42.92 143.58 42.92ZM143.9 37.928C144.444 37.928 144.87 37.7573 145.18 37.416C145.5 37.064 145.66 36.6053 145.66 36.04C145.66 35.4533 145.5 34.9787 145.18 34.616C144.87 34.2533 144.444 34.072 143.9 34.072C143.356 34.072 142.924 34.2533 142.604 34.616C142.294 34.9787 142.14 35.4533 142.14 36.04C142.14 36.6053 142.294 37.064 142.604 37.416C142.924 37.7573 143.356 37.928 143.9 37.928ZM149.391 41C149.348 41 149.311 40.984 149.279 40.952C149.247 40.92 149.231 40.8827 149.231 40.84V32.152C149.231 31.576 149.204 31.1493 149.151 30.872C149.108 30.5947 149.023 30.296 148.895 29.976L148.879 29.912C148.879 29.8373 148.927 29.8 149.023 29.8H151.535C151.578 29.8 151.615 29.816 151.647 29.848C151.679 29.88 151.695 29.9173 151.695 29.96V33.24C151.695 33.2827 151.7 33.32 151.711 33.352C151.722 33.3733 151.738 33.384 151.759 33.384C151.802 33.384 151.844 33.3467 151.887 33.272C152.122 32.888 152.399 32.5893 152.719 32.376C153.05 32.152 153.535 32.04 154.175 32.04C155.124 32.04 155.839 32.3173 156.319 32.872C156.799 33.4267 157.039 34.1627 157.039 35.08V40.84C157.039 40.8827 157.023 40.92 156.991 40.952C156.959 40.984 156.922 41 156.879 41H154.735C154.692 41 154.655 40.984 154.623 40.952C154.591 40.92 154.575 40.8827 154.575 40.84V35.304C154.575 34.856 154.458 34.52 154.223 34.296C153.988 34.072 153.684 33.96 153.311 33.96C152.788 33.96 152.388 34.1467 152.111 34.52C151.834 34.8933 151.695 35.4267 151.695 36.12V40.84C151.695 40.8827 151.679 40.92 151.647 40.952C151.615 40.984 151.578 41 151.535 41H149.391ZM162.396 41.16C161.425 41.16 160.583 40.9787 159.868 40.616C159.153 40.2533 158.599 39.7307 158.204 39.048C157.82 38.3547 157.628 37.528 157.628 36.568C157.628 35.5973 157.825 34.7707 158.22 34.088C158.615 33.4053 159.137 32.8933 159.788 32.552C160.439 32.2107 161.143 32.04 161.9 32.04C163.127 32.04 164.087 32.3867 164.78 33.08C165.473 33.7627 165.82 34.712 165.82 35.928C165.82 36.1307 165.815 36.2853 165.804 36.392C165.783 36.7227 165.735 36.9627 165.66 37.112C165.596 37.2613 165.489 37.3627 165.34 37.416C165.201 37.4587 164.972 37.48 164.652 37.48H160.38C160.305 37.48 160.257 37.496 160.236 37.528C160.215 37.5493 160.209 37.5867 160.22 37.64C160.284 38.0667 160.524 38.4133 160.94 38.68C161.367 38.936 161.943 39.064 162.668 39.064C163.116 39.064 163.548 39.0107 163.964 38.904C164.391 38.7973 164.759 38.632 165.068 38.408C165.1 38.3867 165.137 38.376 165.18 38.376C165.244 38.376 165.276 38.4133 165.276 38.488V39.992C165.276 40.2053 165.244 40.3707 165.18 40.488C165.116 40.5947 164.993 40.6907 164.812 40.776C164.3 41.032 163.495 41.16 162.396 41.16ZM163.132 35.848C163.26 35.848 163.345 35.816 163.388 35.752C163.441 35.6773 163.468 35.5653 163.468 35.416C163.468 34.968 163.324 34.6213 163.036 34.376C162.748 34.12 162.364 33.992 161.884 33.992C161.404 33.992 161.009 34.1307 160.7 34.408C160.391 34.6853 160.236 35.032 160.236 35.448C160.236 35.7147 160.348 35.848 160.572 35.848H163.132ZM168.585 41C168.521 41 168.473 40.984 168.441 40.952C168.409 40.9093 168.404 40.8507 168.425 40.776L171.769 30.072C171.823 29.8907 171.94 29.8 172.121 29.8H175.129C175.311 29.8 175.428 29.8907 175.481 30.072L178.841 40.776C178.852 40.7973 178.857 40.824 178.857 40.856C178.857 40.952 178.799 41 178.681 41H176.361C176.255 41 176.185 40.9467 176.153 40.84L175.705 39.256C175.684 39.1707 175.625 39.128 175.529 39.128H171.561C171.465 39.128 171.407 39.1707 171.385 39.256L170.937 40.84C170.905 40.9467 170.836 41 170.729 41H168.585ZM174.921 37.08C174.975 37.08 175.012 37.064 175.033 37.032C175.065 37 175.076 36.9573 175.065 36.904L173.705 32.232C173.673 32.1147 173.62 32.056 173.545 32.056C173.471 32.056 173.417 32.1147 173.385 32.232L172.025 36.904L172.009 36.952C172.009 37.0373 172.063 37.08 172.169 37.08H174.921ZM179.547 41C179.505 41 179.467 40.984 179.435 40.952C179.403 40.92 179.387 40.8827 179.387 40.84V34.552C179.387 33.976 179.361 33.5493 179.307 33.272C179.265 32.9947 179.179 32.696 179.051 32.376L179.035 32.312C179.035 32.2373 179.083 32.2 179.179 32.2H181.579C181.622 32.2 181.659 32.216 181.691 32.248C181.723 32.28 181.739 32.3173 181.739 32.36V33.304C181.739 33.4 181.766 33.448 181.819 33.448C181.862 33.448 181.899 33.4107 181.931 33.336C182.379 32.472 183.179 32.04 184.331 32.04C185.281 32.04 185.995 32.3173 186.475 32.872C186.955 33.4267 187.195 34.1627 187.195 35.08V40.84C187.195 40.8827 187.179 40.92 187.147 40.952C187.115 40.984 187.078 41 187.035 41H184.891C184.849 41 184.811 40.984 184.779 40.952C184.747 40.92 184.731 40.8827 184.731 40.84V35.304C184.731 34.856 184.614 34.52 184.379 34.296C184.145 34.072 183.841 33.96 183.467 33.96C182.945 33.96 182.545 34.1467 182.267 34.52C181.99 34.8933 181.851 35.4267 181.851 36.12V40.84C181.851 40.8827 181.835 40.92 181.803 40.952C181.771 40.984 181.734 41 181.691 41H179.547ZM191.086 41C190.979 41 190.926 40.9467 190.926 40.84V32.152C190.926 31.576 190.899 31.1493 190.846 30.872C190.803 30.5947 190.718 30.296 190.59 29.976L190.574 29.912C190.574 29.8373 190.622 29.8 190.718 29.8H195.086C196.334 29.8 197.39 30.0453 198.254 30.536C199.118 31.0267 199.768 31.6933 200.206 32.536C200.643 33.3787 200.867 34.3333 200.878 35.4C200.867 36.4667 200.643 37.4213 200.206 38.264C199.768 39.1067 199.118 39.7733 198.254 40.264C197.39 40.7547 196.334 41 195.086 41H191.086ZM194.926 38.808C195.651 38.808 196.264 38.6587 196.766 38.36C197.267 38.0507 197.646 37.64 197.902 37.128C198.158 36.6053 198.286 36.0293 198.286 35.4C198.286 34.7707 198.158 34.2 197.902 33.688C197.646 33.1653 197.267 32.7547 196.766 32.456C196.264 32.1467 195.651 31.992 194.926 31.992H193.614C193.507 31.992 193.454 32.0453 193.454 32.152V38.648C193.454 38.7547 193.507 38.808 193.614 38.808H194.926ZM204.133 41.16C203.301 41.16 202.634 40.9413 202.133 40.504C201.642 40.056 201.397 39.4213 201.397 38.6C201.397 37.864 201.615 37.288 202.053 36.872C202.501 36.456 203.215 36.1573 204.197 35.976L205.589 35.72C205.909 35.656 206.127 35.5707 206.245 35.464C206.373 35.3467 206.437 35.2027 206.437 35.032C206.437 34.744 206.309 34.5147 206.053 34.344C205.807 34.1627 205.445 34.072 204.965 34.072C204.346 34.072 203.813 34.2267 203.365 34.536C202.917 34.8347 202.501 35.224 202.117 35.704C202.074 35.768 202.026 35.8 201.973 35.8C201.919 35.8 201.893 35.752 201.893 35.656V33.912C201.893 33.3147 202.223 32.856 202.885 32.536C203.557 32.2053 204.373 32.04 205.333 32.04C206.559 32.04 207.445 32.3067 207.989 32.84C208.533 33.3627 208.805 34.04 208.805 34.872V40.84C208.805 40.8827 208.789 40.92 208.757 40.952C208.725 40.984 208.693 41 208.661 41H206.629C206.597 41 206.559 40.984 206.517 40.952C206.485 40.92 206.469 40.8827 206.469 40.84V40.04C206.469 39.9973 206.453 39.976 206.421 39.976C206.378 39.976 206.341 40.0027 206.309 40.056C206.063 40.4507 205.759 40.7333 205.397 40.904C205.045 41.0747 204.623 41.16 204.133 41.16ZM205.029 39.416C205.466 39.416 205.807 39.272 206.053 38.984C206.309 38.696 206.437 38.3067 206.437 37.816V37.192C206.437 37.064 206.373 37.0107 206.245 37.032L205.253 37.208C204.346 37.3787 203.893 37.7627 203.893 38.36C203.893 38.7013 203.994 38.9627 204.197 39.144C204.399 39.3253 204.677 39.416 205.029 39.416ZM210.001 41C209.958 41 209.921 40.984 209.889 40.952C209.857 40.92 209.84 40.8827 209.84 40.84V34.552C209.84 33.976 209.814 33.5493 209.761 33.272C209.718 32.9947 209.633 32.696 209.505 32.376L209.489 32.312C209.489 32.2373 209.537 32.2 209.633 32.2H212.145C212.187 32.2 212.225 32.216 212.257 32.248C212.289 32.28 212.305 32.3173 212.305 32.36V40.84C212.305 40.8827 212.289 40.92 212.257 40.952C212.225 40.984 212.187 41 212.145 41H210.001ZM211.057 31.8C210.662 31.8 210.331 31.7147 210.065 31.544C209.798 31.3733 209.665 31.1227 209.665 30.792C209.665 30.4507 209.793 30.2 210.049 30.04C210.315 29.88 210.651 29.8 211.057 29.8C211.473 29.8 211.814 29.88 212.081 30.04C212.347 30.2 212.481 30.4507 212.481 30.792C212.481 31.1227 212.342 31.3733 212.065 31.544C211.798 31.7147 211.462 31.8 211.057 31.8ZM213.516 41C213.473 41 213.436 40.984 213.404 40.952C213.372 40.92 213.356 40.8827 213.356 40.84V34.552C213.356 33.976 213.329 33.5493 213.276 33.272C213.233 32.9947 213.148 32.696 213.02 32.376L213.004 32.312C213.004 32.2373 213.052 32.2 213.148 32.2H215.532C215.585 32.2 215.628 32.216 215.66 32.248C215.692 32.28 215.708 32.3173 215.708 32.36V33.672C215.708 33.7253 215.724 33.752 215.756 33.752C215.799 33.752 215.825 33.7253 215.836 33.672C216.156 32.584 216.823 32.04 217.836 32.04C218.263 32.04 218.476 32.1147 218.476 32.264V34.568C218.476 34.664 218.423 34.696 218.316 34.664C218.124 34.6 217.905 34.568 217.66 34.568C217.041 34.568 216.577 34.7227 216.268 35.032C215.969 35.3413 215.82 35.8107 215.82 36.44V40.84C215.82 40.9467 215.767 41 215.66 41H213.516ZM221.693 42.84C220.946 42.84 220.429 42.7973 220.141 42.712C219.896 42.6373 219.773 42.4613 219.773 42.184V40.888C219.773 40.7387 219.848 40.6907 219.997 40.744C220.136 40.7867 220.349 40.8293 220.637 40.872C220.936 40.9147 221.234 40.936 221.533 40.936C221.821 40.936 221.965 40.8507 221.965 40.68C221.965 40.6267 221.917 40.456 221.821 40.168L219.773 34.072C219.624 33.624 219.485 33.288 219.357 33.064C219.24 32.84 219.096 32.632 218.925 32.44C218.893 32.408 218.877 32.3707 218.877 32.328C218.877 32.2427 218.925 32.2 219.021 32.2H222.109C222.205 32.2 222.269 32.2213 222.301 32.264C222.333 32.3067 222.328 32.36 222.285 32.424C222.157 32.616 222.093 32.8453 222.093 33.112C222.093 33.3467 222.141 33.64 222.237 33.992L223.341 37.944C223.373 38.0507 223.426 38.104 223.501 38.104C223.586 38.104 223.64 38.0507 223.661 37.944L224.749 33.752C224.813 33.5067 224.845 33.2987 224.845 33.128C224.845 32.8613 224.776 32.6267 224.637 32.424C224.616 32.3813 224.605 32.3493 224.605 32.328C224.605 32.2427 224.674 32.2 224.813 32.2H227.741C227.837 32.2 227.885 32.2427 227.885 32.328C227.885 32.3707 227.869 32.408 227.837 32.44C227.666 32.6427 227.517 32.8507 227.389 33.064C227.272 33.2773 227.144 33.6027 227.005 34.04L224.925 40.616C224.669 41.4373 224.29 42.0133 223.789 42.344C223.298 42.6747 222.6 42.84 221.693 42.84ZM231.398 41C231.292 41 231.238 40.9467 231.238 40.84V32.152C231.238 31.576 231.212 31.1493 231.158 30.872C231.116 30.5947 231.03 30.296 230.902 29.976L230.886 29.912C230.886 29.8373 230.934 29.8 231.03 29.8H238.31C238.417 29.8 238.47 29.8533 238.47 29.96V32.104C238.47 32.2213 238.401 32.2587 238.262 32.216C237.868 32.0987 237.51 32.0187 237.19 31.976C236.87 31.9333 236.422 31.912 235.846 31.912H233.926C233.82 31.912 233.766 31.9653 233.766 32.072V34.376C233.766 34.4827 233.82 34.536 233.926 34.536H237.686C237.793 34.536 237.846 34.5893 237.846 34.696V36.6C237.846 36.7067 237.793 36.76 237.686 36.76H233.926C233.82 36.76 233.766 36.8133 233.766 36.92V40.84C233.766 40.9467 233.713 41 233.606 41H231.398ZM241.289 41.16C240.457 41.16 239.79 40.9413 239.289 40.504C238.798 40.056 238.553 39.4213 238.553 38.6C238.553 37.864 238.772 37.288 239.209 36.872C239.657 36.456 240.372 36.1573 241.353 35.976L242.745 35.72C243.065 35.656 243.284 35.5707 243.401 35.464C243.529 35.3467 243.593 35.2027 243.593 35.032C243.593 34.744 243.465 34.5147 243.209 34.344C242.964 34.1627 242.601 34.072 242.121 34.072C241.502 34.072 240.969 34.2267 240.521 34.536C240.073 34.8347 239.657 35.224 239.273 35.704C239.23 35.768 239.182 35.8 239.129 35.8C239.076 35.8 239.049 35.752 239.049 35.656V33.912C239.049 33.3147 239.38 32.856 240.041 32.536C240.713 32.2053 241.529 32.04 242.489 32.04C243.716 32.04 244.601 32.3067 245.145 32.84C245.689 33.3627 245.961 34.04 245.961 34.872V40.84C245.961 40.8827 245.945 40.92 245.913 40.952C245.881 40.984 245.849 41 245.817 41H243.785C243.753 41 243.716 40.984 243.673 40.952C243.641 40.92 243.625 40.8827 243.625 40.84V40.04C243.625 39.9973 243.609 39.976 243.577 39.976C243.534 39.976 243.497 40.0027 243.465 40.056C243.22 40.4507 242.916 40.7333 242.553 40.904C242.201 41.0747 241.78 41.16 241.289 41.16ZM242.185 39.416C242.622 39.416 242.964 39.272 243.209 38.984C243.465 38.696 243.593 38.3067 243.593 37.816V37.192C243.593 37.064 243.529 37.0107 243.401 37.032L242.409 37.208C241.502 37.3787 241.049 37.7627 241.049 38.36C241.049 38.7013 241.15 38.9627 241.353 39.144C241.556 39.3253 241.833 39.416 242.185 39.416ZM251.397 41.16C250.522 41.16 249.717 40.984 248.981 40.632C248.255 40.28 247.674 39.7627 247.237 39.08C246.81 38.3973 246.597 37.5707 246.597 36.6C246.597 35.6293 246.81 34.8027 247.237 34.12C247.674 33.4373 248.255 32.92 248.981 32.568C249.717 32.216 250.522 32.04 251.397 32.04C252.047 32.04 252.581 32.12 252.997 32.28C253.413 32.44 253.621 32.648 253.621 32.904V34.808C253.621 34.9147 253.573 34.968 253.477 34.968C253.434 34.968 253.391 34.9467 253.349 34.904C253.157 34.6907 252.901 34.5253 252.581 34.408C252.271 34.28 251.93 34.216 251.557 34.216C250.767 34.216 250.159 34.4347 249.733 34.872C249.306 35.3093 249.093 35.8853 249.093 36.6C249.093 37.3147 249.317 37.8907 249.765 38.328C250.213 38.7653 250.837 38.984 251.637 38.984C251.967 38.984 252.287 38.9413 252.597 38.856C252.917 38.76 253.183 38.648 253.397 38.52C253.418 38.4987 253.455 38.488 253.509 38.488C253.583 38.488 253.621 38.5307 253.621 38.616V40.296C253.621 40.552 253.413 40.76 252.997 40.92C252.581 41.08 252.047 41.16 251.397 41.16ZM258.496 41.16C257.525 41.16 256.805 40.8987 256.336 40.376C255.866 39.8427 255.632 39.1067 255.632 38.168V34.264C255.632 34.2 255.6 34.168 255.536 34.168H254.368C254.282 34.168 254.24 34.1253 254.24 34.04V32.328C254.24 32.2427 254.282 32.2 254.368 32.2H255.536C255.6 32.2 255.632 32.168 255.632 32.104V30.136C255.632 30.0293 255.685 29.976 255.792 29.976H257.888C257.984 29.976 258.032 30.0293 258.032 30.136L257.936 32.104C257.936 32.168 257.968 32.2 258.032 32.2H260.448C260.533 32.2 260.576 32.2427 260.576 32.328V34.04C260.576 34.1253 260.533 34.168 260.448 34.168H258.08C258.016 34.168 257.984 34.2 257.984 34.264V37.768C257.984 38.6107 258.362 39.032 259.12 39.032C259.333 39.032 259.525 38.9947 259.696 38.92C259.877 38.8347 260.096 38.6853 260.352 38.472C260.384 38.44 260.416 38.424 260.448 38.424C260.501 38.424 260.528 38.4613 260.528 38.536V40.2C260.528 40.5413 260.325 40.7867 259.92 40.936C259.514 41.0853 259.04 41.16 258.496 41.16ZM265.216 41.16C264.373 41.16 263.616 40.968 262.944 40.584C262.272 40.1893 261.744 39.6453 261.36 38.952C260.987 38.2587 260.8 37.4747 260.8 36.6C260.8 35.7253 260.987 34.9413 261.36 34.248C261.744 33.5547 262.272 33.016 262.944 32.632C263.616 32.2373 264.373 32.04 265.216 32.04C266.059 32.04 266.816 32.2373 267.488 32.632C268.16 33.016 268.683 33.5547 269.056 34.248C269.44 34.9413 269.632 35.7253 269.632 36.6C269.632 37.4747 269.44 38.2587 269.056 38.952C268.683 39.6453 268.16 40.1893 267.488 40.584C266.816 40.968 266.059 41.16 265.216 41.16ZM265.216 38.984C265.792 38.984 266.256 38.7653 266.608 38.328C266.96 37.8907 267.136 37.3147 267.136 36.6C267.136 35.8853 266.96 35.3093 266.608 34.872C266.256 34.4347 265.792 34.216 265.216 34.216C264.64 34.216 264.176 34.4347 263.824 34.872C263.472 35.3093 263.296 35.8853 263.296 36.6C263.296 37.3147 263.472 37.8907 263.824 38.328C264.176 38.7653 264.64 38.984 265.216 38.984ZM270.454 41C270.411 41 270.374 40.984 270.342 40.952C270.31 40.92 270.294 40.8827 270.294 40.84V34.552C270.294 33.976 270.267 33.5493 270.214 33.272C270.171 32.9947 270.086 32.696 269.958 32.376L269.942 32.312C269.942 32.2373 269.99 32.2 270.086 32.2H272.47C272.523 32.2 272.566 32.216 272.598 32.248C272.63 32.28 272.646 32.3173 272.646 32.36V33.672C272.646 33.7253 272.662 33.752 272.694 33.752C272.736 33.752 272.763 33.7253 272.774 33.672C273.094 32.584 273.76 32.04 274.774 32.04C275.2 32.04 275.414 32.1147 275.414 32.264V34.568C275.414 34.664 275.36 34.696 275.254 34.664C275.062 34.6 274.843 34.568 274.598 34.568C273.979 34.568 273.515 34.7227 273.206 35.032C272.907 35.3413 272.758 35.8107 272.758 36.44V40.84C272.758 40.9467 272.704 41 272.598 41H270.454ZM278.63 42.84C277.884 42.84 277.366 42.7973 277.078 42.712C276.833 42.6373 276.71 42.4613 276.71 42.184V40.888C276.71 40.7387 276.785 40.6907 276.934 40.744C277.073 40.7867 277.286 40.8293 277.574 40.872C277.873 40.9147 278.172 40.936 278.47 40.936C278.758 40.936 278.902 40.8507 278.902 40.68C278.902 40.6267 278.854 40.456 278.758 40.168L276.71 34.072C276.561 33.624 276.422 33.288 276.294 33.064C276.177 32.84 276.033 32.632 275.862 32.44C275.83 32.408 275.814 32.3707 275.814 32.328C275.814 32.2427 275.862 32.2 275.958 32.2H279.046C279.142 32.2 279.206 32.2213 279.238 32.264C279.27 32.3067 279.265 32.36 279.222 32.424C279.094 32.616 279.03 32.8453 279.03 33.112C279.03 33.3467 279.078 33.64 279.174 33.992L280.278 37.944C280.31 38.0507 280.364 38.104 280.438 38.104C280.524 38.104 280.577 38.0507 280.598 37.944L281.686 33.752C281.75 33.5067 281.782 33.2987 281.782 33.128C281.782 32.8613 281.713 32.6267 281.574 32.424C281.553 32.3813 281.542 32.3493 281.542 32.328C281.542 32.2427 281.612 32.2 281.75 32.2H284.678C284.774 32.2 284.822 32.2427 284.822 32.328C284.822 32.3707 284.806 32.408 284.774 32.44C284.604 32.6427 284.454 32.8507 284.326 33.064C284.209 33.2773 284.081 33.6027 283.942 34.04L281.862 40.616C281.606 41.4373 281.228 42.0133 280.726 42.344C280.236 42.6747 279.537 42.84 278.63 42.84Z" fill="white"/>
<path d="M59.393 70.28C55.837 70.28 53.737 67.228 53.737 60.2C53.737 53.172 55.837 50.12 59.393 50.12C60.289 50.12 61.213 50.344 61.857 50.848C62.417 51.296 62.529 51.856 62.529 52.528V54.852C62.529 55.272 62.361 55.468 62.109 55.468C61.801 55.468 61.605 55.216 61.353 54.908C61.073 54.572 60.709 54.208 60.093 54.208C58.693 54.208 57.993 55.972 57.993 60.2C57.993 64.428 58.693 66.192 60.093 66.192C60.709 66.192 61.073 65.828 61.353 65.492C61.605 65.184 61.773 64.932 62.081 64.932C62.333 64.932 62.529 65.128 62.529 65.548V67.872C62.529 68.544 62.417 69.104 61.857 69.552C61.213 70.056 60.289 70.28 59.393 70.28ZM68.5213 70.28C65.1893 70.28 63.0893 67.788 63.0893 60.2C63.0893 52.612 65.1893 50.12 68.5213 50.12C71.8533 50.12 73.9813 52.612 73.9813 60.2C73.9813 67.788 71.8533 70.28 68.5213 70.28ZM68.5213 66.36C69.1653 66.36 69.6973 65.632 69.6973 60.2C69.6973 54.74 69.1653 54.04 68.5213 54.04C67.8773 54.04 67.3733 54.74 67.3733 60.2C67.3733 65.632 67.8773 66.36 68.5213 66.36ZM75.689 70C75.325 70 75.129 69.804 75.129 69.44V54.796C75.129 52.388 75.045 51.996 74.793 50.82C74.737 50.568 74.877 50.4 75.129 50.4H80.169C80.785 50.4 81.009 50.568 81.065 51.212L81.849 59.948C81.877 60.172 81.961 60.256 82.101 60.256C82.241 60.256 82.353 60.172 82.381 59.948L83.165 51.212C83.221 50.568 83.445 50.4 84.061 50.4H89.297C89.549 50.4 89.689 50.568 89.633 50.82C89.381 51.996 89.297 52.388 89.297 54.796V69.44C89.297 69.804 89.101 70 88.737 70H86.021C85.657 70 85.461 69.804 85.461 69.44C85.461 65.492 85.517 61.124 85.573 56.896C85.573 56.7 85.517 56.56 85.321 56.56C85.181 56.56 85.069 56.644 85.041 56.868L83.501 69.468C83.445 69.832 83.221 70 82.885 70H81.261C80.925 70 80.701 69.832 80.645 69.468L79.105 56.84C79.077 56.644 78.993 56.56 78.825 56.56C78.629 56.56 78.573 56.728 78.573 56.896C78.629 61.124 78.685 65.492 78.685 69.44C78.685 69.804 78.489 70 78.125 70H75.689ZM91.357 70C90.993 70 90.797 69.804 90.797 69.44V54.796C90.797 52.388 90.713 51.996 90.461 50.82C90.405 50.568 90.545 50.4 90.797 50.4H95.837C96.453 50.4 96.677 50.568 96.733 51.212L97.517 59.948C97.545 60.172 97.629 60.256 97.769 60.256C97.909 60.256 98.021 60.172 98.049 59.948L98.833 51.212C98.889 50.568 99.113 50.4 99.729 50.4H104.965C105.217 50.4 105.357 50.568 105.301 50.82C105.049 51.996 104.965 52.388 104.965 54.796V69.44C104.965 69.804 104.769 70 104.405 70H101.689C101.325 70 101.129 69.804 101.129 69.44C101.129 65.492 101.185 61.124 101.241 56.896C101.241 56.7 101.185 56.56 100.989 56.56C100.849 56.56 100.737 56.644 100.709 56.868L99.169 69.468C99.113 69.832 98.889 70 98.553 70H96.929C96.593 70 96.369 69.832 96.313 69.468L94.773 56.84C94.745 56.644 94.661 56.56 94.493 56.56C94.297 56.56 94.241 56.728 94.241 56.896C94.297 61.124 94.353 65.492 94.353 69.44C94.353 69.804 94.157 70 93.793 70H91.357ZM107.025 70C106.661 70 106.465 69.804 106.465 69.44V54.796C106.465 52.388 106.381 51.996 106.129 50.82C106.073 50.568 106.213 50.4 106.465 50.4H110.525C110.777 50.4 110.917 50.568 110.861 50.82C110.609 51.996 110.525 52.388 110.525 54.796V69.44C110.525 69.804 110.329 70 109.965 70H107.025ZM114.843 70C114.479 70 114.283 69.804 114.283 69.44V54.46C114.283 54.208 114.171 53.984 113.751 53.984C113.303 53.984 113.023 54.208 112.267 54.824C111.875 55.132 111.511 55.244 111.511 54.768V50.96C111.511 50.596 111.707 50.4 112.071 50.4H120.555C120.919 50.4 121.115 50.596 121.115 50.96V54.768C121.115 55.244 120.751 55.132 120.359 54.824C119.603 54.208 119.323 53.984 118.875 53.984C118.455 53.984 118.343 54.208 118.343 54.46V69.44C118.343 69.804 118.147 70 117.783 70H114.843ZM124.906 70C124.542 70 124.346 69.804 124.346 69.44V54.46C124.346 54.208 124.234 53.984 123.814 53.984C123.366 53.984 123.086 54.208 122.33 54.824C121.938 55.132 121.574 55.244 121.574 54.768V50.96C121.574 50.596 121.77 50.4 122.134 50.4H130.618C130.982 50.4 131.178 50.596 131.178 50.96V54.768C131.178 55.244 130.814 55.132 130.422 54.824C129.666 54.208 129.386 53.984 128.938 53.984C128.518 53.984 128.406 54.208 128.406 54.46V69.44C128.406 69.804 128.21 70 127.846 70H124.906ZM132.728 70C132.364 70 132.168 69.804 132.168 69.44V55.076C132.168 52.668 132.084 51.996 131.832 50.82C131.776 50.568 131.916 50.4 132.168 50.4H139.616C139.784 50.4 139.896 50.512 139.896 50.68V54.572C139.896 54.88 139.644 54.936 139.336 54.768C138.272 54.208 137.684 54.012 137.04 54.012C136.396 54.012 136.228 54.264 136.228 54.712V57.848C136.228 58.016 136.34 58.128 136.508 58.128H139.168C139.336 58.128 139.448 58.24 139.448 58.408V61.74C139.448 61.908 139.336 62.02 139.168 62.02H136.508C136.34 62.02 136.228 62.132 136.228 62.3V65.8C136.228 65.968 136.34 66.08 136.508 66.08H139.7C139.868 66.08 139.98 66.192 139.98 66.36V69.72C139.98 69.888 139.868 70 139.7 70H132.728ZM141.67 70C141.306 70 141.11 69.804 141.11 69.44V55.076C141.11 52.668 141.026 51.996 140.774 50.82C140.718 50.568 140.858 50.4 141.11 50.4H145.618C149.454 50.4 151.526 53.172 151.526 60.2C151.526 67.228 149.454 70 145.618 70H141.67ZM145.534 66.164C146.43 66.164 147.27 65.24 147.27 60.2C147.27 55.16 146.43 54.236 145.534 54.236H145.45C145.282 54.236 145.17 54.348 145.17 54.516V65.884C145.17 66.052 145.282 66.164 145.45 66.164H145.534ZM158.894 70C158.53 70 158.334 69.804 158.334 69.44V54.46C158.334 54.208 158.222 53.984 157.802 53.984C157.354 53.984 157.074 54.208 156.318 54.824C155.926 55.132 155.562 55.244 155.562 54.768V50.96C155.562 50.596 155.758 50.4 156.122 50.4H164.606C164.97 50.4 165.166 50.596 165.166 50.96V54.768C165.166 55.244 164.802 55.132 164.41 54.824C163.654 54.208 163.374 53.984 162.926 53.984C162.506 53.984 162.394 54.208 162.394 54.46V69.44C162.394 69.804 162.198 70 161.834 70H158.894ZM170.842 70.28C167.51 70.28 165.41 67.788 165.41 60.2C165.41 52.612 167.51 50.12 170.842 50.12C174.174 50.12 176.302 52.612 176.302 60.2C176.302 67.788 174.174 70.28 170.842 70.28ZM170.842 66.36C171.486 66.36 172.018 65.632 172.018 60.2C172.018 54.74 171.486 54.04 170.842 54.04C170.198 54.04 169.694 54.74 169.694 60.2C169.694 65.632 170.198 66.36 170.842 66.36ZM181.427 70C181.063 70 180.867 69.804 180.867 69.44V54.796C180.867 52.388 180.783 51.996 180.531 50.82C180.475 50.568 180.615 50.4 180.867 50.4H185.907C186.523 50.4 186.747 50.568 186.803 51.212L187.587 59.948C187.615 60.172 187.699 60.256 187.839 60.256C187.979 60.256 188.091 60.172 188.119 59.948L188.903 51.212C188.959 50.568 189.183 50.4 189.799 50.4H195.035C195.287 50.4 195.427 50.568 195.371 50.82C195.119 51.996 195.035 52.388 195.035 54.796V69.44C195.035 69.804 194.839 70 194.475 70H191.759C191.395 70 191.199 69.804 191.199 69.44C191.199 65.492 191.255 61.124 191.311 56.896C191.311 56.7 191.255 56.56 191.059 56.56C190.919 56.56 190.807 56.644 190.779 56.868L189.239 69.468C189.183 69.832 188.959 70 188.623 70H186.999C186.663 70 186.439 69.832 186.383 69.468L184.843 56.84C184.815 56.644 184.731 56.56 184.563 56.56C184.367 56.56 184.311 56.728 184.311 56.896C184.367 61.124 184.423 65.492 184.423 69.44C184.423 69.804 184.227 70 183.863 70H181.427ZM196.395 70C196.087 70 195.919 69.86 195.947 69.58L197.711 53.116C197.823 52.052 197.767 51.52 197.655 50.932C197.599 50.568 197.767 50.4 198.019 50.4H204.487C204.739 50.4 204.907 50.568 204.823 50.932C204.711 51.464 204.627 51.968 204.739 53.116L206.503 69.58C206.531 69.86 206.363 70 206.055 70H202.975C202.723 70 202.555 69.86 202.527 69.636L202.275 67.172C202.247 66.892 202.107 66.752 201.827 66.752H200.399C200.119 66.752 199.951 66.892 199.923 67.172L199.671 69.636C199.643 69.888 199.447 70 199.223 70H196.395ZM201.519 63C201.827 63 201.883 62.86 201.855 62.636C201.659 60.368 201.519 58.772 201.407 55.664C201.407 55.412 201.295 55.272 201.099 55.272C200.903 55.272 200.791 55.412 200.791 55.664C200.679 58.772 200.539 60.368 200.343 62.636C200.315 62.86 200.371 63 200.679 63H201.519ZM207.978 70C207.614 70 207.418 69.804 207.418 69.44V54.796C207.418 52.388 207.334 51.996 207.082 50.82C207.026 50.568 207.166 50.4 207.418 50.4H211.478C211.73 50.4 211.87 50.568 211.814 50.82C211.562 51.996 211.478 52.388 211.478 54.796V69.44C211.478 69.804 211.282 70 210.918 70H207.978ZM213.556 70C213.192 70 212.996 69.804 212.996 69.44V54.796C212.996 52.388 212.912 51.996 212.66 50.82C212.604 50.568 212.744 50.4 212.996 50.4H216.244C216.58 50.4 216.804 50.568 216.86 50.876L218.652 59.36C218.68 59.556 218.792 59.668 218.96 59.668C219.156 59.668 219.212 59.528 219.212 59.304C219.184 58.548 219.24 56.112 219.184 54.516C219.1 52.388 219.016 51.996 218.764 50.82C218.708 50.568 218.848 50.4 219.1 50.4H222.768C223.02 50.4 223.16 50.568 223.104 50.82C222.852 51.996 222.768 52.388 222.768 54.796V69.44C222.768 69.804 222.572 70 222.208 70H219.52C219.184 70 218.96 69.832 218.904 69.524L217.084 61.012C217.056 60.816 216.944 60.732 216.804 60.732C216.636 60.732 216.524 60.844 216.524 61.068C216.608 62.944 216.692 66.836 216.692 69.44C216.692 69.804 216.496 70 216.132 70H213.556ZM227.089 70C226.725 70 226.529 69.804 226.529 69.44V54.46C226.529 54.208 226.417 53.984 225.997 53.984C225.549 53.984 225.269 54.208 224.513 54.824C224.121 55.132 223.757 55.244 223.757 54.768V50.96C223.757 50.596 223.953 50.4 224.317 50.4H232.801C233.165 50.4 233.361 50.596 233.361 50.96V54.768C233.361 55.244 232.997 55.132 232.605 54.824C231.849 54.208 231.569 53.984 231.121 53.984C230.701 53.984 230.589 54.208 230.589 54.46V69.44C230.589 69.804 230.393 70 230.029 70H227.089ZM233.364 70C233.056 70 232.888 69.86 232.916 69.58L234.68 53.116C234.792 52.052 234.736 51.52 234.624 50.932C234.568 50.568 234.736 50.4 234.988 50.4H241.456C241.708 50.4 241.876 50.568 241.792 50.932C241.68 51.464 241.596 51.968 241.708 53.116L243.472 69.58C243.5 69.86 243.332 70 243.024 70H239.944C239.692 70 239.524 69.86 239.496 69.636L239.244 67.172C239.216 66.892 239.076 66.752 238.796 66.752H237.368C237.088 66.752 236.92 66.892 236.892 67.172L236.64 69.636C236.612 69.888 236.416 70 236.192 70H233.364ZM238.488 63C238.796 63 238.852 62.86 238.824 62.636C238.628 60.368 238.488 58.772 238.376 55.664C238.376 55.412 238.264 55.272 238.068 55.272C237.872 55.272 237.76 55.412 237.76 55.664C237.648 58.772 237.508 60.368 237.312 62.636C237.284 62.86 237.34 63 237.648 63H238.488ZM244.947 70C244.583 70 244.387 69.804 244.387 69.44V54.796C244.387 52.388 244.303 51.996 244.051 50.82C243.995 50.568 244.135 50.4 244.387 50.4H248.447C248.699 50.4 248.839 50.568 248.783 50.82C248.531 51.996 248.447 52.388 248.447 54.796V69.44C248.447 69.804 248.251 70 247.887 70H244.947ZM250.525 70C250.161 70 249.965 69.804 249.965 69.44V54.796C249.965 52.388 249.881 51.996 249.629 50.82C249.573 50.568 249.713 50.4 249.965 50.4H253.213C253.549 50.4 253.773 50.568 253.829 50.876L255.621 59.36C255.649 59.556 255.761 59.668 255.929 59.668C256.125 59.668 256.181 59.528 256.181 59.304C256.153 58.548 256.209 56.112 256.153 54.516C256.069 52.388 255.985 51.996 255.733 50.82C255.677 50.568 255.817 50.4 256.069 50.4H259.737C259.989 50.4 260.129 50.568 260.073 50.82C259.821 51.996 259.737 52.388 259.737 54.796V69.44C259.737 69.804 259.541 70 259.177 70H256.489C256.153 70 255.929 69.832 255.873 69.524L254.053 61.012C254.025 60.816 253.913 60.732 253.773 60.732C253.605 60.732 253.493 60.844 253.493 61.068C253.577 62.944 253.661 66.836 253.661 69.44C253.661 69.804 253.465 70 253.101 70H250.525ZM261.818 70C261.454 70 261.258 69.804 261.258 69.44V54.796C261.258 52.388 261.174 51.996 260.922 50.82C260.866 50.568 261.006 50.4 261.258 50.4H265.318C265.57 50.4 265.71 50.568 265.654 50.82C265.402 51.996 265.318 52.388 265.318 54.796V69.44C265.318 69.804 265.122 70 264.758 70H261.818ZM267.396 70C267.032 70 266.836 69.804 266.836 69.44V54.796C266.836 52.388 266.752 51.996 266.5 50.82C266.444 50.568 266.584 50.4 266.836 50.4H270.084C270.42 50.4 270.644 50.568 270.7 50.876L272.492 59.36C272.52 59.556 272.632 59.668 272.8 59.668C272.996 59.668 273.052 59.528 273.052 59.304C273.024 58.548 273.08 56.112 273.024 54.516C272.94 52.388 272.856 51.996 272.604 50.82C272.548 50.568 272.688 50.4 272.94 50.4H276.608C276.86 50.4 277 50.568 276.944 50.82C276.692 51.996 276.608 52.388 276.608 54.796V69.44C276.608 69.804 276.412 70 276.048 70H273.36C273.024 70 272.8 69.832 272.744 69.524L270.924 61.012C270.896 60.816 270.784 60.732 270.644 60.732C270.476 60.732 270.364 60.844 270.364 61.068C270.448 62.944 270.532 66.836 270.532 69.44C270.532 69.804 270.336 70 269.972 70H267.396ZM283.309 70.28C279.389 70.28 277.737 66.948 277.737 60.2C277.737 53.144 279.865 50.12 283.533 50.12C284.597 50.12 285.717 50.288 286.333 50.932C286.669 51.268 286.809 51.688 286.809 52.276V54.824C286.809 55.188 286.725 55.496 286.389 55.496C286.193 55.496 286.025 55.412 285.661 54.992C285.353 54.628 284.961 54.208 284.289 54.208C282.721 54.208 281.965 56.056 281.965 60.256C281.965 61.404 282.021 66.472 283.225 66.472C283.477 66.472 283.589 66.22 283.589 65.828V63.364C283.589 60.956 283.505 60.564 283.253 59.388C283.197 59.136 283.337 58.968 283.589 58.968H286.613C286.977 58.968 287.201 59.164 287.201 59.528V65.688C287.201 69.104 285.381 70.28 283.309 70.28ZM42.0836 99C41.7196 99 41.5236 98.804 41.5236 98.44V83.796C41.5236 81.388 41.4396 80.996 41.1876 79.82C41.1316 79.568 41.2716 79.4 41.5236 79.4H44.7716C45.1076 79.4 45.3316 79.568 45.3876 79.876L47.1796 88.36C47.2076 88.556 47.3196 88.668 47.4876 88.668C47.6836 88.668 47.7396 88.528 47.7396 88.304C47.7116 87.548 47.7676 85.112 47.7116 83.516C47.6276 81.388 47.5436 80.996 47.2916 79.82C47.2356 79.568 47.3756 79.4 47.6276 79.4H51.2956C51.5476 79.4 51.6876 79.568 51.6316 79.82C51.3796 80.996 51.2956 81.388 51.2956 83.796V98.44C51.2956 98.804 51.0996 99 50.7356 99H48.0476C47.7116 99 47.4876 98.832 47.4316 98.524L45.6116 90.012C45.5836 89.816 45.4716 89.732 45.3316 89.732C45.1636 89.732 45.0516 89.844 45.0516 90.068C45.1356 91.944 45.2196 95.836 45.2196 98.44C45.2196 98.804 45.0236 99 44.6596 99H42.0836ZM53.3765 99C53.0125 99 52.8165 98.804 52.8165 98.44V84.076C52.8165 81.668 52.7325 80.996 52.4805 79.82C52.4245 79.568 52.5645 79.4 52.8165 79.4H60.2645C60.4325 79.4 60.5445 79.512 60.5445 79.68V83.572C60.5445 83.88 60.2925 83.936 59.9845 83.768C58.9205 83.208 58.3325 83.012 57.6885 83.012C57.0445 83.012 56.8765 83.264 56.8765 83.712V86.848C56.8765 87.016 56.9885 87.128 57.1565 87.128H59.8165C59.9845 87.128 60.0965 87.24 60.0965 87.408V90.74C60.0965 90.908 59.9845 91.02 59.8165 91.02H57.1565C56.9885 91.02 56.8765 91.132 56.8765 91.3V94.8C56.8765 94.968 56.9885 95.08 57.1565 95.08H60.3485C60.5165 95.08 60.6285 95.192 60.6285 95.36V98.72C60.6285 98.888 60.5165 99 60.3485 99H53.3765ZM66.658 99.28C63.522 99.28 61.73 97.376 61.73 93.932V84.076C61.73 81.668 61.646 80.996 61.394 79.82C61.338 79.568 61.478 79.4 61.73 79.4H65.79C66.042 79.4 66.182 79.568 66.126 79.82C65.874 80.996 65.79 81.668 65.79 84.076V93.988C65.79 94.716 66.126 95.108 66.658 95.108C67.162 95.108 67.498 94.716 67.498 93.988V84.076C67.498 81.668 67.414 80.996 67.162 79.82C67.106 79.568 67.246 79.4 67.498 79.4H71.558C71.81 79.4 71.95 79.568 71.894 79.82C71.642 80.996 71.558 81.668 71.558 84.076V93.932C71.558 97.376 69.766 99.28 66.658 99.28ZM75.8509 99C75.4869 99 75.2909 98.804 75.2909 98.44V83.46C75.2909 83.208 75.1789 82.984 74.7589 82.984C74.3109 82.984 74.0309 83.208 73.2749 83.824C72.8829 84.132 72.5189 84.244 72.5189 83.768V79.96C72.5189 79.596 72.7149 79.4 73.0789 79.4H81.5629C81.9269 79.4 82.1229 79.596 82.1229 79.96V83.768C82.1229 84.244 81.7589 84.132 81.3669 83.824C80.6109 83.208 80.3309 82.984 79.8829 82.984C79.4629 82.984 79.3509 83.208 79.3509 83.46V98.44C79.3509 98.804 79.1549 99 78.7909 99H75.8509ZM83.6734 99C83.3094 99 83.1134 98.804 83.1134 98.44V84.076C83.1134 81.668 83.0294 80.996 82.7774 79.82C82.7214 79.568 82.8614 79.4 83.1134 79.4H87.6494C91.2614 79.4 92.9134 82.116 92.9134 86.288C92.9134 87.996 92.5494 89.564 91.8774 90.628C91.4294 91.328 91.3734 91.944 91.5134 92.532L92.9974 98.328C93.0534 98.552 93.0534 99 92.5214 99H89.5254C89.1894 99 88.9934 98.832 88.9094 98.468L87.7054 93.008C87.6494 92.784 87.5934 92.588 87.3694 92.588C87.1734 92.588 87.0894 92.756 87.0894 93.036V98.44C87.0894 98.804 86.8934 99 86.5294 99H83.6734ZM87.5934 89.844C88.3214 89.844 88.8814 88.864 88.8814 86.344C88.8814 83.852 88.3214 82.872 87.5934 82.872H87.4814C87.2294 82.872 87.0894 83.012 87.0894 83.264V89.452C87.0894 89.704 87.2294 89.844 87.4814 89.844H87.5934ZM93.993 99C93.685 99 93.517 98.86 93.545 98.58L95.309 82.116C95.421 81.052 95.365 80.52 95.253 79.932C95.197 79.568 95.365 79.4 95.617 79.4H102.085C102.337 79.4 102.505 79.568 102.421 79.932C102.309 80.464 102.225 80.968 102.337 82.116L104.101 98.58C104.129 98.86 103.961 99 103.653 99H100.573C100.321 99 100.153 98.86 100.125 98.636L99.873 96.172C99.845 95.892 99.705 95.752 99.425 95.752H97.997C97.717 95.752 97.549 95.892 97.521 96.172L97.269 98.636C97.241 98.888 97.045 99 96.821 99H93.993ZM99.117 92C99.425 92 99.481 91.86 99.453 91.636C99.257 89.368 99.117 87.772 99.005 84.664C99.005 84.412 98.893 84.272 98.697 84.272C98.501 84.272 98.389 84.412 98.389 84.664C98.277 87.772 98.137 89.368 97.941 91.636C97.913 91.86 97.969 92 98.277 92H99.117ZM105.576 99C105.212 99 105.016 98.804 105.016 98.44V84.076C105.016 81.668 104.932 80.996 104.68 79.82C104.624 79.568 104.764 79.4 105.016 79.4H109.076C109.328 79.4 109.468 79.568 109.412 79.82C109.16 80.996 109.076 81.668 109.076 84.076V94.8C109.076 94.968 109.188 95.08 109.356 95.08H112.548C112.716 95.08 112.828 95.192 112.828 95.36V98.72C112.828 98.888 112.716 99 112.548 99H105.576ZM114.298 99C113.934 99 113.738 98.804 113.738 98.44V83.796C113.738 81.388 113.654 80.996 113.402 79.82C113.346 79.568 113.486 79.4 113.738 79.4H117.798C118.05 79.4 118.19 79.568 118.134 79.82C117.882 80.996 117.798 81.388 117.798 83.796V98.44C117.798 98.804 117.602 99 117.238 99H114.298ZM122.117 99C121.753 99 121.557 98.804 121.557 98.44V83.46C121.557 83.208 121.445 82.984 121.025 82.984C120.577 82.984 120.297 83.208 119.541 83.824C119.149 84.132 118.785 84.244 118.785 83.768V79.96C118.785 79.596 118.981 79.4 119.345 79.4H127.829C128.193 79.4 128.389 79.596 128.389 79.96V83.768C128.389 84.244 128.025 84.132 127.633 83.824C126.877 83.208 126.597 82.984 126.149 82.984C125.729 82.984 125.617 83.208 125.617 83.46V98.44C125.617 98.804 125.421 99 125.057 99H122.117ZM132.764 99C132.4 99 132.204 98.804 132.204 98.44V96.34C132.204 94.548 132.092 93.848 131.476 91.076L129.628 82.872C129.292 81.388 129.124 80.94 128.592 79.792C128.48 79.568 128.592 79.4 128.816 79.4H133.324C133.548 79.4 133.632 79.624 133.604 79.792C133.436 80.436 133.268 81.024 133.604 82.788C133.8 83.852 133.856 84.888 134.052 86.82C134.08 87.1 134.136 87.324 134.36 87.324C134.584 87.324 134.64 87.1 134.668 86.82C134.864 84.888 134.948 83.852 135.144 82.788C135.48 81.024 135.312 80.436 135.144 79.792C135.116 79.624 135.2 79.4 135.424 79.4H139.54C139.764 79.4 139.876 79.568 139.764 79.792C139.232 80.94 139.036 81.388 138.728 82.872L137.02 91.076C136.432 93.848 136.264 94.548 136.264 96.34V98.44C136.264 98.804 136.068 99 135.704 99H132.764ZM148.474 99.28C145.142 99.28 143.042 96.788 143.042 89.2C143.042 81.612 145.142 79.12 148.474 79.12C151.806 79.12 153.934 81.612 153.934 89.2C153.934 96.788 151.806 99.28 148.474 99.28ZM148.474 95.36C149.118 95.36 149.65 94.632 149.65 89.2C149.65 83.74 149.118 83.04 148.474 83.04C147.83 83.04 147.326 83.74 147.326 89.2C147.326 94.632 147.83 95.36 148.474 95.36ZM155.642 99C155.278 99 155.082 98.804 155.082 98.44V84.076C155.082 81.668 154.998 80.996 154.746 79.82C154.69 79.568 154.83 79.4 155.082 79.4H162.53C162.698 79.4 162.81 79.512 162.81 79.68V83.572C162.81 83.88 162.558 83.936 162.25 83.768C161.186 83.208 160.598 83.012 159.954 83.012C159.31 83.012 159.142 83.264 159.142 83.712V86.848C159.142 87.016 159.254 87.128 159.422 87.128H162.082C162.25 87.128 162.362 87.24 162.362 87.408V90.74C162.362 90.908 162.25 91.02 162.082 91.02H159.422C159.254 91.02 159.142 91.132 159.142 91.3V98.44C159.142 98.804 158.946 99 158.582 99H155.642ZM167.083 99C166.775 99 166.607 98.86 166.635 98.58L168.399 82.116C168.511 81.052 168.455 80.52 168.343 79.932C168.287 79.568 168.455 79.4 168.707 79.4H175.175C175.427 79.4 175.595 79.568 175.511 79.932C175.399 80.464 175.315 80.968 175.427 82.116L177.191 98.58C177.219 98.86 177.051 99 176.743 99H173.663C173.411 99 173.243 98.86 173.215 98.636L172.963 96.172C172.935 95.892 172.795 95.752 172.515 95.752H171.087C170.807 95.752 170.639 95.892 170.611 96.172L170.359 98.636C170.331 98.888 170.135 99 169.911 99H167.083ZM172.207 92C172.515 92 172.571 91.86 172.543 91.636C172.347 89.368 172.207 87.772 172.095 84.664C172.095 84.412 171.983 84.272 171.787 84.272C171.591 84.272 171.479 84.412 171.479 84.664C171.367 87.772 171.227 89.368 171.031 91.636C171.003 91.86 171.059 92 171.367 92H172.207ZM178.666 99C178.302 99 178.106 98.804 178.106 98.44V84.076C178.106 81.668 178.022 80.996 177.77 79.82C177.714 79.568 177.854 79.4 178.106 79.4H182.474C186.422 79.4 187.906 82.172 187.906 86.484C187.906 90.628 186.534 93.4 182.642 93.4H182.418C182.194 93.4 182.082 93.512 182.082 93.736V98.44C182.082 98.804 181.886 99 181.522 99H178.666ZM182.586 90.04C183.37 90.04 183.874 89.06 183.874 86.484C183.874 83.936 183.37 82.956 182.586 82.956H182.418C182.222 82.956 182.082 83.096 182.082 83.32V89.676C182.082 89.872 182.194 90.04 182.418 90.04H182.586ZM189.384 99C189.02 99 188.824 98.804 188.824 98.44V84.076C188.824 81.668 188.74 80.996 188.488 79.82C188.432 79.568 188.572 79.4 188.824 79.4H193.192C197.14 79.4 198.624 82.172 198.624 86.484C198.624 90.628 197.252 93.4 193.36 93.4H193.136C192.912 93.4 192.8 93.512 192.8 93.736V98.44C192.8 98.804 192.604 99 192.24 99H189.384ZM193.304 90.04C194.088 90.04 194.592 89.06 194.592 86.484C194.592 83.936 194.088 82.956 193.304 82.956H193.136C192.94 82.956 192.8 83.096 192.8 83.32V89.676C192.8 89.872 192.912 90.04 193.136 90.04H193.304ZM200.103 99C199.739 99 199.543 98.804 199.543 98.44V84.076C199.543 81.668 199.459 80.996 199.207 79.82C199.151 79.568 199.291 79.4 199.543 79.4H204.079C207.691 79.4 209.343 82.116 209.343 86.288C209.343 87.996 208.979 89.564 208.307 90.628C207.859 91.328 207.803 91.944 207.943 92.532L209.427 98.328C209.483 98.552 209.483 99 208.951 99H205.955C205.619 99 205.423 98.832 205.339 98.468L204.135 93.008C204.079 92.784 204.023 92.588 203.799 92.588C203.603 92.588 203.519 92.756 203.519 93.036V98.44C203.519 98.804 203.323 99 202.959 99H200.103ZM204.023 89.844C204.751 89.844 205.311 88.864 205.311 86.344C205.311 83.852 204.751 82.872 204.023 82.872H203.911C203.659 82.872 203.519 83.012 203.519 83.264V89.452C203.519 89.704 203.659 89.844 203.911 89.844H204.023ZM215.494 99.28C212.162 99.28 210.062 96.788 210.062 89.2C210.062 81.612 212.162 79.12 215.494 79.12C218.826 79.12 220.954 81.612 220.954 89.2C220.954 96.788 218.826 99.28 215.494 99.28ZM215.494 95.36C216.138 95.36 216.67 94.632 216.67 89.2C216.67 83.74 216.138 83.04 215.494 83.04C214.85 83.04 214.346 83.74 214.346 89.2C214.346 94.632 214.85 95.36 215.494 95.36ZM221.832 99C221.552 99 221.384 98.804 221.412 98.524L222.196 91.776C222.364 90.348 222.42 89.368 222.42 88.388C222.42 87.576 222.392 86.764 222.224 85.56L221.888 83.236C221.664 81.668 221.468 80.856 221.048 79.82C220.964 79.596 221.02 79.4 221.272 79.4H225.556C225.864 79.4 225.892 79.624 225.864 79.848C225.808 80.24 225.752 80.604 225.752 81.192C225.752 82.424 226.004 83.964 226.284 86.568C226.312 86.848 226.396 86.96 226.564 86.96C226.732 86.96 226.816 86.848 226.844 86.568C227.068 84.048 227.376 82.368 227.376 81.192C227.376 80.604 227.32 80.24 227.264 79.848C227.236 79.624 227.264 79.4 227.572 79.4H231.856C232.108 79.4 232.164 79.596 232.08 79.82C231.66 80.856 231.464 81.668 231.24 83.236L230.904 85.56C230.736 86.764 230.708 87.576 230.708 88.388C230.708 89.368 230.764 90.348 230.932 91.776L231.716 98.524C231.744 98.804 231.576 99 231.296 99H228.104C227.768 99 227.544 98.804 227.516 98.356C227.292 95.948 227.096 93.512 226.872 90.824C226.844 90.544 226.76 90.404 226.564 90.404C226.368 90.404 226.284 90.544 226.256 90.824C226.032 93.512 225.836 95.948 225.612 98.356C225.584 98.804 225.36 99 225.024 99H221.832ZM233.545 99C233.181 99 232.985 98.804 232.985 98.44V83.796C232.985 81.388 232.901 80.996 232.649 79.82C232.593 79.568 232.733 79.4 232.985 79.4H237.045C237.297 79.4 237.437 79.568 237.381 79.82C237.129 80.996 237.045 81.388 237.045 83.796V98.44C237.045 98.804 236.849 99 236.485 99H233.545ZM239.123 99C238.759 99 238.563 98.804 238.563 98.44V83.796C238.563 81.388 238.479 80.996 238.227 79.82C238.171 79.568 238.311 79.4 238.563 79.4H243.603C244.219 79.4 244.443 79.568 244.499 80.212L245.283 88.948C245.311 89.172 245.395 89.256 245.535 89.256C245.675 89.256 245.787 89.172 245.815 88.948L246.599 80.212C246.655 79.568 246.879 79.4 247.495 79.4H252.731C252.983 79.4 253.123 79.568 253.067 79.82C252.815 80.996 252.731 81.388 252.731 83.796V98.44C252.731 98.804 252.535 99 252.171 99H249.455C249.091 99 248.895 98.804 248.895 98.44C248.895 94.492 248.951 90.124 249.007 85.896C249.007 85.7 248.951 85.56 248.755 85.56C248.615 85.56 248.503 85.644 248.475 85.868L246.935 98.468C246.879 98.832 246.655 99 246.319 99H244.695C244.359 99 244.135 98.832 244.079 98.468L242.539 85.84C242.511 85.644 242.427 85.56 242.259 85.56C242.063 85.56 242.007 85.728 242.007 85.896C242.063 90.124 242.119 94.492 242.119 98.44C242.119 98.804 241.923 99 241.559 99H239.123ZM254.091 99C253.783 99 253.615 98.86 253.643 98.58L255.407 82.116C255.519 81.052 255.463 80.52 255.351 79.932C255.295 79.568 255.463 79.4 255.715 79.4H262.183C262.435 79.4 262.603 79.568 262.519 79.932C262.407 80.464 262.323 80.968 262.435 82.116L264.199 98.58C264.227 98.86 264.059 99 263.751 99H260.671C260.419 99 260.251 98.86 260.223 98.636L259.971 96.172C259.943 95.892 259.803 95.752 259.523 95.752H258.095C257.815 95.752 257.647 95.892 257.619 96.172L257.367 98.636C257.339 98.888 257.143 99 256.919 99H254.091ZM259.215 92C259.523 92 259.579 91.86 259.551 91.636C259.355 89.368 259.215 87.772 259.103 84.664C259.103 84.412 258.991 84.272 258.795 84.272C258.599 84.272 258.487 84.412 258.487 84.664C258.375 87.772 258.235 89.368 258.039 91.636C258.011 91.86 258.067 92 258.375 92H259.215ZM267.066 99C266.702 99 266.506 98.804 266.506 98.44V83.46C266.506 83.208 266.394 82.984 265.974 82.984C265.526 82.984 265.246 83.208 264.49 83.824C264.098 84.132 263.734 84.244 263.734 83.768V79.96C263.734 79.596 263.93 79.4 264.294 79.4H272.778C273.142 79.4 273.338 79.596 273.338 79.96V83.768C273.338 84.244 272.974 84.132 272.582 83.824C271.826 83.208 271.546 82.984 271.098 82.984C270.678 82.984 270.566 83.208 270.566 83.46V98.44C270.566 98.804 270.37 99 270.006 99H267.066ZM274.888 99C274.524 99 274.328 98.804 274.328 98.44V84.076C274.328 81.668 274.244 80.996 273.992 79.82C273.936 79.568 274.076 79.4 274.328 79.4H281.776C281.944 79.4 282.056 79.512 282.056 79.68V83.572C282.056 83.88 281.804 83.936 281.496 83.768C280.432 83.208 279.844 83.012 279.2 83.012C278.556 83.012 278.388 83.264 278.388 83.712V86.848C278.388 87.016 278.5 87.128 278.668 87.128H281.328C281.496 87.128 281.608 87.24 281.608 87.408V90.74C281.608 90.908 281.496 91.02 281.328 91.02H278.668C278.5 91.02 278.388 91.132 278.388 91.3V94.8C278.388 94.968 278.5 95.08 278.668 95.08H281.86C282.028 95.08 282.14 95.192 282.14 95.36V98.72C282.14 98.888 282.028 99 281.86 99H274.888ZM283.83 99C283.466 99 283.27 98.804 283.27 98.44V84.076C283.27 81.668 283.186 80.996 282.934 79.82C282.878 79.568 283.018 79.4 283.27 79.4H287.33C287.582 79.4 287.722 79.568 287.666 79.82C287.414 80.996 287.33 81.668 287.33 84.076V94.8C287.33 94.968 287.442 95.08 287.61 95.08H290.802C290.97 95.08 291.082 95.192 291.082 95.36V98.72C291.082 98.888 290.97 99 290.802 99H283.83ZM293.408 99C293.044 99 292.848 98.804 292.848 98.44V96.34C292.848 94.548 292.736 93.848 292.12 91.076L290.272 82.872C289.936 81.388 289.768 80.94 289.236 79.792C289.124 79.568 289.236 79.4 289.46 79.4H293.968C294.192 79.4 294.276 79.624 294.248 79.792C294.08 80.436 293.912 81.024 294.248 82.788C294.444 83.852 294.5 84.888 294.696 86.82C294.724 87.1 294.78 87.324 295.004 87.324C295.228 87.324 295.284 87.1 295.312 86.82C295.508 84.888 295.592 83.852 295.788 82.788C296.124 81.024 295.956 80.436 295.788 79.792C295.76 79.624 295.844 79.4 296.068 79.4H300.184C300.408 79.4 300.52 79.568 300.408 79.792C299.876 80.94 299.68 81.388 299.372 82.872L297.664 91.076C297.076 93.848 296.908 94.548 296.908 96.34V98.44C296.908 98.804 296.712 99 296.348 99H293.408ZM102.259 128.28C100.775 128.28 99.9632 127.86 99.6272 127.636C99.0392 127.272 98.8152 126.796 98.8152 126.18V123.268C98.8152 123.072 98.9272 122.932 99.0952 122.932C99.2072 122.932 99.3192 122.96 99.5152 123.156C99.9632 123.604 100.579 124.304 101.643 124.304C102.987 124.304 103.603 123.212 103.603 121.56C103.603 119.824 102.903 118.564 101.251 118.564C100.439 118.564 100.047 118.816 99.5712 118.816C99.3472 118.816 99.2352 118.676 99.2352 118.396L99.3472 108.96C99.3472 108.596 99.5712 108.4 99.8792 108.4H106.655C106.823 108.4 106.935 108.512 106.935 108.68V112.04C106.935 112.208 106.823 112.32 106.655 112.32H103.239C102.819 112.32 102.679 112.46 102.679 112.88V114.784C102.679 115.232 102.791 115.344 103.239 115.344C106.123 115.344 107.579 117.78 107.579 121.448C107.579 125.62 105.703 128.28 102.259 128.28ZM109.625 130.772C108.813 130.772 108.169 130.492 108.169 129.96V129.036C108.169 128.784 108.337 128.756 108.561 128.896C108.785 129.036 109.093 129.204 109.625 129.204C110.381 129.204 110.801 128.728 110.801 128.308C110.801 128.028 110.633 127.972 110.297 127.972H110.129C108.701 127.972 107.945 127.16 107.945 126.068C107.945 124.976 108.701 123.94 110.241 123.94C111.893 123.94 112.845 125.172 112.845 127.076C112.845 128.868 112.033 130.772 109.625 130.772ZM117.883 128.28C114.579 128.28 112.899 124.892 112.899 118.2C112.899 111.508 114.579 108.12 117.883 108.12C121.187 108.12 122.867 111.508 122.867 118.2C122.867 124.892 121.187 128.28 117.883 128.28ZM117.883 124.5C118.667 124.5 118.975 122.736 118.975 118.2C118.975 113.664 118.667 111.9 117.883 111.9C117.099 111.9 116.791 113.664 116.791 118.2C116.791 122.736 117.099 124.5 117.883 124.5ZM124.038 128C123.702 128 123.506 127.804 123.506 127.44V124.836C123.506 124.36 123.59 124.108 123.954 123.352L125.298 120.608C126.866 117.416 127.762 115.54 127.762 114.112C127.762 113.244 127.314 112.516 126.418 112.516C125.578 112.516 125.158 112.964 124.458 113.832C124.29 114.028 124.178 114.084 124.01 114.084C123.842 114.084 123.702 113.944 123.702 113.692V110.668C123.702 110.22 123.73 109.772 124.066 109.324C124.542 108.708 125.634 108.12 127.202 108.12C130.114 108.12 131.766 110.248 131.766 113.468C131.766 116.156 130.87 118.34 129.19 121.532L128.602 122.652C128.406 123.044 128.182 123.408 128.182 123.66C128.182 123.8 128.266 123.912 128.518 123.912H131.402C131.738 123.912 131.934 124.108 131.934 124.472V127.44C131.934 127.804 131.738 128 131.402 128H124.038ZM134.317 128C133.785 128 133.589 127.86 133.617 127.3C133.757 122.316 134.653 117.78 137.089 113.188C137.313 112.768 137.397 112.488 136.809 112.488H133.085C132.721 112.488 132.525 112.292 132.525 111.928V108.96C132.525 108.596 132.721 108.4 133.085 108.4H140.981C141.345 108.4 141.541 108.596 141.541 108.96V111.172C141.541 111.704 141.457 112.068 141.205 112.572C138.825 117.444 137.789 122.204 137.817 127.356C137.817 127.86 137.677 128 137.173 128H134.317ZM148.79 128C148.426 128 148.23 127.804 148.23 127.44V112.46C148.23 112.208 148.118 111.984 147.698 111.984C147.25 111.984 146.97 112.208 146.214 112.824C145.822 113.132 145.458 113.244 145.458 112.768V108.96C145.458 108.596 145.654 108.4 146.018 108.4H154.502C154.866 108.4 155.062 108.596 155.062 108.96V112.768C155.062 113.244 154.698 113.132 154.306 112.824C153.55 112.208 153.27 111.984 152.822 111.984C152.402 111.984 152.29 112.208 152.29 112.46V127.44C152.29 127.804 152.094 128 151.73 128H148.79ZM160.738 128.28C157.406 128.28 155.306 125.788 155.306 118.2C155.306 110.612 157.406 108.12 160.738 108.12C164.07 108.12 166.198 110.612 166.198 118.2C166.198 125.788 164.07 128.28 160.738 128.28ZM160.738 124.36C161.382 124.36 161.914 123.632 161.914 118.2C161.914 112.74 161.382 112.04 160.738 112.04C160.094 112.04 159.59 112.74 159.59 118.2C159.59 123.632 160.094 124.36 160.738 124.36ZM167.906 128C167.542 128 167.346 127.804 167.346 127.44V112.796C167.346 110.388 167.262 109.996 167.01 108.82C166.954 108.568 167.094 108.4 167.346 108.4H170.594C170.93 108.4 171.154 108.568 171.21 108.876L173.002 117.36C173.03 117.556 173.142 117.668 173.31 117.668C173.506 117.668 173.562 117.528 173.562 117.304C173.534 116.548 173.59 114.112 173.534 112.516C173.45 110.388 173.366 109.996 173.114 108.82C173.058 108.568 173.198 108.4 173.45 108.4H177.118C177.37 108.4 177.51 108.568 177.454 108.82C177.202 109.996 177.118 110.388 177.118 112.796V127.44C177.118 127.804 176.922 128 176.558 128H173.87C173.534 128 173.31 127.832 173.254 127.524L171.434 119.012C171.406 118.816 171.294 118.732 171.154 118.732C170.986 118.732 170.874 118.844 170.874 119.068C170.958 120.944 171.042 124.836 171.042 127.44C171.042 127.804 170.846 128 170.482 128H167.906ZM181.691 128.28C180.431 128.28 179.255 127.916 178.751 127.356C178.387 126.964 178.303 126.516 178.303 126.012V122.54C178.303 122.26 178.415 121.98 178.695 121.98C178.947 121.98 179.059 122.148 179.423 122.68C179.927 123.436 180.403 124.052 181.299 124.052C182.167 124.052 182.475 123.24 182.475 122.596C182.475 121.504 181.747 120.72 180.599 119.404C179.451 118.088 178.275 116.464 178.275 113.972C178.275 110.612 180.039 108.12 183.175 108.12C184.379 108.12 185.303 108.484 185.807 109.016C186.199 109.408 186.255 109.884 186.255 110.388V113.384C186.255 113.692 186.143 113.944 185.863 113.944C185.611 113.944 185.499 113.832 185.079 113.3C184.631 112.712 184.267 112.348 183.679 112.348C182.783 112.348 182.419 113.048 182.419 113.72C182.419 114.868 183.203 115.764 184.407 117.136C185.611 118.536 186.647 120.02 186.647 122.484C186.647 125.816 184.827 128.28 181.691 128.28ZM196.121 128.28C192.789 128.28 190.689 125.788 190.689 118.2C190.689 110.612 192.789 108.12 196.121 108.12C199.453 108.12 201.581 110.612 201.581 118.2C201.581 125.788 199.453 128.28 196.121 128.28ZM196.121 124.36C196.765 124.36 197.297 123.632 197.297 118.2C197.297 112.74 196.765 112.04 196.121 112.04C195.477 112.04 194.973 112.74 194.973 118.2C194.973 123.632 195.477 124.36 196.121 124.36ZM203.289 128C202.925 128 202.729 127.804 202.729 127.44V113.076C202.729 110.668 202.645 109.996 202.393 108.82C202.337 108.568 202.477 108.4 202.729 108.4H210.177C210.345 108.4 210.457 108.512 210.457 108.68V112.572C210.457 112.88 210.205 112.936 209.897 112.768C208.833 112.208 208.245 112.012 207.601 112.012C206.957 112.012 206.789 112.264 206.789 112.712V115.848C206.789 116.016 206.901 116.128 207.069 116.128H209.729C209.897 116.128 210.009 116.24 210.009 116.408V119.74C210.009 119.908 209.897 120.02 209.729 120.02H207.069C206.901 120.02 206.789 120.132 206.789 120.3V127.44C206.789 127.804 206.593 128 206.229 128H203.289ZM220.133 128.28C216.577 128.28 214.477 125.228 214.477 118.2C214.477 111.172 216.577 108.12 220.133 108.12C221.029 108.12 221.953 108.344 222.597 108.848C223.157 109.296 223.269 109.856 223.269 110.528V112.852C223.269 113.272 223.101 113.468 222.849 113.468C222.541 113.468 222.345 113.216 222.093 112.908C221.813 112.572 221.449 112.208 220.833 112.208C219.433 112.208 218.733 113.972 218.733 118.2C218.733 122.428 219.433 124.192 220.833 124.192C221.449 124.192 221.813 123.828 222.093 123.492C222.345 123.184 222.513 122.932 222.821 122.932C223.073 122.932 223.269 123.128 223.269 123.548V125.872C223.269 126.544 223.157 127.104 222.597 127.552C221.953 128.056 221.029 128.28 220.133 128.28ZM229.262 128.28C225.93 128.28 223.83 125.788 223.83 118.2C223.83 110.612 225.93 108.12 229.262 108.12C232.594 108.12 234.722 110.612 234.722 118.2C234.722 125.788 232.594 128.28 229.262 128.28ZM229.262 124.36C229.906 124.36 230.438 123.632 230.438 118.2C230.438 112.74 229.906 112.04 229.262 112.04C228.618 112.04 228.114 112.74 228.114 118.2C228.114 123.632 228.618 124.36 229.262 124.36ZM236.457 130.156C236.205 130.156 236.037 129.988 236.037 129.736V127.972C236.037 127.496 236.121 127.216 236.541 126.712L237.997 124.92C238.473 124.332 238.613 124.024 238.613 123.632C238.613 123.296 238.389 123.072 237.969 123.072C237.605 123.072 237.241 123.24 236.765 123.716C236.597 123.884 236.513 123.94 236.401 123.94C236.289 123.94 236.205 123.856 236.205 123.716V121.672C236.205 121.14 236.261 120.972 236.457 120.692C236.709 120.356 237.493 119.936 238.557 119.936C240.433 119.936 241.525 121.028 241.525 123.044C241.525 124.36 241.049 125.396 240.489 126.04L239.845 126.796C239.733 126.908 239.677 127.048 239.677 127.104C239.677 127.188 239.733 127.3 239.901 127.3H241.357C241.609 127.3 241.777 127.44 241.777 127.72V129.736C241.777 129.988 241.609 130.156 241.357 130.156H236.457Z" fill="white"/>
<path d="M113.72 150.96C113.667 150.96 113.619 150.944 113.576 150.912C113.544 150.891 113.501 150.837 113.448 150.752C112.968 149.963 112.584 149.019 112.296 147.92C112.008 146.811 111.864 145.685 111.864 144.544C111.864 143.392 112.008 142.267 112.296 141.168C112.584 140.059 112.968 139.109 113.448 138.32C113.501 138.235 113.544 138.181 113.576 138.16C113.619 138.128 113.667 138.112 113.72 138.112H114.84C114.893 138.112 114.925 138.128 114.936 138.16C114.957 138.192 114.952 138.229 114.92 138.272C114.408 139.125 114.008 140.101 113.72 141.2C113.432 142.288 113.288 143.403 113.288 144.544C113.288 145.664 113.432 146.773 113.72 147.872C114.019 148.971 114.419 149.947 114.92 150.8L114.952 150.88C114.952 150.933 114.915 150.96 114.84 150.96H113.72ZM118.949 150.16C118.021 150.16 117.216 150 116.533 149.68C115.85 149.349 115.509 148.848 115.509 148.176V146.816C115.509 146.699 115.546 146.64 115.621 146.64C115.664 146.64 115.706 146.677 115.749 146.752C116.09 147.339 116.528 147.797 117.061 148.128C117.594 148.448 118.261 148.608 119.061 148.608C119.797 148.608 120.362 148.459 120.757 148.16C121.162 147.851 121.365 147.424 121.365 146.88C121.365 146.411 121.232 146.059 120.965 145.824C120.709 145.579 120.272 145.413 119.653 145.328L118.389 145.152C117.461 145.024 116.757 144.709 116.277 144.208C115.808 143.696 115.573 143.013 115.573 142.16C115.573 141.147 115.93 140.347 116.645 139.76C117.36 139.173 118.336 138.88 119.573 138.88C120.416 138.88 121.152 139.035 121.781 139.344C122.41 139.643 122.725 140.096 122.725 140.704V142.176C122.725 142.229 122.714 142.277 122.693 142.32C122.672 142.352 122.645 142.368 122.613 142.368C122.56 142.368 122.506 142.325 122.453 142.24C122.08 141.632 121.658 141.179 121.189 140.88C120.72 140.581 120.165 140.432 119.525 140.432C118.832 140.432 118.288 140.571 117.893 140.848C117.509 141.125 117.317 141.525 117.317 142.048C117.317 142.464 117.434 142.8 117.669 143.056C117.914 143.301 118.266 143.456 118.725 143.52L120.357 143.744C121.253 143.872 121.936 144.192 122.405 144.704C122.874 145.205 123.109 145.867 123.109 146.688C123.109 147.776 122.736 148.629 121.989 149.248C121.253 149.856 120.24 150.16 118.949 150.16ZM128.284 150.16C127.388 150.16 126.599 149.979 125.916 149.616C125.234 149.243 124.7 148.715 124.316 148.032C123.943 147.339 123.756 146.528 123.756 145.6C123.756 144.672 123.943 143.867 124.316 143.184C124.7 142.491 125.234 141.963 125.916 141.6C126.599 141.227 127.388 141.04 128.284 141.04C128.956 141.04 129.5 141.131 129.916 141.312C130.343 141.493 130.556 141.733 130.556 142.032V143.472C130.556 143.568 130.524 143.616 130.46 143.616C130.407 143.616 130.348 143.579 130.284 143.504C129.815 142.939 129.154 142.656 128.3 142.656C127.436 142.656 126.759 142.923 126.268 143.456C125.778 143.979 125.532 144.693 125.532 145.6C125.532 146.507 125.778 147.227 126.268 147.76C126.77 148.283 127.452 148.544 128.316 148.544C129.138 148.544 129.794 148.336 130.284 147.92C130.37 147.856 130.434 147.824 130.476 147.824C130.53 147.824 130.556 147.872 130.556 147.968V149.104C130.556 149.403 130.343 149.653 129.916 149.856C129.5 150.059 128.956 150.16 128.284 150.16ZM135.327 150.16C134.463 150.16 133.7 149.973 133.039 149.6C132.388 149.216 131.882 148.683 131.519 148C131.156 147.307 130.975 146.507 130.975 145.6C130.975 144.693 131.156 143.899 131.519 143.216C131.882 142.523 132.388 141.989 133.039 141.616C133.7 141.232 134.463 141.04 135.327 141.04C136.191 141.04 136.948 141.232 137.599 141.616C138.26 141.989 138.767 142.523 139.119 143.216C139.482 143.899 139.663 144.693 139.663 145.6C139.663 146.507 139.482 147.307 139.119 148C138.767 148.683 138.26 149.216 137.599 149.6C136.948 149.973 136.191 150.16 135.327 150.16ZM135.327 148.56C136.106 148.56 136.724 148.293 137.183 147.76C137.652 147.216 137.887 146.496 137.887 145.6C137.887 144.704 137.652 143.989 137.183 143.456C136.724 142.912 136.106 142.64 135.327 142.64C134.548 142.64 133.924 142.912 133.455 143.456C132.986 143.989 132.751 144.704 132.751 145.6C132.751 146.496 132.986 147.216 133.455 147.76C133.924 148.293 134.548 148.56 135.327 148.56ZM140.69 151.76C140.647 151.76 140.61 151.744 140.578 151.712C140.546 151.68 140.53 151.643 140.53 151.6V143.312C140.53 142.789 140.508 142.411 140.465 142.176C140.434 141.941 140.364 141.68 140.258 141.392C140.247 141.371 140.242 141.344 140.242 141.312C140.242 141.237 140.284 141.2 140.37 141.2H142.098C142.151 141.2 142.194 141.216 142.226 141.248C142.258 141.28 142.274 141.317 142.274 141.36V142.384C142.274 142.448 142.295 142.485 142.338 142.496C142.391 142.507 142.434 142.485 142.466 142.432C142.679 142.069 143.015 141.749 143.474 141.472C143.932 141.184 144.519 141.04 145.234 141.04C146.002 141.04 146.674 141.232 147.25 141.616C147.836 141.989 148.284 142.523 148.594 143.216C148.914 143.899 149.074 144.693 149.074 145.6C149.074 146.507 148.914 147.307 148.594 148C148.284 148.683 147.836 149.216 147.25 149.6C146.674 149.973 146.002 150.16 145.234 150.16C144.519 150.16 143.927 150.021 143.458 149.744C142.999 149.456 142.668 149.131 142.466 148.768C142.434 148.725 142.402 148.704 142.37 148.704C142.306 148.704 142.274 148.741 142.274 148.816V151.6C142.274 151.643 142.258 151.68 142.226 151.712C142.194 151.744 142.151 151.76 142.098 151.76H140.69ZM144.77 148.656C145.527 148.656 146.13 148.379 146.578 147.824C147.036 147.269 147.266 146.528 147.266 145.6C147.266 144.672 147.036 143.931 146.578 143.376C146.13 142.821 145.527 142.544 144.77 142.544C143.991 142.544 143.367 142.821 142.898 143.376C142.428 143.931 142.194 144.672 142.194 145.6C142.194 146.528 142.428 147.269 142.898 147.824C143.367 148.379 143.991 148.656 144.77 148.656ZM154.332 150.16C153.436 150.16 152.641 149.989 151.948 149.648C151.265 149.296 150.732 148.779 150.348 148.096C149.964 147.403 149.772 146.56 149.772 145.568C149.772 144.619 149.953 143.803 150.316 143.12C150.679 142.437 151.175 141.92 151.804 141.568C152.433 141.216 153.143 141.04 153.932 141.04C155.052 141.04 155.948 141.365 156.62 142.016C157.303 142.656 157.644 143.557 157.644 144.72C157.644 145.157 157.612 145.488 157.548 145.712C157.484 145.925 157.372 146.069 157.212 146.144C157.063 146.219 156.839 146.256 156.54 146.256H151.82C151.671 146.256 151.601 146.32 151.612 146.448C151.697 147.099 151.991 147.621 152.492 148.016C153.004 148.411 153.665 148.608 154.476 148.608C155.436 148.608 156.289 148.256 157.036 147.552C157.079 147.509 157.127 147.488 157.18 147.488C157.255 147.488 157.292 147.536 157.292 147.632V148.8C157.292 148.939 157.26 149.067 157.196 149.184C157.132 149.291 157.02 149.403 156.86 149.52C156.615 149.691 156.273 149.84 155.836 149.968C155.409 150.096 154.908 150.16 154.332 150.16ZM155.692 144.896C155.863 144.896 155.953 144.811 155.964 144.64L155.98 144.416C155.98 143.883 155.799 143.435 155.436 143.072C155.073 142.709 154.567 142.528 153.916 142.528C153.169 142.528 152.609 142.741 152.236 143.168C151.863 143.584 151.66 144.075 151.628 144.64V144.672C151.628 144.736 151.655 144.789 151.708 144.832C151.772 144.875 151.841 144.896 151.916 144.896H155.692ZM163.748 150C163.641 150 163.588 149.947 163.588 149.84V141.968C163.588 141.883 163.561 141.84 163.508 141.84C163.465 141.84 163.423 141.861 163.38 141.904C162.964 142.363 162.537 142.688 162.1 142.88C161.673 143.061 161.3 143.152 160.98 143.152C160.863 143.152 160.804 143.093 160.804 142.976V141.792C160.804 141.685 160.852 141.627 160.948 141.616C161.577 141.445 162.132 141.152 162.612 140.736C163.103 140.32 163.471 139.797 163.716 139.168C163.748 139.083 163.812 139.04 163.908 139.04H165.188C165.295 139.04 165.348 139.093 165.348 139.2V149.84C165.348 149.947 165.295 150 165.188 150H163.748ZM167.148 151.568C166.935 151.568 166.769 151.531 166.652 151.456C166.535 151.392 166.476 151.296 166.476 151.168V150.704C166.476 150.661 166.487 150.635 166.508 150.624C166.54 150.613 166.577 150.624 166.62 150.656C166.759 150.763 166.945 150.816 167.18 150.816C167.415 150.816 167.591 150.757 167.708 150.64C167.825 150.523 167.884 150.384 167.884 150.224C167.884 150.139 167.836 150.096 167.74 150.096H167.5C167.18 150.096 166.929 150.016 166.748 149.856C166.577 149.685 166.492 149.461 166.492 149.184C166.492 148.896 166.588 148.661 166.78 148.48C166.972 148.288 167.233 148.192 167.564 148.192C167.927 148.192 168.209 148.325 168.412 148.592C168.625 148.848 168.732 149.205 168.732 149.664C168.732 150.272 168.593 150.741 168.316 151.072C168.049 151.403 167.66 151.568 167.148 151.568ZM175.48 150.16C174.552 150.16 173.747 150 173.064 149.68C172.382 149.349 172.04 148.848 172.04 148.176V146.816C172.04 146.699 172.078 146.64 172.152 146.64C172.195 146.64 172.238 146.677 172.28 146.752C172.622 147.339 173.059 147.797 173.592 148.128C174.126 148.448 174.792 148.608 175.592 148.608C176.328 148.608 176.894 148.459 177.288 148.16C177.694 147.851 177.896 147.424 177.896 146.88C177.896 146.411 177.763 146.059 177.496 145.824C177.24 145.579 176.803 145.413 176.184 145.328L174.92 145.152C173.992 145.024 173.288 144.709 172.808 144.208C172.339 143.696 172.104 143.013 172.104 142.16C172.104 141.147 172.462 140.347 173.176 139.76C173.891 139.173 174.867 138.88 176.104 138.88C176.947 138.88 177.683 139.035 178.312 139.344C178.942 139.643 179.256 140.096 179.256 140.704V142.176C179.256 142.229 179.246 142.277 179.224 142.32C179.203 142.352 179.176 142.368 179.144 142.368C179.091 142.368 179.038 142.325 178.984 142.24C178.611 141.632 178.19 141.179 177.72 140.88C177.251 140.581 176.696 140.432 176.056 140.432C175.363 140.432 174.819 140.571 174.424 140.848C174.04 141.125 173.848 141.525 173.848 142.048C173.848 142.464 173.966 142.8 174.2 143.056C174.446 143.301 174.798 143.456 175.256 143.52L176.888 143.744C177.784 143.872 178.467 144.192 178.936 144.704C179.406 145.205 179.64 145.867 179.64 146.688C179.64 147.776 179.267 148.629 178.52 149.248C177.784 149.856 176.771 150.16 175.48 150.16ZM184.816 150.16C183.92 150.16 183.13 149.979 182.448 149.616C181.765 149.243 181.232 148.715 180.848 148.032C180.474 147.339 180.288 146.528 180.288 145.6C180.288 144.672 180.474 143.867 180.848 143.184C181.232 142.491 181.765 141.963 182.448 141.6C183.13 141.227 183.92 141.04 184.816 141.04C185.488 141.04 186.032 141.131 186.448 141.312C186.874 141.493 187.088 141.733 187.088 142.032V143.472C187.088 143.568 187.056 143.616 186.992 143.616C186.938 143.616 186.88 143.579 186.816 143.504C186.346 142.939 185.685 142.656 184.832 142.656C183.968 142.656 183.29 142.923 182.8 143.456C182.309 143.979 182.064 144.693 182.064 145.6C182.064 146.507 182.309 147.227 182.8 147.76C183.301 148.283 183.984 148.544 184.848 148.544C185.669 148.544 186.325 148.336 186.816 147.92C186.901 147.856 186.965 147.824 187.008 147.824C187.061 147.824 187.088 147.872 187.088 147.968V149.104C187.088 149.403 186.874 149.653 186.448 149.856C186.032 150.059 185.488 150.16 184.816 150.16ZM191.858 150.16C190.994 150.16 190.232 149.973 189.57 149.6C188.92 149.216 188.413 148.683 188.05 148C187.688 147.307 187.506 146.507 187.506 145.6C187.506 144.693 187.688 143.899 188.05 143.216C188.413 142.523 188.92 141.989 189.57 141.616C190.232 141.232 190.994 141.04 191.858 141.04C192.722 141.04 193.48 141.232 194.13 141.616C194.792 141.989 195.298 142.523 195.65 143.216C196.013 143.899 196.194 144.693 196.194 145.6C196.194 146.507 196.013 147.307 195.65 148C195.298 148.683 194.792 149.216 194.13 149.6C193.48 149.973 192.722 150.16 191.858 150.16ZM191.858 148.56C192.637 148.56 193.256 148.293 193.714 147.76C194.184 147.216 194.418 146.496 194.418 145.6C194.418 144.704 194.184 143.989 193.714 143.456C193.256 142.912 192.637 142.64 191.858 142.64C191.08 142.64 190.456 142.912 189.986 143.456C189.517 143.989 189.282 144.704 189.282 145.6C189.282 146.496 189.517 147.216 189.986 147.76C190.456 148.293 191.08 148.56 191.858 148.56ZM197.221 151.76C197.178 151.76 197.141 151.744 197.109 151.712C197.077 151.68 197.061 151.643 197.061 151.6V143.312C197.061 142.789 197.039 142.411 196.997 142.176C196.965 141.941 196.895 141.68 196.789 141.392C196.778 141.371 196.773 141.344 196.773 141.312C196.773 141.237 196.815 141.2 196.901 141.2H198.629C198.682 141.2 198.725 141.216 198.757 141.248C198.789 141.28 198.805 141.317 198.805 141.36V142.384C198.805 142.448 198.826 142.485 198.869 142.496C198.922 142.507 198.965 142.485 198.997 142.432C199.21 142.069 199.546 141.749 200.005 141.472C200.463 141.184 201.05 141.04 201.765 141.04C202.533 141.04 203.205 141.232 203.781 141.616C204.367 141.989 204.815 142.523 205.125 143.216C205.445 143.899 205.605 144.693 205.605 145.6C205.605 146.507 205.445 147.307 205.125 148C204.815 148.683 204.367 149.216 203.781 149.6C203.205 149.973 202.533 150.16 201.765 150.16C201.05 150.16 200.458 150.021 199.989 149.744C199.53 149.456 199.199 149.131 198.997 148.768C198.965 148.725 198.933 148.704 198.901 148.704C198.837 148.704 198.805 148.741 198.805 148.816V151.6C198.805 151.643 198.789 151.68 198.757 151.712C198.725 151.744 198.682 151.76 198.629 151.76H197.221ZM201.301 148.656C202.058 148.656 202.661 148.379 203.109 147.824C203.567 147.269 203.797 146.528 203.797 145.6C203.797 144.672 203.567 143.931 203.109 143.376C202.661 142.821 202.058 142.544 201.301 142.544C200.522 142.544 199.898 142.821 199.429 143.376C198.959 143.931 198.725 144.672 198.725 145.6C198.725 146.528 198.959 147.269 199.429 147.824C199.898 148.379 200.522 148.656 201.301 148.656ZM210.863 150.16C209.967 150.16 209.173 149.989 208.479 149.648C207.797 149.296 207.263 148.779 206.879 148.096C206.495 147.403 206.303 146.56 206.303 145.568C206.303 144.619 206.485 143.803 206.847 143.12C207.21 142.437 207.706 141.92 208.335 141.568C208.965 141.216 209.674 141.04 210.463 141.04C211.583 141.04 212.479 141.365 213.151 142.016C213.834 142.656 214.175 143.557 214.175 144.72C214.175 145.157 214.143 145.488 214.079 145.712C214.015 145.925 213.903 146.069 213.743 146.144C213.594 146.219 213.37 146.256 213.071 146.256H208.351C208.202 146.256 208.133 146.32 208.143 146.448C208.229 147.099 208.522 147.621 209.023 148.016C209.535 148.411 210.197 148.608 211.007 148.608C211.967 148.608 212.821 148.256 213.567 147.552C213.61 147.509 213.658 147.488 213.711 147.488C213.786 147.488 213.823 147.536 213.823 147.632V148.8C213.823 148.939 213.791 149.067 213.727 149.184C213.663 149.291 213.551 149.403 213.391 149.52C213.146 149.691 212.805 149.84 212.367 149.968C211.941 150.096 211.439 150.16 210.863 150.16ZM212.223 144.896C212.394 144.896 212.485 144.811 212.495 144.64L212.511 144.416C212.511 143.883 212.33 143.435 211.967 143.072C211.605 142.709 211.098 142.528 210.447 142.528C209.701 142.528 209.141 142.741 208.767 143.168C208.394 143.584 208.191 144.075 208.159 144.64V144.672C208.159 144.736 208.186 144.789 208.239 144.832C208.303 144.875 208.373 144.896 208.447 144.896H212.223ZM217.735 150C217.629 150 217.575 149.947 217.575 149.84V148.88C217.575 148.773 217.613 148.683 217.687 148.608L220.071 146.16C220.978 145.232 221.618 144.485 221.991 143.92C222.375 143.355 222.567 142.789 222.567 142.224C222.567 141.669 222.407 141.243 222.087 140.944C221.778 140.635 221.319 140.48 220.711 140.48C220.082 140.48 219.549 140.645 219.111 140.976C218.674 141.307 218.237 141.819 217.799 142.512C217.757 142.587 217.709 142.624 217.655 142.624C217.581 142.624 217.543 142.565 217.543 142.448V141.008C217.543 140.805 217.559 140.64 217.591 140.512C217.634 140.384 217.703 140.256 217.799 140.128C218.066 139.776 218.455 139.483 218.967 139.248C219.49 139.003 220.066 138.88 220.695 138.88C221.421 138.88 222.061 139.019 222.615 139.296C223.17 139.563 223.597 139.941 223.895 140.432C224.205 140.912 224.359 141.461 224.359 142.08C224.359 142.795 224.151 143.488 223.735 144.16C223.319 144.821 222.679 145.605 221.815 146.512L220.263 148.16C220.221 148.203 220.199 148.245 220.199 148.288C220.199 148.363 220.258 148.4 220.375 148.4H224.471C224.578 148.4 224.631 148.453 224.631 148.56V149.84C224.631 149.947 224.578 150 224.471 150H217.735ZM225.194 150.96C225.141 150.96 225.104 150.944 225.082 150.912C225.072 150.88 225.082 150.843 225.114 150.8C225.616 149.947 226.01 148.971 226.298 147.872C226.597 146.773 226.746 145.664 226.746 144.544C226.746 143.403 226.602 142.288 226.314 141.2C226.026 140.101 225.626 139.125 225.114 138.272L225.082 138.192C225.082 138.139 225.12 138.112 225.194 138.112H226.314C226.368 138.112 226.41 138.128 226.442 138.16C226.485 138.181 226.533 138.235 226.586 138.32C227.066 139.109 227.45 140.059 227.738 141.168C228.026 142.267 228.17 143.392 228.17 144.544C228.17 145.685 228.026 146.811 227.738 147.92C227.45 149.019 227.066 149.963 226.586 150.752C226.533 150.837 226.485 150.891 226.442 150.912C226.41 150.944 226.368 150.96 226.314 150.96H225.194Z" fill="white"/>
</svg>
