<svg width="32" height="33" viewBox="0 0 32 33" fill="none" xmlns="http://www.w3.org/2000/svg">
<path fill-rule="evenodd" clip-rule="evenodd" d="M0 16.9679C0 8.13134 7.16344 0.967896 16 0.967896C24.8365 0.967896 32 8.13134 32 16.9679C32 25.8044 24.8365 32.9679 16 32.9679C7.16344 32.9679 0 25.8044 0 16.9679ZM16 8.9679C20.4 8.9679 24 12.5679 24 16.9679C24 20.9679 21.1 24.3679 17.1 24.9679V19.2679H19L19.4 16.9679H17.2V15.4679C17.2 14.8679 17.5 14.2679 18.5 14.2679H19.5V12.2679C19.5 12.2679 18.6 12.0679 17.7 12.0679C15.9 12.0679 14.7 13.1679 14.7 15.1679V16.9679H12.7V19.2679H14.7V24.8679C10.9 24.2679 8 20.9679 8 16.9679C8 12.5679 11.6 8.9679 16 8.9679Z" fill="#FFFFF1"/>
</svg>
