<svg width="1440" height="735" viewBox="0 0 1440 735" fill="none" xmlns="http://www.w3.org/2000/svg">
<path d="M110.16 225C109.12 225 108.56 224.44 108.56 223.4V180.6C108.56 179.88 108.24 179.24 107.04 179.24C105.76 179.24 104.96 179.88 102.8 181.64C102.24 182.12 101.68 182.44 101.28 182.44C100.88 182.44 100.64 182.12 100.64 181.48V170.6C100.64 169.56 101.2 169 102.24 169H126.48C127.52 169 128.08 169.56 128.08 170.6V181.48C128.08 182.12 127.84 182.44 127.44 182.44C127.04 182.44 126.48 182.12 125.92 181.64C123.76 179.88 122.96 179.24 121.68 179.24C120.48 179.24 120.16 179.88 120.16 180.6V223.4C120.16 224.44 119.6 225 118.56 225H110.16ZM132.51 225C131.47 225 130.91 224.44 130.91 223.4V182.36C130.91 175.48 130.67 173.56 129.95 170.2C129.79 169.48 130.19 169 130.91 169H142.51C143.23 169 143.63 169.48 143.47 170.2C142.75 173.56 142.51 175.48 142.51 182.36V189.16C142.51 189.48 142.67 189.64 142.99 189.64H147.63C147.95 189.64 148.11 189.48 148.11 189.16V182.36C148.11 175.48 147.87 173.56 147.15 170.2C146.99 169.48 147.39 169 148.11 169H159.71C160.43 169 160.83 169.48 160.67 170.2C159.95 173.56 159.71 175.48 159.71 182.36V223.4C159.71 224.44 159.15 225 158.11 225H149.71C148.67 225 148.11 224.44 148.11 223.4V202.52C148.11 202.2 147.95 202.04 147.63 202.04H142.99C142.67 202.04 142.51 202.2 142.51 202.52V223.4C142.51 224.44 141.95 225 140.91 225H132.51ZM178.515 225.8C168.995 225.8 162.995 218.68 162.995 197C162.995 175.32 168.995 168.2 178.515 168.2C188.035 168.2 194.115 175.32 194.115 197C194.115 218.68 188.035 225.8 178.515 225.8ZM178.515 214.6C180.355 214.6 181.875 212.52 181.875 197C181.875 181.4 180.355 179.4 178.515 179.4C176.675 179.4 175.235 181.4 175.235 197C175.235 212.52 176.675 214.6 178.515 214.6ZM171.715 166.76C170.995 166.76 170.835 166.36 170.835 165.96V164.36C170.835 163.96 171.075 163.72 171.395 163.64C173.955 163.24 175.715 162.28 177.395 160.68C177.795 160.28 178.195 160.04 178.595 160.04C178.995 160.04 179.395 160.28 179.795 160.68C181.475 162.28 183.235 163.24 185.795 163.64C186.115 163.72 186.355 163.96 186.355 164.36V165.96C186.355 166.36 186.195 166.76 185.475 166.76C182.515 166.76 179.715 165.24 178.595 163.56C177.475 165.24 174.675 166.76 171.715 166.76ZM198.994 225C197.954 225 197.394 224.44 197.394 223.4V181.56C197.394 174.68 197.154 173.56 196.434 170.2C196.274 169.48 196.674 169 197.394 169H206.674C207.634 169 208.274 169.48 208.434 170.36L213.554 194.6C213.634 195.16 213.954 195.48 214.434 195.48C214.994 195.48 215.154 195.08 215.154 194.44C215.074 192.28 215.234 185.32 215.074 180.76C214.834 174.68 214.594 173.56 213.874 170.2C213.714 169.48 214.114 169 214.834 169H225.314C226.034 169 226.434 169.48 226.274 170.2C225.554 173.56 225.314 174.68 225.314 181.56V223.4C225.314 224.44 224.754 225 223.714 225H216.034C215.074 225 214.434 224.52 214.274 223.64L209.074 199.32C208.994 198.76 208.674 198.52 208.274 198.52C207.794 198.52 207.474 198.84 207.474 199.48C207.714 204.84 207.954 215.96 207.954 223.4C207.954 224.44 207.394 225 206.354 225H198.994ZM244.46 225.8C233.26 225.8 228.54 216.28 228.54 197C228.54 176.84 234.62 168.2 245.1 168.2C248.14 168.2 251.34 168.68 253.1 170.52C254.06 171.48 254.46 172.68 254.46 174.36V181.64C254.46 182.68 254.22 183.56 253.26 183.56C252.7 183.56 252.22 183.32 251.18 182.12C250.3 181.08 249.18 179.88 247.26 179.88C242.78 179.88 240.62 185.16 240.62 197.16C240.62 200.44 240.78 214.92 244.22 214.92C244.94 214.92 245.26 214.2 245.26 213.08V206.04C245.26 199.16 245.02 198.04 244.3 194.68C244.14 193.96 244.54 193.48 245.26 193.48H253.9C254.94 193.48 255.58 194.04 255.58 195.08V212.68C255.58 222.44 250.38 225.8 244.46 225.8ZM276.723 225C275.683 225 275.123 224.44 275.123 223.4V180.6C275.123 179.88 274.803 179.24 273.603 179.24C272.323 179.24 271.523 179.88 269.363 181.64C268.803 182.12 268.243 182.44 267.843 182.44C267.443 182.44 267.203 182.12 267.203 181.48V170.6C267.203 169.56 267.763 169 268.803 169H293.043C294.083 169 294.643 169.56 294.643 170.6V181.48C294.643 182.12 294.403 182.44 294.003 182.44C293.603 182.44 293.043 182.12 292.483 181.64C290.323 179.88 289.523 179.24 288.243 179.24C287.043 179.24 286.723 179.88 286.723 180.6V223.4C286.723 224.44 286.163 225 285.123 225H276.723ZM299.073 225C298.033 225 297.473 224.44 297.473 223.4V181.56C297.473 174.68 297.233 173.56 296.513 170.2C296.353 169.48 296.753 169 297.473 169H309.073C309.793 169 310.193 169.48 310.033 170.2C309.313 173.56 309.073 174.68 309.073 181.56V223.4C309.073 224.44 308.513 225 307.473 225H299.073ZM315.01 225C313.97 225 313.41 224.44 313.41 223.4V181.56C313.41 174.68 313.17 173.56 312.45 170.2C312.29 169.48 312.69 169 313.41 169H322.69C323.65 169 324.29 169.48 324.45 170.36L329.57 194.6C329.65 195.16 329.97 195.48 330.45 195.48C331.01 195.48 331.17 195.08 331.17 194.44C331.09 192.28 331.25 185.32 331.09 180.76C330.85 174.68 330.61 173.56 329.89 170.2C329.73 169.48 330.13 169 330.85 169H341.33C342.05 169 342.45 169.48 342.29 170.2C341.57 173.56 341.33 174.68 341.33 181.56V223.4C341.33 224.44 340.77 225 339.73 225H332.05C331.09 225 330.45 224.52 330.29 223.64L325.09 199.32C325.01 198.76 324.69 198.52 324.29 198.52C323.81 198.52 323.49 198.84 323.49 199.48C323.73 204.84 323.97 215.96 323.97 223.4C323.97 224.44 323.41 225 322.37 225H315.01ZM370.481 225.8C360.321 225.8 354.321 217.08 354.321 197C354.321 176.92 360.321 168.2 370.481 168.2C373.041 168.2 375.681 168.84 377.521 170.28C379.121 171.56 379.441 173.16 379.441 175.08V181.72C379.441 182.92 378.961 183.48 378.241 183.48C377.361 183.48 376.801 182.76 376.081 181.88C375.281 180.92 374.241 179.88 372.481 179.88C368.481 179.88 366.481 184.92 366.481 197C366.481 209.08 368.481 214.12 372.481 214.12C374.241 214.12 375.281 213.08 376.081 212.12C376.801 211.24 377.281 210.52 378.161 210.52C378.881 210.52 379.441 211.08 379.441 212.28V218.92C379.441 220.84 379.121 222.44 377.521 223.72C375.681 225.16 373.041 225.8 370.481 225.8ZM384.151 225C383.111 225 382.551 224.44 382.551 223.4V182.36C382.551 175.48 382.311 173.56 381.591 170.2C381.431 169.48 381.831 169 382.551 169H394.151C394.871 169 395.271 169.48 395.111 170.2C394.391 173.56 394.151 175.48 394.151 182.36V189.16C394.151 189.48 394.311 189.64 394.631 189.64H399.271C399.591 189.64 399.751 189.48 399.751 189.16V182.36C399.751 175.48 399.511 173.56 398.791 170.2C398.631 169.48 399.031 169 399.751 169H411.351C412.071 169 412.471 169.48 412.311 170.2C411.591 173.56 411.351 175.48 411.351 182.36V223.4C411.351 224.44 410.791 225 409.751 225H401.351C400.311 225 399.751 224.44 399.751 223.4V202.52C399.751 202.2 399.591 202.04 399.271 202.04H394.631C394.311 202.04 394.151 202.2 394.151 202.52V223.4C394.151 224.44 393.591 225 392.551 225H384.151ZM429.676 225.8C420.716 225.8 415.596 220.36 415.596 210.52V182.36C415.596 175.48 415.356 173.56 414.636 170.2C414.476 169.48 414.876 169 415.596 169H427.196C427.916 169 428.316 169.48 428.156 170.2C427.436 173.56 427.196 175.48 427.196 182.36V210.68C427.196 212.76 428.156 213.88 429.676 213.88C431.116 213.88 432.076 212.76 432.076 210.68V182.36C432.076 175.48 431.836 173.56 431.116 170.2C430.956 169.48 431.356 169 432.076 169H443.676C444.396 169 444.796 169.48 444.636 170.2C443.916 173.56 443.676 175.48 443.676 182.36V210.52C443.676 220.36 438.556 225.8 429.676 225.8ZM449.541 225C448.501 225 447.941 224.44 447.941 223.4V181.56C447.941 174.68 447.701 173.56 446.981 170.2C446.821 169.48 447.221 169 447.941 169H457.221C458.181 169 458.821 169.48 458.981 170.36L464.101 194.6C464.181 195.16 464.501 195.48 464.981 195.48C465.541 195.48 465.701 195.08 465.701 194.44C465.621 192.28 465.781 185.32 465.621 180.76C465.381 174.68 465.141 173.56 464.421 170.2C464.261 169.48 464.661 169 465.381 169H475.861C476.581 169 476.981 169.48 476.821 170.2C476.101 173.56 475.861 174.68 475.861 181.56V223.4C475.861 224.44 475.301 225 474.261 225H466.581C465.621 225 464.981 224.52 464.821 223.64L459.621 199.32C459.541 198.76 459.221 198.52 458.821 198.52C458.341 198.52 458.021 198.84 458.021 199.48C458.261 204.84 458.501 215.96 458.501 223.4C458.501 224.44 457.941 225 456.901 225H449.541ZM495.007 225.8C483.807 225.8 479.087 216.28 479.087 197C479.087 176.84 485.167 168.2 495.647 168.2C498.687 168.2 501.887 168.68 503.647 170.52C504.607 171.48 505.007 172.68 505.007 174.36V181.64C505.007 182.68 504.767 183.56 503.807 183.56C503.247 183.56 502.767 183.32 501.727 182.12C500.847 181.08 499.727 179.88 497.807 179.88C493.327 179.88 491.167 185.16 491.167 197.16C491.167 200.44 491.327 214.92 494.767 214.92C495.487 214.92 495.807 214.2 495.807 213.08V206.04C495.807 199.16 495.567 198.04 494.847 194.68C494.687 193.96 495.087 193.48 495.807 193.48H504.447C505.487 193.48 506.127 194.04 506.127 195.08V212.68C506.127 222.44 500.927 225.8 495.007 225.8Z" fill="#0213B0"/>
</svg>
