<svg width="375" height="405" viewBox="0 0 375 405" fill="none" xmlns="http://www.w3.org/2000/svg">
<path d="M101.816 101C100.984 101 100.536 100.552 100.536 99.72V65.48C100.536 64.904 100.28 64.392 99.3195 64.392C98.2955 64.392 97.6555 64.904 95.9275 66.312C95.0315 67.016 94.1995 67.272 94.1995 66.184V57.48C94.1995 56.648 94.6475 56.2 95.4795 56.2H114.872C115.704 56.2 116.152 56.648 116.152 57.48V66.184C116.152 67.272 115.32 67.016 114.424 66.312C112.696 64.904 112.056 64.392 111.032 64.392C110.072 64.392 109.816 64.904 109.816 65.48V99.72C109.816 100.552 109.368 101 108.536 101H101.816ZM119.184 101C118.544 101 118.16 100.616 118.16 99.976V66.248C118.16 60.744 117.968 59.848 117.392 57.16C117.264 56.584 117.648 56.2 118.16 56.2H125.776C126.416 56.2 126.8 56.52 126.8 57.224V68.104C126.8 68.424 126.864 68.616 127.056 68.616C127.184 68.616 127.376 68.488 127.632 68.104C128.528 66.824 130.32 65.16 133.392 65.16C139.6 65.16 140.688 70.216 140.688 73.352V99.72C140.688 100.552 140.24 101 139.408 101H132.624C131.984 101 131.6 100.616 131.6 99.976V75.272C131.6 73.288 130.832 72.2 129.488 72.2C128.08 72.2 127.248 73.288 127.248 75.272V99.976C127.248 100.616 126.864 101 126.224 101H119.184ZM154.733 101.64C146.413 101.64 142.893 94.664 142.893 83.4C142.893 72.136 146.413 65.16 154.733 65.16C163.053 65.16 166.573 72.136 166.573 83.4C166.573 94.664 163.053 101.64 154.733 101.64ZM154.733 94.28C156.269 94.28 157.101 92.296 157.101 83.4C157.101 74.504 156.269 72.52 154.733 72.52C153.197 72.52 152.365 74.504 152.365 83.4C152.365 92.296 153.197 94.28 154.733 94.28ZM149.229 64.008C148.653 64.008 148.525 63.688 148.525 63.368V62.088C148.525 61.768 148.717 61.576 148.973 61.512C151.021 61.192 152.429 60.424 153.773 59.144C154.093 58.824 154.413 58.632 154.733 58.632C155.053 58.632 155.373 58.824 155.693 59.144C157.037 60.424 158.445 61.192 160.493 61.512C160.749 61.576 160.941 61.768 160.941 62.088V63.368C160.941 63.688 160.813 64.008 160.237 64.008C157.869 64.008 155.629 62.792 154.733 61.448C153.837 62.792 151.597 64.008 149.229 64.008ZM169.873 101C169.233 101 168.849 100.616 168.849 99.976V75.848C168.849 70.344 168.657 69.448 168.081 66.76C167.953 66.184 168.337 65.8 168.849 65.8H176.465C177.105 65.8 177.489 66.12 177.489 66.824V68.232C177.489 68.424 177.553 68.616 177.745 68.616C177.937 68.616 178.065 68.488 178.321 68.104C179.217 66.824 181.009 65.16 184.081 65.16C190.289 65.16 191.377 70.216 191.377 73.352V99.72C191.377 100.552 190.929 101 190.097 101H183.312C182.673 101 182.289 100.616 182.289 99.976V75.272C182.289 73.288 181.521 72.2 180.177 72.2C178.769 72.2 177.937 73.288 177.937 75.272V99.976C177.937 100.616 177.553 101 176.913 101H169.873ZM203.629 108.36C201.133 108.36 198.957 107.976 197.677 107.528C196.269 107.016 195.885 106.44 195.885 105.096V100.936C195.885 100.168 196.205 99.912 197.036 100.232C198.317 100.68 200.301 101.384 202.733 101.384C205.997 101.384 208.045 100.168 208.045 96.392V96.2C208.045 95.624 207.981 95.496 207.789 95.496C207.597 95.496 207.405 95.752 207.149 96.136C206.445 97.16 205.165 99.08 202.029 99.08C196.077 99.08 193.645 92.104 193.645 82.12C193.645 72.136 196.077 65.16 202.029 65.16C205.165 65.16 206.445 67.08 207.149 68.104C207.405 68.488 207.597 68.744 207.789 68.744C207.981 68.744 208.045 68.552 208.045 68.296V66.824C208.045 66.12 208.429 65.8 209.069 65.8H215.661C216.301 65.8 216.685 66.184 216.685 66.824V96.136C216.685 102.984 213.165 108.36 203.629 108.36ZM205.485 91.72C207.021 91.72 207.853 89.736 207.853 82.12C207.853 74.504 207.021 72.52 205.485 72.52C203.949 72.52 203.117 74.504 203.117 82.12C203.117 89.736 203.949 91.72 205.485 91.72ZM237.071 101.64C232.079 101.64 229.327 99.4 229.327 94.216V73.032C229.327 72.648 229.071 72.392 228.687 72.392H227.343C226.895 72.392 226.575 72.072 226.575 71.624V66.568C226.575 66.12 226.895 65.8 227.343 65.8H228.687C229.071 65.8 229.327 65.544 229.327 65.16V58.568C229.327 57.928 229.711 57.544 230.351 57.544H237.007C237.647 57.544 238.031 57.928 238.031 58.568V65.16C238.031 65.544 238.287 65.8 238.671 65.8H241.359C241.807 65.8 242.127 66.12 242.127 66.568V71.624C242.127 72.072 241.807 72.392 241.359 72.392H238.671C238.287 72.392 238.031 72.648 238.031 73.032V92.296C238.031 93.64 238.607 94.088 239.567 94.088C240.335 94.088 240.655 93.96 241.231 93.768C241.807 93.576 242.127 93.64 242.127 94.216V99.336C242.127 100.04 241.935 100.488 241.103 100.872C240.143 101.32 238.927 101.64 237.071 101.64ZM245.185 101C244.545 101 244.161 100.616 244.161 99.976V75.848C244.161 70.344 243.969 69.448 243.393 66.76C243.265 66.184 243.649 65.8 244.161 65.8H252.225C252.865 65.8 253.249 66.12 253.249 66.824V99.976C253.249 100.616 252.865 101 252.225 101H245.185ZM248.641 64.2C246.209 64.2 243.777 62.984 243.777 60.36C243.777 57.544 246.209 56.52 248.641 56.52C251.073 56.52 253.569 57.544 253.569 60.36C253.569 62.984 251.073 64.2 248.641 64.2ZM257.373 101C256.733 101 256.349 100.616 256.349 99.976V75.848C256.349 70.344 256.157 69.448 255.581 66.76C255.453 66.184 255.837 65.8 256.349 65.8H263.965C264.605 65.8 264.989 66.12 264.989 66.824V68.232C264.989 68.424 265.053 68.616 265.245 68.616C265.437 68.616 265.565 68.488 265.821 68.104C266.717 66.824 268.509 65.16 271.581 65.16C277.789 65.16 278.877 70.216 278.877 73.352V99.72C278.877 100.552 278.429 101 277.597 101H270.812C270.173 101 269.789 100.616 269.789 99.976V75.272C269.789 73.288 269.021 72.2 267.677 72.2C266.269 72.2 265.437 73.288 265.437 75.272V99.976C265.437 100.616 265.053 101 264.413 101H257.373ZM139.955 168.64C133.235 168.64 127.987 163.328 127.987 150.4C127.987 137.472 133.235 132.16 139.955 132.16C141.363 132.16 142.835 132.416 143.731 132.928C144.499 133.376 144.883 133.888 144.883 134.912V141.376C144.883 142.272 144.307 142.272 143.859 141.824C143.091 141.056 142.515 140.672 141.747 140.672C139.635 140.672 137.459 142.784 137.459 150.4C137.459 158.016 139.635 160.128 141.747 160.128C142.515 160.128 143.155 159.744 143.923 158.976C144.307 158.592 144.883 158.528 144.883 159.424V165.888C144.883 166.912 144.499 167.424 143.731 167.872C142.835 168.384 141.363 168.64 139.955 168.64ZM148.152 168C147.512 168 147.128 167.616 147.128 166.976V133.248C147.128 127.744 146.936 126.848 146.36 124.16C146.232 123.584 146.616 123.2 147.128 123.2H154.744C155.384 123.2 155.768 123.52 155.768 124.224V135.104C155.768 135.424 155.832 135.616 156.024 135.616C156.152 135.616 156.344 135.488 156.6 135.104C157.496 133.824 159.288 132.16 162.36 132.16C168.568 132.16 169.656 137.216 169.656 140.352V166.72C169.656 167.552 169.208 168 168.376 168H161.592C160.952 168 160.568 167.616 160.568 166.976V142.272C160.568 140.288 159.8 139.2 158.456 139.2C157.048 139.2 156.216 140.288 156.216 142.272V166.976C156.216 167.616 155.832 168 155.192 168H148.152ZM179.35 168.64C173.59 168.64 172.502 163.584 172.502 159.808V142.848C172.502 137.344 172.31 136.448 171.734 133.76C171.606 133.184 171.99 132.8 172.502 132.8H180.566C181.206 132.8 181.59 133.184 181.59 133.824V159.168C181.59 160.704 182.294 161.6 183.446 161.6C184.598 161.6 185.238 160.704 185.238 159.168V142.848C185.238 137.344 185.046 136.448 184.47 133.76C184.342 133.184 184.726 132.8 185.238 132.8H193.302C193.942 132.8 194.326 133.184 194.326 133.824V166.72C194.326 167.552 193.878 168 193.046 168H186.71C186.07 168 185.686 167.68 185.686 166.976V165.76C185.686 165.376 185.622 165.184 185.43 165.184C185.238 165.184 185.11 165.312 184.854 165.696C183.958 166.912 182.422 168.64 179.35 168.64ZM198.404 168C197.764 168 197.38 167.616 197.38 166.976V142.848C197.38 137.344 197.188 136.448 196.612 133.76C196.484 133.184 196.868 132.8 197.38 132.8H204.996C205.636 132.8 206.02 133.12 206.02 133.824V135.232C206.02 135.424 206.084 135.616 206.276 135.616C206.468 135.616 206.596 135.488 206.852 135.104C207.748 133.824 209.54 132.16 212.612 132.16C218.82 132.16 219.908 137.216 219.908 140.352V166.72C219.908 167.552 219.46 168 218.628 168H211.844C211.204 168 210.82 167.616 210.82 166.976V142.272C210.82 140.288 210.052 139.2 208.708 139.2C207.3 139.2 206.468 140.288 206.468 142.272V166.976C206.468 167.616 206.084 168 205.444 168H198.404ZM232.16 175.36C229.664 175.36 227.488 174.976 226.208 174.528C224.8 174.016 224.416 173.44 224.416 172.096V167.936C224.416 167.168 224.736 166.912 225.568 167.232C226.848 167.68 228.832 168.384 231.264 168.384C234.528 168.384 236.576 167.168 236.576 163.392V163.2C236.576 162.624 236.512 162.496 236.32 162.496C236.128 162.496 235.936 162.752 235.68 163.136C234.976 164.16 233.696 166.08 230.56 166.08C224.608 166.08 222.176 159.104 222.176 149.12C222.176 139.136 224.608 132.16 230.56 132.16C233.696 132.16 234.976 134.08 235.68 135.104C235.936 135.488 236.128 135.744 236.32 135.744C236.512 135.744 236.576 135.552 236.576 135.296V133.824C236.576 133.12 236.96 132.8 237.6 132.8H244.192C244.832 132.8 245.216 133.184 245.216 133.824V163.136C245.216 169.984 241.696 175.36 232.16 175.36ZM234.016 158.72C235.552 158.72 236.384 156.736 236.384 149.12C236.384 141.504 235.552 139.52 234.016 139.52C232.48 139.52 231.648 141.504 231.648 149.12C231.648 156.736 232.48 158.72 234.016 158.72Z" fill="#0213B0"/>
<rect y="382" width="16.2214" height="23" fill="#3459FF"/>
<rect x="16.2214" y="382" width="8.77865" height="23" fill="#38C0FF"/>
<rect x="25" y="382" width="16.2214" height="23" fill="#3459FF"/>
<rect x="41.2215" y="382" width="8.77865" height="23" fill="#38C0FF"/>
<rect x="50" y="382" width="16.2214" height="23" fill="#3459FF"/>
<rect x="66.2215" y="382" width="8.77865" height="23" fill="#38C0FF"/>
<rect x="75" y="382" width="16.2214" height="23" fill="#3459FF"/>
<rect x="91.2216" y="382" width="8.77865" height="23" fill="#38C0FF"/>
<rect x="100" y="382" width="16.2214" height="23" fill="#3459FF"/>
<rect x="116.221" y="382" width="8.77865" height="23" fill="#38C0FF"/>
<rect x="125" y="382" width="16.2214" height="23" fill="#3459FF"/>
<rect x="141.221" y="382" width="8.77865" height="23" fill="#38C0FF"/>
<rect x="150" y="382" width="16.2214" height="23" fill="#3459FF"/>
<rect x="166.221" y="382" width="8.77865" height="23" fill="#38C0FF"/>
<rect x="175" y="382" width="16.2214" height="23" fill="#3459FF"/>
<rect x="191.221" y="382" width="8.77865" height="23" fill="#38C0FF"/>
<rect x="200" y="382" width="16.2214" height="23" fill="#3459FF"/>
<rect x="216.221" y="382" width="8.77865" height="23" fill="#38C0FF"/>
<rect x="225" y="382" width="16.2214" height="23" fill="#3459FF"/>
<rect x="241.221" y="382" width="8.77865" height="23" fill="#38C0FF"/>
<rect x="250" y="382" width="16.2214" height="23" fill="#3459FF"/>
<rect x="266.221" y="382" width="8.77865" height="23" fill="#38C0FF"/>
<rect x="275" y="382" width="16.2214" height="23" fill="#3459FF"/>
<rect x="291.221" y="382" width="8.77865" height="23" fill="#38C0FF"/>
<rect x="300" y="382" width="16.2214" height="23" fill="#3459FF"/>
<rect x="316.221" y="382" width="8.77865" height="23" fill="#38C0FF"/>
<rect x="325" y="382" width="16.2214" height="23" fill="#3459FF"/>
<rect x="341.221" y="382" width="8.77865" height="23" fill="#38C0FF"/>
<rect x="350" y="382" width="16.2214" height="23" fill="#3459FF"/>
<rect x="366.221" y="382" width="8.77865" height="23" fill="#38C0FF"/>
</svg>
