<svg width="1440" height="735" viewBox="0 0 1440 735" fill="none" xmlns="http://www.w3.org/2000/svg">
<path d="M116.96 225.8C105.76 225.8 101.04 216.28 101.04 197C101.04 176.84 107.12 168.2 117.6 168.2C120.64 168.2 123.84 168.68 125.6 170.52C126.56 171.48 126.96 172.68 126.96 174.36V181.64C126.96 182.68 126.72 183.56 125.76 183.56C125.2 183.56 124.72 183.32 123.68 182.12C122.8 181.08 121.68 179.88 119.76 179.88C115.28 179.88 113.12 185.16 113.12 197.16C113.12 200.44 113.28 214.92 116.72 214.92C117.44 214.92 117.76 214.2 117.76 213.08V206.04C117.76 199.16 117.52 198.04 116.8 194.68C116.64 193.96 117.04 193.48 117.76 193.48H126.4C127.44 193.48 128.08 194.04 128.08 195.08V212.68C128.08 222.44 122.88 225.8 116.96 225.8ZM133.057 225C132.017 225 131.457 224.44 131.457 223.4V182.36C131.457 175.48 131.217 173.56 130.497 170.2C130.337 169.48 130.737 169 131.457 169H152.737C153.217 169 153.537 169.32 153.537 169.8V180.92C153.537 181.8 152.817 181.96 151.937 181.48C148.897 179.88 147.217 179.32 145.377 179.32C143.537 179.32 143.057 180.04 143.057 181.32V190.28C143.057 190.76 143.377 191.08 143.857 191.08H151.457C151.937 191.08 152.257 191.4 152.257 191.88V201.4C152.257 201.88 151.937 202.2 151.457 202.2H143.857C143.377 202.2 143.057 202.52 143.057 203V213C143.057 213.48 143.377 213.8 143.857 213.8H152.977C153.457 213.8 153.777 214.12 153.777 214.6V224.2C153.777 224.68 153.457 225 152.977 225H133.057ZM158.604 225C157.564 225 157.004 224.44 157.004 223.4V181.56C157.004 174.68 156.764 173.56 156.044 170.2C155.884 169.48 156.284 169 157.004 169H166.284C167.244 169 167.884 169.48 168.044 170.36L173.164 194.6C173.244 195.16 173.564 195.48 174.044 195.48C174.604 195.48 174.764 195.08 174.764 194.44C174.684 192.28 174.844 185.32 174.684 180.76C174.444 174.68 174.204 173.56 173.484 170.2C173.324 169.48 173.724 169 174.444 169H184.924C185.644 169 186.044 169.48 185.884 170.2C185.164 173.56 184.924 174.68 184.924 181.56V223.4C184.924 224.44 184.364 225 183.324 225H175.644C174.684 225 174.044 224.52 173.884 223.64L168.684 199.32C168.604 198.76 168.284 198.52 167.884 198.52C167.404 198.52 167.084 198.84 167.084 199.48C167.324 204.84 167.564 215.96 167.564 223.4C167.564 224.44 167.004 225 165.964 225H158.604ZM190.869 225C189.829 225 189.269 224.44 189.269 223.4V182.36C189.269 175.48 189.029 173.56 188.309 170.2C188.149 169.48 188.549 169 189.269 169H210.549C211.029 169 211.349 169.32 211.349 169.8V180.92C211.349 181.8 210.629 181.96 209.749 181.48C206.709 179.88 205.029 179.32 203.189 179.32C201.349 179.32 200.869 180.04 200.869 181.32V190.28C200.869 190.76 201.189 191.08 201.669 191.08H209.269C209.749 191.08 210.069 191.4 210.069 191.88V201.4C210.069 201.88 209.749 202.2 209.269 202.2H201.669C201.189 202.2 200.869 202.52 200.869 203V213C200.869 213.48 201.189 213.8 201.669 213.8H210.789C211.269 213.8 211.589 214.12 211.589 214.6V224.2C211.589 224.68 211.269 225 210.789 225H190.869ZM216.416 225C215.376 225 214.816 224.44 214.816 223.4V182.36C214.816 175.48 214.576 173.56 213.856 170.2C213.696 169.48 214.096 169 214.816 169H227.776C238.096 169 242.816 176.76 242.816 188.68C242.816 193.56 241.776 198.04 239.856 201.08C238.576 203.08 238.416 204.84 238.816 206.52L243.056 223.08C243.216 223.72 243.216 225 241.696 225H233.136C232.176 225 231.616 224.52 231.376 223.48L227.936 207.88C227.776 207.24 227.616 206.68 226.976 206.68C226.416 206.68 226.176 207.16 226.176 207.96V223.4C226.176 224.44 225.616 225 224.576 225H216.416ZM227.616 198.84C229.696 198.84 231.296 196.04 231.296 188.84C231.296 181.72 229.696 178.92 227.616 178.92H227.296C226.576 178.92 226.176 179.32 226.176 180.04V197.72C226.176 198.44 226.576 198.84 227.296 198.84H227.616ZM245.901 225C245.021 225 244.541 224.6 244.621 223.8L249.661 176.76C249.981 173.72 249.821 172.2 249.501 170.52C249.341 169.48 249.821 169 250.541 169H269.021C269.741 169 270.221 169.48 269.981 170.52C269.661 172.04 269.421 173.48 269.741 176.76L274.781 223.8C274.861 224.6 274.381 225 273.501 225H264.701C263.981 225 263.501 224.6 263.421 223.96L262.701 216.92C262.621 216.12 262.221 215.72 261.421 215.72H257.341C256.541 215.72 256.061 216.12 255.981 216.92L255.261 223.96C255.181 224.68 254.621 225 253.981 225H245.901ZM260.541 205C261.421 205 261.581 204.6 261.501 203.96C260.941 197.48 260.541 192.92 260.221 184.04C260.221 183.32 259.901 182.92 259.341 182.92C258.781 182.92 258.461 183.32 258.461 184.04C258.141 192.92 257.741 197.48 257.181 203.96C257.101 204.6 257.261 205 258.141 205H260.541ZM278.994 225C277.954 225 277.394 224.44 277.394 223.4V182.36C277.394 175.48 277.154 173.56 276.434 170.2C276.274 169.48 276.674 169 277.394 169H288.994C289.714 169 290.114 169.48 289.954 170.2C289.234 173.56 288.994 175.48 288.994 182.36V213C288.994 213.48 289.314 213.8 289.794 213.8H298.914C299.394 213.8 299.714 214.12 299.714 214.6V224.2C299.714 224.68 299.394 225 298.914 225H278.994ZM313.682 225C312.642 225 312.082 224.44 312.082 223.4V181.56C312.082 174.68 311.842 173.56 311.122 170.2C310.962 169.48 311.362 169 312.082 169H323.682C324.402 169 324.802 169.48 324.642 170.2C323.922 173.56 323.682 174.68 323.682 181.56V223.4C323.682 224.44 323.122 225 322.082 225H313.682ZM329.619 225C328.579 225 328.019 224.44 328.019 223.4V181.56C328.019 174.68 327.779 173.56 327.059 170.2C326.899 169.48 327.299 169 328.019 169H337.299C338.259 169 338.899 169.48 339.059 170.36L344.179 194.6C344.259 195.16 344.579 195.48 345.059 195.48C345.619 195.48 345.779 195.08 345.779 194.44C345.699 192.28 345.859 185.32 345.699 180.76C345.459 174.68 345.219 173.56 344.499 170.2C344.339 169.48 344.739 169 345.459 169H355.939C356.659 169 357.059 169.48 356.899 170.2C356.179 173.56 355.939 174.68 355.939 181.56V223.4C355.939 224.44 355.379 225 354.339 225H346.659C345.699 225 345.059 224.52 344.899 223.64L339.699 199.32C339.619 198.76 339.299 198.52 338.899 198.52C338.419 198.52 338.099 198.84 338.099 199.48C338.339 204.84 338.579 215.96 338.579 223.4C338.579 224.44 338.019 225 336.979 225H329.619ZM361.885 225C360.845 225 360.285 224.44 360.285 223.4V182.36C360.285 175.48 360.045 173.56 359.325 170.2C359.165 169.48 359.565 169 360.285 169H381.565C382.045 169 382.365 169.32 382.365 169.8V180.92C382.365 181.8 381.645 181.96 380.765 181.48C377.725 179.88 376.045 179.32 374.205 179.32C372.365 179.32 371.885 180.04 371.885 181.32V190.28C371.885 190.76 372.205 191.08 372.685 191.08H380.285C380.765 191.08 381.085 191.4 381.085 191.88V201.4C381.085 201.88 380.765 202.2 380.285 202.2H372.685C372.205 202.2 371.885 202.52 371.885 203V223.4C371.885 224.44 371.325 225 370.285 225H361.885ZM399.218 225.8C389.698 225.8 383.698 218.68 383.698 197C383.698 175.32 389.698 168.2 399.218 168.2C408.738 168.2 414.818 175.32 414.818 197C414.818 218.68 408.738 225.8 399.218 225.8ZM399.218 214.6C401.058 214.6 402.578 212.52 402.578 197C402.578 181.4 401.058 179.4 399.218 179.4C397.378 179.4 395.938 181.4 395.938 197C395.938 212.52 397.378 214.6 399.218 214.6ZM419.698 225C418.658 225 418.098 224.44 418.098 223.4V182.36C418.098 175.48 417.858 173.56 417.138 170.2C416.978 169.48 417.378 169 418.098 169H431.058C441.378 169 446.098 176.76 446.098 188.68C446.098 193.56 445.058 198.04 443.138 201.08C441.858 203.08 441.698 204.84 442.098 206.52L446.338 223.08C446.498 223.72 446.498 225 444.978 225H436.418C435.458 225 434.898 224.52 434.658 223.48L431.218 207.88C431.058 207.24 430.898 206.68 430.258 206.68C429.698 206.68 429.458 207.16 429.458 207.96V223.4C429.458 224.44 428.898 225 427.858 225H419.698ZM430.898 198.84C432.978 198.84 434.578 196.04 434.578 188.84C434.578 181.72 432.978 178.92 430.898 178.92H430.578C429.858 178.92 429.458 179.32 429.458 180.04V197.72C429.458 198.44 429.858 198.84 430.578 198.84H430.898ZM450.791 225C449.751 225 449.191 224.44 449.191 223.4V181.56C449.191 174.68 448.951 173.56 448.231 170.2C448.071 169.48 448.471 169 449.191 169H463.591C465.351 169 465.991 169.48 466.151 171.32L468.391 196.28C468.471 196.92 468.711 197.16 469.111 197.16C469.511 197.16 469.831 196.92 469.911 196.28L472.151 171.32C472.311 169.48 472.951 169 474.711 169H489.671C490.391 169 490.791 169.48 490.631 170.2C489.911 173.56 489.671 174.68 489.671 181.56V223.4C489.671 224.44 489.111 225 488.071 225H480.311C479.271 225 478.711 224.44 478.711 223.4C478.711 212.12 478.871 199.64 479.031 187.56C479.031 187 478.871 186.6 478.311 186.6C477.911 186.6 477.591 186.84 477.511 187.48L473.111 223.48C472.951 224.52 472.311 225 471.351 225H466.711C465.751 225 465.111 224.52 464.951 223.48L460.551 187.4C460.471 186.84 460.231 186.6 459.751 186.6C459.191 186.6 459.031 187.08 459.031 187.56C459.191 199.64 459.351 212.12 459.351 223.4C459.351 224.44 458.791 225 457.751 225H450.791ZM493.557 225C492.677 225 492.197 224.6 492.277 223.8L497.317 176.76C497.637 173.72 497.477 172.2 497.157 170.52C496.997 169.48 497.477 169 498.197 169H516.677C517.397 169 517.877 169.48 517.637 170.52C517.317 172.04 517.077 173.48 517.397 176.76L522.437 223.8C522.517 224.6 522.037 225 521.157 225H512.357C511.637 225 511.157 224.6 511.077 223.96L510.357 216.92C510.277 216.12 509.877 215.72 509.077 215.72H504.997C504.197 215.72 503.717 216.12 503.637 216.92L502.917 223.96C502.837 224.68 502.277 225 501.637 225H493.557ZM508.197 205C509.077 205 509.237 204.6 509.157 203.96C508.597 197.48 508.197 192.92 507.877 184.04C507.877 183.32 507.557 182.92 506.997 182.92C506.437 182.92 506.117 183.32 506.117 184.04C505.797 192.92 505.397 197.48 504.837 203.96C504.757 204.6 504.917 205 505.797 205H508.197ZM530.629 225C529.589 225 529.029 224.44 529.029 223.4V180.6C529.029 179.88 528.709 179.24 527.509 179.24C526.229 179.24 525.429 179.88 523.269 181.64C522.709 182.12 522.149 182.44 521.749 182.44C521.349 182.44 521.109 182.12 521.109 181.48V170.6C521.109 169.56 521.669 169 522.709 169H546.949C547.989 169 548.549 169.56 548.549 170.6V181.48C548.549 182.12 548.309 182.44 547.909 182.44C547.509 182.44 546.949 182.12 546.389 181.64C544.229 179.88 543.429 179.24 542.149 179.24C540.949 179.24 540.629 179.88 540.629 180.6V223.4C540.629 224.44 540.069 225 539.029 225H530.629ZM552.979 225C551.939 225 551.379 224.44 551.379 223.4V181.56C551.379 174.68 551.139 173.56 550.419 170.2C550.259 169.48 550.659 169 551.379 169H562.979C563.699 169 564.099 169.48 563.939 170.2C563.219 173.56 562.979 174.68 562.979 181.56V223.4C562.979 224.44 562.419 225 561.379 225H552.979ZM581.796 225.8C572.276 225.8 566.276 218.68 566.276 197C566.276 175.32 572.276 168.2 581.796 168.2C591.316 168.2 597.396 175.32 597.396 197C597.396 218.68 591.316 225.8 581.796 225.8ZM581.796 214.6C583.636 214.6 585.156 212.52 585.156 197C585.156 181.4 583.636 179.4 581.796 179.4C579.956 179.4 578.516 181.4 578.516 197C578.516 212.52 579.956 214.6 581.796 214.6ZM602.276 225C601.236 225 600.676 224.44 600.676 223.4V181.56C600.676 174.68 600.436 173.56 599.716 170.2C599.556 169.48 599.956 169 600.676 169H609.956C610.916 169 611.556 169.48 611.716 170.36L616.836 194.6C616.916 195.16 617.236 195.48 617.716 195.48C618.276 195.48 618.436 195.08 618.436 194.44C618.356 192.28 618.516 185.32 618.356 180.76C618.116 174.68 617.876 173.56 617.156 170.2C616.996 169.48 617.396 169 618.116 169H628.596C629.316 169 629.716 169.48 629.556 170.2C628.836 173.56 628.596 174.68 628.596 181.56V223.4C628.596 224.44 628.036 225 626.996 225H619.316C618.356 225 617.716 224.52 617.556 223.64L612.356 199.32C612.276 198.76 611.956 198.52 611.556 198.52C611.076 198.52 610.756 198.84 610.756 199.48C610.996 204.84 611.236 215.96 611.236 223.4C611.236 224.44 610.676 225 609.636 225H602.276Z" fill="#0213B0"/>
</svg>
