<svg width="129" height="36" viewBox="0 0 129 36" fill="none" xmlns="http://www.w3.org/2000/svg">
<g clip-path="url(#clip0_181_181)">
<path d="M62.7824 19.5735C60.6152 19.5735 58.8489 21.1807 58.8489 23.3943C58.8489 25.5944 60.6152 27.2151 62.7824 27.2151C64.9506 27.2151 66.7169 25.5944 66.7169 23.3943C66.716 21.1807 64.9496 19.5735 62.7824 19.5735ZM62.7824 25.7113C61.5947 25.7113 60.571 24.7563 60.571 23.3952C60.571 22.0198 61.5956 21.0792 62.7824 21.0792C63.9702 21.0792 64.9939 22.0198 64.9939 23.3952C64.9939 24.7554 63.9702 25.7113 62.7824 25.7113ZM54.2003 19.5735C52.0331 19.5735 50.2667 21.1807 50.2667 23.3943C50.2667 25.5944 52.0331 27.2151 54.2003 27.2151C56.3684 27.2151 58.1348 25.5944 58.1348 23.3943C58.1348 21.1807 56.3684 19.5735 54.2003 19.5735ZM54.2003 25.7113C53.0125 25.7113 51.9888 24.7563 51.9888 23.3952C51.9888 22.0198 53.0135 21.0792 54.2003 21.0792C55.388 21.0792 56.4117 22.0198 56.4117 23.3952C56.4126 24.7554 55.388 25.7113 54.2003 25.7113ZM43.9927 20.7467V22.3674H47.9714C47.8525 23.2793 47.5411 23.945 47.0656 24.4077C46.487 24.9719 45.5812 25.5944 43.9927 25.5944C41.5435 25.5944 39.6288 23.6692 39.6288 21.2813C39.6288 18.8933 41.5435 16.9681 43.9927 16.9681C45.314 16.9681 46.2787 17.4748 46.991 18.1262L48.164 16.9825C47.1688 16.0563 45.8484 15.3474 43.9927 15.3474C40.6378 15.3474 37.8173 18.0102 37.8173 21.2813C37.8173 24.5523 40.6378 27.2151 43.9927 27.2151C45.8033 27.2151 47.1698 26.6357 48.2377 25.5505C49.336 24.4796 49.6779 22.9739 49.6779 21.7583C49.6779 21.3828 49.6484 21.0351 49.5885 20.7459L43.9927 20.7467ZM85.7408 22.0054C85.4146 21.152 84.4194 19.5735 82.3858 19.5735C80.367 19.5735 78.6891 21.1223 78.6891 23.3943C78.6891 25.5361 80.3522 27.2151 82.5784 27.2151C84.3743 27.2151 85.4137 26.1443 85.8449 25.5217L84.5088 24.6529C84.0638 25.2899 83.4547 25.7094 82.5784 25.7094C81.7031 25.7094 81.0793 25.3187 80.6784 24.5515L85.9186 22.4384L85.7408 22.0054ZM80.3965 23.2793C80.3522 21.8024 81.5695 21.0504 82.4457 21.0504C83.1285 21.0504 83.7072 21.3837 83.9007 21.8607L80.3965 23.2793ZM76.1367 26.9843H77.8579V15.7535H76.1367V26.9843ZM73.3153 20.4278H73.2563C72.8702 19.9786 72.1276 19.5735 71.1932 19.5735C69.2334 19.5735 67.4375 21.2526 67.4375 23.4095C67.4375 25.5513 69.2334 27.2161 71.1932 27.2161C72.1285 27.2161 72.8702 26.8109 73.2563 26.3483H73.3153V26.8981C73.3153 28.3597 72.5137 29.1413 71.2227 29.1413C70.1686 29.1413 69.5153 28.4038 69.2481 27.7812L67.7489 28.3894C68.1793 29.4019 69.3218 30.647 71.2227 30.647C73.2416 30.647 74.949 29.489 74.949 26.6662V19.8061H73.3162L73.3153 20.4278ZM71.3416 25.7113C70.1539 25.7113 69.1597 24.741 69.1597 23.4095C69.1597 22.0629 70.1539 21.0792 71.3416 21.0792C72.5137 21.0792 73.4342 22.0629 73.4342 23.4095C73.4342 24.741 72.5137 25.7113 71.3416 25.7113ZM93.8069 15.7535H89.6872V26.9843H91.4057V22.7295H93.806C95.7115 22.7295 97.5857 21.3846 97.5857 19.2419C97.5857 17.0992 95.7125 15.7535 93.8069 15.7535ZM93.8512 21.1663H91.4057V17.3167H93.8512C95.1366 17.3167 95.8663 18.3543 95.8663 19.2419C95.8663 20.1116 95.1366 21.1663 93.8512 21.1663ZM104.477 19.5536C103.232 19.5536 101.943 20.0883 101.41 21.2732L102.936 21.894C103.262 21.2732 103.87 21.0701 104.507 21.0701C105.396 21.0701 106.3 21.5904 106.314 22.5147V22.6307C106.003 22.4572 105.336 22.1977 104.521 22.1977C102.877 22.1977 101.201 23.0789 101.201 24.7257C101.201 26.2287 102.55 27.1963 104.062 27.1963C105.217 27.1963 105.855 26.6905 106.255 26.0975H106.313V26.9645H107.974V22.6585C107.975 20.6659 106.447 19.5536 104.477 19.5536ZM104.269 25.7086C103.707 25.7086 102.921 25.4336 102.921 24.7545C102.921 23.8875 103.899 23.5551 104.744 23.5551C105.499 23.5551 105.856 23.7142 106.314 23.9306C106.181 24.9719 105.262 25.7086 104.269 25.7086ZM114.02 19.7989L112.049 24.6682H111.99L109.945 19.7989H108.093L111.16 26.6042L109.411 30.3901H111.204L115.932 19.7989H114.02ZM98.5348 26.9843H100.253V15.7535H98.5348V26.9843Z" fill="#FFFFF1"/>
<path d="M43.6923 9.23439C43.6923 9.98723 43.4639 10.5864 43.0059 11.0339C42.4862 11.5657 41.8081 11.8317 40.9751 11.8317C40.1772 11.8317 39.4981 11.5621 38.9406 11.0231C38.3822 10.4831 38.103 9.81474 38.103 9.01698C38.103 8.21831 38.3822 7.54991 38.9406 7.01087C39.4981 6.47093 40.1772 6.20142 40.9751 6.20142C41.3713 6.20142 41.75 6.27688 42.1094 6.42692C42.4697 6.57785 42.758 6.77818 42.9737 7.02884L42.488 7.50319C42.1222 7.07645 41.6182 6.86354 40.9741 6.86354C40.3918 6.86354 39.8887 7.06298 39.4639 7.46187C39.0391 7.86075 38.8273 8.37912 38.8273 9.01609C38.8273 9.65303 39.0391 10.1714 39.4639 10.5703C39.8887 10.9692 40.3918 11.1686 40.9741 11.1686C41.5915 11.1686 42.1066 10.9683 42.5185 10.5667C42.7857 10.3053 42.9404 9.94144 42.9819 9.4752H40.9741V8.82742H43.6527C43.6803 8.96847 43.6923 9.10413 43.6923 9.23439Z" fill="#FFFFF1"/>
<path d="M47.9402 6.98304H45.4228V8.69179H47.6932V9.33953H45.4228V11.0482H47.9402V11.7113H44.7124V6.32092H47.9402V6.98304Z" fill="#FFFFF1"/>
<path d="M50.9356 11.7113H50.2252V6.98304H48.6809V6.32092H52.48V6.98304H50.9356V11.7113Z" fill="#FFFFF1"/>
<path d="M55.2286 11.7113V6.32092H55.9391V11.7113H55.2286Z" fill="#FFFFF1"/>
<path d="M59.0895 11.7113H58.3792V6.98304H56.8348V6.32092H60.6339V6.98304H59.0895V11.7113Z" fill="#FFFFF1"/>
<path d="M67.8253 11.0151C67.2817 11.5595 66.6063 11.8317 65.7982 11.8317C64.9901 11.8317 64.3147 11.5595 63.7719 11.0151C63.2283 10.4707 62.9574 9.8041 62.9574 9.01616C62.9574 8.22828 63.2283 7.56167 63.7719 7.01724C64.3147 6.47282 64.9901 6.19971 65.7982 6.19971C66.6016 6.19971 67.2761 6.47371 67.8216 7.02084C68.3671 7.56795 68.6398 8.23277 68.6398 9.01616C68.6398 9.8041 68.368 10.4707 67.8253 11.0151ZM64.2962 10.5632C64.7054 10.9675 65.2057 11.1687 65.7982 11.1687C66.3906 11.1687 66.8919 10.9666 67.3001 10.5632C67.7092 10.1589 67.9147 9.64321 67.9147 9.01616C67.9147 8.38909 67.7092 7.87341 67.3001 7.46913C66.8919 7.06485 66.3906 6.86361 65.7982 6.86361C65.2057 6.86361 64.7054 7.06576 64.2962 7.46913C63.888 7.87341 63.6826 8.38909 63.6826 9.01616C63.6826 9.64321 63.888 10.1589 64.2962 10.5632Z" fill="#FFFFF1"/>
<path d="M69.6368 11.7113V6.32092H70.5012L73.1881 10.5137H73.2184L73.1881 9.47517V6.32092H73.8984V11.7113H73.1567L70.3455 7.31455H70.315L70.3455 8.35309V11.7113H69.6368Z" fill="#FFFFF1"/>
<path fill-rule="evenodd" clip-rule="evenodd" d="M9.35584 7.19499C9.24859 7.43427 9.18945 7.72679 9.18945 8.0666V27.9354C9.18945 28.276 9.24868 28.5686 9.35603 28.8078L20.4386 18.0007L9.35584 7.19499ZM10.0049 29.4621C10.4151 29.6305 10.949 29.5751 11.5308 29.2534L24.5702 22.029L21.0985 18.6441L10.0049 29.4621ZM25.4125 21.5633L29.4996 19.2993C30.7868 18.585 30.7868 17.418 29.4996 16.7047L25.4106 14.4393L21.7585 18.0007L25.4125 21.5633ZM24.569 13.973L11.5308 6.74956C10.9489 6.42717 10.4151 6.37209 10.0048 6.54084L21.0985 17.3572L24.569 13.973Z" fill="#FFFFF1"/>
<path d="M124.393 0.49292H4.60712C2.31711 0.49292 0.460693 2.34934 0.460693 4.63935V31.3608C0.460693 33.6508 2.31711 35.5072 4.60712 35.5072H124.393C126.683 35.5072 128.539 33.6508 128.539 31.3608V4.63935C128.539 2.34934 126.683 0.49292 124.393 0.49292Z" stroke="#FFFFF1" stroke-width="0.921429"/>
</g>
<defs>
<clipPath id="clip0_181_181">
<rect width="129" height="35.9357" fill="white" transform="translate(0 0.0322266)"/>
</clipPath>
</defs>
</svg>
