<svg width="235" height="222" viewBox="0 0 235 222" fill="none" xmlns="http://www.w3.org/2000/svg">
<path d="M39.5318 71.768C36.0758 71.768 33.0678 70.8507 30.5078 69.016C27.9478 67.1813 25.9638 64.5573 24.5558 61.144C23.1905 57.7307 22.5078 53.72 22.5078 49.112C22.5078 44.504 23.1905 40.5147 24.5558 37.144C25.9638 33.7307 27.9478 31.1067 30.5078 29.272C33.0678 27.4373 36.0758 26.52 39.5318 26.52C42.9878 26.52 45.9958 27.4373 48.5558 29.272C51.1158 31.1067 53.0785 33.7307 54.4438 37.144C55.8518 40.5147 56.5558 44.504 56.5558 49.112C56.5558 53.72 55.8518 57.7307 54.4438 61.144C53.0785 64.5573 51.1158 67.1813 48.5558 69.016C45.9958 70.8507 42.9878 71.768 39.5318 71.768ZM39.5318 65.368C42.6892 65.368 45.0998 63.9813 46.7638 61.208C48.4705 58.392 49.3238 54.36 49.3238 49.112C49.3238 43.9067 48.4705 39.9173 46.7638 37.144C45.0998 34.328 42.6892 32.92 39.5318 32.92C36.3745 32.92 33.9425 34.328 32.2358 37.144C30.5292 39.9173 29.6758 43.9067 29.6758 49.112C29.6758 54.36 30.5292 58.392 32.2358 61.208C33.9425 63.9813 36.3745 65.368 39.5318 65.368ZM60.5868 71C60.1602 71 59.9468 70.7867 59.9468 70.36V66.52C59.9468 66.0933 60.0962 65.7307 60.3948 65.432L69.9308 55.64C73.5575 51.928 76.1175 48.9413 77.6108 46.68C79.1468 44.4187 79.9148 42.1573 79.9148 39.896C79.9148 37.6773 79.2748 35.9707 77.9948 34.776C76.7575 33.5387 74.9228 32.92 72.4908 32.92C69.9735 32.92 67.8402 33.5813 66.0908 34.904C64.3415 36.2267 62.5922 38.2747 60.8428 41.048C60.6722 41.3467 60.4802 41.496 60.2668 41.496C59.9682 41.496 59.8188 41.2613 59.8188 40.792V35.032C59.8188 34.2213 59.8828 33.56 60.0108 33.048C60.1815 32.536 60.4588 32.024 60.8428 31.512C61.9095 30.104 63.4668 28.9307 65.5148 27.992C67.6055 27.0107 69.9095 26.52 72.4268 26.52C75.3282 26.52 77.8882 27.0747 80.1068 28.184C82.3255 29.2507 84.0322 30.7653 85.2268 32.728C86.4642 34.648 87.0828 36.8453 87.0828 39.32C87.0828 42.1787 86.2508 44.952 84.5868 47.64C82.9228 50.2853 80.3628 53.4213 76.9068 57.048L70.6988 63.64C70.5282 63.8107 70.4428 63.9813 70.4428 64.152C70.4428 64.4507 70.6775 64.6 71.1468 64.6H87.5308C87.9575 64.6 88.1708 64.8133 88.1708 65.24V70.36C88.1708 70.7867 87.9575 71 87.5308 71H60.5868Z" fill="#FFFFF1"/>
<line x1="20.3333" y1="103.5" x2="214.333" y2="103.5" stroke="#FFFFF1"/>
<path d="M24.9053 155C24.4373 155 24.1853 154.748 24.1853 154.28V135.02C24.1853 134.696 24.0413 134.408 23.5013 134.408C22.9253 134.408 22.5653 134.696 21.5933 135.488C21.0893 135.884 20.6213 136.028 20.6213 135.416V130.52C20.6213 130.052 20.8733 129.8 21.3413 129.8H32.2493C32.7173 129.8 32.9693 130.052 32.9693 130.52V135.416C32.9693 136.028 32.5013 135.884 31.9973 135.488C31.0253 134.696 30.6653 134.408 30.0893 134.408C29.5493 134.408 29.4053 134.696 29.4053 135.02V154.28C29.4053 154.748 29.1533 155 28.6853 155H24.9053ZM34.9628 155C34.4948 155 34.2428 154.748 34.2428 154.28V135.812C34.2428 132.716 34.1348 131.852 33.8108 130.34C33.7388 130.016 33.9188 129.8 34.2428 129.8H39.4628C39.7868 129.8 39.9668 130.016 39.8948 130.34C39.5708 131.852 39.4628 132.716 39.4628 135.812V138.872C39.4628 139.016 39.5348 139.088 39.6788 139.088H41.7668C41.9108 139.088 41.9828 139.016 41.9828 138.872V135.812C41.9828 132.716 41.8748 131.852 41.5508 130.34C41.4788 130.016 41.6588 129.8 41.9828 129.8H47.2028C47.5268 129.8 47.7068 130.016 47.6348 130.34C47.3108 131.852 47.2028 132.716 47.2028 135.812V154.28C47.2028 154.748 46.9508 155 46.4828 155H42.7028C42.2348 155 41.9828 154.748 41.9828 154.28V144.884C41.9828 144.74 41.9108 144.668 41.7668 144.668H39.6788C39.5348 144.668 39.4628 144.74 39.4628 144.884V154.28C39.4628 154.748 39.2108 155 38.7428 155H34.9628ZM55.6651 155.36C51.3811 155.36 48.6811 152.156 48.6811 142.4C48.6811 132.644 51.3811 129.44 55.6651 129.44C59.9491 129.44 62.6851 132.644 62.6851 142.4C62.6851 152.156 59.9491 155.36 55.6651 155.36ZM55.6651 150.32C56.4931 150.32 57.1771 149.384 57.1771 142.4C57.1771 135.38 56.4931 134.48 55.6651 134.48C54.8371 134.48 54.1891 135.38 54.1891 142.4C54.1891 149.384 54.8371 150.32 55.6651 150.32ZM52.6051 128.792C52.2811 128.792 52.2091 128.612 52.2091 128.432V127.712C52.2091 127.532 52.3171 127.424 52.4611 127.388C53.6131 127.208 54.4051 126.776 55.1611 126.056C55.3411 125.876 55.5211 125.768 55.7011 125.768C55.8811 125.768 56.0611 125.876 56.2411 126.056C56.9971 126.776 57.7891 127.208 58.9411 127.388C59.0851 127.424 59.1931 127.532 59.1931 127.712V128.432C59.1931 128.612 59.1211 128.792 58.7971 128.792C57.4651 128.792 56.2051 128.108 55.7011 127.352C55.1971 128.108 53.9371 128.792 52.6051 128.792ZM64.8808 155C64.4128 155 64.1608 154.748 64.1608 154.28V135.452C64.1608 132.356 64.0528 131.852 63.7288 130.34C63.6568 130.016 63.8368 129.8 64.1608 129.8H68.3368C68.7688 129.8 69.0568 130.016 69.1288 130.412L71.4328 141.32C71.4688 141.572 71.6128 141.716 71.8288 141.716C72.0808 141.716 72.1528 141.536 72.1528 141.248C72.1168 140.276 72.1888 137.144 72.1168 135.092C72.0088 132.356 71.9008 131.852 71.5768 130.34C71.5048 130.016 71.6848 129.8 72.0088 129.8H76.7248C77.0488 129.8 77.2288 130.016 77.1568 130.34C76.8328 131.852 76.7248 132.356 76.7248 135.452V154.28C76.7248 154.748 76.4728 155 76.0048 155H72.5488C72.1168 155 71.8288 154.784 71.7568 154.388L69.4168 143.444C69.3808 143.192 69.2368 143.084 69.0568 143.084C68.8408 143.084 68.6968 143.228 68.6968 143.516C68.8048 145.928 68.9128 150.932 68.9128 154.28C68.9128 154.748 68.6608 155 68.1928 155H64.8808ZM85.3403 155.36C80.3003 155.36 78.1763 151.076 78.1763 142.4C78.1763 133.328 80.9123 129.44 85.6283 129.44C86.9963 129.44 88.4363 129.656 89.2283 130.484C89.6603 130.916 89.8403 131.456 89.8403 132.212V135.488C89.8403 135.956 89.7323 136.352 89.3003 136.352C89.0483 136.352 88.8323 136.244 88.3643 135.704C87.9683 135.236 87.4643 134.696 86.6003 134.696C84.5843 134.696 83.6123 137.072 83.6123 142.472C83.6123 143.948 83.6843 150.464 85.2323 150.464C85.5563 150.464 85.7003 150.14 85.7003 149.636V146.468C85.7003 143.372 85.5923 142.868 85.2683 141.356C85.1963 141.032 85.3763 140.816 85.7003 140.816H89.5883C90.0563 140.816 90.3443 141.068 90.3443 141.536V149.456C90.3443 153.848 88.0043 155.36 85.3403 155.36ZM99.8585 155C99.3905 155 99.1385 154.748 99.1385 154.28V135.02C99.1385 134.696 98.9945 134.408 98.4545 134.408C97.8785 134.408 97.5185 134.696 96.5465 135.488C96.0425 135.884 95.5745 136.028 95.5745 135.416V130.52C95.5745 130.052 95.8265 129.8 96.2945 129.8H107.202C107.67 129.8 107.922 130.052 107.922 130.52V135.416C107.922 136.028 107.454 135.884 106.95 135.488C105.978 134.696 105.618 134.408 105.042 134.408C104.502 134.408 104.358 134.696 104.358 135.02V154.28C104.358 154.748 104.106 155 103.638 155H99.8585ZM109.916 155C109.448 155 109.196 154.748 109.196 154.28V135.452C109.196 132.356 109.088 131.852 108.764 130.34C108.692 130.016 108.872 129.8 109.196 129.8H114.416C114.74 129.8 114.92 130.016 114.848 130.34C114.524 131.852 114.416 132.356 114.416 135.452V154.28C114.416 154.748 114.164 155 113.696 155H109.916ZM117.088 155C116.62 155 116.368 154.748 116.368 154.28V135.452C116.368 132.356 116.26 131.852 115.936 130.34C115.864 130.016 116.044 129.8 116.368 129.8H120.544C120.976 129.8 121.264 130.016 121.336 130.412L123.64 141.32C123.676 141.572 123.82 141.716 124.036 141.716C124.288 141.716 124.36 141.536 124.36 141.248C124.324 140.276 124.396 137.144 124.324 135.092C124.216 132.356 124.108 131.852 123.784 130.34C123.712 130.016 123.892 129.8 124.216 129.8H128.932C129.256 129.8 129.436 130.016 129.364 130.34C129.04 131.852 128.932 132.356 128.932 135.452V154.28C128.932 154.748 128.68 155 128.212 155H124.756C124.324 155 124.036 154.784 123.964 154.388L121.624 143.444C121.588 143.192 121.444 143.084 121.264 143.084C121.048 143.084 120.904 143.228 120.904 143.516C121.012 145.928 121.12 150.932 121.12 154.28C121.12 154.748 120.868 155 120.4 155H117.088ZM142.05 155.36C137.478 155.36 134.778 151.436 134.778 142.4C134.778 133.364 137.478 129.44 142.05 129.44C143.202 129.44 144.39 129.728 145.218 130.376C145.938 130.952 146.082 131.672 146.082 132.536V135.524C146.082 136.064 145.866 136.316 145.542 136.316C145.146 136.316 144.894 135.992 144.57 135.596C144.21 135.164 143.742 134.696 142.95 134.696C141.15 134.696 140.25 136.964 140.25 142.4C140.25 147.836 141.15 150.104 142.95 150.104C143.742 150.104 144.21 149.636 144.57 149.204C144.894 148.808 145.11 148.484 145.506 148.484C145.83 148.484 146.082 148.736 146.082 149.276V152.264C146.082 153.128 145.938 153.848 145.218 154.424C144.39 155.072 143.202 155.36 142.05 155.36ZM148.201 155C147.733 155 147.481 154.748 147.481 154.28V135.812C147.481 132.716 147.373 131.852 147.049 130.34C146.977 130.016 147.157 129.8 147.481 129.8H152.701C153.025 129.8 153.205 130.016 153.133 130.34C152.809 131.852 152.701 132.716 152.701 135.812V138.872C152.701 139.016 152.773 139.088 152.917 139.088H155.005C155.149 139.088 155.221 139.016 155.221 138.872V135.812C155.221 132.716 155.113 131.852 154.789 130.34C154.717 130.016 154.897 129.8 155.221 129.8H160.441C160.765 129.8 160.945 130.016 160.873 130.34C160.549 131.852 160.441 132.716 160.441 135.812V154.28C160.441 154.748 160.189 155 159.721 155H155.941C155.473 155 155.221 154.748 155.221 154.28V144.884C155.221 144.74 155.149 144.668 155.005 144.668H152.917C152.773 144.668 152.701 144.74 152.701 144.884V154.28C152.701 154.748 152.449 155 151.981 155H148.201ZM168.687 155.36C164.655 155.36 162.351 152.912 162.351 148.484V135.812C162.351 132.716 162.243 131.852 161.919 130.34C161.847 130.016 162.027 129.8 162.351 129.8H167.571C167.895 129.8 168.075 130.016 168.003 130.34C167.679 131.852 167.571 132.716 167.571 135.812V148.556C167.571 149.492 168.003 149.996 168.687 149.996C169.335 149.996 169.767 149.492 169.767 148.556V135.812C169.767 132.716 169.659 131.852 169.335 130.34C169.263 130.016 169.443 129.8 169.767 129.8H174.987C175.311 129.8 175.491 130.016 175.419 130.34C175.095 131.852 174.987 132.716 174.987 135.812V148.484C174.987 152.912 172.683 155.36 168.687 155.36ZM177.627 155C177.159 155 176.907 154.748 176.907 154.28V135.452C176.907 132.356 176.799 131.852 176.475 130.34C176.403 130.016 176.583 129.8 176.907 129.8H181.083C181.515 129.8 181.803 130.016 181.875 130.412L184.179 141.32C184.215 141.572 184.359 141.716 184.575 141.716C184.827 141.716 184.899 141.536 184.899 141.248C184.863 140.276 184.935 137.144 184.863 135.092C184.755 132.356 184.647 131.852 184.323 130.34C184.251 130.016 184.431 129.8 184.755 129.8H189.471C189.795 129.8 189.975 130.016 189.903 130.34C189.579 131.852 189.471 132.356 189.471 135.452V154.28C189.471 154.748 189.219 155 188.751 155H185.295C184.863 155 184.575 154.784 184.503 154.388L182.163 143.444C182.127 143.192 181.983 143.084 181.803 143.084C181.587 143.084 181.443 143.228 181.443 143.516C181.551 145.928 181.659 150.932 181.659 154.28C181.659 154.748 181.407 155 180.939 155H177.627ZM198.086 155.36C193.046 155.36 190.922 151.076 190.922 142.4C190.922 133.328 193.658 129.44 198.374 129.44C199.742 129.44 201.182 129.656 201.974 130.484C202.406 130.916 202.586 131.456 202.586 132.212V135.488C202.586 135.956 202.478 136.352 202.046 136.352C201.794 136.352 201.578 136.244 201.11 135.704C200.714 135.236 200.21 134.696 199.346 134.696C197.33 134.696 196.358 137.072 196.358 142.472C196.358 143.948 196.43 150.464 197.978 150.464C198.302 150.464 198.446 150.14 198.446 149.636V146.468C198.446 143.372 198.338 142.868 198.014 141.356C197.942 141.032 198.122 140.816 198.446 140.816H202.334C202.802 140.816 203.09 141.068 203.09 141.536V149.456C203.09 153.848 200.75 155.36 198.086 155.36Z" fill="#FFFFF1"/>
</svg>
