<svg width="234" height="222" viewBox="0 0 234 222" fill="none" xmlns="http://www.w3.org/2000/svg">
<g clip-path="url(#clip0_344_15219)">
<path d="M39.136 71.768C35.68 71.768 32.672 70.8507 30.112 69.016C27.552 67.1813 25.568 64.5573 24.16 61.144C22.7947 57.7307 22.112 53.72 22.112 49.112C22.112 44.504 22.7947 40.5147 24.16 37.144C25.568 33.7307 27.552 31.1067 30.112 29.272C32.672 27.4373 35.68 26.52 39.136 26.52C42.592 26.52 45.6 27.4373 48.16 29.272C50.72 31.1067 52.6827 33.7307 54.048 37.144C55.456 40.5147 56.16 44.504 56.16 49.112C56.16 53.72 55.456 57.7307 54.048 61.144C52.6827 64.5573 50.72 67.1813 48.16 69.016C45.6 70.8507 42.592 71.768 39.136 71.768ZM39.136 65.368C42.2933 65.368 44.704 63.9813 46.368 61.208C48.0747 58.392 48.928 54.36 48.928 49.112C48.928 43.9067 48.0747 39.9173 46.368 37.144C44.704 34.328 42.2933 32.92 39.136 32.92C35.9787 32.92 33.5467 34.328 31.84 37.144C30.1333 39.9173 29.28 43.9067 29.28 49.112C29.28 54.36 30.1333 58.392 31.84 61.208C33.5467 63.9813 35.9787 65.368 39.136 65.368ZM81.2335 71C80.7642 71 80.5295 70.7867 80.5295 70.36V62.616C80.5295 62.1893 80.3162 61.976 79.8895 61.976H60.1135C59.9002 61.976 59.7295 61.912 59.6015 61.784C59.4735 61.656 59.4095 61.5067 59.4095 61.336V57.752C59.4095 57.368 59.4948 57.0693 59.6655 56.856L75.8575 27.736C76.0282 27.352 76.3482 27.16 76.8175 27.16H86.4175C86.6308 27.16 86.8015 27.2453 86.9295 27.416C87.1002 27.544 87.1855 27.7147 87.1855 27.928V55.192C87.1855 55.6187 87.3988 55.832 87.8255 55.832H93.0735C93.5002 55.832 93.7135 56.0453 93.7135 56.472V61.336C93.7135 61.7627 93.5002 61.976 93.0735 61.976H87.8255C87.3988 61.976 87.1855 62.1893 87.1855 62.616V70.36C87.1855 70.7867 86.9722 71 86.5455 71H81.2335ZM79.8895 55.832C80.3162 55.832 80.5295 55.6187 80.5295 55.192V32.728C80.5295 32.472 80.4442 32.3227 80.2735 32.28C80.1455 32.2373 80.0175 32.344 79.8895 32.6L67.3455 55.064C67.2602 55.2347 67.2175 55.3627 67.2175 55.448C67.2175 55.704 67.4095 55.832 67.7935 55.832H79.8895Z" fill="#FFFFF1"/>
<line x1="20" y1="103.5" x2="214" y2="103.5" stroke="#FFFFF1"/>
<path d="M21.692 155C21.224 155 20.972 154.748 20.972 154.28V135.452C20.972 132.356 20.864 131.852 20.54 130.34C20.468 130.016 20.648 129.8 20.972 129.8H27.452C28.244 129.8 28.532 130.016 28.604 130.844L29.612 142.076C29.648 142.364 29.756 142.472 29.936 142.472C30.116 142.472 30.26 142.364 30.296 142.076L31.304 130.844C31.376 130.016 31.664 129.8 32.456 129.8H39.188C39.512 129.8 39.692 130.016 39.62 130.34C39.296 131.852 39.188 132.356 39.188 135.452V154.28C39.188 154.748 38.936 155 38.468 155H34.976C34.508 155 34.256 154.748 34.256 154.28C34.256 149.204 34.328 143.588 34.4 138.152C34.4 137.9 34.328 137.72 34.076 137.72C33.896 137.72 33.752 137.828 33.716 138.116L31.736 154.316C31.664 154.784 31.376 155 30.944 155H28.856C28.424 155 28.136 154.784 28.064 154.316L26.084 138.08C26.048 137.828 25.94 137.72 25.724 137.72C25.472 137.72 25.4 137.936 25.4 138.152C25.472 143.588 25.544 149.204 25.544 154.28C25.544 154.748 25.292 155 24.824 155H21.692ZM40.9365 155C40.5405 155 40.3245 154.82 40.3605 154.46L42.6285 133.292C42.7725 131.924 42.7005 131.24 42.5565 130.484C42.4845 130.016 42.7005 129.8 43.0245 129.8H51.3405C51.6645 129.8 51.8805 130.016 51.7725 130.484C51.6285 131.168 51.5205 131.816 51.6645 133.292L53.9325 154.46C53.9685 154.82 53.7525 155 53.3565 155H49.3965C49.0725 155 48.8565 154.82 48.8205 154.532L48.4965 151.364C48.4605 151.004 48.2805 150.824 47.9205 150.824H46.0845C45.7245 150.824 45.5085 151.004 45.4725 151.364L45.1485 154.532C45.1125 154.856 44.8605 155 44.5725 155H40.9365ZM47.5245 146C47.9205 146 47.9925 145.82 47.9565 145.532C47.7045 142.616 47.5245 140.564 47.3805 136.568C47.3805 136.244 47.2365 136.064 46.9845 136.064C46.7325 136.064 46.5885 136.244 46.5885 136.568C46.4445 140.564 46.2645 142.616 46.0125 145.532C45.9765 145.82 46.0485 146 46.4445 146H47.5245ZM57.6189 155C57.1509 155 56.8989 154.748 56.8989 154.28V135.02C56.8989 134.696 56.7549 134.408 56.2149 134.408C55.6389 134.408 55.2789 134.696 54.3069 135.488C53.8029 135.884 53.3349 136.028 53.3349 135.416V130.52C53.3349 130.052 53.5869 129.8 54.0549 129.8H64.9629C65.4309 129.8 65.6829 130.052 65.6829 130.52V135.416C65.6829 136.028 65.2149 135.884 64.7109 135.488C63.7389 134.696 63.3789 134.408 62.8029 134.408C62.2629 134.408 62.1189 134.696 62.1189 135.02V154.28C62.1189 154.748 61.8669 155 61.3989 155H57.6189ZM67.6764 155C67.2084 155 66.9564 154.748 66.9564 154.28V135.812C66.9564 132.716 66.8484 131.852 66.5244 130.34C66.4524 130.016 66.6324 129.8 66.9564 129.8H76.5324C76.7484 129.8 76.8924 129.944 76.8924 130.16V135.164C76.8924 135.56 76.5684 135.632 76.1724 135.416C74.8044 134.696 74.0484 134.444 73.2204 134.444C72.3924 134.444 72.1764 134.768 72.1764 135.344V139.376C72.1764 139.592 72.3204 139.736 72.5364 139.736H75.9564C76.1724 139.736 76.3164 139.88 76.3164 140.096V144.38C76.3164 144.596 76.1724 144.74 75.9564 144.74H72.5364C72.3204 144.74 72.1764 144.884 72.1764 145.1V149.6C72.1764 149.816 72.3204 149.96 72.5364 149.96H76.6404C76.8564 149.96 77.0004 150.104 77.0004 150.32V154.64C77.0004 154.856 76.8564 155 76.6404 155H67.6764ZM79.1725 155C78.7045 155 78.4525 154.748 78.4525 154.28V135.812C78.4525 132.716 78.3445 131.852 78.0205 130.34C77.9485 130.016 78.1285 129.8 78.4525 129.8H84.2845C88.9285 129.8 91.0525 133.292 91.0525 138.656C91.0525 140.852 90.5845 142.868 89.7205 144.236C89.1445 145.136 89.0725 145.928 89.2525 146.684L91.1605 154.136C91.2325 154.424 91.2325 155 90.5485 155H86.6965C86.2645 155 86.0125 154.784 85.9045 154.316L84.3565 147.296C84.2845 147.008 84.2125 146.756 83.9245 146.756C83.6725 146.756 83.5645 146.972 83.5645 147.332V154.28C83.5645 154.748 83.3125 155 82.8445 155H79.1725ZM84.2125 143.228C85.1485 143.228 85.8685 141.968 85.8685 138.728C85.8685 135.524 85.1485 134.264 84.2125 134.264H84.0685C83.7445 134.264 83.5645 134.444 83.5645 134.768V142.724C83.5645 143.048 83.7445 143.228 84.0685 143.228H84.2125ZM93.1647 155C92.6967 155 92.4447 154.748 92.4447 154.28V135.452C92.4447 132.356 92.3367 131.852 92.0127 130.34C91.9407 130.016 92.1207 129.8 92.4447 129.8H97.6647C97.9887 129.8 98.1687 130.016 98.0967 130.34C97.7727 131.852 97.6647 132.356 97.6647 135.452V154.28C97.6647 154.748 97.4127 155 96.9447 155H93.1647ZM99.4365 155C99.0405 155 98.8245 154.82 98.8605 154.46L101.129 133.292C101.273 131.924 101.201 131.24 101.057 130.484C100.985 130.016 101.201 129.8 101.525 129.8H109.841C110.165 129.8 110.381 130.016 110.273 130.484C110.129 131.168 110.021 131.816 110.165 133.292L112.433 154.46C112.469 154.82 112.253 155 111.857 155H107.897C107.573 155 107.357 154.82 107.321 154.532L106.997 151.364C106.961 151.004 106.781 150.824 106.421 150.824H104.585C104.225 150.824 104.009 151.004 103.973 151.364L103.649 154.532C103.613 154.856 103.361 155 103.073 155H99.4365ZM106.025 146C106.421 146 106.493 145.82 106.457 145.532C106.205 142.616 106.025 140.564 105.881 136.568C105.881 136.244 105.737 136.064 105.485 136.064C105.233 136.064 105.089 136.244 105.089 136.568C104.945 140.564 104.765 142.616 104.513 145.532C104.477 145.82 104.549 146 104.945 146H106.025ZM114.329 155C113.861 155 113.609 154.748 113.609 154.28V135.812C113.609 132.716 113.501 131.852 113.177 130.34C113.105 130.016 113.285 129.8 113.609 129.8H118.829C119.153 129.8 119.333 130.016 119.261 130.34C118.937 131.852 118.829 132.716 118.829 135.812V149.6C118.829 149.816 118.973 149.96 119.189 149.96H123.293C123.509 149.96 123.653 150.104 123.653 150.32V154.64C123.653 154.856 123.509 155 123.293 155H114.329ZM125.544 155C125.076 155 124.824 154.748 124.824 154.28V135.452C124.824 132.356 124.716 131.852 124.392 130.34C124.32 130.016 124.5 129.8 124.824 129.8H130.044C130.368 129.8 130.548 130.016 130.476 130.34C130.152 131.852 130.044 132.356 130.044 135.452V154.28C130.044 154.748 129.792 155 129.324 155H125.544ZM135.595 155C135.127 155 134.875 154.748 134.875 154.28V135.02C134.875 134.696 134.731 134.408 134.191 134.408C133.615 134.408 133.255 134.696 132.283 135.488C131.779 135.884 131.311 136.028 131.311 135.416V130.52C131.311 130.052 131.563 129.8 132.031 129.8H142.939C143.407 129.8 143.659 130.052 143.659 130.52V135.416C143.659 136.028 143.191 135.884 142.687 135.488C141.715 134.696 141.355 134.408 140.779 134.408C140.239 134.408 140.095 134.696 140.095 135.02V154.28C140.095 154.748 139.843 155 139.375 155H135.595ZM149.285 155C148.817 155 148.565 154.748 148.565 154.28V151.58C148.565 149.276 148.421 148.376 147.629 144.812L145.253 134.264C144.821 132.356 144.605 131.78 143.921 130.304C143.777 130.016 143.921 129.8 144.209 129.8H150.005C150.293 129.8 150.401 130.088 150.365 130.304C150.149 131.132 149.933 131.888 150.365 134.156C150.617 135.524 150.689 136.856 150.941 139.34C150.977 139.7 151.049 139.988 151.337 139.988C151.625 139.988 151.697 139.7 151.733 139.34C151.985 136.856 152.093 135.524 152.345 134.156C152.777 131.888 152.561 131.132 152.345 130.304C152.309 130.088 152.417 129.8 152.705 129.8H157.997C158.285 129.8 158.429 130.016 158.285 130.304C157.601 131.78 157.349 132.356 156.953 134.264L154.757 144.812C154.001 148.376 153.785 149.276 153.785 151.58V154.28C153.785 154.748 153.533 155 153.065 155H149.285ZM20.792 196C20.396 196 20.18 195.82 20.216 195.46L22.484 174.292C22.628 172.924 22.556 172.24 22.412 171.484C22.34 171.016 22.556 170.8 22.88 170.8H31.196C31.52 170.8 31.736 171.016 31.628 171.484C31.484 172.168 31.376 172.816 31.52 174.292L33.788 195.46C33.824 195.82 33.608 196 33.212 196H29.252C28.928 196 28.712 195.82 28.676 195.532L28.352 192.364C28.316 192.004 28.136 191.824 27.776 191.824H25.94C25.58 191.824 25.364 192.004 25.328 192.364L25.004 195.532C24.968 195.856 24.716 196 24.428 196H20.792ZM27.38 187C27.776 187 27.848 186.82 27.812 186.532C27.56 183.616 27.38 181.564 27.236 177.568C27.236 177.244 27.092 177.064 26.84 177.064C26.588 177.064 26.444 177.244 26.444 177.568C26.3 181.564 26.12 183.616 25.868 186.532C25.832 186.82 25.904 187 26.3 187H27.38ZM35.6842 196C35.2162 196 34.9642 195.748 34.9642 195.28V176.812C34.9642 173.716 34.8562 172.852 34.5322 171.34C34.4602 171.016 34.6402 170.8 34.9642 170.8H40.7962C45.4402 170.8 47.5642 174.292 47.5642 179.656C47.5642 181.852 47.0962 183.868 46.2322 185.236C45.6562 186.136 45.5842 186.928 45.7642 187.684L47.6722 195.136C47.7442 195.424 47.7442 196 47.0602 196H43.2082C42.7762 196 42.5242 195.784 42.4162 195.316L40.8682 188.296C40.7962 188.008 40.7242 187.756 40.4362 187.756C40.1842 187.756 40.0762 187.972 40.0762 188.332V195.28C40.0762 195.748 39.8242 196 39.3562 196H35.6842ZM40.7242 184.228C41.6602 184.228 42.3802 182.968 42.3802 179.728C42.3802 176.524 41.6602 175.264 40.7242 175.264H40.5802C40.2562 175.264 40.0762 175.444 40.0762 175.768V183.724C40.0762 184.048 40.2562 184.228 40.5802 184.228H40.7242ZM49.6764 196C49.2084 196 48.9564 195.748 48.9564 195.28V176.812C48.9564 173.716 48.8484 172.852 48.5244 171.34C48.4524 171.016 48.6324 170.8 48.9564 170.8H58.5324C58.7484 170.8 58.8924 170.944 58.8924 171.16V176.164C58.8924 176.56 58.5684 176.632 58.1724 176.416C56.8044 175.696 56.0484 175.444 55.2204 175.444C54.3924 175.444 54.1764 175.768 54.1764 176.344V180.376C54.1764 180.592 54.3204 180.736 54.5364 180.736H57.9564C58.1724 180.736 58.3164 180.88 58.3164 181.096V185.38C58.3164 185.596 58.1724 185.74 57.9564 185.74H54.5364C54.3204 185.74 54.1764 185.884 54.1764 186.1V190.6C54.1764 190.816 54.3204 190.96 54.5364 190.96H58.6404C58.8564 190.96 59.0004 191.104 59.0004 191.32V195.64C59.0004 195.856 58.8564 196 58.6404 196H49.6764ZM60.2725 196C59.8765 196 59.6605 195.82 59.6965 195.46L61.9645 174.292C62.1085 172.924 62.0365 172.24 61.8925 171.484C61.8205 171.016 62.0365 170.8 62.3605 170.8H70.6765C71.0005 170.8 71.2165 171.016 71.1085 171.484C70.9645 172.168 70.8565 172.816 71.0005 174.292L73.2685 195.46C73.3045 195.82 73.0885 196 72.6925 196H68.7325C68.4085 196 68.1925 195.82 68.1565 195.532L67.8325 192.364C67.7965 192.004 67.6165 191.824 67.2565 191.824H65.4205C65.0605 191.824 64.8445 192.004 64.8085 192.364L64.4845 195.532C64.4485 195.856 64.1965 196 63.9085 196H60.2725ZM66.8605 187C67.2565 187 67.3285 186.82 67.2925 186.532C67.0405 183.616 66.8605 181.564 66.7165 177.568C66.7165 177.244 66.5725 177.064 66.3205 177.064C66.0685 177.064 65.9245 177.244 65.9245 177.568C65.7805 181.564 65.6005 183.616 65.3485 186.532C65.3125 186.82 65.3845 187 65.7805 187H66.8605ZM78.3687 196.36C76.7487 196.36 75.2367 195.892 74.5887 195.172C74.1207 194.668 74.0127 194.092 74.0127 193.444V188.98C74.0127 188.62 74.1567 188.26 74.5167 188.26C74.8407 188.26 74.9847 188.476 75.4527 189.16C76.1007 190.132 76.7127 190.924 77.8647 190.924C78.9807 190.924 79.3767 189.88 79.3767 189.052C79.3767 187.648 78.4407 186.64 76.9647 184.948C75.4887 183.256 73.9767 181.168 73.9767 177.964C73.9767 173.644 76.2447 170.44 80.2767 170.44C81.8247 170.44 83.0127 170.908 83.6607 171.592C84.1647 172.096 84.2367 172.708 84.2367 173.356V177.208C84.2367 177.604 84.0927 177.928 83.7327 177.928C83.4087 177.928 83.2647 177.784 82.7247 177.1C82.1487 176.344 81.6807 175.876 80.9247 175.876C79.7727 175.876 79.3047 176.776 79.3047 177.64C79.3047 179.116 80.3127 180.268 81.8607 182.032C83.4087 183.832 84.7407 185.74 84.7407 188.908C84.7407 193.192 82.4007 196.36 78.3687 196.36Z" fill="#FFFFF1"/>
</g>
<defs>
<clipPath id="clip0_344_15219">
<rect width="234" height="222" fill="white"/>
</clipPath>
</defs>
</svg>
