<svg width="234" height="222" viewBox="0 0 234 222" fill="none" xmlns="http://www.w3.org/2000/svg">
<path d="M39.511 71.768C36.055 71.768 33.047 70.8507 30.487 69.016C27.927 67.1813 25.943 64.5573 24.535 61.144C23.1697 57.7307 22.487 53.72 22.487 49.112C22.487 44.504 23.1697 40.5147 24.535 37.144C25.943 33.7307 27.927 31.1067 30.487 29.272C33.047 27.4373 36.055 26.52 39.511 26.52C42.967 26.52 45.975 27.4373 48.535 29.272C51.095 31.1067 53.0577 33.7307 54.423 37.144C55.831 40.5147 56.535 44.504 56.535 49.112C56.535 53.72 55.831 57.7307 54.423 61.144C53.0577 64.5573 51.095 67.1813 48.535 69.016C45.975 70.8507 42.967 71.768 39.511 71.768ZM39.511 65.368C42.6683 65.368 45.079 63.9813 46.743 61.208C48.4497 58.392 49.303 54.36 49.303 49.112C49.303 43.9067 48.4497 39.9173 46.743 37.144C45.079 34.328 42.6683 32.92 39.511 32.92C36.3537 32.92 33.9217 34.328 32.215 37.144C30.5083 39.9173 29.655 43.9067 29.655 49.112C29.655 54.36 30.5083 58.392 32.215 61.208C33.9217 63.9813 36.3537 65.368 39.511 65.368ZM71.3045 71C70.8778 71 70.6645 70.7867 70.6645 70.36V38.872C70.6645 38.5307 70.5578 38.36 70.3445 38.36C70.1738 38.36 70.0032 38.4453 69.8325 38.616C68.1685 40.4507 66.4618 41.752 64.7125 42.52C63.0058 43.2453 61.5125 43.608 60.2325 43.608C59.7632 43.608 59.5285 43.3733 59.5285 42.904V38.168C59.5285 37.7413 59.7205 37.5067 60.1045 37.464C62.6218 36.7813 64.8405 35.608 66.7605 33.944C68.7232 32.28 70.1952 30.1893 71.1765 27.672C71.3045 27.3307 71.5605 27.16 71.9445 27.16H77.0645C77.4912 27.16 77.7045 27.3733 77.7045 27.8V70.36C77.7045 70.7867 77.4912 71 77.0645 71H71.3045Z" fill="#FFFFF1"/>
<line x1="20" y1="103.5" x2="214" y2="103.5" stroke="#FFFFF1"/>
<path d="M24.572 155C24.104 155 23.852 154.748 23.852 154.28V135.02C23.852 134.696 23.708 134.408 23.168 134.408C22.592 134.408 22.232 134.696 21.26 135.488C20.756 135.884 20.288 136.028 20.288 135.416V130.52C20.288 130.052 20.54 129.8 21.008 129.8H31.916C32.384 129.8 32.636 130.052 32.636 130.52V135.416C32.636 136.028 32.168 135.884 31.664 135.488C30.692 134.696 30.332 134.408 29.756 134.408C29.216 134.408 29.072 134.696 29.072 135.02V154.28C29.072 154.748 28.82 155 28.352 155H24.572ZM34.6295 155C34.1615 155 33.9095 154.748 33.9095 154.28V135.812C33.9095 132.716 33.8015 131.852 33.4775 130.34C33.4055 130.016 33.5855 129.8 33.9095 129.8H39.1295C39.4535 129.8 39.6335 130.016 39.5615 130.34C39.2375 131.852 39.1295 132.716 39.1295 135.812V138.872C39.1295 139.016 39.2015 139.088 39.3455 139.088H41.4335C41.5775 139.088 41.6495 139.016 41.6495 138.872V135.812C41.6495 132.716 41.5415 131.852 41.2175 130.34C41.1455 130.016 41.3255 129.8 41.6495 129.8H46.8695C47.1935 129.8 47.3735 130.016 47.3015 130.34C46.9775 131.852 46.8695 132.716 46.8695 135.812V154.28C46.8695 154.748 46.6175 155 46.1495 155H42.3695C41.9015 155 41.6495 154.748 41.6495 154.28V144.884C41.6495 144.74 41.5775 144.668 41.4335 144.668H39.3455C39.2015 144.668 39.1295 144.74 39.1295 144.884V154.28C39.1295 154.748 38.8775 155 38.4095 155H34.6295ZM55.3318 155.36C51.0478 155.36 48.3478 152.156 48.3478 142.4C48.3478 132.644 51.0478 129.44 55.3318 129.44C59.6158 129.44 62.3518 132.644 62.3518 142.4C62.3518 152.156 59.6158 155.36 55.3318 155.36ZM55.3318 150.32C56.1598 150.32 56.8438 149.384 56.8438 142.4C56.8438 135.38 56.1598 134.48 55.3318 134.48C54.5038 134.48 53.8558 135.38 53.8558 142.4C53.8558 149.384 54.5038 150.32 55.3318 150.32ZM52.2718 128.792C51.9478 128.792 51.8758 128.612 51.8758 128.432V127.712C51.8758 127.532 51.9838 127.424 52.1278 127.388C53.2798 127.208 54.0718 126.776 54.8278 126.056C55.0078 125.876 55.1878 125.768 55.3678 125.768C55.5478 125.768 55.7278 125.876 55.9078 126.056C56.6638 126.776 57.4558 127.208 58.6078 127.388C58.7518 127.424 58.8598 127.532 58.8598 127.712V128.432C58.8598 128.612 58.7878 128.792 58.4638 128.792C57.1318 128.792 55.8718 128.108 55.3678 127.352C54.8638 128.108 53.6038 128.792 52.2718 128.792ZM64.5475 155C64.0795 155 63.8275 154.748 63.8275 154.28V135.452C63.8275 132.356 63.7195 131.852 63.3955 130.34C63.3235 130.016 63.5035 129.8 63.8275 129.8H68.0035C68.4355 129.8 68.7235 130.016 68.7955 130.412L71.0995 141.32C71.1355 141.572 71.2795 141.716 71.4955 141.716C71.7475 141.716 71.8195 141.536 71.8195 141.248C71.7835 140.276 71.8555 137.144 71.7835 135.092C71.6755 132.356 71.5675 131.852 71.2435 130.34C71.1715 130.016 71.3515 129.8 71.6755 129.8H76.3915C76.7155 129.8 76.8955 130.016 76.8235 130.34C76.4995 131.852 76.3915 132.356 76.3915 135.452V154.28C76.3915 154.748 76.1395 155 75.6715 155H72.2155C71.7835 155 71.4955 154.784 71.4235 154.388L69.0835 143.444C69.0475 143.192 68.9035 143.084 68.7235 143.084C68.5075 143.084 68.3635 143.228 68.3635 143.516C68.4715 145.928 68.5795 150.932 68.5795 154.28C68.5795 154.748 68.3275 155 67.8595 155H64.5475ZM85.007 155.36C79.967 155.36 77.843 151.076 77.843 142.4C77.843 133.328 80.579 129.44 85.295 129.44C86.663 129.44 88.103 129.656 88.895 130.484C89.327 130.916 89.507 131.456 89.507 132.212V135.488C89.507 135.956 89.399 136.352 88.967 136.352C88.715 136.352 88.499 136.244 88.031 135.704C87.635 135.236 87.131 134.696 86.267 134.696C84.251 134.696 83.279 137.072 83.279 142.472C83.279 143.948 83.351 150.464 84.899 150.464C85.223 150.464 85.367 150.14 85.367 149.636V146.468C85.367 143.372 85.259 142.868 84.935 141.356C84.863 141.032 85.043 140.816 85.367 140.816H89.255C89.723 140.816 90.011 141.068 90.011 141.536V149.456C90.011 153.848 87.671 155.36 85.007 155.36ZM97.0771 155C96.6091 155 96.3571 154.748 96.3571 154.28V143.48C96.3571 143.264 96.2131 143.12 95.9971 143.12H95.6011C95.3851 143.12 95.2411 142.976 95.2411 142.76V141.608C95.2411 141.392 95.3851 141.248 95.6011 141.248H95.9971C96.2131 141.248 96.3571 141.104 96.3571 140.888V135.812C96.3571 132.716 96.2491 131.852 95.9251 130.34C95.8531 130.016 96.0331 129.8 96.3571 129.8H102.153C107.085 129.8 109.749 133.364 109.749 142.4C109.749 151.436 107.085 155 102.153 155H97.0771ZM102.225 150.068C103.197 150.068 104.277 148.88 104.277 142.4C104.277 135.92 103.197 134.732 102.225 134.732H101.937C101.721 134.732 101.577 134.876 101.577 135.092V140.888C101.577 141.104 101.721 141.248 101.937 141.248H102.837C103.053 141.248 103.197 141.392 103.197 141.608V142.76C103.197 142.976 103.053 143.12 102.837 143.12H101.937C101.721 143.12 101.577 143.264 101.577 143.48V149.708C101.577 149.924 101.721 150.068 101.937 150.068H102.225ZM111.938 155C111.47 155 111.218 154.748 111.218 154.28V135.452C111.218 132.356 111.11 131.852 110.786 130.34C110.714 130.016 110.894 129.8 111.218 129.8H116.438C116.762 129.8 116.942 130.016 116.87 130.34C116.546 131.852 116.438 132.356 116.438 135.452V154.28C116.438 154.748 116.186 155 115.718 155H111.938ZM119.11 155C118.642 155 118.39 154.748 118.39 154.28V135.812C118.39 132.716 118.282 131.852 117.958 130.34C117.886 130.016 118.066 129.8 118.39 129.8H127.966C128.182 129.8 128.326 129.944 128.326 130.16V135.164C128.326 135.56 128.002 135.632 127.606 135.416C126.238 134.696 125.482 134.444 124.654 134.444C123.826 134.444 123.61 134.768 123.61 135.344V139.376C123.61 139.592 123.754 139.736 123.97 139.736H127.39C127.606 139.736 127.75 139.88 127.75 140.096V144.38C127.75 144.596 127.606 144.74 127.39 144.74H123.97C123.754 144.74 123.61 144.884 123.61 145.1V149.6C123.61 149.816 123.754 149.96 123.97 149.96H128.074C128.29 149.96 128.434 150.104 128.434 150.32V154.64C128.434 154.856 128.29 155 128.074 155H119.11ZM120.982 158.168C120.802 158.168 120.694 158.06 120.694 157.88V157.052C120.694 156.872 120.802 156.764 120.982 156.764H125.806C125.986 156.764 126.094 156.872 126.094 157.052V157.88C126.094 158.06 125.986 158.168 125.806 158.168H120.982ZM120.298 128.792C119.974 128.792 119.902 128.612 119.902 128.432V127.712C119.902 127.532 120.01 127.424 120.154 127.388C121.306 127.208 122.098 126.776 122.854 126.056C123.034 125.876 123.214 125.768 123.394 125.768C123.574 125.768 123.754 125.876 123.934 126.056C124.69 126.776 125.482 127.208 126.634 127.388C126.778 127.424 126.886 127.532 126.886 127.712V128.432C126.886 128.612 126.814 128.792 126.49 128.792C125.158 128.792 123.898 128.108 123.394 127.352C122.89 128.108 121.63 128.792 120.298 128.792ZM130.606 155C130.138 155 129.886 154.748 129.886 154.28V135.812C129.886 132.716 129.778 131.852 129.454 130.34C129.382 130.016 129.562 129.8 129.886 129.8H135.502C140.578 129.8 142.486 133.364 142.486 138.908C142.486 144.236 140.722 147.8 135.718 147.8H135.43C135.142 147.8 134.998 147.944 134.998 148.232V154.28C134.998 154.748 134.746 155 134.278 155H130.606ZM135.646 143.48C136.654 143.48 137.302 142.22 137.302 138.908C137.302 135.632 136.654 134.372 135.646 134.372H135.43C135.178 134.372 134.998 134.552 134.998 134.84V143.012C134.998 143.264 135.142 143.48 135.43 143.48H135.646ZM24.572 196C24.104 196 23.852 195.748 23.852 195.28V176.02C23.852 175.696 23.708 175.408 23.168 175.408C22.592 175.408 22.232 175.696 21.26 176.488C20.756 176.884 20.288 177.028 20.288 176.416V171.52C20.288 171.052 20.54 170.8 21.008 170.8H31.916C32.384 170.8 32.636 171.052 32.636 171.52V176.416C32.636 177.028 32.168 176.884 31.664 176.488C30.692 175.696 30.332 175.408 29.756 175.408C29.216 175.408 29.072 175.696 29.072 176.02V195.28C29.072 195.748 28.82 196 28.352 196H24.572ZM39.9333 196.36C35.6493 196.36 32.9493 193.156 32.9493 183.4C32.9493 173.644 35.6493 170.44 39.9333 170.44C44.2173 170.44 46.9533 173.644 46.9533 183.4C46.9533 193.156 44.2173 196.36 39.9333 196.36ZM39.9333 191.32C40.7613 191.32 41.4453 190.384 41.4453 183.4C41.4453 176.38 40.7613 175.48 39.9333 175.48C39.1053 175.48 38.4573 176.38 38.4573 183.4C38.4573 190.384 39.1053 191.32 39.9333 191.32ZM37.0173 169.792C36.6933 169.792 36.6213 169.612 36.6213 169.396V168.784C36.6213 168.604 36.6933 168.46 36.9453 168.424C38.0253 168.244 38.7093 167.92 39.4653 167.308C39.6453 167.164 39.7893 167.056 39.9693 167.056C40.1493 167.056 40.2933 167.164 40.4733 167.308C41.2293 167.92 41.9133 168.244 42.9933 168.424C43.2453 168.46 43.3173 168.604 43.3173 168.784V169.396C43.3173 169.612 43.2453 169.792 42.9213 169.792C41.8413 169.792 40.5813 169.216 39.9693 168.568C39.3573 169.216 38.0973 169.792 37.0173 169.792ZM42.0933 167.452C41.7333 167.452 41.5533 167.236 41.5533 166.876C41.5533 166.624 41.6253 166.408 42.0213 166.228L42.7053 165.94C42.9573 165.832 43.1373 165.724 43.1373 165.472C43.1373 165.22 42.8493 165.112 42.4893 165.112C42.0573 165.112 41.6973 165.328 41.2653 165.724C41.0493 165.904 40.7973 165.832 40.7973 165.616V164.86C40.7973 164.572 40.8333 164.32 41.1933 164.104C41.4813 163.924 41.9133 163.78 42.5253 163.78C43.8213 163.78 44.6493 164.392 44.6493 165.4C44.6493 166.084 44.2173 166.516 43.4973 166.84C43.1013 167.02 42.9573 167.092 42.8493 167.272C42.7773 167.38 42.7053 167.452 42.4893 167.452H42.0933ZM49.149 196C48.681 196 48.429 195.748 48.429 195.28V176.452C48.429 173.356 48.321 172.852 47.997 171.34C47.925 171.016 48.105 170.8 48.429 170.8H52.605C53.037 170.8 53.325 171.016 53.397 171.412L55.701 182.32C55.737 182.572 55.881 182.716 56.097 182.716C56.349 182.716 56.421 182.536 56.421 182.248C56.385 181.276 56.457 178.144 56.385 176.092C56.277 173.356 56.169 172.852 55.845 171.34C55.773 171.016 55.953 170.8 56.277 170.8H60.993C61.317 170.8 61.497 171.016 61.425 171.34C61.101 172.852 60.993 173.356 60.993 176.452V195.28C60.993 195.748 60.741 196 60.273 196H56.817C56.385 196 56.097 195.784 56.025 195.388L53.685 184.444C53.649 184.192 53.505 184.084 53.325 184.084C53.109 184.084 52.965 184.228 52.965 184.516C53.073 186.928 53.181 191.932 53.181 195.28C53.181 195.748 52.929 196 52.461 196H49.149ZM69.6086 196.36C64.5686 196.36 62.4446 192.076 62.4446 183.4C62.4446 174.328 65.1806 170.44 69.8966 170.44C71.2646 170.44 72.7046 170.656 73.4966 171.484C73.9286 171.916 74.1086 172.456 74.1086 173.212V176.488C74.1086 176.956 74.0006 177.352 73.5686 177.352C73.3166 177.352 73.1006 177.244 72.6326 176.704C72.2366 176.236 71.7326 175.696 70.8686 175.696C68.8526 175.696 67.8806 178.072 67.8806 183.472C67.8806 184.948 67.9526 191.464 69.5006 191.464C69.8246 191.464 69.9686 191.14 69.9686 190.636V187.468C69.9686 184.372 69.8606 183.868 69.5366 182.356C69.4646 182.032 69.6446 181.816 69.9686 181.816H73.8566C74.3246 181.816 74.6126 182.068 74.6126 182.536V190.456C74.6126 194.848 72.2726 196.36 69.6086 196.36ZM87.1867 196.36C82.1467 196.36 80.0227 192.076 80.0227 183.4C80.0227 174.328 82.7587 170.44 87.4747 170.44C88.8427 170.44 90.2827 170.656 91.0747 171.484C91.5067 171.916 91.6867 172.456 91.6867 173.212V176.488C91.6867 176.956 91.5787 177.352 91.1467 177.352C90.8947 177.352 90.6787 177.244 90.2107 176.704C89.8147 176.236 89.3107 175.696 88.4467 175.696C86.4307 175.696 85.4587 178.072 85.4587 183.472C85.4587 184.948 85.5307 191.464 87.0787 191.464C87.4027 191.464 87.5467 191.14 87.5467 190.636V187.468C87.5467 184.372 87.4387 183.868 87.1147 182.356C87.0427 182.032 87.2227 181.816 87.5467 181.816H91.4347C91.9027 181.816 92.1907 182.068 92.1907 182.536V190.456C92.1907 194.848 89.8507 196.36 87.1867 196.36ZM94.4303 196C93.9623 196 93.7103 195.748 93.7103 195.28V176.452C93.7103 173.356 93.6023 172.852 93.2783 171.34C93.2063 171.016 93.3863 170.8 93.7103 170.8H98.9303C99.2543 170.8 99.4343 171.016 99.3623 171.34C99.0383 172.852 98.9303 173.356 98.9303 176.452V195.28C98.9303 195.748 98.6783 196 98.2103 196H94.4303ZM100.702 196C100.306 196 100.09 195.82 100.126 195.46L102.394 174.292C102.538 172.924 102.466 172.24 102.322 171.484C102.25 171.016 102.466 170.8 102.79 170.8H111.106C111.43 170.8 111.646 171.016 111.538 171.484C111.394 172.168 111.286 172.816 111.43 174.292L113.698 195.46C113.734 195.82 113.518 196 113.122 196H109.162C108.838 196 108.622 195.82 108.586 195.532L108.262 192.364C108.226 192.004 108.046 191.824 107.686 191.824H105.85C105.49 191.824 105.274 192.004 105.238 192.364L104.914 195.532C104.878 195.856 104.626 196 104.338 196H100.702ZM107.29 187C107.686 187 107.758 186.82 107.722 186.532C107.47 183.616 107.29 181.564 107.146 177.568C107.146 177.244 107.002 177.064 106.75 177.064C106.498 177.064 106.354 177.244 106.354 177.568C106.21 181.564 106.03 183.616 105.778 186.532C105.742 186.82 105.814 187 106.21 187H107.29ZM103.762 169.72C103.438 169.72 103.33 169.612 103.33 169.324V168.712C103.33 168.532 103.438 168.424 103.618 168.424C105.526 168.424 107.902 168.1 110.17 167.236C110.386 167.164 110.53 167.308 110.53 167.488V168.208C110.53 168.532 110.422 168.676 110.062 168.82C107.902 169.612 105.094 169.756 103.762 169.72ZM115.594 196C115.126 196 114.874 195.748 114.874 195.28V176.452C114.874 173.356 114.766 172.852 114.442 171.34C114.37 171.016 114.55 170.8 114.874 170.8H121.354C122.146 170.8 122.434 171.016 122.506 171.844L123.514 183.076C123.55 183.364 123.658 183.472 123.838 183.472C124.018 183.472 124.162 183.364 124.198 183.076L125.206 171.844C125.278 171.016 125.566 170.8 126.358 170.8H133.09C133.414 170.8 133.594 171.016 133.522 171.34C133.198 172.852 133.09 173.356 133.09 176.452V195.28C133.09 195.748 132.838 196 132.37 196H128.878C128.41 196 128.158 195.748 128.158 195.28C128.158 190.204 128.23 184.588 128.302 179.152C128.302 178.9 128.23 178.72 127.978 178.72C127.798 178.72 127.654 178.828 127.618 179.116L125.638 195.316C125.566 195.784 125.278 196 124.846 196H122.758C122.326 196 122.038 195.784 121.966 195.316L119.986 179.08C119.95 178.828 119.842 178.72 119.626 178.72C119.374 178.72 119.302 178.936 119.302 179.152C119.374 184.588 119.446 190.204 119.446 195.28C119.446 195.748 119.194 196 118.726 196H115.594ZM140.565 196C140.097 196 139.845 195.748 139.845 195.28V184.48C139.845 184.264 139.701 184.12 139.485 184.12H139.089C138.873 184.12 138.729 183.976 138.729 183.76V182.608C138.729 182.392 138.873 182.248 139.089 182.248H139.485C139.701 182.248 139.845 182.104 139.845 181.888V176.812C139.845 173.716 139.737 172.852 139.413 171.34C139.341 171.016 139.521 170.8 139.845 170.8H145.641C150.573 170.8 153.237 174.364 153.237 183.4C153.237 192.436 150.573 196 145.641 196H140.565ZM145.713 191.068C146.685 191.068 147.765 189.88 147.765 183.4C147.765 176.92 146.685 175.732 145.713 175.732H145.425C145.209 175.732 145.065 175.876 145.065 176.092V181.888C145.065 182.104 145.209 182.248 145.425 182.248H146.325C146.541 182.248 146.685 182.392 146.685 182.608V183.76C146.685 183.976 146.541 184.12 146.325 184.12H145.425C145.209 184.12 145.065 184.264 145.065 184.48V190.708C145.065 190.924 145.209 191.068 145.425 191.068H145.713ZM161.222 196.36C156.938 196.36 154.238 193.156 154.238 183.4C154.238 173.644 156.938 170.44 161.222 170.44C165.506 170.44 168.242 173.644 168.242 183.4C168.242 193.156 165.506 196.36 161.222 196.36ZM161.222 191.32C162.05 191.32 162.734 190.384 162.734 183.4C162.734 176.38 162.05 175.48 161.222 175.48C160.394 175.48 159.746 176.38 159.746 183.4C159.746 190.384 160.394 191.32 161.222 191.32ZM158.306 169.792C157.982 169.792 157.91 169.612 157.91 169.396V168.784C157.91 168.604 157.982 168.46 158.234 168.424C159.314 168.244 159.998 167.92 160.754 167.308C160.934 167.164 161.078 167.056 161.258 167.056C161.438 167.056 161.582 167.164 161.762 167.308C162.518 167.92 163.202 168.244 164.282 168.424C164.534 168.46 164.606 168.604 164.606 168.784V169.396C164.606 169.612 164.534 169.792 164.21 169.792C163.13 169.792 161.87 169.216 161.258 168.568C160.646 169.216 159.386 169.792 158.306 169.792ZM158.738 166.516C158.414 166.516 158.306 166.408 158.306 166.12V165.616C158.306 165.436 158.414 165.328 158.594 165.328C160.142 165.292 162.122 165.004 164.03 164.32C164.318 164.212 164.462 164.356 164.462 164.536V165.148C164.462 165.472 164.354 165.616 163.994 165.76C162.122 166.444 159.746 166.516 158.738 166.516ZM176.486 196.36C171.914 196.36 169.214 192.436 169.214 183.4C169.214 174.364 171.914 170.44 176.486 170.44C177.638 170.44 178.826 170.728 179.654 171.376C180.374 171.952 180.518 172.672 180.518 173.536V176.524C180.518 177.064 180.302 177.316 179.978 177.316C179.582 177.316 179.33 176.992 179.006 176.596C178.646 176.164 178.178 175.696 177.386 175.696C175.586 175.696 174.686 177.964 174.686 183.4C174.686 188.836 175.586 191.104 177.386 191.104C178.178 191.104 178.646 190.636 179.006 190.204C179.33 189.808 179.546 189.484 179.942 189.484C180.266 189.484 180.518 189.736 180.518 190.276V193.264C180.518 194.128 180.374 194.848 179.654 195.424C178.826 196.072 177.638 196.36 176.486 196.36Z" fill="#FFFFF1"/>
</svg>
