<svg width="235" height="222" viewBox="0 0 235 222" fill="none" xmlns="http://www.w3.org/2000/svg">
<g clip-path="url(#clip0_344_15217)">
<path d="M39.8652 71.768C36.4092 71.768 33.4012 70.8507 30.8412 69.016C28.2812 67.1813 26.2972 64.5573 24.8892 61.144C23.5239 57.7307 22.8412 53.72 22.8412 49.112C22.8412 44.504 23.5239 40.5147 24.8892 37.144C26.2972 33.7307 28.2812 31.1067 30.8412 29.272C33.4012 27.4373 36.4092 26.52 39.8652 26.52C43.3212 26.52 46.3292 27.4373 48.8892 29.272C51.4492 31.1067 53.4119 33.7307 54.7772 37.144C56.1852 40.5147 56.8892 44.504 56.8892 49.112C56.8892 53.72 56.1852 57.7307 54.7772 61.144C53.4119 64.5573 51.4492 67.1813 48.8892 69.016C46.3292 70.8507 43.3212 71.768 39.8652 71.768ZM39.8652 65.368C43.0225 65.368 45.4332 63.9813 47.0972 61.208C48.8039 58.392 49.6572 54.36 49.6572 49.112C49.6572 43.9067 48.8039 39.9173 47.0972 37.144C45.4332 34.328 43.0225 32.92 39.8652 32.92C36.7079 32.92 34.2759 34.328 32.5692 37.144C30.8625 39.9173 30.0092 43.9067 30.0092 49.112C30.0092 54.36 30.8625 58.392 32.5692 61.208C34.2759 63.9813 36.7079 65.368 39.8652 65.368ZM60.9202 71C60.4935 71 60.2802 70.7867 60.2802 70.36V66.52C60.2802 66.0933 60.4295 65.7307 60.7282 65.432L70.2642 55.64C73.8909 51.928 76.4509 48.9413 77.9442 46.68C79.4802 44.4187 80.2482 42.1573 80.2482 39.896C80.2482 37.6773 79.6082 35.9707 78.3282 34.776C77.0909 33.5387 75.2562 32.92 72.8242 32.92C70.3069 32.92 68.1735 33.5813 66.4242 34.904C64.6749 36.2267 62.9255 38.2747 61.1762 41.048C61.0055 41.3467 60.8135 41.496 60.6002 41.496C60.3015 41.496 60.1522 41.2613 60.1522 40.792V35.032C60.1522 34.2213 60.2162 33.56 60.3442 33.048C60.5149 32.536 60.7922 32.024 61.1762 31.512C62.2429 30.104 63.8002 28.9307 65.8482 27.992C67.9389 27.0107 70.2429 26.52 72.7602 26.52C75.6615 26.52 78.2215 27.0747 80.4402 28.184C82.6589 29.2507 84.3655 30.7653 85.5602 32.728C86.7975 34.648 87.4162 36.8453 87.4162 39.32C87.4162 42.1787 86.5842 44.952 84.9202 47.64C83.2562 50.2853 80.6962 53.4213 77.2402 57.048L71.0322 63.64C70.8615 63.8107 70.7762 63.9813 70.7762 64.152C70.7762 64.4507 71.0109 64.6 71.4802 64.6H87.8642C88.2909 64.6 88.5042 64.8133 88.5042 65.24V70.36C88.5042 70.7867 88.2909 71 87.8642 71H60.9202Z" fill="#FFFFF1"/>
<line x1="20.6667" y1="103.5" x2="214.667" y2="103.5" stroke="#FFFFF1"/>
<path d="M28.2987 155.36C23.2587 155.36 21.1347 151.076 21.1347 142.4C21.1347 133.328 23.8707 129.44 28.5867 129.44C29.9547 129.44 31.3947 129.656 32.1867 130.484C32.6187 130.916 32.7987 131.456 32.7987 132.212V135.488C32.7987 135.956 32.6907 136.352 32.2587 136.352C32.0067 136.352 31.7907 136.244 31.3227 135.704C30.9267 135.236 30.4227 134.696 29.5587 134.696C27.5427 134.696 26.5707 137.072 26.5707 142.472C26.5707 143.948 26.6427 150.464 28.1907 150.464C28.5147 150.464 28.6587 150.14 28.6587 149.636V146.468C28.6587 143.372 28.5507 142.868 28.2267 141.356C28.1547 141.032 28.3347 140.816 28.6587 140.816H32.5467C33.0147 140.816 33.3027 141.068 33.3027 141.536V149.456C33.3027 153.848 30.9627 155.36 28.2987 155.36ZM35.5423 155C35.0743 155 34.8223 154.748 34.8223 154.28V135.812C34.8223 132.716 34.7143 131.852 34.3903 130.34C34.3183 130.016 34.4983 129.8 34.8223 129.8H44.3983C44.6143 129.8 44.7583 129.944 44.7583 130.16V135.164C44.7583 135.56 44.4343 135.632 44.0383 135.416C42.6703 134.696 41.9143 134.444 41.0863 134.444C40.2583 134.444 40.0423 134.768 40.0423 135.344V139.376C40.0423 139.592 40.1863 139.736 40.4023 139.736H43.8223C44.0383 139.736 44.1823 139.88 44.1823 140.096V144.38C44.1823 144.596 44.0383 144.74 43.8223 144.74H40.4023C40.1863 144.74 40.0423 144.884 40.0423 145.1V149.6C40.0423 149.816 40.1863 149.96 40.4023 149.96H44.5063C44.7223 149.96 44.8663 150.104 44.8663 150.32V154.64C44.8663 154.856 44.7223 155 44.5063 155H35.5423ZM47.0384 155C46.5704 155 46.3184 154.748 46.3184 154.28V135.452C46.3184 132.356 46.2104 131.852 45.8864 130.34C45.8144 130.016 45.9944 129.8 46.3184 129.8H50.4944C50.9264 129.8 51.2144 130.016 51.2864 130.412L53.5904 141.32C53.6264 141.572 53.7704 141.716 53.9864 141.716C54.2384 141.716 54.3104 141.536 54.3104 141.248C54.2744 140.276 54.3464 137.144 54.2744 135.092C54.1664 132.356 54.0584 131.852 53.7344 130.34C53.6624 130.016 53.8424 129.8 54.1664 129.8H58.8824C59.2064 129.8 59.3864 130.016 59.3144 130.34C58.9904 131.852 58.8824 132.356 58.8824 135.452V154.28C58.8824 154.748 58.6304 155 58.1624 155H54.7064C54.2744 155 53.9864 154.784 53.9144 154.388L51.5744 143.444C51.5384 143.192 51.3944 143.084 51.2144 143.084C50.9984 143.084 50.8544 143.228 50.8544 143.516C50.9624 145.928 51.0704 150.932 51.0704 154.28C51.0704 154.748 50.8184 155 50.3504 155H47.0384ZM61.5579 155C61.0899 155 60.8379 154.748 60.8379 154.28V135.812C60.8379 132.716 60.7299 131.852 60.4059 130.34C60.3339 130.016 60.5139 129.8 60.8379 129.8H70.4139C70.6299 129.8 70.7739 129.944 70.7739 130.16V135.164C70.7739 135.56 70.4499 135.632 70.0539 135.416C68.6859 134.696 67.9299 134.444 67.1019 134.444C66.2739 134.444 66.0579 134.768 66.0579 135.344V139.376C66.0579 139.592 66.2019 139.736 66.4179 139.736H69.8379C70.0539 139.736 70.1979 139.88 70.1979 140.096V144.38C70.1979 144.596 70.0539 144.74 69.8379 144.74H66.4179C66.2019 144.74 66.0579 144.884 66.0579 145.1V149.6C66.0579 149.816 66.2019 149.96 66.4179 149.96H70.5219C70.7379 149.96 70.8819 150.104 70.8819 150.32V154.64C70.8819 154.856 70.7379 155 70.5219 155H61.5579ZM73.054 155C72.586 155 72.334 154.748 72.334 154.28V135.812C72.334 132.716 72.226 131.852 71.902 130.34C71.83 130.016 72.01 129.8 72.334 129.8H78.166C82.81 129.8 84.934 133.292 84.934 138.656C84.934 140.852 84.466 142.868 83.602 144.236C83.026 145.136 82.954 145.928 83.134 146.684L85.042 154.136C85.114 154.424 85.114 155 84.43 155H80.578C80.146 155 79.894 154.784 79.786 154.316L78.238 147.296C78.166 147.008 78.094 146.756 77.806 146.756C77.554 146.756 77.446 146.972 77.446 147.332V154.28C77.446 154.748 77.194 155 76.726 155H73.054ZM78.094 143.228C79.03 143.228 79.75 141.968 79.75 138.728C79.75 135.524 79.03 134.264 78.094 134.264H77.95C77.626 134.264 77.446 134.444 77.446 134.768V142.724C77.446 143.048 77.626 143.228 77.95 143.228H78.094ZM86.322 155C85.926 155 85.71 154.82 85.746 154.46L88.014 133.292C88.158 131.924 88.086 131.24 87.942 130.484C87.87 130.016 88.086 129.8 88.41 129.8H96.726C97.05 129.8 97.266 130.016 97.158 130.484C97.014 131.168 96.906 131.816 97.05 133.292L99.318 154.46C99.354 154.82 99.138 155 98.742 155H94.782C94.458 155 94.242 154.82 94.206 154.532L93.882 151.364C93.846 151.004 93.666 150.824 93.306 150.824H91.47C91.11 150.824 90.894 151.004 90.858 151.364L90.534 154.532C90.498 154.856 90.246 155 89.958 155H86.322ZM92.91 146C93.306 146 93.378 145.82 93.342 145.532C93.09 142.616 92.91 140.564 92.766 136.568C92.766 136.244 92.622 136.064 92.37 136.064C92.118 136.064 91.974 136.244 91.974 136.568C91.83 140.564 91.65 142.616 91.398 145.532C91.362 145.82 91.434 146 91.83 146H92.91ZM101.214 155C100.746 155 100.494 154.748 100.494 154.28V135.812C100.494 132.716 100.386 131.852 100.062 130.34C99.9902 130.016 100.17 129.8 100.494 129.8H105.714C106.038 129.8 106.218 130.016 106.146 130.34C105.822 131.852 105.714 132.716 105.714 135.812V149.6C105.714 149.816 105.858 149.96 106.074 149.96H110.178C110.394 149.96 110.538 150.104 110.538 150.32V154.64C110.538 154.856 110.394 155 110.178 155H101.214ZM22.3587 196C21.8907 196 21.6387 195.748 21.6387 195.28V176.452C21.6387 173.356 21.5307 172.852 21.2067 171.34C21.1347 171.016 21.3147 170.8 21.6387 170.8H26.8587C27.1827 170.8 27.3627 171.016 27.2907 171.34C26.9667 172.852 26.8587 173.356 26.8587 176.452V195.28C26.8587 195.748 26.6067 196 26.1387 196H22.3587ZM29.5306 196C29.0626 196 28.8106 195.748 28.8106 195.28V176.452C28.8106 173.356 28.7026 172.852 28.3786 171.34C28.3066 171.016 28.4866 170.8 28.8106 170.8H32.9866C33.4186 170.8 33.7066 171.016 33.7786 171.412L36.0826 182.32C36.1186 182.572 36.2626 182.716 36.4786 182.716C36.7306 182.716 36.8026 182.536 36.8026 182.248C36.7666 181.276 36.8386 178.144 36.7666 176.092C36.6586 173.356 36.5506 172.852 36.2266 171.34C36.1546 171.016 36.3346 170.8 36.6586 170.8H41.3746C41.6986 170.8 41.8786 171.016 41.8066 171.34C41.4826 172.852 41.3746 173.356 41.3746 176.452V195.28C41.3746 195.748 41.1226 196 40.6546 196H37.1986C36.7666 196 36.4786 195.784 36.4066 195.388L34.0666 184.444C34.0306 184.192 33.8866 184.084 33.7066 184.084C33.4906 184.084 33.3466 184.228 33.3466 184.516C33.4546 186.928 33.5626 191.932 33.5626 195.28C33.5626 195.748 33.3106 196 32.8426 196H29.5306ZM44.0501 196C43.5821 196 43.3301 195.748 43.3301 195.28V176.812C43.3301 173.716 43.2221 172.852 42.8981 171.34C42.8261 171.016 43.0061 170.8 43.3301 170.8H52.9061C53.1221 170.8 53.2661 170.944 53.2661 171.16V176.164C53.2661 176.56 52.9421 176.632 52.5461 176.416C51.1781 175.696 50.4221 175.444 49.5941 175.444C48.7661 175.444 48.5501 175.768 48.5501 176.344V180.376C48.5501 180.592 48.6941 180.736 48.9101 180.736H52.3301C52.5461 180.736 52.6901 180.88 52.6901 181.096V185.38C52.6901 185.596 52.5461 185.74 52.3301 185.74H48.9101C48.6941 185.74 48.5501 185.884 48.5501 186.1V195.28C48.5501 195.748 48.2981 196 47.8301 196H44.0501ZM60.85 196.36C56.566 196.36 53.866 193.156 53.866 183.4C53.866 173.644 56.566 170.44 60.85 170.44C65.134 170.44 67.87 173.644 67.87 183.4C67.87 193.156 65.134 196.36 60.85 196.36ZM60.85 191.32C61.678 191.32 62.362 190.384 62.362 183.4C62.362 176.38 61.678 175.48 60.85 175.48C60.022 175.48 59.374 176.38 59.374 183.4C59.374 190.384 60.022 191.32 60.85 191.32ZM70.0657 196C69.5977 196 69.3457 195.748 69.3457 195.28V176.812C69.3457 173.716 69.2377 172.852 68.9137 171.34C68.8417 171.016 69.0217 170.8 69.3457 170.8H75.1777C79.8217 170.8 81.9457 174.292 81.9457 179.656C81.9457 181.852 81.4777 183.868 80.6137 185.236C80.0377 186.136 79.9657 186.928 80.1457 187.684L82.0537 195.136C82.1257 195.424 82.1257 196 81.4417 196H77.5897C77.1577 196 76.9057 195.784 76.7977 195.316L75.2497 188.296C75.1777 188.008 75.1057 187.756 74.8177 187.756C74.5657 187.756 74.4577 187.972 74.4577 188.332V195.28C74.4577 195.748 74.2057 196 73.7377 196H70.0657ZM75.1057 184.228C76.0417 184.228 76.7617 182.968 76.7617 179.728C76.7617 176.524 76.0417 175.264 75.1057 175.264H74.9617C74.6377 175.264 74.4577 175.444 74.4577 175.768V183.724C74.4577 184.048 74.6377 184.228 74.9617 184.228H75.1057ZM84.0579 196C83.5899 196 83.3379 195.748 83.3379 195.28V176.452C83.3379 173.356 83.2299 172.852 82.9059 171.34C82.8339 171.016 83.0139 170.8 83.3379 170.8H89.8179C90.6099 170.8 90.8979 171.016 90.9699 171.844L91.9779 183.076C92.0139 183.364 92.1219 183.472 92.3019 183.472C92.4819 183.472 92.6259 183.364 92.6619 183.076L93.6699 171.844C93.7419 171.016 94.0299 170.8 94.8219 170.8H101.554C101.878 170.8 102.058 171.016 101.986 171.34C101.662 172.852 101.554 173.356 101.554 176.452V195.28C101.554 195.748 101.302 196 100.834 196H97.3419C96.8739 196 96.6219 195.748 96.6219 195.28C96.6219 190.204 96.6939 184.588 96.7659 179.152C96.7659 178.9 96.6939 178.72 96.4419 178.72C96.2619 178.72 96.1179 178.828 96.0819 179.116L94.1019 195.316C94.0299 195.784 93.7419 196 93.3099 196H91.2219C90.7899 196 90.5019 195.784 90.4299 195.316L88.4499 179.08C88.4139 178.828 88.3059 178.72 88.0899 178.72C87.8379 178.72 87.7659 178.936 87.7659 179.152C87.8379 184.588 87.9099 190.204 87.9099 195.28C87.9099 195.748 87.6579 196 87.1899 196H84.0579ZM103.302 196C102.906 196 102.69 195.82 102.726 195.46L104.994 174.292C105.138 172.924 105.066 172.24 104.922 171.484C104.85 171.016 105.066 170.8 105.39 170.8H113.706C114.03 170.8 114.246 171.016 114.138 171.484C113.994 172.168 113.886 172.816 114.03 174.292L116.298 195.46C116.334 195.82 116.118 196 115.722 196H111.762C111.438 196 111.222 195.82 111.186 195.532L110.862 192.364C110.826 192.004 110.646 191.824 110.286 191.824H108.45C108.09 191.824 107.874 192.004 107.838 192.364L107.514 195.532C107.478 195.856 107.226 196 106.938 196H103.302ZM109.89 187C110.286 187 110.358 186.82 110.322 186.532C110.07 183.616 109.89 181.564 109.746 177.568C109.746 177.244 109.602 177.064 109.35 177.064C109.098 177.064 108.954 177.244 108.954 177.568C108.81 181.564 108.63 183.616 108.378 186.532C108.342 186.82 108.414 187 108.81 187H109.89ZM119.985 196C119.517 196 119.265 195.748 119.265 195.28V176.02C119.265 175.696 119.121 175.408 118.581 175.408C118.005 175.408 117.645 175.696 116.673 176.488C116.169 176.884 115.701 177.028 115.701 176.416V171.52C115.701 171.052 115.953 170.8 116.421 170.8H127.329C127.797 170.8 128.049 171.052 128.049 171.52V176.416C128.049 177.028 127.581 176.884 127.077 176.488C126.105 175.696 125.745 175.408 125.169 175.408C124.629 175.408 124.485 175.696 124.485 176.02V195.28C124.485 195.748 124.233 196 123.765 196H119.985ZM130.042 196C129.574 196 129.322 195.748 129.322 195.28V176.452C129.322 173.356 129.214 172.852 128.89 171.34C128.818 171.016 128.998 170.8 129.322 170.8H134.542C134.866 170.8 135.046 171.016 134.974 171.34C134.65 172.852 134.542 173.356 134.542 176.452V195.28C134.542 195.748 134.29 196 133.822 196H130.042ZM143.01 196.36C138.726 196.36 136.026 193.156 136.026 183.4C136.026 173.644 138.726 170.44 143.01 170.44C147.294 170.44 150.03 173.644 150.03 183.4C150.03 193.156 147.294 196.36 143.01 196.36ZM143.01 191.32C143.838 191.32 144.522 190.384 144.522 183.4C144.522 176.38 143.838 175.48 143.01 175.48C142.182 175.48 141.534 176.38 141.534 183.4C141.534 190.384 142.182 191.32 143.01 191.32ZM152.226 196C151.758 196 151.506 195.748 151.506 195.28V176.452C151.506 173.356 151.398 172.852 151.074 171.34C151.002 171.016 151.182 170.8 151.506 170.8H155.682C156.114 170.8 156.402 171.016 156.474 171.412L158.778 182.32C158.814 182.572 158.958 182.716 159.174 182.716C159.426 182.716 159.498 182.536 159.498 182.248C159.462 181.276 159.534 178.144 159.462 176.092C159.354 173.356 159.246 172.852 158.922 171.34C158.85 171.016 159.03 170.8 159.354 170.8H164.07C164.394 170.8 164.574 171.016 164.502 171.34C164.178 172.852 164.07 173.356 164.07 176.452V195.28C164.07 195.748 163.818 196 163.35 196H159.894C159.462 196 159.174 195.784 159.102 195.388L156.762 184.444C156.726 184.192 156.582 184.084 156.402 184.084C156.186 184.084 156.042 184.228 156.042 184.516C156.15 186.928 156.258 191.932 156.258 195.28C156.258 195.748 156.006 196 155.538 196H152.226Z" fill="#FFFFF1"/>
</g>
<defs>
<clipPath id="clip0_344_15217">
<rect width="234" height="222" fill="white" transform="translate(0.333344)"/>
</clipPath>
</defs>
</svg>
