<svg width="235" height="222" viewBox="0 0 235 222" fill="none" xmlns="http://www.w3.org/2000/svg">
<path d="M40.2402 71.768C36.7842 71.768 33.7762 70.8507 31.2162 69.016C28.6562 67.1813 26.6722 64.5573 25.2642 61.144C23.8989 57.7307 23.2162 53.72 23.2162 49.112C23.2162 44.504 23.8989 40.5147 25.2642 37.144C26.6722 33.7307 28.6562 31.1067 31.2162 29.272C33.7762 27.4373 36.7842 26.52 40.2402 26.52C43.6962 26.52 46.7042 27.4373 49.2642 29.272C51.8242 31.1067 53.7869 33.7307 55.1522 37.144C56.5602 40.5147 57.2642 44.504 57.2642 49.112C57.2642 53.72 56.5602 57.7307 55.1522 61.144C53.7869 64.5573 51.8242 67.1813 49.2642 69.016C46.7042 70.8507 43.6962 71.768 40.2402 71.768ZM40.2402 65.368C43.3975 65.368 45.8082 63.9813 47.4722 61.208C49.1789 58.392 50.0322 54.36 50.0322 49.112C50.0322 43.9067 49.1789 39.9173 47.4722 37.144C45.8082 34.328 43.3975 32.92 40.2402 32.92C37.0829 32.92 34.6509 34.328 32.9442 37.144C31.2375 39.9173 30.3842 43.9067 30.3842 49.112C30.3842 54.36 31.2375 58.392 32.9442 61.208C34.6509 63.9813 37.0829 65.368 40.2402 65.368ZM73.8182 71.576C70.7462 71.576 68.1862 71.128 66.1382 70.232C64.1329 69.336 62.6182 68.3333 61.5942 67.224C61.1249 66.712 60.8262 66.2427 60.6982 65.816C60.5702 65.3893 60.5062 64.728 60.5062 63.832V58.584C60.5062 58.1573 60.6769 57.944 61.0182 57.944C61.2742 57.944 61.4875 58.0933 61.6582 58.392C63.0662 60.2693 64.7089 61.8907 66.5862 63.256C68.4635 64.6213 70.8955 65.304 73.8822 65.304C76.8262 65.304 79.1302 64.6 80.7942 63.192C82.5009 61.784 83.3542 59.8853 83.3542 57.496C83.3542 55.32 82.5862 53.6347 81.0502 52.44C79.5569 51.2027 77.3809 50.584 74.5222 50.584C73.7115 50.584 72.8582 50.6693 71.9622 50.84C71.1089 51.0107 70.5115 51.096 70.1702 51.096C69.7862 51.096 69.5942 50.8613 69.5942 50.392V45.144C69.5942 44.7173 69.7862 44.504 70.1702 44.504C70.4689 44.504 71.0662 44.5893 71.9622 44.76C72.8582 44.888 73.7329 44.952 74.5862 44.952C76.8902 44.952 78.6822 44.3973 79.9622 43.288C81.2422 42.1787 81.8822 40.664 81.8822 38.744C81.8822 36.8667 81.2422 35.416 79.9622 34.392C78.7249 33.3253 76.8902 32.792 74.4582 32.792C71.7702 32.792 69.5089 33.4747 67.6742 34.84C65.8395 36.2053 64.1969 37.8267 62.7462 39.704C62.4902 40.0027 62.2555 40.152 62.0422 40.152C61.9142 40.152 61.7862 40.088 61.6582 39.96C61.5729 39.7893 61.5302 39.5973 61.5302 39.384V34.584C61.5302 33.8587 61.5942 33.24 61.7222 32.728C61.8929 32.216 62.1915 31.7253 62.6182 31.256C63.5995 30.104 65.0929 29.0373 67.0982 28.056C69.1462 27.032 71.6422 26.52 74.5862 26.52C77.4022 26.52 79.8769 27.0107 82.0102 27.992C84.1862 28.9733 85.8502 30.3387 87.0022 32.088C88.1969 33.8373 88.7942 35.8213 88.7942 38.04C88.7942 40.0027 88.3035 41.7733 87.3222 43.352C86.3835 44.9307 84.9115 46.168 82.9062 47.064C82.6929 47.1493 82.5862 47.2773 82.5862 47.448C82.5862 47.6187 82.7142 47.768 82.9702 47.896C87.8769 49.56 90.3302 52.9093 90.3302 57.944C90.3302 60.4613 89.6902 62.7653 88.4102 64.856C87.1302 66.904 85.2315 68.5467 82.7142 69.784C80.2395 70.9787 77.2742 71.576 73.8182 71.576Z" fill="#FFFFF1"/>
<line x1="20.6667" y1="103.5" x2="214.667" y2="103.5" stroke="#FFFFF1"/>
<path d="M22.3587 155C21.8907 155 21.6387 154.748 21.6387 154.28V135.812C21.6387 132.716 21.5307 131.852 21.2067 130.34C21.1347 130.016 21.3147 129.8 21.6387 129.8H27.2547C32.3307 129.8 34.2387 133.364 34.2387 138.908C34.2387 144.236 32.4747 147.8 27.4707 147.8H27.1827C26.8947 147.8 26.7507 147.944 26.7507 148.232V154.28C26.7507 154.748 26.4987 155 26.0307 155H22.3587ZM27.3987 143.48C28.4067 143.48 29.0547 142.22 29.0547 138.908C29.0547 135.632 28.4067 134.372 27.3987 134.372H27.1827C26.9307 134.372 26.7507 134.552 26.7507 134.84V143.012C26.7507 143.264 26.8947 143.48 27.1827 143.48H27.3987ZM36.1399 155C35.6719 155 35.4199 154.748 35.4199 154.28V135.812C35.4199 132.716 35.3119 131.852 34.9879 130.34C34.9159 130.016 35.0959 129.8 35.4199 129.8H40.6399C40.9639 129.8 41.1439 130.016 41.0719 130.34C40.7479 131.852 40.6399 132.716 40.6399 135.812V138.872C40.6399 139.016 40.7119 139.088 40.8559 139.088H42.9439C43.0879 139.088 43.1599 139.016 43.1599 138.872V135.812C43.1599 132.716 43.0519 131.852 42.7279 130.34C42.6559 130.016 42.8359 129.8 43.1599 129.8H48.3799C48.7039 129.8 48.8839 130.016 48.8119 130.34C48.4879 131.852 48.3799 132.716 48.3799 135.812V154.28C48.3799 154.748 48.1279 155 47.6599 155H43.8799C43.4119 155 43.1599 154.748 43.1599 154.28V144.884C43.1599 144.74 43.0879 144.668 42.9439 144.668H40.8559C40.7119 144.668 40.6399 144.74 40.6399 144.884V154.28C40.6399 154.748 40.3879 155 39.9199 155H36.1399ZM56.6262 155.36C52.5942 155.36 50.2902 152.912 50.2902 148.484V135.812C50.2902 132.716 50.1822 131.852 49.8582 130.34C49.7862 130.016 49.9662 129.8 50.2902 129.8H55.5102C55.8342 129.8 56.0142 130.016 55.9422 130.34C55.6182 131.852 55.5102 132.716 55.5102 135.812V148.556C55.5102 149.492 55.9422 149.996 56.6262 149.996C57.2742 149.996 57.7062 149.492 57.7062 148.556V135.812C57.7062 132.716 57.5982 131.852 57.2742 130.34C57.2022 130.016 57.3822 129.8 57.7062 129.8H62.2062C62.6742 129.8 62.9262 130.052 62.9262 130.52V134.768C62.9262 135.488 63.1422 135.776 63.5022 135.776C64.1142 135.776 64.3302 135.056 64.3302 133.832C64.3302 132.788 64.1142 131.384 63.8622 130.232C63.7902 129.908 63.9342 129.8 64.1502 129.8H65.0862C65.2662 129.8 65.3382 129.908 65.3742 130.088C65.6262 131.384 65.7342 132.572 65.7342 133.688C65.7342 135.956 65.1582 136.892 63.5742 137.144C63.1422 137.216 62.9262 137.396 62.9262 138.08V148.484C62.9262 152.912 60.6222 155.36 56.6262 155.36ZM72.768 155.36C68.484 155.36 65.784 152.156 65.784 142.4C65.784 132.644 68.484 129.44 72.768 129.44C75.72 129.44 77.952 130.988 79.032 135.092C79.14 135.488 79.284 135.668 79.536 135.668C79.896 135.668 80.148 135.236 80.148 133.976C80.148 132.788 79.86 131.312 79.608 130.124C79.572 129.908 79.716 129.8 79.896 129.8H80.832C81.012 129.8 81.084 129.908 81.12 130.088C81.336 131.276 81.516 132.572 81.516 133.94C81.516 135.668 81.228 136.424 80.004 137C79.572 137.216 79.464 137.324 79.536 137.9C79.68 139.052 79.788 140.6 79.788 142.4C79.788 152.156 77.052 155.36 72.768 155.36ZM72.768 150.32C73.596 150.32 74.28 149.384 74.28 142.4C74.28 135.38 73.596 134.48 72.768 134.48C71.94 134.48 71.292 135.38 71.292 142.4C71.292 149.384 71.94 150.32 72.768 150.32ZM83.5657 155C83.0977 155 82.8457 154.748 82.8457 154.28V135.452C82.8457 132.356 82.7377 131.852 82.4137 130.34C82.3417 130.016 82.5217 129.8 82.8457 129.8H87.0217C87.4537 129.8 87.7417 130.016 87.8137 130.412L90.1177 141.32C90.1537 141.572 90.2977 141.716 90.5137 141.716C90.7657 141.716 90.8377 141.536 90.8377 141.248C90.8017 140.276 90.8737 137.144 90.8017 135.092C90.6937 132.356 90.5857 131.852 90.2617 130.34C90.1897 130.016 90.3697 129.8 90.6937 129.8H95.4097C95.7337 129.8 95.9137 130.016 95.8417 130.34C95.5177 131.852 95.4097 132.356 95.4097 135.452V154.28C95.4097 154.748 95.1577 155 94.6897 155H91.2337C90.8017 155 90.5137 154.784 90.4417 154.388L88.1017 143.444C88.0657 143.192 87.9217 143.084 87.7417 143.084C87.5257 143.084 87.3817 143.228 87.3817 143.516C87.4897 145.928 87.5977 150.932 87.5977 154.28C87.5977 154.748 87.3457 155 86.8777 155H83.5657ZM104.025 155.36C98.9852 155.36 96.8612 151.076 96.8612 142.4C96.8612 133.328 99.5972 129.44 104.313 129.44C105.681 129.44 107.121 129.656 107.913 130.484C108.345 130.916 108.525 131.456 108.525 132.212V135.488C108.525 135.956 108.417 136.352 107.985 136.352C107.733 136.352 107.517 136.244 107.049 135.704C106.653 135.236 106.149 134.696 105.285 134.696C103.269 134.696 102.297 137.072 102.297 142.472C102.297 143.948 102.369 150.464 103.917 150.464C104.241 150.464 104.385 150.14 104.385 149.636V146.468C104.385 143.372 104.277 142.868 103.953 141.356C103.881 141.032 104.061 140.816 104.385 140.816H108.273C108.741 140.816 109.029 141.068 109.029 141.536V149.456C109.029 153.848 106.689 155.36 104.025 155.36ZM115.663 155C115.195 155 114.943 154.748 114.943 154.28V135.812C114.943 132.716 114.835 131.852 114.511 130.34C114.439 130.016 114.619 129.8 114.943 129.8H120.559C125.635 129.8 127.543 133.364 127.543 138.908C127.543 144.236 125.779 147.8 120.775 147.8H120.487C120.199 147.8 120.055 147.944 120.055 148.232V154.28C120.055 154.748 119.803 155 119.335 155H115.663ZM120.703 143.48C121.711 143.48 122.359 142.22 122.359 138.908C122.359 135.632 121.711 134.372 120.703 134.372H120.487C120.235 134.372 120.055 134.552 120.055 134.84V143.012C120.055 143.264 120.199 143.48 120.487 143.48H120.703ZM129.445 155C128.977 155 128.725 154.748 128.725 154.28V135.812C128.725 132.716 128.617 131.852 128.293 130.34C128.221 130.016 128.401 129.8 128.725 129.8H133.945C134.269 129.8 134.449 130.016 134.377 130.34C134.053 131.852 133.945 132.716 133.945 135.812V138.872C133.945 139.016 134.017 139.088 134.161 139.088H136.249C136.393 139.088 136.465 139.016 136.465 138.872V135.812C136.465 132.716 136.357 131.852 136.033 130.34C135.961 130.016 136.141 129.8 136.465 129.8H141.685C142.009 129.8 142.189 130.016 142.117 130.34C141.793 131.852 141.685 132.716 141.685 135.812V154.28C141.685 154.748 141.433 155 140.965 155H137.185C136.717 155 136.465 154.748 136.465 154.28V144.884C136.465 144.74 136.393 144.668 136.249 144.668H134.161C134.017 144.668 133.945 144.74 133.945 144.884V154.28C133.945 154.748 133.693 155 133.225 155H129.445ZM143.451 155C143.055 155 142.839 154.82 142.875 154.46L145.143 133.292C145.287 131.924 145.215 131.24 145.071 130.484C144.999 130.016 145.215 129.8 145.539 129.8H153.855C154.179 129.8 154.395 130.016 154.287 130.484C154.143 131.168 154.035 131.816 154.179 133.292L156.447 154.46C156.483 154.82 156.267 155 155.871 155H151.911C151.587 155 151.371 154.82 151.335 154.532L151.011 151.364C150.975 151.004 150.795 150.824 150.435 150.824H148.599C148.239 150.824 148.023 151.004 147.987 151.364L147.663 154.532C147.627 154.856 147.375 155 147.087 155H143.451ZM150.039 146C150.435 146 150.507 145.82 150.471 145.532C150.219 142.616 150.039 140.564 149.895 136.568C149.895 136.244 149.751 136.064 149.499 136.064C149.247 136.064 149.103 136.244 149.103 136.568C148.959 140.564 148.779 142.616 148.527 145.532C148.491 145.82 148.563 146 148.959 146H150.039ZM146.511 128.72C146.187 128.72 146.079 128.612 146.079 128.324V127.712C146.079 127.532 146.187 127.424 146.367 127.424C148.275 127.424 150.651 127.1 152.919 126.236C153.135 126.164 153.279 126.308 153.279 126.488V127.208C153.279 127.532 153.171 127.676 152.811 127.82C150.651 128.612 147.843 128.756 146.511 128.72ZM158.343 155C157.875 155 157.623 154.748 157.623 154.28V135.812C157.623 132.716 157.515 131.852 157.191 130.34C157.119 130.016 157.299 129.8 157.623 129.8H163.239C168.315 129.8 170.223 133.364 170.223 138.908C170.223 144.236 168.459 147.8 163.455 147.8H163.167C162.879 147.8 162.735 147.944 162.735 148.232V154.28C162.735 154.748 162.483 155 162.015 155H158.343ZM163.383 143.48C164.391 143.48 165.039 142.22 165.039 138.908C165.039 135.632 164.391 134.372 163.383 134.372H163.167C162.915 134.372 162.735 134.552 162.735 134.84V143.012C162.735 143.264 162.879 143.48 163.167 143.48H163.383ZM25.2387 196C24.7707 196 24.5187 195.748 24.5187 195.28V176.02C24.5187 175.696 24.3747 175.408 23.8347 175.408C23.2587 175.408 22.8987 175.696 21.9267 176.488C21.4227 176.884 20.9547 177.028 20.9547 176.416V171.52C20.9547 171.052 21.2067 170.8 21.6747 170.8H32.5827C33.0507 170.8 33.3027 171.052 33.3027 171.52V176.416C33.3027 177.028 32.8347 176.884 32.3307 176.488C31.3587 175.696 30.9987 175.408 30.4227 175.408C29.8827 175.408 29.7387 175.696 29.7387 176.02V195.28C29.7387 195.748 29.4867 196 29.0187 196H25.2387ZM35.2962 196C34.8282 196 34.5762 195.748 34.5762 195.28V176.452C34.5762 173.356 34.4682 172.852 34.1442 171.34C34.0722 171.016 34.2522 170.8 34.5762 170.8H39.7962C40.1202 170.8 40.3002 171.016 40.2282 171.34C39.9042 172.852 39.7962 173.356 39.7962 176.452V195.28C39.7962 195.748 39.5442 196 39.0762 196H35.2962ZM42.4681 196C42.0001 196 41.7481 195.748 41.7481 195.28V176.812C41.7481 173.716 41.6401 172.852 41.3161 171.34C41.2441 171.016 41.4241 170.8 41.7481 170.8H51.3241C51.5401 170.8 51.6841 170.944 51.6841 171.16V176.164C51.6841 176.56 51.3601 176.632 50.9641 176.416C49.5961 175.696 48.8401 175.444 48.0121 175.444C47.1841 175.444 46.9681 175.768 46.9681 176.344V180.376C46.9681 180.592 47.1121 180.736 47.3281 180.736H50.7481C50.9641 180.736 51.1081 180.88 51.1081 181.096V185.38C51.1081 185.596 50.9641 185.74 50.7481 185.74H47.3281C47.1121 185.74 46.9681 185.884 46.9681 186.1V190.6C46.9681 190.816 47.1121 190.96 47.3281 190.96H51.4321C51.6481 190.96 51.7921 191.104 51.7921 191.32V195.64C51.7921 195.856 51.6481 196 51.4321 196H42.4681ZM43.8001 169.792C43.4761 169.792 43.4041 169.612 43.4041 169.396V168.784C43.4041 168.604 43.4761 168.46 43.7281 168.424C44.8081 168.244 45.4921 167.92 46.2481 167.308C46.4281 167.164 46.5721 167.056 46.7521 167.056C46.9321 167.056 47.0761 167.164 47.2561 167.308C48.0121 167.92 48.6961 168.244 49.7761 168.424C50.0281 168.46 50.1001 168.604 50.1001 168.784V169.396C50.1001 169.612 50.0281 169.792 49.7041 169.792C48.6241 169.792 47.3641 169.216 46.7521 168.568C46.1401 169.216 44.8801 169.792 43.8001 169.792ZM44.2321 166.516C43.9081 166.516 43.8001 166.408 43.8001 166.12V165.616C43.8001 165.436 43.9081 165.328 44.0881 165.328C45.6361 165.292 47.6161 165.004 49.5241 164.32C49.8121 164.212 49.9561 164.356 49.9561 164.536V165.148C49.9561 165.472 49.8481 165.616 49.4881 165.76C47.6161 166.444 45.2401 166.516 44.2321 166.516ZM53.9642 196C53.4962 196 53.2442 195.748 53.2442 195.28V176.812C53.2442 173.716 53.1362 172.852 52.8122 171.34C52.7402 171.016 52.9202 170.8 53.2442 170.8H58.8602C63.9362 170.8 65.8442 174.364 65.8442 179.908C65.8442 185.236 64.0802 188.8 59.0762 188.8H58.7882C58.5002 188.8 58.3562 188.944 58.3562 189.232V195.28C58.3562 195.748 58.1042 196 57.6362 196H53.9642ZM59.0042 184.48C60.0122 184.48 60.6602 183.22 60.6602 179.908C60.6602 176.632 60.0122 175.372 59.0042 175.372H58.7882C58.5362 175.372 58.3562 175.552 58.3562 175.84V184.012C58.3562 184.264 58.5002 184.48 58.7882 184.48H59.0042ZM78.1879 196.36C73.6159 196.36 70.9159 192.436 70.9159 183.4C70.9159 174.364 73.6159 170.44 78.1879 170.44C79.3399 170.44 80.5279 170.728 81.3559 171.376C82.0759 171.952 82.2199 172.672 82.2199 173.536V176.524C82.2199 177.064 82.0039 177.316 81.6799 177.316C81.2839 177.316 81.0319 176.992 80.7079 176.596C80.3479 176.164 79.8799 175.696 79.0879 175.696C77.2879 175.696 76.3879 177.964 76.3879 183.4C76.3879 188.836 77.2879 191.104 79.0879 191.104C79.8799 191.104 80.3479 190.636 80.7079 190.204C81.0319 189.808 81.2479 189.484 81.6439 189.484C81.9679 189.484 82.2199 189.736 82.2199 190.276V193.264C82.2199 194.128 82.0759 194.848 81.3559 195.424C80.5279 196.072 79.3399 196.36 78.1879 196.36ZM83.4392 196C83.0432 196 82.8272 195.82 82.8632 195.46L85.1312 174.292C85.2752 172.924 85.2032 172.24 85.0592 171.484C84.9872 171.016 85.2032 170.8 85.5272 170.8H93.8432C94.1672 170.8 94.3832 171.016 94.2752 171.484C94.1312 172.168 94.0232 172.816 94.1672 174.292L96.4352 195.46C96.4712 195.82 96.2552 196 95.8592 196H91.8992C91.5752 196 91.3592 195.82 91.3232 195.532L90.9992 192.364C90.9632 192.004 90.7832 191.824 90.4232 191.824H88.5872C88.2272 191.824 88.0112 192.004 87.9752 192.364L87.6512 195.532C87.6152 195.856 87.3632 196 87.0752 196H83.4392ZM90.0272 187C90.4232 187 90.4952 186.82 90.4592 186.532C90.2072 183.616 90.0272 181.564 89.8832 177.568C89.8832 177.244 89.7392 177.064 89.4872 177.064C89.2352 177.064 89.0912 177.244 89.0912 177.568C88.9472 181.564 88.7672 183.616 88.5152 186.532C88.4792 186.82 88.5512 187 88.9472 187H90.0272ZM87.2552 199.168C87.0752 199.168 86.9672 199.06 86.9672 198.88V198.052C86.9672 197.872 87.0752 197.764 87.2552 197.764H92.0792C92.2592 197.764 92.3672 197.872 92.3672 198.052V198.88C92.3672 199.06 92.2592 199.168 92.0792 199.168H87.2552ZM86.5712 169.792C86.2472 169.792 86.1752 169.612 86.1752 169.432V168.712C86.1752 168.532 86.2832 168.424 86.4272 168.388C87.5792 168.208 88.3712 167.776 89.1272 167.056C89.3072 166.876 89.4872 166.768 89.6672 166.768C89.8472 166.768 90.0272 166.876 90.2072 167.056C90.9632 167.776 91.7552 168.208 92.9072 168.388C93.0512 168.424 93.1592 168.532 93.1592 168.712V169.432C93.1592 169.612 93.0872 169.792 92.7632 169.792C91.4312 169.792 90.1712 169.108 89.6672 168.352C89.1632 169.108 87.9032 169.792 86.5712 169.792ZM98.3313 196C97.8633 196 97.6113 195.748 97.6113 195.28V176.452C97.6113 173.356 97.5033 172.852 97.1793 171.34C97.1073 171.016 97.2873 170.8 97.6113 170.8H101.787C102.219 170.8 102.507 171.016 102.579 171.412L104.883 182.32C104.919 182.572 105.063 182.716 105.279 182.716C105.531 182.716 105.603 182.536 105.603 182.248C105.567 181.276 105.639 178.144 105.567 176.092C105.459 173.356 105.351 172.852 105.027 171.34C104.955 171.016 105.135 170.8 105.459 170.8H110.175C110.499 170.8 110.679 171.016 110.607 171.34C110.283 172.852 110.175 173.356 110.175 176.452V195.28C110.175 195.748 109.923 196 109.455 196H105.999C105.567 196 105.279 195.784 105.207 195.388L102.867 184.444C102.831 184.192 102.687 184.084 102.507 184.084C102.291 184.084 102.147 184.228 102.147 184.516C102.255 186.928 102.363 191.932 102.363 195.28C102.363 195.748 102.111 196 101.643 196H98.3313Z" fill="#FFFFF1"/>
</svg>
