<svg width="235" height="222" viewBox="0 0 235 222" fill="none" xmlns="http://www.w3.org/2000/svg">
<g clip-path="url(#clip0_344_15218)">
<path d="M39.9069 71.768C36.4509 71.768 33.4429 70.8507 30.8829 69.016C28.3229 67.1813 26.3389 64.5573 24.9309 61.144C23.5655 57.7307 22.8829 53.72 22.8829 49.112C22.8829 44.504 23.5655 40.5147 24.9309 37.144C26.3389 33.7307 28.3229 31.1067 30.8829 29.272C33.4429 27.4373 36.4509 26.52 39.9069 26.52C43.3629 26.52 46.3709 27.4373 48.9309 29.272C51.4909 31.1067 53.4535 33.7307 54.8189 37.144C56.2269 40.5147 56.9309 44.504 56.9309 49.112C56.9309 53.72 56.2269 57.7307 54.8189 61.144C53.4535 64.5573 51.4909 67.1813 48.9309 69.016C46.3709 70.8507 43.3629 71.768 39.9069 71.768ZM39.9069 65.368C43.0642 65.368 45.4749 63.9813 47.1389 61.208C48.8455 58.392 49.6989 54.36 49.6989 49.112C49.6989 43.9067 48.8455 39.9173 47.1389 37.144C45.4749 34.328 43.0642 32.92 39.9069 32.92C36.7495 32.92 34.3175 34.328 32.6109 37.144C30.9042 39.9173 30.0509 43.9067 30.0509 49.112C30.0509 54.36 30.9042 58.392 32.6109 61.208C34.3175 63.9813 36.7495 65.368 39.9069 65.368ZM73.4849 71.576C70.4129 71.576 67.8529 71.128 65.8049 70.232C63.7995 69.336 62.2849 68.3333 61.2609 67.224C60.7915 66.712 60.4929 66.2427 60.3649 65.816C60.2369 65.3893 60.1729 64.728 60.1729 63.832V58.584C60.1729 58.1573 60.3435 57.944 60.6849 57.944C60.9409 57.944 61.1542 58.0933 61.3249 58.392C62.7329 60.2693 64.3755 61.8907 66.2529 63.256C68.1302 64.6213 70.5622 65.304 73.5489 65.304C76.4929 65.304 78.7969 64.6 80.4609 63.192C82.1675 61.784 83.0209 59.8853 83.0209 57.496C83.0209 55.32 82.2529 53.6347 80.7169 52.44C79.2235 51.2027 77.0475 50.584 74.1889 50.584C73.3782 50.584 72.5249 50.6693 71.6289 50.84C70.7755 51.0107 70.1782 51.096 69.8369 51.096C69.4529 51.096 69.2609 50.8613 69.2609 50.392V45.144C69.2609 44.7173 69.4529 44.504 69.8369 44.504C70.1355 44.504 70.7329 44.5893 71.6289 44.76C72.5249 44.888 73.3995 44.952 74.2529 44.952C76.5569 44.952 78.3489 44.3973 79.6289 43.288C80.9089 42.1787 81.5489 40.664 81.5489 38.744C81.5489 36.8667 80.9089 35.416 79.6289 34.392C78.3915 33.3253 76.5569 32.792 74.1249 32.792C71.4369 32.792 69.1755 33.4747 67.3409 34.84C65.5062 36.2053 63.8635 37.8267 62.4129 39.704C62.1569 40.0027 61.9222 40.152 61.7089 40.152C61.5809 40.152 61.4529 40.088 61.3249 39.96C61.2395 39.7893 61.1969 39.5973 61.1969 39.384V34.584C61.1969 33.8587 61.2609 33.24 61.3889 32.728C61.5595 32.216 61.8582 31.7253 62.2849 31.256C63.2662 30.104 64.7595 29.0373 66.7649 28.056C68.8129 27.032 71.3089 26.52 74.2529 26.52C77.0689 26.52 79.5435 27.0107 81.6769 27.992C83.8529 28.9733 85.5169 30.3387 86.6689 32.088C87.8635 33.8373 88.4609 35.8213 88.4609 38.04C88.4609 40.0027 87.9702 41.7733 86.9889 43.352C86.0502 44.9307 84.5782 46.168 82.5729 47.064C82.3595 47.1493 82.2529 47.2773 82.2529 47.448C82.2529 47.6187 82.3809 47.768 82.6369 47.896C87.5435 49.56 89.9969 52.9093 89.9969 57.944C89.9969 60.4613 89.3569 62.7653 88.0769 64.856C86.7969 66.904 84.8982 68.5467 82.3809 69.784C79.9062 70.9787 76.9409 71.576 73.4849 71.576Z" fill="#FFFFF1"/>
<line x1="20.3334" y1="103.5" x2="214.333" y2="103.5" stroke="#FFFFF1"/>
<path d="M21.1254 155C20.7294 155 20.5134 154.82 20.5494 154.46L22.8174 133.292C22.9614 131.924 22.8894 131.24 22.7454 130.484C22.6734 130.016 22.8894 129.8 23.2134 129.8H31.5294C31.8534 129.8 32.0694 130.016 31.9614 130.484C31.8174 131.168 31.7094 131.816 31.8534 133.292L34.1214 154.46C34.1574 154.82 33.9414 155 33.5454 155H29.5854C29.2614 155 29.0454 154.82 29.0094 154.532L28.6854 151.364C28.6494 151.004 28.4694 150.824 28.1094 150.824H26.2734C25.9134 150.824 25.6974 151.004 25.6614 151.364L25.3374 154.532C25.3014 154.856 25.0494 155 24.7614 155H21.1254ZM27.7134 146C28.1094 146 28.1814 145.82 28.1454 145.532C27.8934 142.616 27.7134 140.564 27.5694 136.568C27.5694 136.244 27.4254 136.064 27.1734 136.064C26.9214 136.064 26.7774 136.244 26.7774 136.568C26.6334 140.564 26.4534 142.616 26.2014 145.532C26.1654 145.82 26.2374 146 26.6334 146H27.7134ZM36.0176 155C35.5496 155 35.2976 154.748 35.2976 154.28V135.812C35.2976 132.716 35.1896 131.852 34.8656 130.34C34.7936 130.016 34.9736 129.8 35.2976 129.8H40.9136C45.9896 129.8 47.8976 133.364 47.8976 138.908C47.8976 144.236 46.1336 147.8 41.1296 147.8H40.8416C40.5536 147.8 40.4096 147.944 40.4096 148.232V154.28C40.4096 154.748 40.1576 155 39.6896 155H36.0176ZM41.0576 143.48C42.0656 143.48 42.7136 142.22 42.7136 138.908C42.7136 135.632 42.0656 134.372 41.0576 134.372H40.8416C40.5896 134.372 40.4096 134.552 40.4096 134.84V143.012C40.4096 143.264 40.5536 143.48 40.8416 143.48H41.0576ZM49.7988 155C49.3308 155 49.0788 154.748 49.0788 154.28V135.812C49.0788 132.716 48.9708 131.852 48.6468 130.34C48.5748 130.016 48.7548 129.8 49.0788 129.8H54.6948C59.7708 129.8 61.6788 133.364 61.6788 138.908C61.6788 144.236 59.9148 147.8 54.9108 147.8H54.6228C54.3348 147.8 54.1908 147.944 54.1908 148.232V154.28C54.1908 154.748 53.9388 155 53.4708 155H49.7988ZM54.8388 143.48C55.8468 143.48 56.4948 142.22 56.4948 138.908C56.4948 135.632 55.8468 134.372 54.8388 134.372H54.6228C54.3708 134.372 54.1908 134.552 54.1908 134.84V143.012C54.1908 143.264 54.3348 143.48 54.6228 143.48H54.8388ZM63.5801 155C63.1121 155 62.8601 154.748 62.8601 154.28V135.812C62.8601 132.716 62.7521 131.852 62.4281 130.34C62.3561 130.016 62.5361 129.8 62.8601 129.8H68.6921C73.3361 129.8 75.4601 133.292 75.4601 138.656C75.4601 140.852 74.9921 142.868 74.1281 144.236C73.5521 145.136 73.4801 145.928 73.6601 146.684L75.5681 154.136C75.6401 154.424 75.6401 155 74.9561 155H71.1041C70.6721 155 70.4201 154.784 70.3121 154.316L68.7641 147.296C68.6921 147.008 68.6201 146.756 68.3321 146.756C68.0801 146.756 67.9721 146.972 67.9721 147.332V154.28C67.9721 154.748 67.7201 155 67.2521 155H63.5801ZM68.6201 143.228C69.5561 143.228 70.2761 141.968 70.2761 138.728C70.2761 135.524 69.5561 134.264 68.6201 134.264H68.4761C68.1521 134.264 67.9721 134.444 67.9721 134.768V142.724C67.9721 143.048 68.1521 143.228 68.4761 143.228H68.6201ZM83.3682 155.36C79.0842 155.36 76.3842 152.156 76.3842 142.4C76.3842 132.644 79.0842 129.44 83.3682 129.44C87.6522 129.44 90.3882 132.644 90.3882 142.4C90.3882 152.156 87.6522 155.36 83.3682 155.36ZM83.3682 150.32C84.1962 150.32 84.8802 149.384 84.8802 142.4C84.8802 135.38 84.1962 134.48 83.3682 134.48C82.5402 134.48 81.8922 135.38 81.8922 142.4C81.8922 149.384 82.5402 150.32 83.3682 150.32ZM91.3324 155C90.9364 155 90.7204 154.82 90.7564 154.46L93.0244 133.292C93.1684 131.924 93.0964 131.24 92.9524 130.484C92.8804 130.016 93.0964 129.8 93.4204 129.8H101.736C102.06 129.8 102.276 130.016 102.168 130.484C102.024 131.168 101.916 131.816 102.06 133.292L104.328 154.46C104.364 154.82 104.148 155 103.752 155H99.7924C99.4684 155 99.2524 154.82 99.2164 154.532L98.8924 151.364C98.8564 151.004 98.6764 150.824 98.3164 150.824H96.4804C96.1204 150.824 95.9044 151.004 95.8684 151.364L95.5444 154.532C95.5084 154.856 95.2564 155 94.9684 155H91.3324ZM97.9204 146C98.3164 146 98.3884 145.82 98.3524 145.532C98.1004 142.616 97.9204 140.564 97.7764 136.568C97.7764 136.244 97.6324 136.064 97.3804 136.064C97.1284 136.064 96.9844 136.244 96.9844 136.568C96.8404 140.564 96.6604 142.616 96.4084 145.532C96.3724 145.82 96.4444 146 96.8404 146H97.9204ZM111.956 155.36C107.384 155.36 104.684 151.436 104.684 142.4C104.684 133.364 107.384 129.44 111.956 129.44C113.108 129.44 114.296 129.728 115.124 130.376C115.844 130.952 115.988 131.672 115.988 132.536V135.524C115.988 136.064 115.772 136.316 115.448 136.316C115.052 136.316 114.8 135.992 114.476 135.596C114.116 135.164 113.648 134.696 112.856 134.696C111.056 134.696 110.156 136.964 110.156 142.4C110.156 147.836 111.056 150.104 112.856 150.104C113.648 150.104 114.116 149.636 114.476 149.204C114.8 148.808 115.016 148.484 115.412 148.484C115.736 148.484 115.988 148.736 115.988 149.276V152.264C115.988 153.128 115.844 153.848 115.124 154.424C114.296 155.072 113.108 155.36 111.956 155.36ZM118.107 155C117.639 155 117.387 154.748 117.387 154.28V135.812C117.387 132.716 117.279 131.852 116.955 130.34C116.883 130.016 117.063 129.8 117.387 129.8H122.607C122.931 129.8 123.111 130.016 123.039 130.34C122.715 131.852 122.607 132.716 122.607 135.812V138.872C122.607 139.016 122.679 139.088 122.823 139.088H124.911C125.055 139.088 125.127 139.016 125.127 138.872V135.812C125.127 132.716 125.019 131.852 124.695 130.34C124.623 130.016 124.803 129.8 125.127 129.8H130.347C130.671 129.8 130.851 130.016 130.779 130.34C130.455 131.852 130.347 132.716 130.347 135.812V154.28C130.347 154.748 130.095 155 129.627 155H125.847C125.379 155 125.127 154.748 125.127 154.28V144.884C125.127 144.74 125.055 144.668 124.911 144.668H122.823C122.679 144.668 122.607 144.74 122.607 144.884V154.28C122.607 154.748 122.355 155 121.887 155H118.107Z" fill="#FFFFF1"/>
</g>
<defs>
<clipPath id="clip0_344_15218">
<rect width="234" height="222" fill="white" transform="translate(0.666687)"/>
</clipPath>
</defs>
</svg>
