<svg width="234" height="222" viewBox="0 0 234 222" fill="none" xmlns="http://www.w3.org/2000/svg">
<path d="M39.136 71.768C35.68 71.768 32.672 70.8507 30.112 69.016C27.552 67.1813 25.568 64.5573 24.16 61.144C22.7947 57.7307 22.112 53.72 22.112 49.112C22.112 44.504 22.7947 40.5147 24.16 37.144C25.568 33.7307 27.552 31.1067 30.112 29.272C32.672 27.4373 35.68 26.52 39.136 26.52C42.592 26.52 45.6 27.4373 48.16 29.272C50.72 31.1067 52.6827 33.7307 54.048 37.144C55.456 40.5147 56.16 44.504 56.16 49.112C56.16 53.72 55.456 57.7307 54.048 61.144C52.6827 64.5573 50.72 67.1813 48.16 69.016C45.6 70.8507 42.592 71.768 39.136 71.768ZM39.136 65.368C42.2933 65.368 44.704 63.9813 46.368 61.208C48.0747 58.392 48.928 54.36 48.928 49.112C48.928 43.9067 48.0747 39.9173 46.368 37.144C44.704 34.328 42.2933 32.92 39.136 32.92C35.9787 32.92 33.5467 34.328 31.84 37.144C30.1333 39.9173 29.28 43.9067 29.28 49.112C29.28 54.36 30.1333 58.392 31.84 61.208C33.5467 63.9813 35.9787 65.368 39.136 65.368ZM81.2335 71C80.7642 71 80.5295 70.7867 80.5295 70.36V62.616C80.5295 62.1893 80.3162 61.976 79.8895 61.976H60.1135C59.9002 61.976 59.7295 61.912 59.6015 61.784C59.4735 61.656 59.4095 61.5067 59.4095 61.336V57.752C59.4095 57.368 59.4948 57.0693 59.6655 56.856L75.8575 27.736C76.0282 27.352 76.3482 27.16 76.8175 27.16H86.4175C86.6308 27.16 86.8015 27.2453 86.9295 27.416C87.1002 27.544 87.1855 27.7147 87.1855 27.928V55.192C87.1855 55.6187 87.3988 55.832 87.8255 55.832H93.0735C93.5002 55.832 93.7135 56.0453 93.7135 56.472V61.336C93.7135 61.7627 93.5002 61.976 93.0735 61.976H87.8255C87.3988 61.976 87.1855 62.1893 87.1855 62.616V70.36C87.1855 70.7867 86.9722 71 86.5455 71H81.2335ZM79.8895 55.832C80.3162 55.832 80.5295 55.6187 80.5295 55.192V32.728C80.5295 32.472 80.4442 32.3227 80.2735 32.28C80.1455 32.2373 80.0175 32.344 79.8895 32.6L67.3455 55.064C67.2602 55.2347 67.2175 55.3627 67.2175 55.448C67.2175 55.704 67.4095 55.832 67.7935 55.832H79.8895Z" fill="#FFFFF1"/>
<line x1="20" y1="103.5" x2="214" y2="103.5" stroke="#FFFFF1"/>
<path d="M21.692 155C21.224 155 20.972 154.748 20.972 154.28V135.812C20.972 132.716 20.864 131.852 20.54 130.34C20.468 130.016 20.648 129.8 20.972 129.8H26.192C26.516 129.8 26.696 130.016 26.624 130.34C26.3 131.852 26.192 132.716 26.192 135.812V149.6C26.192 149.816 26.336 149.96 26.552 149.96H30.656C30.872 149.96 31.016 150.104 31.016 150.32V154.64C31.016 154.856 30.872 155 30.656 155H21.692ZM32.9068 155C32.4388 155 32.1868 154.748 32.1868 154.28V135.452C32.1868 132.356 32.0788 131.852 31.7548 130.34C31.6828 130.016 31.8628 129.8 32.1868 129.8H37.4068C37.7308 129.8 37.9108 130.016 37.8388 130.34C37.5148 131.852 37.4068 132.356 37.4068 135.452V154.28C37.4068 154.748 37.1548 155 36.6868 155H32.9068ZM36.3988 128.504C34.9588 128.504 34.3828 127.568 33.5548 127.568C33.1228 127.568 32.9788 127.892 32.9068 128.144C32.8708 128.324 32.7628 128.396 32.5828 128.396H31.9708C31.7188 128.396 31.6468 128.288 31.6468 128C31.6468 127.388 32.0788 126.2 33.5548 126.2C34.9588 126.2 35.5348 127.136 36.4348 127.136C36.8308 127.136 37.0108 126.812 37.0828 126.56C37.1188 126.344 37.2268 126.308 37.4428 126.308H38.0188C38.3068 126.308 38.3428 126.38 38.3428 126.668C38.3428 127.244 37.9468 128.504 36.3988 128.504ZM40.0787 155C39.6107 155 39.3587 154.748 39.3587 154.28V135.452C39.3587 132.356 39.2507 131.852 38.9267 130.34C38.8547 130.016 39.0347 129.8 39.3587 129.8H43.5347C43.9667 129.8 44.2547 130.016 44.3267 130.412L46.6307 141.32C46.6667 141.572 46.8107 141.716 47.0267 141.716C47.2787 141.716 47.3507 141.536 47.3507 141.248C47.3147 140.276 47.3867 137.144 47.3147 135.092C47.2067 132.356 47.0987 131.852 46.7747 130.34C46.7027 130.016 46.8827 129.8 47.2067 129.8H51.9227C52.2467 129.8 52.4267 130.016 52.3547 130.34C52.0307 131.852 51.9227 132.356 51.9227 135.452V154.28C51.9227 154.748 51.6707 155 51.2027 155H47.7467C47.3147 155 47.0267 154.784 46.9547 154.388L44.6147 143.444C44.5787 143.192 44.4347 143.084 44.2547 143.084C44.0387 143.084 43.8947 143.228 43.8947 143.516C44.0027 145.928 44.1107 150.932 44.1107 154.28C44.1107 154.748 43.8587 155 43.3907 155H40.0787ZM54.5983 155C54.1303 155 53.8783 154.748 53.8783 154.28V135.812C53.8783 132.716 53.7703 131.852 53.4463 130.34C53.3743 130.016 53.5543 129.8 53.8783 129.8H59.0983C59.4223 129.8 59.6023 130.016 59.5303 130.34C59.2063 131.852 59.0983 132.716 59.0983 135.812V138.872C59.0983 139.016 59.1703 139.088 59.3143 139.088H61.4023C61.5463 139.088 61.6183 139.016 61.6183 138.872V135.812C61.6183 132.716 61.5103 131.852 61.1863 130.34C61.1143 130.016 61.2943 129.8 61.6183 129.8H66.8383C67.1623 129.8 67.3423 130.016 67.2703 130.34C66.9463 131.852 66.8383 132.716 66.8383 135.812V154.28C66.8383 154.748 66.5863 155 66.1183 155H62.3383C61.8703 155 61.6183 154.748 61.6183 154.28V144.884C61.6183 144.74 61.5463 144.668 61.4023 144.668H59.3143C59.1703 144.668 59.0983 144.74 59.0983 144.884V154.28C59.0983 154.748 58.8463 155 58.3783 155H54.5983ZM76.3932 155C75.9612 155 75.7092 154.784 75.6372 154.352L72.7212 134.372C72.4332 132.356 72.3612 131.852 71.7852 130.34C71.6772 130.016 71.8212 129.8 72.1092 129.8H77.6172C78.0132 129.8 78.0852 130.088 78.0132 130.376C77.7612 131.24 77.7252 132.068 78.0132 135.776L78.6972 145.172C78.7332 145.532 78.8772 145.676 79.0932 145.676C79.3092 145.676 79.4532 145.532 79.4892 145.172L80.2812 135.776C80.6052 132.068 80.5332 131.132 80.3172 130.304C80.2452 130.088 80.3172 129.8 80.6052 129.8H86.0772C86.3652 129.8 86.5092 130.016 86.4012 130.304C85.7892 131.852 85.6452 132.716 85.3572 134.624L82.5132 154.352C82.4412 154.784 82.1892 155 81.7572 155H76.3932ZM93.6822 155.36C89.6502 155.36 87.3462 152.912 87.3462 148.484V135.812C87.3462 132.716 87.2382 131.852 86.9142 130.34C86.8422 130.016 87.0222 129.8 87.3462 129.8H92.5662C92.8902 129.8 93.0702 130.016 92.9982 130.34C92.6742 131.852 92.5662 132.716 92.5662 135.812V148.556C92.5662 149.492 92.9982 149.996 93.6822 149.996C94.3302 149.996 94.7622 149.492 94.7622 148.556V135.812C94.7622 132.716 94.6542 131.852 94.3302 130.34C94.2582 130.016 94.4382 129.8 94.7622 129.8H99.2622C99.7302 129.8 99.9822 130.052 99.9822 130.52V134.768C99.9822 135.488 100.198 135.776 100.558 135.776C101.17 135.776 101.386 135.056 101.386 133.832C101.386 132.788 101.17 131.384 100.918 130.232C100.846 129.908 100.99 129.8 101.206 129.8H102.142C102.322 129.8 102.394 129.908 102.43 130.088C102.682 131.384 102.79 132.572 102.79 133.688C102.79 135.956 102.214 136.892 100.63 137.144C100.198 137.216 99.9822 137.396 99.9822 138.08V148.484C99.9822 152.912 97.6782 155.36 93.6822 155.36ZM91.2702 158.168C91.0902 158.168 90.9822 158.06 90.9822 157.88V157.052C90.9822 156.872 91.0902 156.764 91.2702 156.764H96.0942C96.2742 156.764 96.3822 156.872 96.3822 157.052V157.88C96.3822 158.06 96.2742 158.168 96.0942 158.168H91.2702ZM110.603 155.36C106.031 155.36 103.331 151.436 103.331 142.4C103.331 133.364 106.031 129.44 110.603 129.44C111.755 129.44 112.943 129.728 113.771 130.376C114.491 130.952 114.635 131.672 114.635 132.536V135.524C114.635 136.064 114.419 136.316 114.095 136.316C113.699 136.316 113.447 135.992 113.123 135.596C112.763 135.164 112.295 134.696 111.503 134.696C109.703 134.696 108.803 136.964 108.803 142.4C108.803 147.836 109.703 150.104 111.503 150.104C112.295 150.104 112.763 149.636 113.123 149.204C113.447 148.808 113.663 148.484 114.059 148.484C114.383 148.484 114.635 148.736 114.635 149.276V152.264C114.635 153.128 114.491 153.848 113.771 154.424C112.943 155.072 111.755 155.36 110.603 155.36ZM24.572 196C24.104 196 23.852 195.748 23.852 195.28V176.02C23.852 175.696 23.708 175.408 23.168 175.408C22.592 175.408 22.232 175.696 21.26 176.488C20.756 176.884 20.288 177.028 20.288 176.416V171.52C20.288 171.052 20.54 170.8 21.008 170.8H31.916C32.384 170.8 32.636 171.052 32.636 171.52V176.416C32.636 177.028 32.168 176.884 31.664 176.488C30.692 175.696 30.332 175.408 29.756 175.408C29.216 175.408 29.072 175.696 29.072 176.02V195.28C29.072 195.748 28.82 196 28.352 196H24.572ZM34.6295 196C34.1615 196 33.9095 195.748 33.9095 195.28V176.812C33.9095 173.716 33.8015 172.852 33.4775 171.34C33.4055 171.016 33.5855 170.8 33.9095 170.8H39.7415C44.3855 170.8 46.5095 174.292 46.5095 179.656C46.5095 181.852 46.0415 183.868 45.1775 185.236C44.6015 186.136 44.5295 186.928 44.7095 187.684L46.6175 195.136C46.6895 195.424 46.6895 196 46.0055 196H42.1535C41.7215 196 41.4695 195.784 41.3615 195.316L39.8135 188.296C39.7415 188.008 39.6695 187.756 39.3815 187.756C39.1295 187.756 39.0215 187.972 39.0215 188.332V195.28C39.0215 195.748 38.7695 196 38.3015 196H34.6295ZM39.6695 184.228C40.6055 184.228 41.3255 182.968 41.3255 179.728C41.3255 176.524 40.6055 175.264 39.6695 175.264H39.5255C39.2015 175.264 39.0215 175.444 39.0215 175.768V183.724C39.0215 184.048 39.2015 184.228 39.5255 184.228H39.6695ZM54.4177 196.36C50.1337 196.36 47.4337 193.156 47.4337 183.4C47.4337 173.644 50.1337 170.44 54.4177 170.44C58.7017 170.44 61.4377 173.644 61.4377 183.4C61.4377 193.156 58.7017 196.36 54.4177 196.36ZM54.4177 191.32C55.2457 191.32 55.9297 190.384 55.9297 183.4C55.9297 176.38 55.2457 175.48 54.4177 175.48C53.5897 175.48 52.9417 176.38 52.9417 183.4C52.9417 190.384 53.5897 191.32 54.4177 191.32ZM52.0417 199.168C51.8617 199.168 51.7537 199.06 51.7537 198.88V198.052C51.7537 197.872 51.8617 197.764 52.0417 197.764H56.8657C57.0457 197.764 57.1537 197.872 57.1537 198.052V198.88C57.1537 199.06 57.0457 199.168 56.8657 199.168H52.0417ZM63.6334 196C63.1654 196 62.9134 195.748 62.9134 195.28V176.452C62.9134 173.356 62.8054 172.852 62.4814 171.34C62.4094 171.016 62.5894 170.8 62.9134 170.8H67.0894C67.5214 170.8 67.8094 171.016 67.8814 171.412L70.1854 182.32C70.2214 182.572 70.3654 182.716 70.5814 182.716C70.8334 182.716 70.9054 182.536 70.9054 182.248C70.8694 181.276 70.9414 178.144 70.8694 176.092C70.7614 173.356 70.6534 172.852 70.3294 171.34C70.2574 171.016 70.4374 170.8 70.7614 170.8H75.4774C75.8014 170.8 75.9814 171.016 75.9094 171.34C75.5854 172.852 75.4774 173.356 75.4774 176.452V195.28C75.4774 195.748 75.2254 196 74.7574 196H71.3014C70.8694 196 70.5814 195.784 70.5094 195.388L68.1694 184.444C68.1334 184.192 67.9894 184.084 67.8094 184.084C67.5934 184.084 67.4494 184.228 67.4494 184.516C67.5574 186.928 67.6654 191.932 67.6654 195.28C67.6654 195.748 67.4134 196 66.9454 196H63.6334ZM84.0929 196.36C79.0529 196.36 76.9289 192.076 76.9289 183.4C76.9289 174.328 79.6649 170.44 84.3809 170.44C85.7489 170.44 87.1889 170.656 87.9809 171.484C88.4129 171.916 88.5929 172.456 88.5929 173.212V176.488C88.5929 176.956 88.4849 177.352 88.0529 177.352C87.8009 177.352 87.5849 177.244 87.1169 176.704C86.7209 176.236 86.2169 175.696 85.3529 175.696C83.3369 175.696 82.3649 178.072 82.3649 183.472C82.3649 184.948 82.4369 191.464 83.9849 191.464C84.3089 191.464 84.4529 191.14 84.4529 190.636V187.468C84.4529 184.372 84.3449 183.868 84.0209 182.356C83.9489 182.032 84.1289 181.816 84.4529 181.816H88.3409C88.8089 181.816 89.0969 182.068 89.0969 182.536V190.456C89.0969 194.848 86.7569 196.36 84.0929 196.36ZM98.73 196C98.262 196 98.01 195.748 98.01 195.28V192.58C98.01 190.276 97.866 189.376 97.074 185.812L94.698 175.264C94.266 173.356 94.05 172.78 93.366 171.304C93.222 171.016 93.366 170.8 93.654 170.8H99.45C99.738 170.8 99.846 171.088 99.81 171.304C99.594 172.132 99.378 172.888 99.81 175.156C100.062 176.524 100.134 177.856 100.386 180.34C100.422 180.7 100.494 180.988 100.782 180.988C101.07 180.988 101.142 180.7 101.178 180.34C101.43 177.856 101.538 176.524 101.79 175.156C102.222 172.888 102.006 172.132 101.79 171.304C101.754 171.088 101.862 170.8 102.15 170.8H107.442C107.73 170.8 107.874 171.016 107.73 171.304C107.046 172.78 106.794 173.356 106.398 175.264L104.202 185.812C103.446 189.376 103.23 190.276 103.23 192.58V195.28C103.23 195.748 102.978 196 102.51 196H98.73ZM109.372 196C108.904 196 108.652 195.748 108.652 195.28V176.812C108.652 173.716 108.544 172.852 108.22 171.34C108.148 171.016 108.328 170.8 108.652 170.8H118.228C118.444 170.8 118.588 170.944 118.588 171.16V176.164C118.588 176.56 118.264 176.632 117.868 176.416C116.5 175.696 115.744 175.444 114.916 175.444C114.088 175.444 113.872 175.768 113.872 176.344V180.376C113.872 180.592 114.016 180.736 114.232 180.736H117.652C117.868 180.736 118.012 180.88 118.012 181.096V185.38C118.012 185.596 117.868 185.74 117.652 185.74H114.232C114.016 185.74 113.872 185.884 113.872 186.1V190.6C113.872 190.816 114.016 190.96 114.232 190.96H118.336C118.552 190.96 118.696 191.104 118.696 191.32V195.64C118.696 195.856 118.552 196 118.336 196H109.372ZM110.704 169.792C110.38 169.792 110.308 169.612 110.308 169.396V168.784C110.308 168.604 110.38 168.46 110.632 168.424C111.712 168.244 112.396 167.92 113.152 167.308C113.332 167.164 113.476 167.056 113.656 167.056C113.836 167.056 113.98 167.164 114.16 167.308C114.916 167.92 115.6 168.244 116.68 168.424C116.932 168.46 117.004 168.604 117.004 168.784V169.396C117.004 169.612 116.932 169.792 116.608 169.792C115.528 169.792 114.268 169.216 113.656 168.568C113.044 169.216 111.784 169.792 110.704 169.792ZM111.136 166.516C110.812 166.516 110.704 166.408 110.704 166.12V165.616C110.704 165.436 110.812 165.328 110.992 165.328C112.54 165.292 114.52 165.004 116.428 164.32C116.716 164.212 116.86 164.356 116.86 164.536V165.148C116.86 165.472 116.752 165.616 116.392 165.76C114.52 166.444 112.144 166.516 111.136 166.516ZM126.448 196.36C122.416 196.36 120.112 193.912 120.112 189.484V176.812C120.112 173.716 120.004 172.852 119.68 171.34C119.608 171.016 119.788 170.8 120.112 170.8H125.332C125.656 170.8 125.836 171.016 125.764 171.34C125.44 172.852 125.332 173.716 125.332 176.812V189.556C125.332 190.492 125.764 190.996 126.448 190.996C127.096 190.996 127.528 190.492 127.528 189.556V176.812C127.528 173.716 127.42 172.852 127.096 171.34C127.024 171.016 127.204 170.8 127.528 170.8H132.748C133.072 170.8 133.252 171.016 133.18 171.34C132.856 172.852 132.748 173.716 132.748 176.812V189.484C132.748 193.912 130.444 196.36 126.448 196.36Z" fill="#FFFFF1"/>
</svg>
