<svg width="234" height="222" viewBox="0 0 234 222" fill="none" xmlns="http://www.w3.org/2000/svg">
<g clip-path="url(#clip0_344_15216)">
<path d="M39.511 71.768C36.055 71.768 33.047 70.8507 30.487 69.016C27.927 67.1813 25.943 64.5573 24.535 61.144C23.1697 57.7307 22.487 53.72 22.487 49.112C22.487 44.504 23.1697 40.5147 24.535 37.144C25.943 33.7307 27.927 31.1067 30.487 29.272C33.047 27.4373 36.055 26.52 39.511 26.52C42.967 26.52 45.975 27.4373 48.535 29.272C51.095 31.1067 53.0577 33.7307 54.423 37.144C55.831 40.5147 56.535 44.504 56.535 49.112C56.535 53.72 55.831 57.7307 54.423 61.144C53.0577 64.5573 51.095 67.1813 48.535 69.016C45.975 70.8507 42.967 71.768 39.511 71.768ZM39.511 65.368C42.6683 65.368 45.079 63.9813 46.743 61.208C48.4497 58.392 49.303 54.36 49.303 49.112C49.303 43.9067 48.4497 39.9173 46.743 37.144C45.079 34.328 42.6683 32.92 39.511 32.92C36.3537 32.92 33.9217 34.328 32.215 37.144C30.5083 39.9173 29.655 43.9067 29.655 49.112C29.655 54.36 30.5083 58.392 32.215 61.208C33.9217 63.9813 36.3537 65.368 39.511 65.368ZM71.3045 71C70.8778 71 70.6645 70.7867 70.6645 70.36V38.872C70.6645 38.5307 70.5578 38.36 70.3445 38.36C70.1738 38.36 70.0032 38.4453 69.8325 38.616C68.1685 40.4507 66.4618 41.752 64.7125 42.52C63.0058 43.2453 61.5125 43.608 60.2325 43.608C59.7632 43.608 59.5285 43.3733 59.5285 42.904V38.168C59.5285 37.7413 59.7205 37.5067 60.1045 37.464C62.6218 36.7813 64.8405 35.608 66.7605 33.944C68.7232 32.28 70.1952 30.1893 71.1765 27.672C71.3045 27.3307 71.5605 27.16 71.9445 27.16H77.0645C77.4912 27.16 77.7045 27.3733 77.7045 27.8V70.36C77.7045 70.7867 77.4912 71 77.0645 71H71.3045Z" fill="#FFFFF1"/>
<line x1="20" y1="103.5" x2="214" y2="103.5" stroke="#FFFFF1"/>
<path d="M27.74 155.36C23.168 155.36 20.468 151.436 20.468 142.4C20.468 133.364 23.168 129.44 27.74 129.44C28.892 129.44 30.08 129.728 30.908 130.376C31.628 130.952 31.772 131.672 31.772 132.536V135.524C31.772 136.064 31.556 136.316 31.232 136.316C30.836 136.316 30.584 135.992 30.26 135.596C29.9 135.164 29.432 134.696 28.64 134.696C26.84 134.696 25.94 136.964 25.94 142.4C25.94 147.836 26.84 150.104 28.64 150.104C29.432 150.104 29.9 149.636 30.26 149.204C30.584 148.808 30.8 148.484 31.196 148.484C31.52 148.484 31.772 148.736 31.772 149.276V152.264C31.772 153.128 31.628 153.848 30.908 154.424C30.08 155.072 28.892 155.36 27.74 155.36ZM33.8912 155C33.4232 155 33.1712 154.748 33.1712 154.28V135.812C33.1712 132.716 33.0632 131.852 32.7392 130.34C32.6672 130.016 32.8472 129.8 33.1712 129.8H42.7472C42.9632 129.8 43.1072 129.944 43.1072 130.16V135.164C43.1072 135.56 42.7832 135.632 42.3872 135.416C41.0192 134.696 40.2632 134.444 39.4352 134.444C38.6072 134.444 38.3912 134.768 38.3912 135.344V139.376C38.3912 139.592 38.5352 139.736 38.7512 139.736H42.1712C42.3872 139.736 42.5312 139.88 42.5312 140.096V144.38C42.5312 144.596 42.3872 144.74 42.1712 144.74H38.7512C38.5352 144.74 38.3912 144.884 38.3912 145.1V149.6C38.3912 149.816 38.5352 149.96 38.7512 149.96H42.8552C43.0712 149.96 43.2152 150.104 43.2152 150.32V154.64C43.2152 154.856 43.0712 155 42.8552 155H33.8912ZM51.0075 155.36C46.7235 155.36 44.0235 152.156 44.0235 142.4C44.0235 132.644 46.7235 129.44 51.0075 129.44C55.2915 129.44 58.0275 132.644 58.0275 142.4C58.0275 152.156 55.2915 155.36 51.0075 155.36ZM51.0075 150.32C51.8355 150.32 52.5195 149.384 52.5195 142.4C52.5195 135.38 51.8355 134.48 51.0075 134.48C50.1795 134.48 49.5315 135.38 49.5315 142.4C49.5315 149.384 50.1795 150.32 51.0075 150.32ZM60.9475 138.224C59.9035 138.224 59.0755 137.864 59.0755 137.18V135.992C59.0755 135.668 59.2915 135.632 59.5795 135.812C59.8675 135.992 60.2635 136.208 60.9475 136.208C61.9195 136.208 62.4595 135.596 62.4595 135.056C62.4595 134.696 62.2435 134.624 61.8115 134.624H61.5955C59.7595 134.624 58.7875 133.58 58.7875 132.176C58.7875 130.772 59.7595 129.44 61.7395 129.44C63.8635 129.44 65.0875 131.024 65.0875 133.472C65.0875 135.776 64.0435 138.224 60.9475 138.224ZM70.4233 155.36C68.8033 155.36 67.2913 154.892 66.6433 154.172C66.1753 153.668 66.0673 153.092 66.0673 152.444V147.98C66.0673 147.62 66.2113 147.26 66.5713 147.26C66.8953 147.26 67.0393 147.476 67.5073 148.16C68.1553 149.132 68.7673 149.924 69.9193 149.924C71.0353 149.924 71.4313 148.88 71.4313 148.052C71.4313 146.648 70.4953 145.64 69.0193 143.948C67.5433 142.256 66.0313 140.168 66.0313 136.964C66.0313 132.644 68.2993 129.44 72.3313 129.44C73.8793 129.44 75.0673 129.908 75.7153 130.592C76.2193 131.096 76.2913 131.708 76.2913 132.356V136.208C76.2913 136.604 76.1473 136.928 75.7873 136.928C75.4633 136.928 75.3193 136.784 74.7793 136.1C74.2033 135.344 73.7353 134.876 72.9793 134.876C71.8273 134.876 71.3593 135.776 71.3593 136.64C71.3593 138.116 72.3673 139.268 73.9153 141.032C75.4633 142.832 76.7953 144.74 76.7953 147.908C76.7953 152.192 74.4553 155.36 70.4233 155.36ZM83.1803 155C82.7123 155 82.4603 154.748 82.4603 154.28V135.452C82.4603 132.356 82.3523 131.852 82.0283 130.34C81.9563 130.016 82.1363 129.8 82.4603 129.8H88.9403C89.7323 129.8 90.0203 130.016 90.0923 130.844L91.1003 142.076C91.1363 142.364 91.2443 142.472 91.4243 142.472C91.6043 142.472 91.7483 142.364 91.7843 142.076L92.7923 130.844C92.8643 130.016 93.1523 129.8 93.9443 129.8H100.676C101 129.8 101.18 130.016 101.108 130.34C100.784 131.852 100.676 132.356 100.676 135.452V154.28C100.676 154.748 100.424 155 99.9563 155H96.4643C95.9963 155 95.7443 154.748 95.7443 154.28C95.7443 149.204 95.8163 143.588 95.8883 138.152C95.8883 137.9 95.8163 137.72 95.5643 137.72C95.3843 137.72 95.2403 137.828 95.2043 138.116L93.2243 154.316C93.1523 154.784 92.8643 155 92.4323 155H90.3443C89.9123 155 89.6243 154.784 89.5523 154.316L87.5723 138.08C87.5363 137.828 87.4283 137.72 87.2123 137.72C86.9603 137.72 86.8883 137.936 86.8883 138.152C86.9603 143.588 87.0323 149.204 87.0323 154.28C87.0323 154.748 86.7803 155 86.3123 155H83.1803ZM103.325 155C102.857 155 102.605 154.748 102.605 154.28V135.812C102.605 132.716 102.497 131.852 102.173 130.34C102.101 130.016 102.281 129.8 102.605 129.8H112.181C112.397 129.8 112.541 129.944 112.541 130.16V135.164C112.541 135.56 112.217 135.632 111.821 135.416C110.453 134.696 109.697 134.444 108.869 134.444C108.041 134.444 107.825 134.768 107.825 135.344V139.376C107.825 139.592 107.969 139.736 108.185 139.736H111.605C111.821 139.736 111.965 139.88 111.965 140.096V144.38C111.965 144.596 111.821 144.74 111.605 144.74H108.185C107.969 144.74 107.825 144.884 107.825 145.1V149.6C107.825 149.816 107.969 149.96 108.185 149.96H112.289C112.505 149.96 112.649 150.104 112.649 150.32V154.64C112.649 154.856 112.505 155 112.289 155H103.325ZM118.025 155.36C116.405 155.36 114.893 154.892 114.245 154.172C113.777 153.668 113.669 153.092 113.669 152.444V147.98C113.669 147.62 113.813 147.26 114.173 147.26C114.497 147.26 114.641 147.476 115.109 148.16C115.757 149.132 116.369 149.924 117.521 149.924C118.637 149.924 119.033 148.88 119.033 148.052C119.033 146.648 118.097 145.64 116.621 143.948C115.145 142.256 113.633 140.168 113.633 136.964C113.633 132.644 115.901 129.44 119.933 129.44C121.481 129.44 122.669 129.908 123.317 130.592C123.821 131.096 123.893 131.708 123.893 132.356V136.208C123.893 136.604 123.749 136.928 123.389 136.928C123.065 136.928 122.921 136.784 122.381 136.1C121.805 135.344 121.337 134.876 120.581 134.876C119.429 134.876 118.961 135.776 118.961 136.64C118.961 138.116 119.969 139.268 121.517 141.032C123.065 142.832 124.397 144.74 124.397 147.908C124.397 152.192 122.057 155.36 118.025 155.36ZM129.591 155.36C127.971 155.36 126.459 154.892 125.811 154.172C125.343 153.668 125.235 153.092 125.235 152.444V147.98C125.235 147.62 125.379 147.26 125.739 147.26C126.063 147.26 126.207 147.476 126.675 148.16C127.323 149.132 127.935 149.924 129.087 149.924C130.203 149.924 130.599 148.88 130.599 148.052C130.599 146.648 129.663 145.64 128.187 143.948C126.711 142.256 125.199 140.168 125.199 136.964C125.199 132.644 127.467 129.44 131.499 129.44C133.047 129.44 134.235 129.908 134.883 130.592C135.387 131.096 135.459 131.708 135.459 132.356V136.208C135.459 136.604 135.315 136.928 134.955 136.928C134.631 136.928 134.487 136.784 133.947 136.1C133.371 135.344 132.903 134.876 132.147 134.876C130.995 134.876 130.527 135.776 130.527 136.64C130.527 138.116 131.535 139.268 133.083 141.032C134.631 142.832 135.963 144.74 135.963 147.908C135.963 152.192 133.623 155.36 129.591 155.36ZM136.913 155C136.517 155 136.301 154.82 136.337 154.46L138.605 133.292C138.749 131.924 138.677 131.24 138.533 130.484C138.461 130.016 138.677 129.8 139.001 129.8H147.317C147.641 129.8 147.857 130.016 147.749 130.484C147.605 131.168 147.497 131.816 147.641 133.292L149.909 154.46C149.945 154.82 149.729 155 149.333 155H145.373C145.049 155 144.833 154.82 144.797 154.532L144.473 151.364C144.437 151.004 144.257 150.824 143.897 150.824H142.061C141.701 150.824 141.485 151.004 141.449 151.364L141.125 154.532C141.089 154.856 140.837 155 140.549 155H136.913ZM143.501 146C143.897 146 143.969 145.82 143.933 145.532C143.681 142.616 143.501 140.564 143.357 136.568C143.357 136.244 143.213 136.064 142.961 136.064C142.709 136.064 142.565 136.244 142.565 136.568C142.421 140.564 142.241 142.616 141.989 145.532C141.953 145.82 142.025 146 142.421 146H143.501ZM157.429 155.36C152.389 155.36 150.265 151.076 150.265 142.4C150.265 133.328 153.001 129.44 157.717 129.44C159.085 129.44 160.525 129.656 161.317 130.484C161.749 130.916 161.929 131.456 161.929 132.212V135.488C161.929 135.956 161.821 136.352 161.389 136.352C161.137 136.352 160.921 136.244 160.453 135.704C160.057 135.236 159.553 134.696 158.689 134.696C156.673 134.696 155.701 137.072 155.701 142.472C155.701 143.948 155.773 150.464 157.321 150.464C157.645 150.464 157.789 150.14 157.789 149.636V146.468C157.789 143.372 157.681 142.868 157.357 141.356C157.285 141.032 157.465 140.816 157.789 140.816H161.677C162.145 140.816 162.433 141.068 162.433 141.536V149.456C162.433 153.848 160.093 155.36 157.429 155.36ZM164.672 155C164.204 155 163.952 154.748 163.952 154.28V135.812C163.952 132.716 163.844 131.852 163.52 130.34C163.448 130.016 163.628 129.8 163.952 129.8H173.528C173.744 129.8 173.888 129.944 173.888 130.16V135.164C173.888 135.56 173.564 135.632 173.168 135.416C171.8 134.696 171.044 134.444 170.216 134.444C169.388 134.444 169.172 134.768 169.172 135.344V139.376C169.172 139.592 169.316 139.736 169.532 139.736H172.952C173.168 139.736 173.312 139.88 173.312 140.096V144.38C173.312 144.596 173.168 144.74 172.952 144.74H169.532C169.316 144.74 169.172 144.884 169.172 145.1V149.6C169.172 149.816 169.316 149.96 169.532 149.96H173.636C173.852 149.96 173.996 150.104 173.996 150.32V154.64C173.996 154.856 173.852 155 173.636 155H164.672Z" fill="#FFFFF1"/>
</g>
<defs>
<clipPath id="clip0_344_15216">
<rect width="234" height="222" fill="white"/>
</clipPath>
</defs>
</svg>
