<svg width="32" height="33" viewBox="0 0 32 33" fill="none" xmlns="http://www.w3.org/2000/svg">
<g clip-path="url(#clip0_181_224)">
<path fill-rule="evenodd" clip-rule="evenodd" d="M0 16.9679C0 8.13134 7.16344 0.967896 16 0.967896C24.8365 0.967896 32 8.13134 32 16.9679C32 25.8044 24.8365 32.9679 16 32.9679C7.16344 32.9679 0 25.8044 0 16.9679ZM8.2 14.2679V24.9679H11.6V14.2679H8.2ZM8 10.8679C8 11.9679 8.8 12.7679 9.9 12.7679C11 12.7679 11.8 11.9679 11.8 10.8679C11.8 9.7679 11 8.9679 9.9 8.9679C8.9 8.9679 8 9.7679 8 10.8679ZM20.6 24.9679H23.8V18.3679C23.8 15.0679 21.8 13.9679 19.9 13.9679C18.2 13.9679 17 15.0679 16.7 15.7679V14.2679H13.5V24.9679H16.9V19.2679C16.9 17.7679 17.9 16.9679 18.9 16.9679C19.9 16.9679 20.6 17.4679 20.6 19.1679V24.9679Z" fill="#FFFFF1"/>
</g>
<defs>
<clipPath id="clip0_181_224">
<rect width="32" height="32" fill="white" transform="translate(0 0.967896)"/>
</clipPath>
</defs>
</svg>
