<svg width="32" height="33" viewBox="0 0 32 33" fill="none" xmlns="http://www.w3.org/2000/svg">
<g clip-path="url(#clip0_181_220)">
<path d="M16 19.7678C14.5 19.7678 13.2 18.5678 13.2 16.9678C13.2 15.4678 14.4 14.1678 16 14.1678C17.5 14.1678 18.8 15.3678 18.8 16.9678C18.8 18.4678 17.5 19.7678 16 19.7678Z" fill="#FFFFF1"/>
<path fill-rule="evenodd" clip-rule="evenodd" d="M19.4 10.1678H12.6C11.8 10.2678 11.4 10.3678 11.1 10.4678C10.7 10.5678 10.4 10.7678 10.1 11.0678C9.86256 11.3052 9.7504 11.5426 9.61483 11.8296C9.57911 11.9052 9.54166 11.9844 9.49995 12.0678C9.48448 12.1143 9.46662 12.1631 9.44747 12.2154C9.34286 12.5012 9.19995 12.8916 9.19995 13.5678V20.3678C9.29995 21.1678 9.39995 21.5678 9.49995 21.8678C9.59995 22.2678 9.79995 22.5678 10.1 22.8678C10.3373 23.1052 10.5747 23.2174 10.8617 23.3529C10.9373 23.3888 11.0165 23.4261 11.1 23.4678C11.1464 23.4833 11.1952 23.5012 11.2475 23.5204C11.5333 23.6249 11.9237 23.7678 12.6 23.7678H19.4C20.2 23.6678 20.6 23.5678 20.9 23.4678C21.3 23.3678 21.6 23.1678 21.9 22.8678C22.1373 22.6305 22.2496 22.393 22.385 22.1061C22.4208 22.0305 22.4582 21.9513 22.5 21.8678C22.5154 21.8214 22.5333 21.7726 22.5525 21.7204C22.657 21.4345 22.8 21.0441 22.8 20.3678V13.5678C22.7 12.7678 22.6 12.3678 22.5 12.0678C22.4 11.6678 22.2 11.3678 21.9 11.0678C21.6626 10.8305 21.4251 10.7183 21.1382 10.5827C21.0626 10.547 20.9833 10.5095 20.9 10.4678C20.8536 10.4524 20.8048 10.4345 20.7525 10.4154C20.4666 10.3108 20.0762 10.1678 19.4 10.1678ZM16 12.6678C13.6 12.6678 11.7 14.5678 11.7 16.9678C11.7 19.3678 13.6 21.2678 16 21.2678C18.4 21.2678 20.3 19.3678 20.3 16.9678C20.3 14.5678 18.4 12.6678 16 12.6678ZM21.4 12.5678C21.4 13.1201 20.9522 13.5678 20.4 13.5678C19.8477 13.5678 19.4 13.1201 19.4 12.5678C19.4 12.0156 19.8477 11.5678 20.4 11.5678C20.9522 11.5678 21.4 12.0156 21.4 12.5678Z" fill="#FFFFF1"/>
<path fill-rule="evenodd" clip-rule="evenodd" d="M0 16.9679C0 8.13134 7.16344 0.967896 16 0.967896C24.8365 0.967896 32 8.13134 32 16.9679C32 25.8044 24.8365 32.9679 16 32.9679C7.16344 32.9679 0 25.8044 0 16.9679ZM12.6 8.6679H19.4C20.3 8.7679 20.9 8.8679 21.4 9.0679C22 9.3679 22.4 9.5679 22.9 10.0679C23.4 10.5679 23.7 11.0679 23.9 11.5679C24.1 12.0679 24.3 12.6679 24.3 13.5679V20.3679C24.2 21.2679 24.1 21.8679 23.9 22.3679C23.6 22.9679 23.4 23.3679 22.9 23.8679C22.4 24.3679 21.9 24.6679 21.4 24.8679C20.9 25.0679 20.3 25.2679 19.4 25.2679H12.6C11.7 25.1679 11.1 25.0679 10.6 24.8679C10 24.5679 9.6 24.3679 9.1 23.8679C8.6 23.3679 8.3 22.8679 8.1 22.3679C7.9 21.8679 7.7 21.2679 7.7 20.3679V13.5679C7.8 12.6679 7.9 12.0679 8.1 11.5679C8.4 10.9679 8.6 10.5679 9.1 10.0679C9.6 9.5679 10.1 9.2679 10.6 9.0679C11.1 8.8679 11.7 8.6679 12.6 8.6679Z" fill="#FFFFF1"/>
</g>
<defs>
<clipPath id="clip0_181_220">
<rect width="32" height="32" fill="white" transform="translate(0 0.967896)"/>
</clipPath>
</defs>
</svg>
