<svg width="1440" height="26" viewBox="0 0 1440 26" fill="none" xmlns="http://www.w3.org/2000/svg">
<rect width="58.397" height="26" fill="#3459FF"/>
<rect x="58.397" width="31.6031" height="26" fill="#38C0FF"/>
<rect x="90" width="58.397" height="26" fill="#3459FF"/>
<rect x="148.397" width="31.6031" height="26" fill="#38C0FF"/>
<rect x="180" width="58.397" height="26" fill="#3459FF"/>
<rect x="238.397" width="31.6031" height="26" fill="#38C0FF"/>
<rect x="270" width="58.397" height="26" fill="#3459FF"/>
<rect x="328.397" width="31.6031" height="26" fill="#38C0FF"/>
<rect x="360" width="58.397" height="26" fill="#3459FF"/>
<rect x="418.397" width="31.6031" height="26" fill="#38C0FF"/>
<rect x="450" width="58.397" height="26" fill="#3459FF"/>
<rect x="508.397" width="31.6031" height="26" fill="#38C0FF"/>
<rect x="540" width="58.397" height="26" fill="#3459FF"/>
<rect x="598.397" width="31.6031" height="26" fill="#38C0FF"/>
<rect x="630" width="58.397" height="26" fill="#3459FF"/>
<rect x="688.396" width="31.6031" height="26" fill="#38C0FF"/>
<rect x="720" width="58.397" height="26" fill="#3459FF"/>
<rect x="778.396" width="31.6031" height="26" fill="#38C0FF"/>
<rect x="809.999" width="58.397" height="26" fill="#3459FF"/>
<rect x="868.396" width="31.6031" height="26" fill="#38C0FF"/>
<rect x="899.999" width="58.397" height="26" fill="#3459FF"/>
<rect x="958.396" width="31.6031" height="26" fill="#38C0FF"/>
<rect x="989.999" width="58.397" height="26" fill="#3459FF"/>
<rect x="1048.4" width="31.6031" height="26" fill="#38C0FF"/>
<rect x="1080" width="58.397" height="26" fill="#3459FF"/>
<rect x="1138.39" width="31.6031" height="26" fill="#38C0FF"/>
<rect x="1170" width="58.397" height="26" fill="#3459FF"/>
<rect x="1228.39" width="31.6031" height="26" fill="#38C0FF"/>
<rect x="1260" width="58.397" height="26" fill="#3459FF"/>
<rect x="1318.39" width="31.6031" height="26" fill="#38C0FF"/>
<rect x="1350" width="58.397" height="26" fill="#3459FF"/>
<rect x="1408.39" width="31.6031" height="26" fill="#38C0FF"/>
</svg>
