<svg width="1440" height="26" viewBox="0 0 1440 26" fill="none" xmlns="http://www.w3.org/2000/svg">
<rect width="58.397" height="26" fill="#0213B0"/>
<rect x="58.3975" width="31.6031" height="26" fill="#2DFFB3"/>
<rect x="90" width="58.397" height="26" fill="#0213B0"/>
<rect x="148.397" width="31.6031" height="26" fill="#2DFFB3"/>
<rect x="180" width="58.397" height="26" fill="#0213B0"/>
<rect x="238.396" width="31.6031" height="26" fill="#2DFFB3"/>
<rect x="270" width="58.397" height="26" fill="#0213B0"/>
<rect x="328.396" width="31.6031" height="26" fill="#2DFFB3"/>
<rect x="360" width="58.397" height="26" fill="#0213B0"/>
<rect x="418.396" width="31.6031" height="26" fill="#2DFFB3"/>
<rect x="450" width="58.397" height="26" fill="#0213B0"/>
<rect x="508.396" width="31.6031" height="26" fill="#2DFFB3"/>
<rect x="540" width="58.397" height="26" fill="#0213B0"/>
<rect x="598.396" width="31.6031" height="26" fill="#2DFFB3"/>
<rect x="630" width="58.397" height="26" fill="#0213B0"/>
<rect x="688.396" width="31.6031" height="26" fill="#2DFFB3"/>
<rect x="720" width="58.397" height="26" fill="#0213B0"/>
<rect x="778.396" width="31.6031" height="26" fill="#2DFFB3"/>
<rect x="809.999" width="58.397" height="26" fill="#0213B0"/>
<rect x="868.396" width="31.6031" height="26" fill="#2DFFB3"/>
<rect x="899.999" width="58.397" height="26" fill="#0213B0"/>
<rect x="958.396" width="31.6031" height="26" fill="#2DFFB3"/>
<rect x="989.998" width="58.397" height="26" fill="#0213B0"/>
<rect x="1048.39" width="31.6031" height="26" fill="#2DFFB3"/>
<rect x="1080" width="58.397" height="26" fill="#0213B0"/>
<rect x="1138.39" width="31.6031" height="26" fill="#2DFFB3"/>
<rect x="1170" width="58.397" height="26" fill="#0213B0"/>
<rect x="1228.39" width="31.6031" height="26" fill="#2DFFB3"/>
<rect x="1260" width="58.397" height="26" fill="#0213B0"/>
<rect x="1318.39" width="31.6031" height="26" fill="#2DFFB3"/>
<rect x="1350" width="58.397" height="26" fill="#0213B0"/>
<rect x="1408.39" width="31.6031" height="26" fill="#2DFFB3"/>
</svg>
