<svg width="1440" height="41" viewBox="0 0 1440 41" fill="none" xmlns="http://www.w3.org/2000/svg">
<rect width="1440" height="41" fill="#0213B0"/>
<rect width="7" height="41" fill="#FFFFF1"/>
<rect x="22.0469" width="7" height="41" fill="#FFFFF1"/>
<rect x="44.0938" width="7" height="41" fill="#FFFFF1"/>
<rect x="66.1406" width="7" height="41" fill="#FFFFF1"/>
<rect x="88.1875" width="7" height="41" fill="#FFFFF1"/>
<rect x="110.234" width="7" height="41" fill="#FFFFF1"/>
<rect x="132.281" width="8" height="41" fill="#FFFFF1"/>
<rect x="155.328" width="7" height="41" fill="#FFFFF1"/>
<rect x="177.375" width="7" height="41" fill="#FFFFF1"/>
<rect x="199.422" width="7" height="41" fill="#FFFFF1"/>
<rect x="221.469" width="8" height="41" fill="#FFFFF1"/>
<rect x="244.516" width="8" height="41" fill="#FFFFF1"/>
<rect x="267.562" width="8" height="41" fill="#FFFFF1"/>
<rect x="290.609" width="8" height="41" fill="#FFFFF1"/>
<rect x="313.656" width="8" height="41" fill="#FFFFF1"/>
<rect x="336.703" width="8" height="41" fill="#FFFFF1"/>
<rect x="359.75" width="8" height="41" fill="#FFFFF1"/>
<rect x="382.797" width="8" height="41" fill="#FFFFF1"/>
<rect x="405.844" width="8" height="41" fill="#FFFFF1"/>
<rect x="428.891" width="8" height="41" fill="#FFFFF1"/>
<rect x="451.938" width="7" height="41" fill="#FFFFF1"/>
<rect x="473.984" width="7" height="41" fill="#FFFFF1"/>
<rect x="496.031" width="7" height="41" fill="#FFFFF1"/>
<rect x="518.078" width="7" height="41" fill="#FFFFF1"/>
<rect x="540.125" width="7" height="41" fill="#FFFFF1"/>
<rect x="562.172" width="7" height="41" fill="#FFFFF1"/>
<rect x="584.219" width="7" height="41" fill="#FFFFF1"/>
<rect x="606.266" width="7" height="41" fill="#FFFFF1"/>
<rect x="628.312" width="7" height="41" fill="#FFFFF1"/>
<rect x="650.359" width="7" height="41" fill="#FFFFF1"/>
<rect x="672.406" width="7" height="41" fill="#FFFFF1"/>
<rect x="694.453" width="8" height="41" fill="#FFFFF1"/>
<rect x="717.5" width="8" height="41" fill="#FFFFF1"/>
<rect x="740.547" width="8" height="41" fill="#FFFFF1"/>
<rect x="763.594" width="8" height="41" fill="#FFFFF1"/>
<rect x="786.641" width="8" height="41" fill="#FFFFF1"/>
<rect x="809.688" width="8" height="41" fill="#FFFFF1"/>
<rect x="832.734" width="8" height="41" fill="#FFFFF1"/>
<rect x="855.781" width="8" height="41" fill="#FFFFF1"/>
<rect x="878.828" width="8" height="41" fill="#FFFFF1"/>
<rect x="901.875" width="8" height="41" fill="#FFFFF1"/>
<rect x="924.922" width="7" height="41" fill="#FFFFF1"/>
<rect x="946.969" width="7" height="41" fill="#FFFFF1"/>
<rect x="969.016" width="7" height="41" fill="#FFFFF1"/>
<rect x="991.062" width="8" height="41" fill="#FFFFF1"/>
<rect x="1014.11" width="7" height="41" fill="#FFFFF1"/>
<rect x="1036.16" width="7" height="41" fill="#FFFFF1"/>
<rect x="1058.2" width="7" height="41" fill="#FFFFF1"/>
<rect x="1080.25" width="7" height="41" fill="#FFFFF1"/>
<rect x="1102.3" width="7" height="41" fill="#FFFFF1"/>
<rect x="1124.34" width="7" height="41" fill="#FFFFF1"/>
<rect x="1146.39" width="7" height="41" fill="#FFFFF1"/>
<rect x="1168.44" width="7" height="41" fill="#FFFFF1"/>
<rect x="1190.48" width="7" height="41" fill="#FFFFF1"/>
<rect x="1212.53" width="7" height="41" fill="#FFFFF1"/>
<rect x="1234.58" width="7" height="41" fill="#FFFFF1"/>
<rect x="1256.62" width="7" height="41" fill="#FFFFF1"/>
<rect x="1278.67" width="7" height="41" fill="#FFFFF1"/>
<rect x="1300.72" width="7" height="41" fill="#FFFFF1"/>
<rect x="1322.77" width="7" height="41" fill="#FFFFF1"/>
<rect x="1344.81" width="7" height="41" fill="#FFFFF1"/>
<rect x="1366.86" width="7" height="41" fill="#FFFFF1"/>
<rect x="1388.91" width="7" height="41" fill="#FFFFF1"/>
<rect x="1410.95" width="7" height="41" fill="#FFFFF1"/>
<rect x="1433" width="7" height="41" fill="#FFFFF1"/>
</svg>
