<svg width="32" height="33" viewBox="0 0 32 33" fill="none" xmlns="http://www.w3.org/2000/svg">
<g clip-path="url(#clip0_181_229)">
<path fill-rule="evenodd" clip-rule="evenodd" d="M16 32.9679C24.8365 32.9679 32 25.8044 32 16.9679C32 8.13134 24.8365 0.967896 16 0.967896C7.16344 0.967896 0 8.13134 0 16.9679C0 25.8044 7.16344 32.9679 16 32.9679ZM16.7995 7.63456H19.9453C19.9453 10.0152 21.8005 11.9631 24.1667 12.0442V15.2366C22.634 15.2095 21.1821 14.6955 19.9991 13.8297V20.3495C19.9991 23.623 17.364 26.3012 14.1107 26.3012C10.8572 26.3012 8.22223 23.65 8.22223 20.3495C8.22223 17.0762 10.8035 14.4519 14.0031 14.3979V17.5902C12.5512 17.6442 11.3681 18.8616 11.3681 20.3495C11.3681 21.8646 12.578 23.109 14.0837 23.109C15.5895 23.109 16.7995 21.8646 16.7995 20.3495V7.63456Z" fill="#FFFFF1"/>
</g>
<defs>
<clipPath id="clip0_181_229">
<rect width="32" height="32" fill="white" transform="translate(0 0.967896)"/>
</clipPath>
</defs>
</svg>
