<svg width="32" height="33" viewBox="0 0 32 33" fill="none" xmlns="http://www.w3.org/2000/svg">
<g clip-path="url(#clip0_181_226)">
<path d="M18.6 16.9679L14.4 14.5679V19.3679L18.6 16.9679Z" fill="#FFFFF1"/>
<path fill-rule="evenodd" clip-rule="evenodd" d="M0 16.9679C0 8.13134 7.16344 0.967896 16 0.967896C24.8365 0.967896 32 8.13134 32 16.9679C32 25.8044 24.8365 32.9679 16 32.9679C7.16344 32.9679 0 25.8044 0 16.9679ZM22.2 11.6679C22.9 11.8679 23.4 12.3679 23.6 13.0679C24 14.3679 24 16.9679 24 16.9679C24 16.9679 24 19.5679 23.7 20.8679C23.5 21.5679 23 22.0679 22.3 22.2679C21 22.5679 16 22.5679 16 22.5679C16 22.5679 10.9 22.5679 9.7 22.2679C9 22.0679 8.5 21.5679 8.3 20.8679C8 19.5679 8 16.9679 8 16.9679C8 16.9679 8 14.3679 8.2 13.0679C8.4 12.3679 8.9 11.8679 9.6 11.6679C10.9 11.3679 15.9 11.3679 15.9 11.3679C15.9 11.3679 21 11.3679 22.2 11.6679Z" fill="#FFFFF1"/>
</g>
<defs>
<clipPath id="clip0_181_226">
<rect width="32" height="32" fill="white" transform="translate(0 0.967896)"/>
</clipPath>
</defs>
</svg>
